<svg width="100" height="100" viewBox="0 0 100 100" fill="none" xmlns="http://www.w3.org/2000/svg">
<g clip-path="url(#clip0_2385_5273)">
<path d="M100 0H0V100H100V0Z" fill="url(#paint0_linear_2385_5273)"/>
<path d="M83.3333 31.333V28.6663H78V24.6663C78 24.3127 77.8595 23.9736 77.6094 23.7235C77.3594 23.4735 77.0202 23.333 76.6666 23.333H23.3333C22.9797 23.333 22.6405 23.4735 22.3905 23.7235C22.1404 23.9736 22 24.3127 22 24.6663V28.6663H16.6666V31.333H22V35.333H16.6666V37.9997H22V41.9997H16.6666V44.6663H22V48.6663H16.6666V51.333H22V55.333H16.6666V57.9997H22V61.9997H16.6666V64.6663H22V68.6663H16.6666V71.333H22V75.333C22 75.6866 22.1404 76.0258 22.3905 76.2758C22.6405 76.5259 22.9797 76.6663 23.3333 76.6663H76.6666C77.0202 76.6663 77.3594 76.5259 77.6094 76.2758C77.8595 76.0258 78 75.6866 78 75.333V71.333H83.3333V68.6663H78V64.6663H83.3333V61.9997H78V57.9997H83.3333V55.333H78V51.333H83.3333V48.6663H78V44.6663H83.3333V41.9997H78V37.9997H83.3333V35.333H78V31.333H83.3333ZM75.3333 73.9997H24.6666V25.9997H75.3333V73.9997Z" fill="white"/>
<path d="M64.8133 44.5199C64.0501 42.3523 62.8178 40.38 61.2045 38.7436C59.5911 37.1072 57.6365 35.8471 55.4799 35.0532C55.3831 33.6659 54.7637 32.3669 53.7466 31.4184C52.7296 30.4699 51.3907 29.9424 49.9999 29.9424C48.6092 29.9424 47.2703 30.4699 46.2533 31.4184C45.2362 32.3669 44.6168 33.6659 44.5199 35.0532C42.3653 35.8541 40.4127 37.1182 38.8 38.7563C37.1873 40.3943 35.9538 42.3663 35.1866 44.5332C33.8128 44.6691 32.5402 45.316 31.6208 46.3458C30.7014 47.3756 30.2024 48.7131 30.2225 50.0934C30.2426 51.4738 30.7805 52.7962 31.7295 53.7987C32.6785 54.8013 33.9695 55.4108 35.3466 55.5065C35.9075 56.9495 36.6854 58.2983 37.6533 59.5065L37.9466 59.8665C39.397 61.6216 41.2185 63.0333 43.2799 63.9999V69.9999H45.9466V64.9865C46.8188 65.2285 47.7115 65.3892 48.6133 65.4665V69.9999H51.2799V65.4665C52.1813 65.3935 53.074 65.2373 53.9466 64.9999V69.9999H56.6133V63.9999C60.2686 62.2769 63.1295 59.2253 64.6133 55.4665C65.9904 55.3708 67.2814 54.7613 68.2304 53.7587C69.1794 52.7562 69.7173 51.4338 69.7374 50.0534C69.7575 48.6731 69.2584 47.3355 68.3391 46.3058C67.4197 45.276 66.1471 44.6291 64.7733 44.4932L64.8133 44.5199ZM36.1333 52.7999C35.9691 52.8136 35.8041 52.8136 35.6399 52.7999C34.8867 52.7999 34.1644 52.5007 33.6318 51.9681C33.0992 51.4355 32.8 50.7131 32.8 49.9599C32.8 49.2067 33.0992 48.4843 33.6318 47.9517C34.1644 47.4191 34.8867 47.1199 35.6399 47.1199C35.8171 47.0995 35.9961 47.0995 36.1733 47.1199C36.8266 47.2398 37.4173 47.585 37.8425 48.0953C38.2677 48.6057 38.5006 49.2489 38.5006 49.9132C38.5006 50.5775 38.2677 51.2207 37.8425 51.7311C37.4173 52.2415 36.8266 52.5866 36.1733 52.7065L36.1333 52.7999ZM43.3333 61.0132C42.065 60.2628 40.937 59.2973 39.9999 58.1599C39.9999 58.1599 39.8933 58.0399 39.7999 57.9065C39.0785 57.0137 38.4819 56.0269 38.0266 54.9732C38.7592 54.6242 39.405 54.1165 39.917 53.4869C40.4289 52.8573 40.7943 52.1216 40.9866 51.3332H43.3333V61.0132ZM48.6666 62.7865C47.7591 62.6957 46.8646 62.5034 45.9999 62.2132V49.9999C45.9999 49.6463 45.8595 49.3071 45.6094 49.0571C45.3594 48.807 45.0202 48.6665 44.6666 48.6665H40.9733C40.7745 47.8518 40.3909 47.0937 39.8522 46.451C39.3134 45.8082 38.6341 45.298 37.8666 44.9599C38.509 43.3436 39.4689 41.8726 40.6896 40.6336C41.9102 39.3947 43.3668 38.413 44.9733 37.7465C45.3142 38.507 45.824 39.1796 46.464 39.7133C47.104 40.247 47.8573 40.6278 48.6666 40.8265V62.7865ZM49.9999 38.3332C49.3367 38.3288 48.6956 38.0935 48.187 37.6676C47.6785 37.2418 47.3342 36.6521 47.2133 35.9999C47.1929 35.8182 47.1929 35.6349 47.2133 35.4532C47.2133 34.7 47.5125 33.9776 48.0451 33.445C48.5777 32.9124 49.3001 32.6132 50.0533 32.6132C50.8065 32.6132 51.5289 32.9124 52.0615 33.445C52.5941 33.9776 52.8933 34.7 52.8933 35.4532C52.9065 35.5996 52.9065 35.7468 52.8933 35.8932C52.798 36.5857 52.4496 37.2183 51.9153 37.6689C51.3809 38.1196 50.6986 38.3562 49.9999 38.3332ZM55.3333 48.6665C54.9797 48.6665 54.6405 48.807 54.3905 49.0571C54.1404 49.3071 53.9999 49.6463 53.9999 49.9999V62.2132C53.1357 62.5051 52.2411 62.6974 51.3333 62.7865V40.8265C52.1455 40.6263 52.9014 40.2437 53.5437 39.7077C54.1859 39.1718 54.6976 38.4965 55.0399 37.7332C56.6452 38.4026 58.1 39.3871 59.3184 40.6283C60.5367 41.8695 61.4939 43.3424 62.1333 44.9599C61.3658 45.298 60.6864 45.8082 60.1477 46.451C59.609 47.0937 59.2254 47.8518 59.0266 48.6665H55.3333ZM56.6666 61.0132V51.3332H59.0266C59.2195 52.1232 59.5865 52.8602 60.101 53.49C60.6155 54.1198 61.2643 54.6266 61.9999 54.9732C60.8876 57.4884 59.0248 59.5981 56.6666 61.0132ZM64.4399 52.8399H64.3599C63.6067 52.8399 62.8844 52.5407 62.3518 52.0081C61.8192 51.4755 61.5199 50.7531 61.5199 49.9999C61.5199 49.2467 61.8192 48.5243 62.3518 47.9917C62.8844 47.4591 63.6067 47.1599 64.3599 47.1599C65.1132 47.1599 65.8355 47.4591 66.3681 47.9917C66.9007 48.5243 67.1999 49.2467 67.1999 49.9999C67.1999 50.7531 66.9007 51.4755 66.3681 52.0081C65.8355 52.5407 65.1132 52.8399 64.3599 52.8399H64.4399Z" fill="white"/>
</g>
<defs>
<linearGradient id="paint0_linear_2385_5273" x1="-20.7107" y1="120.715" x2="120.711" y2="-20.7067" gradientUnits="userSpaceOnUse">
<stop stop-color="#1B660F"/>
<stop offset="1" stop-color="#6CAE3E"/>
</linearGradient>
<clipPath id="clip0_2385_5273">
<rect width="100" height="100" fill="white"/>
</clipPath>
</defs>
</svg>
