<svg width="100" height="100" viewBox="0 0 100 100" fill="none" xmlns="http://www.w3.org/2000/svg">
<g clip-path="url(#clip0_2385_5274)">
<path d="M100 0H0V100H100V0Z" fill="url(#paint0_linear_2385_5274)"/>
<path d="M48.2933 83.1732C46.702 83.1732 45.1759 82.541 44.0507 81.4158C42.9254 80.2906 42.2933 78.7645 42.2933 77.1732C42.2933 75.5819 42.9254 74.0558 44.0507 72.9305C45.1759 71.8053 46.702 71.1732 48.2933 71.1732L50.24 63.1732H35.2133C34.7986 63.1741 34.3844 63.1474 33.9733 63.0932L27.7066 69.3332C28.4872 70.5848 28.7794 72.0801 28.5274 73.5335C28.2754 74.9868 27.4968 76.2964 26.3404 77.2122C25.1839 78.1279 23.7307 78.5855 22.2583 78.4977C20.7858 78.4098 19.3973 77.7826 18.358 76.7359C17.3187 75.6892 16.7013 74.2963 16.6239 72.8233C16.5464 71.3503 17.0143 69.9003 17.9382 68.7504C18.8621 67.6005 20.1771 66.8312 21.6323 66.5894C23.0874 66.3477 24.5806 66.6504 25.8266 67.4398L31 62.2798C29.4051 61.6001 28.0285 60.4937 27.0217 59.0823C26.0149 57.6709 25.4169 56.0091 25.2933 54.2798C25.2933 54.0665 25.2933 53.8532 25.2933 53.6265C25.227 51.6466 25.8101 49.6994 26.9535 48.0817C28.097 46.464 29.7381 45.2647 31.6266 44.6665C31.6266 44.5198 31.6266 44.3732 31.6266 44.2132C31.6726 41.7233 32.4416 39.3005 33.84 37.2398L28.6666 30.6665C27.6153 31.2232 26.4429 31.5117 25.2533 31.5065C23.5769 31.5071 21.9509 30.9333 20.6462 29.8807C19.3414 28.8281 18.4367 27.3603 18.0827 25.7217C17.7287 24.0831 17.9468 22.3727 18.7007 20.8754C19.4546 19.378 20.6987 18.1842 22.2259 17.4927C23.753 16.8013 25.471 16.6539 27.0936 17.0752C28.7162 17.4965 30.1455 18.461 31.1433 19.808C32.1412 21.1551 32.6474 22.8034 32.5777 24.4783C32.5079 26.1533 31.8664 27.7538 30.76 29.0132L35.5466 35.0932C36.6551 33.9554 37.9785 33.049 39.44 32.4265C41.8988 31.3638 44.6208 31.0663 47.2512 31.5729C49.8815 32.0795 52.2983 33.3666 54.1866 35.2665C55.3434 36.389 56.2994 37.7013 57.0133 39.1465C58.275 38.2788 59.8186 37.9214 61.3333 38.1465L65.68 29.4265C64.4338 28.4594 63.5709 27.0817 63.2448 25.5383C62.9186 23.9949 63.1503 22.3859 63.8986 20.9973C64.647 19.6086 65.8635 18.5303 67.3319 17.954C68.8003 17.3777 70.4255 17.3408 71.9185 17.8498C73.4116 18.3588 74.6758 19.3808 75.4864 20.734C76.2971 22.0872 76.6016 23.6841 76.3459 25.2406C76.0901 26.7972 75.2907 28.2127 74.0898 29.2354C72.8888 30.2582 71.3641 30.822 69.7866 30.8265C69.2266 30.8434 68.6666 30.7897 68.12 30.6665L63.88 39.1732C64.7284 39.788 65.4377 40.5749 65.9615 41.4824C66.4853 42.3899 66.8119 43.3976 66.92 44.4398C71.8933 45.7732 74.6133 49.0132 74.6133 53.7732C74.7121 55.4084 74.3432 57.0379 73.5498 58.4711C72.7565 59.9043 71.5714 61.0821 70.1333 61.8665L74.56 67.9998C75.8698 67.2917 77.3946 67.0911 78.8429 67.4365C80.2913 67.7819 81.5616 68.6489 82.4109 69.8719C83.2602 71.0949 83.629 72.588 83.4467 74.0657C83.2645 75.5435 82.5439 76.9022 81.4229 77.8822C80.3019 78.8622 78.859 79.3946 77.3702 79.3777C75.8813 79.3608 74.4509 78.7957 73.3524 77.7906C72.2539 76.7854 71.5645 75.4106 71.4158 73.9291C71.2672 72.4476 71.6698 70.9632 72.5466 69.7598L67.5466 62.8399C66.5583 63.0676 65.5475 63.1839 64.5333 63.1865H52.96L50.88 71.7732C52.1076 72.36 53.0993 73.3466 53.6924 74.5713C54.2855 75.7959 54.4447 77.1857 54.1439 78.5127C53.8432 79.8397 53.1003 81.0251 52.0372 81.8743C50.9741 82.7236 49.654 83.1863 48.2933 83.1865V83.1732ZM48.2933 73.8399C47.634 73.8399 46.9896 74.0353 46.4414 74.4016C45.8932 74.7679 45.466 75.2885 45.2137 75.8976C44.9614 76.5067 44.8954 77.1769 45.024 77.8235C45.1526 78.4701 45.4701 79.064 45.9363 79.5302C46.4025 79.9964 46.9964 80.3139 47.643 80.4425C48.2896 80.5711 48.9598 80.5051 49.5689 80.2528C50.178 80.0005 50.6986 79.5732 51.0649 79.0251C51.4311 78.4769 51.6266 77.8325 51.6266 77.1732C51.6266 76.2891 51.2754 75.4413 50.6503 74.8162C50.0252 74.191 49.1774 73.8399 48.2933 73.8399ZM77.3333 69.9465C76.674 69.9465 76.0296 70.142 75.4814 70.5083C74.9332 70.8746 74.506 71.3952 74.2537 72.0042C74.0014 72.6133 73.9354 73.2836 74.064 73.9302C74.1926 74.5768 74.5101 75.1707 74.9763 75.6369C75.4424 76.103 76.0364 76.4205 76.683 76.5491C77.3296 76.6778 77.9998 76.6117 78.6089 76.3594C79.218 76.1072 79.7386 75.6799 80.1049 75.1318C80.4711 74.5836 80.6666 73.9391 80.6666 73.2798C80.6666 72.3958 80.3154 71.548 79.6903 70.9228C79.0652 70.2977 78.2174 69.9465 77.3333 69.9465ZM22.6666 69.1732C22.0074 69.1732 21.3629 69.3687 20.8147 69.735C20.2666 70.1012 19.8393 70.6218 19.587 71.2309C19.3347 71.84 19.2687 72.5102 19.3973 73.1568C19.526 73.8034 19.8434 74.3974 20.3096 74.8635C20.7758 75.3297 21.3697 75.6472 22.0163 75.7758C22.6629 75.9044 23.3332 75.8384 23.9422 75.5861C24.5513 75.3338 25.0719 74.9066 25.4382 74.3584C25.8045 73.8103 26 73.1658 26 72.5065C26 71.6225 25.6488 70.7746 25.0237 70.1495C24.3985 69.5244 23.5507 69.1732 22.6666 69.1732ZM33.3333 46.9332C31.79 47.2148 30.4004 48.0445 29.4204 49.2695C28.4403 50.4945 27.9359 52.0324 28 53.5998C28 53.7732 28 53.9465 28 54.1065C28.1686 55.8956 29.0125 57.5531 30.36 58.7421C31.7074 59.931 33.4572 60.5619 35.2533 60.5065H64.5866C66.8133 60.5065 72 59.8398 72 53.6665C72 49.9599 69.8133 47.6399 65.4933 46.7732C65.2051 46.7149 64.9443 46.563 64.7514 46.3412C64.5585 46.1194 64.4443 45.84 64.4266 45.5465C64.28 43.1065 63.2133 41.4132 61.52 40.8932C60.8147 40.688 60.0632 40.706 59.3686 40.9447C58.6739 41.1834 58.0701 41.6312 57.64 42.2265C57.4952 42.415 57.3026 42.5614 57.0823 42.6505C56.8619 42.7395 56.6217 42.7681 56.3866 42.7332C56.1508 42.6981 55.9287 42.6005 55.7434 42.4504C55.5582 42.3003 55.4165 42.1033 55.3333 41.8798C54.7218 40.1151 53.7138 38.514 52.3866 37.1998C50.9542 35.6924 49.1066 34.644 47.078 34.1872C45.0493 33.7305 42.9307 33.8861 40.9904 34.6342C39.0502 35.3823 37.3756 36.6893 36.1786 38.3898C34.9817 40.0902 34.3163 42.1076 34.2666 44.1865C34.2634 44.6322 34.2901 45.0777 34.3466 45.5198C34.3748 45.8377 34.288 46.1551 34.1021 46.4145C33.9162 46.6738 33.6434 46.8578 33.3333 46.9332ZM25.3333 19.4932C24.4103 19.4932 23.5081 19.7669 22.7406 20.2797C21.9732 20.7924 21.3751 21.5213 21.0219 22.374C20.6687 23.2267 20.5762 24.165 20.7563 25.0703C20.9364 25.9755 21.3808 26.807 22.0335 27.4597C22.6861 28.1123 23.5176 28.5568 24.4229 28.7368C25.3281 28.9169 26.2664 28.8245 27.1192 28.4713C27.9719 28.1181 28.7007 27.5199 29.2135 26.7525C29.7263 25.9851 30 25.0828 30 24.1598C29.9983 23.5407 29.8737 22.9281 29.6336 22.3575C29.3935 21.7868 29.0425 21.2695 28.601 20.8354C28.1595 20.4014 27.6363 20.0593 27.0617 19.8289C26.487 19.5985 25.8724 19.4844 25.2533 19.4932H25.3333ZM69.92 20.1598C69.1288 20.1598 68.3555 20.3944 67.6977 20.834C67.0399 21.2735 66.5272 21.8982 66.2244 22.6291C65.9217 23.36 65.8425 24.1643 65.9968 24.9402C66.1512 25.7161 66.5321 26.4289 67.0915 26.9883C67.651 27.5477 68.3637 27.9286 69.1396 28.083C69.9155 28.2373 70.7198 28.1581 71.4507 27.8554C72.1816 27.5526 72.8063 27.0399 73.2458 26.3821C73.6854 25.7243 73.92 24.951 73.92 24.1598C73.9201 23.6278 73.814 23.101 73.608 22.6104C73.402 22.1198 73.1002 21.6753 72.7203 21.3028C72.3403 20.9303 71.8899 20.6373 71.3953 20.4411C70.9007 20.2448 70.3719 20.1492 69.84 20.1598H69.92Z" fill="white"/>
</g>
<defs>
<linearGradient id="paint0_linear_2385_5274" x1="-20.7067" y1="120.707" x2="120.707" y2="-20.7067" gradientUnits="userSpaceOnUse">
<stop stop-color="#1B660F"/>
<stop offset="1" stop-color="#6CAE3E"/>
</linearGradient>
<clipPath id="clip0_2385_5274">
<rect width="100" height="100" fill="white"/>
</clipPath>
</defs>
</svg>
