<svg width="100" height="100" viewBox="0 0 100 100" fill="none" xmlns="http://www.w3.org/2000/svg">
<g clip-path="url(#clip0_2385_5276)">
<path d="M100 0H0V100H100V0Z" fill="url(#paint0_linear_2385_5276)"/>
<path d="M30.6667 61.7202H30.48C27.2843 61.705 24.1926 60.5823 21.7319 58.5432C19.2711 56.5041 17.5935 53.6749 16.9849 50.5375C16.3763 47.4002 16.8744 44.149 18.3942 41.3377C19.9141 38.5264 22.3617 36.3291 25.32 35.1202C25.5006 31.1606 26.9946 27.3739 29.5664 24.3577C32.1382 21.3416 35.6412 19.2678 39.5225 18.4637C43.4038 17.6596 47.4423 18.171 51.0007 19.9172C54.5591 21.6634 57.4346 24.5449 59.1734 28.1068C60.4862 27.3007 61.9847 26.8468 63.5242 26.7887C65.0637 26.7307 66.5921 27.0706 67.962 27.7756C69.3318 28.4806 70.4966 29.5269 71.3441 30.8135C72.1916 32.1 72.693 33.5833 72.8 35.1202C75.7668 35.6725 78.4458 37.2481 80.3706 39.5723C82.2953 41.8966 83.3438 44.8224 83.3334 47.8402C83.3451 49.5522 82.9948 51.2473 82.3055 52.8145C81.6161 54.3816 80.6033 55.7853 79.3334 56.9335L77.5067 54.9869C78.5036 54.094 79.3005 53.0005 79.8451 51.7781C80.3897 50.5556 80.6697 49.2318 80.6667 47.8935C80.684 45.3203 79.7344 42.8344 78.0059 40.9281C76.2774 39.0218 73.896 37.8341 71.3334 37.6002C70.9891 37.5696 70.6702 37.4065 70.4438 37.1453C70.2175 36.8842 70.1014 36.5453 70.12 36.2002V36.0002C70.127 35.9114 70.127 35.8223 70.12 35.7335C70.1236 34.0561 69.4615 32.4458 68.2792 31.256C67.0968 30.0661 65.4907 29.3939 63.8134 29.3869C62.1907 29.3861 60.6316 30.0174 59.4667 31.1469C59.3074 31.3025 59.1117 31.4157 58.8975 31.4763C58.6832 31.5368 58.4572 31.5428 58.24 31.4935C58.0337 31.4384 57.8437 31.3345 57.6859 31.1907C57.5282 31.0468 57.4072 30.8672 57.3334 30.6669C56.0935 27.3217 53.7156 24.5197 50.6166 22.7524C47.5176 20.985 43.8953 20.3651 40.3849 21.0014C36.8746 21.6376 33.7002 23.4893 31.4186 26.2319C29.1369 28.9744 27.8936 32.4327 27.9067 36.0002C27.9074 36.2797 27.8203 36.5524 27.6576 36.7797C27.4949 37.007 27.2648 37.1774 27 37.2669C24.488 38.0945 22.3522 39.7884 20.9741 42.0458C19.5961 44.3033 19.0656 46.9772 19.4775 49.5897C19.8894 52.2023 21.2169 54.5832 23.2227 56.3072C25.2285 58.0311 27.7819 58.9856 30.4267 59.0002H30.6667V61.7202Z" fill="white"/>
<path d="M70.52 54.7473C69.74 52.4623 68.4587 50.3806 66.77 48.6549C65.0812 46.9292 63.0277 45.6032 60.76 44.774C60.6408 43.3585 59.9942 42.0393 58.9484 41.0779C57.9026 40.1166 56.5339 39.583 55.1134 39.583C53.6928 39.583 52.3241 40.1166 51.2783 41.0779C50.2325 42.0393 49.5859 43.3585 49.4667 44.774C47.2014 45.6074 45.1501 46.9348 43.4619 48.6599C41.7737 50.3851 40.4909 52.4645 39.7067 54.7473C38.2508 54.8451 36.889 55.5019 35.9063 56.5806C34.9236 57.6592 34.396 59.0761 34.4339 60.5348C34.4717 61.9935 35.0722 63.381 36.1096 64.4072C37.147 65.4334 38.541 66.0187 40 66.0407C41.5984 70.0768 44.7283 73.3169 48.7067 75.054V81.9073H51.3734V76.0007C52.2478 76.2193 53.1404 76.3577 54.04 76.414V81.974H56.7067V76.3207C57.6091 76.2327 58.5016 76.0631 59.3734 75.814V81.9073H62.04V74.854C65.826 73.0838 68.7893 69.9296 70.32 66.0407C71.7763 66.008 73.1637 65.4145 74.1931 64.3839C75.2225 63.3533 75.8143 61.9652 75.8453 60.5089C75.8762 59.0526 75.3439 57.6405 74.3592 56.5671C73.3746 55.4938 72.0136 54.8418 70.56 54.7473H70.52ZM40.1867 63.3873C39.5934 63.3873 39.0133 63.2114 38.52 62.8817C38.0266 62.5521 37.6421 62.0836 37.4151 61.5354C37.188 60.9872 37.1286 60.384 37.2443 59.8021C37.3601 59.2201 37.6458 58.6856 38.0654 58.266C38.4849 57.8465 39.0195 57.5607 39.6014 57.445C40.1834 57.3292 40.7866 57.3886 41.3347 57.6157C41.8829 57.8428 42.3515 58.2273 42.6811 58.7206C43.0107 59.214 43.1867 59.794 43.1867 60.3873C43.1867 61.183 42.8706 61.946 42.308 62.5087C41.7454 63.0713 40.9823 63.3873 40.1867 63.3873ZM48.6667 72.094C45.9991 70.6151 43.891 68.301 42.6667 65.5073C43.4074 65.1614 44.0634 64.6574 44.5886 64.0309C45.1138 63.4044 45.4954 62.6704 45.7067 61.8807H48.6667V72.094ZM54 73.6807C53.0971 73.604 52.2039 73.4388 51.3334 73.1873V60.5607C51.3334 60.207 51.1929 59.8679 50.9428 59.6179C50.6928 59.3678 50.3537 59.2273 50 59.2273H45.7334C45.5387 58.3404 45.1328 57.5137 44.5502 56.8173C43.9675 56.1209 43.2253 55.5754 42.3867 55.2273C43.0483 53.4957 44.0582 51.9182 45.354 50.5926C46.6498 49.267 48.2039 48.2215 49.92 47.5207C50.2826 48.3589 50.8434 49.0966 51.5541 49.6703C52.2647 50.2439 53.1041 50.6364 54 50.814V73.6807ZM55.12 48.214C54.5267 48.214 53.9467 48.0381 53.4533 47.7084C52.96 47.3788 52.5755 46.9102 52.3484 46.3621C52.1213 45.8139 52.0619 45.2107 52.1777 44.6287C52.2934 44.0468 52.5791 43.5122 52.9987 43.0927C53.4183 42.6731 53.9528 42.3874 54.5348 42.2716C55.1167 42.1559 55.7199 42.2153 56.2681 42.4424C56.8163 42.6694 57.2848 43.0539 57.6144 43.5473C57.9441 44.0406 58.12 44.6207 58.12 45.214C58.12 46.0097 57.804 46.7727 57.2414 47.3353C56.6787 47.8979 55.9157 48.214 55.12 48.214ZM60.7067 59.2407C60.3531 59.2407 60.0139 59.3811 59.7639 59.6312C59.5138 59.8812 59.3734 60.2204 59.3734 60.574V73.054C58.5053 73.3344 57.6123 73.5308 56.7067 73.6407V50.6673C57.513 50.4421 58.2586 50.0388 58.8886 49.4873C59.5185 48.9359 60.0168 48.2502 60.3467 47.4807C62.0649 48.178 63.6208 49.2224 64.917 50.5484C66.2133 51.8745 67.2219 53.4537 67.88 55.1873C67.0426 55.5373 66.3016 56.0834 65.7192 56.7794C65.1368 57.4755 64.7301 58.3013 64.5334 59.1873L60.7067 59.2407ZM62.04 71.854V61.9073H64.6267C64.8453 62.6924 65.2315 63.4207 65.7586 64.0421C66.2857 64.6636 66.9412 65.1635 67.68 65.5073C66.4956 68.1639 64.5094 70.3832 62 71.854H62.04ZM70.04 63.3873C69.4467 63.3873 68.8667 63.2114 68.3733 62.8817C67.88 62.5521 67.4955 62.0836 67.2684 61.5354C67.0413 60.9872 66.9819 60.384 67.0977 59.8021C67.2134 59.2201 67.4992 58.6856 67.9187 58.266C68.3383 57.8465 68.8728 57.5607 69.4548 57.445C70.0367 57.3292 70.6399 57.3886 71.1881 57.6157C71.7363 57.8428 72.2048 58.2273 72.5344 58.7206C72.8641 59.214 73.04 59.794 73.04 60.3873C73.0366 61.1796 72.7212 61.9386 72.1622 62.5001C71.6032 63.0616 70.8456 63.3803 70.0534 63.3873H70.04Z" fill="white"/>
</g>
<defs>
<linearGradient id="paint0_linear_2385_5276" x1="-20.7067" y1="120.707" x2="120.707" y2="-20.7067" gradientUnits="userSpaceOnUse">
<stop stop-color="#1B660F"/>
<stop offset="1" stop-color="#6CAE3E"/>
</linearGradient>
<clipPath id="clip0_2385_5276">
<rect width="100" height="100" fill="white"/>
</clipPath>
</defs>
</svg>
