<svg width="100" height="100" viewBox="0 0 100 100" fill="none" xmlns="http://www.w3.org/2000/svg">
<g clip-path="url(#clip0_2385_5278)">
<path d="M100 0H0V100H100V0Z" fill="url(#paint0_linear_2385_5278)"/>
<path d="M80 31.9066L50.6666 14.9599C50.464 14.8429 50.234 14.7812 50 14.7812C49.7659 14.7812 49.536 14.8429 49.3333 14.9599L20 31.9066C19.7985 32.0229 19.6309 32.1899 19.5139 32.3911C19.397 32.5923 19.3347 32.8205 19.3333 33.0532V66.9332C19.3347 67.1659 19.397 67.3942 19.5139 67.5953C19.6309 67.7965 19.7985 67.9635 20 68.0799L49.3333 85.0132C49.536 85.1302 49.7659 85.1918 50 85.1918C50.234 85.1918 50.464 85.1302 50.6666 85.0132L80 68.0799C80.2015 67.9635 80.3691 67.7965 80.486 67.5953C80.603 67.3942 80.6652 67.1659 80.6666 66.9332V33.0532C80.6652 32.8205 80.603 32.5923 80.486 32.3911C80.3691 32.1899 80.2015 32.0229 80 31.9066ZM78 66.1599L50 82.3199L22 66.1599V33.8266L50 17.6665L78 33.8266V66.1599Z" fill="white"/>
<path d="M65.5333 40.7598C65.3011 36.7974 63.5633 33.0737 60.6758 30.3504C57.7882 27.6272 53.9691 26.1104 50 26.1104C46.0309 26.1104 42.2118 27.6272 39.3242 30.3504C36.4366 33.0737 34.6989 36.7974 34.4667 40.7598C31.0718 42.9048 28.6387 46.2803 27.6769 50.1791C26.7151 54.078 27.2993 58.1977 29.307 61.6755C31.3147 65.1533 34.5903 67.7193 38.4476 68.8361C42.305 69.9528 46.4448 69.5337 50 67.6664C53.5552 69.5337 57.695 69.9528 61.5523 68.8361C65.4097 67.7193 68.6852 65.1533 70.693 61.6755C72.7007 58.1977 73.2849 54.078 72.3231 50.1791C71.3613 46.2803 68.9282 42.9048 65.5333 40.7598ZM54.1733 54.0931C54.1733 53.5129 54.3454 52.9458 54.6677 52.4634C54.99 51.981 55.4481 51.6051 55.9841 51.3831C56.5201 51.161 57.1099 51.103 57.6789 51.2161C58.2479 51.3293 58.7706 51.6087 59.1808 52.0189C59.5911 52.4292 59.8704 52.9518 59.9836 53.5208C60.0968 54.0899 60.0387 54.6796 59.8167 55.2156C59.5947 55.7516 59.2187 56.2098 58.7363 56.5321C58.2539 56.8544 57.6868 57.0264 57.1067 57.0264C56.3287 57.0264 55.5826 56.7174 55.0325 56.1673C54.4824 55.6172 54.1733 54.8711 54.1733 54.0931ZM51.5067 54.5598C50.4888 54.6932 49.4579 54.6932 48.44 54.5598C48.4532 54.4045 48.4532 54.2484 48.44 54.0931C48.4384 53.0123 48.1241 51.9551 47.535 51.0489C46.9459 50.1428 46.1072 49.4265 45.12 48.9864C45.5256 47.9664 46.0684 47.0065 46.7333 46.1331C47.675 46.7929 48.7969 47.1468 49.9467 47.1468C51.0964 47.1468 52.2183 46.7929 53.16 46.1331C53.8249 47.0065 54.3677 47.9664 54.7733 48.9864C53.7862 49.4265 52.9474 50.1428 52.3583 51.0489C51.7692 51.9551 51.4549 53.0123 51.4533 54.0931C51.4665 54.2507 51.4933 54.4068 51.5333 54.5598H51.5067ZM45.8 54.0931C45.8 54.6733 45.628 55.2404 45.3056 55.7228C44.9833 56.2052 44.5252 56.5811 43.9892 56.8032C43.4532 57.0252 42.8634 57.0833 42.2944 56.9701C41.7254 56.8569 41.2027 56.5775 40.7925 56.1673C40.3822 55.7571 40.1029 55.2344 39.9897 54.6654C39.8765 54.0964 39.9346 53.5066 40.1566 52.9706C40.3786 52.4346 40.7546 51.9765 41.237 51.6541C41.7194 51.3318 42.2865 51.1598 42.8667 51.1598C43.2536 51.158 43.6371 51.2325 43.9953 51.379C44.3535 51.5254 44.6793 51.741 44.9542 52.0134C45.229 52.2858 45.4476 52.6096 45.5973 52.9665C45.747 53.3233 45.8249 53.7061 45.8267 54.0931H45.8ZM47.04 41.5464C47.04 40.9663 47.212 40.3992 47.5343 39.9168C47.8567 39.4344 48.3148 39.0584 48.8508 38.8364C49.3868 38.6144 49.9766 38.5563 50.5456 38.6695C51.1146 38.7827 51.6373 39.062 52.0475 39.4723C52.4577 39.8825 52.7371 40.4052 52.8503 40.9742C52.9635 41.5432 52.9054 42.133 52.6834 42.669C52.4614 43.205 52.0854 43.6631 51.603 43.9854C51.1206 44.3077 50.5535 44.4798 49.9733 44.4798C49.2011 44.4693 48.4638 44.156 47.9202 43.6074C47.3766 43.0588 47.0701 42.3188 47.0667 41.5464H47.04ZM57.48 48.5064C56.8865 46.8995 56.0353 45.3999 54.96 44.0664C55.3687 43.2897 55.5793 42.4241 55.5733 41.5464C55.5733 41.3731 55.5733 41.2131 55.5733 41.0398C58.0802 40.7436 60.6191 41.1838 62.88 42.3064C62.7726 44.9101 61.8699 47.4183 60.2933 49.4931C59.4693 48.9211 58.507 48.5804 57.5067 48.5064H57.48ZM50 28.8531C52.9938 28.8643 55.8914 29.9117 58.2005 31.8173C60.5095 33.7229 62.0876 36.3691 62.6667 39.3064C60.1177 38.3386 57.3611 38.0491 54.6667 38.4664C54.1558 37.6963 53.4624 37.0646 52.6481 36.6276C51.8339 36.1906 50.9241 35.962 50 35.962C49.0759 35.962 48.1661 36.1906 47.3519 36.6276C46.5376 37.0646 45.8441 37.6963 45.3333 38.4664C42.6389 38.0479 39.882 38.3374 37.3333 39.3064C37.9124 36.3691 39.4905 33.7229 41.7995 31.8173C44.1086 29.9117 47.0062 28.8643 50 28.8531ZM44.4267 41.0398C44.4267 41.2131 44.4267 41.3731 44.4267 41.5464C44.4206 42.4241 44.6313 43.2897 45.04 44.0664C43.9647 45.3999 43.1135 46.8995 42.52 48.5064C41.5196 48.5804 40.5574 48.9211 39.7333 49.4931C38.1568 47.4183 37.254 44.9101 37.1467 42.3064C39.3997 41.1889 41.9286 40.7489 44.4267 41.0398ZM42.8933 66.6664C40.2766 66.6296 37.7329 65.7974 35.6005 64.2803C33.4681 62.7632 31.8478 60.6332 30.9549 58.1731C30.0621 55.7131 29.939 53.0397 30.602 50.508C31.265 47.9764 32.6826 45.7064 34.6667 43.9998C35.0635 46.7793 36.2114 49.3978 37.9867 51.5731C37.5706 52.3488 37.3466 53.213 37.3333 54.0931C37.3351 55.5309 37.8899 56.913 38.8827 57.953C39.8756 58.993 41.2304 59.6113 42.6667 59.6798C43.6473 62.1264 45.2405 64.2798 47.2933 65.9331C45.8805 66.4319 44.3915 66.68 42.8933 66.6664ZM45.3333 59.1064C46.2403 58.662 47.0098 57.9801 47.56 57.1331C49.1578 57.3997 50.7888 57.3997 52.3867 57.1331C52.9514 57.9874 53.7402 58.6701 54.6667 59.1064C53.6801 61.3384 52.0686 63.237 50.0267 64.5731C47.965 63.2448 46.3343 61.3454 45.3333 59.1064ZM57.1067 66.6664C55.5919 66.6676 54.0888 66.4013 52.6667 65.8798C54.7268 64.2462 56.3335 62.1115 57.3333 59.6798C58.7695 59.6113 60.1244 58.993 61.1172 57.953C62.1101 56.913 62.6649 55.5309 62.6667 54.0931C62.6681 53.2016 62.453 52.3231 62.04 51.5331C63.823 49.3735 64.9845 46.7693 65.4 43.9998C67.388 45.7102 68.8072 47.9861 69.4682 50.524C70.1292 53.0619 70.0005 55.741 69.0994 58.2038C68.1983 60.6667 66.5675 62.7962 64.4248 64.3082C62.282 65.8203 59.7291 66.6429 57.1067 66.6664Z" fill="white"/>
</g>
<defs>
<linearGradient id="paint0_linear_2385_5278" x1="-20.7067" y1="120.72" x2="120.72" y2="-20.7067" gradientUnits="userSpaceOnUse">
<stop stop-color="#1B660F"/>
<stop offset="1" stop-color="#6CAE3E"/>
</linearGradient>
<clipPath id="clip0_2385_5278">
<rect width="100" height="100" fill="white"/>
</clipPath>
</defs>
</svg>
