<svg width="100" height="100" viewBox="0 0 100 100" fill="none" xmlns="http://www.w3.org/2000/svg">
<g clip-path="url(#clip0_2385_5275)">
<path d="M100 0H0V100H100V0Z" fill="url(#paint0_linear_2385_5275)"/>
<path d="M76 43.6271C75.2866 43.6262 74.5768 43.7295 73.8933 43.9338C72.5812 40.2372 70.5409 36.8414 67.8933 33.9471L68.24 33.6005C69.7499 34.6382 71.593 35.0743 73.4078 34.8233C75.2226 34.5723 76.8781 33.6523 78.0496 32.2437C79.2211 30.8351 79.8241 29.0396 79.7402 27.2095C79.6563 25.3793 78.8916 23.6465 77.5961 22.351C76.3006 21.0556 74.5678 20.2909 72.7377 20.207C70.9075 20.1231 69.112 20.726 67.7035 21.8975C66.2949 23.069 65.3748 24.7246 65.1238 26.5394C64.8728 28.3542 65.3089 30.1973 66.3467 31.7071L66 32.0538C63.1017 29.4113 59.7007 27.3798 56 26.0805C56.1772 25.4559 56.2669 24.8097 56.2667 24.1605C56.2667 22.2156 55.494 20.3503 54.1188 18.975C52.7435 17.5998 50.8783 16.8271 48.9333 16.8271C46.9884 16.8271 45.1231 17.5998 43.7479 18.975C42.3726 20.3503 41.6 22.2156 41.6 24.1605C41.6 24.3471 41.6 24.5338 41.6 24.7071C36.8778 25.426 32.4027 27.287 28.5633 30.1287C24.724 32.9703 21.6367 36.7066 19.5697 41.0127C17.5027 45.3189 16.5185 50.0647 16.7027 54.8376C16.8869 59.6106 18.2339 64.2664 20.6267 68.4005C19.2931 69.7708 18.5475 71.6079 18.5489 73.52C18.5502 75.4321 19.2983 77.2681 20.6338 78.6366C21.9692 80.0051 23.7864 80.7978 25.6979 80.8459C27.6094 80.8939 29.4641 80.1935 30.8667 78.8938C36.4846 82.3111 43.0879 83.7417 49.6164 82.9558C56.1449 82.17 62.2201 79.2133 66.8667 74.5605C71.2784 70.1367 74.1728 64.4272 75.1333 58.2538C75.3865 58.2671 75.6402 58.2671 75.8933 58.2538C77.8382 58.2538 79.7035 57.4812 81.0788 56.1059C82.454 54.7307 83.2267 52.8654 83.2267 50.9205C83.2267 48.9756 82.454 47.1103 81.0788 45.735C79.7035 44.3598 77.8382 43.5871 75.8933 43.5871L76 43.6271ZM72.3333 22.8938C73.2563 22.8938 74.1586 23.1675 74.926 23.6803C75.6934 24.1931 76.2916 24.9219 76.6448 25.7746C76.998 26.6273 77.0904 27.5657 76.9103 28.4709C76.7303 29.3761 76.2858 30.2077 75.6332 30.8603C74.9805 31.513 74.149 31.9574 73.2437 32.1375C72.3385 32.3175 71.4002 32.2251 70.5475 31.8719C69.6947 31.5187 68.9659 30.9206 68.4531 30.1531C67.9404 29.3857 67.6667 28.4835 67.6667 27.5605C67.6667 26.3228 68.1583 25.1358 69.0335 24.2606C69.9087 23.3855 71.0956 22.8938 72.3333 22.8938ZM71.44 45.1871C70.5591 45.8696 69.8463 46.7448 69.3563 47.7456C68.8663 48.7464 68.6121 49.8462 68.6133 50.9605C68.6095 51.4943 68.6676 52.0268 68.7867 52.5471L32.72 71.0538C32.5565 70.5848 32.3372 70.1371 32.0667 69.7205L65.9467 35.8405C68.4084 38.5397 70.2795 41.7232 71.44 45.1871ZM54.8533 28.5071C58.2421 29.676 61.3551 31.5275 64 33.9471L30.2667 67.7338C29.8579 67.4118 29.4098 67.143 28.9333 66.9338L47.2533 31.2938C47.8122 31.4284 48.3852 31.4955 48.96 31.4938C50.1079 31.4939 51.2396 31.2235 52.2635 30.7046C53.2874 30.1857 54.1747 29.4329 54.8533 28.5071ZM48.96 19.4938C49.883 19.4938 50.7852 19.7675 51.5527 20.2803C52.3201 20.7931 52.9182 21.5219 53.2714 22.3746C53.6246 23.2273 53.7171 24.1657 53.537 25.0709C53.3569 25.9761 52.9125 26.8077 52.2598 27.4603C51.6072 28.113 50.7757 28.5574 49.8704 28.7375C48.9652 28.9175 48.0269 28.8251 47.1741 28.4719C46.3214 28.1187 45.5926 27.5206 45.0798 26.7531C44.567 25.9857 44.2933 25.0835 44.2933 24.1605C44.2933 22.9228 44.785 21.7358 45.6602 20.8607C46.5353 19.9855 47.7223 19.4938 48.96 19.4938ZM19.3867 53.7605C19.3924 47.327 21.7169 41.1111 25.9339 36.2525C30.151 31.3938 35.978 28.218 42.3467 27.3071C42.8992 28.4724 43.7502 29.4706 44.8133 30.2005L26.32 66.2005C26.1603 66.1872 25.9997 66.1872 25.84 66.2005C24.8043 66.1966 23.7803 66.4196 22.84 66.8538C20.5741 62.8622 19.3841 58.3504 19.3867 53.7605ZM25.84 78.2271C24.917 78.2271 24.0148 77.9534 23.2473 77.4407C22.4799 76.9279 21.8818 76.1991 21.5286 75.3463C21.1753 74.4936 21.0829 73.5553 21.263 72.6501C21.4431 71.7448 21.8875 70.9133 22.5402 70.2606C23.1928 69.608 24.0243 69.1635 24.9296 68.9835C25.8348 68.8034 26.7731 68.8958 27.6258 69.249C28.4786 69.6022 29.2074 70.2004 29.7202 70.9678C30.233 71.7352 30.5067 72.6375 30.5067 73.5605C30.5067 74.7982 30.015 75.9851 29.1398 76.8603C28.2647 77.7355 27.0777 78.2271 25.84 78.2271ZM65.0267 72.6671C60.8195 76.8732 55.3266 79.5517 49.4219 80.2765C43.5171 81.0013 37.5395 79.7308 32.44 76.6671C32.8889 75.7623 33.1346 74.7702 33.16 73.7605L69.84 55.0138C70.5353 56.0622 71.4909 56.9122 72.6133 57.4805C71.8063 63.234 69.1424 68.5665 65.0267 72.6671ZM76 55.6271C75.077 55.6271 74.1748 55.3535 73.4073 54.8407C72.6399 54.3279 72.0418 53.5991 71.6886 52.7463C71.3353 51.8936 71.2429 50.9553 71.423 50.0501C71.6031 49.1448 72.0475 48.3133 72.7002 47.6606C73.3528 47.008 74.1843 46.5635 75.0896 46.3835C75.9948 46.2034 76.9331 46.2958 77.7859 46.649C78.6386 47.0023 79.3674 47.6004 79.8802 48.3678C80.393 49.1353 80.6667 50.0375 80.6667 50.9605C80.6667 52.1982 80.175 53.3851 79.2998 54.2603C78.4247 55.1355 77.2377 55.6271 76 55.6271Z" fill="white"/>
</g>
<defs>
<linearGradient id="paint0_linear_2385_5275" x1="-20.7067" y1="120.707" x2="120.707" y2="-20.7067" gradientUnits="userSpaceOnUse">
<stop stop-color="#1B660F"/>
<stop offset="1" stop-color="#6CAE3E"/>
</linearGradient>
<clipPath id="clip0_2385_5275">
<rect width="100" height="100" fill="white"/>
</clipPath>
</defs>
</svg>
