<svg width="100" height="100" viewBox="0 0 100 100" fill="none" xmlns="http://www.w3.org/2000/svg">
<g clip-path="url(#clip0_2385_5315)">
<path d="M100 0H0V100H100V0Z" fill="url(#paint0_linear_2385_5315)"/>
<path d="M81.84 83.3337H68.5067V80.667H80.5067V68.667H83.1734V82.0003C83.1734 82.3539 83.0329 82.6931 82.7829 82.9431C82.5328 83.1932 82.1937 83.3337 81.84 83.3337Z" fill="white"/>
<path d="M31.1734 83.3337H17.84C17.4864 83.3337 17.1473 83.1932 16.8972 82.9431C16.6472 82.6931 16.5067 82.3539 16.5067 82.0003V68.667H19.1734V80.667H31.1734V83.3337Z" fill="white"/>
<path d="M83.1734 31.3337H80.5067V19.3337H68.5067V16.667H81.84C82.1937 16.667 82.5328 16.8075 82.7829 17.0575C83.0329 17.3076 83.1734 17.6467 83.1734 18.0003V31.3337Z" fill="white"/>
<path d="M19.1734 31.3337H16.5067V18.0003C16.5067 17.6467 16.6472 17.3076 16.8972 17.0575C17.1473 16.8075 17.4864 16.667 17.84 16.667H31.1734V19.3337H19.1734V31.3337Z" fill="white"/>
<path d="M70.16 66H29.72C25.4765 66 21.4068 64.3143 18.4063 61.3137C15.4057 58.3131 13.72 54.2435 13.72 50C13.72 45.7565 15.4057 41.6869 18.4063 38.6863C21.4068 35.6857 25.4765 34 29.72 34H70.28C74.5234 34 78.5931 35.6857 81.5937 38.6863C84.5943 41.6869 86.28 45.7565 86.28 50C86.28 54.2435 84.5943 58.3131 81.5937 61.3137C78.5931 64.3143 74.5234 66 70.28 66H70.16ZM29.96 63.3333H70.16C73.6962 63.3333 77.0876 61.9286 79.5881 59.4281C82.0885 56.9276 83.4933 53.5362 83.4933 50C83.4933 46.4638 82.0885 43.0724 79.5881 40.5719C77.0876 38.0714 73.6962 36.6667 70.16 36.6667H29.84C26.3038 36.6667 22.9124 38.0714 20.4119 40.5719C17.9114 43.0724 16.5066 46.4638 16.5066 50C16.5066 53.5362 17.9114 56.9276 20.4119 59.4281C22.9124 61.9286 26.3038 63.3333 29.84 63.3333H29.96Z" fill="white"/>
<path d="M69.9333 60.6673C67.8236 60.6673 65.7613 60.0417 64.0072 58.8697C62.2531 57.6976 60.8859 56.0317 60.0786 54.0826C59.2712 52.1335 59.06 49.9888 59.4716 47.9197C59.8831 45.8506 60.899 43.9499 62.3908 42.4582C63.8826 40.9664 65.7832 39.9505 67.8523 39.5389C69.9214 39.1274 72.0661 39.3386 74.0152 40.1459C75.9643 40.9533 77.6302 42.3205 78.8023 44.0746C79.9743 45.8287 80.5999 47.891 80.5999 50.0007C80.5999 52.8296 79.4761 55.5427 77.4757 57.5431C75.4754 59.5435 72.7622 60.6673 69.9333 60.6673ZM69.9333 42.0007C68.351 42.0007 66.8043 42.4698 65.4887 43.3489C64.1731 44.2279 63.1477 45.4774 62.5422 46.9392C61.9367 48.401 61.7783 50.0095 62.087 51.5614C62.3957 53.1132 63.1576 54.5387 64.2764 55.6575C65.3952 56.7763 66.8207 57.5383 68.3725 57.8469C69.9244 58.1556 71.5329 57.9972 72.9947 57.3917C74.4565 56.7862 75.706 55.7608 76.585 54.4452C77.4641 53.1296 77.9333 51.5829 77.9333 50.0007C77.9333 47.8789 77.0904 45.8441 75.5901 44.3438C74.0898 42.8435 72.055 42.0007 69.9333 42.0007Z" fill="white"/>
<path d="M51.8401 52.6667C51.1808 52.6667 50.5363 52.4712 49.9881 52.1049C49.44 51.7386 49.0127 51.218 48.7605 50.6089C48.5082 49.9999 48.4421 49.3296 48.5708 48.683C48.6994 48.0364 49.0169 47.4425 49.483 46.9763C49.9492 46.5101 50.5431 46.1927 51.1897 46.0641C51.8364 45.9354 52.5066 46.0014 53.1157 46.2537C53.7247 46.506 54.2453 46.9333 54.6116 47.4814C54.9779 48.0296 55.1734 48.6741 55.1734 49.3333C55.1734 49.7711 55.0872 50.2045 54.9196 50.6089C54.7521 51.0134 54.5066 51.3808 54.1971 51.6904C53.8875 51.9999 53.5201 52.2454 53.1157 52.4129C52.7112 52.5804 52.2778 52.6667 51.8401 52.6667Z" fill="white"/>
</g>
<defs>
<linearGradient id="paint0_linear_2385_5315" x1="-20.7067" y1="120.707" x2="120.707" y2="-20.7067" gradientUnits="userSpaceOnUse">
<stop stop-color="#1B660F"/>
<stop offset="1" stop-color="#6CAE3E"/>
</linearGradient>
<clipPath id="clip0_2385_5315">
<rect width="100" height="100" fill="white"/>
</clipPath>
</defs>
</svg>
