<svg width="100" height="100" viewBox="0 0 100 100" fill="none" xmlns="http://www.w3.org/2000/svg">
<g clip-path="url(#clip0_2385_5316)">
<path d="M100 0H0V100H100V0Z" fill="url(#paint0_linear_2385_5316)"/>
<path d="M27.6 64.587C27.3868 64.5878 27.1765 64.5376 26.9867 64.4403L18.08 59.8003C17.8655 59.6956 17.6831 59.5351 17.5517 59.3358C17.4204 59.1364 17.345 58.9054 17.3334 58.667C17.3353 58.4244 17.4034 58.187 17.5302 57.9802C17.6571 57.7735 17.838 57.6052 18.0534 57.4937L23.2 54.827L24.4 57.2003L21.6134 58.667L27.6 61.787L33.8267 58.667L30.6667 56.987L32 54.667L37.3334 57.4403C37.5483 57.5548 37.7278 57.7258 37.8523 57.935C37.9769 58.1442 38.0418 58.3835 38.04 58.627C38.0406 58.8718 37.9736 59.1121 37.8466 59.3214C37.7196 59.5307 37.5374 59.701 37.32 59.8137L28.1734 64.4403C27.9973 64.5358 27.8003 64.5862 27.6 64.587Z" fill="white"/>
<path d="M49.88 75.2801C49.6663 75.2855 49.4549 75.2349 49.2667 75.1334L40.36 70.4934C40.1451 70.379 39.9656 70.2079 39.8411 69.9987C39.7165 69.7895 39.6516 69.5502 39.6534 69.3068C39.6553 69.0642 39.7233 68.8267 39.8502 68.62C39.9771 68.4132 40.158 68.245 40.3734 68.1334L45.7067 65.4668L46.92 67.8401L43.8934 69.3334L49.88 72.4534L56.1067 69.3334L53.2 67.7868L54.4267 65.4268L59.64 68.0934C59.8549 68.2079 60.0344 68.3789 60.159 68.5881C60.2836 68.7973 60.3485 69.0366 60.3467 69.2801C60.3472 69.5249 60.2803 69.7652 60.1533 69.9745C60.0263 70.1838 59.8441 70.3541 59.6267 70.4668L50.48 75.0934C50.2999 75.2073 50.0929 75.2716 49.88 75.2801Z" fill="white"/>
<path d="M72.16 64.587C71.9468 64.5878 71.7364 64.5376 71.5467 64.4403L62.6667 59.8003C62.4518 59.6859 62.2723 59.5148 62.1477 59.3056C62.0231 59.0964 61.9582 58.8571 61.96 58.6137C61.9619 58.3711 62.03 58.1336 62.1569 57.9269C62.2837 57.7201 62.4646 57.5519 62.68 57.4403L67.8133 54.8403L69.0133 57.2137L66.1733 58.667L72.16 61.787L78.3867 58.667L75.28 57.0537L76.5067 54.667L81.92 57.4803C82.1424 57.5893 82.33 57.758 82.4619 57.9676C82.5938 58.1772 82.6647 58.4194 82.6667 58.667C82.6672 58.9118 82.6002 59.1521 82.4732 59.3614C82.3462 59.5707 82.1641 59.741 81.9467 59.8537L72.8 64.4803C72.6003 64.5733 72.3791 64.6102 72.16 64.587Z" fill="white"/>
<path d="M72.1867 59.0133C71.0279 59.0159 69.8944 58.6746 68.9298 58.0324C67.9652 57.3902 67.2129 56.4762 66.7682 55.4061C66.3235 54.336 66.2065 53.158 66.4319 52.0213C66.6573 50.8846 67.2151 49.8405 68.0345 49.021C68.8539 48.2016 69.8981 47.6439 71.0347 47.4185C72.1714 47.193 73.3494 47.3101 74.4195 47.7548C75.4896 48.1994 76.4037 48.9517 77.0458 49.9164C77.688 50.881 78.0294 52.0145 78.0267 53.1733C78.0232 54.7211 77.4068 56.2045 76.3123 57.2989C75.2179 58.3934 73.7345 59.0098 72.1867 59.0133ZM72.1867 49.9866C71.5559 49.984 70.9385 50.1686 70.4127 50.5172C69.8869 50.8657 69.4764 51.3625 69.2331 51.9445C68.9899 52.5266 68.9249 53.1677 69.0463 53.7868C69.1678 54.4058 69.4702 54.9749 69.9154 55.4219C70.3605 55.8689 70.9283 56.1737 71.5468 56.2977C72.1653 56.4218 72.8067 56.3594 73.3898 56.1186C73.9728 55.8779 74.4713 55.4694 74.8221 54.9451C75.1728 54.4208 75.36 53.8041 75.3601 53.1733C75.3601 52.3304 75.0262 51.5219 74.4314 50.9247C73.8367 50.3274 73.0296 49.9902 72.1867 49.9866Z" fill="white"/>
<path d="M27.6668 59.0133C26.5086 59.0133 25.3763 58.6697 24.4135 58.0259C23.4506 57.3821 22.7004 56.4672 22.2578 55.3969C21.8151 54.3265 21.7 53.1489 21.9269 52.0131C22.1539 50.8773 22.7127 49.8344 23.5326 49.0163C24.3525 48.1983 25.3968 47.6418 26.5331 47.4175C27.6694 47.1931 28.8467 47.311 29.916 47.756C30.9853 48.2011 31.8986 48.9534 32.5402 49.9177C33.1817 50.8821 33.5228 52.0151 33.5201 53.1733C33.5166 54.7234 32.8984 56.2088 31.801 57.3036C30.7037 58.3985 29.2169 59.0133 27.6668 59.0133ZM27.6668 49.9866C27.0365 49.9866 26.4204 50.1735 25.8964 50.5237C25.3723 50.8738 24.9639 51.3715 24.7227 51.9538C24.4815 52.5361 24.4184 53.1768 24.5414 53.795C24.6643 54.4132 24.9678 54.981 25.4135 55.4266C25.8591 55.8723 26.427 56.1758 27.0451 56.2987C27.6633 56.4217 28.304 56.3586 28.8863 56.1174C29.4686 55.8762 29.9663 55.4678 30.3164 54.9437C30.6666 54.4197 30.8535 53.8036 30.8535 53.1733C30.8535 52.3282 30.5177 51.5176 29.9201 50.92C29.3225 50.3224 28.512 49.9866 27.6668 49.9866Z" fill="white"/>
<path d="M50.0534 69.9332C48.8951 69.9332 47.7629 69.5896 46.8001 68.9458C45.8372 68.3021 45.087 67.3871 44.6444 66.3168C44.2017 65.2464 44.0866 64.0689 44.3135 62.9331C44.5405 61.7973 45.0993 60.7543 45.9192 59.9362C46.7391 59.1182 47.7833 58.5618 48.9197 58.3374C50.056 58.1131 51.2333 58.2309 52.3026 58.676C53.3719 59.121 54.2852 59.8733 54.9268 60.8377C55.5683 61.802 55.9094 62.935 55.9067 64.0932C55.9032 65.6433 55.2849 67.1287 54.1876 68.2235C53.0903 69.3184 51.6035 69.9332 50.0534 69.9332ZM50.0534 60.9066C49.4231 60.9066 48.807 61.0935 48.283 61.4436C47.7589 61.7938 47.3505 62.2915 47.1093 62.8737C46.8681 63.456 46.805 64.0968 46.928 64.7149C47.0509 65.3331 47.3544 65.9009 47.8001 66.3465C48.2457 66.7922 48.8136 67.0957 49.4317 67.2187C50.0499 67.3416 50.6906 67.2785 51.2729 67.0373C51.8552 66.7961 52.3529 66.3877 52.703 65.8636C53.0532 65.3396 53.2401 64.7235 53.2401 64.0932C53.2401 63.2481 52.9043 62.4375 52.3067 61.8399C51.7091 61.2423 50.8986 60.9066 50.0534 60.9066Z" fill="white"/>
<path d="M59.8393 40.5119L58.0193 42.4609L67.0529 50.8967L68.8729 48.9477L59.8393 40.5119Z" fill="white"/>
<path d="M40.9475 39.5129L29.9301 49.751L31.7453 51.7044L42.7628 41.4664L40.9475 39.5129Z" fill="white"/>
<path d="M50.3067 46.8669C48.1124 46.8775 45.9645 46.2363 44.1351 45.0246C42.3057 43.813 40.8773 42.0855 40.0309 40.061C39.1844 38.0366 38.9582 35.8064 39.3807 33.6533C39.8033 31.5001 40.8557 29.5209 42.4044 27.9665C43.9532 26.4121 45.9286 25.3526 48.0802 24.9222C50.2319 24.4919 52.4628 24.7101 54.4903 25.5491C56.5178 26.3882 58.2505 27.8104 59.4687 29.6354C60.687 31.4604 61.336 33.606 61.3333 35.8002C61.3299 38.7273 60.1683 41.5341 58.1023 43.6076C56.0363 45.6811 53.2337 46.8528 50.3067 46.8669ZM50.3067 27.3869C48.6404 27.3763 47.0086 27.8608 45.618 28.7788C44.2275 29.6968 43.1408 31.0071 42.4958 32.5435C41.8509 34.0798 41.6766 35.7731 41.9952 37.4087C42.3138 39.0442 43.1109 40.5483 44.2853 41.7302C45.4598 42.9122 46.9588 43.7188 48.5923 44.0478C50.2257 44.3768 51.9201 44.2133 53.4605 43.5781C55.001 42.9429 56.3181 41.8646 57.245 40.4799C58.1718 39.0952 58.6666 37.4665 58.6667 35.8002C58.6632 33.5792 57.783 31.4493 56.2175 29.8737C54.6519 28.2982 52.5277 27.4045 50.3067 27.3869Z" fill="white"/>
<path d="M51.3868 46.3203H48.7201V59.1336H51.3868V46.3203Z" fill="white"/>
</g>
<defs>
<linearGradient id="paint0_linear_2385_5316" x1="-20.7067" y1="120.711" x2="120.715" y2="-20.7107" gradientUnits="userSpaceOnUse">
<stop stop-color="#1B660F"/>
<stop offset="1" stop-color="#6CAE3E"/>
</linearGradient>
<clipPath id="clip0_2385_5316">
<rect width="100" height="100" fill="white"/>
</clipPath>
</defs>
</svg>
