<svg width="100" height="100" viewBox="0 0 100 100" fill="none" xmlns="http://www.w3.org/2000/svg">
<g clip-path="url(#clip0_2385_5317)">
<path d="M100 0H0V100H100V0Z" fill="url(#paint0_linear_2385_5317)"/>
<path d="M23.92 62.2537C20.9019 57.3905 19.4154 51.7323 19.6534 46.0137L22.32 46.1203C22.1119 51.286 23.4589 56.3953 26.1867 60.787L23.92 62.2537Z" fill="white"/>
<path d="M58.4667 74.0409L57.52 71.5476C63.7621 69.2159 68.8664 64.57 71.7734 58.5742L74.1734 59.7342C70.9735 66.3463 65.3479 71.4705 58.4667 74.0409Z" fill="white"/>
<path d="M72.2668 36.8008C72.0623 36.3297 71.849 35.8853 71.6268 35.4675C68.7235 29.7327 63.8086 25.2691 57.8216 22.9299C51.8346 20.5907 45.1955 20.54 39.1734 22.7875L38.2401 20.2941C44.8723 17.8106 52.1875 17.8601 58.7855 20.4334C65.3834 23.0066 70.8006 27.9228 74.0001 34.2408C74.2534 34.7341 74.4934 35.2275 74.7068 35.7341L72.2668 36.8008Z" fill="white"/>
<path d="M41.0534 40.1874H36.8534V37.5207H39.7201V26.734H36.8534V24.0674H41.0534C41.407 24.0674 41.7462 24.2079 41.9962 24.4579C42.2463 24.708 42.3867 25.0471 42.3867 25.4007V38.8541C42.3867 39.2077 42.2463 39.5468 41.9962 39.7969C41.7462 40.0469 41.407 40.1874 41.0534 40.1874Z" fill="white"/>
<path d="M45.2533 30.8008H41.0533V33.4674H45.2533V30.8008Z" fill="white"/>
<path d="M54.96 30.4004H50.76V33.0671H54.96V30.4004Z" fill="white"/>
<path d="M60.92 37.9608H55.4C55.0464 37.9608 54.7072 37.8203 54.4572 37.5703C54.2071 37.3202 54.0667 36.9811 54.0667 36.6275V26.8275C54.0667 26.4739 54.2071 26.1347 54.4572 25.8847C54.7072 25.6346 55.0464 25.4941 55.4 25.4941H60.92C61.2736 25.4941 61.6127 25.6346 61.8628 25.8847C62.1128 26.1347 62.2533 26.4739 62.2533 26.8275V36.6275C62.2533 36.9811 62.1128 37.3202 61.8628 37.5703C61.6127 37.8203 61.2736 37.9608 60.92 37.9608ZM56.7333 35.2941H59.5867V28.1608H56.7333V35.2941Z" fill="white"/>
<path d="M50.76 37.9608H45.2534C44.8998 37.9608 44.5606 37.8203 44.3106 37.5703C44.0605 37.3202 43.92 36.9811 43.92 36.6275V26.8275C43.92 26.4739 44.0605 26.1347 44.3106 25.8847C44.5606 25.6346 44.8998 25.4941 45.2534 25.4941H50.76C51.1137 25.4941 51.4528 25.6346 51.7029 25.8847C51.9529 26.1347 52.0934 26.4739 52.0934 26.8275V36.6275C52.0934 36.9811 51.9529 37.3202 51.7029 37.5703C51.4528 37.8203 51.1137 37.9608 50.76 37.9608ZM46.5867 35.2941H49.4267V28.1608H46.5867V35.2941Z" fill="white"/>
<path d="M31.3334 37.5205H27.1334V40.1872H31.3334V37.5205Z" fill="white"/>
<path d="M26.3067 45.0933H20.7867C20.4331 45.0933 20.0939 44.9528 19.8439 44.7028C19.5938 44.4527 19.4534 44.1136 19.4534 43.76V33.9466C19.4534 33.593 19.5938 33.2539 19.8439 33.0038C20.0939 32.7538 20.4331 32.6133 20.7867 32.6133H26.3067C26.6603 32.6133 26.9995 32.7538 27.2495 33.0038C27.4996 33.2539 27.64 33.593 27.64 33.9466V43.76C27.64 44.1136 27.4996 44.4527 27.2495 44.7028C26.9995 44.9528 26.6603 45.0933 26.3067 45.0933ZM22.12 42.4266H24.9734V35.2799H22.12V42.4266Z" fill="white"/>
<path d="M36.8533 30.9071H31.3333C30.9797 30.9071 30.6406 30.7666 30.3905 30.5166C30.1405 30.2665 30 29.9274 30 29.5738V19.7738C30 19.4201 30.1405 19.081 30.3905 18.831C30.6406 18.5809 30.9797 18.4404 31.3333 18.4404H36.8533C37.207 18.4404 37.5461 18.5809 37.7961 18.831C38.0462 19.081 38.1867 19.4201 38.1867 19.7738V29.5738C38.1867 29.9274 38.0462 30.2665 37.7961 30.5166C37.5461 30.7666 37.207 30.9071 36.8533 30.9071ZM32.6667 28.2404H35.52V21.1071H32.6667V28.2404Z" fill="white"/>
<path d="M36.8533 45.0933H31.3333C30.9797 45.0933 30.6406 44.9528 30.3905 44.7028C30.1405 44.4527 30 44.1136 30 43.76V33.9466C30 33.593 30.1405 33.2539 30.3905 33.0038C30.6406 32.7538 30.9797 32.6133 31.3333 32.6133H36.8533C37.207 32.6133 37.5461 32.7538 37.7961 33.0038C38.0462 33.2539 38.1867 33.593 38.1867 33.9466V43.76C38.1867 44.1136 38.0462 44.4527 37.7961 44.7028C37.5461 44.9528 37.207 45.0933 36.8533 45.0933ZM32.6667 42.4266H35.52V35.2799H32.6667V42.4266Z" fill="white"/>
<path d="M24.3733 64.5473L24.4933 65.6006L24.6 66.6673L24.72 67.7206L30.0533 68.4673C30.4907 69.6641 31.1065 70.7879 31.88 71.8006L29.6 76.6806L30.44 77.3473L31.2666 78.014L32.0933 78.6806L36.3866 75.4406C37.5362 75.9857 38.7647 76.3456 40.0266 76.5073L41.88 81.5606L42.9466 81.4406L44 81.334L45.0666 81.214L45.8 75.8806C46.998 75.4579 48.1227 74.8505 49.1333 74.0806L54.0133 76.334L54.68 75.5073L55.36 74.6673L56.0266 73.8406L52.7866 69.5606C53.3282 68.404 53.6923 67.1724 53.8666 65.9073L58.8933 64.0006L58.7866 62.9473L58.6666 61.8806L58.56 60.8273L53.2266 60.0806C52.7978 58.8718 52.1813 57.7379 51.4 56.7206L53.64 51.8673L52.8133 51.2006L51.9866 50.534L51.16 49.8673L46.8933 53.0806C45.7408 52.5284 44.5075 52.1638 43.24 52.0006L41.4 46.9873L40.3333 47.094L39.28 47.214L38.2133 47.334L37.48 52.6673C36.2664 53.1008 35.1282 53.7217 34.1066 54.5073L29.3333 52.2673L28.6533 53.094L27.9866 53.9206L27.32 54.7606L30.5466 59.0273C29.9768 60.1734 29.5899 61.4016 29.4 62.6673L24.3733 64.5473Z" stroke="white" stroke-width="2" stroke-linejoin="round"/>
<path d="M41.6268 72.5067C40.1279 72.4967 38.6604 72.0768 37.3832 71.2924C36.106 70.5079 35.0678 69.389 34.3811 68.0567C33.6943 66.7245 33.3853 65.2297 33.4873 63.7343C33.5894 62.2389 34.0987 60.8 34.9601 59.5734C36.2142 57.7936 38.1237 56.5845 40.2688 56.212C42.414 55.8394 44.6193 56.3339 46.4001 57.5867C47.7255 58.5216 48.7444 59.828 49.3284 61.3411C49.9124 62.8542 50.0353 64.5064 49.6816 66.0893C49.328 67.6722 48.5136 69.1149 47.3411 70.2356C46.1687 71.3563 44.6907 72.1048 43.0934 72.3867C42.6088 72.468 42.1182 72.5082 41.6268 72.5067ZM41.6268 58.7601C40.6725 58.7573 39.7337 59.0008 38.9011 59.467C38.0685 59.9332 37.3703 60.6062 36.8739 61.4212C36.3775 62.2361 36.0997 63.1653 36.0674 64.119C36.0351 65.0727 36.2494 66.0186 36.6895 66.8652C37.1297 67.7118 37.7808 68.4306 38.58 68.952C39.3791 69.4735 40.2993 69.7799 41.2515 69.8417C42.2037 69.9035 43.1558 69.7187 44.0157 69.3049C44.8756 68.8912 45.6142 68.2627 46.1601 67.4801C46.5826 66.8879 46.8818 66.2169 47.0399 65.5068C47.1979 64.7968 47.2116 64.0622 47.0801 63.3467C46.8621 62.06 46.1941 60.8925 45.1953 60.0524C44.1965 59.2124 42.9318 58.7544 41.6268 58.7601Z" fill="white"/>
<path d="M65.4667 55.8002L66.0134 56.0803L66.56 56.3602L67.1067 56.6402L69.1467 54.3203C69.8668 54.4903 70.6088 54.5488 71.3467 54.4936L72.9867 57.1602L73.5734 56.9736L74.16 56.7869L74.7334 56.6002L74.5334 53.4936C75.1626 53.0847 75.7248 52.5809 76.2 52.0002L79.2267 52.7069L79.5067 52.1469L79.7867 51.6002L80.0667 51.0536L77.7334 49.0536C77.9033 48.338 77.9618 47.6004 77.9067 46.8669L80.5734 45.2269L80.3867 44.6402L80.16 44.0002L80 43.4669L76.9067 43.6802C76.5179 43.0481 76.0319 42.4812 75.4667 42.0002L76.16 38.9869L75.6134 38.6669L75.0667 38.3869L74.52 38.1069L72.48 40.4269C71.761 40.2497 71.0179 40.1912 70.28 40.2536L68.6534 37.5869L68.0667 37.7736L67.48 37.9602L66.8934 38.1602L67.0934 41.2269C66.4598 41.6137 65.8925 42.0999 65.4134 42.6669L62.4134 41.9736L62.12 42.5202L61.84 43.0669L61.56 43.6136L63.88 45.6402C63.6944 46.4123 63.6359 47.2094 63.7067 48.0002L61.04 49.6269L61.2267 50.2136L61.4134 50.8002L61.6 51.3869L64.68 51.1869C65.0739 51.8153 65.5593 52.3815 66.12 52.8669L65.4667 55.8002Z" stroke="white" stroke-width="2" stroke-linejoin="round"/>
<path d="M70.8133 52.7072C69.5949 52.6783 68.4232 52.2329 67.4931 51.4452C66.5631 50.6575 65.9309 49.5751 65.7018 48.378C65.4727 47.181 65.6604 45.9416 66.2339 44.8661C66.8073 43.7907 67.7317 42.9441 68.8533 42.4672C69.8271 42.0959 70.8883 42.018 71.9059 42.2431C72.9234 42.4683 73.8527 42.9866 74.5789 43.7341C75.3051 44.4816 75.7964 45.4255 75.9921 46.4491C76.1878 47.4727 76.0793 48.5312 75.68 49.4939C75.4088 50.1353 75.0119 50.7159 74.5127 51.2014C74.0135 51.6869 73.4221 52.0674 72.7733 52.3206C72.1502 52.5717 71.4852 52.7029 70.8133 52.7072ZM70.8133 44.7072C70.4797 44.7044 70.1489 44.7678 69.84 44.8939C69.208 45.1391 68.6931 45.6159 68.4 46.2272C68.1333 46.8764 68.1333 47.6047 68.4 48.2539C68.6643 48.9005 69.1718 49.4175 69.8133 49.6939C70.1317 49.8292 70.4741 49.899 70.82 49.899C71.1659 49.899 71.5083 49.8292 71.8267 49.6939C72.4402 49.4357 72.935 48.9573 73.2138 48.3529C73.4926 47.7484 73.5352 47.0615 73.3333 46.4272C73.1353 45.9377 72.7965 45.5181 72.3598 45.2213C71.923 44.9246 71.408 44.7643 70.88 44.7606L70.8133 44.7072Z" fill="white"/>
</g>
<defs>
<linearGradient id="paint0_linear_2385_5317" x1="-20.72" y1="120.72" x2="120.707" y2="-20.7067" gradientUnits="userSpaceOnUse">
<stop stop-color="#1B660F"/>
<stop offset="1" stop-color="#6CAE3E"/>
</linearGradient>
<clipPath id="clip0_2385_5317">
<rect width="100" height="100" fill="white"/>
</clipPath>
</defs>
</svg>
