<svg width="100" height="100" viewBox="0 0 100 100" fill="none" xmlns="http://www.w3.org/2000/svg">
<g clip-path="url(#clip0_2385_5280)">
<path d="M100 0H0V100H100V0Z" fill="url(#paint0_linear_2385_5280)"/>
<path d="M71.44 25.7063C71.8464 24.8757 72.0606 23.9643 72.0667 23.0396C72.0763 21.8209 71.7362 20.625 71.0868 19.5936C70.4374 18.5623 69.5059 17.7388 68.4027 17.2207C67.2996 16.7026 66.071 16.5117 64.8626 16.6706C63.6542 16.8295 62.5168 17.3316 61.585 18.1172C60.6533 18.9029 59.9664 19.9393 59.6057 21.1034C59.245 22.2676 59.2257 23.5108 59.5501 24.6856C59.8744 25.8604 60.5288 26.9176 61.4357 27.7319C62.3425 28.5461 63.4639 29.0832 64.6667 29.2796V33.9996H67.3334V29.1063C68.2528 28.8616 69.1021 28.4049 69.8134 27.7729C73.2216 30.556 75.9648 34.0655 77.8426 38.0448C79.7204 42.0242 80.6853 46.3728 80.6667 50.773C80.6158 56.9069 78.694 62.8792 75.1582 67.8918C71.6224 72.9044 66.641 76.7185 60.8797 78.8245C55.1184 80.9305 48.8516 81.228 42.9166 79.6772C36.9817 78.1265 31.6614 74.8014 27.6667 70.1463C28.413 69.3572 28.9414 68.3878 29.2 67.333H34V64.6663H29.3334C29.0942 63.3798 28.4624 62.199 27.5248 61.2862C26.5872 60.3734 25.39 59.7734 24.0976 59.5687C22.8052 59.364 21.4811 59.5647 20.3073 60.1431C19.1336 60.7214 18.1678 61.6492 17.5427 62.7988C16.9177 63.9483 16.664 65.2633 16.8167 66.5629C16.9693 67.8625 17.5208 69.0829 18.3952 70.0563C19.2696 71.0298 20.4241 71.7085 21.6999 71.9992C22.9757 72.2899 24.3102 72.1782 25.52 71.6796C28.4099 75.212 32.0081 78.0994 36.0825 80.1555C40.157 82.2116 44.6172 83.3908 49.1755 83.6169C53.7337 83.8431 58.2888 83.1112 62.5467 81.4685C66.8047 79.8258 70.671 77.3087 73.8963 74.0797C77.1216 70.8507 79.6341 66.9815 81.2719 62.7216C82.9097 58.4617 83.6363 53.9058 83.4048 49.3478C83.1734 44.7898 81.989 40.331 79.9282 36.2589C77.8674 32.1868 74.9758 28.592 71.44 25.7063ZM65.7067 26.6796C64.9795 26.677 64.2693 26.4589 63.6659 26.053C63.0624 25.647 62.5928 25.0713 62.3164 24.3987C62.0399 23.726 61.9689 22.9865 62.1124 22.2735C62.2559 21.5606 62.6074 20.9061 63.1226 20.3928C63.6378 19.8795 64.2935 19.5303 65.007 19.3894C65.7205 19.2485 66.4597 19.3221 67.1314 19.601C67.803 19.88 68.377 20.3516 68.7808 20.9565C69.1845 21.5614 69.4 22.2723 69.4 22.9996C69.3895 23.9734 68.9962 24.904 68.3051 25.5901C67.614 26.2763 66.6806 26.6628 65.7067 26.6663V26.6796ZM19.3334 65.8263C19.3255 65.0915 19.5361 64.371 19.9385 63.7562C20.341 63.1414 20.9171 62.6601 21.5936 62.3734C22.2702 62.0867 23.0167 62.0076 23.7384 62.146C24.46 62.2845 25.1242 62.6343 25.6466 63.1511C26.169 63.6679 26.526 64.3282 26.6723 65.0483C26.8186 65.7684 26.7476 66.5157 26.4682 67.1954C26.1889 67.875 25.7139 68.4563 25.1035 68.8654C24.4931 69.2745 23.7749 69.4929 23.04 69.493C22.0628 69.4965 21.124 69.1126 20.4292 68.4254C19.7345 67.7381 19.3404 66.8035 19.3334 65.8263Z" fill="white"/>
<path d="M29.7067 35.9996C30.9017 35.9955 32.0712 35.6535 33.0801 35.0129L62.7867 64.6663H59.3334V67.3329H66.0001C66.3537 67.3329 66.6928 67.1924 66.9429 66.9424C67.1929 66.6923 67.3334 66.3532 67.3334 65.9996V59.3329H64.6667V62.7863L35.0001 33.1196C35.6994 32.0842 36.071 30.8624 36.0667 29.6129C36.0641 28.3524 35.6877 27.121 34.9852 26.0743C34.2827 25.0277 33.2856 24.2129 32.12 23.733C30.9545 23.253 29.6727 23.1295 28.437 23.378C27.2012 23.6265 26.0668 24.2359 25.1774 25.1291C24.2879 26.0223 23.6833 27.1591 23.4399 28.396C23.1966 29.6328 23.3255 30.914 23.8103 32.0775C24.2951 33.2411 25.1141 34.2348 26.1637 34.9329C27.2132 35.631 28.4462 36.0022 29.7067 35.9996ZM29.7067 25.9863C30.434 25.9915 31.1433 26.2122 31.7453 26.6203C32.3472 27.0285 32.8147 27.6058 33.0888 28.2795C33.3628 28.9531 33.4311 29.6929 33.285 30.4053C33.139 31.1177 32.7851 31.7709 32.268 32.2824C31.751 32.7938 31.094 33.1406 30.38 33.279C29.666 33.4173 28.9271 33.341 28.2564 33.0596C27.5858 32.7783 27.0136 32.3046 26.612 31.6982C26.2104 31.0919 25.9974 30.3802 26.0001 29.6529C25.9983 29.1657 26.093 28.6829 26.2786 28.2324C26.4643 27.7818 26.7372 27.3725 27.0818 27.028C27.4263 26.6834 27.8357 26.4105 28.2862 26.2248C28.7367 26.0392 29.2195 25.9445 29.7067 25.9462V25.9863Z" fill="white"/>
<path d="M44.6667 64.666H38V67.3327H44.6667V64.666Z" fill="white"/>
<path d="M55.3334 64.666H48.6667V67.3327H55.3334V64.666Z" fill="white"/>
<path d="M67.3334 38H64.6667V44.6667H67.3334V38Z" fill="white"/>
<path d="M67.3334 48.666H64.6667V55.3327H67.3334V48.666Z" fill="white"/>
</g>
<defs>
<linearGradient id="paint0_linear_2385_5280" x1="-20.7067" y1="120.707" x2="120.707" y2="-20.7067" gradientUnits="userSpaceOnUse">
<stop stop-color="#1B660F"/>
<stop offset="1" stop-color="#6CAE3E"/>
</linearGradient>
<clipPath id="clip0_2385_5280">
<rect width="100" height="100" fill="white"/>
</clipPath>
</defs>
</svg>
