<svg width="100" height="100" viewBox="0 0 100 100" fill="none" xmlns="http://www.w3.org/2000/svg">
<g clip-path="url(#clip0_2385_5277)">
<path d="M100 0H0V100H100V0Z" fill="url(#paint0_linear_2385_5277)"/>
<path d="M76.72 23.3464C61.3467 23.2264 51.8533 19.4797 51.3867 18.0131C51.3867 17.6594 51.2462 17.3203 50.9962 17.0702C50.7461 16.8202 50.407 16.6797 50.0533 16.6797C49.7258 16.6774 49.4088 16.7957 49.1629 17.0121C48.917 17.2285 48.7593 17.5278 48.72 17.8531C48.7076 17.9012 48.7076 17.9516 48.72 17.9997C48.1733 19.5197 38.68 23.2397 23.3867 23.3331C23.0331 23.3331 22.6939 23.4735 22.4439 23.7236C22.1938 23.9736 22.0533 24.3128 22.0533 24.6664V45.1464C22.8592 44.4749 23.7572 43.9226 24.72 43.5064V25.9864C35.3867 25.7464 46.3467 23.5997 50.0533 20.3997C53.7733 23.5997 64.72 25.7331 75.3867 25.9864V43.5331C76.3538 43.9524 77.2526 44.5142 78.0533 45.1997V24.6797C78.0533 24.3261 77.9129 23.987 77.6628 23.7369C77.4128 23.4869 77.0736 23.3464 76.72 23.3464Z" fill="white"/>
<path d="M63.6134 52.6663C63.7736 54.522 64.624 56.2501 65.9966 57.5091C67.3692 58.7682 69.1641 59.4666 71.0267 59.4663C72.5853 59.4722 74.1045 58.9767 75.36 58.053C76.591 57.1774 77.5222 55.9436 78.0267 54.5197C78.6314 52.9125 78.6314 51.1402 78.0267 49.533C77.5184 48.1111 76.588 46.8784 75.36 45.9997C74.1045 45.076 72.5853 44.5805 71.0267 44.5863C69.4065 44.5919 67.8317 45.1224 66.5385 46.0983C65.2452 47.0743 64.3031 48.4431 63.8534 49.9997H56.6934C56.3397 49.9997 56.0006 50.1401 55.7505 50.3902C55.5005 50.6402 55.36 50.9794 55.36 51.333V77.8397L51.36 79.8397V40.7463C53.1837 40.4135 54.817 39.4107 55.9389 37.9349C57.0608 36.4592 57.5902 34.6172 57.4231 32.7709C57.256 30.9247 56.4045 29.2077 55.0359 27.9573C53.6673 26.707 51.8805 26.0137 50.0267 26.0137C48.1729 26.0137 46.3861 26.707 45.0175 27.9573C43.6489 29.2077 42.7973 30.9247 42.6303 32.7709C42.4632 34.6172 42.9926 36.4592 44.1145 37.9349C45.2364 39.4107 46.8697 40.4135 48.6934 40.7463V79.8397L44.6934 77.8397V51.333C44.6934 50.9794 44.5529 50.6402 44.3028 50.3902C44.0528 50.1401 43.7136 49.9997 43.36 49.9997H36.1334C35.8026 48.8609 35.2045 47.8177 34.3888 46.9569C33.5732 46.0962 32.5635 45.4429 31.4442 45.0515C30.3248 44.6602 29.1281 44.542 27.9538 44.7069C26.7795 44.8718 25.6616 45.3151 24.6934 45.9997C23.486 46.8425 22.5575 48.0263 22.0267 49.3997C21.3586 51.1147 21.3586 53.018 22.0267 54.733C22.5609 56.1081 23.4884 57.2953 24.6934 58.1463C25.7625 58.8967 27.0106 59.3518 28.3118 59.4658C29.613 59.5797 30.9213 59.3485 32.1046 58.7954C33.2879 58.2423 34.3044 57.3869 35.0515 56.3155C35.7986 55.2441 36.25 53.9945 36.36 52.693H42.0267V76.5063L28.5334 69.7597C27.3776 69.1887 26.4051 68.305 25.7263 67.2091C25.0475 66.1131 24.6897 64.8488 24.6934 63.5597V61.9197C23.7278 61.503 22.8292 60.9459 22.0267 60.2663V63.5597C22.027 65.344 22.5267 67.0927 23.4692 68.6079C24.4117 70.123 25.7595 71.3441 27.36 72.133L49.4534 83.1863C49.6391 83.2815 49.8446 83.3318 50.0534 83.333C50.2662 83.3305 50.4757 83.2804 50.6667 83.1863L72.7334 72.133C74.3348 71.3453 75.6835 70.1245 76.6262 68.6091C77.5689 67.0937 78.0679 65.3444 78.0667 63.5597V60.213C77.2659 60.902 76.3672 61.4681 75.4 61.893V63.5597C75.4068 64.8494 75.0503 66.1151 74.3711 67.2116C73.692 68.3081 72.7178 69.1912 71.56 69.7597L58.0267 76.5063V52.6663H63.6134ZM71.0267 47.253C71.9395 47.256 72.8325 47.5199 73.6003 48.0136C74.368 48.5073 74.9786 49.2103 75.36 50.0397C75.6631 50.6628 75.8205 51.3467 75.8205 52.0397C75.8205 52.7326 75.6631 53.4165 75.36 54.0397C74.9071 55.0384 74.124 55.8507 73.1426 56.34C72.1611 56.8293 71.0411 56.9658 69.9709 56.7264C68.9007 56.487 67.9455 55.8864 67.2661 55.0256C66.5866 54.1647 66.2243 53.0962 66.24 51.9997C66.254 50.7382 66.7641 49.533 67.6599 48.6447C68.5557 47.7564 69.7651 47.2564 71.0267 47.253ZM28.9734 56.7997C28.0818 56.8006 27.2079 56.5511 26.4512 56.0797C25.6945 55.6082 25.0854 54.9337 24.6934 54.133C24.3604 53.4712 24.1869 52.7406 24.1869 51.9997C24.1869 51.2588 24.3604 50.5282 24.6934 49.8663C25.0731 49.1063 25.6488 48.4613 26.3611 47.9981C27.0734 47.5349 27.8965 47.2702 28.7453 47.2313C29.5941 47.1925 30.4378 47.3809 31.1894 47.7772C31.9411 48.1734 32.5733 48.7631 33.0209 49.4853C33.4684 50.2076 33.7151 51.0362 33.7354 51.8856C33.7557 52.735 33.5489 53.5745 33.1364 54.3173C32.7238 55.0601 32.1205 55.6793 31.3887 56.111C30.6568 56.5427 29.823 56.7712 28.9734 56.773V56.7997ZM49.9867 38.213C49.0426 38.213 48.1197 37.9331 47.3348 37.4086C46.5498 36.8841 45.938 36.1386 45.5767 35.2663C45.2154 34.3941 45.1209 33.4344 45.3051 32.5084C45.4893 31.5825 45.9439 30.732 46.6114 30.0644C47.279 29.3969 48.1295 28.9422 49.0555 28.7581C49.9814 28.5739 50.9412 28.6684 51.8134 29.0297C52.6856 29.391 53.4311 30.0028 53.9556 30.7877C54.4801 31.5727 54.76 32.4956 54.76 33.4397C54.7618 34.067 54.6395 34.6885 54.4003 35.2684C54.161 35.8483 53.8095 36.3753 53.3659 36.8189C52.9223 37.2624 52.3954 37.614 51.8154 37.8532C51.2355 38.0925 50.614 38.2148 49.9867 38.213Z" fill="white"/>
</g>
<defs>
<linearGradient id="paint0_linear_2385_5277" x1="-20.7067" y1="120.707" x2="120.707" y2="-20.7067" gradientUnits="userSpaceOnUse">
<stop stop-color="#1B660F"/>
<stop offset="1" stop-color="#6CAE3E"/>
</linearGradient>
<clipPath id="clip0_2385_5277">
<rect width="100" height="100" fill="white"/>
</clipPath>
</defs>
</svg>
