<svg width="100" height="100" viewBox="0 0 100 100" fill="none" xmlns="http://www.w3.org/2000/svg">
<g clip-path="url(#clip0_2385_5279)">
<path d="M100 0H0V100H100V0Z" fill="url(#paint0_linear_2385_5279)"/>
<path d="M60.5067 69.5998C56.6035 69.5999 52.7761 68.5216 49.4469 66.4841C46.1176 64.4466 43.416 61.529 41.64 58.0532L44 56.8398C45.2384 59.259 46.9936 61.3763 49.1414 63.0415C51.2892 64.7068 53.777 65.8793 56.4284 66.476C59.0798 67.0727 61.83 67.079 64.4841 66.4944C67.1383 65.9098 69.6313 64.7486 71.7867 63.0932L73.4133 65.1998C70.0754 67.7815 66.0386 69.3006 61.8267 69.5598L60.5067 69.5998Z" fill="white"/>
<path d="M42.8933 42.6666L40.36 41.8399C41.664 37.7965 44.1594 34.2415 47.519 31.641C50.8785 29.0404 54.9455 27.5157 59.1867 27.2666L59.36 29.9333C55.6511 30.1468 52.0936 31.4773 49.1547 33.7498C46.2159 36.0224 44.0332 39.1308 42.8933 42.6666Z" fill="white"/>
<path d="M47.7601 47.0006L45.0934 46.6406C45.6109 42.9872 47.3908 39.6302 50.1243 37.1517C52.8579 34.6732 56.3727 33.2296 60.0591 33.0712C63.7456 32.9129 67.3713 34.0497 70.3073 36.2847C73.2433 38.5197 75.3045 41.7117 76.1334 45.3073L73.5334 45.9073C72.8402 42.9193 71.123 40.2682 68.6797 38.4138C66.2363 36.5594 63.221 35.6187 60.1567 35.7549C57.0924 35.8911 54.1724 37.0956 51.9032 39.1594C49.634 41.2233 48.1588 44.0163 47.7334 47.054L47.7601 47.0006Z" fill="white"/>
<path d="M60.6 64.6006C57.1308 64.5961 53.7588 63.4539 51.0012 61.3489C48.2435 59.2439 46.2525 56.2925 45.3334 52.9472L47.9067 52.2539C48.7083 55.166 50.4863 57.7142 52.9428 59.4716C55.3993 61.229 58.3851 62.0889 61.4 61.9072L61.56 64.5739L60.6 64.6006Z" fill="white"/>
<path d="M33.76 76.3602C32.6598 76.3629 31.5835 76.039 30.6674 75.4297C29.7513 74.8203 29.0366 73.9529 28.6137 72.9372C28.1908 71.9215 28.0788 70.8031 28.2919 69.7237C28.5049 68.6443 29.0334 67.6524 29.8104 66.8734C30.5875 66.0945 31.5781 65.5637 32.657 65.3481C33.7359 65.1324 34.8545 65.2418 35.8713 65.6622C36.888 66.0826 37.7572 66.7952 38.3687 67.7099C38.9802 68.6245 39.3066 69.7 39.3066 70.8002C39.3067 72.2725 38.7227 73.6847 37.6829 74.727C36.6431 75.7693 35.2323 76.3567 33.76 76.3602ZM33.76 67.9202C33.1866 67.9176 32.6254 68.0854 32.1475 68.4023C31.6697 68.7192 31.2968 69.1709 31.0761 69.7001C30.8555 70.2294 30.7971 70.8122 30.9083 71.3747C31.0195 71.9372 31.2953 72.454 31.7008 72.8594C32.1062 73.2649 32.623 73.5407 33.1855 73.6519C33.748 73.7631 34.3308 73.7047 34.8601 73.4841C35.3893 73.2634 35.841 72.8905 36.1579 72.4127C36.4748 71.9348 36.6426 71.3736 36.64 70.8002C36.6365 70.0375 36.3319 69.307 35.7926 68.7676C35.2532 68.2283 34.5227 67.9237 33.76 67.9202Z" fill="white"/>
<path d="M33.76 34.7469C32.6592 34.7496 31.5824 34.4254 30.666 33.8155C29.7496 33.2055 29.0349 32.3373 28.6124 31.3208C28.19 30.3043 28.0787 29.1853 28.2928 28.1055C28.5069 27.0257 29.0368 26.0338 29.8151 25.2554C30.5935 24.4771 31.5854 23.9472 32.6652 23.7331C33.745 23.519 34.864 23.6303 35.8805 24.0527C36.897 24.4752 37.7652 25.1899 38.3752 26.1063C38.9851 27.0227 39.3093 28.0995 39.3066 29.2003C39.3031 30.6703 38.7176 32.079 37.6782 33.1185C36.6387 34.1579 35.2299 34.7434 33.76 34.7469ZM33.76 26.3069C33.1872 26.3043 32.6265 26.4717 32.1489 26.7881C31.6713 27.1044 31.2984 27.5553 31.0774 28.0838C30.8564 28.6122 30.7971 29.1944 30.9073 29.7565C31.0174 30.3186 31.2919 30.8354 31.696 31.2414C32.1001 31.6474 32.6156 31.9243 33.1772 32.037C33.7389 32.1497 34.3213 32.0932 34.8508 31.8746C35.3802 31.656 35.8329 31.2852 36.1514 30.8091C36.4699 30.333 36.64 29.7731 36.64 29.2003C36.64 28.4352 36.337 27.7013 35.7972 27.1591C35.2575 26.6169 34.525 26.3105 33.76 26.3069Z" fill="white"/>
<path d="M23.5467 55.6806C22.447 55.6806 21.3721 55.3545 20.4577 54.7435C19.5434 54.1326 18.8307 53.2642 18.4099 52.2483C17.9891 51.2323 17.879 50.1144 18.0935 49.0358C18.3081 47.9573 18.8376 46.9666 19.6152 46.189C20.3928 45.4115 21.3835 44.8819 22.462 44.6674C23.5405 44.4528 24.6585 44.563 25.6744 44.9838C26.6904 45.4046 27.5587 46.1172 28.1697 47.0316C28.7806 47.9459 29.1067 49.0209 29.1067 50.1206C29.1067 51.5952 28.5209 53.0094 27.4782 54.0521C26.4355 55.0948 25.0213 55.6806 23.5467 55.6806ZM23.5467 47.2406C22.9739 47.2406 22.414 47.4106 21.9379 47.7291C21.4618 48.0476 21.0909 48.5003 20.8724 49.0298C20.6538 49.5592 20.5972 50.1417 20.71 50.7033C20.8227 51.2649 21.0996 51.7804 21.5056 52.1845C21.9115 52.5886 22.4283 52.8631 22.9905 52.9732C23.5526 53.0834 24.1347 53.0242 24.6632 52.8031C25.1916 52.5821 25.6426 52.2092 25.9589 51.7316C26.2752 51.2541 26.4427 50.6934 26.44 50.1206C26.44 49.7412 26.3651 49.3656 26.2195 49.0153C26.074 48.665 25.8606 48.347 25.5918 48.0794C25.3229 47.8117 25.0039 47.5999 24.6529 47.4559C24.302 47.312 23.926 47.2388 23.5467 47.2406Z" fill="white"/>
<path d="M42.9753 58.3521L35.8298 65.9453L37.7718 67.7728L44.9173 60.1796L42.9753 58.3521Z" fill="white"/>
<path d="M36.9877 31.2218L35.1011 33.1064L41.735 39.7473L43.6216 37.8627L36.9877 31.2218Z" fill="white"/>
<path d="M51.1867 48.7871H28.1733V51.4538H51.1867V48.7871Z" fill="white"/>
<path d="M60.8267 60.4139H60.2C58.1873 60.2984 56.2458 59.628 54.5906 58.4769C52.9355 57.3259 51.6313 55.7391 50.8225 53.8923C50.0138 52.0456 49.7321 50.011 50.0086 48.014C50.2851 46.017 51.1091 44.1355 52.3893 42.578C53.6694 41.0205 55.3557 39.8478 57.2614 39.1898C59.167 38.5318 61.2177 38.4142 63.1861 38.85C65.1545 39.2858 66.9638 40.2581 68.4136 41.659C69.8634 43.06 70.897 44.8349 71.4 46.7872L68.8267 47.4539C68.34 45.5402 67.1854 43.8636 65.5712 42.7263C63.9571 41.589 61.9896 41.066 60.0238 41.2516C58.058 41.4372 56.2232 42.3193 54.8505 43.7386C53.4777 45.158 52.6574 47.0211 52.5375 48.9921C52.4176 50.963 53.0059 52.9119 54.1965 54.4872C55.387 56.0625 57.1013 57.1605 59.0301 57.5831C60.9589 58.0057 62.9752 57.7251 64.7154 56.7919C66.4555 55.8587 67.8049 54.3344 68.52 52.4939L71.0134 53.4539C70.2181 55.5078 68.8189 57.2724 67.0003 58.515C65.1817 59.7575 63.0292 60.4196 60.8267 60.4139Z" fill="white"/>
<path d="M82 48.7998H65.4V51.4665H82V48.7998Z" fill="white"/>
<path d="M77.9601 60.427L75.7734 58.907C77.1631 56.9239 78.1465 54.6853 78.6668 52.3203L81.3334 52.8803C80.7191 55.5942 79.5725 58.1592 77.9601 60.427Z" fill="white"/>
<path d="M79.0001 47.2538C78.8627 45.2711 78.4127 43.3226 77.6667 41.4805L80.1334 40.4805C80.9976 42.6045 81.5023 44.8575 81.6268 47.1471L79.0001 47.2538Z" fill="white"/>
</g>
<defs>
<linearGradient id="paint0_linear_2385_5279" x1="-20.72" y1="120.707" x2="120.707" y2="-20.72" gradientUnits="userSpaceOnUse">
<stop stop-color="#1B660F"/>
<stop offset="1" stop-color="#6CAE3E"/>
</linearGradient>
<clipPath id="clip0_2385_5279">
<rect width="100" height="100" fill="white"/>
</clipPath>
</defs>
</svg>
