<svg width="100" height="100" viewBox="0 0 100 100" fill="none" xmlns="http://www.w3.org/2000/svg">
<path d="M47.62 81.04H7.48C6.89262 81.0427 6.31051 80.9293 5.76709 80.7063C5.22367 80.4833 4.72964 80.1552 4.31337 79.7408C3.8971 79.3264 3.56679 78.8339 3.3414 78.2914C3.11601 77.749 2.99999 77.1674 3 76.58V14C3.00529 12.8153 3.47962 11.681 4.31921 10.8451C5.1588 10.0093 6.29529 9.54003 7.48 9.54004H53.16C54.3413 9.5453 55.4726 10.0169 56.3079 10.8522C57.1432 11.6874 57.6147 12.8188 57.62 14V43.44H53.62V14C53.6227 13.938 53.6128 13.876 53.5909 13.8179C53.569 13.7597 53.5355 13.7066 53.4926 13.6618C53.4496 13.6169 53.3979 13.5812 53.3408 13.5569C53.2836 13.5325 53.2221 13.52 53.16 13.52H7.48C7.3527 13.52 7.23061 13.5706 7.14059 13.6606C7.05057 13.7506 7 13.8727 7 14V76.58C6.99994 76.6422 7.01247 76.7037 7.03683 76.7608C7.06118 76.818 7.09687 76.8696 7.14172 76.9126C7.18658 76.9556 7.23968 76.989 7.29782 77.0109C7.35596 77.0328 7.41793 77.0427 7.48 77.04H47.62V81.04Z" fill="#3F8624"/>
<path d="M15.7952 17.6335L12.9668 20.4619L26.0907 33.5858L28.9191 30.7574L15.7952 17.6335Z" fill="#3F8624"/>
<path d="M26.0907 17.6329L12.9668 30.7568L15.7952 33.5853L28.9191 20.4614L26.0907 17.6329Z" fill="#3F8624"/>
<path d="M15.7957 38.2536L12.9673 41.082L26.0912 54.2059L28.9196 51.3775L15.7957 38.2536Z" fill="#3F8624"/>
<path d="M26.0912 38.254L12.9673 51.3779L15.7957 54.2064L28.9196 41.0825L26.0912 38.254Z" fill="#3F8624"/>
<path d="M18.7601 75.4199C18.4873 75.4216 18.217 75.3675 17.966 75.2608C17.7149 75.1542 17.4883 74.9974 17.3001 74.7999L11.0601 68.2399L14.0001 65.4799L18.8201 70.5199L29.8601 58.9199L32.7601 61.6799L20.2001 74.7999C20.0142 74.9949 19.7908 75.1504 19.5433 75.2569C19.2959 75.3634 19.0295 75.4189 18.7601 75.4199Z" fill="#3F8624"/>
<path d="M72.5 90.46C67.6526 90.46 62.9142 89.0221 58.8844 86.3282C54.8545 83.6343 51.7143 79.8056 49.8611 75.3265C48.008 70.8473 47.5251 65.9192 48.4737 61.1655C49.4223 56.4119 51.7597 52.0465 55.1901 48.6217C58.6204 45.1969 62.9897 42.8667 67.7448 41.9259C72.5 40.985 77.4274 41.4759 81.9035 43.3364C86.3796 45.1969 90.2032 48.3434 92.8904 52.3776C95.5777 56.4119 97.0079 61.1526 97 66C96.9788 72.4876 94.3895 78.7029 89.7983 83.2866C85.2071 87.8703 78.9876 90.4494 72.5 90.46ZM72.5 45.46C68.4472 45.46 64.4853 46.6613 61.115 48.9121C57.7446 51.1629 55.1171 54.3622 53.5643 58.1058C52.0115 61.8493 51.6032 65.9691 52.391 69.9446C53.1788 73.9202 55.1272 77.573 57.9902 80.4415C60.8532 83.3101 64.5022 85.2657 68.4762 86.0612C72.4501 86.8567 76.5707 86.4564 80.3173 84.911C84.0639 83.3655 87.2683 80.7442 89.5257 77.3783C91.783 74.0123 92.9921 70.0528 93 66C93.0026 63.3053 92.4744 60.6364 91.4456 58.1458C90.4168 55.6552 88.9076 53.3916 87.004 51.4843C85.1003 49.577 82.8397 48.0633 80.3511 47.0296C77.8625 45.996 75.1947 45.4626 72.5 45.46Z" fill="#3F8624"/>
<path d="M64.3399 77.3004C62.9689 77.3004 61.6113 77.0303 60.3447 76.5057C59.078 75.981 57.9272 75.212 56.9577 74.2426C55.9883 73.2731 55.2193 72.1222 54.6946 70.8556C54.1699 69.589 53.8999 68.2314 53.8999 66.8604C53.8999 65.4894 54.1699 64.1318 54.6946 62.8652C55.2193 61.5985 55.9883 60.4476 56.9577 59.4782C57.9272 58.5087 59.078 57.7397 60.3447 57.2151C61.6113 56.6904 62.9689 56.4204 64.3399 56.4204C66.3017 56.4026 68.2325 56.9108 69.9314 57.8922C71.6302 58.8735 73.0351 60.2921 73.9999 62.0004H74.6399L76.3599 60.5404C76.7222 60.2305 77.1832 60.0602 77.6599 60.0602C78.1366 60.0602 78.5976 60.2305 78.9599 60.5404L80.7199 62.0004L82.4199 60.5404C82.7835 60.2252 83.2487 60.0516 83.7299 60.0516C84.2112 60.0516 84.6763 60.2252 85.0399 60.5404L86.7399 62.0004H88.2799C88.7852 62.0021 89.2711 62.195 89.6399 62.5404L92.5999 65.4004C92.9712 65.7443 93.1983 66.2162 93.2354 66.721C93.2726 67.2258 93.1169 67.7258 92.7999 68.1204L90.5399 70.9404C90.3517 71.1724 90.1138 71.3593 89.8439 71.4874C89.5739 71.6154 89.2787 71.6814 88.9799 71.6804H73.9999C73.0403 73.3961 71.6376 74.8228 69.9384 75.8113C68.2392 76.7999 66.3057 77.3142 64.3399 77.3004ZM64.3399 60.4204C63.4942 60.4204 62.6568 60.587 61.8754 60.9106C61.0941 61.2342 60.3841 61.7086 59.7861 62.3066C59.1881 62.9046 58.7138 63.6146 58.3901 64.3959C58.0665 65.1772 57.8999 66.0147 57.8999 66.8604C57.8999 67.7061 58.0665 68.5435 58.3901 69.3249C58.7138 70.1062 59.1881 70.8161 59.7861 71.4141C60.3841 72.0121 61.0941 72.4865 61.8754 72.8102C62.6568 73.1338 63.4942 73.3004 64.3399 73.3004C65.72 73.3199 67.0733 72.9189 68.22 72.1509C69.3667 71.3828 70.2526 70.284 70.7599 69.0004C70.8997 68.6138 71.1551 68.2797 71.4915 68.0435C71.8279 67.8074 72.2289 67.6805 72.6399 67.6804H87.9999L88.4999 67.0604L87.4399 66.0004H85.9999C85.5232 66.0004 85.0622 65.8302 84.6999 65.5204L83.7199 64.7004L82.7599 65.5204C82.3976 65.8302 81.9366 66.0004 81.4599 66.0004H79.9399C79.4632 66.0004 79.0022 65.8302 78.6399 65.5204L77.6599 64.7004L76.6999 65.5204C76.3376 65.8302 75.8766 66.0004 75.3999 66.0004H72.6399C72.2289 66.0002 71.8279 65.8734 71.4915 65.6372C71.1551 65.401 70.8997 65.0669 70.7599 64.6804C70.2463 63.4043 69.3577 62.314 68.2115 61.5534C67.0652 60.7928 65.7153 60.3978 64.3399 60.4204Z" fill="#3F8624"/>
<path d="M62.3799 69.4802C63.8269 69.4802 64.9999 68.3072 64.9999 66.8602C64.9999 65.4133 63.8269 64.2402 62.3799 64.2402C60.9329 64.2402 59.7599 65.4133 59.7599 66.8602C59.7599 68.3072 60.9329 69.4802 62.3799 69.4802Z" fill="#3F8624"/>
</svg>
