<svg width="100" height="100" viewBox="0 0 100 100" fill="none" xmlns="http://www.w3.org/2000/svg">
<path d="M79.1201 85.3997H20.8801C19.2162 85.3944 17.6219 84.731 16.4453 83.5545C15.2687 82.3779 14.6054 80.7836 14.6001 79.1197V20.8996C14.6054 19.2376 15.2694 17.6453 16.4465 16.4719C17.6237 15.2985 19.218 14.6396 20.8801 14.6396H79.1201C80.7822 14.6396 82.3765 15.2985 83.5537 16.4719C84.7308 17.6453 85.3948 19.2376 85.4001 20.8996V79.1197C85.3948 80.7836 84.7315 82.3779 83.5549 83.5545C82.3783 84.731 80.784 85.3944 79.1201 85.3997ZM20.8801 18.6396C20.5816 18.637 20.2856 18.6935 20.0091 18.8059C19.7326 18.9183 19.4811 19.0844 19.2691 19.2945C19.0571 19.5046 18.8888 19.7546 18.774 20.0301C18.6592 20.3056 18.6001 20.6012 18.6001 20.8996V79.1197C18.6001 79.7243 18.8403 80.3043 19.2679 80.7318C19.6955 81.1594 20.2754 81.3997 20.8801 81.3997H79.1201C79.7248 81.3997 80.3047 81.1594 80.7323 80.7318C81.1599 80.3043 81.4001 79.7243 81.4001 79.1197V20.8996C81.4001 20.6012 81.341 20.3056 81.2262 20.0301C81.1114 19.7546 80.9431 19.5046 80.7311 19.2945C80.5191 19.0844 80.2676 18.9183 79.9911 18.8059C79.7146 18.6935 79.4186 18.637 79.1201 18.6396H20.8801Z" fill="#3F8624"/>
<path d="M30.8999 6.05957H26.8999V16.5996H30.8999V6.05957Z" fill="#3F8624"/>
<path d="M41.46 6.05957H37.46V16.5996H41.46V6.05957Z" fill="#3F8624"/>
<path d="M52 6.05957H48V16.5996H52V6.05957Z" fill="#3F8624"/>
<path d="M62.54 6.05957H58.54V16.5996H62.54V6.05957Z" fill="#3F8624"/>
<path d="M73.1001 6.05957H69.1001V16.5996H73.1001V6.05957Z" fill="#3F8624"/>
<path d="M30.8999 83.4004H26.8999V93.9404H30.8999V83.4004Z" fill="#3F8624"/>
<path d="M41.46 83.4004H37.46V93.9404H41.46V83.4004Z" fill="#3F8624"/>
<path d="M52 83.4004H48V93.9404H52V83.4004Z" fill="#3F8624"/>
<path d="M62.54 83.4004H58.54V93.9404H62.54V83.4004Z" fill="#3F8624"/>
<path d="M73.1001 83.4004H69.1001V93.9404H73.1001V83.4004Z" fill="#3F8624"/>
<path d="M16.6001 26.9004H6.06006V30.9004H16.6001V26.9004Z" fill="#3F8624"/>
<path d="M16.6001 37.46H6.06006V41.46H16.6001V37.46Z" fill="#3F8624"/>
<path d="M16.6001 48H6.06006V52H16.6001V48Z" fill="#3F8624"/>
<path d="M16.6001 58.54H6.06006V62.54H16.6001V58.54Z" fill="#3F8624"/>
<path d="M16.6001 69.0996H6.06006V73.0996H16.6001V69.0996Z" fill="#3F8624"/>
<path d="M93.9399 26.9004H83.3999V30.9004H93.9399V26.9004Z" fill="#3F8624"/>
<path d="M93.9399 37.46H83.3999V41.46H93.9399V37.46Z" fill="#3F8624"/>
<path d="M93.9399 48H83.3999V52H93.9399V48Z" fill="#3F8624"/>
<path d="M93.9399 58.54H83.3999V62.54H93.9399V58.54Z" fill="#3F8624"/>
<path d="M93.9399 69.0996H83.3999V73.0996H93.9399V69.0996Z" fill="#3F8624"/>
<path d="M71.1001 74.8595H62.3001C61.7697 74.8595 61.261 74.6488 60.8859 74.2738C60.5108 73.8987 60.3001 73.39 60.3001 72.8595V57.2795H53.7601V72.8595C53.7601 73.39 53.5494 73.8987 53.1743 74.2738C52.7993 74.6488 52.2905 74.8595 51.7601 74.8595H28.9001C28.3697 74.8595 27.861 74.6488 27.4859 74.2738C27.1108 73.8987 26.9001 73.39 26.9001 72.8595V51.9995H23.6201C23.0897 51.9995 22.581 51.7888 22.2059 51.4138C21.8308 51.0387 21.6201 50.53 21.6201 49.9995V48.3395C21.6205 48.0556 21.6813 47.7749 21.7986 47.5163C21.9158 47.2577 22.0868 47.027 22.3001 46.8395L48.7001 23.8795C49.0624 23.5697 49.5234 23.3994 50.0001 23.3994C50.4768 23.3994 50.9378 23.5697 51.3001 23.8795L77.6801 46.7395C77.8934 46.927 78.0644 47.1577 78.1817 47.4163C78.2989 47.6749 78.3598 47.9556 78.3601 48.2395V49.9995C78.3601 50.53 78.1494 51.0387 77.7743 51.4138C77.3993 51.7888 76.8905 51.9995 76.3601 51.9995H73.1001V72.8595C73.1001 73.39 72.8894 73.8987 72.5143 74.2738C72.1393 74.6488 71.6305 74.8595 71.1001 74.8595ZM64.3001 70.8595H69.1001V49.9995C69.0986 49.7363 69.149 49.4754 69.2486 49.2317C69.3481 48.9881 69.4948 48.7664 69.6801 48.5795C69.8627 48.3885 70.0836 48.2381 70.3283 48.1381C70.5729 48.0382 70.8359 47.991 71.1001 47.9995H73.1001L50.0001 27.9995L27.0801 47.9995H28.9201C29.4505 47.9995 29.9593 48.2103 30.3343 48.5853C30.7094 48.9604 30.9201 49.4691 30.9201 49.9995V70.8595H49.7801V55.2795C49.7801 54.7491 49.9908 54.2404 50.3659 53.8653C50.741 53.4903 51.2497 53.2795 51.7801 53.2795H62.3201C62.8505 53.2795 63.3593 53.4903 63.7343 53.8653C64.1094 54.2404 64.3201 54.7491 64.3201 55.2795L64.3001 70.8595Z" fill="#3F8624"/>
<path d="M42.96 64.3003H36C35.4696 64.3003 34.9609 64.0896 34.5858 63.7145C34.2107 63.3394 34 62.8307 34 62.3003V55.2803C34 54.7498 34.2107 54.2411 34.5858 53.8661C34.9609 53.491 35.4696 53.2803 36 53.2803H43.02C43.5504 53.2803 44.0591 53.491 44.4342 53.8661C44.8093 54.2411 45.02 54.7498 45.02 55.2803V62.3003C45.0201 62.568 44.9665 62.8331 44.8622 63.0798C44.758 63.3264 44.6053 63.5496 44.4132 63.7361C44.221 63.9227 43.9934 64.0687 43.7438 64.1656C43.4942 64.2625 43.2276 64.3083 42.96 64.3003ZM37.94 60.3003H40.96V57.2803H38L37.94 60.3003Z" fill="#3F8624"/>
</svg>
