<svg width="100" height="100" viewBox="0 0 100 100" fill="none" xmlns="http://www.w3.org/2000/svg">
<path d="M50 50.4605C37.82 50.4605 25.54 47.6805 25.54 41.4805H29.54C29.54 42.8405 35.82 46.4605 50 46.4605C64.18 46.4605 70.48 42.8405 70.48 41.4805H74.48C74.46 47.6805 62.16 50.4605 50 50.4605Z" fill="#3F8624"/>
<path d="M38.64 13.8198C40.6613 13.8198 42.3 13.0228 42.3 12.0398C42.3 11.0567 40.6613 10.2598 38.64 10.2598C36.6186 10.2598 34.98 11.0567 34.98 12.0398C34.98 13.0228 36.6186 13.8198 38.64 13.8198Z" fill="#3F8624"/>
<path d="M50 58.9199C37.82 58.9199 25.54 56.1399 25.54 49.9199H29.54C29.54 51.2999 35.82 54.9199 50 54.9199C64.18 54.9199 70.46 51.2999 70.46 49.9999H74.46C74.46 56.1399 62.16 58.9199 50 58.9199Z" fill="#3F8624"/>
<path d="M50.0001 21.9995C37.9001 21.9995 25.7001 19.2195 25.7001 13.0195H29.7001C29.6201 14.4195 35.8601 17.9995 50.0001 17.9995C64.1401 17.9995 70.2201 14.4195 70.2201 13.0595H74.2201C74.2201 19.2595 62.0001 21.9995 50.0001 21.9995Z" fill="#3F8624"/>
<path d="M50 96.9396C36.5 96.9396 28.68 92.5596 25.88 88.4596C25.6576 88.1285 25.5392 87.7385 25.54 87.3396V13.5396C25.54 12.4396 26.36 3.05957 49.86 3.05957C51.54 3.05957 66.26 3.05957 72.02 8.87957C72.7716 9.58497 73.3706 10.437 73.7799 11.383C74.1893 12.3289 74.4003 13.3488 74.4001 14.3796L74.5 87.3396C74.4978 87.8643 74.2895 88.3671 73.92 88.7396C70.96 92.7596 63.22 96.9396 50 96.9396ZM29.52 86.6796C32 89.6596 38.6 92.9396 50 92.9396C61.4 92.9396 68 89.6396 70.48 86.6396L70.38 14.3796C70.3783 13.8738 70.2707 13.374 70.064 12.9124C69.8573 12.4508 69.5562 12.0377 69.18 11.6996C65.3 7.83957 54 6.97957 49.84 7.05957C30.38 7.05957 29.52 13.5796 29.52 13.6596V86.6796Z" fill="#3F8624"/>
</svg>
