<svg width="100" height="100" viewBox="0 0 100 100" fill="none" xmlns="http://www.w3.org/2000/svg">
<path d="M65.1199 50.4399H61.1199V38.8799H38.8799V50.4399H34.8799V36.8799C34.8799 36.3494 35.0906 35.8407 35.4657 35.4657C35.8407 35.0906 36.3494 34.8799 36.8799 34.8799H63.1199C63.3825 34.8799 63.6426 34.9316 63.8853 35.0321C64.1279 35.1326 64.3484 35.28 64.5341 35.4657C64.7198 35.6514 64.8671 35.8719 64.9676 36.1145C65.0682 36.3572 65.1199 36.6172 65.1199 36.8799V50.4399Z" fill="#3F8624"/>
<path d="M51.5599 54.1396H48.4399V58.1396H51.5599V54.1396Z" fill="#3F8624"/>
<path d="M50.0001 50.1203C49.5234 50.1204 49.0624 49.9502 48.7001 49.6403L35.5801 38.4004L38.1801 35.3604L50.0001 45.5003L61.8201 35.3604L64.4201 38.4004L51.3001 49.6403C50.9378 49.9502 50.4768 50.1204 50.0001 50.1203Z" fill="#3F8624"/>
<path d="M50 97C38.2 97 25.5 94.28 25.5 88.3V49.86C25.5027 49.4746 25.5565 49.0913 25.66 48.72C26.28 46.58 28.5 44.88 32.48 43.54L33.76 47.32C30.66 48.38 29.62 49.42 29.5 49.84V88.3C29.5 89.66 36.68 93 50 93C63.32 93 70.5 89.66 70.5 88.3V49.86C70.38 49.42 69.34 48.38 66.24 47.32L67.52 43.54C71.52 44.88 73.72 46.58 74.34 48.74C74.4461 49.1039 74.5 49.481 74.5 49.86V88.3C74.5 94.28 61.8 97 50 97Z" fill="#3F8624"/>
<path d="M50 58.1597C38.2 58.1597 25.5 55.3597 25.5 49.2197H29.5C29.5 50.6597 36.68 54.1597 50 54.1597C63.32 54.1597 70.5 50.6597 70.5 49.2197H74.5C74.5 55.3597 61.8 58.1597 50 58.1597Z" fill="#3F8624"/>
<path d="M36.8799 20.12H23.7599C23.2295 20.12 22.7207 19.9093 22.3457 19.5342C21.9706 19.1591 21.7599 18.6504 21.7599 18.12V5C21.7599 4.46957 21.9706 3.96086 22.3457 3.58579C22.7207 3.21071 23.2295 3 23.7599 3H36.8799C37.4103 3 37.919 3.21071 38.2941 3.58579C38.6692 3.96086 38.8799 4.46957 38.8799 5V18.12C38.8799 18.6504 38.6692 19.1591 38.2941 19.5342C37.919 19.9093 37.4103 20.12 36.8799 20.12ZM25.7599 16.12H34.8799V7H25.7599V16.12Z" fill="#3F8624"/>
<path d="M68.7601 22C66.8803 22.0039 65.0417 21.4501 63.4768 20.4087C61.9119 19.3672 60.6911 17.8849 59.969 16.1494C59.2469 14.4138 59.0559 12.503 59.4202 10.6589C59.7845 8.81478 60.6877 7.12017 62.0155 5.78957C63.3433 4.45897 65.036 3.5522 66.8794 3.18401C68.7228 2.81583 70.6339 3.00279 72.371 3.72123C74.108 4.43967 75.5929 5.6573 76.6377 7.21999C77.6824 8.78269 78.2401 10.6202 78.2401 12.5C78.2349 15.0145 77.235 17.4247 75.4589 19.2046C73.6828 20.9845 71.2746 21.9894 68.7601 22ZM68.7601 6.99998C67.6715 6.99602 66.6062 7.31523 65.6991 7.91716C64.792 8.5191 64.0839 9.37669 63.6645 10.3813C63.2452 11.386 63.1334 12.4925 63.3434 13.5607C63.5533 14.6289 64.0756 15.6108 64.8439 16.3819C65.6123 17.1531 66.5923 17.6789 67.6597 17.8928C68.7272 18.1066 69.8341 17.9989 70.8402 17.5832C71.8464 17.1675 72.7066 16.4626 73.3118 15.5577C73.917 14.6528 74.2401 13.5886 74.2401 12.5C74.2349 11.0464 73.6565 9.65347 72.6305 8.62373C71.6045 7.59398 70.2137 7.01051 68.7601 6.99998Z" fill="#3F8624"/>
<path d="M51.9999 33.1204H47.9999V27.4804L35.8199 19.8204L37.9999 16.4404L51.1199 24.6804C51.4082 24.8606 51.6457 25.1112 51.8102 25.4086C51.9747 25.7061 52.0606 26.0405 52.0599 26.3804L51.9999 33.1204Z" fill="#3F8624"/>
<path d="M52 33.1204H48V26.3804C47.9993 26.0405 48.0853 25.7061 48.2497 25.4086C48.4142 25.1112 48.6518 24.8606 48.94 24.6804L62 16.4404L64.12 19.8204L52 27.4804V33.1204Z" fill="#3F8624"/>
</svg>
