<svg width="100" height="100" viewBox="0 0 100 100" fill="none" xmlns="http://www.w3.org/2000/svg">
<path d="M81.2799 87.5598H18.5799C16.9196 87.5598 15.3274 86.9003 14.1534 85.7263C12.9794 84.5524 12.3199 82.9601 12.3199 81.2999V18.6198C12.3199 16.9577 12.9788 15.3634 14.1522 14.1863C15.3256 13.0091 16.9178 12.3451 18.5799 12.3398H81.2799C82.9438 12.3451 84.5381 13.0085 85.7147 14.185C86.8913 15.3616 87.5546 16.9559 87.5599 18.6198V81.2999C87.5546 82.9619 86.8906 84.5541 85.7135 85.7276C84.5363 86.901 82.942 87.5599 81.2799 87.5598ZM18.5799 16.3398C17.9787 16.3451 17.4039 16.5877 16.9806 17.0147C16.5573 17.4417 16.3199 18.0186 16.3199 18.6198V81.2999C16.3251 81.8976 16.5649 82.4694 16.9876 82.8921C17.4103 83.3148 17.9821 83.5546 18.5799 83.5598H81.2799C81.8811 83.5599 82.458 83.3224 82.885 82.8991C83.3121 82.4759 83.5546 81.9011 83.5599 81.2999V18.6198C83.5599 18.0152 83.3197 17.4352 82.8921 17.0076C82.4645 16.5801 81.8846 16.3398 81.2799 16.3398H18.5799Z" fill="#3F8624"/>
<path d="M29.4399 3.05957H25.4399V14.3196H29.4399V3.05957Z" fill="#3F8624"/>
<path d="M40.6801 3.05957H36.6801V14.3196H40.6801V3.05957Z" fill="#3F8624"/>
<path d="M51.9399 3.05957H47.9399V14.3196H51.9399V3.05957Z" fill="#3F8624"/>
<path d="M63.1801 3.05957H59.1801V14.3196H63.1801V3.05957Z" fill="#3F8624"/>
<path d="M74.4399 3.05957H70.4399V14.3196H74.4399V3.05957Z" fill="#3F8624"/>
<path d="M29.4399 85.5596H25.4399V96.8196H29.4399V85.5596Z" fill="#3F8624"/>
<path d="M40.6801 85.5596H36.6801V96.8196H40.6801V85.5596Z" fill="#3F8624"/>
<path d="M51.9399 85.5596H47.9399V96.8196H51.9399V85.5596Z" fill="#3F8624"/>
<path d="M63.1801 85.5596H59.1801V96.8196H63.1801V85.5596Z" fill="#3F8624"/>
<path d="M74.4399 85.5596H70.4399V96.8196H74.4399V85.5596Z" fill="#3F8624"/>
<path d="M14.3201 25.4404H3.06006V29.4404H14.3201V25.4404Z" fill="#3F8624"/>
<path d="M14.3201 36.6797H3.06006V40.6797H14.3201V36.6797Z" fill="#3F8624"/>
<path d="M14.3201 47.9404H3.06006V51.9404H14.3201V47.9404Z" fill="#3F8624"/>
<path d="M14.3201 59.1797H3.06006V63.1797H14.3201V59.1797Z" fill="#3F8624"/>
<path d="M14.3201 70.4404H3.06006V74.4404H14.3201V70.4404Z" fill="#3F8624"/>
<path d="M96.8201 25.4404H85.5601V29.4404H96.8201V25.4404Z" fill="#3F8624"/>
<path d="M96.8201 36.6797H85.5601V40.6797H96.8201V36.6797Z" fill="#3F8624"/>
<path d="M96.8201 47.9404H85.5601V51.9404H96.8201V47.9404Z" fill="#3F8624"/>
<path d="M96.8201 59.1797H85.5601V63.1797H96.8201V59.1797Z" fill="#3F8624"/>
<path d="M96.8201 70.4404H85.5601V74.4404H96.8201V70.4404Z" fill="#3F8624"/>
<path d="M50.0001 76.82L48.7201 76C45.8353 73.9085 42.5448 72.4438 39.0601 71.7C31.0601 70.28 26.3801 65.86 26.3801 59.86C26.4546 57.0411 27.3285 54.3014 28.9001 51.96C29.8732 50.6258 30.455 49.0466 30.5801 47.4C30.4511 45.0979 29.4156 42.9406 27.7001 41.4L26.1601 40L27.4201 38.46C27.4201 38.46 32.6801 32.08 33.8601 30.46L35.3001 28.46L36.9401 30.22C37.662 31.0836 38.5519 31.7913 39.5559 32.3002C40.5599 32.809 41.6568 33.1084 42.7801 33.18C43.9022 33.1732 45.0035 32.8769 45.9775 32.3198C46.9515 31.7627 47.7653 30.9637 48.3401 30L49.9401 28L51.5201 30C52.0947 30.9714 52.9101 31.7781 53.8876 32.3422C54.8651 32.9063 55.9716 33.2086 57.1001 33.22C58.2204 33.148 59.3143 32.8484 60.315 32.3395C61.3157 31.8306 62.2021 31.123 62.9201 30.26L64.5801 28.5L66.0001 30.5C67.1801 32.12 72.4001 38.5 72.4601 38.5L73.7401 40.06L72.1601 41.32C70.4538 42.8653 69.4261 45.0214 69.3001 47.32C69.4265 48.9631 70.0006 50.5402 70.9601 51.88C72.5469 54.2153 73.4286 56.9576 73.5001 59.78C73.5001 65.78 68.7601 70.2 60.8001 71.62C57.3161 72.3906 54.0322 73.8826 51.1601 76L50.0001 76.82ZM31.6401 39.58C33.4924 41.7305 34.5327 44.4621 34.5801 47.3C34.4689 49.6576 33.6999 51.9369 32.3601 53.88C31.1414 55.6067 30.447 57.6484 30.3601 59.76C30.3601 65.38 36.9201 67.16 39.7601 67.66C43.4137 68.3929 46.891 69.8259 50.0001 71.88C53.0851 69.8353 56.5343 68.4027 60.1601 67.66C62.9801 67.16 69.5601 65.38 69.5601 59.76C69.4812 57.6469 68.786 55.603 67.5601 53.88C66.235 51.931 65.4737 49.654 65.3601 47.3C65.4075 44.4621 66.4478 41.7305 68.3001 39.58C67.1801 38.22 65.4601 36.14 64.3001 34.56C62.3171 36.2067 59.8369 37.1368 57.2601 37.2C55.9082 37.2302 54.5647 36.9791 53.315 36.4627C52.0652 35.9462 50.9364 35.1757 50.0001 34.2C49.0725 35.1595 47.9593 35.9202 46.7284 36.4359C45.4976 36.9517 44.1746 37.2116 42.8401 37.2C40.2633 37.1368 37.7831 36.2067 35.8001 34.56C34.4801 36.14 32.7601 38.22 31.6401 39.58Z" fill="#3F8624"/>
</svg>
