<svg width="100" height="100" viewBox="0 0 100 100" fill="none" xmlns="http://www.w3.org/2000/svg">
<path d="M53.6401 56.8798H65.3001V45.1998H61.3001V49.6798C58.336 47.1289 54.7017 45.4827 50.8293 44.9371C46.9569 44.3914 43.0093 44.9692 39.4557 46.6017C35.9021 48.2342 32.892 50.8528 30.7832 54.1461C28.6745 57.4395 27.5558 61.2692 27.5601 65.1798H31.5601C31.5614 62.0136 32.477 58.9152 34.1969 56.2568C35.9167 53.5985 38.3676 51.4933 41.255 50.1942C44.1425 48.8952 47.3436 48.4576 50.4737 48.934C53.6039 49.4104 56.5299 50.7806 58.9001 52.8798H53.6401V56.8798Z" fill="#3F8624"/>
<path d="M48.0001 81.6397C43.9826 81.6396 40.1046 80.1667 37.1001 77.4997H42.3601V73.4997H30.7001V85.1597H34.7001V80.6997C37.6655 83.2517 41.3016 84.8982 45.1758 85.4431C49.05 85.9881 52.9992 85.4086 56.5536 83.7737C60.1079 82.1387 63.1178 79.5171 65.225 76.2207C67.3323 72.9244 68.4482 69.092 68.4401 65.1797H64.4401C64.4401 69.5417 62.7086 73.7253 59.6261 76.8116C56.5436 79.8979 52.3621 81.6344 48.0001 81.6397Z" fill="#3F8624"/>
<path d="M82.28 36.5598C81.48 30.4598 78.28 26.0398 73.34 24.5598C71.6352 24.0646 69.8361 23.9878 68.0953 24.3359C66.3544 24.6841 64.7233 25.447 63.34 26.5598C61.9653 23.533 60.0699 20.7711 57.74 18.3998C54.2385 14.7491 49.7013 12.2604 44.7408 11.2697C39.7803 10.2791 34.6352 10.834 30 12.8598C25.6668 14.9263 21.9903 18.1523 19.378 22.1801C16.7657 26.208 15.3197 30.8805 15.2 35.6798C15.2 36.1398 15.2 36.5998 15.2 37.0598C11.5199 38.1688 8.31789 40.4799 6.10618 43.6234C3.89446 46.7669 2.80078 50.5613 3.00004 54.3998C3.00004 54.8998 3.00004 55.3798 3.00004 55.8598C3.37471 60.5119 5.50137 64.8484 8.95028 67.9929C12.3992 71.1374 16.9132 72.8554 21.58 72.7998H23.58V68.7998H21.58C17.9278 68.8629 14.3884 67.5337 11.6805 65.0821C8.97266 62.6305 7.29924 59.2403 7.00004 55.5998C7.00004 55.2198 7.00004 54.8198 7.00004 54.3998C6.80352 51.1669 7.77931 47.9716 9.74839 45.4C11.7175 42.8285 14.5478 41.0532 17.72 40.3998C18.2038 40.294 18.6311 40.0125 18.9193 39.6098C19.2075 39.2071 19.336 38.7118 19.28 38.2198C19.1769 37.3569 19.1235 36.4888 19.12 35.6198C19.2313 31.6114 20.4359 27.7097 22.6038 24.3364C24.7716 20.963 27.8202 18.2462 31.42 16.4798C35.3369 14.7343 39.6989 14.247 43.9044 15.0852C48.1099 15.9235 51.9517 18.0459 54.9 21.1598C57.5392 23.8758 59.5349 27.1496 60.74 30.7398C60.8607 31.0834 61.0728 31.3875 61.3535 31.6193C61.6343 31.8512 61.973 32.002 62.3332 32.0555C62.6934 32.109 63.0613 32.0632 63.3973 31.923C63.7334 31.7827 64.0247 31.5534 64.24 31.2598C65.1083 30.0079 66.3465 29.059 67.7811 28.5461C69.2157 28.0332 70.7749 27.9821 72.24 28.3998C75.72 29.4198 78.02 32.9598 78.42 37.8998C78.3375 38.4104 78.4559 38.9331 78.7505 39.3582C79.0451 39.7833 79.493 40.0778 80 40.1798C83.9 40.8598 92.96 43.5998 92.96 54.5398C92.96 67.5798 80.3 68.8198 79.94 68.8598H74.44V72.8598H80.14C86 72.3798 97 67.9998 97 54.5398C97 43.8598 89.66 38.3398 82.28 36.5598Z" fill="#3F8624"/>
</svg>
