<svg width="100" height="100" viewBox="0 0 100 100" fill="none" xmlns="http://www.w3.org/2000/svg">
<path d="M76.6001 57.5597H63.0601V53.5597H76.4401C76.7401 53.5597 87.7201 52.4397 87.7201 41.2797C87.7201 31.8997 79.8601 29.5197 76.4601 28.9397C75.9653 28.8515 75.5219 28.5803 75.218 28.1801C74.9141 27.7799 74.7721 27.2799 74.8201 26.7797C74.4801 22.5797 72.5201 19.5597 69.5601 18.6797C68.3175 18.3298 66.9971 18.3726 65.7798 18.8022C64.5625 19.2318 63.5077 20.0273 62.7601 21.0797L59.5601 18.6797C60.7922 16.972 62.5217 15.6866 64.5121 14.9992C66.5026 14.3119 68.6567 14.2562 70.6801 14.8397C75.0001 16.1197 77.9201 19.9797 78.6801 25.3197C83.0801 26.4197 91.7201 30.0397 91.7201 41.3197C91.7883 45.4563 90.2517 49.4585 87.4325 52.4865C84.6134 55.5144 80.731 57.3327 76.6001 57.5597Z" fill="#3F8624"/>
<path d="M36.8 57.5203H24.8C20.6368 57.5798 16.6064 56.0555 13.5245 53.2558C10.4426 50.4561 8.53938 46.5902 8.20002 42.4403C8.20002 42.0003 8.20002 41.5803 8.20002 41.1403C8.06837 37.7504 9.05398 34.4111 11.0053 31.6359C12.9566 28.8607 15.7655 26.8034 19 25.7803C19 25.4203 19 25.0803 19 24.7403C19.0978 20.48 20.3834 16.3316 22.7121 12.7626C25.0408 9.19359 28.3199 6.34588 32.18 4.54034C36.3239 2.73264 40.9209 2.23322 45.3563 3.10887C49.7917 3.98451 53.854 6.19347 57 9.44034C59.7089 12.2008 61.7599 15.537 63 19.2003C63.0291 19.4261 63.0291 19.6546 63 19.8803H61L59.14 20.5403C58.1337 17.4514 56.4453 14.6284 54.2 12.2803C51.5943 9.59624 48.2293 7.77419 44.5573 7.05912C40.8854 6.34404 37.0826 6.77021 33.66 8.28034C30.533 9.78991 27.88 12.1284 25.9898 15.0412C24.0996 17.954 23.0448 21.3296 22.94 24.8003C22.9417 25.5552 22.9817 26.3095 23.06 27.0603C23.1142 27.5382 22.9944 28.0195 22.7226 28.4162C22.4508 28.8129 22.0452 29.0984 21.58 29.2203C18.8283 29.7515 16.3606 31.2576 14.6301 33.462C12.8996 35.6664 12.0226 38.4212 12.16 41.2203C12.16 41.5803 12.16 41.9403 12.16 42.2803C12.4433 45.4184 13.9086 48.3315 16.2593 50.4296C18.6099 52.5277 21.6701 53.654 24.82 53.5803H36.82L36.8 57.5203Z" fill="#3F8624"/>
<path d="M50.0001 66.94C49.7369 66.9415 49.4759 66.8911 49.2323 66.7915C48.9886 66.692 48.767 66.5454 48.5801 66.36L41.0801 58.86L43.8601 56L49.8601 62L55.8601 56L58.7001 58.84L51.2001 66.34C50.8811 66.6722 50.4572 66.8841 50.0001 66.94Z" fill="#3F8624"/>
<path d="M51.9399 42.4404H47.9399V64.0404H51.9399V42.4404Z" fill="#3F8624"/>
<path d="M49.9999 45.3797C48.3012 45.3837 46.6396 44.8833 45.2256 43.9421C43.8115 43.0008 42.7087 41.661 42.0568 40.0924C41.405 38.5238 41.2334 36.797 41.5638 35.1308C41.8942 33.4645 42.7118 31.9339 43.9129 30.7328C45.1141 29.5316 46.6447 28.714 48.3109 28.3836C49.9771 28.0532 51.704 28.2248 53.2726 28.8767C54.8412 29.5285 56.181 30.6314 57.1222 32.0454C58.0635 33.4594 58.5638 35.121 58.5599 36.8197C58.5599 39.09 57.658 41.2672 56.0527 42.8725C54.4474 44.4779 52.2701 45.3797 49.9999 45.3797ZM49.9999 32.2397C49.0932 32.2358 48.2057 32.501 47.4499 33.0018C46.6941 33.5027 46.104 34.2166 45.7543 35.0531C45.4046 35.8896 45.311 36.8112 45.4855 37.7009C45.6599 38.5906 46.0945 39.4086 46.7343 40.0511C47.374 40.6936 48.19 41.1318 49.079 41.3102C49.968 41.4885 50.8899 41.399 51.7279 41.053C52.566 40.7069 53.2825 40.1199 53.7866 39.3663C54.2907 38.6127 54.5599 37.7264 54.5599 36.8197C54.5599 35.6085 54.0801 34.4466 53.2255 33.5882C52.3709 32.7299 51.2111 32.245 49.9999 32.2397Z" fill="#3F8624"/>
<path d="M91.1801 97.0802H8.68005C8.14962 97.0802 7.64091 96.8695 7.26584 96.4944C6.89077 96.1193 6.68005 95.6106 6.68005 95.0802V70.7002C6.68005 70.1698 6.89077 69.6611 7.26584 69.286C7.64091 68.9109 8.14962 68.7002 8.68005 68.7002H91.1801C91.7105 68.7002 92.2192 68.9109 92.5943 69.286C92.9693 69.6611 93.1801 70.1698 93.1801 70.7002V95.0802C93.1801 95.6106 92.9693 96.1193 92.5943 96.4944C92.2192 96.8695 91.7105 97.0802 91.1801 97.0802ZM10.6801 93.0802H89.1801V72.7002H10.6801V93.0802Z" fill="#3F8624"/>
<path d="M22.7601 90.0002C21.3509 89.9844 19.9778 89.553 18.8126 88.7603C17.6475 87.9675 16.7423 86.8485 16.2103 85.5435C15.6783 84.2385 15.5433 82.8055 15.8221 81.4241C16.1009 80.0427 16.7812 78.7743 17.7777 77.7778C18.7742 76.7813 20.0426 76.101 21.424 75.8222C22.8054 75.5434 24.2384 75.6784 25.5433 76.2104C26.8483 76.7424 27.9673 77.6476 28.7601 78.8128C29.5529 79.9779 29.9843 81.351 30.0001 82.7602C30.0136 83.7147 29.8355 84.6622 29.4764 85.5467C29.1173 86.4312 28.5845 87.2347 27.9095 87.9097C27.2345 88.5847 26.4311 89.1175 25.5466 89.4765C24.6621 89.8356 23.7146 90.0137 22.7601 90.0002ZM22.7601 79.7002C22.1346 79.7164 21.5279 79.9179 21.017 80.2792C20.5062 80.6405 20.114 81.1453 19.8904 81.7297C19.6667 82.3141 19.6216 82.9517 19.7607 83.5618C19.8999 84.1719 20.217 84.7269 20.6719 85.1565C21.1268 85.5862 21.6991 85.8711 22.3161 85.9752C22.9331 86.0792 23.5671 85.9978 24.1378 85.7411C24.7084 85.4845 25.1901 85.0642 25.5216 84.5335C25.8532 84.0028 26.0197 83.3856 26.0001 82.7602C26.003 82.3376 25.9206 81.9188 25.7578 81.5288C25.5949 81.1389 25.3551 80.7858 25.0526 80.4907C24.75 80.1957 24.3911 79.9647 23.9971 79.8117C23.6032 79.6587 23.1825 79.5867 22.7601 79.6002V79.7002Z" fill="#3F8624"/>
<path d="M57.44 89.44H42.44C42.0707 89.4389 41.7089 89.3355 41.3947 89.1413C41.0805 88.9472 40.8262 88.6698 40.66 88.34C40.4887 88.0097 40.4129 87.6382 40.4412 87.2672C40.4695 86.8962 40.6007 86.5405 40.82 86.24L48.32 76C48.5059 75.7478 48.7484 75.5427 49.0281 75.4014C49.3078 75.2601 49.6167 75.1865 49.93 75.1865C50.2433 75.1865 50.5523 75.2601 50.8319 75.4014C51.1116 75.5427 51.3541 75.7478 51.54 76L59.04 86.16C59.2626 86.4586 59.3973 86.8133 59.4291 87.1843C59.4609 87.5554 59.3885 87.9279 59.22 88.26C59.0651 88.6048 58.8157 88.8986 58.5007 89.1074C58.1857 89.3163 57.8179 89.4316 57.44 89.44ZM46.4 85.44H53.48L50 80.64L46.4 85.44Z" fill="#3F8624"/>
<path d="M81.8199 89.5802H72.4399C71.9095 89.5802 71.4008 89.3695 71.0257 88.9944C70.6507 88.6193 70.4399 88.1106 70.4399 87.5802V78.2002C70.4399 77.6698 70.6507 77.1611 71.0257 76.786C71.4008 76.4109 71.9095 76.2002 72.4399 76.2002H81.8199C82.3504 76.2002 82.8591 76.4109 83.2342 76.786C83.6092 77.1611 83.8199 77.6698 83.8199 78.2002V87.5802C83.8199 88.1106 83.6092 88.6193 83.2342 88.9944C82.8591 89.3695 82.3504 89.5802 81.8199 89.5802ZM74.4399 85.5802H79.8199V80.2002H74.4399V85.5802Z" fill="#3F8624"/>
</svg>
