<svg width="100" height="100" viewBox="0 0 100 100" fill="none" xmlns="http://www.w3.org/2000/svg">
<path d="M79.12 85.3997H20.88C19.2161 85.3944 17.6218 84.731 16.4452 83.5545C15.2686 82.3779 14.6053 80.7836 14.6 79.1197V20.8996C14.6053 19.2376 15.2693 17.6453 16.4465 16.4719C17.6236 15.2985 19.2179 14.6396 20.88 14.6396H79.12C80.7821 14.6396 82.3765 15.2985 83.5536 16.4719C84.7308 17.6453 85.3947 19.2376 85.4 20.8996V79.1197C85.3948 80.7836 84.7314 82.3779 83.5548 83.5545C82.3783 84.731 80.784 85.3944 79.12 85.3997ZM20.88 18.6396C20.5816 18.637 20.2855 18.6935 20.009 18.8059C19.7325 18.9183 19.481 19.0844 19.269 19.2945C19.057 19.5046 18.8888 19.7546 18.774 20.0301C18.6591 20.3056 18.6 20.6012 18.6 20.8996V79.1197C18.6 79.7243 18.8403 80.3043 19.2678 80.7318C19.6954 81.1594 20.2753 81.3997 20.88 81.3997H79.12C79.7247 81.3997 80.3047 81.1594 80.7322 80.7318C81.1598 80.3043 81.4 79.7243 81.4 79.1197V20.8996C81.4001 20.6012 81.3409 20.3056 81.2261 20.0301C81.1113 19.7546 80.943 19.5046 80.731 19.2945C80.5191 19.0844 80.2676 18.9183 79.991 18.8059C79.7145 18.6935 79.4185 18.637 79.12 18.6396H20.88Z" fill="#3F8624"/>
<path d="M30.9 6.05957H26.9V16.5996H30.9V6.05957Z" fill="#3F8624"/>
<path d="M41.46 6.05957H37.46V16.5996H41.46V6.05957Z" fill="#3F8624"/>
<path d="M52 6.05957H48V16.5996H52V6.05957Z" fill="#3F8624"/>
<path d="M62.54 6.05957H58.54V16.5996H62.54V6.05957Z" fill="#3F8624"/>
<path d="M73.1 6.05957H69.1V16.5996H73.1V6.05957Z" fill="#3F8624"/>
<path d="M30.9 83.4004H26.9V93.9404H30.9V83.4004Z" fill="#3F8624"/>
<path d="M41.46 83.4004H37.46V93.9404H41.46V83.4004Z" fill="#3F8624"/>
<path d="M52 83.4004H48V93.9404H52V83.4004Z" fill="#3F8624"/>
<path d="M62.54 83.4004H58.54V93.9404H62.54V83.4004Z" fill="#3F8624"/>
<path d="M73.1 83.4004H69.1V93.9404H73.1V83.4004Z" fill="#3F8624"/>
<path d="M16.6001 26.9004H6.06006V30.9004H16.6001V26.9004Z" fill="#3F8624"/>
<path d="M16.6001 37.46H6.06006V41.46H16.6001V37.46Z" fill="#3F8624"/>
<path d="M16.6001 48H6.06006V52H16.6001V48Z" fill="#3F8624"/>
<path d="M16.6001 58.54H6.06006V62.54H16.6001V58.54Z" fill="#3F8624"/>
<path d="M16.6001 69.0996H6.06006V73.0996H16.6001V69.0996Z" fill="#3F8624"/>
<path d="M93.94 26.9004H83.4V30.9004H93.94V26.9004Z" fill="#3F8624"/>
<path d="M93.94 37.46H83.4V41.46H93.94V37.46Z" fill="#3F8624"/>
<path d="M93.94 48H83.4V52H93.94V48Z" fill="#3F8624"/>
<path d="M93.94 58.54H83.4V62.54H93.94V58.54Z" fill="#3F8624"/>
<path d="M93.94 69.0996H83.4V73.0996H93.94V69.0996Z" fill="#3F8624"/>
<path d="M65.1399 60.7798H39.5799C38.9055 60.7962 38.2437 60.595 37.6926 60.206C37.1415 59.817 36.7303 59.2608 36.5199 58.6198L29.9999 37.8598C29.8609 37.4194 29.8282 36.9523 29.9047 36.4969C29.9812 36.0414 30.1646 35.6106 30.4399 35.2398C30.7504 34.8439 31.1488 34.5257 31.6035 34.3105C32.0583 34.0952 32.5569 33.9889 33.0599 33.9998H71.6599C72.168 33.9959 72.6698 34.1115 73.125 34.3373C73.5801 34.5632 73.9757 34.8928 74.2799 35.2998C74.5552 35.6706 74.7387 36.1014 74.8152 36.5569C74.8916 37.0123 74.859 37.4794 74.7199 37.9198L68.1999 58.6198C67.9868 59.259 67.5749 59.8134 67.0244 60.202C66.4739 60.5906 65.8136 60.7931 65.1399 60.7798ZM40.1399 56.7798H64.5799L70.5799 37.9398H34.2199L40.1399 56.7798Z" fill="#3F8624"/>
<path d="M30.48 36.4397L29.04 30.7797L23.04 29.0797L24.14 25.2197L30.14 26.9197C30.7753 27.0203 31.368 27.3022 31.847 27.7315C32.326 28.1608 32.6708 28.7192 32.84 29.3397L34.4 35.3397L30.48 36.4397Z" fill="#3F8624"/>
<path d="M40.34 75.7404C39.0733 75.7444 37.834 75.3724 36.7789 74.6715C35.7238 73.9707 34.9004 72.9726 34.4129 71.8035C33.9254 70.6344 33.7958 69.3469 34.0405 68.1041C34.2852 66.8613 34.8932 65.7191 35.7874 64.822C36.6817 63.925 37.822 63.3134 39.064 63.0649C40.3061 62.8163 41.5939 62.9419 42.7645 63.4257C43.9351 63.9095 44.9359 64.7298 45.64 65.7827C46.3441 66.8356 46.72 68.0737 46.72 69.3404C46.72 71.0343 46.0485 72.6592 44.8525 73.8588C43.6566 75.0585 42.0339 75.7351 40.34 75.7404ZM40.34 66.9404C39.8645 66.9364 39.3985 67.0738 39.0012 67.3351C38.6039 67.5964 38.2932 67.9698 38.1085 68.408C37.9237 68.8462 37.8734 69.3294 37.9637 69.7962C38.054 70.2631 38.281 70.6926 38.6158 71.0303C38.9507 71.3679 39.3783 71.5985 39.8444 71.6927C40.3105 71.7869 40.794 71.7406 41.2337 71.5596C41.6735 71.3785 42.0495 71.0709 42.3141 70.6758C42.5787 70.2807 42.72 69.8159 42.72 69.3404C42.72 68.7073 42.4699 68.0999 42.0241 67.6504C41.5784 67.2009 40.973 66.9457 40.34 66.9404Z" fill="#3F8624"/>
<path d="M60.6601 67.3398H44.7201V71.3398H60.6601V67.3398Z" fill="#3F8624"/>
<path d="M64.94 75.7404C63.6742 75.7404 62.4369 75.3651 61.3844 74.6618C60.3319 73.9586 59.5116 72.9591 59.0272 71.7896C58.5428 70.6202 58.4161 69.3333 58.663 68.0919C58.91 66.8504 59.5195 65.71 60.4146 64.8149C61.3096 63.9199 62.45 63.3104 63.6915 63.0634C64.9329 62.8165 66.2198 62.9432 67.3892 63.4276C68.5587 63.912 69.5582 64.7323 70.2614 65.7848C70.9647 66.8373 71.34 68.0746 71.34 69.3404C71.3348 71.0362 70.6588 72.661 69.4597 73.8601C68.2606 75.0592 66.6358 75.7352 64.94 75.7404ZM64.94 66.9404C64.4654 66.9404 64.0013 67.0812 63.6067 67.3449C63.212 67.6086 62.9044 67.9835 62.7227 68.422C62.5411 68.8605 62.4936 69.3431 62.5862 69.8087C62.6788 70.2742 62.9073 70.7018 63.243 71.0375C63.5786 71.3731 64.0063 71.6017 64.4718 71.6943C64.9374 71.7869 65.4199 71.7394 65.8585 71.5577C66.297 71.3761 66.6718 71.0685 66.9356 70.6738C67.1993 70.2791 67.34 69.8151 67.34 69.3404C67.34 69.0253 67.278 68.7132 67.1573 68.422C67.0367 68.1308 66.86 67.8662 66.6371 67.6434C66.4142 67.4205 66.1497 67.2437 65.8585 67.1231C65.5673 67.0025 65.2552 66.9404 64.94 66.9404Z" fill="#3F8624"/>
<path d="M42.9675 57.7583L39.8705 64.125L43.4676 65.8747L46.5646 59.508L42.9675 57.7583Z" fill="#3F8624"/>
</svg>
