<svg width="100" height="100" viewBox="0 0 100 100" fill="none" xmlns="http://www.w3.org/2000/svg">
<path d="M81.2799 87.68H18.5799C17.7578 87.68 16.9438 87.518 16.1843 87.2034C15.4248 86.8888 14.7347 86.4277 14.1534 85.8465C13.5721 85.2652 13.111 84.5751 12.7964 83.8156C12.4818 83.0561 12.3199 82.242 12.3199 81.42V18.74C12.3199 17.0779 12.9788 15.4835 14.1522 14.3064C15.3256 13.1292 16.9178 12.4653 18.5799 12.46H81.2799C82.9438 12.4652 84.5381 13.1286 85.7147 14.3052C86.8913 15.4817 87.5546 17.076 87.5599 18.74V81.42C87.5546 83.0821 86.8906 84.6743 85.7135 85.8477C84.5363 87.0211 82.942 87.68 81.2799 87.68ZM18.5799 16.46C17.9787 16.4652 17.4039 16.7078 16.9806 17.1348C16.5573 17.5618 16.3199 18.1387 16.3199 18.74V81.42C16.3251 82.0177 16.5649 82.5895 16.9876 83.0123C17.4103 83.435 17.9821 83.6747 18.5799 83.68H81.2799C81.8811 83.68 82.458 83.4425 82.885 83.0192C83.3121 82.596 83.5546 82.0212 83.5599 81.42V18.74C83.5599 18.1353 83.3197 17.5553 82.8921 17.1278C82.4645 16.7002 81.8846 16.46 81.2799 16.46H18.5799Z" fill="#3F8624"/>
<path d="M29.4399 3.17969H25.4399V14.4397H29.4399V3.17969Z" fill="#3F8624"/>
<path d="M40.6801 3.17969H36.6801V14.4397H40.6801V3.17969Z" fill="#3F8624"/>
<path d="M51.9399 3.17969H47.9399V14.4397H51.9399V3.17969Z" fill="#3F8624"/>
<path d="M63.1801 3.17969H59.1801V14.4397H63.1801V3.17969Z" fill="#3F8624"/>
<path d="M74.4399 3.17969H70.4399V14.4397H74.4399V3.17969Z" fill="#3F8624"/>
<path d="M29.4399 85.6797H25.4399V96.9397H29.4399V85.6797Z" fill="#3F8624"/>
<path d="M40.6801 85.6797H36.6801V96.9397H40.6801V85.6797Z" fill="#3F8624"/>
<path d="M51.9399 85.6797H47.9399V96.9397H51.9399V85.6797Z" fill="#3F8624"/>
<path d="M63.1801 85.6797H59.1801V96.9397H63.1801V85.6797Z" fill="#3F8624"/>
<path d="M74.4399 85.6797H70.4399V96.9397H74.4399V85.6797Z" fill="#3F8624"/>
<path d="M14.3201 25.5596H3.06006V29.5596H14.3201V25.5596Z" fill="#3F8624"/>
<path d="M14.3201 36.8203H3.06006V40.8203H14.3201V36.8203Z" fill="#3F8624"/>
<path d="M14.3201 48.0596H3.06006V52.0596H14.3201V48.0596Z" fill="#3F8624"/>
<path d="M14.3201 59.3203H3.06006V63.3203H14.3201V59.3203Z" fill="#3F8624"/>
<path d="M14.3201 70.5596H3.06006V74.5596H14.3201V70.5596Z" fill="#3F8624"/>
<path d="M96.8201 25.5596H85.5601V29.5596H96.8201V25.5596Z" fill="#3F8624"/>
<path d="M96.8201 36.8203H85.5601V40.8203H96.8201V36.8203Z" fill="#3F8624"/>
<path d="M96.8201 48.0596H85.5601V52.0596H96.8201V48.0596Z" fill="#3F8624"/>
<path d="M96.8201 59.3203H85.5601V63.3203H96.8201V59.3203Z" fill="#3F8624"/>
<path d="M96.8201 70.5596H85.5601V74.5596H96.8201V70.5596Z" fill="#3F8624"/>
<path d="M55.6801 55.7002H51.6801V80.0602H55.6801V55.7002Z" fill="#3F8624"/>
<path d="M49.0001 44.3203H23.6801V48.3203H49.0001V44.3203Z" fill="#3F8624"/>
<path d="M57.3328 49.0104L54.5044 51.8389L71.2911 68.6256L74.1195 65.7972L57.3328 49.0104Z" fill="#3F8624"/>
<path d="M65.0362 19.1914L54.006 41.2471L57.5835 43.0362L68.6137 20.9806L65.0362 19.1914Z" fill="#3F8624"/>
<path d="M53.6801 52.9995C52.385 53.0002 51.1176 52.6243 50.0322 51.9176C48.9468 51.2109 48.0903 50.204 47.5668 49.0194C47.0434 47.8347 46.8756 46.5234 47.0839 45.2452C47.2922 43.9669 47.8676 42.7767 48.7401 41.8195C49.3274 41.1683 50.0383 40.6402 50.8314 40.266C51.6245 39.8917 52.484 39.6788 53.3601 39.6395C55.1308 39.5547 56.8632 40.1729 58.1801 41.3595C58.832 41.9506 59.3603 42.665 59.7345 43.4614C60.1086 44.2578 60.3213 45.1205 60.3601 45.9995C60.4099 46.8771 60.2833 47.7558 59.9879 48.5836C59.6925 49.4115 59.2342 50.1717 58.6401 50.8195C57.441 52.129 55.7736 52.9124 54.0001 52.9995H53.6801ZM53.6801 43.6195H53.5401C52.8293 43.6601 52.1622 43.9757 51.6801 44.4995C51.4336 44.7678 51.2444 45.0835 51.1241 45.4274C51.0037 45.7713 50.9547 46.1361 50.9801 46.4995C50.9948 46.8527 51.0803 47.1993 51.2314 47.5188C51.3826 47.8383 51.5964 48.1242 51.8601 48.3595C52.4115 48.8422 53.1281 49.093 53.8601 49.0595C54.2133 49.0448 54.5599 48.9594 54.8794 48.8082C55.1989 48.6571 55.4848 48.4433 55.7201 48.1795C55.9628 47.9087 56.1496 47.5926 56.2697 47.2494C56.3898 46.9062 56.4409 46.5426 56.4201 46.1795C56.3844 45.4914 56.087 44.843 55.5887 44.3671C55.0905 43.8912 54.4291 43.6237 53.7401 43.6195H53.6801Z" fill="#3F8624"/>
</svg>
