<svg width="100" height="100" viewBox="0 0 100 100" fill="none" xmlns="http://www.w3.org/2000/svg">
<path d="M81.3599 87.6204H18.6399C16.9796 87.6204 15.3874 86.9609 14.2134 85.7869C13.0394 84.6129 12.3799 83.0206 12.3799 81.3604V18.6804C12.3799 17.0183 13.0388 15.424 14.2122 14.2468C15.3856 13.0697 16.9778 12.4057 18.6399 12.4004H81.3599C83.022 12.4057 84.6142 13.0697 85.7876 14.2468C86.961 15.424 87.6199 17.0183 87.6199 18.6804V81.3604C87.6199 83.0206 86.9604 84.6129 85.7864 85.7869C84.6124 86.9609 83.0201 87.6204 81.3599 87.6204ZM18.6399 16.4004C18.0387 16.4057 17.4639 16.6482 17.0406 17.0752C16.6173 17.5022 16.3799 18.0791 16.3799 18.6804V81.3604C16.3851 81.9582 16.6249 82.53 17.0476 82.9527C17.4703 83.3754 18.0421 83.6152 18.6399 83.6204H81.3599C81.9577 83.6152 82.5295 83.3754 82.9522 82.9527C83.3749 82.53 83.6147 81.9582 83.6199 81.3604V18.6804C83.6199 18.0791 83.3824 17.5022 82.9592 17.0752C82.5359 16.6482 81.9611 16.4057 81.3599 16.4004H18.6399Z" fill="#3F8624"/>
<path d="M29.5 3.12012H25.5V14.3801H29.5V3.12012Z" fill="#3F8624"/>
<path d="M40.7599 3.12012H36.7599V14.3801H40.7599V3.12012Z" fill="#3F8624"/>
<path d="M52 3.12012H48V14.3801H52V3.12012Z" fill="#3F8624"/>
<path d="M63.2599 3.12012H59.2599V14.3801H63.2599V3.12012Z" fill="#3F8624"/>
<path d="M74.5 3.12012H70.5V14.3801H74.5V3.12012Z" fill="#3F8624"/>
<path d="M29.5 85.6201H25.5V96.8801H29.5V85.6201Z" fill="#3F8624"/>
<path d="M40.7599 85.6201H36.7599V96.8801H40.7599V85.6201Z" fill="#3F8624"/>
<path d="M52 85.6201H48V96.8801H52V85.6201Z" fill="#3F8624"/>
<path d="M63.2599 85.6201H59.2599V96.8801H63.2599V85.6201Z" fill="#3F8624"/>
<path d="M74.5 85.6201H70.5V96.8801H74.5V85.6201Z" fill="#3F8624"/>
<path d="M14.3601 25.5H3.12012V29.5H14.3601V25.5Z" fill="#3F8624"/>
<path d="M14.3601 36.7598H3.12012V40.7598H14.3601V36.7598Z" fill="#3F8624"/>
<path d="M14.3601 48H3.12012V52H14.3601V48Z" fill="#3F8624"/>
<path d="M14.3601 59.2598H3.12012V63.2598H14.3601V59.2598Z" fill="#3F8624"/>
<path d="M14.3601 70.5H3.12012V74.5H14.3601V70.5Z" fill="#3F8624"/>
<path d="M96.8601 25.5H85.6201V29.5H96.8601V25.5Z" fill="#3F8624"/>
<path d="M96.8601 36.7598H85.6201V40.7598H96.8601V36.7598Z" fill="#3F8624"/>
<path d="M96.8601 48H85.6201V52H96.8601V48Z" fill="#3F8624"/>
<path d="M96.8601 59.2598H85.6201V63.2598H96.8601V59.2598Z" fill="#3F8624"/>
<path d="M96.8601 70.5H85.6201V74.5H96.8601V70.5Z" fill="#3F8624"/>
<path d="M74.2399 76.3797H25.7599C25.2295 76.3797 24.7208 76.169 24.3457 75.794C23.9706 75.4189 23.7599 74.9102 23.7599 74.3797V68.9597C23.7599 68.4293 23.9706 67.9206 24.3457 67.5455C24.7208 67.1705 25.2295 66.9597 25.7599 66.9597H27.3799V42.6197H23.7599C23.2295 42.6197 22.7208 42.409 22.3457 42.034C21.9706 41.6589 21.7599 41.1502 21.7599 40.6197V34.6197C21.7574 34.2029 21.8852 33.7957 22.1255 33.455C22.3657 33.1144 22.7064 32.8573 23.0999 32.7197L49.3399 23.6997C49.7655 23.5402 50.2344 23.5402 50.6599 23.6997L76.8999 32.7197C77.2934 32.8573 77.6341 33.1144 77.8744 33.455C78.1146 33.7957 78.2424 34.2029 78.2399 34.6197V40.6197C78.2399 41.1502 78.0292 41.6589 77.6541 42.034C77.2791 42.409 76.7704 42.6197 76.2399 42.6197H72.6199V66.9597H74.2399C74.7704 66.9597 75.2791 67.1705 75.6541 67.5455C76.0292 67.9206 76.2399 68.4293 76.2399 68.9597V74.3797C76.2399 74.6424 76.1882 74.9025 76.0877 75.1451C75.9872 75.3878 75.8399 75.6082 75.6541 75.794C75.4684 75.9797 75.2479 76.127 75.0053 76.2275C74.7626 76.328 74.5026 76.3797 74.2399 76.3797ZM27.7599 72.3797H72.2399V70.9597H70.6199C70.0895 70.9597 69.5808 70.749 69.2057 70.374C68.8306 69.9989 68.6199 69.4902 68.6199 68.9597V40.6197C68.6199 40.0893 68.8306 39.5806 69.2057 39.2055C69.5808 38.8305 70.0895 38.6197 70.6199 38.6197H74.2399V35.9997L49.9999 27.7397L25.7599 35.9997V38.5397H29.3799C29.9104 38.5397 30.4191 38.7505 30.7941 39.1255C31.1692 39.5006 31.3799 40.0093 31.3799 40.5397V68.9597C31.3799 69.4902 31.1692 69.9989 30.7941 70.374C30.4191 70.749 29.9104 70.9597 29.3799 70.9597H27.7599V72.3797Z" fill="#3F8624"/>
<path d="M48.7601 67.4202V63.5402C46.591 63.3965 44.4931 62.7087 42.6601 61.5402V58.0002C44.2001 58.7002 45.4001 59.2002 46.3001 59.5002C47.0951 59.7796 47.9212 59.961 48.7601 60.0402V54.0002L47.4801 53.5202C46.0085 53.0502 44.6711 52.234 43.5801 51.1402C42.7681 50.1894 42.3402 48.9699 42.3801 47.7202C42.3455 46.8891 42.4841 46.0599 42.7871 45.2852C43.09 44.5106 43.5508 43.8073 44.1401 43.2202C45.3777 42.0021 47.0249 41.289 48.7601 41.2202V37.2402H51.1201V41.1202C52.8118 41.3107 54.446 41.8486 55.9201 42.7002V46.2602C54.4265 45.437 52.8031 44.8756 51.1201 44.6002V50.7202L52.2201 51.1402C53.7775 51.6092 55.2026 52.4382 56.3801 53.5602C57.2121 54.4938 57.6557 55.7102 57.6201 56.9602C57.641 57.7795 57.4938 58.5943 57.1877 59.3545C56.8815 60.1147 56.4229 60.8041 55.8401 61.3802C54.5547 62.6047 52.8892 63.3528 51.1201 63.5002V67.5002L48.7601 67.4202ZM46.3601 47.4202C46.3404 47.9927 46.5408 48.551 46.9201 48.9802C47.4323 49.5078 48.0632 49.9055 48.7601 50.1402V44.5802C48.079 44.641 47.448 44.9636 47.0001 45.4802C46.5688 46.0024 46.3414 46.6632 46.3601 47.3402V47.4202ZM53.5601 57.4202C53.5849 56.8409 53.3842 56.2746 53.0001 55.8402C52.4627 55.3388 51.8205 54.9631 51.1201 54.7402V60.0002C51.7981 59.9182 52.4198 59.5824 52.8601 59.0602C53.3141 58.5713 53.5645 57.9275 53.5601 57.2602V57.4202Z" fill="#3F8624"/>
</svg>
