<svg width="100" height="100" viewBox="0 0 100 100" fill="none" xmlns="http://www.w3.org/2000/svg">
<path d="M95 83.8801H5C4.46957 83.8801 3.96086 83.6694 3.58579 83.2943C3.21071 82.9193 3 82.4105 3 81.8801V18.1201C3 17.5897 3.21071 17.081 3.58579 16.7059C3.96086 16.3308 4.46957 16.1201 5 16.1201H95C95.5304 16.1201 96.0391 16.3308 96.4142 16.7059C96.7893 17.081 97 17.5897 97 18.1201V81.8801C97 82.4105 96.7893 82.9193 96.4142 83.2943C96.0391 83.6694 95.5304 83.8801 95 83.8801ZM7 79.8801H93V20.1201H7V79.8801Z" fill="#3F8624"/>
<path d="M24.6801 57.6199C23.1738 57.6159 21.7026 57.1656 20.4521 56.3259C19.2016 55.4863 18.2281 54.2948 17.6544 52.9021C17.0807 51.5094 16.9327 49.9779 17.2289 48.501C17.5252 47.0242 18.2525 45.6684 19.319 44.6047C20.3855 43.541 21.7432 42.8172 23.2208 42.5248C24.6984 42.2324 26.2295 42.3845 27.6207 42.9618C29.0119 43.5392 30.2008 44.5158 31.0373 45.7685C31.8737 47.0212 32.3201 48.4936 32.3201 49.9999C32.3148 52.0226 31.5075 53.9608 30.0753 55.3892C28.6431 56.8177 26.7029 57.6199 24.6801 57.6199ZM24.6801 46.3799C23.965 46.3838 23.2671 46.5995 22.6744 46.9996C22.0817 47.3998 21.6209 47.9665 21.3499 48.6283C21.079 49.2902 21.0102 50.0174 21.1521 50.7183C21.294 51.4192 21.6404 52.0623 22.1474 52.5666C22.6545 53.0708 23.2995 53.4136 24.0012 53.5517C24.7028 53.6898 25.4297 53.6169 26.09 53.3423C26.7503 53.0678 27.3145 52.6038 27.7114 52.0089C28.1083 51.4141 28.3201 50.715 28.3201 49.9999C28.3201 49.5228 28.2258 49.0504 28.0426 48.6099C27.8595 48.1694 27.591 47.7694 27.2527 47.433C26.9145 47.0966 26.5131 46.8304 26.0715 46.6497C25.63 46.4689 25.1571 46.3772 24.6801 46.3799Z" fill="#3F8624"/>
<path d="M57.4999 57.6205H42.4999C42.1381 57.6195 41.7833 57.5204 41.4734 57.3338C41.1634 57.1471 40.9099 56.8799 40.7399 56.5605C40.5793 56.2477 40.504 55.8982 40.5215 55.5471C40.5391 55.196 40.6489 54.8557 40.8399 54.5605L48.3399 43.3005C48.5228 43.0282 48.7699 42.8052 49.0594 42.6509C49.3489 42.4967 49.6719 42.416 49.9999 42.416C50.3279 42.416 50.6509 42.4967 50.9403 42.6509C51.2298 42.8052 51.4769 43.0282 51.6599 43.3005L59.1599 54.5605C59.3509 54.8557 59.4607 55.196 59.4782 55.5471C59.4958 55.8982 59.4205 56.2477 59.2599 56.5605C59.0898 56.8799 58.8363 57.1471 58.5264 57.3338C58.2165 57.5204 57.8617 57.6195 57.4999 57.6205ZM46.2399 53.6205H53.7599L49.9999 48.0005L46.2399 53.6205Z" fill="#3F8624"/>
<path d="M73.4001 36.8601C73.0886 36.8645 72.7805 36.796 72.5001 36.6601C72.2516 36.5329 72.0324 36.3551 71.8567 36.1381C71.6811 35.9211 71.5528 35.6697 71.4801 35.4001L70.9801 33.5801C70.4142 33.6203 69.8461 33.6203 69.2801 33.5801L68.6801 35.3601C68.5905 35.6247 68.4465 35.8675 68.2573 36.073C68.0682 36.2785 67.838 36.4421 67.5818 36.5533C67.3256 36.6645 67.0489 36.7207 66.7696 36.7185C66.4903 36.7162 66.2145 36.6554 65.9601 36.5401L59.9601 33.8001C59.7066 33.6861 59.4796 33.5205 59.2937 33.3139C59.1077 33.1073 58.9669 32.8642 58.8801 32.6001C58.7917 32.334 58.7603 32.0522 58.7878 31.7731C58.8154 31.494 58.9014 31.2238 59.0401 30.9801L59.9801 29.3601C59.5801 28.9601 59.2001 28.5601 58.8201 28.1201L57.1401 28.9401C56.885 29.0531 56.6091 29.1115 56.3301 29.1115C56.0511 29.1115 55.7752 29.0531 55.5201 28.9401C55.2651 28.8373 55.034 28.683 54.8413 28.4868C54.6486 28.2907 54.4984 28.0569 54.4001 27.8001L52.0001 21.6001C51.9055 21.3409 51.8656 21.065 51.8828 20.7897C51.9 20.5143 51.974 20.2455 52.1001 20.0001C52.2273 19.7516 52.4051 19.5324 52.6221 19.3567C52.8392 19.1811 53.0905 19.0528 53.3601 18.9801L55.1801 18.4801V18.1201C55.1801 17.5897 55.3908 17.081 55.7659 16.7059C56.141 16.3308 56.6497 16.1201 57.1801 16.1201H84.0001C84.5306 16.1201 85.0393 16.3308 85.4143 16.7059C85.7894 17.081 86.0001 17.5897 86.0001 18.1201C86.0001 18.5801 86.0001 19.0201 86.0001 19.4601L87.7801 20.0801C88.0447 20.1697 88.2875 20.3137 88.493 20.5029C88.6985 20.6921 88.8622 20.9222 88.9733 21.1784C89.0845 21.4347 89.1407 21.7114 89.1385 21.9907C89.1362 22.27 89.0754 22.5457 88.9601 22.8001L86.2201 28.8001C86.1061 29.0536 85.9406 29.2806 85.7339 29.4666C85.5273 29.6525 85.2842 29.7934 85.0201 29.8801C84.7526 29.9655 84.4701 29.9937 84.191 29.9626C83.9118 29.9316 83.6424 29.8422 83.4001 29.7001L81.8001 28.7601C81.4001 29.1801 80.9801 29.5601 80.5401 29.9401L81.3601 31.6401C81.4792 31.89 81.541 32.1633 81.541 32.4401C81.541 32.7169 81.4792 32.9902 81.3601 33.2401C81.2596 33.4988 81.1063 33.7338 80.9101 33.9301C80.7138 34.1263 80.4788 34.2796 80.2201 34.3801L74.0201 36.7001C73.8234 36.7864 73.614 36.8404 73.4001 36.8601ZM72.4601 29.4601C72.909 29.4435 73.3504 29.5785 73.7132 29.8434C74.0761 30.1082 74.3391 30.4875 74.4601 30.9201L74.8001 32.2201L76.9001 31.4401L76.3001 30.2201C76.0912 29.7815 76.049 29.2819 76.1815 28.8144C76.314 28.347 76.6121 27.9438 77.0201 27.6801C78.0992 26.9616 79.0521 26.0695 79.8401 25.0401C80.1345 24.656 80.5581 24.3916 81.0325 24.2959C81.507 24.2003 82 24.28 82.4201 24.5201L83.5801 25.1801L84.5001 23.1801L83.2201 22.7401C82.7572 22.5841 82.3673 22.2641 82.1241 21.8403C81.8809 21.4166 81.8013 20.9186 81.9001 20.4401V20.1401H59.3001C59.2698 20.5511 59.1133 20.9426 58.8519 21.2612C58.5906 21.5799 58.2372 21.81 57.8401 21.9201L56.5401 22.2601L57.3201 24.3601L58.5201 23.7801C58.9542 23.5674 59.4506 23.519 59.9176 23.644C60.3845 23.769 60.7904 24.0589 61.0601 24.4601C61.7805 25.5441 62.68 26.4977 63.7201 27.2801C64.1043 27.5745 64.3687 27.9981 64.4643 28.4725C64.5599 28.9469 64.4803 29.4399 64.2401 29.8601L63.5801 31.0201L65.5801 31.9401L66.0201 30.6801C66.1761 30.2172 66.4962 29.8273 66.9199 29.5841C67.3436 29.3409 67.8417 29.2613 68.3201 29.3601C69.5814 29.6364 70.8821 29.6838 72.1601 29.5001L72.4601 29.4601Z" fill="#3F8624"/>
<path d="M42.84 83.8797H16C15.4695 83.8797 14.9608 83.669 14.5858 83.294C14.2107 82.9189 14 82.4102 14 81.8797C14 81.4397 14 80.9997 14 80.5397L12.18 79.9997C11.9172 79.908 11.6764 79.7625 11.4731 79.5724C11.2698 79.3824 11.1084 79.152 10.9992 78.896C10.89 78.64 10.8355 78.364 10.839 78.0857C10.8426 77.8074 10.9042 77.5329 11.02 77.2797L13.76 71.2797C13.8762 71.0299 14.0428 70.8068 14.2493 70.6244C14.4558 70.442 14.6977 70.3042 14.96 70.2197C15.2232 70.1342 15.5014 70.1043 15.7768 70.1319C16.0522 70.1594 16.3189 70.2438 16.56 70.3797L18.2 71.3197C18.6 70.9197 19 70.5397 19.44 70.1597L18.62 68.4797C18.507 68.2247 18.4486 67.9487 18.4486 67.6697C18.4486 67.3907 18.507 67.1148 18.62 66.8597C18.7205 66.601 18.8738 66.3661 19.07 66.1698C19.2663 65.9735 19.5013 65.8203 19.76 65.7197L26 63.2597C26.2523 63.1496 26.5247 63.0928 26.8 63.0928C27.0753 63.0928 27.3476 63.1496 27.6 63.2597C27.8485 63.3869 28.0677 63.5648 28.2434 63.7818C28.419 63.9988 28.5473 64.2502 28.62 64.5197L29.12 66.3397H30.82L31.42 64.5597C31.631 64.0855 32.0181 63.7118 32.4996 63.5177C32.981 63.3237 33.519 63.3244 34 63.5197L40 66.2597C40.2535 66.3737 40.4805 66.5393 40.6664 66.7459C40.8524 66.9525 40.9932 67.1957 41.08 67.4597C41.1684 67.7259 41.1998 68.0077 41.1723 68.2868C41.1447 68.5659 41.0587 68.836 40.92 69.0797L39.98 70.6997C40.38 71.0997 40.76 71.4997 41.14 71.9397L42.82 71.1197C43.0751 71.0068 43.351 70.9484 43.63 70.9484C43.909 70.9484 44.1849 71.0068 44.44 71.1197C44.695 71.2226 44.9261 71.3769 45.1188 71.573C45.3115 71.7692 45.4617 72.0029 45.56 72.2597L48 78.3997C48.1101 78.6521 48.1669 78.9244 48.1669 79.1997C48.1669 79.4751 48.1101 79.7474 48 79.9997C47.8728 80.2483 47.695 80.4675 47.478 80.6431C47.2609 80.8188 47.0096 80.9471 46.74 81.0197L44.94 81.5197V81.8797C44.9403 82.151 44.8855 82.4195 44.7788 82.6689C44.6721 82.9183 44.5157 83.1434 44.3193 83.3305C44.1228 83.5176 43.8904 83.6628 43.6361 83.7572C43.3818 83.8516 43.1109 83.8933 42.84 83.8797ZM18.1 79.8797H40.72C40.7503 79.4688 40.9069 79.0772 41.1682 78.7586C41.4295 78.44 41.7829 78.2099 42.18 78.0997L43.48 77.7597L42.68 75.6597L41.48 76.2397C41.0459 76.4525 40.5495 76.5008 40.0825 76.3758C39.6156 76.2508 39.2097 75.9609 38.94 75.5597C38.2196 74.4757 37.3201 73.5222 36.28 72.7397C35.8958 72.4454 35.6314 72.0217 35.5358 71.5473C35.4402 71.0729 35.5198 70.5799 35.76 70.1597L36.42 68.9997L34.42 68.0797L33.98 69.3397C33.8243 69.7986 33.5074 70.1854 33.088 70.4282C32.6687 70.671 32.1754 70.7533 31.7 70.6597C30.4361 70.4016 29.1375 70.361 27.86 70.5397C27.3723 70.6157 26.8737 70.5086 26.4601 70.2391C26.0466 69.9696 25.7474 69.5566 25.62 69.0797L25.26 67.7797L23.26 68.5597L23.84 69.7797C24.0565 70.2182 24.1048 70.7209 23.9758 71.1926C23.8468 71.6643 23.5495 72.0724 23.14 72.3397C22.062 73.0517 21.1092 73.937 20.32 74.9597C20.0285 75.3472 19.6061 75.6156 19.1315 75.7149C18.6569 75.8142 18.1624 75.7378 17.74 75.4997L16.56 74.8197L15.64 76.8197L16.92 77.2597C17.3748 77.415 17.7586 77.7288 18.001 78.1438C18.2434 78.5589 18.3282 79.0473 18.24 79.5197L18.1 79.8797Z" fill="#3F8624"/>
</svg>
