<svg width="100" height="100" viewBox="0 0 100 100" fill="none" xmlns="http://www.w3.org/2000/svg">
<path d="M68.8801 25.5201H64.8801V7.08008H35.1201V25.5201H31.1201V5.08008C31.1201 4.54965 31.3308 4.04094 31.7059 3.66586C32.081 3.29079 32.5897 3.08008 33.1201 3.08008H66.8801C67.4105 3.08008 67.9193 3.29079 68.2943 3.66586C68.6694 4.04094 68.8801 4.54965 68.8801 5.08008V25.5201Z" fill="#3F8624"/>
<path d="M52.3201 30.1602H47.7001V34.1602H52.3201V30.1602Z" fill="#3F8624"/>
<path d="M49.9999 22.8801C49.4946 22.8784 49.0087 22.6854 48.6399 22.3401L31.7599 6.54012L34.4999 3.62012L49.9999 18.1401L65.4999 3.62012L68.2399 6.54012L51.3599 22.3401C50.991 22.6854 50.5052 22.8784 49.9999 22.8801Z" fill="#3F8624"/>
<path d="M50 96.92C34.48 96.92 18 92.48 18 84.28V23.38C17.9994 22.9075 18.0599 22.437 18.18 21.98C18.88 19.04 21.76 16.52 26.76 14.5L28.24 18.2C24.68 19.64 22.44 21.36 22.06 22.94C22.0405 23.086 22.0405 23.234 22.06 23.38V84.28C22.06 87.88 32.72 92.92 50.06 92.92C67.4 92.92 78.06 87.88 78.06 84.28V23.38C78.0795 23.234 78.0795 23.086 78.06 22.94C77.68 21.36 75.44 19.64 71.88 18.2L73.36 14.5C78.36 16.5 81.24 19.04 81.96 22C82.0649 22.4526 82.1185 22.9155 82.12 23.38V84.28C82 92.48 65.52 96.92 50 96.92Z" fill="#3F8624"/>
<path d="M50 34.2C34.1 34.2 18 30 18 22H22C22 25.36 32.9 30.24 50 30.24C67.1 30.24 78 25.32 78 22H82C82 30 66 34.2 50 34.2Z" fill="#3F8624"/>
</svg>
