<svg width="100" height="100" viewBox="0 0 100 100" fill="none" xmlns="http://www.w3.org/2000/svg">
<path d="M79.1201 85.3997H20.8801C19.2162 85.3944 17.6219 84.731 16.4453 83.5545C15.2687 82.3779 14.6054 80.7836 14.6001 79.1197V20.8996C14.6054 19.2376 15.2694 17.6453 16.4465 16.4719C17.6237 15.2985 19.218 14.6396 20.8801 14.6396H79.1201C80.7822 14.6396 82.3765 15.2985 83.5537 16.4719C84.7308 17.6453 85.3948 19.2376 85.4001 20.8996V79.1197C85.3948 80.7836 84.7315 82.3779 83.5549 83.5545C82.3783 84.731 80.784 85.3944 79.1201 85.3997ZM20.8801 18.6396C20.5816 18.637 20.2856 18.6935 20.0091 18.8059C19.7326 18.9183 19.4811 19.0844 19.2691 19.2945C19.0571 19.5046 18.8888 19.7546 18.774 20.0301C18.6592 20.3056 18.6001 20.6012 18.6001 20.8996V79.1197C18.6001 79.7243 18.8403 80.3043 19.2679 80.7318C19.6955 81.1594 20.2754 81.3997 20.8801 81.3997H79.1201C79.7248 81.3997 80.3047 81.1594 80.7323 80.7318C81.1599 80.3043 81.4001 79.7243 81.4001 79.1197V20.8996C81.4001 20.6012 81.341 20.3056 81.2262 20.0301C81.1114 19.7546 80.9431 19.5046 80.7311 19.2945C80.5191 19.0844 80.2676 18.9183 79.9911 18.8059C79.7146 18.6935 79.4186 18.637 79.1201 18.6396H20.8801Z" fill="#3F8624"/>
<path d="M30.8999 6.05957H26.8999V16.5996H30.8999V6.05957Z" fill="#3F8624"/>
<path d="M41.46 6.05957H37.46V16.5996H41.46V6.05957Z" fill="#3F8624"/>
<path d="M52 6.05957H48V16.5996H52V6.05957Z" fill="#3F8624"/>
<path d="M62.54 6.05957H58.54V16.5996H62.54V6.05957Z" fill="#3F8624"/>
<path d="M73.1001 6.05957H69.1001V16.5996H73.1001V6.05957Z" fill="#3F8624"/>
<path d="M30.8999 83.4004H26.8999V93.9404H30.8999V83.4004Z" fill="#3F8624"/>
<path d="M41.46 83.4004H37.46V93.9404H41.46V83.4004Z" fill="#3F8624"/>
<path d="M52 83.4004H48V93.9404H52V83.4004Z" fill="#3F8624"/>
<path d="M62.54 83.4004H58.54V93.9404H62.54V83.4004Z" fill="#3F8624"/>
<path d="M73.1001 83.4004H69.1001V93.9404H73.1001V83.4004Z" fill="#3F8624"/>
<path d="M16.6001 26.9004H6.06006V30.9004H16.6001V26.9004Z" fill="#3F8624"/>
<path d="M16.6001 37.46H6.06006V41.46H16.6001V37.46Z" fill="#3F8624"/>
<path d="M16.6001 48H6.06006V52H16.6001V48Z" fill="#3F8624"/>
<path d="M16.6001 58.54H6.06006V62.54H16.6001V58.54Z" fill="#3F8624"/>
<path d="M16.6001 69.0996H6.06006V73.0996H16.6001V69.0996Z" fill="#3F8624"/>
<path d="M93.9399 26.9004H83.3999V30.9004H93.9399V26.9004Z" fill="#3F8624"/>
<path d="M93.9399 37.46H83.3999V41.46H93.9399V37.46Z" fill="#3F8624"/>
<path d="M93.9399 48H83.3999V52H93.9399V48Z" fill="#3F8624"/>
<path d="M93.9399 58.54H83.3999V62.54H93.9399V58.54Z" fill="#3F8624"/>
<path d="M93.9399 69.0996H83.3999V73.0996H93.9399V69.0996Z" fill="#3F8624"/>
<path d="M34.1801 73.1005C31.6951 73.1044 29.2648 72.3711 27.1967 70.9934C25.1286 69.6157 23.5156 67.6555 22.5619 65.3608C21.6082 63.0662 21.3566 60.5401 21.839 58.1024C22.3214 55.6647 23.516 53.4248 25.2718 51.6663C27.0275 49.9077 29.2655 48.7095 31.7024 48.2233C34.1394 47.737 36.6658 47.9846 38.962 48.9346C41.2582 49.8847 43.221 51.4945 44.602 53.5604C45.983 55.6263 46.7201 58.0555 46.7201 60.5405C46.7201 63.8681 45.3996 67.0598 43.0484 69.4147C40.6973 71.7695 37.5078 73.0952 34.1801 73.1005ZM34.1801 52.0005C32.4854 51.9965 30.8277 52.4957 29.4169 53.4347C28.0062 54.3738 26.9059 55.7105 26.2555 57.2754C25.6052 58.8404 25.434 60.5632 25.7636 62.2255C26.0933 63.8878 26.909 65.4149 28.1073 66.6133C29.3056 67.8116 30.8327 68.6273 32.4951 68.9569C34.1574 69.2866 35.8802 69.1154 37.4451 68.465C39.0101 67.8147 40.3468 66.7144 41.2858 65.3036C42.2249 63.8929 42.7241 62.2352 42.7201 60.5405C42.7201 58.2755 41.8204 56.1033 40.2188 54.5018C38.6172 52.9002 36.4451 52.0005 34.1801 52.0005Z" fill="#3F8624"/>
<path d="M65.8201 73.1005C63.3351 73.1044 60.9048 72.3711 58.8367 70.9934C56.7686 69.6157 55.1556 67.6555 54.2019 65.3608C53.2482 63.0662 52.9967 60.5401 53.479 58.1024C53.9614 55.6647 55.156 53.4248 56.9118 51.6663C58.6675 49.9077 60.9055 48.7095 63.3424 48.2233C65.7794 47.737 68.3058 47.9846 70.602 48.9346C72.8982 49.8847 74.861 51.4945 76.242 53.5604C77.623 55.6263 78.3601 58.0555 78.3601 60.5405C78.3601 63.8681 77.0396 67.0598 74.6885 69.4147C72.3373 71.7695 69.1478 73.0952 65.8201 73.1005ZM65.8201 52.0005C64.1254 51.9965 62.4677 52.4957 61.0569 53.4347C59.6462 54.3738 58.5459 55.7105 57.8956 57.2754C57.2452 58.8404 57.074 60.5632 57.4036 62.2255C57.7333 63.8878 58.549 65.4149 59.7473 66.6133C60.9456 67.8116 62.4727 68.6273 64.1351 68.9569C65.7974 69.2866 67.5202 69.1154 69.0851 68.465C70.6501 67.8147 71.9868 66.7144 72.9258 65.3036C73.8649 63.8929 74.3641 62.2352 74.3601 60.5405C74.3601 58.2755 73.4604 56.1033 71.8588 54.5018C70.2572 52.9002 68.0851 52.0005 65.8201 52.0005Z" fill="#3F8624"/>
<path d="M36.0001 41.9996L34.5401 35.2996C34.3021 34.8283 34.1666 34.312 34.1425 33.7846C34.1183 33.2572 34.2061 32.7307 34.4001 32.2396C34.572 31.8495 34.8278 31.502 35.1493 31.222C35.4708 30.942 35.8501 30.7363 36.2601 30.6196C36.4455 30.589 36.6347 30.589 36.8201 30.6196H42.9601V34.6196H38.4601L40.0001 41.0396L36.0001 41.9996Z" fill="#3F8624"/>
<path d="M64 61.3804L55.22 42.0004C55.0211 41.5895 54.9784 41.1204 55.1 40.6804L56.44 35.4004L60.32 36.4004L59.14 40.9804L67.64 59.6804L64 61.3804Z" fill="#3F8624"/>
<path d="M61.72 33.9404H54.66V37.9404H61.72V33.9404Z" fill="#3F8624"/>
<path d="M36.14 60.9201L32.14 60.1601L36 40.8401C36.0894 40.3778 36.339 39.9619 36.7048 39.6656C37.0706 39.3693 37.5293 39.2115 38 39.2201H57.14C57.454 39.2234 57.7628 39.3007 58.0413 39.4455C58.3199 39.5904 58.5605 39.7988 58.7435 40.0539C58.9266 40.3091 59.047 40.6037 59.095 40.914C59.1431 41.2243 59.1174 41.5415 59.02 41.8401L53.76 57.6601C53.6506 57.996 53.4542 58.297 53.1907 58.5323C52.9272 58.7677 52.6061 58.9291 52.26 59.0001C51.9132 59.0677 51.5547 59.0422 51.221 58.9263C50.8873 58.8104 50.5902 58.6081 50.36 58.3401L39.1 45.6001L36.14 60.9201ZM42.32 43.2201L50.96 53.0801L54.26 43.2201H42.32Z" fill="#3F8624"/>
</svg>
