<svg width="100" height="100" viewBox="0 0 100 100" fill="none" xmlns="http://www.w3.org/2000/svg">
<path d="M79.1201 85.3997H20.8801C19.2162 85.3944 17.6219 84.731 16.4453 83.5545C15.2687 82.3779 14.6054 80.7836 14.6001 79.1197V20.8996C14.6054 19.2376 15.2694 17.6453 16.4465 16.4719C17.6237 15.2985 19.218 14.6396 20.8801 14.6396H79.1201C80.7822 14.6396 82.3765 15.2985 83.5537 16.4719C84.7308 17.6453 85.3948 19.2376 85.4001 20.8996V79.1197C85.3948 80.7836 84.7315 82.3779 83.5549 83.5545C82.3783 84.731 80.784 85.3944 79.1201 85.3997ZM20.8801 18.6396C20.5816 18.637 20.2856 18.6935 20.0091 18.8059C19.7326 18.9183 19.4811 19.0844 19.2691 19.2945C19.0571 19.5046 18.8888 19.7546 18.774 20.0301C18.6592 20.3056 18.6001 20.6012 18.6001 20.8996V79.1197C18.6001 79.7243 18.8403 80.3043 19.2679 80.7318C19.6955 81.1594 20.2754 81.3997 20.8801 81.3997H79.1201C79.7248 81.3997 80.3047 81.1594 80.7323 80.7318C81.1599 80.3043 81.4001 79.7243 81.4001 79.1197V20.8996C81.4001 20.6012 81.341 20.3056 81.2262 20.0301C81.1114 19.7546 80.9431 19.5046 80.7311 19.2945C80.5191 19.0844 80.2676 18.9183 79.9911 18.8059C79.7146 18.6935 79.4186 18.637 79.1201 18.6396H20.8801Z" fill="#3F8624"/>
<path d="M30.8999 6.05957H26.8999V16.5996H30.8999V6.05957Z" fill="#3F8624"/>
<path d="M41.46 6.05957H37.46V16.5996H41.46V6.05957Z" fill="#3F8624"/>
<path d="M52 6.05957H48V16.5996H52V6.05957Z" fill="#3F8624"/>
<path d="M62.54 6.05957H58.54V16.5996H62.54V6.05957Z" fill="#3F8624"/>
<path d="M73.1001 6.05957H69.1001V16.5996H73.1001V6.05957Z" fill="#3F8624"/>
<path d="M30.8999 83.4004H26.8999V93.9404H30.8999V83.4004Z" fill="#3F8624"/>
<path d="M41.46 83.4004H37.46V93.9404H41.46V83.4004Z" fill="#3F8624"/>
<path d="M52 83.4004H48V93.9404H52V83.4004Z" fill="#3F8624"/>
<path d="M62.54 83.4004H58.54V93.9404H62.54V83.4004Z" fill="#3F8624"/>
<path d="M73.1001 83.4004H69.1001V93.9404H73.1001V83.4004Z" fill="#3F8624"/>
<path d="M16.6001 26.9004H6.06006V30.9004H16.6001V26.9004Z" fill="#3F8624"/>
<path d="M16.6001 37.46H6.06006V41.46H16.6001V37.46Z" fill="#3F8624"/>
<path d="M16.6001 48H6.06006V52H16.6001V48Z" fill="#3F8624"/>
<path d="M16.6001 58.54H6.06006V62.54H16.6001V58.54Z" fill="#3F8624"/>
<path d="M16.6001 69.0996H6.06006V73.0996H16.6001V69.0996Z" fill="#3F8624"/>
<path d="M93.9399 26.9004H83.3999V30.9004H93.9399V26.9004Z" fill="#3F8624"/>
<path d="M93.9399 37.46H83.3999V41.46H93.9399V37.46Z" fill="#3F8624"/>
<path d="M93.9399 48H83.3999V52H93.9399V48Z" fill="#3F8624"/>
<path d="M93.9399 58.54H83.3999V62.54H93.9399V58.54Z" fill="#3F8624"/>
<path d="M93.9399 69.0996H83.3999V73.0996H93.9399V69.0996Z" fill="#3F8624"/>
<path d="M63.2199 62.5202L62.9999 58.5202C64.6306 58.3991 66.1551 57.666 67.2679 56.4679C68.3807 55.2698 68.9994 53.6953 68.9999 52.0602V51.5602C68.9946 49.3411 68.1094 47.2148 66.5384 45.6476C64.9674 44.0803 62.839 43.2002 60.6199 43.2002H60.4199V39.2002H60.6199C63.8998 39.2002 67.0457 40.5018 69.3668 42.8191C71.688 45.1365 72.9946 48.2803 72.9999 51.5602V52.0002C73.0209 54.6708 72.0195 57.2483 70.2011 59.2043C68.3827 61.1603 65.885 62.3467 63.2199 62.5202Z" fill="#3F8624"/>
<path d="M61.3999 78.3603H36.8599C36.2852 78.3539 35.7181 78.2279 35.1947 77.9903C34.6713 77.7527 34.2031 77.4087 33.8199 76.9803C33.2187 76.2682 32.7657 75.4432 32.4875 74.5537C32.2093 73.6642 32.1115 72.7281 32.1999 71.8003V71.1403C30.8174 70.6506 29.6088 69.7663 28.7236 68.5968C27.8385 67.4273 27.3157 66.0239 27.2199 64.5603L21.6799 38.0003C21.5817 37.5349 21.6526 37.0497 21.8799 36.6318C22.1071 36.214 22.4759 35.8908 22.9199 35.7203L28.1999 33.7203C28.4517 33.6258 28.7199 33.5831 28.9886 33.5946C29.2572 33.6062 29.5208 33.6718 29.7635 33.7876C30.0062 33.9033 30.2231 34.0669 30.4012 34.2684C30.5793 34.4699 30.7149 34.7052 30.7999 34.9603L34.4599 45.8803L35.6999 34.0003C35.7497 33.5052 35.9822 33.0465 36.352 32.7137C36.7218 32.3808 37.2024 32.1978 37.6999 32.2003H58.7799C59.2652 32.1955 59.7357 32.3674 60.1037 32.6838C60.4717 33.0003 60.712 33.4397 60.7799 33.9203L65.9999 71.6003C66.1203 72.5529 66.044 73.5201 65.7756 74.442C65.5073 75.364 65.0527 76.2211 64.4399 76.9603C64.057 77.3905 63.5893 77.7369 63.0662 77.9778C62.543 78.2187 61.9758 78.349 61.3999 78.3603ZM36.3799 69.8403L36.1999 72.1203C36.1295 72.5255 36.1563 72.9417 36.278 73.3345C36.3997 73.7274 36.6128 74.0858 36.8999 74.3803H61.3999C61.6716 74.0537 61.8665 73.6703 61.9703 73.2585C62.0742 72.8466 62.0843 72.4166 61.9999 72.0003L57.0399 36.1803H39.4999L37.4999 55.3803C37.4529 55.833 37.2528 56.2561 36.9328 56.5797C36.6128 56.9033 36.192 57.1081 35.7399 57.1603C35.2842 57.211 34.8249 57.1035 34.439 56.8559C34.053 56.6083 33.7639 56.2357 33.6199 55.8003L27.6199 38.1403L25.8999 38.7803L31.1799 63.8803C31.4399 65.8803 32.4999 67.3403 33.6199 67.3403H34.3599C34.8904 67.3403 35.3991 67.551 35.7741 67.9261C36.1492 68.3012 36.3599 68.8099 36.3599 69.3403C36.3861 69.5056 36.3928 69.6734 36.3799 69.8403Z" fill="#3F8624"/>
<path d="M72.8599 74.9398H62.2999V70.9398H70.8599V69.3398C70.8599 68.8094 71.0706 68.3007 71.4457 67.9256C71.8208 67.5506 72.3295 67.3398 72.8599 67.3398H78.1199V71.3398H74.8599V72.9398C74.8599 73.4703 74.6492 73.979 74.2741 74.3541C73.8991 74.7291 73.3904 74.9398 72.8599 74.9398Z" fill="#3F8624"/>
<path d="M50.2401 21.8799H46.2401V27.1599H50.2401V21.8799Z" fill="#3F8624"/>
<path d="M58.7801 36.1796H37.7001C37.1696 36.1796 36.6609 35.9689 36.2859 35.5939C35.9108 35.2188 35.7001 34.7101 35.7001 34.1796C35.7001 31.7856 36.6497 29.4892 38.3408 27.7945C40.0318 26.0997 42.326 25.1449 44.7201 25.1396H51.7601C54.1542 25.1449 56.4484 26.0997 58.1394 27.7945C59.8304 29.4892 60.7801 31.7856 60.7801 34.1796C60.7801 34.7101 60.5694 35.2188 60.1943 35.5939C59.8192 35.9689 59.3105 36.1796 58.7801 36.1796ZM40.1201 32.1796H56.3801C55.988 31.2793 55.3425 30.5124 54.5221 29.9726C53.7018 29.4328 52.7421 29.1434 51.7601 29.1396H44.7201C43.7403 29.1422 42.7827 29.4314 41.9653 29.9716C41.148 30.5118 40.5065 31.2793 40.1201 32.1796Z" fill="#3F8624"/>
<path d="M78.12 78.3604H72.86C72.3296 78.3604 71.8208 78.1496 71.4458 77.7746C71.0707 77.3995 70.86 76.8908 70.86 76.3604V72.8604H74.86V74.3604H78.12V78.3604Z" fill="#3F8624"/>
</svg>
