<svg width="100" height="100" viewBox="0 0 100 100" fill="none" xmlns="http://www.w3.org/2000/svg">
<path d="M84.0999 97.0004H15.9999C14.2975 97.0136 12.6092 96.6897 11.0326 96.0473C9.45591 95.4049 8.022 94.4568 6.81351 93.2576C5.60502 92.0584 4.64586 90.6319 3.99133 89.0602C3.3368 87.4886 2.99985 85.8029 2.9999 84.1004V16.0004C2.98659 14.2895 3.31375 12.593 3.96235 11.0098C4.61094 9.42655 5.56801 7.98815 6.77783 6.77832C7.98766 5.5685 9.42606 4.61143 11.0093 3.96284C12.5926 3.31424 14.289 2.98708 15.9999 3.00039H84.1999C85.894 3.01347 87.5689 3.36011 89.129 4.02051C90.6891 4.68091 92.1038 5.64214 93.2924 6.84931C94.481 8.05648 95.4202 9.48596 96.0563 11.0561C96.6925 12.6263 97.0131 14.3063 96.9999 16.0004V84.2004C96.9735 87.6043 95.6028 90.8599 93.1864 93.2575C90.77 95.6551 87.5039 97.0005 84.0999 97.0004ZM15.9999 7.00039C14.815 6.98972 13.6399 7.21522 12.5432 7.66373C11.4464 8.11224 10.45 8.77477 9.61215 9.61264C8.77429 10.4505 8.11175 11.4469 7.66324 12.5437C7.21473 13.6404 6.98923 14.8155 6.9999 16.0004V84.2004C7.03154 86.5592 7.99627 88.8094 9.68297 90.4586C11.3697 92.1078 13.641 93.0218 15.9999 93.0004H84.1999C86.5587 92.9951 88.8194 92.0557 90.4873 90.3878C92.1552 88.7199 93.0946 86.4592 93.0999 84.1004V16.0004C93.1106 14.8155 92.8851 13.6404 92.4366 12.5437C91.9881 11.4469 91.3255 10.4505 90.4877 9.61264C89.6498 8.77477 88.6534 8.11224 87.5566 7.66373C86.4599 7.21522 85.2848 6.98972 84.0999 7.00039H15.9999Z" fill="#3F8624"/>
<path d="M33.1201 87.6199H10.6201C10.0897 87.6199 9.58098 87.4092 9.2059 87.0341C8.83083 86.659 8.62012 86.1503 8.62012 85.6199V44.3799C8.62012 43.8494 8.83083 43.3407 9.2059 42.9657C9.58098 42.5906 10.0897 42.3799 10.6201 42.3799H33.1201C33.6506 42.3799 34.1593 42.5906 34.5343 42.9657C34.9094 43.3407 35.1201 43.8494 35.1201 44.3799V85.6199C35.1201 86.1503 34.9094 86.659 34.5343 87.0341C34.1593 87.4092 33.6506 87.6199 33.1201 87.6199ZM12.6201 83.6199H31.1201V46.3799H12.6201V83.6199Z" fill="#3F8624"/>
<path d="M61.2399 87.6201H38.7599C38.2295 87.6201 37.7207 87.4094 37.3457 87.0343C36.9706 86.6592 36.7599 86.1506 36.7599 85.6201V18.1201C36.7599 17.5897 36.9706 17.081 37.3457 16.7059C37.7207 16.3308 38.2295 16.1201 38.7599 16.1201H61.2399C61.7703 16.1201 62.279 16.3308 62.6541 16.7059C63.0292 17.081 63.2399 17.5897 63.2399 18.1201V85.6201C63.2399 86.1506 63.0292 86.6592 62.6541 87.0343C62.279 87.4094 61.7703 87.6201 61.2399 87.6201ZM40.7599 83.6201H59.2399V20.1201H40.7599V83.6201Z" fill="#3F8624"/>
<path d="M21.8801 80.1198C20.5589 80.1198 19.2674 79.728 18.1689 78.994C17.0703 78.26 16.2142 77.2167 15.7086 75.9961C15.203 74.7755 15.0707 73.4324 15.3284 72.1366C15.5862 70.8408 16.2224 69.6505 17.1566 68.7163C18.0908 67.7821 19.2811 67.1459 20.5769 66.8881C21.8727 66.6304 23.2158 66.7627 24.4364 67.2683C25.657 67.7739 26.7003 68.63 27.4343 69.7286C28.1683 70.8271 28.5601 72.1186 28.5601 73.4398C28.5548 75.2098 27.8493 76.9058 26.5977 78.1574C25.3461 79.409 23.6501 80.1145 21.8801 80.1198ZM21.8801 70.7598C21.35 70.7598 20.8319 70.917 20.3911 71.2114C19.9504 71.5059 19.6069 71.9245 19.4041 72.4142C19.2012 72.9039 19.1482 73.4427 19.2516 73.9626C19.355 74.4825 19.6102 74.96 19.985 75.3348C20.3598 75.7096 20.8374 75.9649 21.3572 76.0683C21.8771 76.1717 22.416 76.1186 22.9057 75.9158C23.3954 75.7129 23.8139 75.3694 24.1084 74.9287C24.4029 74.488 24.5601 73.9698 24.5601 73.4398C24.5548 72.7306 24.2708 72.052 23.7693 71.5505C23.2679 71.049 22.5892 70.765 21.8801 70.7598Z" fill="#3F8624"/>
<path d="M55.62 80.1197H44.38C44.027 80.1196 43.6803 80.0261 43.3751 79.8487C43.07 79.6712 42.8172 79.4162 42.6425 79.1094C42.4678 78.8027 42.3774 78.4552 42.3804 78.1022C42.3835 77.7492 42.48 77.4033 42.66 77.0996L48.28 67.7197C48.4571 67.4212 48.7088 67.174 49.0104 67.0023C49.3119 66.8305 49.653 66.7402 50 66.7402C50.3471 66.7402 50.6881 66.8305 50.9897 67.0023C51.2912 67.174 51.5429 67.4212 51.72 67.7197L57.34 77.0996C57.5201 77.4033 57.6165 77.7492 57.6196 78.1022C57.6227 78.4552 57.5323 78.8027 57.3576 79.1094C57.1829 79.4162 56.9301 79.6712 56.6249 79.8487C56.3197 80.0261 55.973 80.1196 55.62 80.1197ZM47.9 76.1197H52.1L50 72.6396L47.9 76.1197Z" fill="#3F8624"/>
</svg>
