<svg width="100" height="100" viewBox="0 0 100 100" fill="none" xmlns="http://www.w3.org/2000/svg">
<path d="M53.0801 89.0404V82.0004H47.4201V89.1004H45.2401V73.5004H47.4201V80.2404H53.0801V73.4404H55.2601V89.0404H53.0801Z" fill="#3F8624"/>
<path d="M61.1399 89.0404V75.2604H57.2599V73.4404H67.2599V75.2604H63.3199V89.0404H61.1399Z" fill="#3F8624"/>
<path d="M72.38 89.0404V75.2604H68.52V73.4404H78.52V75.2604H74.56V89.0404H72.38Z" fill="#3F8624"/>
<path d="M82.58 82.9804V88.9804H80.46V73.3804H85.04C85.8192 73.3589 86.5866 73.5752 87.24 74.0004C87.8832 74.4081 88.3966 74.9909 88.72 75.6804C89.061 76.4621 89.2315 77.3076 89.22 78.1604C89.2861 79.4476 88.8486 80.7101 88 81.6804C87.6225 82.1049 87.1563 82.4414 86.6345 82.6661C86.1126 82.8907 85.5478 82.998 84.98 82.9804H82.58ZM82.58 81.2604H84.8C85.1223 81.2676 85.4415 81.1968 85.7306 81.054C86.0196 80.9112 86.2698 80.7007 86.46 80.4404C86.8534 79.763 87.0606 78.9937 87.0606 78.2104C87.0606 77.4271 86.8534 76.6577 86.46 75.9804C86.2677 75.7237 86.0165 75.517 85.7276 75.3778C85.4387 75.2386 85.1205 75.1708 84.8 75.1804H82.58V81.2604Z" fill="#3F8624"/>
<path d="M31.24 96.6602H15.24C11.9972 96.6602 8.88695 95.3733 6.59208 93.0822C4.2972 90.7911 3.0053 87.6829 3 84.4402V14.8802C3.00529 11.6408 4.29445 8.5357 6.585 6.24515C8.87555 3.9546 11.9807 2.66544 15.22 2.66016H84.78C88.0193 2.66544 91.1245 3.9546 93.415 6.24515C95.7056 8.5357 96.9947 11.6408 97 14.8802V60.8802H93V14.8802C93 12.7001 92.134 10.6093 90.5924 9.06774C89.0509 7.52619 86.9601 6.66016 84.78 6.66016H15.22C13.0399 6.66016 10.9491 7.52619 9.40758 9.06774C7.86603 10.6093 7 12.7001 7 14.8802V84.4402C7 86.6202 7.86603 88.711 9.40758 90.2526C10.9491 91.7941 13.0399 92.6602 15.22 92.6602H31.22L31.24 96.6602Z" fill="#3F8624"/>
<path d="M96.9999 96.66H34.8799V64.54H96.9999V96.66ZM38.8799 92.66H92.9999V68.54H38.8799V92.66Z" fill="#3F8624"/>
<path d="M96.9999 96.6604H84.7799V92.6604H92.9999V84.4404H96.9999V96.6604Z" fill="#3F8624"/>
</svg>
