<svg width="100" height="100" viewBox="0 0 100 100" fill="none" xmlns="http://www.w3.org/2000/svg">
<path d="M78.1201 78.2402H62.9401C62.5597 78.243 62.1865 78.1372 61.8641 77.9352C61.5418 77.7333 61.2837 77.4437 61.1201 77.1002L39.8401 31.3802H31.2401C30.7126 31.3727 30.2094 31.1571 29.8401 30.7802C29.4633 30.411 29.2476 29.9078 29.2401 29.3802V16.2402C29.2401 15.7098 29.4508 15.2011 29.8259 14.826C30.201 14.4509 30.7097 14.2402 31.2401 14.2402H50.2201C50.6048 14.241 50.9812 14.3528 51.304 14.5621C51.6268 14.7714 51.8824 15.0693 52.0401 15.4202L73.2401 61.1202H78.1201C78.6506 61.1202 79.1593 61.331 79.5343 61.706C79.9094 62.0811 80.1201 62.5898 80.1201 63.1202V76.2402C80.1201 76.7707 79.9094 77.2794 79.5343 77.6544C79.1593 78.0295 78.6506 78.2402 78.1201 78.2402ZM64.1201 74.2402H76.1201V65.1202H72.0001C71.6176 65.1212 71.2428 65.0124 70.9202 64.8068C70.5976 64.6012 70.3408 64.3074 70.1801 63.9602L48.9601 18.2402H33.2601V27.3802H41.1201C41.5026 27.3793 41.8774 27.4881 42.2 27.6937C42.5226 27.8993 42.7794 28.1931 42.9401 28.5402L64.1201 74.2402Z" fill="#3F8624"/>
<path d="M36.86 78.2397H20.62C20.2828 78.2387 19.9513 78.1525 19.6563 77.9891C19.3614 77.8257 19.1126 77.5904 18.9329 77.305C18.7533 77.0196 18.6488 76.6935 18.629 76.3569C18.6093 76.0203 18.675 75.6841 18.82 75.3797L35.8 39.8197C35.9621 39.4793 36.217 39.1917 36.5355 38.99C36.854 38.7883 37.223 38.6808 37.6 38.6797C37.9748 38.6789 38.3423 38.7835 38.6606 38.9816C38.9788 39.1796 39.235 39.4631 39.4 39.7997L47.54 56.5997C47.6679 56.8683 47.7343 57.1621 47.7343 57.4597C47.7343 57.7572 47.6679 58.0511 47.54 58.3197L38.66 77.0997C38.4979 77.44 38.2429 77.7276 37.9244 77.9293C37.6059 78.131 37.2369 78.2386 36.86 78.2397ZM23.8 74.2397H35.58L43.58 57.4797L37.58 45.2997L23.8 74.2397Z" fill="#3F8624"/>
<path d="M50 97C40.7043 97 31.6173 94.2435 23.8882 89.0791C16.1591 83.9147 10.135 76.5743 6.57768 67.9861C3.02036 59.398 2.08961 49.9479 3.90311 40.8308C5.71662 31.7137 10.1929 23.3391 16.766 16.766C23.3391 10.1929 31.7137 5.71662 40.8308 3.90311C49.9479 2.08961 59.398 3.02036 67.9861 6.57768C76.5743 10.135 83.9147 16.1591 89.0791 23.8882C94.2435 31.6173 97 40.7043 97 50C96.9894 62.4619 92.0343 74.4104 83.2223 83.2223C74.4104 92.0343 62.4619 96.9894 50 97ZM50 7.00002C41.4954 7.00002 33.1818 9.52193 26.1105 14.2468C19.0392 18.9717 13.5278 25.6874 10.2732 33.5446C7.01863 41.4019 6.16709 50.0477 7.82625 58.3889C9.48542 66.7301 13.5808 74.392 19.5944 80.4056C25.6081 86.4193 33.27 90.5146 41.6111 92.1738C49.9523 93.833 58.5982 92.9814 66.4554 89.7268C74.3126 86.4723 81.0283 80.9609 85.7532 73.8895C90.4781 66.8182 93 58.5046 93 50C92.9894 38.599 88.4557 27.6679 80.3939 19.6061C72.3322 11.5444 61.4011 7.01061 50 7.00002Z" fill="#3F8624"/>
</svg>
