<svg width="100" height="100" viewBox="0 0 100 100" fill="none" xmlns="http://www.w3.org/2000/svg">
<path d="M79.1201 85.3997H20.8801C19.2162 85.3944 17.6219 84.731 16.4453 83.5545C15.2687 82.3779 14.6054 80.7836 14.6001 79.1197V20.8996C14.6054 19.2376 15.2694 17.6453 16.4465 16.4719C17.6237 15.2985 19.218 14.6396 20.8801 14.6396H79.1201C80.7822 14.6396 82.3765 15.2985 83.5537 16.4719C84.7308 17.6453 85.3948 19.2376 85.4001 20.8996V79.1197C85.3948 80.7836 84.7315 82.3779 83.5549 83.5545C82.3783 84.731 80.784 85.3944 79.1201 85.3997ZM20.8801 18.6396C20.5816 18.637 20.2856 18.6935 20.0091 18.8059C19.7326 18.9183 19.4811 19.0844 19.2691 19.2945C19.0571 19.5046 18.8888 19.7546 18.774 20.0301C18.6592 20.3056 18.6001 20.6012 18.6001 20.8996V79.1197C18.6001 79.7243 18.8403 80.3043 19.2679 80.7318C19.6955 81.1594 20.2754 81.3997 20.8801 81.3997H79.1201C79.7248 81.3997 80.3047 81.1594 80.7323 80.7318C81.1599 80.3043 81.4001 79.7243 81.4001 79.1197V20.8996C81.4001 20.6012 81.341 20.3056 81.2262 20.0301C81.1114 19.7546 80.9431 19.5046 80.7311 19.2945C80.5191 19.0844 80.2676 18.9183 79.9911 18.8059C79.7146 18.6935 79.4186 18.637 79.1201 18.6396H20.8801Z" fill="#3F8624"/>
<path d="M30.8999 6.05957H26.8999V16.5996H30.8999V6.05957Z" fill="#3F8624"/>
<path d="M41.46 6.05957H37.46V16.5996H41.46V6.05957Z" fill="#3F8624"/>
<path d="M52 6.05957H48V16.5996H52V6.05957Z" fill="#3F8624"/>
<path d="M62.54 6.05957H58.54V16.5996H62.54V6.05957Z" fill="#3F8624"/>
<path d="M73.1001 6.05957H69.1001V16.5996H73.1001V6.05957Z" fill="#3F8624"/>
<path d="M30.8999 83.4004H26.8999V93.9404H30.8999V83.4004Z" fill="#3F8624"/>
<path d="M41.46 83.4004H37.46V93.9404H41.46V83.4004Z" fill="#3F8624"/>
<path d="M52 83.4004H48V93.9404H52V83.4004Z" fill="#3F8624"/>
<path d="M62.54 83.4004H58.54V93.9404H62.54V83.4004Z" fill="#3F8624"/>
<path d="M73.1001 83.4004H69.1001V93.9404H73.1001V83.4004Z" fill="#3F8624"/>
<path d="M16.6001 26.9004H6.06006V30.9004H16.6001V26.9004Z" fill="#3F8624"/>
<path d="M16.6001 37.46H6.06006V41.46H16.6001V37.46Z" fill="#3F8624"/>
<path d="M16.6001 48H6.06006V52H16.6001V48Z" fill="#3F8624"/>
<path d="M16.6001 58.54H6.06006V62.54H16.6001V58.54Z" fill="#3F8624"/>
<path d="M16.6001 69.0996H6.06006V73.0996H16.6001V69.0996Z" fill="#3F8624"/>
<path d="M93.9399 26.9004H83.3999V30.9004H93.9399V26.9004Z" fill="#3F8624"/>
<path d="M93.9399 37.46H83.3999V41.46H93.9399V37.46Z" fill="#3F8624"/>
<path d="M93.9399 48H83.3999V52H93.9399V48Z" fill="#3F8624"/>
<path d="M93.9399 58.54H83.3999V62.54H93.9399V58.54Z" fill="#3F8624"/>
<path d="M93.9399 69.0996H83.3999V73.0996H93.9399V69.0996Z" fill="#3F8624"/>
<path d="M69.34 71.3401H30.66C30.1296 71.3401 29.6209 71.1294 29.2458 70.7544C28.8707 70.3793 28.66 69.8706 28.66 69.3401V30.6602C28.66 30.1297 28.8707 29.621 29.2458 29.2459C29.6209 28.8709 30.1296 28.6602 30.66 28.6602H69.34C69.8705 28.6602 70.3792 28.8709 70.7542 29.2459C71.1293 29.621 71.34 30.1297 71.34 30.6602V69.3401C71.34 69.8706 71.1293 70.3793 70.7542 70.7544C70.3792 71.1294 69.8705 71.3401 69.34 71.3401ZM32.66 67.3401H67.34V32.6602H32.66V67.3401Z" fill="#3F8624"/>
<path d="M42.9601 50.2397C41.5202 50.2397 40.1127 49.8127 38.9155 49.0128C37.7183 48.2129 36.7852 47.0759 36.2342 45.7456C35.6832 44.4154 35.539 42.9516 35.8199 41.5394C36.1008 40.1273 36.7942 38.8301 37.8123 37.812C38.8304 36.7938 40.1276 36.1005 41.5398 35.8196C42.952 35.5387 44.4157 35.6828 45.746 36.2338C47.0762 36.7849 48.2132 37.7179 49.0132 38.9151C49.8131 40.1123 50.2401 41.5198 50.2401 42.9597C50.2401 44.8905 49.4731 46.7422 48.1078 48.1074C46.7425 49.4727 44.8908 50.2397 42.9601 50.2397ZM42.9601 39.6997C42.3105 39.6997 41.6755 39.8926 41.1357 40.2539C40.5959 40.6152 40.1755 41.1286 39.9279 41.7292C39.6802 42.3297 39.6164 42.9902 39.7446 43.627C39.8728 44.2638 40.1872 44.8482 40.6479 45.3061C41.1086 45.764 41.6949 46.0748 42.3325 46.1991C42.9701 46.3234 43.6302 46.2556 44.2292 46.0042C44.8282 45.7529 45.339 45.3294 45.697 44.7874C46.055 44.2454 46.244 43.6093 46.2401 42.9597C46.2401 42.5299 46.1551 42.1043 45.99 41.7075C45.8249 41.3107 45.583 40.9504 45.2782 40.6474C44.9733 40.3444 44.6116 40.1047 44.2138 39.9421C43.8159 39.7794 43.3898 39.6971 42.9601 39.6997Z" fill="#3F8624"/>
<path d="M67.5801 40.96H48.2401V44.96H67.5801V40.96Z" fill="#3F8624"/>
<path d="M57.0401 64.3002C55.5985 64.3042 54.1883 63.8801 52.988 63.0817C51.7878 62.2832 50.8516 61.1465 50.2981 59.8154C49.7446 58.4843 49.5988 57.0189 49.879 55.6049C50.1593 54.1908 50.8531 52.8918 51.8724 51.8725C52.8917 50.8532 54.1907 50.1594 55.6048 49.8791C57.0188 49.5989 58.4842 49.7447 59.8153 50.2982C61.1463 50.8517 62.2831 51.7879 63.0815 52.9882C63.8799 54.1884 64.304 55.5987 64.3001 57.0402C64.2948 58.9641 63.5282 60.8076 62.1679 62.168C60.8075 63.5284 58.9639 64.2949 57.0401 64.3002ZM57.0401 53.7602C56.3905 53.7563 55.7544 53.9453 55.2124 54.3032C54.6704 54.6612 54.2469 55.1721 53.9955 55.7711C53.7442 56.3701 53.6764 57.0302 53.8007 57.6678C53.925 58.3053 54.2358 58.8916 54.6937 59.3524C55.1516 59.8131 55.736 60.1275 56.3728 60.2557C57.0096 60.3838 57.6701 60.3201 58.2706 60.0724C58.8711 59.8247 59.3846 59.4044 59.7459 58.8645C60.1072 58.3247 60.3001 57.6898 60.3001 57.0402C60.3027 56.6104 60.2203 56.1844 60.0577 55.7865C59.895 55.3887 59.6553 55.0269 59.3524 54.7221C59.0494 54.4173 58.6891 54.1753 58.2923 54.0103C57.8954 53.8452 57.4699 53.7602 57.0401 53.7602Z" fill="#3F8624"/>
<path d="M53.5199 55.04H32.4199V59.04H53.5199V55.04Z" fill="#3F8624"/>
</svg>
