<svg width="100" height="100" viewBox="0 0 100 100" fill="none" xmlns="http://www.w3.org/2000/svg">
<path d="M38.8201 55.6799C34.81 55.6799 30.9642 54.0869 28.1286 51.2514C25.2931 48.4158 23.7001 44.57 23.7001 40.5599C23.7001 36.5499 25.2931 32.704 28.1286 29.8685C30.9642 27.0329 34.81 25.4399 38.8201 25.4399C41.8259 25.4159 44.7692 26.298 47.2665 27.9711C49.7637 29.6443 51.699 32.0309 52.8201 34.8199H54.6001L57.4201 31.7799C57.6072 31.5801 57.8333 31.4208 58.0844 31.3119C58.3355 31.203 58.6063 31.1468 58.8801 31.1468C59.1538 31.1468 59.4246 31.203 59.6758 31.3119C59.9269 31.4208 60.153 31.5801 60.3401 31.7799L63.1801 34.8199H63.7201L66.5601 31.7799C66.7472 31.5801 66.9733 31.4208 67.2244 31.3119C67.4755 31.203 67.7463 31.1468 68.0201 31.1468C68.2938 31.1468 68.5646 31.203 68.8158 31.3119C69.0669 31.4208 69.293 31.5801 69.4801 31.7799L72.3001 34.8199H74.8601C75.3236 34.8213 75.7737 34.976 76.1401 35.2599L80.7001 39.0199C80.916 39.2004 81.0915 39.4244 81.2149 39.6773C81.3384 39.9302 81.4071 40.2063 81.4165 40.4876C81.4259 40.7688 81.3759 41.0489 81.2697 41.3095C81.1635 41.5701 81.0034 41.8054 80.8001 41.9999L77.3801 45.7399C77.1931 45.9471 76.9648 46.1129 76.7099 46.2265C76.455 46.3402 76.1792 46.3993 75.9001 46.3999H52.7201C51.5897 49.1544 49.663 51.5088 47.1868 53.162C44.7106 54.8152 41.7974 55.6919 38.8201 55.6799ZM38.8201 29.4399C36.7547 29.4259 34.7263 29.9873 32.9622 31.0613C31.198 32.1353 29.7678 33.6794 28.8318 35.5206C27.8959 37.3617 27.4912 39.4271 27.6631 41.4853C27.8351 43.5435 28.5768 45.5132 29.8052 47.1735C31.0336 48.8339 32.7002 50.1193 34.6181 50.8857C36.536 51.6521 38.6295 51.8693 40.6638 51.5128C42.6982 51.1563 44.5931 50.2403 46.1362 48.8674C47.6792 47.4945 48.8094 45.719 49.4001 43.7399C49.5285 43.3148 49.7947 42.9444 50.1568 42.6873C50.519 42.4302 50.9564 42.301 51.4001 42.3199H75.0201L76.4201 40.7599L74.0401 38.7599H71.3401C71.0658 38.759 70.7947 38.7018 70.5436 38.5917C70.2924 38.4816 70.0665 38.321 69.8801 38.1199L68.0001 35.9999L66.0001 38.0999C65.8136 38.301 65.5878 38.4616 65.3366 38.5717C65.0854 38.6818 64.8143 38.7391 64.5401 38.7399H62.2001C61.9258 38.7391 61.6547 38.6818 61.4036 38.5717C61.1524 38.4616 60.9266 38.301 60.7401 38.0999L58.7401 35.9999L56.7401 38.0999C56.5536 38.301 56.3278 38.4616 56.0766 38.5717C55.8254 38.6818 55.5543 38.7391 55.2801 38.7399H51.2801C50.8364 38.7589 50.399 38.6296 50.0368 38.3725C49.6747 38.1154 49.4085 37.7451 49.2801 37.3199C48.603 35.0638 47.2232 33.0827 45.3418 31.6653C43.4603 30.248 41.1755 29.4683 38.8201 29.4399ZM34.8201 46.5599C33.6334 46.5599 32.4733 46.208 31.4867 45.5487C30.5 44.8895 29.7309 43.9524 29.2768 42.856C28.8227 41.7597 28.7038 40.5533 28.9354 39.3894C29.1669 38.2255 29.7383 37.1564 30.5774 36.3173C31.4165 35.4782 32.4856 34.9067 33.6495 34.6752C34.8134 34.4437 36.0198 34.5625 37.1162 35.0167C38.2125 35.4708 39.1496 36.2398 39.8089 37.2265C40.4682 38.2132 40.8201 39.3732 40.8201 40.5599C40.8201 42.1512 40.1879 43.6774 39.0627 44.8026C37.9375 45.9278 36.4114 46.5599 34.8201 46.5599ZM34.8201 38.5599C34.4245 38.5599 34.0378 38.6772 33.7089 38.897C33.38 39.1168 33.1237 39.4291 32.9723 39.7946C32.8209 40.16 32.7813 40.5621 32.8585 40.9501C32.9357 41.3381 33.1262 41.6944 33.4059 41.9741C33.6856 42.2538 34.0419 42.4443 34.4299 42.5215C34.8179 42.5987 35.22 42.5591 35.5854 42.4077C35.9509 42.2563 36.2633 42 36.483 41.6711C36.7028 41.3422 36.8201 40.9555 36.8201 40.5599C36.8201 40.0295 36.6094 39.5208 36.2343 39.1457C35.8592 38.7706 35.3505 38.5599 34.8201 38.5599Z" fill="#3F8624"/>
<path d="M52.0001 76.3198C44.7382 76.3357 37.6347 74.1967 31.5889 70.1737C25.5431 66.1507 20.8268 60.4245 18.0367 53.7199C15.2467 47.0152 14.5085 39.6336 15.9156 32.5092C17.3226 25.3848 20.8116 18.838 25.941 13.6974C31.0704 8.55686 37.6095 5.05357 44.7308 3.63099C51.8521 2.20842 59.2353 2.93052 65.946 5.70589C72.6568 8.48126 78.3932 13.1851 82.4294 19.2221C86.4656 25.2591 88.6201 32.3579 88.6201 39.6199C88.6096 49.3362 84.7506 58.6528 77.8876 65.5308C71.0246 72.4088 61.7164 76.2881 52.0001 76.3198ZM52.0001 6.93985C45.5284 6.92402 39.1976 8.82888 33.8091 12.4132C28.4207 15.9976 24.217 21.1003 21.7304 27.0752C19.2437 33.0501 18.5859 39.6285 19.8402 45.9775C21.0945 52.3265 24.2045 58.1605 28.7765 62.7409C33.3485 67.3213 39.1768 70.442 45.5234 71.708C51.8701 72.974 58.4497 72.3282 64.4292 69.8526C70.4086 67.3769 75.519 63.1826 79.1133 57.8007C82.7076 52.4189 84.624 46.0916 84.6201 39.6199C84.6043 30.9678 81.1644 22.6738 75.0521 16.5502C68.9398 10.4267 60.6521 6.97155 52.0001 6.93985Z" fill="#3F8624"/>
<path d="M66.9399 97.8803C66.5321 97.8793 66.1344 97.7537 65.7999 97.5203L51.9999 88.0003L37.9999 97.5203C37.7066 97.7144 37.3672 97.8277 37.0161 97.8488C36.6649 97.8699 36.3144 97.798 35.9999 97.6403C35.6806 97.4703 35.4133 97.2168 35.2267 96.9068C35.04 96.5969 34.9409 96.2421 34.9399 95.8803V74.3203H38.9399V92.0003L50.7999 84.0003C51.1347 83.7681 51.5325 83.6436 51.9399 83.6436C52.3474 83.6436 52.7452 83.7681 53.0799 84.0003L64.9399 92.0003V74.3203H68.9399V95.8803C68.9371 96.2442 68.835 96.6003 68.6446 96.9105C68.4543 97.2206 68.183 97.4729 67.8599 97.6403C67.5792 97.7987 67.2622 97.8814 66.9399 97.8803Z" fill="#3F8624"/>
</svg>
