<svg width="100" height="100" viewBox="0 0 100 100" fill="none" xmlns="http://www.w3.org/2000/svg">
<path d="M36.2399 89.0404V82.0004H30.5799V89.1004H28.3999V73.5004H30.5799V80.2404H36.2399V73.4404H38.4199V89.0404H36.2399Z" fill="#3F8624"/>
<path d="M44.2999 89.0404V75.2604H40.4399V73.4404H50.4399V75.2604H46.4399V89.0404H44.2999Z" fill="#3F8624"/>
<path d="M55.5601 89.0404V75.2604H51.6801V73.4404H61.6801V75.2604H57.7401V89.0404H55.5601Z" fill="#3F8624"/>
<path d="M65.7401 82.9797V88.9797H63.6201V73.3797H68.2001C68.9849 73.3641 69.757 73.5797 70.4201 73.9997C71.0559 74.4103 71.5622 74.9929 71.8801 75.6797C72.2298 76.4587 72.4006 77.3061 72.3801 78.1597C72.4472 79.4185 72.0324 80.6557 71.2201 81.6197C70.8426 82.0443 70.3765 82.3808 69.8546 82.6054C69.3328 82.83 68.768 82.9373 68.2001 82.9197L65.7401 82.9797ZM65.7401 81.2597H68.0001C68.3191 81.2637 68.6343 81.1914 68.9196 81.0487C69.2049 80.9061 69.452 80.6973 69.6401 80.4397C70.0335 79.7624 70.2408 78.993 70.2408 78.2097C70.2408 77.4264 70.0335 76.657 69.6401 75.9797C69.4498 75.7258 69.2018 75.5209 68.9167 75.3818C68.6315 75.2427 68.3173 75.1734 68.0001 75.1797H65.7401V81.2597Z" fill="#3F8624"/>
<path d="M72.52 92.28L78.62 72H80.62L74.62 92.2L72.52 92.28Z" fill="#3F8624"/>
<path d="M82.8 74.6197C83.4063 74.1477 84.0806 73.7701 84.8 73.4997C85.4389 73.2601 86.1177 73.1447 86.8 73.1597C87.3013 73.1344 87.8021 73.2178 88.2682 73.4042C88.7342 73.5906 89.1544 73.8756 89.5 74.2397C90.1866 75.1063 90.5285 76.1962 90.46 77.2997C90.4495 78.0241 90.3142 78.7413 90.06 79.4197C89.6605 80.3846 89.1576 81.3033 88.56 82.1597C87.84 83.2597 86.56 84.9197 84.88 87.1597H91V89.0397H82.46V87.3397C83.98 85.3397 85.12 83.7597 85.92 82.5997C86.5704 81.6669 87.1455 80.6838 87.64 79.6597C87.9664 78.9571 88.1435 78.1943 88.16 77.4197C88.16 75.8597 87.54 75.0797 86.34 75.0797C85.0471 75.2136 83.8192 75.7131 82.8 76.5197V74.6197Z" fill="#3F8624"/>
<path d="M18.12 96.6602H15.22C11.9807 96.6549 8.87555 95.3657 6.585 93.0752C4.29445 90.7846 3.00529 87.6795 3 84.4402V14.8802C3.00529 11.6408 4.29445 8.5357 6.585 6.24515C8.87555 3.9546 11.9807 2.66544 15.22 2.66016H84.78C88.0193 2.66544 91.1245 3.9546 93.415 6.24515C95.7056 8.5357 96.9947 11.6408 97 14.8802V60.8802H93V14.8802C93 12.7001 92.134 10.6093 90.5924 9.06774C89.0509 7.52619 86.9601 6.66016 84.78 6.66016H15.22C13.0399 6.66016 10.9491 7.52619 9.40758 9.06774C7.86603 10.6093 7 12.7001 7 14.8802V84.4402C7 86.6202 7.86603 88.711 9.40758 90.2526C10.9491 91.7941 13.0399 92.6602 15.22 92.6602H18.12V96.6602Z" fill="#3F8624"/>
<path d="M96.9999 96.66H21.7599V64.54H96.9999V96.66ZM25.7599 92.66H92.9999V68.54H25.7599V92.66Z" fill="#3F8624"/>
<path d="M96.9999 96.6604H84.7799V92.6604H92.9999V84.4404H96.9999V96.6604Z" fill="#3F8624"/>
</svg>
