<svg width="100" height="100" viewBox="0 0 100 100" fill="none" xmlns="http://www.w3.org/2000/svg">
<path d="M51.2599 89.0404V76.8204L47.9999 85.0404H45.9999L42.7999 76.8204V89.0404H40.7999V73.4404H43.2599L46.9599 82.9804L50.6999 73.4404H53.0599V89.0404H51.2599Z" fill="#3F8624"/>
<path d="M56.24 81.2605C56.1053 79.1479 56.6445 77.047 57.78 75.2605C58.2963 74.5996 58.9563 74.065 59.71 73.6974C60.4638 73.3297 61.2914 73.1387 62.13 73.1387C62.9686 73.1387 63.7962 73.3297 64.5499 73.6974C65.3037 74.065 65.9637 74.5996 66.48 75.2605C67.6154 77.047 68.1547 79.1479 68.02 81.2605C68.0885 83.0623 67.7179 84.8538 66.94 86.4805C66.6365 87.1092 66.2062 87.6683 65.6761 88.1226C65.1461 88.577 64.5277 88.9167 63.86 89.1205C64.4268 89.5861 65.0606 89.9637 65.74 90.2404C66.4221 90.498 67.1347 90.666 67.86 90.7404V92.7404C66.7242 92.5884 65.626 92.2291 64.62 91.6805C63.5741 91.0948 62.6287 90.3453 61.82 89.4604C60.7183 89.4291 59.6545 89.0512 58.78 88.3804C57.8911 87.6487 57.2316 86.6767 56.88 85.5805C56.4219 84.1875 56.2055 82.7264 56.24 81.2605ZM58.46 81.2605C58.3613 82.8928 58.6779 84.5235 59.38 86.0005C59.6596 86.482 60.0608 86.8817 60.5434 87.1595C61.026 87.4374 61.5731 87.5836 62.13 87.5836C62.6869 87.5836 63.234 87.4374 63.7166 87.1595C64.1992 86.8817 64.6004 86.482 64.88 86.0005C65.5822 84.5449 65.899 82.9335 65.8 81.3204C65.9035 79.7071 65.5865 78.0945 64.88 76.6404C64.6004 76.1589 64.1992 75.7592 63.7166 75.4814C63.234 75.2035 62.6869 75.0573 62.13 75.0573C61.5731 75.0573 61.026 75.2035 60.5434 75.4814C60.0608 75.7592 59.6596 76.1589 59.38 76.6404C58.6928 78.0796 58.3765 79.6678 58.46 81.2605Z" fill="#3F8624"/>
<path d="M73.0801 89.0404V75.2604H69.2201V73.4404H79.2201V75.2604H75.2801V89.0404H73.0801Z" fill="#3F8624"/>
<path d="M84.34 89.0404V75.2604H80.46V73.4404H90.46V75.2604H86.46V89.0404H84.34Z" fill="#3F8624"/>
<path d="M31.24 96.6602H15.24C11.9972 96.6602 8.88695 95.3733 6.59208 93.0822C4.2972 90.7911 3.0053 87.6829 3 84.4402V14.8802C3.00529 11.6408 4.29445 8.5357 6.585 6.24515C8.87555 3.9546 11.9807 2.66544 15.22 2.66016H84.78C88.0193 2.66544 91.1245 3.9546 93.415 6.24515C95.7056 8.5357 96.9947 11.6408 97 14.8802V60.8802H93V14.8802C93 12.7001 92.134 10.6093 90.5924 9.06774C89.0509 7.52619 86.9601 6.66016 84.78 6.66016H15.22C13.0399 6.66016 10.9491 7.52619 9.40758 9.06774C7.86603 10.6093 7 12.7001 7 14.8802V84.4402C7 86.6202 7.86603 88.711 9.40758 90.2526C10.9491 91.7941 13.0399 92.6602 15.22 92.6602H31.22L31.24 96.6602Z" fill="#3F8624"/>
<path d="M96.9999 96.66H34.8799V64.54H96.9999V96.66ZM38.8799 92.66H92.9999V68.54H38.8799V92.66Z" fill="#3F8624"/>
<path d="M96.9999 96.6604H84.7799V92.6604H92.9999V84.4404H96.9999V96.6604Z" fill="#3F8624"/>
</svg>
