<svg width="100" height="100" viewBox="0 0 100 100" fill="none" xmlns="http://www.w3.org/2000/svg">
<path d="M76.66 57.7398H55.62V53.7398H76.5C76.8 53.7398 87.78 52.6198 87.78 41.4398C87.78 32.0398 79.92 29.6998 76.54 29.1398C76.034 29.0559 75.5796 28.7808 75.2706 28.3713C74.9617 27.9619 74.8218 27.4494 74.88 26.9398C74.48 21.2398 71.1 18.5998 67.92 18.5998C66.9244 18.616 65.9465 18.865 65.0643 19.3269C64.1822 19.7888 63.4205 20.4507 62.84 21.2598C62.6177 21.57 62.3113 21.8103 61.9569 21.952C61.6025 22.0938 61.215 22.1312 60.84 22.0598C60.4781 22.007 60.1376 21.8561 59.8555 21.6234C59.5734 21.3907 59.3605 21.085 59.24 20.7398C58.1848 17.6357 56.4492 14.8068 54.16 12.4598C51.5654 9.765 48.2034 7.93522 44.5317 7.21948C40.8599 6.50374 37.0568 6.93682 33.64 8.45975C30.508 9.95957 27.8492 12.2924 25.9548 15.2028C24.0605 18.1131 23.0036 21.4887 22.9 24.9598C22.9017 25.7146 22.9417 26.4689 23.02 27.2198C23.0742 27.6976 22.9544 28.1789 22.6826 28.5756C22.4108 28.9723 22.0052 29.2578 21.54 29.3798C18.7844 29.9031 16.3118 31.4071 14.5799 33.6134C12.8479 35.8196 11.9741 38.5787 12.12 41.3798C12.12 41.7598 12.12 42.0998 12.12 42.4398C12.4081 45.5795 13.8776 48.4927 16.2315 50.5904C18.5854 52.6881 21.648 53.8138 24.8 53.7398H44.26V57.7398H24.92C20.7478 57.8099 16.705 56.2908 13.6114 53.4905C10.5177 50.6902 8.60464 46.8183 8.26003 42.6598C8.26003 42.2198 8.26003 41.8198 8.26003 41.3798C8.11798 37.9908 9.09441 34.6492 11.0388 31.8699C12.9832 29.0906 15.7877 27.028 19.02 25.9998C19.02 25.6398 19.02 25.2998 19.02 24.9598C19.1247 20.701 20.4131 16.5555 22.741 12.9878C25.0688 9.42001 28.3442 6.57093 32.2 4.75975C36.3458 2.93488 40.9513 2.42432 45.3962 3.29684C49.841 4.16936 53.9117 6.38305 57.06 9.63975C59.1041 11.6504 60.7765 14.0067 62 16.5998C63.731 15.3015 65.8363 14.5998 68 14.5998C72.6 14.5998 77.78 18.0198 78.82 25.4998C85.38 27.1198 91.86 32.0198 91.86 41.4998C91.9275 45.6495 90.3798 49.663 87.5437 52.6931C84.7076 55.7233 80.8051 57.5328 76.66 57.7398Z" fill="#3F8624"/>
<path d="M91.2399 97.1398H8.75989C8.22945 97.1398 7.72075 96.929 7.34567 96.554C6.9706 96.1789 6.75989 95.6702 6.75989 95.1398V70.7598C6.75989 70.2293 6.9706 69.7206 7.34567 69.3456C7.72075 68.9705 8.22945 68.7598 8.75989 68.7598H91.2399C91.7703 68.7598 92.279 68.9705 92.6541 69.3456C93.0292 69.7206 93.2399 70.2293 93.2399 70.7598V95.1398C93.2399 95.6702 93.0292 96.1789 92.6541 96.554C92.279 96.929 91.7703 97.1398 91.2399 97.1398ZM10.7599 93.1398H89.2399V72.7598H10.7599V93.1398Z" fill="#3F8624"/>
<path d="M22.8199 89.9999C21.4236 89.9999 20.0586 89.5858 18.8976 88.8101C17.7366 88.0343 16.8317 86.9317 16.2973 85.6416C15.7629 84.3516 15.6231 82.932 15.8955 81.5625C16.168 80.193 16.8404 78.9351 17.8277 77.9477C18.8151 76.9603 20.073 76.288 21.4426 76.0155C22.8121 75.7431 24.2316 75.8829 25.5216 76.4173C26.8117 76.9517 27.9143 77.8566 28.6901 79.0176C29.4658 80.1786 29.8799 81.5435 29.8799 82.9399C29.8799 84.8123 29.1361 86.608 27.8121 87.9321C26.4881 89.2561 24.6923 89.9999 22.8199 89.9999ZM22.8199 79.8799C22.2147 79.8799 21.6231 80.0594 21.1198 80.3956C20.6166 80.7318 20.2244 81.2097 19.9928 81.7689C19.7612 82.328 19.7006 82.9433 19.8187 83.5369C19.9368 84.1304 20.2282 84.6757 20.6561 85.1036C21.0841 85.5316 21.6293 85.823 22.2229 85.9411C22.8165 86.0592 23.4318 85.9986 23.9909 85.767C24.55 85.5354 25.028 85.1431 25.3642 84.6399C25.7004 84.1367 25.8799 83.5451 25.8799 82.9399C25.8799 82.1283 25.5575 81.35 24.9836 80.7761C24.4098 80.2023 23.6315 79.8799 22.8199 79.8799Z" fill="#3F8624"/>
<path d="M57.4999 89.4998H42.4999C42.1318 89.4971 41.7717 89.3929 41.459 89.1986C41.1464 89.0044 40.8935 88.7276 40.728 88.3988C40.5626 88.07 40.4911 87.702 40.5214 87.3352C40.5518 86.9683 40.6827 86.617 40.8999 86.3198L48.3999 76.1398C48.5862 75.8915 48.8277 75.6899 49.1055 75.551C49.3832 75.4121 49.6894 75.3398 49.9999 75.3398C50.3104 75.3398 50.6166 75.4121 50.8943 75.551C51.172 75.6899 51.4136 75.8915 51.5999 76.1398L59.0999 86.3198C59.317 86.617 59.448 86.9683 59.4783 87.3352C59.5086 87.702 59.4371 88.07 59.2717 88.3988C59.1063 88.7276 58.8533 89.0044 58.5407 89.1986C58.2281 89.3929 57.8679 89.4971 57.4999 89.4998ZM46.4599 85.4998H53.5399L49.9999 80.6998L46.4599 85.4998Z" fill="#3F8624"/>
<path d="M56 47.8003L50 41.8003L44 47.8003L41.16 44.9803L48.66 37.4803C48.846 37.2928 49.0672 37.144 49.3109 37.0425C49.5546 36.9409 49.816 36.8887 50.08 36.8887C50.3441 36.8887 50.6055 36.9409 50.8492 37.0425C51.0929 37.144 51.3141 37.2928 51.5 37.4803L59 44.9803L56 47.8003Z" fill="#3F8624"/>
<path d="M52 39.7803H48V68.7403H52V39.7803Z" fill="#3F8624"/>
</svg>
