<svg width="100" height="100" viewBox="0 0 100 100" fill="none" xmlns="http://www.w3.org/2000/svg">
<path d="M95 73.6796H5C4.46957 73.6796 3.96086 73.4689 3.58579 73.0938C3.21071 72.7187 3 72.21 3 71.6796V21.0596C3 20.5291 3.21071 20.0204 3.58579 19.6454C3.96086 19.2703 4.46957 19.0596 5 19.0596H95C95.5304 19.0596 96.0391 19.2703 96.4142 19.6454C96.7893 20.0204 97 20.5291 97 21.0596V71.6796C97 72.21 96.7893 72.7187 96.4142 73.0938C96.0391 73.4689 95.5304 73.6796 95 73.6796ZM7 69.6796H93V23.0596H7V69.6796Z" fill="#3F8624"/>
<path d="M52 71.6797H48V82.9397H52V71.6797Z" fill="#3F8624"/>
<path d="M63.1199 80.9404H36.8799V84.9404H63.1199V80.9404Z" fill="#3F8624"/>
<path fill-rule="evenodd" clip-rule="evenodd" d="M78.7801 46.1598C70.2899 51.9228 60.2614 54.9962 50.0001 54.9798C36.9675 55.0672 24.3744 50.2726 14.7001 41.5398C13.9601 40.8798 14.7001 39.9798 15.4801 40.4998C26.2226 46.6229 38.375 49.842 50.7401 49.8398C59.9819 49.8003 69.1244 47.931 77.6401 44.3398C78.9601 43.7798 80.0001 45.2198 78.7801 46.1598Z" fill="#3F8624"/>
<path fill-rule="evenodd" clip-rule="evenodd" d="M82.0001 42.4604C81.0001 41.1804 75.4001 41.8604 72.9001 42.1604C72.1401 42.1604 72.0201 41.5804 72.7001 41.1004C77.1601 37.9604 84.4801 38.8604 85.3401 39.9204C86.2001 40.9804 85.1001 48.3204 80.9201 51.8204C80.2801 52.3604 79.6601 52.0604 79.9601 51.3604C80.9201 49.0004 83.0201 43.7404 82.0001 42.4604Z" fill="#3F8624"/>
</svg>
