<svg width="100" height="100" viewBox="0 0 100 100" fill="none" xmlns="http://www.w3.org/2000/svg">
<path d="M81.5399 87.5598H18.3199C16.7286 87.5598 15.2025 86.9277 14.0772 85.8025C12.952 84.6773 12.3199 83.1511 12.3199 81.5598V18.3398C12.3199 16.7485 12.952 15.2224 14.0772 14.0972C15.2025 12.972 16.7286 12.3398 18.3199 12.3398H81.5399C83.1312 12.3398 84.6573 12.972 85.7825 14.0972C86.9077 15.2224 87.5399 16.7485 87.5399 18.3398V81.5598C87.5399 83.1511 86.9077 84.6773 85.7825 85.8025C84.6573 86.9277 83.1312 87.5598 81.5399 87.5598ZM18.3199 16.3398C17.7895 16.3398 17.2807 16.5506 16.9057 16.9256C16.5306 17.3007 16.3199 17.8094 16.3199 18.3398V81.5598C16.3199 82.0903 16.5306 82.599 16.9057 82.9741C17.2807 83.3491 17.7895 83.5598 18.3199 83.5598H81.5399C82.0703 83.5598 82.579 83.3491 82.9541 82.9741C83.3292 82.599 83.5399 82.0903 83.5399 81.5598V18.3398C83.5399 17.8094 83.3292 17.3007 82.9541 16.9256C82.579 16.5506 82.0703 16.3398 81.5399 16.3398H18.3199Z" fill="#3F8624"/>
<path d="M29.4399 3.05957H25.4399V14.3196H29.4399V3.05957Z" fill="#3F8624"/>
<path d="M40.6801 3.05957H36.6801V14.3196H40.6801V3.05957Z" fill="#3F8624"/>
<path d="M51.9399 3.05957H47.9399V14.3196H51.9399V3.05957Z" fill="#3F8624"/>
<path d="M63.1801 3.05957H59.1801V14.3196H63.1801V3.05957Z" fill="#3F8624"/>
<path d="M74.4399 3.05957H70.4399V14.3196H74.4399V3.05957Z" fill="#3F8624"/>
<path d="M29.4399 85.5596H25.4399V96.8196H29.4399V85.5596Z" fill="#3F8624"/>
<path d="M40.6801 85.5596H36.6801V96.8196H40.6801V85.5596Z" fill="#3F8624"/>
<path d="M51.9399 85.5596H47.9399V96.8196H51.9399V85.5596Z" fill="#3F8624"/>
<path d="M63.1801 85.5596H59.1801V96.8196H63.1801V85.5596Z" fill="#3F8624"/>
<path d="M74.4399 85.5596H70.4399V96.8196H74.4399V85.5596Z" fill="#3F8624"/>
<path d="M14.3201 25.4404H3.06006V29.4404H14.3201V25.4404Z" fill="#3F8624"/>
<path d="M14.3201 36.6797H3.06006V40.6797H14.3201V36.6797Z" fill="#3F8624"/>
<path d="M14.3201 47.9404H3.06006V51.9404H14.3201V47.9404Z" fill="#3F8624"/>
<path d="M14.3201 59.1797H3.06006V63.1797H14.3201V59.1797Z" fill="#3F8624"/>
<path d="M14.3201 70.4404H3.06006V74.4404H14.3201V70.4404Z" fill="#3F8624"/>
<path d="M96.8201 25.4404H85.5601V29.4404H96.8201V25.4404Z" fill="#3F8624"/>
<path d="M96.8201 36.6797H85.5601V40.6797H96.8201V36.6797Z" fill="#3F8624"/>
<path d="M96.8201 47.9404H85.5601V51.9404H96.8201V47.9404Z" fill="#3F8624"/>
<path d="M96.8201 59.1797H85.5601V63.1797H96.8201V59.1797Z" fill="#3F8624"/>
<path d="M96.8201 70.4404H85.5601V74.4404H96.8201V70.4404Z" fill="#3F8624"/>
<path d="M50.0001 79.1197C44.2237 79.1316 38.5738 77.4288 33.766 74.227C28.9582 71.0252 25.2088 66.4686 22.9928 61.1342C20.7768 55.7998 20.1939 49.9277 21.3179 44.2617C22.4419 38.5958 25.2223 33.3909 29.3068 29.3064C33.3913 25.2219 38.5962 22.4415 44.2621 21.3175C49.9281 20.1935 55.8001 20.7765 61.1345 22.9925C66.4689 25.2085 71.0256 28.9578 74.2274 33.7656C77.4291 38.5734 79.1319 44.2234 79.1201 49.9997C79.099 57.7163 76.0242 65.1109 70.5677 70.5673C65.1112 76.0238 57.7167 79.0986 50.0001 79.1197ZM50.0001 24.7597C45.02 24.7479 40.1482 26.2131 36.0008 28.97C31.8534 31.7269 28.6166 35.6518 26.6999 40.2483C24.7831 44.8448 24.2724 49.9064 25.2324 54.7932C26.1923 59.6799 28.5797 64.1723 32.0928 67.7021C35.6059 71.232 40.0868 73.6408 44.9689 74.624C49.851 75.6073 54.9151 75.1207 59.5206 73.2258C64.1262 71.331 68.0665 68.113 70.8431 63.9788C73.6198 59.8446 75.1082 54.9798 75.1201 49.9997C75.128 46.693 74.4845 43.4172 73.2263 40.3592C71.9682 37.3012 70.1201 34.5209 67.7875 32.1772C65.4549 29.8334 62.6835 27.9721 59.6315 26.6994C56.5795 25.4267 53.3068 24.7676 50.0001 24.7597Z" fill="#3F8624"/>
<path d="M51.9399 34.9404H47.9399V61.2004H51.9399V34.9404Z" fill="#3F8624"/>
<path d="M49.9399 36.6797H44.3199V40.6797H49.9399V36.6797Z" fill="#3F8624"/>
<path d="M49.9399 44.1797H44.3199V48.1797H49.9399V44.1797Z" fill="#3F8624"/>
<path d="M49.9399 51.6797H44.3199V55.6797H49.9399V51.6797Z" fill="#3F8624"/>
<path d="M49.9999 71.6197C48.6731 71.6237 47.3749 71.2336 46.2701 70.4989C45.1652 69.7642 44.3033 68.718 43.7937 67.4929C43.2842 66.2679 43.1498 64.9191 43.4077 63.6175C43.6656 62.316 44.3041 61.1203 45.2423 60.1821C46.1805 59.2439 47.3762 58.6054 48.6777 58.3475C49.9792 58.0896 51.328 58.224 52.5531 58.7336C53.7782 59.2431 54.8244 60.105 55.5591 61.2099C56.2937 62.3147 56.6838 63.6129 56.6799 64.9397C56.6746 66.7097 55.9691 68.4057 54.7175 69.6573C53.4659 70.9089 51.7699 71.6144 49.9999 71.6197ZM49.9999 62.2397C49.6271 62.2075 49.2518 62.2532 48.8976 62.3738C48.5434 62.4943 48.2181 62.6872 47.9425 62.9401C47.6668 63.193 47.4466 63.5005 47.2961 63.843C47.1455 64.1855 47.0677 64.5556 47.0677 64.9297C47.0677 65.3038 47.1455 65.6739 47.2961 66.0164C47.4466 66.3589 47.6668 66.6663 47.9425 66.9193C48.2181 67.1722 48.5434 67.3651 48.8976 67.4856C49.2518 67.6062 49.6271 67.6519 49.9999 67.6197C50.6733 67.5616 51.3004 67.253 51.7573 66.755C52.2142 66.2569 52.4677 65.6056 52.4677 64.9297C52.4677 64.2538 52.2142 63.6025 51.7573 63.1044C51.3004 62.6064 50.6733 62.2978 49.9999 62.2397Z" fill="#3F8624"/>
<path d="M73.9841 38.8397L67.4462 41.2842L68.847 45.0309L75.385 42.5864L73.9841 38.8397Z" fill="#3F8624"/>
<path d="M59.0888 25.0828L56.1915 31.4551L59.8328 33.1107L62.73 26.7384L59.0888 25.0828Z" fill="#3F8624"/>
<path d="M42.5856 24.5103L38.8389 25.9111L41.2833 32.4491L45.03 31.0483L42.5856 24.5103Z" fill="#3F8624"/>
<path d="M26.739 37.1416L25.084 40.7832L31.4568 43.6794L33.1118 40.0378L26.739 37.1416Z" fill="#3F8624"/>
</svg>
