<svg width="100" height="100" viewBox="0 0 100 100" fill="none" xmlns="http://www.w3.org/2000/svg">
<path d="M84.0999 97.0004H15.9999C14.2975 97.0136 12.6092 96.6897 11.0326 96.0473C9.45591 95.4049 8.022 94.4568 6.81351 93.2576C5.60502 92.0584 4.64586 90.6319 3.99133 89.0602C3.3368 87.4886 2.99985 85.8029 2.9999 84.1004V16.0004C2.98659 14.2895 3.31375 12.593 3.96235 11.0098C4.61094 9.42655 5.56801 7.98815 6.77783 6.77832C7.98766 5.5685 9.42606 4.61143 11.0093 3.96284C12.5926 3.31424 14.289 2.98708 15.9999 3.00039H84.1999C85.894 3.01347 87.5689 3.36011 89.129 4.02051C90.6891 4.68091 92.1038 5.64214 93.2924 6.84931C94.481 8.05648 95.4202 9.48596 96.0563 11.0561C96.6925 12.6263 97.0131 14.3063 96.9999 16.0004V84.2004C96.9735 87.6043 95.6028 90.8599 93.1864 93.2575C90.77 95.6551 87.5039 97.0005 84.0999 97.0004ZM15.9999 7.00039C14.815 6.98972 13.6399 7.21522 12.5432 7.66373C11.4464 8.11224 10.45 8.77477 9.61215 9.61264C8.77429 10.4505 8.11175 11.4469 7.66324 12.5437C7.21473 13.6404 6.98923 14.8155 6.9999 16.0004V84.2004C7.03154 86.5592 7.99627 88.8094 9.68297 90.4586C11.3697 92.1078 13.641 93.0218 15.9999 93.0004H84.1999C86.5587 92.9951 88.8194 92.0557 90.4873 90.3878C92.1552 88.7199 93.0946 86.4592 93.0999 84.1004V16.0004C93.1106 14.8155 92.8851 13.6404 92.4366 12.5437C91.9881 11.4469 91.3255 10.4505 90.4877 9.61264C89.6498 8.77477 88.6534 8.11224 87.5566 7.66373C86.4599 7.21522 85.2848 6.98972 84.0999 7.00039H15.9999Z" fill="#3F8624"/>
<path d="M45.3 81.62C44.8308 81.637 44.3706 81.4883 44 81.2C43.758 81.0137 43.5618 80.7744 43.4266 80.5006C43.2914 80.2267 43.2207 79.9255 43.22 79.62V73.62C43.2161 72.9793 43.0246 72.3537 42.6692 71.8206C42.3137 71.2874 41.8099 70.8701 41.22 70.62C37.4822 69.0325 34.2447 66.4613 31.8521 63.18C29.4595 59.8987 28.0013 56.0301 27.6328 51.9859C27.2642 47.9417 27.999 43.8732 29.7589 40.2134C31.5189 36.5536 34.2382 33.4395 37.6275 31.2024C41.0167 28.9653 44.9491 27.689 49.0061 27.5093C53.0631 27.3296 57.0929 28.2532 60.6666 30.1818C64.2404 32.1104 67.2245 34.9719 69.3012 38.4617C71.3779 41.9515 72.4695 45.9391 72.46 50C72.46 64.3 61.24 77.58 45.8 81.56L45.3 81.62ZM50 31.62C45.7758 31.6656 41.6951 33.1585 38.4388 35.8497C35.1826 38.5409 32.9479 42.2675 32.1077 46.4076C31.2675 50.5476 31.8727 54.8505 33.8223 58.5982C35.7718 62.3458 38.9478 65.3114 42.82 67C44.1404 67.5502 45.2695 68.4772 46.0663 69.6652C46.863 70.8532 47.2921 72.2496 47.3 73.68V76.94C59.7 72.7 68.46 61.74 68.46 50C68.4547 45.1058 66.5081 40.4135 63.0473 36.9527C59.5866 33.4919 54.8943 31.5453 50 31.54V31.62Z" fill="#3F8624"/>
<path d="M50 82C42.2091 82.0127 34.6813 79.1827 28.8283 74.0408C22.9752 68.8989 19.199 61.7984 18.2079 54.0709C17.2168 46.3434 19.0789 38.5197 23.4449 32.0672C27.8109 25.6147 34.3809 20.9765 41.9227 19.0227C49.4646 17.0689 57.4602 17.9335 64.41 21.4545C71.3598 24.9754 76.7864 30.9109 79.672 38.1476C82.5576 45.3843 82.7041 53.4251 80.0839 60.7621C77.4637 68.0992 72.2569 74.2283 65.44 78C60.7167 80.6233 55.4029 82 50 82ZM50 22C44.4621 22 39.0486 23.6422 34.444 26.7189C29.8394 29.7955 26.2506 34.1685 24.1313 39.2849C22.0121 44.4012 21.4576 50.0311 22.538 55.4625C23.6184 60.894 26.2851 65.8831 30.201 69.799C34.1168 73.7149 39.106 76.3816 44.5374 77.462C49.9689 78.5424 55.5988 77.9879 60.7151 75.8686C65.8314 73.7494 70.2044 70.1605 73.2811 65.556C76.3578 60.9514 78 55.5379 78 50C78 42.5739 75.05 35.452 69.7989 30.201C64.5479 24.95 57.426 22 50 22Z" fill="#3F8624"/>
</svg>
