<svg width="100" height="100" viewBox="0 0 100 100" fill="none" xmlns="http://www.w3.org/2000/svg">
<path d="M76.66 57.7598H24.92C20.7478 57.8299 16.705 56.3108 13.6113 53.5105C10.5177 50.7103 8.6046 46.8383 8.25999 42.6798C8.25999 42.2598 8.25999 41.8398 8.25999 41.3998C8.11685 38.0082 9.09252 34.6636 11.0368 31.8809C12.981 29.0982 15.7861 27.0318 19.02 25.9998C19.02 25.6398 19.02 25.2998 19.02 24.9598C19.1178 20.6994 20.4034 16.551 22.7321 12.982C25.0608 9.41304 28.3399 6.56533 32.2 4.75979C36.3479 2.94636 40.9505 2.44196 45.3928 3.31397C49.835 4.18598 53.9054 6.39287 57.06 9.63979C58.2516 10.7961 59.2992 12.0922 60.18 13.4998L56.8 15.6398C56.0792 14.4912 55.2268 13.4307 54.26 12.4798C51.6574 9.79077 48.2922 7.96531 44.619 7.24998C40.9457 6.53464 37.1415 6.96391 33.72 8.47979C30.5929 9.98936 27.9399 12.3278 26.0498 15.2407C24.1596 18.1535 23.1047 21.529 23 24.9998C22.9986 25.7553 23.0454 26.5102 23.14 27.2598C23.1933 27.7403 23.0707 28.2239 22.7949 28.621C22.5191 29.0181 22.1089 29.3019 21.64 29.4198C18.8863 29.947 16.4161 31.4521 14.6849 33.6574C12.9537 35.8628 12.0783 38.6197 12.22 41.4198C12.22 41.7798 12.22 42.1398 12.22 42.4798C12.5081 45.6195 13.9776 48.5328 16.3315 50.6305C18.6853 52.7282 21.7479 53.8538 24.9 53.7798H76.48C76.78 53.7798 87.76 52.6598 87.76 41.4998C87.76 32.1198 79.9 29.7398 76.5 29.1598C76.0053 29.0716 75.5618 28.8005 75.258 28.4002C74.9541 28 74.812 27.5 74.86 26.9998C74.4 21.2998 71.3 18.9998 68.52 18.6798L68.94 14.6798C72.94 15.0998 77.72 18.1998 78.72 25.5198C83.12 26.6198 91.76 30.2398 91.76 41.5198C91.8285 45.6531 90.2946 49.6525 87.4797 52.68C84.6648 55.7074 80.7874 57.5278 76.66 57.7598Z" fill="#3F8624"/>
<path d="M65.0001 97.1398H33.1201C32.5897 97.1398 32.081 96.9291 31.7059 96.554C31.3308 96.1789 31.1201 95.6702 31.1201 95.1398V63.2598C31.1201 62.7293 31.3308 62.2206 31.7059 61.8456C32.081 61.4705 32.5897 61.2598 33.1201 61.2598H65.0001C65.5305 61.2598 66.0393 61.4705 66.4143 61.8456C66.7894 62.2206 67.0001 62.7293 67.0001 63.2598V95.1398C67.0001 95.6702 66.7894 96.1789 66.4143 96.554C66.0393 96.9291 65.5305 97.1398 65.0001 97.1398ZM35.1201 93.1398H63.0001V65.2598H35.1201V93.1398Z" fill="#3F8624"/>
<path d="M43.4401 78.8599C42.2099 78.8599 41.0073 78.4951 39.9844 77.8117C38.9616 77.1282 38.1643 76.1568 37.6936 75.0202C37.2228 73.8837 37.0996 72.633 37.3396 71.4265C37.5796 70.2199 38.172 69.1116 39.0419 68.2417C39.9118 67.3718 41.0201 66.7794 42.2266 66.5394C43.4332 66.2994 44.6838 66.4226 45.8204 66.8934C46.9569 67.3642 47.9284 68.1614 48.6118 69.1843C49.2953 70.2072 49.6601 71.4097 49.6601 72.6399C49.6601 74.2896 49.0048 75.8716 47.8383 77.0381C46.6718 78.2046 45.0897 78.8599 43.4401 78.8599ZM43.4401 70.4199C43.001 70.4199 42.5718 70.5501 42.2067 70.7941C41.8417 71.038 41.5571 71.3847 41.3891 71.7904C41.2211 72.196 41.1771 72.6424 41.2628 73.073C41.3484 73.5037 41.5598 73.8992 41.8703 74.2097C42.1808 74.5202 42.5764 74.7316 43.007 74.8173C43.4376 74.9029 43.884 74.859 44.2897 74.6909C44.6953 74.5229 45.042 74.2384 45.286 73.8733C45.5299 73.5082 45.6601 73.079 45.6601 72.6399C45.6601 72.0511 45.4262 71.4865 45.0099 71.0701C44.5935 70.6538 44.0289 70.4199 43.4401 70.4199Z" fill="#3F8624"/>
<path d="M64.9199 70.7197H47.9199V74.7197H64.9199V70.7197Z" fill="#3F8624"/>
<path d="M54.68 91.9996C53.4498 91.9996 52.2472 91.6348 51.2243 90.9513C50.2014 90.2679 49.4042 89.2964 48.9334 88.1599C48.4627 87.0233 48.3395 85.7727 48.5795 84.5661C48.8195 83.3595 49.4119 82.2513 50.2818 81.3814C51.1516 80.5115 52.2599 79.9191 53.4665 79.6791C54.6731 79.4391 55.9237 79.5623 57.0603 80.033C58.1968 80.5038 59.1682 81.3011 59.8517 82.3239C60.5352 83.3468 60.9 84.5494 60.9 85.7796C60.8947 87.4276 60.2377 89.0066 59.0723 90.172C57.907 91.3373 56.328 91.9943 54.68 91.9996ZM54.68 83.5596C54.2409 83.5596 53.8117 83.6898 53.4466 83.9337C53.0815 84.1776 52.797 84.5244 52.629 84.93C52.4609 85.3357 52.417 85.782 52.5026 86.2127C52.5883 86.6433 52.7997 87.0389 53.1102 87.3494C53.4207 87.6598 53.8162 87.8713 54.2469 87.9569C54.6775 88.0426 55.1239 87.9986 55.5295 87.8306C55.9352 87.6626 56.2819 87.378 56.5258 87.0129C56.7698 86.6479 56.9 86.2186 56.9 85.7796C56.9026 85.4864 56.8471 85.1955 56.7368 84.9239C56.6264 84.6522 56.4633 84.4051 56.2569 84.1969C56.0504 83.9886 55.8048 83.8233 55.5342 83.7105C55.2635 83.5976 54.9732 83.5396 54.68 83.5396V83.5596Z" fill="#3F8624"/>
<path d="M50.3001 83.6797H33.2001V87.6797H50.3001V83.6797Z" fill="#3F8624"/>
<path d="M63.12 50.4198H35C34.4696 50.4198 33.9609 50.2091 33.5858 49.834C33.2107 49.4589 33 48.9502 33 48.4198V20.2998C33 19.7694 33.2107 19.2607 33.5858 18.8856C33.9609 18.5105 34.4696 18.2998 35 18.2998H63.12C63.3826 18.2998 63.6427 18.3515 63.8854 18.452C64.128 18.5526 64.3485 18.6999 64.5342 18.8856C64.7199 19.0713 64.8672 19.2918 64.9678 19.5344C65.0683 19.7771 65.12 20.0372 65.12 20.2998V48.4198C65.12 48.6824 65.0683 48.9425 64.9678 49.1852C64.8672 49.4278 64.7199 49.6483 64.5342 49.834C64.3485 50.0197 64.128 50.167 63.8854 50.2676C63.6427 50.3681 63.3826 50.4198 63.12 50.4198ZM37 46.4198H61.12V22.2998H37V46.4198Z" fill="#3F8624"/>
<path d="M45.3 34.8002C44.2509 34.8041 43.2242 34.4966 42.35 33.9167C41.4758 33.3367 40.7934 32.5104 40.3892 31.5423C39.985 30.5742 39.8772 29.5079 40.0794 28.4785C40.2816 27.4491 40.7848 26.5028 41.5252 25.7596C42.2657 25.0164 43.21 24.5096 44.2386 24.3035C45.2673 24.0974 46.3339 24.2012 47.3036 24.6017C48.2732 25.0023 49.1021 25.6816 49.6854 26.5536C50.2686 27.4256 50.58 28.4511 50.58 29.5002C50.58 30.9023 50.0243 32.2474 49.0347 33.2408C48.0451 34.2341 46.7022 34.7949 45.3 34.8002ZM45.3 28.2202C45.0412 28.2162 44.7871 28.2896 44.5703 28.4309C44.3535 28.5722 44.1838 28.775 44.0829 29.0134C43.9821 29.2517 43.9546 29.5147 44.0042 29.7688C44.0537 30.0228 44.1779 30.2562 44.3609 30.4392C44.5439 30.6223 44.7774 30.7465 45.0314 30.796C45.2854 30.8455 45.5484 30.8181 45.7868 30.7172C46.0251 30.6164 46.2279 30.4466 46.3692 30.2298C46.5106 30.013 46.5839 29.7589 46.58 29.5002C46.58 29.1607 46.4451 28.8351 46.2051 28.5951C45.965 28.355 45.6395 28.2202 45.3 28.2202Z" fill="#3F8624"/>
<path d="M63.2201 27.5H48.2201V31.5H63.2201V27.5Z" fill="#3F8624"/>
<path d="M52.8601 44.1996C51.8158 44.1996 50.795 43.89 49.9267 43.3098C49.0584 42.7296 48.3816 41.905 47.982 40.9402C47.5824 39.9754 47.4778 38.9138 47.6815 37.8896C47.8853 36.8654 48.3881 35.9245 49.1266 35.1861C49.865 34.4477 50.8058 33.9448 51.83 33.7411C52.8542 33.5374 53.9159 33.6419 54.8806 34.0416C55.8454 34.4412 56.6701 35.1179 57.2502 35.9862C57.8304 36.8545 58.1401 37.8754 58.1401 38.9196C58.1401 40.32 57.5838 41.663 56.5936 42.6532C55.6034 43.6434 54.2604 44.1996 52.8601 44.1996ZM52.8601 37.6396C52.5206 37.6396 52.195 37.7745 51.955 38.0146C51.7149 38.2546 51.5801 38.5802 51.5801 38.9196C51.5801 39.2591 51.7149 39.5847 51.955 39.8247C52.195 40.0648 52.5206 40.1996 52.8601 40.1996C53.1996 40.1996 53.5251 40.0648 53.7652 39.8247C54.0052 39.5847 54.1401 39.2591 54.1401 38.9196C54.1401 38.5802 54.0052 38.2546 53.7652 38.0146C53.5251 37.7745 53.1996 37.6396 52.8601 37.6396Z" fill="#3F8624"/>
<path d="M49.24 36.9199H35.02V40.9199H49.24V36.9199Z" fill="#3F8624"/>
</svg>
