<svg width="100" height="100" viewBox="0 0 100 100" fill="none" xmlns="http://www.w3.org/2000/svg">
<path d="M80.1401 65.1199H21.6201C16.9532 65.1755 12.4392 63.4574 8.99032 60.3129C5.54141 57.1685 3.41475 52.832 3.04008 48.1799C3.04008 47.6999 3.04008 47.2199 3.04008 46.7199C2.84321 42.8762 3.94263 39.0778 6.16208 35.9336C8.38153 32.7894 11.5925 30.4815 15.2801 29.3799C15.2801 28.9199 15.2801 28.4599 15.2801 27.9999C15.3814 23.1987 16.8104 18.5195 19.4086 14.4809C22.0069 10.4423 25.6729 7.20219 30.0001 5.11985C34.6451 3.076 39.8067 2.51129 44.7838 3.50241C49.7609 4.49354 54.3123 6.99247 57.8201 10.6599C60.1499 13.0311 62.0454 15.7931 63.4201 18.8199C64.8033 17.707 66.4345 16.9442 68.1753 16.596C69.9161 16.2478 71.7153 16.3246 73.4201 16.8199C78.3001 18.2399 81.5601 22.6599 82.3601 28.8199C89.7401 30.5999 97.0801 36.1199 97.0801 46.8199C97.0001 60.1999 86.0001 64.6399 80.1401 65.1199ZM17.7201 32.7399C14.5478 33.3932 11.7175 35.1685 9.74843 37.7401C7.77935 40.3116 6.80356 43.507 7.00008 46.7399C7.00008 47.1599 7.00008 47.5599 7.00008 47.9399C7.29928 51.5804 8.9727 54.9706 11.6806 57.4222C14.3885 59.8737 17.9278 61.2029 21.5801 61.1399H79.9401C80.3001 61.1399 92.9601 59.8599 92.9601 46.8199C92.9601 35.8799 83.9001 33.1399 80.0001 32.4599C79.4939 32.3714 79.0411 32.0914 78.7358 31.6781C78.4304 31.2647 78.2959 30.7497 78.3601 30.2399C77.9601 25.2999 75.6601 21.7599 72.1801 20.7399C70.7149 20.3221 69.1558 20.3733 67.7212 20.8862C66.2865 21.3991 65.0483 22.3479 64.1801 23.5999C63.9648 23.8935 63.6734 24.1228 63.3374 24.263C63.0013 24.4033 62.6334 24.4491 62.2732 24.3956C61.9131 24.3421 61.5743 24.1912 61.2936 23.9594C61.0128 23.7275 60.8007 23.4234 60.6801 23.0799C59.4749 19.4897 57.4792 16.2159 54.8401 13.4999C51.9048 10.4119 48.0891 8.30388 43.9125 7.46284C39.736 6.62181 35.4017 7.08867 31.5001 8.79985C27.8914 10.571 24.837 13.2971 22.6685 16.682C20.5001 20.0669 19.3005 23.9812 19.2001 27.9999C19.1936 28.8692 19.247 29.7379 19.3601 30.5999C19.4161 31.0919 19.2875 31.5872 18.9994 31.9899C18.7112 32.3926 18.2839 32.6741 17.8001 32.7799L17.7201 32.7399Z" fill="#3F8624"/>
<path d="M80.0001 57.6199H18.1201C17.5897 57.6199 17.081 57.4092 16.7059 57.0341C16.3308 56.659 16.1201 56.1503 16.1201 55.6199V36.8799C16.1201 36.3494 16.3308 35.8407 16.7059 35.4657C17.081 35.0906 17.5897 34.8799 18.1201 34.8799H80.0001C80.5305 34.8799 81.0392 35.0906 81.4143 35.4657C81.7894 35.8407 82.0001 36.3494 82.0001 36.8799V55.6199C82.0001 56.1503 81.7894 56.659 81.4143 57.0341C81.0392 57.4092 80.5305 57.6199 80.0001 57.6199ZM20.1201 53.6199H78.0001V38.8799H20.1201V53.6199Z" fill="#3F8624"/>
<path d="M27.5 52.2803C26.3133 52.2803 25.1533 51.9284 24.1666 51.2691C23.1799 50.6098 22.4109 49.6727 21.9567 48.5764C21.5026 47.48 21.3838 46.2736 21.6153 45.1097C21.8468 43.9458 22.4182 42.8768 23.2574 42.0376C24.0965 41.1985 25.1656 40.6271 26.3295 40.3956C27.4933 40.1641 28.6997 40.2829 29.7961 40.737C30.8925 41.1911 31.8295 41.9602 32.4888 42.9469C33.1481 43.9336 33.5 45.0936 33.5 46.2803C33.5 47.8716 32.8679 49.3977 31.7426 50.5229C30.6174 51.6481 29.0913 52.2803 27.5 52.2803ZM27.5 44.2803C27.1044 44.2803 26.7178 44.3976 26.3889 44.6173C26.06 44.8371 25.8036 45.1495 25.6522 45.5149C25.5009 45.8804 25.4613 46.2825 25.5384 46.6705C25.6156 47.0584 25.8061 47.4148 26.0858 47.6945C26.3655 47.9742 26.7219 48.1647 27.1098 48.2418C27.4978 48.319 27.8999 48.2794 28.2654 48.128C28.6308 47.9767 28.9432 47.7203 29.1629 47.3914C29.3827 47.0625 29.5 46.6758 29.5 46.2803C29.508 46.0126 29.4622 45.7461 29.3653 45.4965C29.2684 45.2469 29.1224 45.0192 28.9359 44.8271C28.7493 44.635 28.5261 44.4823 28.2795 44.378C28.0328 44.2738 27.7678 44.2202 27.5 44.2203V44.2803Z" fill="#3F8624"/>
<path d="M55 51.9998H42.5C42.1196 52.0004 41.7469 51.8925 41.4257 51.6888C41.1045 51.4851 40.848 51.1941 40.6863 50.8498C40.5247 50.5054 40.4645 50.1222 40.513 49.7449C40.5615 49.3676 40.7165 49.012 40.96 48.7198L47.22 41.2198C47.4077 40.9968 47.6419 40.8175 47.9062 40.6945C48.1705 40.5715 48.4585 40.5078 48.75 40.5078C49.0415 40.5078 49.3294 40.5715 49.5937 40.6945C49.858 40.8175 50.0922 40.9968 50.28 41.2198L56.54 48.7198C56.7834 49.012 56.9384 49.3676 56.9869 49.7449C57.0354 50.1222 56.9753 50.5054 56.8136 50.8498C56.6519 51.1941 56.3955 51.4851 56.0742 51.6888C55.753 51.8925 55.3803 52.0004 55 51.9998ZM46.78 47.9998H50.78L48.78 45.6198L46.78 47.9998Z" fill="#3F8624"/>
<path d="M74.38 52.1401H66.86C66.3296 52.1401 65.8208 51.9294 65.4458 51.5543C65.0707 51.1793 64.86 50.6706 64.86 50.1401V42.6201C64.86 42.0897 65.0707 41.581 65.4458 41.2059C65.8208 40.8308 66.3296 40.6201 66.86 40.6201H74.38C74.9104 40.6201 75.4191 40.8308 75.7942 41.2059C76.1693 41.581 76.38 42.0897 76.38 42.6201V50.1401C76.38 50.6706 76.1693 51.1793 75.7942 51.5543C75.4191 51.9294 74.9104 52.1401 74.38 52.1401ZM68.86 48.1401H72.38V44.6201H68.86V48.1401Z" fill="#3F8624"/>
<path d="M91.2399 97.0001H8.75989C8.22945 97.0001 7.72075 96.7894 7.34567 96.4143C6.9706 96.0393 6.75989 95.5306 6.75989 95.0001V70.6201C6.75989 70.0897 6.9706 69.581 7.34567 69.2059C7.72075 68.8308 8.22945 68.6201 8.75989 68.6201H91.2399C91.7703 68.6201 92.279 68.8308 92.6541 69.2059C93.0292 69.581 93.2399 70.0897 93.2399 70.6201V95.0001C93.2399 95.5306 93.0292 96.0393 92.6541 96.4143C92.279 96.7894 91.7703 97.0001 91.2399 97.0001ZM10.7599 93.0001H89.2399V72.6201H10.7599V93.0001Z" fill="#3F8624"/>
<path d="M22.8199 89.8798C21.4236 89.8798 20.0586 89.4657 18.8976 88.6899C17.7366 87.9142 16.8317 86.8116 16.2973 85.5215C15.7629 84.2315 15.6231 82.8119 15.8955 81.4424C16.168 80.0729 16.8404 78.815 17.8277 77.8276C18.8151 76.8402 20.073 76.1678 21.4426 75.8954C22.8121 75.623 24.2316 75.7628 25.5216 76.2972C26.8117 76.8315 27.9143 77.7364 28.6901 78.8974C29.4658 80.0585 29.8799 81.4234 29.8799 82.8198C29.8746 84.6906 29.1291 86.4832 27.8062 87.8061C26.4834 89.129 24.6907 89.8745 22.8199 89.8798ZM22.8199 79.7598C22.2147 79.7598 21.6231 79.9392 21.1198 80.2755C20.6166 80.6117 20.2244 81.0896 19.9928 81.6488C19.7612 82.2079 19.7006 82.8232 19.8187 83.4167C19.9368 84.0103 20.2282 84.5556 20.6561 84.9835C21.0841 85.4115 21.6293 85.7029 22.2229 85.821C22.8165 85.939 23.4318 85.8784 23.9909 85.6468C24.55 85.4152 25.028 85.023 25.3642 84.5198C25.7004 84.0166 25.8799 83.425 25.8799 82.8198C25.8825 82.4172 25.8052 82.0181 25.6524 81.6456C25.4995 81.2732 25.2742 80.9348 24.9896 80.6501C24.7049 80.3654 24.3665 80.1401 23.994 79.9873C23.6216 79.8345 23.2225 79.7571 22.8199 79.7598Z" fill="#3F8624"/>
<path d="M57.4999 89.3602H42.4999C42.1318 89.3575 41.7717 89.2533 41.459 89.059C41.1464 88.8647 40.8935 88.588 40.728 88.2592C40.5626 87.9304 40.4911 87.5623 40.5214 87.1955C40.5518 86.8287 40.6827 86.4774 40.8999 86.1802L48.3999 76.0002C48.5862 75.7518 48.8277 75.5502 49.1055 75.4113C49.3832 75.2725 49.6894 75.2002 49.9999 75.2002C50.3104 75.2002 50.6166 75.2725 50.8943 75.4113C51.172 75.5502 51.4136 75.7518 51.5999 76.0002L59.0999 86.1802C59.317 86.4774 59.448 86.8287 59.4783 87.1955C59.5086 87.5623 59.4371 87.9304 59.2717 88.2592C59.1063 88.588 58.8533 88.8647 58.5407 89.059C58.2281 89.2533 57.8679 89.3575 57.4999 89.3602ZM46.4599 85.3602H53.5399L49.9999 80.5602L46.4599 85.3602Z" fill="#3F8624"/>
<path d="M81.88 89.5001H72.5C71.9696 89.5001 71.4609 89.2894 71.0858 88.9143C70.7107 88.5393 70.5 88.0306 70.5 87.5001V78.1201C70.5 77.5897 70.7107 77.081 71.0858 76.7059C71.4609 76.3308 71.9696 76.1201 72.5 76.1201H81.88C82.4104 76.1201 82.9191 76.3308 83.2942 76.7059C83.6693 77.081 83.88 77.5897 83.88 78.1201V87.5001C83.88 88.0306 83.6693 88.5393 83.2942 88.9143C82.9191 89.2894 82.4104 89.5001 81.88 89.5001ZM74.5 85.5001H79.88V80.1201H74.5V85.5001Z" fill="#3F8624"/>
</svg>
