<svg width="100" height="100" viewBox="0 0 100 100" fill="none" xmlns="http://www.w3.org/2000/svg">
<path d="M81.2799 87.5598H18.5799C16.9196 87.5598 15.3274 86.9003 14.1534 85.7263C12.9794 84.5524 12.3199 82.9601 12.3199 81.2999V18.6198C12.3199 16.9577 12.9788 15.3634 14.1522 14.1863C15.3256 13.0091 16.9178 12.3451 18.5799 12.3398H81.2799C82.9438 12.3451 84.5381 13.0085 85.7147 14.185C86.8913 15.3616 87.5546 16.9559 87.5599 18.6198V81.2999C87.5546 82.9619 86.8906 84.5541 85.7135 85.7276C84.5363 86.901 82.942 87.5599 81.2799 87.5598ZM18.5799 16.3398C17.9787 16.3451 17.4039 16.5877 16.9806 17.0147C16.5573 17.4417 16.3199 18.0186 16.3199 18.6198V81.2999C16.3251 81.8976 16.5649 82.4694 16.9876 82.8921C17.4103 83.3148 17.9821 83.5546 18.5799 83.5598H81.2799C81.8811 83.5599 82.458 83.3224 82.885 82.8991C83.3121 82.4759 83.5546 81.9011 83.5599 81.2999V18.6198C83.5599 18.0152 83.3197 17.4352 82.8921 17.0076C82.4645 16.5801 81.8846 16.3398 81.2799 16.3398H18.5799Z" fill="#3F8624"/>
<path d="M29.4399 3.05957H25.4399V14.3196H29.4399V3.05957Z" fill="#3F8624"/>
<path d="M40.6801 3.05957H36.6801V14.3196H40.6801V3.05957Z" fill="#3F8624"/>
<path d="M51.9399 3.05957H47.9399V14.3196H51.9399V3.05957Z" fill="#3F8624"/>
<path d="M63.1801 3.05957H59.1801V14.3196H63.1801V3.05957Z" fill="#3F8624"/>
<path d="M74.4399 3.05957H70.4399V14.3196H74.4399V3.05957Z" fill="#3F8624"/>
<path d="M29.4399 85.5596H25.4399V96.8196H29.4399V85.5596Z" fill="#3F8624"/>
<path d="M40.6801 85.5596H36.6801V96.8196H40.6801V85.5596Z" fill="#3F8624"/>
<path d="M51.9399 85.5596H47.9399V96.8196H51.9399V85.5596Z" fill="#3F8624"/>
<path d="M63.1801 85.5596H59.1801V96.8196H63.1801V85.5596Z" fill="#3F8624"/>
<path d="M74.4399 85.5596H70.4399V96.8196H74.4399V85.5596Z" fill="#3F8624"/>
<path d="M14.3201 25.4404H3.06006V29.4404H14.3201V25.4404Z" fill="#3F8624"/>
<path d="M14.3201 36.6797H3.06006V40.6797H14.3201V36.6797Z" fill="#3F8624"/>
<path d="M14.3201 47.9404H3.06006V51.9404H14.3201V47.9404Z" fill="#3F8624"/>
<path d="M14.3201 59.1797H3.06006V63.1797H14.3201V59.1797Z" fill="#3F8624"/>
<path d="M14.3201 70.4404H3.06006V74.4404H14.3201V70.4404Z" fill="#3F8624"/>
<path d="M96.8201 25.4404H85.5601V29.4404H96.8201V25.4404Z" fill="#3F8624"/>
<path d="M96.8201 36.6797H85.5601V40.6797H96.8201V36.6797Z" fill="#3F8624"/>
<path d="M96.8201 47.9404H85.5601V51.9404H96.8201V47.9404Z" fill="#3F8624"/>
<path d="M96.8201 59.1797H85.5601V63.1797H96.8201V59.1797Z" fill="#3F8624"/>
<path d="M96.8201 70.4404H85.5601V74.4404H96.8201V70.4404Z" fill="#3F8624"/>
<path d="M40.5399 80.0002H39.9999C39.6638 79.9132 39.3562 79.7402 39.1072 79.4983C38.8582 79.2563 38.6765 78.9537 38.5799 78.6202L34.5799 65.0602L21.1599 61.2402C20.8288 61.1454 20.5278 60.9667 20.2861 60.7215C20.0443 60.4762 19.87 60.1726 19.7799 59.8402C19.6763 59.4911 19.67 59.1203 19.7616 58.7678C19.8533 58.4154 20.0394 58.0946 20.2999 57.8402L24.0599 54.0802C24.4292 53.7034 24.9324 53.4877 25.4599 53.4802H37.7999L44.9399 45.4802L23.5199 36.0002C23.2263 35.8668 22.9692 35.6644 22.7707 35.4101C22.5722 35.1559 22.4381 34.8575 22.3799 34.5402C22.319 34.222 22.3363 33.8937 22.4304 33.5836C22.5245 33.2735 22.6925 32.991 22.9199 32.7602L28.3599 27.3402C28.5989 27.1 28.8949 26.9245 29.2202 26.83C29.5456 26.7356 29.8896 26.7253 30.2199 26.8002L56.9199 32.9602L63.9999 25.3402C66.5799 22.7602 73.4599 19.9402 76.6599 23.1202C77.4223 24.0757 77.9121 25.2196 78.0776 26.4307C78.243 27.6419 78.078 28.8752 77.5999 30.0002C77.0184 32.1437 75.9352 34.118 74.4399 35.7602L66.8599 42.8602L73.0199 69.5402C73.0948 69.8706 73.0846 70.2146 72.9901 70.5399C72.8957 70.8653 72.7201 71.1613 72.4799 71.4002L67.0599 76.8402C66.8292 77.0677 66.5466 77.2357 66.2365 77.3297C65.9265 77.4238 65.5982 77.4411 65.2799 77.3802C64.9627 77.322 64.6642 77.1879 64.41 76.9894C64.1558 76.7909 63.9533 76.5339 63.8199 76.2402L54.0999 54.8402L46.3199 62.0002V74.2602C46.3188 74.5248 46.2652 74.7866 46.1623 75.0303C46.0593 75.2741 45.9089 75.495 45.7199 75.6802L41.9999 79.4802C41.8034 79.6597 41.5731 79.7981 41.3224 79.8874C41.0717 79.9767 40.8057 80.015 40.5399 80.0002ZM25.6199 58.3402L36.8399 61.5202C37.1664 61.6114 37.4642 61.784 37.7056 62.0219C37.947 62.2598 38.124 62.5552 38.2199 62.8802L41.5199 74.2602L42.3199 73.4802V61.1802C42.3208 60.906 42.3781 60.6349 42.4882 60.3837C42.5983 60.1325 42.7589 59.9067 42.9599 59.7202L53.4199 50.0002C53.652 49.7894 53.9305 49.6361 54.2327 49.5528C54.535 49.4694 54.8526 49.4582 55.1599 49.5202C55.468 49.5822 55.7571 49.7159 56.0038 49.9105C56.2505 50.1051 56.4479 50.3551 56.5799 50.6402L66.2599 72.0002L68.8799 69.4002L62.6999 42.6002C62.6227 42.2604 62.6356 41.9064 62.7374 41.5731C62.8391 41.2398 63.0261 40.9389 63.2799 40.7002L71.6599 32.8602C72.6559 31.7045 73.3742 30.3363 73.7599 28.8602C74.2399 27.1602 74.0399 26.1602 73.7599 25.9202C72.9199 25.0602 68.6999 26.2002 66.8199 28.0802L59.0199 36.4202C58.7812 36.674 58.4803 36.8611 58.147 36.9628C57.8138 37.0645 57.4597 37.0774 57.1199 37.0002L30.3999 30.8602L27.7999 33.4802L49.0799 43.1602C49.3627 43.2903 49.6112 43.4846 49.8056 43.7277C50 43.9707 50.1351 44.2558 50.1999 44.5602C50.2679 44.8691 50.2616 45.1896 50.1816 45.4955C50.1017 45.8015 49.9503 46.0841 49.7399 46.3202L40.1799 56.9002C39.993 57.1074 39.7647 57.2732 39.5098 57.3868C39.2549 57.5005 38.979 57.5596 38.6999 57.5602H26.3999L25.6199 58.3402Z" fill="#3F8624"/>
<path d="M48.6399 34.1202L45.7999 31.2802L49.5599 27.5402C49.6361 27.4641 49.6965 27.3737 49.7378 27.2741C49.779 27.1746 49.8003 27.0679 49.8003 26.9602C49.8003 26.8525 49.779 26.7458 49.7378 26.6463C49.6965 26.5468 49.6361 26.4564 49.5599 26.3802C49.4958 26.2853 49.4094 26.2077 49.3083 26.1539C49.2072 26.1002 49.0944 26.0721 48.9799 26.0721C48.8654 26.0721 48.7527 26.1002 48.6515 26.1539C48.5504 26.2077 48.464 26.2853 48.3999 26.3802L42.1799 32.6202L39.3399 29.8002L45.5799 23.5602C46.0258 23.1127 46.5557 22.7577 47.1392 22.5154C47.7226 22.2731 48.3482 22.1484 48.9799 22.1484C49.6117 22.1484 50.2372 22.2731 50.8206 22.5154C51.4041 22.7577 51.934 23.1127 52.3799 23.5602C52.8298 24.0048 53.187 24.5342 53.4308 25.1179C53.6746 25.7015 53.8001 26.3277 53.8001 26.9602C53.8001 27.5927 53.6746 28.2189 53.4308 28.8026C53.187 29.3862 52.8298 29.9156 52.3799 30.3602L48.6399 34.1202Z" fill="#3F8624"/>
<path d="M70.0001 60.4205L67.1601 57.6005L73.3801 51.3605C73.4602 51.2873 73.5232 51.1974 73.5646 51.0972C73.6061 50.9969 73.625 50.8888 73.6201 50.7805C73.6221 50.6754 73.6018 50.5712 73.5604 50.4746C73.519 50.3781 73.4575 50.2914 73.3801 50.2205C73.3056 50.1449 73.2169 50.0848 73.1191 50.0439C73.0212 50.0029 72.9162 49.9818 72.8101 49.9818C72.704 49.9818 72.599 50.0029 72.5011 50.0439C72.4033 50.0848 72.3145 50.1449 72.2401 50.2205L68.4801 54.0005L65.6601 51.1805L69.4201 47.4205C70.3356 46.5451 71.5535 46.0566 72.8201 46.0566C74.0867 46.0566 75.3046 46.5451 76.2201 47.4205C76.6682 47.8681 77.0237 48.3997 77.2662 48.9848C77.5087 49.5699 77.6336 50.1971 77.6336 50.8305C77.6336 51.4638 77.5087 52.091 77.2662 52.6761C77.0237 53.2612 76.6682 53.7928 76.2201 54.2405L70.0001 60.4205Z" fill="#3F8624"/>
</svg>
