<svg width="100" height="100" viewBox="0 0 100 100" fill="none" xmlns="http://www.w3.org/2000/svg">
<path d="M29.5 3.12012H25.5V14.3801H29.5V3.12012Z" fill="#3F8624"/>
<path d="M40.7599 3.12012H36.7599V14.3801H40.7599V3.12012Z" fill="#3F8624"/>
<path d="M52 3.12012H48V14.3801H52V3.12012Z" fill="#3F8624"/>
<path d="M63.2599 3.12012H59.2599V14.3801H63.2599V3.12012Z" fill="#3F8624"/>
<path d="M74.5 3.12012H70.5V14.3801H74.5V3.12012Z" fill="#3F8624"/>
<path d="M29.5 85.6201H25.5V96.8801H29.5V85.6201Z" fill="#3F8624"/>
<path d="M40.7599 85.6201H36.7599V96.8801H40.7599V85.6201Z" fill="#3F8624"/>
<path d="M14.3801 25.5H3.12012V29.5H14.3801V25.5Z" fill="#3F8624"/>
<path d="M14.3801 36.7598H3.12012V40.7598H14.3801V36.7598Z" fill="#3F8624"/>
<path d="M14.3801 48H3.12012V52H14.3801V48Z" fill="#3F8624"/>
<path d="M14.3801 59.2598H3.12012V63.2598H14.3801V59.2598Z" fill="#3F8624"/>
<path d="M14.3801 70.5H3.12012V74.5H14.3801V70.5Z" fill="#3F8624"/>
<path d="M96.8601 25.5H85.6201V29.5H96.8601V25.5Z" fill="#3F8624"/>
<path d="M96.8601 36.7598H85.6201V40.7598H96.8601V36.7598Z" fill="#3F8624"/>
<path d="M51.9999 96.8804H47.9999V87.6204H18.3799C16.7886 87.6204 15.2625 86.9883 14.1372 85.863C13.012 84.7378 12.3799 83.2117 12.3799 81.6204V18.4004C12.3799 16.8091 13.012 15.283 14.1372 14.1578C15.2625 13.0325 16.7886 12.4004 18.3799 12.4004H81.6199C83.2112 12.4004 84.7373 13.0325 85.8625 14.1578C86.9877 15.283 87.6199 16.8091 87.6199 18.4004V48.0004H96.8799V52.0004H83.6199V18.4004C83.6199 17.87 83.4092 17.3613 83.0341 16.9862C82.659 16.6111 82.1503 16.4004 81.6199 16.4004H18.3799C17.8494 16.4004 17.3407 16.6111 16.9657 16.9862C16.5906 17.3613 16.3799 17.87 16.3799 18.4004V81.6404C16.3799 82.1708 16.5906 82.6795 16.9657 83.0546C17.3407 83.4297 17.8494 83.6404 18.3799 83.6404H51.9999V96.8804Z" fill="#3F8624"/>
<path d="M70.0001 96.7204C69.5582 96.719 69.1292 96.5714 68.7801 96.3004C68.538 96.1141 68.3419 95.8748 68.2067 95.6009C68.0715 95.3271 68.0008 95.0258 68.0001 94.7204V90.4604C67.9923 90.1079 67.8823 89.7653 67.6835 89.4742C67.4846 89.1831 67.2055 88.9559 66.8801 88.8204C64.0989 87.6452 61.6883 85.7381 59.9048 83.3018C58.1214 80.8655 57.0318 77.9913 56.7519 74.9851C56.4721 71.9788 57.0125 68.9528 58.3157 66.2293C59.6189 63.5057 61.6361 61.1864 64.1526 59.5181C66.6691 57.8498 69.5909 56.895 72.6069 56.7552C75.623 56.6154 78.6205 57.2959 81.2805 58.7243C83.9406 60.1527 86.1636 62.2755 87.7131 64.8668C89.2626 67.4582 90.0806 70.4211 90.0801 73.4404C90.0801 83.9604 81.8401 93.7404 70.5001 96.6604C70.3363 96.7 70.1685 96.7202 70.0001 96.7204ZM73.3801 60.7204C70.4492 60.7203 67.6086 61.7339 65.3398 63.5893C63.071 65.4448 61.5138 68.0278 60.9322 70.9003C60.3507 73.7729 60.7805 76.7582 62.1489 79.35C63.5173 81.9417 65.74 83.9805 68.4401 85.1204C69.4947 85.5591 70.3957 86.3005 71.0293 87.2509C71.6629 88.2013 72.0007 89.3182 72.0001 90.4604V92.0004C80.3001 88.8604 86.0001 81.4004 86.0001 73.4404C85.9951 70.0979 84.6746 66.8916 82.3242 64.515C79.9738 62.1384 76.7824 60.7825 73.4401 60.7404L73.3801 60.7204Z" fill="#3F8624"/>
<path d="M73.44 96.9999C70.2855 97.0094 67.162 96.3766 64.26 95.1399C58.8801 92.8652 54.5369 88.6731 52.0733 83.377C49.6097 78.0809 49.2012 72.0585 50.9272 66.4783C52.6531 60.898 56.3904 56.1579 61.4139 53.1776C66.4374 50.1972 72.3889 49.1892 78.1137 50.3491C83.8384 51.5091 88.9282 54.7542 92.3954 59.4548C95.8626 64.1555 97.4601 69.9766 96.8778 75.7885C96.2955 81.6005 93.5751 86.989 89.2442 90.9084C84.9134 94.8278 79.281 96.9987 73.44 96.9999ZM73.44 53.8799C69.5714 53.8799 65.7896 55.0271 62.573 57.1764C59.3564 59.3257 56.8493 62.3805 55.3689 65.9547C53.8884 69.5288 53.5011 73.4616 54.2558 77.2559C55.0105 81.0502 56.8735 84.5354 59.609 87.271C62.3445 90.0065 65.8297 91.8694 69.624 92.6241C73.4183 93.3788 77.3511 92.9915 80.9253 91.511C84.4994 90.0306 87.5542 87.5235 89.7035 84.3069C91.8528 81.0903 93 77.3085 93 73.4399C92.9947 68.2539 90.9322 63.2818 87.2651 59.6148C83.5981 55.9477 78.626 53.8852 73.44 53.8799Z" fill="#3F8624"/>
</svg>
