<svg width="100" height="100" viewBox="0 0 100 100" fill="none" xmlns="http://www.w3.org/2000/svg">
<path d="M68 64.0002V32.1602C68 31.6297 67.7893 31.121 67.4142 30.7459C67.0391 30.3709 66.5304 30.1602 66 30.1602H34C33.4696 30.1602 32.9609 30.3709 32.5858 30.7459C32.2107 31.121 32 31.6297 32 32.1602V64.0002C32 64.5306 32.2107 65.0393 32.5858 65.4144C32.9609 65.7894 33.4696 66.0002 34 66.0002H66C66.5304 66.0002 67.0391 65.7894 67.4142 65.4144C67.7893 65.0393 68 64.5306 68 64.0002ZM36 62.0002V56.5802H49.68C50.1539 57.9758 51.1081 59.1578 52.3724 59.9155C53.6367 60.6731 55.129 60.9572 56.5832 60.717C58.0375 60.4768 59.3592 59.728 60.3127 58.6041C61.2663 57.4801 61.7897 56.0541 61.7897 54.5802C61.7897 53.1062 61.2663 51.6802 60.3127 50.5562C59.3592 49.4323 58.0375 48.6835 56.5832 48.4433C55.129 48.2031 53.6367 48.4872 52.3724 49.2448C51.1081 50.0025 50.1539 51.1845 49.68 52.5802H36V34.1602H64V39.6202H50.26C49.7861 38.2245 48.8319 37.0425 47.5676 36.2848C46.3033 35.5272 44.811 35.2431 43.3568 35.4833C41.9025 35.7235 40.5808 36.4723 39.6273 37.5962C38.6737 38.7202 38.1503 40.1462 38.1503 41.6202C38.1503 43.0941 38.6737 44.5201 39.6273 45.6441C40.5808 46.768 41.9025 47.5168 43.3568 47.757C44.811 47.9972 46.3033 47.7131 47.5676 46.9555C48.8319 46.1978 49.7861 45.0158 50.26 43.6202H64V62.0002H36ZM53.34 54.6202C53.34 54.1811 53.4702 53.7519 53.7141 53.3868C53.9581 53.0217 54.3048 52.7372 54.7104 52.5691C55.1161 52.4011 55.5625 52.3572 55.9931 52.4428C56.4237 52.5285 56.8193 52.7399 57.1298 53.0504C57.4402 53.3609 57.6517 53.7564 57.7373 54.1871C57.823 54.6177 57.779 55.0641 57.611 55.4697C57.443 55.8754 57.1584 56.2221 56.7934 56.466C56.4283 56.71 55.9991 56.8402 55.56 56.8402C54.9885 56.8248 54.445 56.5896 54.0427 56.1835C53.6403 55.7774 53.4101 55.2317 53.4 54.6602L53.34 54.6202ZM46.54 41.5002C46.54 41.9392 46.4098 42.3684 46.1659 42.7335C45.9219 43.0986 45.5752 43.3831 45.1696 43.5512C44.7639 43.7192 44.3175 43.7632 43.8869 43.6775C43.4563 43.5918 43.0607 43.3804 42.7502 43.0699C42.4397 42.7595 42.2283 42.3639 42.1427 41.9333C42.057 41.5026 42.101 41.0563 42.269 40.6506C42.437 40.2449 42.7216 39.8982 43.0866 39.6543C43.4517 39.4104 43.8809 39.2802 44.32 39.2802C44.6199 39.272 44.9184 39.3247 45.1974 39.4352C45.4764 39.5456 45.7301 39.7114 45.9432 39.9227C46.1563 40.1339 46.3244 40.3861 46.4373 40.6641C46.5502 40.9421 46.6055 41.2402 46.6 41.5402L46.54 41.5002Z" fill="#3F8624"/>
<path d="M27.1 19.9997H33.1V15.9997H27.1V6.97974C27.0996 6.58716 26.9838 6.20335 26.7668 5.87616C26.5499 5.54896 26.2415 5.29285 25.88 5.13974C25.5138 4.98908 25.1112 4.95046 24.7232 5.02879C24.3351 5.10712 23.979 5.29887 23.7 5.57974L3.99996 25.2397C3.81459 25.4266 3.66794 25.6483 3.56841 25.8919C3.46888 26.1356 3.41843 26.3965 3.41996 26.6597V76.7997C3.41795 77.1449 3.5053 77.4847 3.67353 77.7861C3.84175 78.0875 4.08512 78.3403 4.37996 78.5197L24 90.2397C24.3108 90.4178 24.6618 90.5141 25.02 90.5197C25.3703 90.5222 25.7152 90.4325 26.02 90.2597C26.3252 90.0835 26.5784 89.8298 26.754 89.5242C26.9296 89.2187 27.0214 88.8722 27.02 88.5197V79.9997H33.02V75.9997H27.02L27.1 19.9997ZM23.1 85.0397L7.39996 75.6597V27.4797L23.06 11.8197L23.1 85.0397Z" fill="#3F8624"/>
<path d="M96.0001 25.2997L76.3001 5.57972C76.0206 5.30564 75.6667 5.11963 75.2825 5.04474C74.8982 4.96986 74.5004 5.0094 74.1384 5.15846C73.7764 5.30752 73.4661 5.55954 73.246 5.88329C73.0259 6.20704 72.9056 6.58827 72.9001 6.97972V15.9997H67.1001V19.9997H72.9001V75.9997H67.1001V79.9997H72.9001V88.5997C72.8987 88.9521 72.9904 89.2987 73.1661 89.6042C73.3417 89.9098 73.5949 90.1635 73.9001 90.3397C74.2049 90.5125 74.5497 90.6021 74.9001 90.5997C75.2583 90.5941 75.6092 90.4977 75.9201 90.3197L95.5801 78.6597C95.8787 78.4827 96.126 78.231 96.2978 77.9295C96.4697 77.6279 96.56 77.2868 96.5601 76.9397V26.7997C96.5751 26.5246 96.5331 26.2494 96.4367 25.9912C96.3404 25.7331 96.1917 25.4977 96.0001 25.2997ZM92.5601 75.7197L76.9001 84.9997V11.8197L92.6001 27.5397L92.5601 75.7197Z" fill="#3F8624"/>
<path d="M61.1001 75.9199H53.1001V79.9199H61.1001V75.9199Z" fill="#3F8624"/>
<path d="M47.1001 75.9199H39.1001V79.9199H47.1001V75.9199Z" fill="#3F8624"/>
<path d="M61.1001 15.96H53.1001V19.96H61.1001V15.96Z" fill="#3F8624"/>
<path d="M47.1001 15.96H39.1001V19.96H47.1001V15.96Z" fill="#3F8624"/>
</svg>
