<svg width="100" height="100" viewBox="0 0 100 100" fill="none" xmlns="http://www.w3.org/2000/svg">
<path d="M79.1201 85.3997H20.8801C19.2162 85.3944 17.6219 84.731 16.4453 83.5545C15.2687 82.3779 14.6054 80.7836 14.6001 79.1197V20.8996C14.6054 19.2376 15.2694 17.6453 16.4465 16.4719C17.6237 15.2985 19.218 14.6396 20.8801 14.6396H79.1201C80.7822 14.6396 82.3765 15.2985 83.5537 16.4719C84.7308 17.6453 85.3948 19.2376 85.4001 20.8996V79.1197C85.3948 80.7836 84.7315 82.3779 83.5549 83.5545C82.3783 84.731 80.784 85.3944 79.1201 85.3997ZM20.8801 18.6396C20.5816 18.637 20.2856 18.6935 20.0091 18.8059C19.7326 18.9183 19.4811 19.0844 19.2691 19.2945C19.0571 19.5046 18.8888 19.7546 18.774 20.0301C18.6592 20.3056 18.6001 20.6012 18.6001 20.8996V79.1197C18.6001 79.7243 18.8403 80.3043 19.2679 80.7318C19.6955 81.1594 20.2754 81.3997 20.8801 81.3997H79.1201C79.7248 81.3997 80.3047 81.1594 80.7323 80.7318C81.1599 80.3043 81.4001 79.7243 81.4001 79.1197V20.8996C81.4001 20.6012 81.341 20.3056 81.2262 20.0301C81.1114 19.7546 80.9431 19.5046 80.7311 19.2945C80.5191 19.0844 80.2676 18.9183 79.9911 18.8059C79.7146 18.6935 79.4186 18.637 79.1201 18.6396H20.8801Z" fill="#3F8624"/>
<path d="M30.8999 6.05957H26.8999V16.5996H30.8999V6.05957Z" fill="#3F8624"/>
<path d="M41.46 6.05957H37.46V16.5996H41.46V6.05957Z" fill="#3F8624"/>
<path d="M52 6.05957H48V16.5996H52V6.05957Z" fill="#3F8624"/>
<path d="M62.54 6.05957H58.54V16.5996H62.54V6.05957Z" fill="#3F8624"/>
<path d="M73.1001 6.05957H69.1001V16.5996H73.1001V6.05957Z" fill="#3F8624"/>
<path d="M30.8999 83.4004H26.8999V93.9404H30.8999V83.4004Z" fill="#3F8624"/>
<path d="M41.46 83.4004H37.46V93.9404H41.46V83.4004Z" fill="#3F8624"/>
<path d="M52 83.4004H48V93.9404H52V83.4004Z" fill="#3F8624"/>
<path d="M62.54 83.4004H58.54V93.9404H62.54V83.4004Z" fill="#3F8624"/>
<path d="M73.1001 83.4004H69.1001V93.9404H73.1001V83.4004Z" fill="#3F8624"/>
<path d="M16.6001 26.9004H6.06006V30.9004H16.6001V26.9004Z" fill="#3F8624"/>
<path d="M16.6001 37.46H6.06006V41.46H16.6001V37.46Z" fill="#3F8624"/>
<path d="M16.6001 48H6.06006V52H16.6001V48Z" fill="#3F8624"/>
<path d="M16.6001 58.54H6.06006V62.54H16.6001V58.54Z" fill="#3F8624"/>
<path d="M16.6001 69.0996H6.06006V73.0996H16.6001V69.0996Z" fill="#3F8624"/>
<path d="M93.9399 26.9004H83.3999V30.9004H93.9399V26.9004Z" fill="#3F8624"/>
<path d="M93.9399 37.46H83.3999V41.46H93.9399V37.46Z" fill="#3F8624"/>
<path d="M93.9399 48H83.3999V52H93.9399V48Z" fill="#3F8624"/>
<path d="M93.9399 58.54H83.3999V62.54H93.9399V58.54Z" fill="#3F8624"/>
<path d="M93.9399 69.0996H83.3999V73.0996H93.9399V69.0996Z" fill="#3F8624"/>
<path d="M62.32 80.1197H37.6801C36.2248 80.1197 34.8289 79.5429 33.798 78.5158C32.7671 77.4887 32.1853 76.0949 32.1801 74.6396V27.1196C32.1853 25.6644 32.7671 24.2706 33.798 23.2435C34.8289 22.2164 36.2248 21.6396 37.6801 21.6396H62.32C63.7753 21.6396 65.1712 22.2164 66.2021 23.2435C67.233 24.2706 67.8148 25.6644 67.82 27.1196V74.6396C67.8148 76.0949 67.233 77.4887 66.2021 78.5158C65.1712 79.5429 63.7753 80.1197 62.32 80.1197ZM37.6801 25.6396C37.484 25.637 37.2894 25.6733 37.1075 25.7465C36.9257 25.8197 36.7601 25.9283 36.6206 26.066C36.481 26.2037 36.3702 26.3677 36.2946 26.5486C36.219 26.7295 36.18 26.9236 36.1801 27.1196V74.6396C36.18 74.8357 36.219 75.0298 36.2946 75.2107C36.3702 75.3916 36.481 75.5556 36.6206 75.6933C36.7601 75.831 36.9257 75.9396 37.1075 76.0128C37.2894 76.086 37.484 76.1223 37.6801 76.1197H62.32C62.5161 76.1223 62.7107 76.086 62.8926 76.0128C63.0744 75.9396 63.24 75.831 63.3795 75.6933C63.5191 75.5556 63.6299 75.3916 63.7055 75.2107C63.7811 75.0298 63.8201 74.8357 63.82 74.6396V27.1196C63.8201 26.9236 63.7811 26.7295 63.7055 26.5486C63.6299 26.3677 63.5191 26.2037 63.3795 26.066C63.24 25.9283 63.0744 25.8197 62.8926 25.7465C62.7107 25.6733 62.5161 25.637 62.32 25.6396H37.6801Z" fill="#3F8624"/>
<path d="M50 51.1195C47.8623 51.1235 45.7715 50.4929 43.9924 49.3077C42.2133 48.1225 40.8259 46.436 40.006 44.4617C39.1861 42.4875 38.9705 40.3143 39.3866 38.2175C39.8027 36.1206 40.8317 34.1944 42.3433 32.6828C43.8549 31.1712 45.7811 30.1422 47.878 29.7261C49.9748 29.31 52.148 29.5256 54.1223 30.3455C56.0965 31.1654 57.7831 32.5527 58.9683 34.3318C60.1535 36.111 60.784 38.2018 60.78 40.3395C60.7748 43.1969 59.6373 45.9358 57.6168 47.9563C55.5963 49.9768 52.8575 51.1142 50 51.1195ZM50 33.5395C48.6543 33.5356 47.3376 33.931 46.2167 34.6758C45.0958 35.4206 44.2212 36.4812 43.7034 37.7234C43.1857 38.9656 43.0482 40.3334 43.3083 41.6538C43.5684 42.9742 44.2144 44.1877 45.1646 45.1407C46.1148 46.0937 47.3264 46.7434 48.6461 47.0074C49.9657 47.2714 51.3339 47.1379 52.5776 46.6238C53.8214 46.1097 54.8846 45.2382 55.6326 44.1195C56.3807 43.0008 56.78 41.6853 56.78 40.3395C56.7801 38.5395 56.0664 36.8129 54.7954 35.5382C53.5245 34.2636 51.8 33.5448 50 33.5395Z" fill="#3F8624"/>
<path d="M50 66.9404C48.9082 66.9404 47.841 66.6167 46.9332 66.0101C46.0255 65.4036 45.318 64.5415 44.9002 63.5328C44.4824 62.5242 44.3731 61.4143 44.586 60.3435C44.799 59.2727 45.3248 58.2891 46.0968 57.5172C46.8687 56.7452 47.8523 56.2194 48.9231 56.0065C49.9939 55.7935 51.1037 55.9028 52.1124 56.3206C53.121 56.7384 53.9832 57.4459 54.5897 58.3536C55.1962 59.2614 55.52 60.3286 55.52 61.4204C55.5147 62.8828 54.9315 64.2837 53.8974 65.3178C52.8633 66.3519 51.4624 66.9351 50 66.9404ZM50 60.0004C49.8013 59.9977 49.6041 60.0346 49.4198 60.1088C49.2355 60.183 49.0678 60.293 48.9264 60.4326C48.785 60.5722 48.6727 60.7384 48.596 60.9217C48.5194 61.105 48.48 61.3017 48.48 61.5004C48.48 61.9035 48.6401 62.2901 48.9252 62.5752C49.2102 62.8603 49.5969 63.0204 50 63.0204C50.4031 63.0204 50.7897 62.8603 51.0748 62.5752C51.3598 62.2901 51.52 61.9035 51.52 61.5004C51.52 61.3017 51.4806 61.105 51.4039 60.9217C51.3273 60.7384 51.215 60.5722 51.0736 60.4326C50.9322 60.293 50.7645 60.183 50.5802 60.1088C50.3959 60.0346 50.1986 59.9977 50 60.0004Z" fill="#3F8624"/>
<path d="M52 65.8203H48V72.8603H52V65.8203Z" fill="#3F8624"/>
</svg>
