<svg width="100" height="100" viewBox="0 0 100 100" fill="none" xmlns="http://www.w3.org/2000/svg">
<path d="M84.1599 97.0596H75.9999V93.0596H83.9999L84.1599 97.0596ZM71.8599 97.0596H63.7399V93.0596H71.8599V97.0596ZM59.6799 97.0596H51.5399V93.0596H59.6799V97.0596ZM47.4799 97.0596H39.3599V93.0596H47.4799V97.0596ZM35.2999 97.0596H27.1799V93.0596H35.2999V97.0596ZM23.1199 97.0596H15.8399H14.8399L15.1399 93.0596H23.1399L23.1199 97.0596ZM88.8799 96.1196L87.3799 92.4196C89.4174 91.5743 91.0653 89.9977 91.9999 87.9996L95.6199 89.7196C94.2561 92.6232 91.8502 94.9078 88.8799 96.1196ZM10.2199 95.7796C7.30265 94.3716 5.02418 91.9146 3.8399 88.8996L7.5599 87.4196C8.3806 89.5132 9.96834 91.2154 11.9999 92.1796L10.2199 95.7796ZM96.8999 85.0396L92.8999 84.7796C92.8999 84.5796 92.8999 84.3796 92.8999 84.1596V76.7796H96.8999V84.1596C96.9399 84.4596 96.9199 84.7596 96.8999 85.0396ZM2.8999 84.1996V75.9996H6.8999V83.9996L2.8999 84.1996ZM96.8999 72.7196H92.8999V64.5996H96.8999V72.7196ZM6.9399 71.9996H2.9399V63.9996H6.9399V71.9996ZM96.9399 60.5196H92.9399V52.4196H96.9399V60.5196ZM6.9399 59.7996H2.9399V51.6996H6.9399V59.7996ZM96.9399 48.3396H92.9399V40.2396H96.9399V48.3396ZM6.9399 47.6196H2.9399V39.5196H6.9399V47.6196ZM96.9399 36.1596H92.9399V27.9996H96.9399V36.1596ZM6.9399 35.4396H2.9399V27.3396H6.9399V35.4396ZM96.9399 23.9596H92.9399V15.9996H96.0599H96.9399V23.9596ZM6.9399 23.2596H2.9399V15.9996C2.91993 15.6799 2.91993 15.3593 2.9399 15.0396L6.9399 15.3396C6.9399 15.5596 6.9399 15.7796 6.9399 15.9996V23.2596ZM92.2999 12.6396C91.449 10.5942 89.8658 8.93975 87.8599 7.99957L89.5799 4.39957C92.4878 5.77379 94.7774 8.1847 95.9999 11.1596L92.2999 12.6396ZM7.7999 12.1196L4.1999 10.3796C5.60307 7.46603 8.0524 5.18807 11.0599 3.99957L12.5399 7.69957C10.4627 8.52817 8.77144 10.1052 7.7999 12.1196ZM84.6799 7.07957H76.6799V3.07957H83.9999H84.9199L84.6799 7.07957ZM72.6799 7.07957H64.5199V3.07957H72.6399L72.6799 7.07957ZM60.4799 7.07957H52.3199V3.07957H60.4399L60.4799 7.07957ZM48.2999 7.07957H40.1399V3.07957H48.2599L48.2999 7.07957ZM35.9999 7.05957H27.9999V3.05957H35.9999V7.05957ZM23.9999 7.05957H15.9999V3.35957V3.05957H23.9999V7.05957Z" fill="#3F8624"/>
<path d="M33.0601 87.6804H10.5601C10.0296 87.6804 9.52092 87.4697 9.14584 87.0946C8.77077 86.7196 8.56006 86.2109 8.56006 85.6804V44.4404C8.56006 43.91 8.77077 43.4013 9.14584 43.0262C9.52092 42.6511 10.0296 42.4404 10.5601 42.4404H33.0601C33.5905 42.4404 34.0992 42.6511 34.4743 43.0262C34.8493 43.4013 35.0601 43.91 35.0601 44.4404V85.6804C35.0601 86.2109 34.8493 86.7196 34.4743 87.0946C34.0992 87.4697 33.5905 87.6804 33.0601 87.6804ZM12.5601 83.6804H31.0601V46.4404H12.5601V83.6804Z" fill="#3F8624"/>
<path d="M61.1801 87.6797H38.6801C38.1496 87.6797 37.6409 87.469 37.2658 87.0939C36.8908 86.7188 36.6801 86.2101 36.6801 85.6797V18.1797C36.6801 17.6493 36.8908 17.1405 37.2658 16.7655C37.6409 16.3904 38.1496 16.1797 38.6801 16.1797H61.1801C61.7105 16.1797 62.2192 16.3904 62.5943 16.7655C62.9693 17.1405 63.1801 17.6493 63.1801 18.1797V85.6797C63.1801 86.2101 62.9693 86.7188 62.5943 87.0939C62.2192 87.469 61.7105 87.6797 61.1801 87.6797ZM40.6801 83.6797H59.1801V20.1797H40.6801V83.6797Z" fill="#3F8624"/>
<path d="M89.3199 87.6804H66.8199C66.2895 87.6804 65.7808 87.4697 65.4057 87.0946C65.0307 86.7196 64.8199 86.2109 64.8199 85.6804V29.4404C64.8199 28.91 65.0307 28.4013 65.4057 28.0262C65.7808 27.6511 66.2895 27.4404 66.8199 27.4404H89.3199C89.8504 27.4404 90.3591 27.6511 90.7342 28.0262C91.1092 28.4013 91.3199 28.91 91.3199 29.4404V85.6804C91.3199 86.2109 91.1092 86.7196 90.7342 87.0946C90.3591 87.4697 89.8504 87.6804 89.3199 87.6804ZM68.8199 83.6804H87.3199V31.4404H68.8199V83.6804Z" fill="#3F8624"/>
<path d="M21.82 80.1803C20.4988 80.1803 19.2073 79.7885 18.1088 79.0545C17.0103 78.3205 16.1541 77.2773 15.6485 76.0566C15.1429 74.836 15.0106 73.4929 15.2684 72.1971C15.5261 70.9013 16.1623 69.7111 17.0965 68.7768C18.0308 67.8426 19.221 67.2064 20.5168 66.9487C21.8126 66.6909 23.1557 66.8232 24.3763 67.3288C25.597 67.8344 26.6402 68.6906 27.3742 69.7891C28.1082 70.8876 28.5 72.1791 28.5 73.5003C28.4947 75.2703 27.7893 76.9664 26.5377 78.218C25.2861 79.4696 23.59 80.175 21.82 80.1803ZM21.82 70.8203C21.29 70.8203 20.7718 70.9775 20.3311 71.272C19.8904 71.5665 19.5469 71.985 19.344 72.4747C19.1412 72.9644 19.0881 73.5033 19.1915 74.0232C19.2949 74.543 19.5502 75.0206 19.925 75.3954C20.2998 75.7702 20.7773 76.0254 21.2972 76.1288C21.817 76.2322 22.3559 76.1792 22.8456 75.9763C23.3353 75.7735 23.7539 75.43 24.0484 74.9892C24.3428 74.5485 24.5 74.0304 24.5 73.5003C24.4948 72.7912 24.2107 72.1125 23.7093 71.6111C23.2078 71.1096 22.5292 70.8255 21.82 70.8203Z" fill="#3F8624"/>
<path d="M55.56 80.1802H44.32C43.967 80.1801 43.6202 80.0866 43.3151 79.9092C43.0099 79.7318 42.7571 79.4767 42.5824 79.17C42.4077 78.8632 42.3173 78.5157 42.3204 78.1627C42.3235 77.8097 42.4199 77.4638 42.6 77.1602L48.22 67.7802C48.397 67.4817 48.6487 67.2345 48.9503 67.0628C49.2519 66.8911 49.5929 66.8008 49.94 66.8008C50.287 66.8008 50.628 66.8911 50.9296 67.0628C51.2312 67.2345 51.4829 67.4817 51.66 67.7802L57.28 77.1602C57.46 77.4638 57.5565 77.8097 57.5595 78.1627C57.5626 78.5157 57.4722 78.8632 57.2975 79.17C57.1228 79.4767 56.87 79.7318 56.5649 79.9092C56.2597 80.0866 55.913 80.1801 55.56 80.1802ZM47.84 76.1802H52L50 72.7002L47.84 76.1802Z" fill="#3F8624"/>
<path d="M83.6799 80.1804H72.4399C71.9095 80.1804 71.4008 79.9697 71.0257 79.5946C70.6507 79.2196 70.4399 78.7109 70.4399 78.1804V66.9404C70.4399 66.41 70.6507 65.9013 71.0257 65.5262C71.4008 65.1511 71.9095 64.9404 72.4399 64.9404H83.6799C84.2104 64.9404 84.7191 65.1511 85.0942 65.5262C85.4692 65.9013 85.6799 66.41 85.6799 66.9404V78.1804C85.6799 78.4431 85.6282 78.7031 85.5277 78.9458C85.4272 79.1884 85.2799 79.4089 85.0942 79.5946C84.9084 79.7804 84.688 79.9277 84.4453 80.0282C84.2027 80.1287 83.9426 80.1804 83.6799 80.1804ZM74.4399 76.1804H81.6799V68.9404H74.4399V76.1804Z" fill="#3F8624"/>
</svg>
