<svg width="100" height="100" viewBox="0 0 100 100" fill="none" xmlns="http://www.w3.org/2000/svg">
<path d="M79.1201 85.3997H20.8801C19.2162 85.3944 17.6219 84.731 16.4453 83.5545C15.2687 82.3779 14.6054 80.7836 14.6001 79.1197V20.8996C14.6054 19.2376 15.2694 17.6453 16.4465 16.4719C17.6237 15.2985 19.218 14.6396 20.8801 14.6396H79.1201C80.7822 14.6396 82.3765 15.2985 83.5537 16.4719C84.7308 17.6453 85.3948 19.2376 85.4001 20.8996V79.1197C85.3948 80.7836 84.7315 82.3779 83.5549 83.5545C82.3783 84.731 80.784 85.3944 79.1201 85.3997ZM20.8801 18.6396C20.5816 18.637 20.2856 18.6935 20.0091 18.8059C19.7326 18.9183 19.4811 19.0844 19.2691 19.2945C19.0571 19.5046 18.8888 19.7546 18.774 20.0301C18.6592 20.3056 18.6001 20.6012 18.6001 20.8996V79.1197C18.6001 79.7243 18.8403 80.3043 19.2679 80.7318C19.6955 81.1594 20.2754 81.3997 20.8801 81.3997H79.1201C79.7248 81.3997 80.3047 81.1594 80.7323 80.7318C81.1599 80.3043 81.4001 79.7243 81.4001 79.1197V20.8996C81.4001 20.6012 81.341 20.3056 81.2262 20.0301C81.1114 19.7546 80.9431 19.5046 80.7311 19.2945C80.5191 19.0844 80.2676 18.9183 79.9911 18.8059C79.7146 18.6935 79.4186 18.637 79.1201 18.6396H20.8801Z" fill="#3F8624"/>
<path d="M30.8999 6.05957H26.8999V16.5996H30.8999V6.05957Z" fill="#3F8624"/>
<path d="M41.46 6.05957H37.46V16.5996H41.46V6.05957Z" fill="#3F8624"/>
<path d="M52 6.05957H48V16.5996H52V6.05957Z" fill="#3F8624"/>
<path d="M62.54 6.05957H58.54V16.5996H62.54V6.05957Z" fill="#3F8624"/>
<path d="M73.1001 6.05957H69.1001V16.5996H73.1001V6.05957Z" fill="#3F8624"/>
<path d="M30.8999 83.4004H26.8999V93.9404H30.8999V83.4004Z" fill="#3F8624"/>
<path d="M41.46 83.4004H37.46V93.9404H41.46V83.4004Z" fill="#3F8624"/>
<path d="M52 83.4004H48V93.9404H52V83.4004Z" fill="#3F8624"/>
<path d="M62.54 83.4004H58.54V93.9404H62.54V83.4004Z" fill="#3F8624"/>
<path d="M73.1001 83.4004H69.1001V93.9404H73.1001V83.4004Z" fill="#3F8624"/>
<path d="M16.6001 26.9004H6.06006V30.9004H16.6001V26.9004Z" fill="#3F8624"/>
<path d="M16.6001 37.46H6.06006V41.46H16.6001V37.46Z" fill="#3F8624"/>
<path d="M16.6001 48H6.06006V52H16.6001V48Z" fill="#3F8624"/>
<path d="M16.6001 58.54H6.06006V62.54H16.6001V58.54Z" fill="#3F8624"/>
<path d="M16.6001 69.0996H6.06006V73.0996H16.6001V69.0996Z" fill="#3F8624"/>
<path d="M93.9399 26.9004H83.3999V30.9004H93.9399V26.9004Z" fill="#3F8624"/>
<path d="M93.9399 37.46H83.3999V41.46H93.9399V37.46Z" fill="#3F8624"/>
<path d="M93.9399 48H83.3999V52H93.9399V48Z" fill="#3F8624"/>
<path d="M93.9399 58.54H83.3999V62.54H93.9399V58.54Z" fill="#3F8624"/>
<path d="M93.9399 69.0996H83.3999V73.0996H93.9399V69.0996Z" fill="#3F8624"/>
<path d="M52.36 68.46C49.1955 68.46 46.1021 67.5216 43.4709 65.7635C40.8397 64.0054 38.7889 61.5065 37.5779 58.5829C36.3669 55.6593 36.0501 52.4422 36.6674 49.3385C37.2848 46.2348 38.8086 43.3839 41.0463 41.1463C43.2839 38.9086 46.1349 37.3848 49.2386 36.7674C52.3422 36.15 55.5593 36.4669 58.4829 37.6779C61.4065 38.8889 63.9054 40.9397 65.6635 43.5708C67.4216 46.202 68.36 49.2955 68.36 52.46C68.36 56.7034 66.6743 60.7731 63.6737 63.7737C60.6731 66.7743 56.6035 68.46 52.36 68.46ZM52.36 40.46C49.9866 40.46 47.6665 41.1638 45.6932 42.4823C43.7198 43.8009 42.1817 45.675 41.2734 47.8678C40.3652 50.0605 40.1275 52.4733 40.5906 54.801C41.0536 57.1288 42.1965 59.267 43.8747 60.9452C45.5529 62.6235 47.6911 63.7664 50.0189 64.2294C52.3467 64.6924 54.7595 64.4548 56.9522 63.5465C59.1449 62.6383 61.0191 61.1002 62.3376 59.1268C63.6562 57.1534 64.36 54.8333 64.36 52.46C64.3389 49.2913 63.0653 46.2595 60.8171 44.0264C58.569 41.7932 55.5288 40.5399 52.36 40.54V40.46Z" fill="#3F8624"/>
<path d="M52.36 62.8596C50.3061 62.8596 48.2985 62.2503 46.5911 61.1089C44.8837 59.9674 43.5532 58.3451 42.7682 56.4472C41.9832 54.5494 41.7788 52.4613 42.1809 50.4472C42.583 48.4331 43.5736 46.5836 45.0273 45.1328C46.481 43.6819 48.3324 42.6949 50.3472 42.2966C52.3621 41.8984 54.4498 42.1068 56.3461 42.8955C58.2424 43.6842 59.8622 45.0177 61.0004 46.7274C62.1385 48.437 62.7439 50.4458 62.74 52.4996C62.7347 55.2491 61.6387 57.8842 59.6927 59.8265C57.7466 61.7688 55.1095 62.8596 52.36 62.8596ZM52.36 46.1196C51.0981 46.1196 49.8646 46.4938 48.8154 47.1948C47.7662 47.8959 46.9485 48.8923 46.4656 50.0581C45.9827 51.2239 45.8564 52.5067 46.1026 53.7443C46.3487 54.9819 46.9564 56.1187 47.8486 57.011C48.7409 57.9032 49.8777 58.5109 51.1153 58.757C52.3529 59.0032 53.6357 58.8769 54.8015 58.394C55.9673 57.9111 56.9637 57.0933 57.6647 56.0442C58.3658 54.995 58.74 53.7615 58.74 52.4996C58.74 51.6618 58.5749 50.8322 58.2543 50.0581C57.9337 49.284 57.4637 48.5807 56.8713 47.9883C56.2789 47.3958 55.5755 46.9259 54.8015 46.6053C54.0274 46.2846 53.1978 46.1196 52.36 46.1196Z" fill="#3F8624"/>
<path d="M36 38.0002H28.9C28.3695 38.0002 27.8608 37.7894 27.4857 37.4144C27.1107 37.0393 26.9 36.5306 26.9 36.0002V32.8202C26.8111 31.8073 27.1276 30.8006 27.7799 30.0207C28.4323 29.2409 29.3673 28.7516 30.38 28.6602H34.38C34.8945 28.685 35.3987 28.8137 35.8622 29.0385C36.3258 29.2633 36.739 29.5795 37.0772 29.9681C37.4154 30.3567 37.6715 30.8097 37.83 31.2998C37.9886 31.79 38.0464 32.3071 38 32.8202V36.0002C38 36.5306 37.7892 37.0393 37.4142 37.4144C37.0391 37.7894 36.5304 38.0002 36 38.0002ZM30.96 34.0002H34V32.8802C34.0097 32.8273 34.0097 32.773 34 32.7202H31C31 32.7202 31 32.8202 31 32.8802L30.96 34.0002Z" fill="#3F8624"/>
<path d="M34.8399 44.7196H29.9999C29.722 44.7305 29.451 44.6318 29.2452 44.4447C29.0394 44.2577 28.9154 43.9972 28.8999 43.7196V42.2196C28.9154 41.9419 29.0394 41.6815 29.2452 41.4944C29.451 41.3074 29.722 41.2086 29.9999 41.2196H34.8399C35.1178 41.2086 35.3888 41.3074 35.5946 41.4944C35.8004 41.6815 35.9244 41.9419 35.9399 42.2196V43.7196C35.9244 43.9972 35.8004 44.2577 35.5946 44.4447C35.3888 44.6318 35.1178 44.7305 34.8399 44.7196Z" fill="#3F8624"/>
<path d="M73.1001 73.1004H26.8601C25.4632 73.0951 24.1254 72.5365 23.1395 71.5469C22.1536 70.5572 21.6001 69.2173 21.6001 67.8204V39.1804C21.6211 37.7993 22.1845 36.4818 23.1687 35.5126C24.1529 34.5434 25.4788 34.0002 26.8601 34.0004H41.4201L42.0001 31.1604C42.3401 29.5004 43.7801 26.9004 46.2001 26.9004H58.7801C61.2001 26.9004 62.6601 29.5004 63.0001 31.1604L63.5801 34.0004H73.1001C74.4951 34.0004 75.833 34.5546 76.8195 35.541C77.8059 36.5275 78.3601 37.8654 78.3601 39.2604V67.8204C78.3601 69.2173 77.8066 70.5572 76.8207 71.5469C75.8348 72.5365 74.497 73.0951 73.1001 73.1004ZM26.8601 38.0004C26.5259 38.0004 26.2054 38.1331 25.9691 38.3694C25.7328 38.6057 25.6001 38.9262 25.6001 39.2604V67.8204C25.6001 68.1564 25.7322 68.479 25.9679 68.7185C26.2036 68.958 26.5241 69.0951 26.8601 69.1004H73.1001C73.4361 69.0951 73.7566 68.958 73.9923 68.7185C74.228 68.479 74.3601 68.1564 74.3601 67.8204V39.1804C74.3601 39.0149 74.3275 38.8511 74.2642 38.6982C74.2009 38.5453 74.1081 38.4064 73.9911 38.2894C73.8741 38.1724 73.7352 38.0796 73.5823 38.0163C73.4294 37.953 73.2656 37.9204 73.1001 37.9204H62.0001C61.5322 37.9298 61.0758 37.7749 60.7104 37.4825C60.345 37.1902 60.0936 36.7789 60.0001 36.3204L59.0801 32.0004C58.9787 31.6122 58.7945 31.2506 58.5401 30.9404H46.5401C46.2781 31.2456 46.0929 31.609 46.0001 32.0004L45.0801 36.3604C44.9866 36.8189 44.7353 37.2302 44.3698 37.5225C44.0044 37.8149 43.548 37.9698 43.0801 37.9604L26.8601 38.0004Z" fill="#3F8624"/>
</svg>
