<svg width="100" height="100" viewBox="0 0 100 100" fill="none" xmlns="http://www.w3.org/2000/svg">
<path d="M49.9999 96.9404C40.6991 96.9523 31.6039 94.2043 23.8656 89.0445C16.1273 83.8846 10.0939 76.5448 6.52911 67.9543C2.96435 59.3637 2.02854 49.9086 3.84013 40.7859C5.65172 31.6632 10.1293 23.2831 16.7059 16.7064C23.2826 10.1298 31.6627 5.65221 40.7854 3.84062C49.9081 2.02903 59.3632 2.96484 67.9538 6.5296C76.5444 10.0943 83.8841 16.1278 89.044 23.8661C94.2039 31.6043 96.9518 40.6996 96.9399 50.0004C96.9135 62.4416 91.9596 74.3656 83.1623 83.1628C74.3651 91.9601 62.4411 96.914 49.9999 96.9404ZM49.9999 6.94041C41.4953 6.92855 33.1782 9.43886 26.1003 14.1539C19.0224 18.8689 13.5017 25.5769 10.2361 33.4296C6.97061 41.2823 6.10701 49.9269 7.75454 58.2704C9.40206 66.6139 13.4867 74.2815 19.492 80.3035C25.4972 86.3255 33.1534 90.4316 41.4922 92.1024C49.8311 93.7732 58.4781 92.9337 66.3399 89.6901C74.2016 86.4465 80.925 80.9445 85.6598 73.8798C90.3945 66.8151 92.9281 58.505 92.9399 50.0004C92.9453 38.5993 88.4268 27.6619 80.3762 19.5889C72.3257 11.5159 61.401 6.9669 49.9999 6.94041Z" fill="#3F8624"/>
<path d="M40.1401 81.3001L37.2201 78.5801L64.0001 50.0001L37.2201 21.3001L40.1401 18.5801L68.2801 48.5801C68.6231 48.9499 68.8137 49.4357 68.8137 49.9401C68.8137 50.4445 68.6231 50.9302 68.2801 51.3001L40.1401 81.3001Z" fill="#3F8624"/>
</svg>
