<svg width="100" height="100" viewBox="0 0 100 100" fill="none" xmlns="http://www.w3.org/2000/svg">
<path d="M81.3599 87.6204H18.6399C16.9796 87.6204 15.3874 86.9609 14.2134 85.7869C13.0394 84.6129 12.3799 83.0206 12.3799 81.3604V18.6804C12.3799 17.0183 13.0388 15.424 14.2122 14.2468C15.3856 13.0697 16.9778 12.4057 18.6399 12.4004H81.3599C83.022 12.4057 84.6142 13.0697 85.7876 14.2468C86.961 15.424 87.6199 17.0183 87.6199 18.6804V81.3604C87.6199 83.0206 86.9604 84.6129 85.7864 85.7869C84.6124 86.9609 83.0201 87.6204 81.3599 87.6204ZM18.6399 16.4004C18.0387 16.4057 17.4639 16.6482 17.0406 17.0752C16.6173 17.5022 16.3799 18.0791 16.3799 18.6804V81.3604C16.3851 81.9582 16.6249 82.53 17.0476 82.9527C17.4703 83.3754 18.0421 83.6152 18.6399 83.6204H81.3599C81.9577 83.6152 82.5295 83.3754 82.9522 82.9527C83.3749 82.53 83.6147 81.9582 83.6199 81.3604V18.6804C83.6199 18.0791 83.3824 17.5022 82.9592 17.0752C82.5359 16.6482 81.9611 16.4057 81.3599 16.4004H18.6399Z" fill="#3F8624"/>
<path d="M29.5 3.12012H25.5V14.3801H29.5V3.12012Z" fill="#3F8624"/>
<path d="M40.7599 3.12012H36.7599V14.3801H40.7599V3.12012Z" fill="#3F8624"/>
<path d="M52 3.12012H48V14.3801H52V3.12012Z" fill="#3F8624"/>
<path d="M63.2599 3.12012H59.2599V14.3801H63.2599V3.12012Z" fill="#3F8624"/>
<path d="M74.5 3.12012H70.5V14.3801H74.5V3.12012Z" fill="#3F8624"/>
<path d="M29.5 85.6201H25.5V96.8801H29.5V85.6201Z" fill="#3F8624"/>
<path d="M40.7599 85.6201H36.7599V96.8801H40.7599V85.6201Z" fill="#3F8624"/>
<path d="M52 85.6201H48V96.8801H52V85.6201Z" fill="#3F8624"/>
<path d="M63.2599 85.6201H59.2599V96.8801H63.2599V85.6201Z" fill="#3F8624"/>
<path d="M74.5 85.6201H70.5V96.8801H74.5V85.6201Z" fill="#3F8624"/>
<path d="M14.3801 25.5H3.12012V29.5H14.3801V25.5Z" fill="#3F8624"/>
<path d="M14.3801 36.7598H3.12012V40.7598H14.3801V36.7598Z" fill="#3F8624"/>
<path d="M14.3801 48H3.12012V52H14.3801V48Z" fill="#3F8624"/>
<path d="M14.3801 59.2598H3.12012V63.2598H14.3801V59.2598Z" fill="#3F8624"/>
<path d="M14.3801 70.5H3.12012V74.5H14.3801V70.5Z" fill="#3F8624"/>
<path d="M96.8601 25.5H85.6201V29.5H96.8601V25.5Z" fill="#3F8624"/>
<path d="M96.8601 36.7598H85.6201V40.7598H96.8601V36.7598Z" fill="#3F8624"/>
<path d="M96.8601 48H85.6201V52H96.8601V48Z" fill="#3F8624"/>
<path d="M96.8601 59.2598H85.6201V63.2598H96.8601V59.2598Z" fill="#3F8624"/>
<path d="M96.8601 70.5H85.6201V74.5H96.8601V70.5Z" fill="#3F8624"/>
<path d="M70.6199 72.6199H29.3799C28.8494 72.6199 28.3407 72.4092 27.9657 72.0341C27.5906 71.659 27.3799 71.1503 27.3799 70.6199V29.3799C27.3799 28.8494 27.5906 28.3407 27.9657 27.9657C28.3407 27.5906 28.8494 27.3799 29.3799 27.3799H70.6199C71.1503 27.3799 71.659 27.5906 72.0341 27.9657C72.4092 28.3407 72.6199 28.8494 72.6199 29.3799V70.6199C72.6199 71.1503 72.4092 71.659 72.0341 72.0341C71.659 72.4092 71.1503 72.6199 70.6199 72.6199ZM31.3799 68.6199H68.6199V31.3799H31.3799V68.6199Z" fill="#3F8624"/>
<path d="M53.7599 65.1199H46.2399C45.7095 65.1199 45.2007 64.9092 44.8257 64.5341C44.4506 64.159 44.2399 63.6503 44.2399 63.1199V55.7599H36.8799C36.3494 55.7599 35.8407 55.5492 35.4657 55.1741C35.0906 54.799 34.8799 54.2903 34.8799 53.7599V46.2399C34.8799 45.7095 35.0906 45.2007 35.4657 44.8257C35.8407 44.4506 36.3494 44.2399 36.8799 44.2399H44.2399V36.8799C44.2399 36.3494 44.4506 35.8407 44.8257 35.4657C45.2007 35.0906 45.7095 34.8799 46.2399 34.8799H53.7599C54.2903 34.8799 54.799 35.0906 55.1741 35.4657C55.5492 35.8407 55.7599 36.3494 55.7599 36.8799V44.2399H63.1199C63.6503 44.2399 64.159 44.4506 64.5341 44.8257C64.9092 45.2007 65.1199 45.7095 65.1199 46.2399V53.7599C65.1199 54.2903 64.9092 54.799 64.5341 55.1741C64.159 55.5492 63.6503 55.7599 63.1199 55.7599H55.7599V63.1199C55.7599 63.6503 55.5492 64.159 55.1741 64.5341C54.799 64.9092 54.2903 65.1199 53.7599 65.1199ZM48.2399 61.1199H51.7599V53.7599C51.7599 53.2294 51.9706 52.7207 52.3457 52.3457C52.7207 51.9706 53.2294 51.7599 53.7599 51.7599H61.1199V48.2399H53.7599C53.2294 48.2399 52.7207 48.0292 52.3457 47.6541C51.9706 47.279 51.7599 46.7703 51.7599 46.2399V38.8799H48.2399V46.2399C48.2399 46.7703 48.0292 47.279 47.6541 47.6541C47.279 48.0292 46.7703 48.2399 46.2399 48.2399H38.8799V51.7599H46.2399C46.7703 51.7599 47.279 51.9706 47.6541 52.3457C48.0292 52.7207 48.2399 53.2294 48.2399 53.7599V61.1199Z" fill="#3F8624"/>
</svg>
