<svg width="100" height="100" viewBox="0 0 100 100" fill="none" xmlns="http://www.w3.org/2000/svg">
<path d="M95 74.5H5C4.46957 74.5 3.96086 74.2893 3.58579 73.9142C3.21071 73.5391 3 73.0304 3 72.5V27.5C3 26.9696 3.21071 26.4609 3.58579 26.0858C3.96086 25.7107 4.46957 25.5 5 25.5H95C95.5304 25.5 96.0391 25.7107 96.4142 26.0858C96.7893 26.4609 97 26.9696 97 27.5V72.5C97 73.0304 96.7893 73.5391 96.4142 73.9142C96.0391 74.2893 95.5304 74.5 95 74.5ZM7 70.5H93V29.5H7V70.5Z" fill="#3F8624"/>
<path d="M58.3799 21.0603C57.8826 19.2183 56.7923 17.5914 55.2775 16.4314C53.7627 15.2713 51.9079 14.6426 49.9999 14.6426C48.0919 14.6426 46.2371 15.2713 44.7223 16.4314C43.2075 17.5914 42.1172 19.2183 41.6199 21.0603L37.7599 20.0003C38.4737 17.2986 40.0614 14.9089 42.2754 13.2039C44.4895 11.4988 47.2054 10.5742 49.9999 10.5742C52.7944 10.5742 55.5103 11.4988 57.7243 13.2039C59.9384 14.9089 61.5261 17.2986 62.2399 20.0003L58.3799 21.0603Z" fill="#3F8624"/>
<path d="M65.0399 16.9604C63.7749 14.0323 61.6805 11.5384 59.0151 9.78642C56.3496 8.0344 53.2296 7.10082 50.0399 7.10082C46.8502 7.10082 43.7303 8.0344 41.0648 9.78642C38.3993 11.5384 36.305 14.0323 35.0399 16.9604L31.3599 15.3804C32.9209 11.707 35.5281 8.57402 38.8568 6.37171C42.1855 4.16941 46.0886 2.99512 50.0799 2.99512C54.0712 2.99512 57.9743 4.16941 61.303 6.37171C64.6318 8.57402 67.239 11.707 68.7999 15.3804L65.0399 16.9604Z" fill="#3F8624"/>
<path d="M49.9999 89.3605C47.2124 89.3711 44.4998 88.4586 42.2856 86.7653C40.0713 85.0721 38.4799 82.6934 37.7599 80.0005L41.6199 78.9805C42.1172 80.8225 43.2075 82.4494 44.7223 83.6094C46.2371 84.7695 48.0919 85.3982 49.9999 85.3982C51.9079 85.3982 53.7627 84.7695 55.2775 83.6094C56.7923 82.4494 57.8826 80.8225 58.3799 78.9805L62.2399 80.0005C61.5198 82.6934 59.9285 85.0721 57.7142 86.7653C55.4999 88.4586 52.7874 89.3711 49.9999 89.3605Z" fill="#3F8624"/>
<path d="M49.9999 97C46.0086 97.0031 42.1048 95.8306 38.7757 93.629C35.4465 91.4273 32.8395 88.294 31.2799 84.62L34.9599 83.04C36.2249 85.9682 38.3193 88.462 40.9848 90.214C43.6502 91.9661 46.7702 92.8996 49.9599 92.8996C53.1496 92.8996 56.2696 91.9661 58.935 90.214C61.6005 88.462 63.6949 85.9682 64.9599 83.04L68.6399 84.62C67.0857 88.2815 64.491 91.4063 61.1775 93.6069C57.864 95.8076 53.9776 96.9874 49.9999 97Z" fill="#3F8624"/>
<path d="M16.26 61.2399C18.8447 61.2399 20.94 59.1446 20.94 56.5599C20.94 53.9752 18.8447 51.8799 16.26 51.8799C13.6753 51.8799 11.58 53.9752 11.58 56.5599C11.58 59.1446 13.6753 61.2399 16.26 61.2399Z" fill="#3F8624"/>
<path d="M18.2599 59.3799H14.2599V72.4999H18.2599V59.3799Z" fill="#3F8624"/>
<path d="M19.1 44.4196C21.6847 44.4196 23.78 42.3243 23.78 39.7396C23.78 37.1549 21.6847 35.0596 19.1 35.0596C16.5153 35.0596 14.42 37.1549 14.42 39.7396C14.42 42.3243 16.5153 44.4196 19.1 44.4196Z" fill="#3F8624"/>
<path d="M33.26 72.4997H29.26V52.6997L18.58 42.0397L21.42 39.2197L33.26 51.0397V72.4997Z" fill="#3F8624"/>
<path d="M89.5001 51.9998H74.2401V36.7598H89.5001V51.9998ZM78.2401 47.9998H85.5001V40.7598H78.2401V47.9998Z" fill="#3F8624"/>
<path d="M62.18 49.0602C64.7647 49.0602 66.86 46.9649 66.86 44.3802C66.86 41.7955 64.7647 39.7002 62.18 39.7002C59.5953 39.7002 57.5 41.7955 57.5 44.3802C57.5 46.9649 59.5953 49.0602 62.18 49.0602Z" fill="#3F8624"/>
<path d="M76.2401 42.3799H63.1201V46.3799H76.2401V42.3799Z" fill="#3F8624"/>
<path d="M55.6199 65.9401C58.2046 65.9401 60.2999 63.8448 60.2999 61.2601C60.2999 58.6754 58.2046 56.5801 55.6199 56.5801C53.0352 56.5801 50.9399 58.6754 50.9399 61.2601C50.9399 63.8448 53.0352 65.9401 55.6199 65.9401Z" fill="#3F8624"/>
<path d="M94.9999 59.2598H59.3799V63.2598H94.9999V59.2598Z" fill="#3F8624"/>
<path d="M45.3201 53.7399C47.9048 53.7399 50.0001 51.6446 50.0001 49.0599C50.0001 46.4752 47.9048 44.3799 45.3201 44.3799C42.7354 44.3799 40.6401 46.4752 40.6401 49.0599C40.6401 51.6446 42.7354 53.7399 45.3201 53.7399Z" fill="#3F8624"/>
<path d="M43.0001 49.5805L31.1801 37.7605L31.1201 27.5205L35.1201 27.4805L35.1601 36.1005L45.8401 46.7605L43.0001 49.5805Z" fill="#3F8624"/>
</svg>
