<svg width="100" height="100" viewBox="0 0 100 100" fill="none" xmlns="http://www.w3.org/2000/svg">
<path d="M84.0999 97.0004H15.9999C14.2975 97.0136 12.6092 96.6897 11.0326 96.0473C9.45591 95.4049 8.022 94.4568 6.81351 93.2576C5.60502 92.0584 4.64586 90.6319 3.99133 89.0602C3.3368 87.4886 2.99985 85.8029 2.9999 84.1004V16.0004C2.98659 14.2895 3.31375 12.593 3.96235 11.0098C4.61094 9.42655 5.56801 7.98815 6.77783 6.77832C7.98766 5.5685 9.42606 4.61143 11.0093 3.96284C12.5926 3.31424 14.289 2.98708 15.9999 3.00039H84.1999C85.894 3.01347 87.5689 3.36011 89.129 4.02051C90.6891 4.68091 92.1038 5.64214 93.2924 6.84931C94.481 8.05648 95.4202 9.48596 96.0563 11.0561C96.6925 12.6263 97.0131 14.3063 96.9999 16.0004V84.2004C96.9735 87.6043 95.6028 90.8599 93.1864 93.2575C90.77 95.6551 87.5039 97.0005 84.0999 97.0004ZM15.9999 7.00039C14.815 6.98972 13.6399 7.21522 12.5432 7.66373C11.4464 8.11224 10.45 8.77477 9.61215 9.61264C8.77429 10.4505 8.11175 11.4469 7.66324 12.5437C7.21473 13.6404 6.98923 14.8155 6.9999 16.0004V84.2004C7.03154 86.5592 7.99627 88.8094 9.68297 90.4586C11.3697 92.1078 13.641 93.0218 15.9999 93.0004H84.1999C86.5587 92.9951 88.8194 92.0557 90.4873 90.3878C92.1552 88.7199 93.0946 86.4592 93.0999 84.1004V16.0004C93.1106 14.8155 92.8851 13.6404 92.4366 12.5437C91.9881 11.4469 91.3255 10.4505 90.4877 9.61264C89.6498 8.77477 88.6534 8.11224 87.5566 7.66373C86.4599 7.21522 85.2848 6.98972 84.0999 7.00039H15.9999Z" fill="#3F8624"/>
<path d="M44.58 81.6196C44.0496 81.6196 43.5409 81.4089 43.1658 81.0338C42.7907 80.6588 42.58 80.1501 42.58 79.6196V73.6196C42.5761 72.9789 42.3846 72.3533 42.0292 71.8202C41.6738 71.287 41.17 70.8697 40.58 70.6196C36.8314 69.0446 33.5807 66.4814 31.1746 63.2037C28.7685 59.9259 27.2974 56.0564 26.9181 52.0081C26.5389 47.9597 27.2657 43.8843 29.0211 40.2167C30.7765 36.5491 33.4946 33.4267 36.8855 31.1829C40.2764 28.939 44.2128 27.6577 48.2748 27.4756C52.3368 27.2936 56.372 28.2177 59.95 30.1493C63.528 32.081 66.5145 34.9477 68.5909 38.4436C70.6673 41.9395 71.7557 45.9336 71.74 49.9996C71.74 64.2996 60.52 77.5796 45.08 81.5596L44.58 81.6196ZM49.28 31.6196C45.0559 31.6651 40.9751 33.1581 37.7189 35.8493C34.4626 38.5405 32.2279 42.2671 31.3878 46.4071C30.5476 50.5471 31.1528 54.8501 33.1023 58.5977C35.0519 62.3454 38.2278 65.311 42.1 66.9996C43.4205 67.5498 44.5496 68.4767 45.3463 69.6647C46.1431 70.8528 46.5722 72.2492 46.58 73.6796V76.9396C58.98 72.6996 67.74 61.7396 67.74 49.9996C67.7347 45.1053 65.7882 40.413 62.3274 36.9523C58.8666 33.4915 54.1743 31.5449 49.28 31.5396V31.6196Z" fill="#3F8624"/>
<path d="M49.2801 82C41.4893 82.0127 33.9615 79.1827 28.1084 74.0408C22.2554 68.8989 18.4792 61.7984 17.4881 54.0709C16.497 46.3434 18.359 38.5197 22.725 32.0672C27.091 25.6147 33.661 20.9765 41.2029 19.0227C48.7447 17.0689 56.7403 17.9335 63.6901 21.4545C70.6399 24.9754 76.0665 30.9109 78.9522 38.1476C81.8378 45.3843 81.9843 53.4251 79.3641 60.7621C76.7439 68.0992 71.5371 74.2283 64.7201 78C59.9968 80.6233 54.683 82 49.2801 82ZM49.2801 22C43.7422 22 38.3287 23.6422 33.7241 26.7189C29.1196 29.7955 25.5307 34.1685 23.4115 39.2849C21.2922 44.4012 20.7377 50.0311 21.8181 55.4625C22.8985 60.894 25.5653 65.8831 29.4811 69.799C33.397 73.7149 38.3861 76.3816 43.8176 77.462C49.2491 78.5424 54.8789 77.9879 59.9953 75.8686C65.1116 73.7494 69.4846 70.1605 72.5613 65.556C75.638 60.9514 77.2801 55.5379 77.2801 50C77.2801 42.5739 74.3301 35.452 69.0791 30.201C63.8281 24.95 56.7062 22 49.2801 22Z" fill="#3F8624"/>
</svg>
