<svg width="100" height="100" viewBox="0 0 100 100" fill="none" xmlns="http://www.w3.org/2000/svg">
<path d="M80.64 70.7602H5C4.46957 70.7602 3.96086 70.5495 3.58579 70.1745C3.21071 69.7994 3 69.2907 3 68.7602V31.2402C3 30.7098 3.21071 30.2011 3.58579 29.826C3.96086 29.4509 4.46957 29.2402 5 29.2402H80.64C81.9979 29.2402 83.3002 29.7797 84.2604 30.7398C85.2206 31.7 85.76 33.0023 85.76 34.3602V65.6402C85.76 66.9981 85.2206 68.3004 84.2604 69.2606C83.3002 70.2208 81.9979 70.7602 80.64 70.7602ZM7 66.7602H80.64C80.9354 66.7551 81.2173 66.6355 81.4263 66.4265C81.6352 66.2176 81.7549 65.9357 81.76 65.6402V34.3602C81.7549 34.0648 81.6352 33.7829 81.4263 33.574C81.2173 33.365 80.9354 33.2454 80.64 33.2402H7V66.7602Z" fill="#3F8624"/>
<path d="M94.9999 65.1199H83.7599C83.2295 65.1199 82.7207 64.9092 82.3457 64.5341C81.9706 64.159 81.7599 63.6503 81.7599 63.1199V36.8799C81.7599 36.3494 81.9706 35.8407 82.3457 35.4657C82.7207 35.0906 83.2295 34.8799 83.7599 34.8799H94.9999C95.5303 34.8799 96.039 35.0906 96.4141 35.4657C96.7892 35.8407 96.9999 36.3494 96.9999 36.8799V63.1199C96.9999 63.3825 96.9481 63.6426 96.8476 63.8853C96.7471 64.1279 96.5998 64.3484 96.4141 64.5341C96.2284 64.7198 96.0079 64.8671 95.7652 64.9676C95.5226 65.0682 95.2625 65.1199 94.9999 65.1199ZM85.7599 61.1199H92.9999V38.8799H85.7599V61.1199Z" fill="#3F8624"/>
<path fill-rule="evenodd" clip-rule="evenodd" d="M64.86 48.3802C57.6885 53.2368 49.2212 55.8223 40.56 55.8002C29.6091 55.8493 19.0335 51.813 10.9 44.4802C10.28 43.9202 10.9 43.1602 11.56 43.6002C20.6101 48.7533 30.8456 51.4621 41.26 51.4602C49.0709 51.439 56.8001 49.8687 64 46.8402C65.02 46.3602 66 47.5602 64.86 48.3802Z" fill="#3F8624"/>
<path fill-rule="evenodd" clip-rule="evenodd" d="M67.6001 45.2399C66.7601 44.1799 62.0401 44.7399 59.9201 44.9999C59.2801 44.9999 59.1801 44.4999 59.7601 44.0999C63.5201 41.4599 69.7601 42.2199 70.4001 43.0999C71.0401 43.9799 70.2001 50.1799 66.6801 53.0999C66.1401 53.5599 65.6201 53.3199 65.8601 52.7199C66.6601 50.7599 68.4401 46.3199 67.6001 45.2399Z" fill="#3F8624"/>
</svg>
