<svg width="100" height="100" viewBox="0 0 100 100" fill="none" xmlns="http://www.w3.org/2000/svg">
<path d="M79.1201 85.3997H20.8801C19.2162 85.3944 17.6219 84.731 16.4453 83.5545C15.2687 82.3779 14.6054 80.7836 14.6001 79.1197V20.8996C14.6054 19.2376 15.2694 17.6453 16.4465 16.4719C17.6237 15.2985 19.218 14.6396 20.8801 14.6396H79.1201C80.7822 14.6396 82.3765 15.2985 83.5537 16.4719C84.7308 17.6453 85.3948 19.2376 85.4001 20.8996V79.1197C85.3948 80.7836 84.7315 82.3779 83.5549 83.5545C82.3783 84.731 80.784 85.3944 79.1201 85.3997ZM20.8801 18.6396C20.5816 18.637 20.2856 18.6935 20.0091 18.8059C19.7326 18.9183 19.4811 19.0844 19.2691 19.2945C19.0571 19.5046 18.8888 19.7546 18.774 20.0301C18.6592 20.3056 18.6001 20.6012 18.6001 20.8996V79.1197C18.6001 79.7243 18.8403 80.3043 19.2679 80.7318C19.6955 81.1594 20.2754 81.3997 20.8801 81.3997H79.1201C79.7248 81.3997 80.3047 81.1594 80.7323 80.7318C81.1599 80.3043 81.4001 79.7243 81.4001 79.1197V20.8996C81.4001 20.6012 81.341 20.3056 81.2262 20.0301C81.1114 19.7546 80.9431 19.5046 80.7311 19.2945C80.5191 19.0844 80.2676 18.9183 79.9911 18.8059C79.7146 18.6935 79.4186 18.637 79.1201 18.6396H20.8801Z" fill="#3F8624"/>
<path d="M30.8999 6.05957H26.8999V16.5996H30.8999V6.05957Z" fill="#3F8624"/>
<path d="M41.46 6.05957H37.46V16.5996H41.46V6.05957Z" fill="#3F8624"/>
<path d="M52 6.05957H48V16.5996H52V6.05957Z" fill="#3F8624"/>
<path d="M62.54 6.05957H58.54V16.5996H62.54V6.05957Z" fill="#3F8624"/>
<path d="M73.1001 6.05957H69.1001V16.5996H73.1001V6.05957Z" fill="#3F8624"/>
<path d="M30.8999 83.4004H26.8999V93.9404H30.8999V83.4004Z" fill="#3F8624"/>
<path d="M41.46 83.4004H37.46V93.9404H41.46V83.4004Z" fill="#3F8624"/>
<path d="M52 83.4004H48V93.9404H52V83.4004Z" fill="#3F8624"/>
<path d="M62.54 83.4004H58.54V93.9404H62.54V83.4004Z" fill="#3F8624"/>
<path d="M73.1001 83.4004H69.1001V93.9404H73.1001V83.4004Z" fill="#3F8624"/>
<path d="M16.6001 26.9004H6.06006V30.9004H16.6001V26.9004Z" fill="#3F8624"/>
<path d="M16.6001 37.46H6.06006V41.46H16.6001V37.46Z" fill="#3F8624"/>
<path d="M16.6001 48H6.06006V52H16.6001V48Z" fill="#3F8624"/>
<path d="M16.6001 58.54H6.06006V62.54H16.6001V58.54Z" fill="#3F8624"/>
<path d="M16.6001 69.0996H6.06006V73.0996H16.6001V69.0996Z" fill="#3F8624"/>
<path d="M93.9399 26.9004H83.3999V30.9004H93.9399V26.9004Z" fill="#3F8624"/>
<path d="M93.9399 37.46H83.3999V41.46H93.9399V37.46Z" fill="#3F8624"/>
<path d="M93.9399 48H83.3999V52H93.9399V48Z" fill="#3F8624"/>
<path d="M93.9399 58.54H83.3999V62.54H93.9399V58.54Z" fill="#3F8624"/>
<path d="M93.9399 69.0996H83.3999V73.0996H93.9399V69.0996Z" fill="#3F8624"/>
<path d="M61.3 58.54H41.54V62.54H61.3V58.54Z" fill="#3F8624"/>
<path d="M77.14 62.5405H72.7V58.5405H76.12V55.7405C76.12 52.1005 74.66 50.1805 71.4 49.5405C71.092 49.4784 70.8029 49.3447 70.5562 49.1501C70.3095 48.9555 70.1121 48.7056 69.98 48.4204L65.3 38.2604C65.2104 38.1673 65.1009 38.0955 64.9797 38.0505C64.8585 38.0055 64.7287 37.9884 64.6 38.0004H45.7C45.6522 38.0042 45.6063 38.0211 45.5674 38.0494C45.5286 38.0776 45.4983 38.1161 45.48 38.1604L42.98 45.7405C42.8605 46.3057 42.5997 46.8314 42.2219 47.2686C41.8442 47.7057 41.3619 48.0401 40.82 48.2405L28.22 52.2405C28.0741 52.2612 27.926 52.2612 27.78 52.2405C27.6624 52.2765 27.5605 52.3517 27.4914 52.4535C27.4223 52.5554 27.3901 52.6778 27.4 52.8004V58.5805H30.34V62.5805H26.34C25.9444 62.5805 25.5526 62.5022 25.1873 62.3502C24.8221 62.1982 24.4904 61.9754 24.2116 61.6947C23.9328 61.414 23.7122 61.0809 23.5626 60.7146C23.413 60.3484 23.3374 59.9561 23.34 59.5605V52.7604C23.3303 51.6777 23.7079 50.6271 24.4048 49.7982C25.1016 48.9694 26.0717 48.4169 27.14 48.2405L39.14 44.5204L41.66 36.8605C41.9367 36.016 42.4716 35.2797 43.1894 34.7558C43.9072 34.2318 44.7714 33.9466 45.66 33.9404H64.6C65.4736 33.938 66.3315 34.1731 67.0818 34.6205C67.8321 35.0679 68.4468 35.7108 68.86 36.4804L73.2 45.8604C77.68 47.1404 80.12 50.6005 80.12 55.7405V59.5205C80.1227 59.9144 80.0477 60.305 79.8993 60.67C79.751 61.035 79.5322 61.3672 79.2555 61.6476C78.9788 61.9281 78.6495 62.1513 78.2866 62.3045C77.9236 62.4576 77.534 62.5378 77.14 62.5405Z" fill="#3F8624"/>
<path d="M36 68.1599C34.492 68.1639 33.0168 67.7203 31.7611 66.8854C30.5054 66.0505 29.5256 64.8619 28.9458 63.4698C28.366 62.0778 28.2122 60.5451 28.504 59.0656C28.7957 57.5862 29.5199 56.2265 30.5848 55.1589C31.6496 54.0912 33.0074 53.3635 34.486 53.0678C35.9647 52.7722 37.4979 52.9219 38.8914 53.498C40.2849 54.0742 41.4762 55.0509 42.3144 56.3044C43.1526 57.5579 43.6 59.032 43.6 60.5399C43.5947 62.5558 42.793 64.4879 41.3694 65.9152C39.9458 67.3425 38.0158 68.1494 36 68.1599ZM36 56.9399C35.2823 56.9359 34.5797 57.1454 33.9813 57.5416C33.383 57.9379 32.9159 58.503 32.6394 59.1653C32.363 59.8276 32.2896 60.5571 32.4286 61.2612C32.5677 61.9653 32.9129 62.6121 33.4203 63.1196C33.9278 63.627 34.5746 63.9722 35.2787 64.1113C35.9828 64.2503 36.7123 64.1769 37.3746 63.9005C38.0368 63.624 38.602 63.1569 38.9982 62.5586C39.3945 61.9602 39.6039 61.2576 39.6 60.5399C39.5947 59.5867 39.2138 58.6741 38.5398 58.0001C37.8658 57.3261 36.9531 56.9452 36 56.9399Z" fill="#3F8624"/>
<path d="M66.8999 68.1599C65.3928 68.1599 63.9196 67.713 62.6665 66.8757C61.4134 66.0384 60.4367 64.8483 59.86 63.456C59.2832 62.0636 59.1323 60.5315 59.4263 59.0533C59.7203 57.5752 60.4461 56.2174 61.5118 55.1518C62.5774 54.0861 63.9352 53.3604 65.4133 53.0663C66.8915 52.7723 68.4236 52.9232 69.816 53.5C71.2083 54.0767 72.3984 55.0534 73.2357 56.3065C74.073 57.5596 74.5199 59.0328 74.5199 60.5399C74.5199 62.5609 73.7171 64.4991 72.2881 65.9281C70.859 67.3571 68.9209 68.1599 66.8999 68.1599ZM66.8999 56.9399C66.1831 56.9399 65.4824 57.1528 64.8867 57.5514C64.291 57.9501 63.827 58.5166 63.5536 59.1793C63.2802 59.8419 63.2097 60.5708 63.351 61.2735C63.4923 61.9763 63.8391 62.6213 64.3473 63.1267C64.8556 63.6322 65.5025 63.9754 66.206 64.1128C66.9095 64.2502 67.638 64.1757 68.2991 63.8986C68.9602 63.6215 69.5242 63.1544 69.9196 62.5565C70.3149 61.9586 70.5239 61.2567 70.5199 60.5399C70.5146 59.5833 70.1309 58.6677 69.4526 57.9931C68.7743 57.3186 67.8565 56.9399 66.8999 56.9399Z" fill="#3F8624"/>
<path d="M25.4001 56.7803H20.1201V60.7803H25.4001V56.7803Z" fill="#3F8624"/>
</svg>
