<svg width="100" height="100" viewBox="0 0 100 100" fill="none" xmlns="http://www.w3.org/2000/svg">
<path d="M79.1201 85.3997H20.8801C19.2162 85.3944 17.6219 84.731 16.4453 83.5545C15.2687 82.3779 14.6054 80.7836 14.6001 79.1197V20.8996C14.6054 19.2376 15.2694 17.6453 16.4465 16.4719C17.6237 15.2985 19.218 14.6396 20.8801 14.6396H79.1201C80.7822 14.6396 82.3765 15.2985 83.5537 16.4719C84.7308 17.6453 85.3948 19.2376 85.4001 20.8996V79.1197C85.3948 80.7836 84.7315 82.3779 83.5549 83.5545C82.3783 84.731 80.784 85.3944 79.1201 85.3997ZM20.8801 18.6396C20.5816 18.637 20.2856 18.6935 20.0091 18.8059C19.7326 18.9183 19.4811 19.0844 19.2691 19.2945C19.0571 19.5046 18.8888 19.7546 18.774 20.0301C18.6592 20.3056 18.6001 20.6012 18.6001 20.8996V79.1197C18.6001 79.7243 18.8403 80.3043 19.2679 80.7318C19.6955 81.1594 20.2754 81.3997 20.8801 81.3997H79.1201C79.7248 81.3997 80.3047 81.1594 80.7323 80.7318C81.1599 80.3043 81.4001 79.7243 81.4001 79.1197V20.8996C81.4001 20.6012 81.341 20.3056 81.2262 20.0301C81.1114 19.7546 80.9431 19.5046 80.7311 19.2945C80.5191 19.0844 80.2676 18.9183 79.9911 18.8059C79.7146 18.6935 79.4186 18.637 79.1201 18.6396H20.8801Z" fill="#3F8624"/>
<path d="M30.8999 6.05957H26.8999V16.5996H30.8999V6.05957Z" fill="#3F8624"/>
<path d="M41.46 6.05957H37.46V16.5996H41.46V6.05957Z" fill="#3F8624"/>
<path d="M52 6.05957H48V16.5996H52V6.05957Z" fill="#3F8624"/>
<path d="M62.54 6.05957H58.54V16.5996H62.54V6.05957Z" fill="#3F8624"/>
<path d="M73.1001 6.05957H69.1001V16.5996H73.1001V6.05957Z" fill="#3F8624"/>
<path d="M30.8999 83.4004H26.8999V93.9404H30.8999V83.4004Z" fill="#3F8624"/>
<path d="M41.46 83.4004H37.46V93.9404H41.46V83.4004Z" fill="#3F8624"/>
<path d="M52 83.4004H48V93.9404H52V83.4004Z" fill="#3F8624"/>
<path d="M62.54 83.4004H58.54V93.9404H62.54V83.4004Z" fill="#3F8624"/>
<path d="M73.1001 83.4004H69.1001V93.9404H73.1001V83.4004Z" fill="#3F8624"/>
<path d="M16.6001 26.9004H6.06006V30.9004H16.6001V26.9004Z" fill="#3F8624"/>
<path d="M16.6001 37.46H6.06006V41.46H16.6001V37.46Z" fill="#3F8624"/>
<path d="M16.6001 48H6.06006V52H16.6001V48Z" fill="#3F8624"/>
<path d="M16.6001 58.54H6.06006V62.54H16.6001V58.54Z" fill="#3F8624"/>
<path d="M16.6001 69.0996H6.06006V73.0996H16.6001V69.0996Z" fill="#3F8624"/>
<path d="M93.9399 26.9004H83.3999V30.9004H93.9399V26.9004Z" fill="#3F8624"/>
<path d="M93.9399 37.46H83.3999V41.46H93.9399V37.46Z" fill="#3F8624"/>
<path d="M93.9399 48H83.3999V52H93.9399V48Z" fill="#3F8624"/>
<path d="M93.9399 58.54H83.3999V62.54H93.9399V58.54Z" fill="#3F8624"/>
<path d="M93.9399 69.0996H83.3999V73.0996H93.9399V69.0996Z" fill="#3F8624"/>
<path d="M74.5999 76.5996H53.5199C52.9895 76.5996 52.4808 76.3889 52.1057 76.0139C51.7306 75.6388 51.5199 75.1301 51.5199 74.5996V62.5996H48.4799V74.5996C48.4799 75.1301 48.2692 75.6388 47.8941 76.0139C47.5191 76.3889 47.0103 76.5996 46.4799 76.5996H25.3999C24.8695 76.5996 24.3608 76.3889 23.9857 76.0139C23.6106 75.6388 23.3999 75.1301 23.3999 74.5996V27.1396C23.3991 26.8241 23.473 26.5128 23.6155 26.2312C23.758 25.9497 23.9651 25.7058 24.2199 25.5196C24.4804 25.3339 24.7816 25.2134 25.0983 25.1681C25.4149 25.1229 25.7379 25.1543 26.0399 25.2596L58.5399 36.3797V27.1396C58.5399 26.6092 58.7506 26.1005 59.1257 25.7254C59.5008 25.3504 60.0095 25.1396 60.5399 25.1396H65.8199C66.3503 25.1396 66.8591 25.3504 67.2341 25.7254C67.6092 26.1005 67.8199 26.6092 67.8199 27.1396V39.5597L75.2599 42.0996C75.6502 42.2361 75.9886 42.4901 76.2286 42.8268C76.4685 43.1634 76.5983 43.5662 76.5999 43.9796V74.5996C76.5999 75.1301 76.3892 75.6388 76.0141 76.0139C75.639 76.3889 75.1303 76.5996 74.5999 76.5996ZM55.5199 72.5996H72.5999V45.4196L65.1799 42.8797C64.7659 42.7405 64.4089 42.4697 64.1633 42.1085C63.9178 41.7474 63.7971 41.3158 63.8199 40.8797V29.1396H62.5399V39.1396C62.5384 39.4569 62.4615 39.7693 62.3154 40.051C62.1694 40.3327 61.9584 40.5756 61.6999 40.7596C61.4418 40.9422 61.1441 41.0609 60.8312 41.1061C60.5183 41.1513 60.1991 41.1217 59.8999 41.0196L27.3999 29.9996V72.5996H44.4799V60.5996C44.4799 60.0692 44.6906 59.5605 45.0657 59.1854C45.4408 58.8104 45.9495 58.5996 46.4799 58.5996H53.5199C54.0503 58.5996 54.559 58.8104 54.9341 59.1854C55.3092 59.5605 55.5199 60.0692 55.5199 60.5996V72.5996Z" fill="#3F8624"/>
<path d="M39.4599 53.7597H32.4199C31.8895 53.7597 31.3808 53.549 31.0057 53.1739C30.6306 52.7989 30.4199 52.2902 30.4199 51.7597V44.7197C30.4199 44.1893 30.6306 43.6806 31.0057 43.3055C31.3808 42.9304 31.8895 42.7197 32.4199 42.7197H39.4599C39.9904 42.7197 40.4991 42.9304 40.8741 43.3055C41.2492 43.6806 41.4599 44.1893 41.4599 44.7197V51.7597C41.4599 52.2902 41.2492 52.7989 40.8741 53.1739C40.4991 53.549 39.9904 53.7597 39.4599 53.7597ZM34.4199 49.7597H37.4599V46.7197H34.4199V49.7597Z" fill="#3F8624"/>
<path d="M53.52 53.7597H46.48C45.9495 53.7597 45.4408 53.549 45.0658 53.1739C44.6907 52.7989 44.48 52.2902 44.48 51.7597V44.7197C44.48 44.1893 44.6907 43.6806 45.0658 43.3055C45.4408 42.9304 45.9495 42.7197 46.48 42.7197H53.52C54.0504 42.7197 54.5591 42.9304 54.9342 43.3055C55.3093 43.6806 55.52 44.1893 55.52 44.7197V51.7597C55.52 52.2902 55.3093 52.7989 54.9342 53.1739C54.5591 53.549 54.0504 53.7597 53.52 53.7597ZM48.48 49.7597H51.52V46.7197H48.48V49.7597Z" fill="#3F8624"/>
<path d="M39.4599 69.58H32.4199C31.8895 69.58 31.3808 69.3693 31.0057 68.9943C30.6306 68.6192 30.4199 68.1105 30.4199 67.58V60.54C30.4199 60.0096 30.6306 59.5009 31.0057 59.1258C31.3808 58.7508 31.8895 58.54 32.4199 58.54H39.4599C39.9904 58.54 40.4991 58.7508 40.8741 59.1258C41.2492 59.5009 41.4599 60.0096 41.4599 60.54V67.58C41.4599 68.1105 41.2492 68.6192 40.8741 68.9943C40.4991 69.3693 39.9904 69.58 39.4599 69.58ZM34.4199 65.58H37.4599V62.54H34.4199V65.58Z" fill="#3F8624"/>
<path d="M67.58 69.58H60.54C60.0096 69.58 59.5009 69.3693 59.1258 68.9943C58.7508 68.6192 58.54 68.1105 58.54 67.58V60.54C58.54 60.0096 58.7508 59.5009 59.1258 59.1258C59.5009 58.7508 60.0096 58.54 60.54 58.54H67.58C68.1105 58.54 68.6192 58.7508 68.9943 59.1258C69.3693 59.5009 69.58 60.0096 69.58 60.54V67.58C69.58 68.1105 69.3693 68.6192 68.9943 68.9943C68.6192 69.3693 68.1105 69.58 67.58 69.58ZM62.54 65.58H65.58V62.54H62.54V65.58Z" fill="#3F8624"/>
</svg>
