<svg width="100" height="100" viewBox="0 0 100 100" fill="none" xmlns="http://www.w3.org/2000/svg">
<path d="M79.1201 85.3997H20.8801C19.2162 85.3944 17.6219 84.731 16.4453 83.5545C15.2687 82.3779 14.6054 80.7836 14.6001 79.1197V20.8996C14.6054 19.2376 15.2694 17.6453 16.4465 16.4719C17.6237 15.2985 19.218 14.6396 20.8801 14.6396H79.1201C80.7822 14.6396 82.3765 15.2985 83.5537 16.4719C84.7308 17.6453 85.3948 19.2376 85.4001 20.8996V79.1197C85.3948 80.7836 84.7315 82.3779 83.5549 83.5545C82.3783 84.731 80.784 85.3944 79.1201 85.3997ZM20.8801 18.6396C20.5816 18.637 20.2856 18.6935 20.0091 18.8059C19.7326 18.9183 19.4811 19.0844 19.2691 19.2945C19.0571 19.5046 18.8888 19.7546 18.774 20.0301C18.6592 20.3056 18.6001 20.6012 18.6001 20.8996V79.1197C18.6001 79.7243 18.8403 80.3043 19.2679 80.7318C19.6955 81.1594 20.2754 81.3997 20.8801 81.3997H79.1201C79.7248 81.3997 80.3047 81.1594 80.7323 80.7318C81.1599 80.3043 81.4001 79.7243 81.4001 79.1197V20.8996C81.4001 20.6012 81.341 20.3056 81.2262 20.0301C81.1114 19.7546 80.9431 19.5046 80.7311 19.2945C80.5191 19.0844 80.2676 18.9183 79.9911 18.8059C79.7146 18.6935 79.4186 18.637 79.1201 18.6396H20.8801Z" fill="#3F8624"/>
<path d="M30.8999 6.05957H26.8999V16.5996H30.8999V6.05957Z" fill="#3F8624"/>
<path d="M41.46 6.05957H37.46V16.5996H41.46V6.05957Z" fill="#3F8624"/>
<path d="M52 6.05957H48V16.5996H52V6.05957Z" fill="#3F8624"/>
<path d="M62.54 6.05957H58.54V16.5996H62.54V6.05957Z" fill="#3F8624"/>
<path d="M73.1001 6.05957H69.1001V16.5996H73.1001V6.05957Z" fill="#3F8624"/>
<path d="M30.8999 83.4004H26.8999V93.9404H30.8999V83.4004Z" fill="#3F8624"/>
<path d="M41.46 83.4004H37.46V93.9404H41.46V83.4004Z" fill="#3F8624"/>
<path d="M52 83.4004H48V93.9404H52V83.4004Z" fill="#3F8624"/>
<path d="M62.54 83.4004H58.54V93.9404H62.54V83.4004Z" fill="#3F8624"/>
<path d="M73.1001 83.4004H69.1001V93.9404H73.1001V83.4004Z" fill="#3F8624"/>
<path d="M16.6001 26.9004H6.06006V30.9004H16.6001V26.9004Z" fill="#3F8624"/>
<path d="M16.6001 37.46H6.06006V41.46H16.6001V37.46Z" fill="#3F8624"/>
<path d="M16.6001 48H6.06006V52H16.6001V48Z" fill="#3F8624"/>
<path d="M16.6001 58.54H6.06006V62.54H16.6001V58.54Z" fill="#3F8624"/>
<path d="M16.6001 69.0996H6.06006V73.0996H16.6001V69.0996Z" fill="#3F8624"/>
<path d="M93.9399 26.9004H83.3999V30.9004H93.9399V26.9004Z" fill="#3F8624"/>
<path d="M93.9399 37.46H83.3999V41.46H93.9399V37.46Z" fill="#3F8624"/>
<path d="M93.9399 48H83.3999V52H93.9399V48Z" fill="#3F8624"/>
<path d="M93.9399 58.54H83.3999V62.54H93.9399V58.54Z" fill="#3F8624"/>
<path d="M93.9399 69.0996H83.3999V73.0996H93.9399V69.0996Z" fill="#3F8624"/>
<path d="M57.04 66.0003H43.04C42.5095 66.0003 42.0008 65.7896 41.6258 65.4145C41.2507 65.0394 41.04 64.5307 41.04 64.0003V58.7403C38.1103 57.1565 35.6648 54.808 33.9638 51.9447C32.2627 49.0815 31.3698 45.8107 31.38 42.4803C31.38 37.5207 33.3501 32.7643 36.8571 29.2574C40.364 25.7504 45.1204 23.7803 50.08 23.7803C55.0395 23.7803 59.7959 25.7504 63.3029 29.2574C66.8098 32.7643 68.78 37.5207 68.78 42.4803C68.7901 45.8107 67.8972 49.0815 66.1962 51.9447C64.4951 54.808 62.0497 57.1565 59.12 58.7403V64.0003C59.1202 64.2698 59.0659 64.5366 58.9605 64.7846C58.855 65.0326 58.7005 65.2567 58.5062 65.4435C58.3119 65.6303 58.0819 65.776 57.8299 65.8716C57.578 65.9673 57.3093 66.0111 57.04 66.0003ZM45.04 62.0003H55.04V57.5203C55.0373 57.1399 55.1431 56.7666 55.345 56.4443C55.5469 56.1219 55.8366 55.8638 56.18 55.7003C58.7244 54.5539 60.8827 52.6957 62.3945 50.3499C63.9063 48.0041 64.707 45.271 64.7 42.4803C64.7 38.5816 63.1512 34.8426 60.3944 32.0858C57.6377 29.329 53.8987 27.7803 50 27.7803C46.1013 27.7803 42.3623 29.329 39.6055 32.0858C36.8487 34.8426 35.3 38.5816 35.3 42.4803C35.293 45.271 36.0937 48.0041 37.6055 50.3499C39.1173 52.6957 41.2756 54.5539 43.82 55.7003C44.1634 55.8638 44.4531 56.1219 44.655 56.4443C44.8569 56.7666 44.9627 57.1399 44.96 57.5203L45.04 62.0003Z" fill="#3F8624"/>
<path d="M52 48.2402H48V64.0602H52V48.2402Z" fill="#3F8624"/>
<path d="M53.52 46.2402H46.48V50.2402H53.52V46.2402Z" fill="#3F8624"/>
<path d="M55.16 78.3598H44.78C43.18 78.3598 42.02 76.8598 42.02 74.7798V74.1599C42.0167 73.7201 42.0774 73.2822 42.2 72.8598C42.0787 72.4304 42.0181 71.9861 42.02 71.5398V70.9198C42.02 68.9198 43.18 67.3398 44.78 67.3398H55.16C56.74 67.3398 57.9 68.8398 57.9 70.9198V71.5398C57.9019 71.9861 57.8413 72.4304 57.72 72.8598C57.8427 73.2822 57.9033 73.7201 57.9 74.1599V74.7798C58 76.8598 56.74 78.3598 55.16 78.3598ZM46.02 74.3598H54V74.1599C54.0057 74.08 54.0057 73.9997 54 73.9198C53.763 73.6021 53.635 73.2163 53.635 72.8198C53.635 72.4234 53.763 72.0376 54 71.7198V71.3398H46V71.5398C45.9833 71.619 45.9833 71.7007 46 71.7798C46.2387 72.1007 46.3675 72.49 46.3675 72.8898C46.3675 73.2897 46.2387 73.679 46 73.9998C46 73.9998 46 73.9999 46 74.1599L46.02 74.3598Z" fill="#3F8624"/>
</svg>
