<svg width="100" height="100" viewBox="0 0 100 100" fill="none" xmlns="http://www.w3.org/2000/svg">
<path d="M81.2799 87.68H18.5799C17.7578 87.68 16.9438 87.518 16.1843 87.2034C15.4248 86.8888 14.7347 86.4277 14.1534 85.8465C13.5721 85.2652 13.111 84.5751 12.7964 83.8156C12.4818 83.0561 12.3199 82.242 12.3199 81.42V18.74C12.3199 17.0779 12.9788 15.4835 14.1522 14.3064C15.3256 13.1292 16.9178 12.4653 18.5799 12.46H81.2799C82.9438 12.4652 84.5381 13.1286 85.7147 14.3052C86.8913 15.4817 87.5546 17.076 87.5599 18.74V81.42C87.5546 83.0821 86.8906 84.6743 85.7135 85.8477C84.5363 87.0211 82.942 87.68 81.2799 87.68ZM18.5799 16.46C17.9787 16.4652 17.4039 16.7078 16.9806 17.1348C16.5573 17.5618 16.3199 18.1387 16.3199 18.74V81.42C16.3251 82.0177 16.5649 82.5895 16.9876 83.0123C17.4103 83.435 17.9821 83.6747 18.5799 83.68H81.2799C81.8811 83.68 82.458 83.4425 82.885 83.0192C83.3121 82.596 83.5546 82.0212 83.5599 81.42V18.74C83.5599 18.1353 83.3197 17.5553 82.8921 17.1278C82.4645 16.7002 81.8846 16.46 81.2799 16.46H18.5799Z" fill="#3F8624"/>
<path d="M29.4399 3.17969H25.4399V14.4397H29.4399V3.17969Z" fill="#3F8624"/>
<path d="M40.6801 3.17969H36.6801V14.4397H40.6801V3.17969Z" fill="#3F8624"/>
<path d="M51.9399 3.17969H47.9399V14.4397H51.9399V3.17969Z" fill="#3F8624"/>
<path d="M63.1801 3.17969H59.1801V14.4397H63.1801V3.17969Z" fill="#3F8624"/>
<path d="M74.4399 3.17969H70.4399V14.4397H74.4399V3.17969Z" fill="#3F8624"/>
<path d="M29.4399 85.6797H25.4399V96.9397H29.4399V85.6797Z" fill="#3F8624"/>
<path d="M40.6801 85.6797H36.6801V96.9397H40.6801V85.6797Z" fill="#3F8624"/>
<path d="M51.9399 85.6797H47.9399V96.9397H51.9399V85.6797Z" fill="#3F8624"/>
<path d="M63.1801 85.6797H59.1801V96.9397H63.1801V85.6797Z" fill="#3F8624"/>
<path d="M74.4399 85.6797H70.4399V96.9397H74.4399V85.6797Z" fill="#3F8624"/>
<path d="M14.3201 25.5596H3.06006V29.5596H14.3201V25.5596Z" fill="#3F8624"/>
<path d="M14.3201 36.8203H3.06006V40.8203H14.3201V36.8203Z" fill="#3F8624"/>
<path d="M14.3201 48.0596H3.06006V52.0596H14.3201V48.0596Z" fill="#3F8624"/>
<path d="M14.3201 59.3203H3.06006V63.3203H14.3201V59.3203Z" fill="#3F8624"/>
<path d="M14.3201 70.5596H3.06006V74.5596H14.3201V70.5596Z" fill="#3F8624"/>
<path d="M96.8201 25.5596H85.5601V29.5596H96.8201V25.5596Z" fill="#3F8624"/>
<path d="M96.8201 36.8203H85.5601V40.8203H96.8201V36.8203Z" fill="#3F8624"/>
<path d="M96.8201 48.0596H85.5601V52.0596H96.8201V48.0596Z" fill="#3F8624"/>
<path d="M96.8201 59.3203H85.5601V63.3203H96.8201V59.3203Z" fill="#3F8624"/>
<path d="M96.8201 70.5596H85.5601V74.5596H96.8201V70.5596Z" fill="#3F8624"/>
<path d="M72.4401 59.5603H61.0201C60.4897 59.5603 59.981 59.3496 59.6059 58.9745C59.2308 58.5995 59.0201 58.0907 59.0201 57.5603V52.1603H23.6801C23.1497 52.1603 22.641 51.9496 22.2659 51.5745C21.8908 51.1995 21.6801 50.6907 21.6801 50.1603V38.8203C21.6801 38.2899 21.8908 37.7812 22.2659 37.4061C22.641 37.031 23.1497 36.8203 23.6801 36.8203H60.4201C64.1331 36.8203 67.6941 38.2953 70.3196 40.9208C72.9451 43.5463 74.4201 47.1073 74.4201 50.8203V57.5403C74.4227 57.803 74.3736 58.0636 74.2755 58.3072C74.1775 58.5509 74.0324 58.7728 73.8485 58.9604C73.6646 59.148 73.4456 59.2975 73.204 59.4004C72.9623 59.5034 72.7028 59.5577 72.4401 59.5603ZM63.0201 55.5603H70.4401V50.8403C70.4401 48.1881 69.3865 45.6446 67.5112 43.7692C65.6358 41.8939 63.0923 40.8403 60.4401 40.8403H25.6801V48.1803H59.2401C59.7399 48.1803 60.2347 48.2794 60.696 48.4718C61.1572 48.6643 61.5757 48.9463 61.9272 49.3016C62.2788 49.6568 62.5563 50.0782 62.7439 50.5415C62.9315 51.0047 63.0254 51.5006 63.0201 52.0003V55.5603Z" fill="#3F8624"/>
<path d="M67.7601 80.1802C65.9866 80.1803 64.2854 79.4771 63.0295 78.2249C61.7736 76.9728 61.0654 75.2737 61.0601 73.5002C61.0601 71.1602 62.8601 67.8202 65.0601 64.0003C65.4601 63.3003 65.8001 62.7003 66.0001 62.3003C66.1659 61.9674 66.4213 61.6875 66.7375 61.4918C67.0537 61.2961 67.4182 61.1924 67.7901 61.1924C68.1619 61.1924 68.5264 61.2961 68.8426 61.4918C69.1588 61.6875 69.4142 61.9674 69.5801 62.3003C69.7801 62.7003 70.1201 63.3003 70.5201 64.0003C72.6801 67.8202 74.5201 71.1602 74.5201 73.5002C74.5174 74.3835 74.3402 75.2575 73.9986 76.072C73.657 76.8865 73.1577 77.6254 72.5294 78.2462C71.9012 78.8671 71.1564 79.3575 70.3378 79.6895C69.5193 80.0214 68.6433 80.1882 67.7601 80.1802ZM67.7601 67.3003C66.5329 69.2085 65.6212 71.302 65.0601 73.5002C65.1182 74.1736 65.4267 74.8007 65.9248 75.2577C66.4228 75.7146 67.0742 75.9681 67.7501 75.9681C68.4259 75.9681 69.0773 75.7146 69.5753 75.2577C70.0734 74.8007 70.3819 74.1736 70.4401 73.5002C69.8786 71.3054 68.9742 69.213 67.7601 67.3003Z" fill="#3F8624"/>
<path d="M61.1799 31.4403H34.9399C34.4095 31.4403 33.9008 31.2296 33.5257 30.8545C33.1507 30.4795 32.9399 29.9707 32.9399 29.4403V23.8203C32.9399 23.2899 33.1507 22.7812 33.5257 22.4061C33.9008 22.031 34.4095 21.8203 34.9399 21.8203H61.1799C61.7104 21.8203 62.2191 22.031 62.5942 22.4061C62.9692 22.7812 63.1799 23.2899 63.1799 23.8203V29.4403C63.1799 29.9707 62.9692 30.4795 62.5942 30.8545C62.2191 31.2296 61.7104 31.4403 61.1799 31.4403ZM36.9399 27.4403H59.1799V25.8203H36.9399V27.4403Z" fill="#3F8624"/>
<path d="M50.0601 27.96H46.0601V36.94H50.0601V27.96Z" fill="#3F8624"/>
</svg>
