<svg width="100" height="100" viewBox="0 0 100 100" fill="none" xmlns="http://www.w3.org/2000/svg">
<g clip-path="url(#clip0_2385_3959)">
<path d="M100 0H0V100H100V0Z" fill="url(#paint0_linear_2385_3959)"/>
<path d="M50 16.6667C43.8685 16.6695 37.8565 18.3633 32.6254 21.562C27.3943 24.7607 23.1469 29.3403 20.3503 34.797C17.5538 40.2536 16.3165 46.3759 16.7746 52.4903C17.2326 58.6048 19.3683 64.4743 22.9467 69.4534L25.1067 67.8934C22.2834 63.9693 20.4279 59.4333 19.6914 54.6556C18.9549 49.8778 19.3583 44.9936 20.8688 40.4014C22.3793 35.8093 24.954 31.6392 28.3829 28.2316C31.8118 24.8239 35.9977 22.2752 40.5992 20.7933C45.2007 19.3113 50.0873 18.9382 54.8604 19.7044C59.6335 20.4706 64.1578 22.3543 68.0643 25.2019C71.9708 28.0495 75.1488 31.7803 77.3389 36.0899C79.529 40.3995 80.6693 45.1659 80.6667 50.0001C80.6805 56.4246 78.6594 62.6885 74.8934 67.8934L77.0534 69.4534C80.6317 64.4743 82.7674 58.6048 83.2255 52.4903C83.6836 46.3759 82.4463 40.2536 79.6497 34.797C76.8532 29.3403 72.6057 24.7607 67.3746 21.562C62.1436 18.3633 56.1316 16.6695 50 16.6667Z" fill="white"/>
<path d="M67.3333 69.4934V64.6667C67.3333 64.3131 67.1929 63.974 66.9428 63.7239C66.6928 63.4739 66.3536 63.3334 66 63.3334H51.3333V55.3334H66C66.3536 55.3334 66.6928 55.1929 66.9428 54.9429C67.1929 54.6928 67.3333 54.3537 67.3333 54.0001V34.0001C67.3333 33.6465 67.1929 33.3073 66.9428 33.0573C66.6928 32.8072 66.3536 32.6667 66 32.6667H34C33.6464 32.6667 33.3073 32.8072 33.0572 33.0573C32.8072 33.3073 32.6667 33.6465 32.6667 34.0001V54.0001C32.6667 54.3537 32.8072 54.6928 33.0572 54.9429C33.3073 55.1929 33.6464 55.3334 34 55.3334H48.6667V63.3334H34C33.6464 63.3334 33.3073 63.4739 33.0572 63.7239C32.8072 63.974 32.6667 64.3131 32.6667 64.6667V69.4934C31.2284 69.8212 29.9613 70.6674 29.1074 71.8702C28.2536 73.0731 27.8727 74.5484 28.0376 76.0143C28.2026 77.4802 28.9017 78.8339 30.0016 79.8169C31.1014 80.8 32.5249 81.3434 34 81.3434C35.4752 81.3434 36.8986 80.8 37.9984 79.8169C39.0983 78.8339 39.7975 77.4802 39.9624 76.0143C40.1273 74.5484 39.7465 73.0731 38.8926 71.8702C38.0387 70.6674 36.7716 69.8212 35.3333 69.4934V66.0001H48.6667V71.4934C47.2284 71.8212 45.9613 72.6674 45.1074 73.8702C44.2536 75.0731 43.8727 76.5484 44.0376 78.0143C44.2026 79.4802 44.9017 80.8339 46.0016 81.8169C47.1014 82.8 48.5249 83.3434 50 83.3434C51.4751 83.3434 52.8986 82.8 53.9984 81.8169C55.0983 80.8339 55.7975 79.4802 55.9624 78.0143C56.1273 76.5484 55.7465 75.0731 54.8926 73.8702C54.0387 72.6674 52.7716 71.8212 51.3333 71.4934V66.0001H64.6667V69.4934C63.2284 69.8212 61.9613 70.6674 61.1074 71.8702C60.2536 73.0731 59.8727 74.5484 60.0376 76.0143C60.2026 77.4802 60.9017 78.8339 62.0016 79.8169C63.1014 80.8 64.5249 81.3434 66 81.3434C67.4751 81.3434 68.8986 80.8 69.9984 79.8169C71.0983 78.8339 71.7975 77.4802 71.9624 76.0143C72.1273 74.5484 71.7465 73.0731 70.8926 71.8702C70.0387 70.6674 68.7716 69.8212 67.3333 69.4934ZM55.6933 44.0667L64.6667 36.8001V51.2267L55.6933 44.0667ZM50 45.2401L37.76 35.3334H62.24L50 45.2401ZM44.2533 44.0001L35.3333 51.2001V36.8001L44.2533 44.0001ZM46.3733 45.7201L49.16 48.0001C49.3976 48.1928 49.6941 48.298 50 48.298C50.3059 48.298 50.6025 48.1928 50.84 48.0001L53.5067 45.7867L62.12 52.6667H37.7733L46.3733 45.7201ZM37.3333 75.3334C37.3333 75.9927 37.1379 76.6372 36.7716 77.1853C36.4053 77.7335 35.8847 78.1607 35.2756 78.413C34.6665 78.6653 33.9963 78.7313 33.3497 78.6027C32.7031 78.4741 32.1092 78.1566 31.643 77.6904C31.1768 77.2243 30.8593 76.6303 30.7307 75.9837C30.6021 75.3371 30.6681 74.6669 30.9204 74.0578C31.1727 73.4487 31.6 72.9281 32.1481 72.5619C32.6963 72.1956 33.3407 72.0001 34 72.0001C34.8841 72.0001 35.7319 72.3513 36.357 72.9764C36.9822 73.6015 37.3333 74.4494 37.3333 75.3334ZM53.3333 77.3334C53.3333 77.9927 53.1379 78.6372 52.7716 79.1853C52.4053 79.7335 51.8847 80.1607 51.2756 80.413C50.6665 80.6653 49.9963 80.7313 49.3497 80.6027C48.7031 80.4741 48.1092 80.1566 47.643 79.6904C47.1768 79.2243 46.8594 78.6303 46.7307 77.9837C46.6021 77.3371 46.6681 76.6669 46.9204 76.0578C47.1727 75.4487 47.5999 74.9281 48.1481 74.5619C48.6963 74.1956 49.3407 74.0001 50 74.0001C50.8841 74.0001 51.7319 74.3513 52.357 74.9764C52.9822 75.6015 53.3333 76.4494 53.3333 77.3334ZM66 78.6667C65.3407 78.6667 64.6963 78.4713 64.1481 78.105C63.5999 77.7387 63.1727 77.2181 62.9204 76.609C62.6681 75.9999 62.6021 75.3297 62.7307 74.6831C62.8593 74.0365 63.1768 73.4426 63.643 72.9764C64.1092 72.5102 64.7031 72.1928 65.3497 72.0641C65.9963 71.9355 66.6665 72.0015 67.2756 72.2538C67.8847 72.5061 68.4053 72.9333 68.7716 73.4815C69.1379 74.0297 69.3333 74.6741 69.3333 75.3334C69.3333 76.2175 68.9822 77.0653 68.357 77.6904C67.7319 78.3156 66.8841 78.6667 66 78.6667Z" fill="white"/>
</g>
<defs>
<linearGradient id="paint0_linear_2385_3959" x1="-20.7067" y1="120.707" x2="120.707" y2="-20.7067" gradientUnits="userSpaceOnUse">
<stop stop-color="#2E27AD"/>
<stop offset="1" stop-color="#527FFF"/>
</linearGradient>
<clipPath id="clip0_2385_3959">
<rect width="100" height="100" fill="white"/>
</clipPath>
</defs>
</svg>
