<svg width="100" height="100" viewBox="0 0 100 100" fill="none" xmlns="http://www.w3.org/2000/svg">
<g clip-path="url(#clip0_2385_3958)">
<path d="M100 0H0V100H100V0Z" fill="url(#paint0_linear_2385_3958)"/>
<path d="M49.9999 82.0001C45.2478 81.9845 40.5589 80.9107 36.2736 78.8568C31.9883 76.8028 28.2143 73.8202 25.2256 70.1256C22.237 66.431 20.1087 62.1171 18.9953 57.4973C17.882 52.8774 17.8116 48.0676 18.7892 43.4172C19.7668 38.7667 21.7679 34.3924 24.6471 30.6119C27.5263 26.8313 31.2114 23.7395 35.4347 21.561C39.6581 19.3824 44.3136 18.1719 49.0631 18.0172C53.8127 17.8625 58.5371 18.7676 62.8932 20.6667L61.8132 23.1067C56.0298 20.5621 49.5793 19.953 43.4217 21.3699C37.2642 22.7869 31.7288 26.1542 27.6392 30.9708C23.5497 35.7873 21.1248 41.7956 20.7253 48.1014C20.3258 54.4073 21.9731 60.6736 25.422 65.9677C28.871 71.2619 33.9372 75.3009 39.8667 77.4836C45.7962 79.6663 52.2719 79.8761 58.3303 78.0817C64.3886 76.2874 69.7056 72.5847 73.49 67.5249C77.2743 62.4651 79.3238 56.3185 79.3332 50.0001C79.3498 45.95 78.5092 41.9422 76.8666 38.2401L79.3066 37.1601C81.0877 41.2052 81.9964 45.5802 81.9732 50.0001C81.9732 58.4824 78.6055 66.6177 72.6101 72.6181C66.6147 78.6185 58.4822 81.993 49.9999 82.0001Z" fill="white"/>
<path d="M71.7331 20.5602C69.682 20.5672 67.717 21.3861 66.2679 22.8377C64.8188 24.2893 64.0033 26.2557 63.9998 28.3068C63.972 29.8853 64.4382 31.433 65.3331 32.7335L63.5731 34.5335C59.5648 31.0415 54.3558 29.2448 49.047 29.5234C43.7382 29.802 38.7458 32.1339 35.125 36.0262C31.5042 39.9186 29.5388 45.0663 29.6442 50.3814C29.7496 55.6964 31.9176 60.7622 35.6899 64.5079C39.4621 68.2536 44.5431 70.3857 49.8588 70.4536C55.1744 70.5214 60.3081 68.5197 64.1748 64.8715C68.0415 61.2232 70.338 56.2145 70.5791 50.9038C70.8201 45.5932 68.9867 40.397 65.4664 36.4135L67.2664 34.6668C68.5805 35.5649 70.1418 36.031 71.7331 36.0002C73.7877 36.0002 75.7581 35.184 77.2108 33.7312C78.6636 32.2784 79.4798 30.308 79.4798 28.2535C79.4798 26.199 78.6636 24.2286 77.2108 22.7758C75.7581 21.323 73.7877 20.5068 71.7331 20.5068V20.5602ZM67.9998 50.0002C68.0089 54.1022 66.6146 58.0839 64.0483 61.2841C61.4821 64.4843 57.8984 66.7104 53.8924 67.5927C49.8864 68.475 45.699 67.9605 42.0258 66.1345C38.3526 64.3085 35.4145 61.281 33.6995 57.5547C31.9844 53.8284 31.5956 49.6275 32.5976 45.6497C33.5996 41.6719 35.9321 38.1566 39.2078 35.6875C42.4835 33.2183 46.5053 31.944 50.6052 32.0761C54.7051 32.2081 58.6365 33.7387 61.7464 36.4135L56.5464 41.6002C54.4026 39.9378 51.7058 39.1548 49.005 39.4105C46.3042 39.6661 43.8023 40.9413 42.0085 42.9764C40.2146 45.0115 39.2636 47.6537 39.3489 50.3652C39.4342 53.0767 40.5495 55.6538 42.4678 57.5721C44.3861 59.4904 46.9632 60.6057 49.6748 60.691C52.3863 60.7764 55.0284 59.8253 57.0636 58.0315C59.0987 56.2376 60.3738 53.7357 60.6295 51.0349C60.8851 48.3341 60.1021 45.6374 58.4398 43.4935L63.6398 38.3068C66.4577 41.5501 68.0064 45.7037 67.9998 50.0002ZM58.0131 50.0002C58.0205 51.7945 57.4245 53.5393 56.3208 54.9541C55.2171 56.3688 53.6698 57.3715 51.9275 57.8009C50.1853 58.2302 48.3492 58.0614 46.7145 57.3215C45.0798 56.5817 43.7412 55.3137 42.914 53.7214C42.0868 52.129 41.8189 50.3048 42.1534 48.5419C42.4879 46.779 43.4054 45.1797 44.7584 44.0011C46.1114 42.8225 47.8214 42.1329 49.6135 42.0433C51.4057 41.9536 53.1759 42.4691 54.6398 43.5068L49.0931 49.0402L50.9864 50.9335L56.5331 45.4002C57.474 46.7478 57.9683 48.3567 57.9464 50.0002H58.0131ZM71.7331 33.3335C70.7284 33.3335 69.7462 33.0356 68.9108 32.4774C68.0754 31.9192 67.4243 31.1258 67.0398 30.1975C66.6553 29.2693 66.5547 28.2479 66.7507 27.2624C66.9467 26.277 67.4306 25.3719 68.141 24.6614C68.8515 23.951 69.7566 23.4671 70.7421 23.2711C71.7275 23.0751 72.7489 23.1757 73.6771 23.5602C74.6054 23.9447 75.3988 24.5958 75.957 25.4312C76.5152 26.2666 76.8131 27.2488 76.8131 28.2535C76.8096 29.5997 76.2733 30.8898 75.3213 31.8417C74.3694 32.7936 73.0793 33.33 71.7331 33.3335Z" fill="white"/>
</g>
<defs>
<linearGradient id="paint0_linear_2385_3958" x1="-20.7067" y1="120.707" x2="120.707" y2="-20.7067" gradientUnits="userSpaceOnUse">
<stop stop-color="#2E27AD"/>
<stop offset="1" stop-color="#527FFF"/>
</linearGradient>
<clipPath id="clip0_2385_3958">
<rect width="100" height="100" fill="white"/>
</clipPath>
</defs>
</svg>
