<svg width="100" height="100" viewBox="0 0 100 100" fill="none" xmlns="http://www.w3.org/2000/svg">
<g clip-path="url(#clip0_2385_3957)">
<path d="M100 0H0V100H100V0Z" fill="url(#paint0_linear_2385_3957)"/>
<path d="M72.9334 39.0667C72.6534 34.8667 70.5201 31.7467 67.1201 30.6267C65.8396 30.2035 64.4743 30.1039 63.1459 30.3365C61.8175 30.5692 60.5673 31.1269 59.5068 31.96C58.5428 29.7647 57.1874 27.7632 55.5068 26.0533C53.0251 23.4463 49.7982 21.6702 46.2679 20.9685C42.7377 20.2667 39.0768 20.6736 35.7868 22.1333C32.7026 23.6061 30.0904 25.91 28.2437 28.786C26.3971 31.6619 25.3892 34.996 25.3334 38.4133V39.3867C22.7081 40.1563 20.4185 41.7879 18.8341 44.0182C17.2496 46.2486 16.4626 48.9476 16.6001 51.68C16.546 54.0578 17.1158 56.4082 18.2527 58.4972C19.3896 60.5863 21.054 62.341 23.0801 63.5867C24.3474 64.3212 25.8054 64.6602 27.2668 64.56L39.2668 64.6667V78C39.2675 78.2462 39.3364 78.4874 39.4659 78.6969C39.5953 78.9063 39.7802 79.0759 40.0001 79.1867C40.212 79.2879 40.447 79.3313 40.6811 79.3126C40.9152 79.2939 41.1403 79.2136 41.3334 79.08L61.1068 64.6667H71.4268C71.5468 64.6667 83.3334 63.64 83.3334 51.7867C83.3334 42.7333 76.3601 39.9067 72.9334 39.0667ZM71.3334 62H60.6668C60.3843 61.999 60.1089 62.0877 59.8801 62.2533L42.0001 75.3733V63.3733C42.0001 63.0197 41.8596 62.6806 41.6096 62.4305C41.3595 62.1805 41.0204 62.04 40.6668 62.04H27.3334C26.3684 62.0884 25.41 61.8569 24.5734 61.3733C22.9222 60.3737 21.5667 58.9528 20.6458 57.2564C19.725 55.56 19.2721 53.6492 19.3334 51.72C19.2084 49.3916 19.9268 47.0962 21.357 45.2546C22.7872 43.413 24.8333 42.1486 27.1201 41.6933C27.4135 41.6177 27.6723 41.4445 27.8541 41.2022C28.0359 40.9598 28.1297 40.6628 28.1201 40.36L28.0001 38.3333C28.0781 35.4635 28.9391 32.6696 30.4902 30.2538C32.0412 27.8379 34.2232 25.8921 36.8001 24.6267C38.7339 23.7737 40.8201 23.3202 42.9334 23.2933C46.9636 23.3888 50.7947 25.0649 53.6001 27.96C55.4834 29.8982 56.9053 32.2362 57.7601 34.8C57.8404 35.0302 57.9824 35.2339 58.1704 35.3891C58.3585 35.5442 58.5855 35.6448 58.8268 35.68C59.0652 35.7159 59.3089 35.6866 59.532 35.595C59.755 35.5034 59.9491 35.3531 60.0934 35.16C60.7781 34.2117 61.7457 33.5047 62.8572 33.1406C63.9687 32.7764 65.167 32.7739 66.2801 33.1333C68.8134 33.9733 70.2801 36.4667 70.2801 39.92C70.2258 40.2642 70.3084 40.6161 70.5102 40.9002C70.7121 41.1843 71.0171 41.378 71.3601 41.44C74.1601 41.92 80.6934 43.88 80.6934 51.76C80.6668 61.1467 71.6134 61.9733 71.3334 62Z" fill="white"/>
<path d="M64.0001 39.3333C62.7624 39.3333 61.5755 39.8249 60.7003 40.7001C59.8251 41.5753 59.3335 42.7622 59.3335 43.9999C59.3123 44.8693 59.5439 45.7262 60.0001 46.4666L55.2935 51.7999C56.1417 52.1769 56.8538 52.8052 57.3335 53.5999L62.0668 48.2666C62.672 48.5464 63.3335 48.6833 64.0001 48.6666C65.2378 48.6666 66.4248 48.1749 67.3 47.2997C68.1751 46.4246 68.6668 45.2376 68.6668 43.9999C68.6668 42.7622 68.1751 41.5753 67.3 40.7001C66.4248 39.8249 65.2378 39.3333 64.0001 39.3333ZM64.0001 45.9999C63.6046 45.9999 63.2179 45.8826 62.889 45.6629C62.5601 45.4431 62.3037 45.1307 62.1524 44.7653C62.001 44.3998 61.9614 43.9977 62.0386 43.6097C62.1157 43.2218 62.3062 42.8654 62.5859 42.5857C62.8656 42.306 63.222 42.1155 63.6099 42.0383C63.9979 41.9612 64.4 42.0008 64.7655 42.1522C65.1309 42.3035 65.4433 42.5599 65.6631 42.8888C65.8828 43.2177 66.0001 43.6044 66.0001 43.9999C66.0001 44.5304 65.7894 45.0391 65.4143 45.4141C65.0393 45.7892 64.5306 45.9999 64.0001 45.9999Z" fill="white"/>
<path d="M57.3334 53.6001C56.8713 52.8155 56.1836 52.1883 55.36 51.8001C54.7306 51.4872 54.0362 51.3273 53.3334 51.3334C52.882 51.3271 52.4323 51.39 52 51.5201L47.3734 44.4667C48.1899 43.6265 48.6529 42.505 48.6667 41.3334C48.6667 40.0957 48.175 38.9088 47.2999 38.0336C46.4247 37.1584 45.2377 36.6667 44 36.6667C42.7623 36.6667 41.5754 37.1584 40.7002 38.0336C39.825 38.9088 39.3334 40.0957 39.3334 41.3334C39.3513 42.1346 39.5814 42.9167 40 43.6001L34.3067 49.2401C33.4162 48.7338 32.3838 48.5345 31.3688 48.6731C30.3538 48.8117 29.4126 49.2805 28.6904 50.007C27.9682 50.7336 27.5052 51.6775 27.3727 52.6933C27.2402 53.7091 27.4456 54.7403 27.9573 55.6278C28.469 56.5153 29.2585 57.2097 30.2039 57.604C31.1494 57.9983 32.1984 58.0706 33.189 57.8096C34.1796 57.5486 35.0568 56.969 35.6853 56.16C36.3138 55.3511 36.6587 54.3578 36.6667 53.3334C36.6696 52.5645 36.4769 51.8074 36.1067 51.1334L41.8267 45.4534C42.8436 45.9998 44.0291 46.1426 45.1467 45.8534L49.8134 52.9601C49.0719 53.7989 48.6639 54.8806 48.6667 56.0001C48.6667 57.2378 49.1584 58.4247 50.0335 59.2999C50.9087 60.1751 52.0957 60.6667 53.3334 60.6667C54.571 60.6667 55.758 60.1751 56.6332 59.2999C57.5084 58.4247 58 57.2378 58 56.0001C58.0084 55.1532 57.7773 54.3213 57.3334 53.6001ZM32 55.3334C31.6045 55.3334 31.2178 55.2161 30.8889 54.9964C30.56 54.7766 30.3036 54.4642 30.1523 54.0988C30.0009 53.7333 29.9613 53.3312 30.0385 52.9432C30.1156 52.5553 30.3061 52.1989 30.5858 51.9192C30.8655 51.6395 31.2219 51.449 31.6098 51.3718C31.9978 51.2947 32.3999 51.3343 32.7654 51.4857C33.1308 51.637 33.4432 51.8934 33.663 52.2223C33.8827 52.5512 34 52.9379 34 53.3334C34 53.8638 33.7893 54.3726 33.4142 54.7476C33.0392 55.1227 32.5305 55.3334 32 55.3334ZM44 43.3334C43.6045 43.3334 43.2178 43.2161 42.8889 42.9964C42.56 42.7766 42.3036 42.4642 42.1523 42.0988C42.0009 41.7333 41.9613 41.3312 42.0385 40.9432C42.1156 40.5553 42.3061 40.1989 42.5858 39.9192C42.8655 39.6395 43.2219 39.449 43.6098 39.3718C43.9978 39.2947 44.3999 39.3343 44.7654 39.4857C45.1308 39.637 45.4432 39.8934 45.663 40.2223C45.8827 40.5512 46 40.9379 46 41.3334C46 41.8638 45.7893 42.3726 45.4142 42.7476C45.0392 43.1227 44.5305 43.3334 44 43.3334ZM53.3334 58.0001C52.9378 58.0001 52.5511 57.8828 52.2222 57.663C51.8933 57.4433 51.637 57.1309 51.4856 56.7654C51.3342 56.4 51.2946 55.9979 51.3718 55.6099C51.449 55.2219 51.6394 54.8656 51.9191 54.5859C52.1988 54.3062 52.5552 54.1157 52.9432 54.0385C53.3311 53.9613 53.7333 54.0009 54.0987 54.1523C54.4642 54.3037 54.7765 54.56 54.9963 54.8889C55.2161 55.2178 55.3334 55.6045 55.3334 56.0001C55.3334 56.5305 55.1226 57.0392 54.7476 57.4143C54.3725 57.7894 53.8638 58.0001 53.3334 58.0001Z" fill="white"/>
</g>
<defs>
<linearGradient id="paint0_linear_2385_3957" x1="-20.7107" y1="120.715" x2="120.711" y2="-20.7067" gradientUnits="userSpaceOnUse">
<stop stop-color="#2E27AD"/>
<stop offset="1" stop-color="#527FFF"/>
</linearGradient>
<clipPath id="clip0_2385_3957">
<rect width="100" height="100" fill="white"/>
</clipPath>
</defs>
</svg>
