<svg width="100" height="100" viewBox="0 0 100 100" fill="none" xmlns="http://www.w3.org/2000/svg">
<path d="M94.2402 89.86H4.24023C3.7098 89.86 3.20109 89.6493 2.82602 89.2742C2.45095 88.8991 2.24023 88.3904 2.24023 87.86V43.86H6.24023V85.86H92.2402V28H37.5602V24H94.2402C94.7707 24 95.2794 24.2107 95.6544 24.5858C96.0295 24.9609 96.2402 25.4696 96.2402 26V87.86C96.2402 88.3904 96.0295 88.8991 95.6544 89.2742C95.2794 89.6493 94.7707 89.86 94.2402 89.86Z" fill="#3B48CC"/>
<path d="M49.2398 65.4799C48.7725 65.4809 48.3196 65.3181 47.9598 65.0199L23.8198 44.8799L26.3798 41.7999L49.2398 60.8799L92.9598 24.4399L95.5398 27.5199L50.5398 65.0199C50.1706 65.3152 49.7126 65.4773 49.2398 65.4799Z" fill="#3B48CC"/>
<path d="M58.3954 55.3809L55.8345 58.4536L92.9525 89.3902L95.5135 86.3175L58.3954 55.3809Z" fill="#3B48CC"/>
<path d="M40.0819 55.3698L2.97461 86.3193L5.53666 89.3911L42.6439 58.4416L40.0819 55.3698Z" fill="#3B48CC"/>
<path d="M16.6 37.84C18.4824 37.8223 20.3459 37.4631 22.1 36.78V40.26C20.2322 41.1672 18.1761 41.6195 16.1 41.58C13.6487 41.653 11.2253 41.0436 9.10001 39.82C7.14173 38.6308 5.5928 36.8726 4.66001 34.78C3.59472 32.3066 3.07623 29.6323 3.14001 26.94C3.07141 23.3698 3.86738 19.836 5.46001 16.64C6.83296 13.8252 8.94923 11.4392 11.58 9.74001C14.0881 8.12173 17.0153 7.27348 20 7.30001C22.4829 7.23268 24.9415 7.80428 27.14 8.96001C29.099 10.0549 30.6762 11.7229 31.66 13.74C32.7367 16.048 33.2638 18.5741 33.2 21.12C33.2326 23.4031 32.8252 25.671 32 27.8C31.3859 29.5442 30.3237 31.0962 28.92 32.3C27.7221 33.3112 26.2076 33.8703 24.64 33.88C23.7938 33.8893 22.9575 33.6974 22.2 33.32C21.5054 32.9578 20.9241 32.4111 20.52 31.74C19.8952 32.4136 19.1488 32.9633 18.32 33.36C17.6042 33.7439 16.8114 33.9626 16 34C15.2751 34.0361 14.5533 33.8837 13.9048 33.5577C13.2564 33.2318 12.7035 32.7433 12.3 32.14C11.3633 30.5302 10.9249 28.6789 11.04 26.82C11.0198 24.7752 11.3652 22.7433 12.06 20.82C12.5934 19.1936 13.4893 17.7096 14.68 16.48C15.5491 15.5667 16.7402 15.0285 18 14.98C18.7154 14.9925 19.4165 15.1816 20.0411 15.5305C20.6657 15.8794 21.1944 16.3774 21.58 16.98L22 15.56H25.66L24 27.8C23.9673 28.1659 23.9673 28.5341 24 28.9C23.9751 29.3052 24.0878 29.707 24.32 30.04C24.4214 30.1701 24.5522 30.2742 24.7018 30.3438C24.8513 30.4133 25.0152 30.4463 25.18 30.44C25.5991 30.394 26.0006 30.246 26.3492 30.0089C26.6979 29.7718 26.9832 29.4529 27.18 29.08C27.8861 28.0347 28.3945 26.8687 28.68 25.64C29.05 24.1757 29.2314 22.6702 29.22 21.16C29.4123 18.4357 28.5615 15.7402 26.84 13.62C25.9263 12.7193 24.8313 12.0233 23.6278 11.5785C22.4243 11.1336 21.1399 10.9501 19.86 11.04C17.557 11.0193 15.3126 11.7651 13.48 13.16C11.5488 14.6416 10.0444 16.6083 9.12001 18.86C8.0543 21.3901 7.52973 24.1151 7.58001 26.86C7.40255 29.7861 8.25913 32.6815 10 35.04C10.8172 35.9749 11.8356 36.7125 12.9787 37.1975C14.1218 37.6824 15.3599 37.9021 16.6 37.84ZM17.82 30.36C18.2041 30.3496 18.5816 30.2567 18.9266 30.0876C19.2717 29.9185 19.5764 29.6772 19.82 29.38C19.8102 29.2535 19.8102 29.1265 19.82 29V28.68C19.7848 28.2073 19.7848 27.7327 19.82 27.26L20.92 19.26C20.4009 18.8566 19.7753 18.6133 19.12 18.56C18.16 18.56 17.38 19.3 16.74 20.76C16.0259 22.5378 15.6921 24.4454 15.76 26.36C15.84 29.02 16.5 30.36 17.82 30.36Z" fill="#3B48CC"/>
</svg>
