<svg width="100" height="100" viewBox="0 0 100 100" fill="none" xmlns="http://www.w3.org/2000/svg">
<g clip-path="url(#clip0_2385_3960)">
<path d="M100.5 0.5H0.5V100.5H100.5V0.5Z" fill="url(#paint0_linear_2385_3960)"/>
<path d="M36 53.6101H32V57.6101H36V53.6101Z" fill="white"/>
<path d="M43 53.6101H39V57.6101H43V53.6101Z" fill="white"/>
<path d="M50 53.6101H46V57.6101H50V53.6101Z" fill="white"/>
<path d="M73 26.6101H44C43.7348 26.6101 43.4804 26.7155 43.2929 26.903C43.1054 27.0905 43 27.3449 43 27.6101V44.6101H27C26.7348 44.6101 26.4804 44.7155 26.2929 44.903C26.1054 45.0905 26 45.3449 26 45.6101V66.6101C26 66.8753 26.1054 67.1297 26.2929 67.3172C26.4804 67.5048 26.7348 67.6101 27 67.6101H40L47.42 73.1901C47.5931 73.3199 47.8036 73.3901 48.02 73.3901C48.1757 73.3923 48.3298 73.358 48.47 73.2901C48.6364 73.2062 48.7761 73.0775 48.8733 72.9185C48.9705 72.7595 49.0213 72.5765 49.02 72.3901V67.6101H55.02C55.2852 67.6101 55.5396 67.5048 55.7271 67.3172C55.9146 67.1297 56.02 66.8753 56.02 66.6101V51.6101H60.02V56.6101C60.0214 56.7997 60.0767 56.9849 60.1794 57.1443C60.2821 57.3036 60.428 57.4305 60.6 57.5101C60.731 57.5736 60.8744 57.6078 61.02 57.6101C61.2574 57.6052 61.4863 57.5207 61.67 57.3701L68.55 51.5601H73C73.2652 51.5601 73.5196 51.4547 73.7071 51.2672C73.8946 51.0797 74 50.8253 74 50.5601V27.5601C73.9872 27.3037 73.8762 27.062 73.69 26.8851C73.5038 26.7083 73.2568 26.6098 73 26.6101ZM54 65.6101H48C47.7348 65.6101 47.4804 65.7155 47.2929 65.903C47.1054 66.0905 47 66.3449 47 66.6101V70.3901L40.92 65.8101C40.7469 65.6803 40.5364 65.6101 40.32 65.6101H28V46.6101H54V65.6101ZM72 49.6101H68.16C67.9229 49.6073 67.6926 49.6888 67.51 49.8401L62 54.5001V50.6101C62 50.3449 61.8946 50.0905 61.7071 49.903C61.5196 49.7155 61.2652 49.6101 61 49.6101H56V45.6101C56 45.3449 55.8946 45.0905 55.7071 44.903C55.5196 44.7155 55.2652 44.6101 55 44.6101H45V28.6101H72V49.6101Z" fill="white"/>
<path d="M68 32.6101H49V34.6101H68V32.6101Z" fill="white"/>
<path d="M68 38.6101H49V40.6101H68V38.6101Z" fill="white"/>
</g>
<defs>
<linearGradient id="paint0_linear_2385_3960" x1="0.5" y1="100.5" x2="100.5" y2="0.5" gradientUnits="userSpaceOnUse">
<stop stop-color="#2E27AD"/>
<stop offset="1" stop-color="#527FFF"/>
</linearGradient>
<clipPath id="clip0_2385_3960">
<rect width="100" height="100" fill="white"/>
</clipPath>
</defs>
</svg>
