<svg width="100" height="100" viewBox="0 0 100 100" fill="none" xmlns="http://www.w3.org/2000/svg">
<g clip-path="url(#clip0_2385_7375)">
<path d="M100 0H0V100H100V0Z" fill="url(#paint0_linear_2385_7375)"/>
<path d="M50.0533 71.2403V82.0536C50.0533 82.4072 49.9129 82.7464 49.6628 82.9964C49.4128 83.2465 49.0736 83.3869 48.72 83.3869H24.72C24.3664 83.3869 24.0273 83.2465 23.7772 82.9964C23.5272 82.7464 23.3867 82.4072 23.3867 82.0536V64.3736C24.227 65.1597 25.1178 65.8902 26.0533 66.5603V80.7203H47.3867V71.7736C48.2842 71.6421 49.1743 71.4641 50.0533 71.2403ZM29.9333 38.0536C29.5943 38.9137 29.3484 39.8077 29.2 40.7203H47.3867V38.0536H29.9333ZM29.0933 44.7203C29.1951 45.6272 29.3918 46.521 29.68 47.3869H47.3867V44.7203H29.0933ZM31.76 51.3869C32.4915 52.3896 33.3573 53.2869 34.3333 54.0536H47.3867V51.3869H31.76ZM51.3867 32.7203H33.5733C32.6954 33.4974 31.9322 34.3952 31.3067 35.3869H50.0533V55.2803C51.0217 54.7319 51.9175 54.0645 52.72 53.2936V34.0536C52.72 33.7 52.5795 33.3608 52.3295 33.1108C52.0794 32.8607 51.7403 32.7203 51.3867 32.7203ZM81.4 81.4003C80.1598 82.6508 78.475 83.3598 76.7138 83.3723C74.9525 83.3848 73.2579 82.6998 72 81.4669V81.4003L56.3733 65.8803C50.8267 69.1167 44.2914 70.2227 37.9887 68.9916C31.6861 67.7605 26.0473 64.2766 22.1262 59.1908C18.2052 54.1051 16.2702 47.7656 16.6828 41.3571C17.0955 34.9485 19.8275 28.9095 24.3684 24.3686C28.9093 19.8277 34.9483 17.0957 41.3568 16.6831C47.7653 16.2704 54.1048 18.2054 59.1906 22.1265C64.2763 26.0475 67.7603 31.6863 68.9914 37.989C70.2225 44.2917 69.1165 50.827 65.88 56.3736L81.4 71.9069C82.6587 73.1483 83.3728 74.8387 83.3853 76.6065C83.3978 78.3742 82.7077 80.0746 81.4667 81.3336L81.4 81.4003ZM66.7333 43.0803C66.7439 38.403 65.3667 33.8278 62.7762 29.9335C60.1856 26.0392 56.498 23.0009 52.1801 21.203C47.8621 19.4052 43.1079 18.9287 38.5191 19.8337C33.9302 20.7388 29.713 22.9847 26.401 26.2873C23.089 29.59 20.8312 33.8009 19.9132 38.3872C18.9952 42.9735 19.4583 47.729 21.244 52.052C23.0296 56.3749 26.0575 60.0711 29.9444 62.6727C33.8314 65.2742 38.4028 66.6643 43.08 66.6669C49.3428 66.6705 55.3511 64.1887 59.7858 59.7665C64.2205 55.3443 66.7192 49.343 66.7333 43.0803ZM79.3867 73.8669L64.32 58.7469C62.7456 60.868 60.8677 62.7458 58.7467 64.3203L73.8667 79.3869C74.4501 80.2497 75.3471 80.8509 76.3669 81.0626C77.3867 81.2744 78.4489 81.08 79.3276 80.5208C80.2063 79.9616 80.8323 79.0817 81.0724 78.0682C81.3125 77.0547 81.1478 75.9876 80.6133 75.0936C80.303 74.5968 79.8835 74.1773 79.3867 73.8669ZM62.5333 43.0803C62.536 39.2301 61.3969 35.4657 59.26 32.2629C57.1232 29.0602 54.0846 26.563 50.5286 25.0872C46.9725 23.6114 43.0587 23.2232 39.282 23.9717C35.5053 24.7202 32.0354 26.5719 29.3111 29.2925C26.5868 32.0131 24.7304 35.4804 23.9767 39.2561C23.223 43.0317 23.6058 46.9461 25.0767 50.5042C26.5477 54.0623 29.0407 57.1042 32.2405 59.2455C35.4403 61.3867 39.2032 62.531 43.0533 62.5336C48.213 62.5266 53.1597 60.4756 56.8106 56.8297C60.4615 53.1838 62.5192 48.2399 62.5333 43.0803ZM59.76 43.0803C59.76 46.3819 58.781 49.6094 56.9467 52.3546C55.1124 55.0998 52.5052 57.2394 49.4549 58.5029C46.4046 59.7664 43.0482 60.097 39.81 59.4528C36.5718 58.8087 33.5973 57.2188 31.2627 54.8842C28.9281 52.5496 27.3382 49.5752 26.6941 46.337C26.05 43.0988 26.3806 39.7423 27.644 36.692C28.9075 33.6417 31.0472 31.0345 33.7924 29.2003C36.5376 27.366 39.765 26.3869 43.0667 26.3869C47.494 26.3869 51.74 28.1457 54.8706 31.2763C58.0013 34.4069 59.76 38.6529 59.76 43.0803Z" fill="white"/>
</g>
<defs>
<linearGradient id="paint0_linear_2385_7375" x1="-20.7147" y1="120.711" x2="120.707" y2="-20.7107" gradientUnits="userSpaceOnUse">
<stop stop-color="#055F4E"/>
<stop offset="1" stop-color="#56C0A7"/>
</linearGradient>
<clipPath id="clip0_2385_7375">
<rect width="100" height="100" fill="white"/>
</clipPath>
</defs>
</svg>
