<svg width="100" height="100" viewBox="0 0 100 100" fill="none" xmlns="http://www.w3.org/2000/svg">
<g clip-path="url(#clip0_2385_7379)">
<path d="M100 0H0V100H100V0Z" fill="url(#paint0_linear_2385_7379)"/>
<path d="M56.9067 67.3332V64.6665H69.5467C71.8968 64.4715 74.1566 63.6723 76.1067 62.3465C77.7467 61.1198 80.4934 58.5065 80.4134 54.7198C80.4353 52.401 79.5808 50.1595 78.0208 48.4438C76.4608 46.728 74.3105 45.6647 72.0001 45.4665C71.6483 45.4327 71.3243 45.2607 71.0993 44.9882C70.8743 44.7157 70.7666 44.365 70.8001 44.0132C70.8067 43.8977 70.8067 43.782 70.8001 43.6665C70.8018 42.9282 70.6579 42.1969 70.3766 41.5143C70.0953 40.8317 69.6821 40.2113 69.1607 39.6887C68.6393 39.166 68.0199 38.7513 67.3379 38.4684C66.656 38.1855 65.925 38.0398 65.1867 38.0398C63.7486 38.0406 62.367 38.6 61.3334 39.5998C61.1741 39.7554 60.9784 39.8687 60.7642 39.9293C60.5499 39.9898 60.3239 39.9957 60.1067 39.9465C59.8917 39.8959 59.6926 39.7926 59.5274 39.646C59.3621 39.4994 59.2359 39.314 59.1601 39.1065C58.1778 36.4977 56.4271 34.2483 54.1393 32.6557C51.8515 31.063 49.1343 30.202 46.3467 30.1865H46.2001V27.5198H46.3467C49.3887 27.5209 52.3707 28.3666 54.9603 29.9627C57.55 31.5589 59.6455 33.8427 61.0134 36.5598C62.2963 35.7834 63.7672 35.373 65.2667 35.3732C67.3456 35.3793 69.3466 36.1646 70.8746 37.5741C72.4026 38.9837 73.3466 40.9149 73.5201 42.9865C76.2224 43.5194 78.6548 44.9767 80.3994 47.1082C82.144 49.2397 83.0918 51.9121 83.0801 54.6665C83.0511 56.6098 82.5506 58.517 81.6216 60.224C80.6926 61.9311 79.3629 63.387 77.7467 64.4665C75.3453 66.1507 72.5271 67.1424 69.6001 67.3332H56.9067ZM43.5734 65.9998V17.9998C43.5734 17.6462 43.4329 17.3071 43.1829 17.057C42.9328 16.807 42.5937 16.6665 42.2401 16.6665H18.2401C17.8864 16.6665 17.5473 16.807 17.2973 17.057C17.0472 17.3071 16.9067 17.6462 16.9067 17.9998V65.9998C16.9067 66.3535 17.0472 66.6926 17.2973 66.9426C17.5473 67.1927 17.8864 67.3332 18.2401 67.3332H42.2401C42.5937 67.3332 42.9328 67.1927 43.1829 66.9426C43.4329 66.6926 43.5734 66.3535 43.5734 65.9998ZM19.5734 19.3332H40.9067V64.6665H19.5734V19.3332ZM38.2401 24.6665H22.2401V27.3332H38.2401V24.6665ZM38.2401 31.3332H22.2401V33.9998H38.2401V31.3332ZM43.5734 69.9998H40.9067V80.6665H43.5734V69.9998ZM51.5734 69.9998H48.9067V83.3332H51.5734V69.9998ZM59.5734 69.9998H56.9067V80.6665H59.5734V69.9998ZM38.2401 37.9998H22.2401V40.6665H38.2401V37.9998Z" fill="white"/>
</g>
<defs>
<linearGradient id="paint0_linear_2385_7379" x1="-20.7067" y1="120.707" x2="120.707" y2="-20.7067" gradientUnits="userSpaceOnUse">
<stop stop-color="#055F4E"/>
<stop offset="1" stop-color="#56C0A7"/>
</linearGradient>
<clipPath id="clip0_2385_7379">
<rect width="100" height="100" fill="white"/>
</clipPath>
</defs>
</svg>
