<svg width="100" height="100" viewBox="0 0 100 100" fill="none" xmlns="http://www.w3.org/2000/svg">
<g clip-path="url(#clip0_2385_7377)">
<path d="M100 0H0V100H100V0Z" fill="url(#paint0_linear_2385_7377)"/>
<path d="M39.5066 57.4131H35.7733V54.8264H39.5066V57.4131ZM33.88 54.8264H21.2266V57.4131H33.88V54.8264ZM59.68 69.6131H45.0133V72.1997H59.68V69.6131ZM42 69.7731H38.2666V72.3597H42V69.7731ZM28.8533 75.9997C29.0712 75.89 29.2548 75.7225 29.3841 75.5156C29.5134 75.3087 29.5834 75.0703 29.5866 74.8264V72.3597H35.7733V69.7731H28.2933C27.9397 69.7731 27.6005 69.9135 27.3505 70.1636C27.1004 70.4136 26.96 70.7528 26.96 71.1064V72.1464L21.0266 67.3331L27 62.5464V63.5864C27 63.94 27.1404 64.2792 27.3905 64.5292C27.6405 64.7793 27.9797 64.9197 28.3333 64.9197H48.1733V67.3331C48.1883 67.5705 48.2666 67.7996 48.4001 67.9966C48.5335 68.1936 48.7173 68.3513 48.9322 68.4533C49.1471 68.5554 49.3855 68.598 49.6225 68.5769C49.8595 68.5557 50.0865 68.4715 50.28 68.3331L59.6133 60.8664C59.7574 60.7412 59.873 60.5866 59.9522 60.4129C60.0314 60.2393 60.0723 60.0506 60.0723 59.8597C60.0723 59.6689 60.0314 59.4802 59.9522 59.3065C59.873 59.1329 59.7574 58.9782 59.6133 58.8531L50.28 51.3731C50.0856 51.2341 49.8574 51.15 49.6193 51.1295C49.3813 51.1089 49.1421 51.1527 48.9268 51.2563C48.7114 51.3599 48.5279 51.5194 48.3953 51.7182C48.2628 51.917 48.1861 52.1478 48.1733 52.3864V54.8264H42V57.4131H49.4666C49.8203 57.4131 50.1594 57.2726 50.4094 57.0225C50.6595 56.7725 50.8 56.4334 50.8 56.0797V55.0397L56.7733 59.8131L50.8 64.5997V63.5464C50.8 63.1928 50.6595 62.8536 50.4094 62.6036C50.1594 62.3535 49.8203 62.2131 49.4666 62.2131H29.5866V59.8531C29.5701 59.6178 29.4915 59.3911 29.3588 59.1961C29.2261 59.0012 29.0441 58.8449 28.8313 58.7432C28.6185 58.6416 28.3825 58.5982 28.1475 58.6175C27.9124 58.6368 27.6867 58.7181 27.4933 58.8531L18.16 66.3197C18.0159 66.4449 17.9003 66.5995 17.8211 66.7732C17.7419 66.9469 17.7009 67.1355 17.7009 67.3264C17.7009 67.5173 17.7419 67.7059 17.8211 67.8796C17.9003 68.0533 18.0159 68.2079 18.16 68.3331L27.4933 75.8131C27.7224 75.9909 28.0033 76.0892 28.2933 76.0931C28.4845 76.1025 28.6755 76.0707 28.8533 75.9997ZM82.3333 52.1331C82.3333 45.8264 78.2533 40.9731 72.6666 40.3464C72.1733 35.0131 68.4 31.6264 62.7733 31.6264H62.56C61.059 29.2269 58.9621 27.2571 56.4736 25.9089C53.985 24.5606 51.1897 23.8799 48.36 23.9331C44.1563 23.9344 40.1082 25.5228 37.0254 28.3806C33.9426 31.2385 32.0525 35.1549 31.7333 39.3464C28.5645 39.6602 25.6249 41.1391 23.4843 43.4965C21.3436 45.854 20.1543 48.9221 20.1466 52.1064H22.7333C22.7368 49.3917 23.8168 46.7891 25.7364 44.8695C27.656 42.9499 30.2586 41.8699 32.9733 41.8664C33.3269 41.8664 33.6661 41.7259 33.9161 41.4759C34.1662 41.2258 34.3066 40.8867 34.3066 40.5331C34.3242 36.8125 35.8109 33.2496 38.443 30.62C41.0751 27.9904 44.6394 26.5071 48.36 26.4931C50.8574 26.4382 53.3229 27.063 55.4928 28.3007C57.6628 29.5383 59.4557 31.3422 60.68 33.5197C60.7952 33.7193 60.9601 33.8856 61.1587 34.0025C61.3574 34.1193 61.5829 34.1827 61.8133 34.1864H62.7733C67.3866 34.1864 70.1333 36.9331 70.1333 41.5464C70.1333 41.9 70.2738 42.2392 70.5238 42.4892C70.7739 42.7393 71.113 42.8797 71.4666 42.8797C76.2133 42.8797 79.7866 46.8797 79.7866 52.1464C79.7831 54.8624 78.7036 57.4663 76.7843 59.388C74.8651 61.3097 72.2626 62.3927 69.5466 62.3997H61.04V64.9864H69.5066C71.1946 64.9829 72.8653 64.647 74.4234 63.9978C75.9815 63.3486 77.3964 62.3989 78.5875 61.2029C79.7786 60.0069 80.7224 58.588 81.3651 57.0272C82.0078 55.4664 82.3368 53.7943 82.3333 52.1064V52.1331Z" fill="white"/>
</g>
<defs>
<linearGradient id="paint0_linear_2385_7377" x1="-20.7067" y1="120.711" x2="120.715" y2="-20.7107" gradientUnits="userSpaceOnUse">
<stop stop-color="#055F4E"/>
<stop offset="1" stop-color="#56C0A7"/>
</linearGradient>
<clipPath id="clip0_2385_7377">
<rect width="100" height="100" fill="white"/>
</clipPath>
</defs>
</svg>
