<svg width="100" height="100" viewBox="0 0 100 100" fill="none" xmlns="http://www.w3.org/2000/svg">
<g clip-path="url(#clip0_2385_7381)">
<path d="M100 0H0V100H100V0Z" fill="url(#paint0_linear_2385_7381)"/>
<path d="M73.76 70.6667H26.24C25.1166 70.6632 24.0401 70.2153 23.2458 69.4209C22.4514 68.6265 22.0035 67.5501 22 66.4267V33.5734C22.0035 32.4499 22.4514 31.3735 23.2458 30.5791C24.0401 29.7847 25.1166 29.3369 26.24 29.3334H39.3333C39.6129 29.3326 39.8855 29.4198 40.1128 29.5825C40.3401 29.7452 40.5106 29.9752 40.6 30.24L42.1067 34.6667H57.88L59.4 30.24C59.4928 29.964 59.6733 29.726 59.9141 29.5623C60.1549 29.3986 60.4426 29.3182 60.7333 29.3334H73.84C74.3951 29.3334 74.9447 29.4427 75.4575 29.6551C75.9703 29.8675 76.4362 30.1788 76.8287 30.5713C77.2212 30.9638 77.5325 31.4297 77.7449 31.9425C77.9573 32.4554 78.0667 33.005 78.0667 33.56V66.4267C78.0649 66.9886 77.9519 67.5447 77.734 68.0627C77.5162 68.5807 77.1978 69.0504 76.7974 69.4446C76.3969 69.8389 75.9223 70.1499 75.401 70.3596C74.8796 70.5694 74.3219 70.6737 73.76 70.6667ZM26.24 32C25.8227 32 25.4225 32.1658 25.1275 32.4608C24.8324 32.7559 24.6667 33.1561 24.6667 33.5734V66.4267C24.6667 66.844 24.8324 67.2441 25.1275 67.5392C25.4225 67.8343 25.8227 68 26.24 68H73.76C74.1773 68 74.5775 67.8343 74.8725 67.5392C75.1676 67.2441 75.3333 66.844 75.3333 66.4267V33.56C75.3299 33.1474 75.1644 32.7526 74.8726 32.4608C74.5808 32.169 74.186 32.0035 73.7733 32H61.6133L60.0933 36.4267C60.0046 36.6894 59.8362 36.9179 59.6116 37.0804C59.387 37.2429 59.1172 37.3313 58.84 37.3334H41.16C40.8805 37.3341 40.6078 37.2469 40.3805 37.0842C40.1532 36.9215 39.9828 36.6915 39.8933 36.4267L38.3867 32H26.24Z" fill="white"/>
<path d="M76.1601 76H23.8401C22.8841 75.9861 21.9401 75.784 21.0622 75.4052C20.1843 75.0265 19.3895 74.4785 18.7234 73.7925C18.0573 73.1066 17.5328 72.2962 17.1799 71.4075C16.8271 70.5189 16.6527 69.5694 16.6668 68.6133V31.3867C16.6527 30.4306 16.8271 29.4812 17.1799 28.5925C17.5328 27.7038 18.0573 26.8934 18.7234 26.2075C19.3895 25.5215 20.1843 24.9735 21.0622 24.5948C21.9401 24.216 22.8841 24.0139 23.8401 24H76.1601C77.1162 24.0139 78.0601 24.216 78.9381 24.5948C79.816 24.9735 80.6107 25.5215 81.2769 26.2075C81.943 26.8934 82.4675 27.7038 82.8203 28.5925C83.1732 29.4812 83.3476 30.4306 83.3335 31.3867V68.6133C83.3476 69.5694 83.1732 70.5189 82.8203 71.4075C82.4675 72.2962 81.943 73.1066 81.2769 73.7925C80.6107 74.4785 79.816 75.0265 78.9381 75.4052C78.0601 75.784 77.1162 75.9861 76.1601 76ZM23.8401 26.6667C22.6177 26.6981 21.4574 27.2123 20.6129 28.0968C19.7684 28.9812 19.3084 30.164 19.3335 31.3867V68.6133C19.3084 69.836 19.7684 71.0188 20.6129 71.9033C21.4574 72.7877 22.6177 73.3019 23.8401 73.3333H76.1601C77.3826 73.3019 78.5429 72.7877 79.3874 71.9033C80.2319 71.0188 80.6919 69.836 80.6668 68.6133V31.3867C80.6919 30.164 80.2319 28.9812 79.3874 28.0968C78.5429 27.2123 77.3826 26.6981 76.1601 26.6667H23.8401Z" fill="white"/>
<path d="M67.3335 61.3335H32.6668C32.3132 61.3335 31.9741 61.193 31.724 60.943C31.474 60.6929 31.3335 60.3538 31.3335 60.0002V42.6668C31.3335 42.3132 31.474 41.9741 31.724 41.724C31.9741 41.474 32.3132 41.3335 32.6668 41.3335H67.3335C67.6871 41.3335 68.0263 41.474 68.2763 41.724C68.5263 41.9741 68.6668 42.3132 68.6668 42.6668V60.0002C68.6668 60.3538 68.5263 60.6929 68.2763 60.943C68.0263 61.193 67.6871 61.3335 67.3335 61.3335ZM34.0002 58.6668H66.0002V44.0002H34.0002V58.6668Z" fill="white"/>
<path d="M55.3334 29.3335H44.6667V32.0002H55.3334V29.3335Z" fill="white"/>
</g>
<defs>
<linearGradient id="paint0_linear_2385_7381" x1="-20.7067" y1="120.707" x2="120.707" y2="-20.7067" gradientUnits="userSpaceOnUse">
<stop stop-color="#055F4E"/>
<stop offset="1" stop-color="#56C0A7"/>
</linearGradient>
<clipPath id="clip0_2385_7381">
<rect width="100" height="100" fill="white"/>
</clipPath>
</defs>
</svg>
