<svg width="100" height="100" viewBox="0 0 100 100" fill="none" xmlns="http://www.w3.org/2000/svg">
<g clip-path="url(#clip0_2385_7378)">
<path d="M100 0H0V100H100V0Z" fill="url(#paint0_linear_2385_7378)"/>
<path d="M49.0534 49.2397L39.4934 58.813L41.3334 60.693L49.9601 52.0797L58.6667 60.693L60.5467 58.813L50.9867 49.2397C50.8622 49.1086 50.7122 49.0042 50.5461 48.9328C50.3799 48.8615 50.2009 48.8247 50.0201 48.8247C49.8392 48.8247 49.6603 48.8615 49.4941 48.9328C49.3279 49.0042 49.178 49.1086 49.0534 49.2397Z" fill="white"/>
<path d="M63.0532 52.4264L50.9465 40.3197C50.8226 40.1947 50.6751 40.0955 50.5126 40.0278C50.3502 39.9601 50.1759 39.9253 49.9999 39.9253C49.8239 39.9253 49.6496 39.9601 49.4871 40.0278C49.3246 40.0955 49.1772 40.1947 49.0532 40.3197L36.9465 52.4264L38.8265 54.3197L49.9999 43.1464L61.1732 54.3197L63.0532 52.4264Z" fill="white"/>
<path d="M36.28 47.9998L50 34.2265L63.7201 47.9998L65.6134 46.1065L50.9467 31.4398C50.8228 31.3148 50.6753 31.2156 50.5128 31.148C50.3503 31.0803 50.1761 31.0454 50 31.0454C49.824 31.0454 49.6498 31.0803 49.4873 31.148C49.3248 31.2156 49.1773 31.3148 49.0534 31.4398L34.3867 46.1065L36.28 47.9998Z" fill="white"/>
<path d="M76.6533 49.6533V39.2533C77.5287 39.0509 78.345 38.6479 79.038 38.0761C79.731 37.5043 80.2817 36.7793 80.6466 35.9583C81.0115 35.1373 81.1808 34.2428 81.1409 33.3452C81.1011 32.4477 80.8533 31.5717 80.4171 30.7862C79.9809 30.0008 79.3681 29.3275 78.6272 28.8193C77.8863 28.3111 77.0375 27.982 76.1476 27.8579C75.2578 27.7339 74.3513 27.8182 73.4996 28.1043C72.648 28.3904 71.8744 28.8705 71.24 29.5066L62.6666 24.4799C62.8426 23.9281 62.9326 23.3525 62.9333 22.7733C62.9391 21.4185 62.4725 20.104 61.6139 19.056C60.7553 18.008 59.5584 17.2919 58.2289 17.031C56.8994 16.77 55.5206 16.9805 54.3296 17.6263C53.1386 18.272 52.2098 19.3126 51.703 20.5691C51.1962 21.8255 51.1431 23.2193 51.5529 24.5107C51.9626 25.8021 52.8095 26.9103 53.948 27.6447C55.0865 28.3792 56.4453 28.694 57.7907 28.5349C59.1362 28.3759 60.3842 27.7529 61.32 26.7733L69.84 31.7733C69.6359 32.3652 69.5322 32.9871 69.5333 33.6133C69.5344 34.9189 69.9759 36.186 70.7865 37.2095C71.5971 38.233 72.7293 38.9531 74 39.2533V49.6533C72.6124 49.9802 71.3934 50.8057 70.5745 51.9726C69.7557 53.1396 69.3943 54.5667 69.5589 55.9828C69.7234 57.3988 70.4026 58.705 71.4672 59.6531C72.5319 60.6011 73.9077 61.125 75.3333 61.125C76.7589 61.125 78.1348 60.6011 79.1994 59.6531C80.264 58.705 80.9432 57.3988 81.1078 55.9828C81.2724 54.5667 80.9109 53.1396 80.0921 51.9726C79.2733 50.8057 78.0542 49.9802 76.6666 49.6533H76.6533ZM57.1333 25.9066C56.5136 25.9066 55.9078 25.7228 55.3925 25.3785C54.8773 25.0342 54.4756 24.5449 54.2385 23.9723C54.0013 23.3998 53.9393 22.7698 54.0602 22.162C54.1811 21.5542 54.4795 20.9959 54.9177 20.5577C55.3559 20.1195 55.9142 19.821 56.522 19.7001C57.1298 19.5792 57.7598 19.6413 58.3324 19.8784C58.9049 20.1156 59.3943 20.5172 59.7386 21.0325C60.0829 21.5478 60.2666 22.1535 60.2666 22.7733C60.2666 23.6043 59.9365 24.4013 59.3489 24.9889C58.7613 25.5765 57.9643 25.9066 57.1333 25.9066ZM72.2 33.6133C72.1973 32.993 72.3789 32.3859 72.7215 31.8689C73.0642 31.3518 73.5527 30.9482 74.125 30.709C74.6973 30.4698 75.3277 30.4058 75.9364 30.5252C76.5451 30.6446 77.1046 30.9419 77.5442 31.3796C77.9837 31.8173 78.2834 32.3756 78.4054 32.9837C78.5274 33.5919 78.4661 34.2226 78.2294 34.7959C77.9926 35.3692 77.591 35.8594 77.0755 36.2043C76.5599 36.5491 75.9536 36.7333 75.3333 36.7333C74.5046 36.7333 73.7096 36.405 73.1224 35.8203C72.5352 35.2355 72.2035 34.442 72.2 33.6133ZM75.3333 58.4133C74.713 58.4133 74.1067 58.2292 73.5912 57.8843C73.0756 57.5394 72.674 57.0492 72.4372 56.4759C72.2005 55.9026 72.1392 55.2719 72.2612 54.6637C72.3832 54.0556 72.6829 53.4973 73.1225 53.0596C73.562 52.6219 74.1216 52.3246 74.7302 52.2052C75.3389 52.0858 75.9694 52.1498 76.5417 52.389C77.114 52.6282 77.6024 53.0318 77.9451 53.5489C78.2878 54.0659 78.4693 54.673 78.4666 55.2933C78.4631 56.122 78.1314 56.9155 77.5442 57.5003C76.957 58.085 76.162 58.4133 75.3333 58.4133Z" fill="white"/>
<path d="M67.8133 61.3335C66.9349 61.3307 66.0675 61.5278 65.2766 61.91C64.4858 62.2922 63.7923 62.8494 63.2488 63.5394C62.7053 64.2294 62.326 65.034 62.1397 65.8924C61.9533 66.7507 61.9648 67.6402 62.1732 68.4935L54.3466 73.3602C54.2691 73.2649 54.1844 73.1758 54.0932 73.0935C53.5576 72.5525 52.9201 72.123 52.2175 71.8299C51.5149 71.5368 50.7612 71.3859 49.9999 71.3859C49.2386 71.3859 48.4849 71.5368 47.7823 71.8299C47.0797 72.123 46.4422 72.5525 45.9066 73.0935C45.8154 73.1758 45.7307 73.2649 45.6532 73.3602L37.7866 68.4802C38.0556 67.4968 38.0606 66.4598 37.8011 65.4739C37.5417 64.4879 37.0269 63.5877 36.3087 62.8641C35.5905 62.1405 34.6942 61.619 33.7102 61.3521C32.7262 61.0853 31.6893 61.0825 30.7039 61.3441C29.7185 61.6057 28.8195 62.1224 28.0974 62.8422C27.3753 63.562 26.8557 64.4593 26.591 65.4439C26.3263 66.4285 26.3258 67.4654 26.5895 68.4503C26.8532 69.4351 27.3719 70.333 28.0932 71.0535C28.63 71.5949 29.2686 72.0246 29.9723 72.3179C30.6761 72.6112 31.4309 72.7622 32.1932 72.7622C32.9556 72.7622 33.7104 72.6112 34.4141 72.3179C35.1179 72.0246 35.7565 71.5949 36.2932 71.0535L36.5199 70.8268L44.3866 75.7068C44.2638 76.1906 44.2012 76.6877 44.1999 77.1868C44.1999 78.7251 44.811 80.2003 45.8987 81.288C46.9864 82.3758 48.4617 82.9868 49.9999 82.9868C51.5382 82.9868 53.0134 82.3758 54.1011 81.288C55.1888 80.2003 55.7999 78.7251 55.7999 77.1868C55.7987 76.6877 55.736 76.1906 55.6132 75.7068L63.3866 70.8802L63.7066 71.2268C64.3801 71.903 65.2101 72.4025 66.123 72.681C67.0358 72.9595 68.0033 73.0085 68.9396 72.8236C69.8759 72.6386 70.7521 72.2255 71.4905 71.6208C72.2289 71.0161 72.8066 70.2386 73.1725 69.3571C73.5384 68.4756 73.6811 67.5175 73.588 66.5676C73.4949 65.6178 73.1688 64.7056 72.6387 63.912C72.1086 63.1184 71.3909 62.4678 70.5491 62.018C69.7074 61.5682 68.7676 61.3331 67.8133 61.3335ZM34.3999 69.2135C33.8043 69.784 33.0113 70.1024 32.1866 70.1024C31.3618 70.1024 30.5689 69.784 29.9732 69.2135C29.6606 68.9279 29.4091 68.582 29.2339 68.1965C29.0587 67.8111 28.9634 67.3941 28.9538 66.9708C28.9442 66.5475 29.0206 66.1267 29.1782 65.7337C29.3358 65.3407 29.5714 64.9837 29.8708 64.6843C30.1702 64.3849 30.5271 64.1493 30.9201 63.9917C31.3131 63.8341 31.7339 63.7578 32.1572 63.7674C32.5805 63.777 32.9975 63.8723 33.383 64.0475C33.7684 64.2227 34.1144 64.4742 34.3999 64.7868C34.6918 65.0768 34.9234 65.4217 35.0815 65.8015C35.2395 66.1814 35.3209 66.5887 35.3209 67.0002C35.3209 67.4116 35.2395 67.819 35.0815 68.1988C34.9234 68.5787 34.6918 68.9235 34.3999 69.2135ZM52.2132 79.4402C51.7017 79.9489 51.0297 80.2646 50.3116 80.3335C49.5935 80.4025 48.8737 80.2205 48.2746 79.8185C47.6756 79.4165 47.2344 78.8194 47.0261 78.1287C46.8178 77.438 46.8553 76.6965 47.1322 76.0303C47.4091 75.3641 47.9083 74.8145 48.5448 74.475C49.1813 74.1355 49.9158 74.027 50.6233 74.1681C51.3308 74.3091 51.9676 74.691 52.4252 75.2487C52.8828 75.8064 53.133 76.5054 53.1332 77.2268C53.1334 77.6382 53.0522 78.0455 52.8943 78.4254C52.7364 78.8052 52.5049 79.1501 52.2132 79.4402ZM70.0266 69.3335C69.4278 69.8979 68.6361 70.2123 67.8133 70.2123C66.9904 70.2123 66.1987 69.8979 65.5999 69.3335C65.308 69.0435 65.0764 68.6987 64.9183 68.3188C64.7603 67.939 64.6789 67.5316 64.6789 67.1202C64.6789 66.7087 64.7603 66.3014 64.9183 65.9215C65.0764 65.5417 65.308 65.1968 65.5999 64.9068C65.8899 64.615 66.2347 64.3833 66.6146 64.2253C66.9944 64.0672 67.4018 63.9858 67.8133 63.9858C68.2247 63.9858 68.632 64.0672 69.0119 64.2253C69.3918 64.3833 69.7366 64.615 70.0266 64.9068C70.6096 65.496 70.9366 66.2913 70.9366 67.1202C70.9366 67.949 70.6096 68.7444 70.0266 69.3335Z" fill="white"/>
<path d="M30.4666 55.2933C30.4672 53.9852 30.0247 52.7156 29.2111 51.6913C28.3975 50.6671 27.2609 49.9487 25.9866 49.6533V39.2533C27.2597 38.9557 28.395 38.2368 29.2082 37.213C30.0214 36.1892 30.4649 34.9207 30.4666 33.6133C30.4677 32.9872 30.3641 32.3652 30.1599 31.7733L38.6666 26.7733C39.5977 27.7427 40.8373 28.3577 42.1725 28.5127C43.5076 28.6678 44.8552 28.3532 45.9836 27.623C47.1121 26.8927 47.9512 25.7924 48.3568 24.5109C48.7625 23.2295 48.7093 21.8467 48.2065 20.6002C47.7038 19.3536 46.7827 18.3209 45.6015 17.6795C44.4203 17.038 43.0526 16.8278 41.7333 17.0848C40.4139 17.3419 39.2252 18.0502 38.3713 19.0882C37.5173 20.1262 37.0513 21.4292 37.0533 22.7733C37.054 23.3525 37.144 23.9281 37.3199 24.48L28.7466 29.5066C28.1122 28.8718 27.3392 28.3929 26.4884 28.1075C25.6375 27.8221 24.732 27.7381 23.8432 27.862C22.9543 27.9859 22.1064 28.3144 21.366 28.8216C20.6256 29.3288 20.0131 30.0009 19.5765 30.785C19.1399 31.5691 18.8913 32.4438 18.8501 33.3403C18.8089 34.2368 18.9763 35.1306 19.3392 35.9515C19.702 36.7723 20.2504 37.4977 20.9412 38.0707C21.6319 38.6436 22.4462 39.0484 23.3199 39.2533V49.6533C22.2636 49.9061 21.2997 50.451 20.5386 51.2259C19.7774 52.0007 19.2497 52.9741 19.0158 54.0348C18.7818 55.0955 18.8511 56.2006 19.2158 57.2237C19.5804 58.2468 20.2256 59.1467 21.0777 59.8203C21.9297 60.494 22.9541 60.9142 24.0337 61.033C25.1134 61.1518 26.2047 60.9644 27.1828 60.4921C28.1609 60.0198 28.9863 59.2818 29.5647 58.3624C30.1431 57.443 30.451 56.3795 30.4533 55.2933H30.4666ZM42.8666 19.64C43.4863 19.64 44.0921 19.8237 44.6074 20.168C45.1227 20.5123 45.5243 21.0017 45.7614 21.5742C45.9986 22.1468 46.0606 22.7768 45.9397 23.3846C45.8188 23.9924 45.5204 24.5507 45.0822 24.9889C44.644 25.4271 44.0857 25.7255 43.4779 25.8464C42.8701 25.9673 42.2401 25.9053 41.6675 25.6681C41.095 25.431 40.6056 25.0294 40.2613 24.5141C39.9171 23.9988 39.7333 23.393 39.7333 22.7733C39.7333 21.9423 40.0634 21.1453 40.651 20.5577C41.2386 19.9701 42.0356 19.64 42.8666 19.64ZM21.5333 33.6133C21.5306 32.993 21.7122 32.3859 22.0548 31.8689C22.3975 31.3519 22.886 30.9482 23.4583 30.709C24.0306 30.4698 24.661 30.4058 25.2697 30.5252C25.8784 30.6446 26.4379 30.942 26.8775 31.3796C27.317 31.8173 27.6167 32.3756 27.7387 32.9838C27.8607 33.5919 27.7995 34.2226 27.5627 34.7959C27.3259 35.3693 26.9243 35.8594 26.4088 36.2043C25.8932 36.5492 25.2869 36.7333 24.6666 36.7333C23.8379 36.7333 23.0429 36.405 22.4557 35.8203C21.8685 35.2356 21.5368 34.442 21.5333 33.6133ZM24.6666 58.4133C24.0463 58.4133 23.44 58.2292 22.9245 57.8843C22.4089 57.5394 22.0073 57.0493 21.7705 56.4759C21.5338 55.9026 21.4725 55.2719 21.5945 54.6638C21.7165 54.0556 22.0162 53.4973 22.4558 53.0596C22.8953 52.622 23.4549 52.3246 24.0635 52.2052C24.6722 52.0858 25.3027 52.1498 25.875 52.389C26.4473 52.6282 26.9357 53.0319 27.2784 53.5489C27.6211 54.0659 27.8026 54.673 27.7999 55.2933C27.7964 56.122 27.4647 56.9156 26.8775 57.5003C26.2903 58.085 25.4953 58.4133 24.6666 58.4133Z" fill="white"/>
</g>
<defs>
<linearGradient id="paint0_linear_2385_7378" x1="-28.2133" y1="111.107" x2="128.213" y2="-11.1067" gradientUnits="userSpaceOnUse">
<stop stop-color="#055F4E"/>
<stop offset="1" stop-color="#56C0A7"/>
</linearGradient>
<clipPath id="clip0_2385_7378">
<rect width="100" height="100" fill="white"/>
</clipPath>
</defs>
</svg>
