<svg width="100" height="100" viewBox="0 0 100 100" fill="none" xmlns="http://www.w3.org/2000/svg">
<g clip-path="url(#clip0_2385_7382)">
<path d="M100 0H0V100H100V0Z" fill="url(#paint0_linear_2385_7382)"/>
<path d="M63.4134 39.3335H27.3067C26.9531 39.3335 26.614 39.474 26.3639 39.724C26.1139 39.9741 25.9734 40.3132 25.9734 40.6668V59.3868C25.9734 59.7405 26.1139 60.0796 26.3639 60.3296C26.614 60.5797 26.9531 60.7202 27.3067 60.7202H29.8667C30.1831 61.6678 30.7719 62.5012 31.5595 63.1159C32.3471 63.7307 33.2984 64.0995 34.2945 64.1764C35.2907 64.2532 36.2873 64.0346 37.1599 63.5479C38.0324 63.0613 38.7421 62.3281 39.2001 61.4402C39.6581 62.3281 40.3677 63.0613 41.2402 63.5479C42.1128 64.0346 43.1094 64.2532 44.1056 64.1764C45.1017 64.0995 46.0531 63.7307 46.8406 63.1159C47.6282 62.5012 48.217 61.6678 48.5334 60.7202H63.4134C63.7456 60.7157 64.0642 60.5873 64.3067 60.3602C64.6197 61.5241 65.3352 62.5393 66.3261 63.2254C67.3171 63.9114 68.5192 64.2238 69.7188 64.1071C70.9184 63.9903 72.0377 63.4519 72.8777 62.5877C73.7178 61.7234 74.2241 60.5892 74.3067 59.3868H75.4134C75.767 59.3868 76.1061 59.2464 76.3562 58.9963C76.6062 58.7463 76.7467 58.4071 76.7467 58.0535V51.1868C76.7432 50.1486 76.5346 49.1213 76.1329 48.164C75.7312 47.2067 75.1442 46.3382 74.4058 45.6084C73.6673 44.8786 72.7919 44.302 71.8299 43.9116C70.8679 43.5212 69.8382 43.3247 68.8001 43.3335H64.6934V40.6668C64.6937 40.3223 64.5605 39.991 64.3219 39.7424C64.0833 39.4938 63.7577 39.3473 63.4134 39.3335ZM34.6667 61.5202C34.1604 61.5202 33.6655 61.37 33.2445 61.0887C32.8235 60.8074 32.4953 60.4076 32.3016 59.9398C32.1078 59.4721 32.0571 58.9573 32.1559 58.4607C32.2547 57.9641 32.4985 57.508 32.8565 57.15C33.2146 56.7919 33.6707 56.5481 34.1673 56.4494C34.6639 56.3506 35.1786 56.4013 35.6464 56.595C36.1142 56.7888 36.514 57.1169 36.7953 57.5379C37.0766 57.9589 37.2267 58.4538 37.2267 58.9602C37.2267 59.6391 36.957 60.2903 36.4769 60.7704C35.9968 61.2504 35.3457 61.5202 34.6667 61.5202ZM43.6267 61.5202C43.1204 61.5202 42.6255 61.37 42.2045 61.0887C41.7835 60.8074 41.4554 60.4076 41.2616 59.9398C41.0678 59.4721 41.0171 58.9573 41.1159 58.4607C41.2147 57.9641 41.4585 57.508 41.8165 57.15C42.1745 56.7919 42.6307 56.5481 43.1273 56.4494C43.6239 56.3506 44.1386 56.4013 44.6064 56.595C45.0742 56.7888 45.474 57.1169 45.7553 57.5379C46.0366 57.9589 46.1867 58.4538 46.1867 58.9602C46.1867 59.6391 45.917 60.2903 45.4369 60.7704C44.9568 61.2504 44.3057 61.5202 43.6267 61.5202ZM62.0267 58.0002H48.6934C48.5017 56.9605 47.9913 56.0063 47.233 55.2698C46.4746 54.5333 45.5058 54.051 44.4611 53.8898C43.4163 53.7286 42.3472 53.8965 41.4021 54.3702C40.4571 54.8439 39.6828 55.6 39.1867 56.5335C38.6906 55.6 37.9164 54.8439 36.9713 54.3702C36.0262 53.8965 34.9572 53.7286 33.9124 53.8898C32.8676 54.051 31.8988 54.5333 31.1405 55.2698C30.3821 56.0063 29.8717 56.9605 29.6801 58.0002H28.7334V42.0002H62.0667V58.0002H62.0267ZM69.2267 61.5202C68.7204 61.5202 68.2255 61.37 67.8045 61.0887C67.3835 60.8074 67.0554 60.4076 66.8616 59.9398C66.6678 59.4721 66.6171 58.9573 66.7159 58.4607C66.8147 57.9641 67.0585 57.508 67.4165 57.15C67.7745 56.7919 68.2307 56.5481 68.7273 56.4494C69.2239 56.3506 69.7386 56.4013 70.2064 56.595C70.6742 56.7888 71.074 57.1169 71.3553 57.5379C71.6366 57.9589 71.7867 58.4538 71.7867 58.9602C71.7867 59.6391 71.517 60.2903 71.0369 60.7704C70.5568 61.2504 69.9057 61.5202 69.2267 61.5202ZM68.8001 46.0002C70.1804 45.9966 71.5058 46.5407 72.4856 47.513C73.4655 48.4853 74.0197 49.8065 74.0267 51.1868V56.6668H73.7734C73.3507 55.8249 72.7023 55.1172 71.9006 54.6226C71.0989 54.128 70.1754 53.866 69.2334 53.866C68.2914 53.866 67.3679 54.128 66.5662 54.6226C65.7645 55.1172 65.116 55.8249 64.6934 56.6668V46.0002H68.8001Z" fill="white"/>
<path d="M23.3601 40.6665H19.3601V43.3332H23.3601V40.6665Z" fill="white"/>
<path d="M23.36 47.3335H16.6934V50.0002H23.36V47.3335Z" fill="white"/>
<path d="M23.3599 54H18.0266V56.6667H23.3599V54Z" fill="white"/>
<path d="M51.3067 18C45.1814 18.0019 39.1852 19.7618 34.0305 23.0707C28.8757 26.3795 24.779 31.0983 22.2267 36.6667L24.5467 37.7333C27.3914 31.5188 32.3087 26.4871 38.4561 23.5002C44.6035 20.5134 51.5984 19.7574 58.242 21.3619C64.8856 22.9663 70.7645 26.8313 74.8712 32.2945C78.9779 37.7578 81.0568 44.4791 80.7517 51.307C80.4466 58.1348 77.7764 64.6439 73.1988 69.7191C68.6212 74.7943 62.421 78.1195 55.6608 79.125C48.9005 80.1305 42.001 78.7536 36.1445 75.2304C30.288 71.7071 25.8391 66.2568 23.5601 59.8133L21.1467 60.6667C23.1024 66.1982 26.5412 71.0856 31.0871 74.7945C35.6331 78.5035 41.1113 80.8913 46.9227 81.6969C52.7342 82.5025 58.6553 81.6949 64.0388 79.3623C69.4222 77.0298 74.0608 73.2621 77.4474 68.4712C80.834 63.6802 82.8382 58.0504 83.2411 52.1972C83.6439 46.344 82.4299 40.4927 79.7316 35.283C77.0333 30.0732 72.9546 25.7056 67.9415 22.6575C62.9284 19.6094 57.1738 17.9982 51.3067 18Z" fill="white"/>
</g>
<defs>
<linearGradient id="paint0_linear_2385_7382" x1="-20.7147" y1="120.711" x2="120.707" y2="-20.7107" gradientUnits="userSpaceOnUse">
<stop stop-color="#055F4E"/>
<stop offset="1" stop-color="#56C0A7"/>
</linearGradient>
<clipPath id="clip0_2385_7382">
<rect width="100" height="100" fill="white"/>
</clipPath>
</defs>
</svg>
