<svg width="100" height="100" viewBox="0 0 100 100" fill="none" xmlns="http://www.w3.org/2000/svg">
<g clip-path="url(#clip0_2385_7380)">
<path d="M100 0H0V100H100V0Z" fill="url(#paint0_linear_2385_7380)"/>
<path d="M49.2134 64.5335H25.4401C24.8839 64.5335 24.3332 64.4238 23.8195 64.2105C23.3058 63.9973 22.8393 63.6848 22.4466 63.2909C22.054 62.897 21.7429 62.4295 21.5313 61.9151C21.3197 61.4008 21.2116 60.8497 21.2134 60.2935V27.4402C21.2134 26.318 21.6583 25.2415 22.4505 24.4468C23.2428 23.652 24.3179 23.2037 25.4401 23.2002H38.5467C38.824 23.2023 39.0937 23.2907 39.3183 23.4532C39.543 23.6157 39.7114 23.8442 39.8001 24.1069L41.3334 28.5335H57.0934L58.6667 24.1069C58.7562 23.842 58.9266 23.612 59.1539 23.4493C59.3812 23.2866 59.6539 23.1995 59.9334 23.2002H73.0401C74.1612 23.2072 75.2342 23.6566 76.0257 24.4506C76.8172 25.2446 77.2632 26.3191 77.2667 27.4402V48.5335H74.6001V27.4402C74.5966 27.0263 74.4316 26.6301 74.1402 26.3362C73.8487 26.0422 73.4539 25.8738 73.0401 25.8669H60.8267L59.3067 30.3069C59.2158 30.5671 59.0464 30.7927 58.822 30.9526C58.5975 31.1126 58.329 31.1991 58.0534 31.2002H40.3734C40.0843 31.2163 39.7978 31.1378 39.5573 30.9766C39.3167 30.8154 39.1352 30.5804 39.0401 30.3069L37.5867 25.8669H25.4401C25.0262 25.8738 24.6314 26.0422 24.34 26.3362C24.0485 26.6301 23.8835 27.0263 23.8801 27.4402V60.2935C23.8835 60.7075 24.0485 61.1036 24.34 61.3976C24.6314 61.6915 25.0262 61.8599 25.4401 61.8669H49.2134V64.5335Z" fill="white"/>
<path d="M49.2002 69.8667H23.0402C21.1104 69.8351 19.2719 69.0399 17.9274 67.6554C16.5828 66.2709 15.8419 64.4098 15.8668 62.48V25.2534C15.8454 23.3246 16.5875 21.4656 17.9313 20.0818C19.2751 18.698 21.1116 17.9018 23.0402 17.8667H75.3735C77.3021 17.9018 79.1385 18.698 80.4823 20.0818C81.8261 21.4656 82.5683 23.3246 82.5468 25.2534V52.5334H79.8802V25.2534C79.9052 24.0307 79.4452 22.8479 78.6008 21.9635C77.7563 21.079 76.596 20.5648 75.3735 20.5334H23.0402C21.8177 20.5648 20.6574 21.079 19.8129 21.9635C18.9684 22.8479 18.5084 24.0307 18.5335 25.2534V62.48C18.5193 63.0859 18.6247 63.6886 18.8435 64.2538C19.0623 64.8189 19.3904 65.3354 19.8089 65.7737C20.2274 66.2121 20.7282 66.5636 21.2826 66.8084C21.8371 67.0531 22.4343 67.1862 23.0402 67.2H49.2002V69.8667Z" fill="white"/>
<path d="M53.2135 55.2002H31.8802C31.5266 55.2002 31.1874 55.0597 30.9374 54.8097C30.6873 54.5596 30.5469 54.2205 30.5469 53.8669V36.5335C30.5469 36.1799 30.6873 35.8408 30.9374 35.5907C31.1874 35.3407 31.5266 35.2002 31.8802 35.2002H67.8802C68.2338 35.2002 68.573 35.3407 68.823 35.5907C69.0731 35.8408 69.2135 36.1799 69.2135 36.5335V47.2002H66.5469V37.8669H33.2135V52.5335H53.2135V55.2002Z" fill="white"/>
<path d="M54.5336 23.2002H43.8669V25.8669H54.5336V23.2002Z" fill="white"/>
<path d="M67.6401 52.5334L68.4668 52.6H69.3068H70.1334L71.3068 55.2667C72.4058 55.6173 73.4445 56.1344 74.3868 56.8L77.3334 56.2267L77.8801 56.8534L78.4268 57.48L78.9734 58.1067L77.8668 60.88C78.4017 61.8901 78.7709 62.9795 78.9601 64.1067L81.5334 65.64L81.4668 66.4667V67.2934V68.1334L78.5468 69.3334C78.2081 70.424 77.6996 71.4544 77.0401 72.3867L77.7734 75.2934L77.1468 75.84L76.5201 76.3867L75.8934 76.9334L73.1068 75.8267C72.0976 76.3527 71.014 76.7214 69.8934 76.92L68.3601 79.4667L67.5334 79.4H66.7068H65.8668L64.6934 76.6534C63.5986 76.315 62.5637 75.8065 61.6268 75.1467L58.7334 75.88L58.1868 75.2534L57.6401 74.6267L57.0934 74L58.1868 71.24C57.6564 70.2174 57.2833 69.1206 57.0801 67.9867L54.5334 66.36L54.6001 65.5334V64.6934V63.8667L57.2668 62.6934C57.6037 61.5913 58.117 60.5512 58.7868 59.6134L58.0668 56.7334L58.6934 56.1867L59.3201 55.64L59.9468 55.0934L62.6934 56.1867C63.7166 55.6465 64.8193 55.2729 65.9601 55.08L67.4801 52.5334H67.6401ZM67.4801 49.8667C67.0147 49.8695 66.5582 49.9941 66.1559 50.228C65.7535 50.4619 65.4194 50.797 65.1868 51.2L64.2668 52.7467C63.7065 52.9053 63.1547 53.0922 62.6134 53.3067L60.9334 52.64C60.6184 52.5191 60.2842 52.4559 59.9468 52.4534C59.3003 52.4506 58.6748 52.6828 58.1868 53.1067L57.5601 53.6667L56.9334 54.2134L56.3068 54.76C55.936 55.0847 55.6625 55.5058 55.5166 55.9765C55.3706 56.4473 55.358 56.9492 55.4801 57.4267L55.9201 59.1867C55.6305 59.6903 55.3722 60.2113 55.1468 60.7467L53.4934 61.4667C53.0701 61.6729 52.7089 61.9876 52.4466 62.3787C52.1843 62.7698 52.0302 63.2234 52.0001 63.6934V64.52V65.3334V66.16C51.9714 66.6544 52.0809 67.1471 52.3164 67.5828C52.5519 68.0184 52.9041 68.3799 53.3334 68.6267L54.8934 69.56C55.04 70.1152 55.2272 70.6589 55.4534 71.1867L54.6668 72.9067C54.4838 73.363 54.4305 73.8611 54.5129 74.3458C54.5952 74.8305 54.81 75.2831 55.1334 75.6534L55.6934 76.28L56.2401 76.9067L56.7868 77.5334C57.0367 77.8178 57.3443 78.0458 57.6891 78.2021C58.034 78.3584 58.4081 78.4396 58.7868 78.44C59.007 78.4398 59.2263 78.4129 59.4401 78.36L61.2268 77.9067C61.6937 78.1841 62.1743 78.4377 62.6668 78.6667L63.3868 80.3467C63.5805 80.8001 63.8961 81.1909 64.2986 81.4757C64.7011 81.7606 65.1747 81.9282 65.6668 81.96H66.4934H67.3334H68.1601H68.3334C68.7988 81.9572 69.2553 81.8327 69.6577 81.5988C70.06 81.3649 70.3941 81.0297 70.6268 80.6267L71.5734 79.04C72.1181 78.9477 72.6569 78.823 73.1868 78.6667L74.9068 79.36C75.2218 79.4809 75.556 79.5441 75.8934 79.5467C76.5399 79.5495 77.1654 79.3173 77.6534 78.8934L78.2801 78.3334L78.9068 77.7867L79.5334 77.24C79.9042 76.9153 80.1777 76.4943 80.3236 76.0235C80.4695 75.5528 80.4822 75.0508 80.3601 74.5734L79.9068 72.7734C80.1848 72.2861 80.4341 71.783 80.6534 71.2667L82.3468 70.5334C82.8001 70.3496 83.1941 70.0446 83.4857 69.6519C83.7773 69.2591 83.9552 68.7938 84.0001 68.3067V67.48V66.6534V65.8134C84.0288 65.319 83.9193 64.8263 83.6838 64.3906C83.4483 63.955 83.0961 63.5935 82.6668 63.3467L81.0934 62.4134C80.9453 61.8646 80.7627 61.3258 80.5468 60.8L81.3334 59.0934C81.5164 58.637 81.5697 58.139 81.4873 57.6542C81.405 57.1695 81.1902 56.717 80.8668 56.3467L80.3068 55.72L79.7601 55.0934L79.2134 54.4667C78.9635 54.1822 78.6559 53.9543 78.3111 53.7979C77.9662 53.6416 77.5921 53.5605 77.2134 53.56C76.9932 53.5603 76.7739 53.5871 76.5601 53.64L74.7868 54.0934C74.3179 53.8114 73.8326 53.5576 73.3334 53.3334L72.6001 51.6667C72.4074 51.2152 72.0938 50.8257 71.6938 50.541C71.2939 50.2563 70.8231 50.0876 70.3334 50.0534H69.5068H68.6801H67.8401L67.4801 49.8667Z" fill="white"/>
<path d="M68.0003 72.2398C66.7661 72.2398 65.5597 71.8738 64.5335 71.1881C63.5073 70.5025 62.7075 69.5279 62.2352 68.3877C61.763 67.2475 61.6394 65.9929 61.8802 64.7824C62.1209 63.572 62.7152 62.4601 63.5879 61.5874C64.4606 60.7147 65.5725 60.1204 66.7829 59.8797C67.9933 59.6389 69.248 59.7625 70.3882 60.2348C71.5284 60.7071 72.503 61.5069 73.1886 62.533C73.8743 63.5592 74.2403 64.7656 74.2403 65.9998C74.2367 67.6536 73.5782 69.2388 72.4087 70.4082C71.2393 71.5777 69.6541 72.2362 68.0003 72.2398ZM68.0003 62.4264C67.2935 62.4264 66.6027 62.636 66.015 63.0287C65.4274 63.4213 64.9694 63.9794 64.6989 64.6323C64.4285 65.2853 64.3577 66.0037 64.4956 66.6969C64.6335 67.3901 64.9738 68.0268 65.4735 68.5265C65.9733 69.0262 66.61 69.3666 67.3031 69.5044C67.9963 69.6423 68.7148 69.5716 69.3677 69.3011C70.0207 69.0306 70.5787 68.5726 70.9714 67.985C71.364 67.3974 71.5736 66.7065 71.5736 65.9998C71.5736 65.0521 71.1971 64.1432 70.527 63.473C69.8569 62.8029 68.948 62.4264 68.0003 62.4264Z" fill="white"/>
</g>
<defs>
<linearGradient id="paint0_linear_2385_7380" x1="-20.7107" y1="120.715" x2="120.711" y2="-20.7067" gradientUnits="userSpaceOnUse">
<stop stop-color="#055F4E"/>
<stop offset="1" stop-color="#56C0A7"/>
</linearGradient>
<clipPath id="clip0_2385_7380">
<rect width="100" height="100" fill="white"/>
</clipPath>
</defs>
</svg>
