<svg width="100" height="100" viewBox="0 0 100 100" fill="none" xmlns="http://www.w3.org/2000/svg">
<g clip-path="url(#clip0_2385_7383)">
<path d="M100 0H0V100H100V0Z" fill="url(#paint0_linear_2385_7383)"/>
<path d="M31.7068 80H24.6002V77.3334H31.7068V80ZM77.6135 42.36H64.9202V44.96H75.0135V77.4267H51.3202V80.0934H77.6135V42.36ZM28.5202 76.0934V44.96H50.8935V42.36H25.9202V76.0934C25.9202 76.447 25.7797 76.7861 25.5296 77.0362C25.2796 77.2862 24.9404 77.4267 24.5868 77.4267C24.2332 77.4267 23.8941 77.2862 23.644 77.0362C23.394 76.7861 23.2535 76.447 23.2535 76.0934V36.1867H37.2002L40.7202 39.6934H50.8935V37.1067H41.7868L38.2802 33.6H20.6668V76.0934C20.6356 76.6283 20.7141 77.1639 20.8973 77.6674C21.0806 78.1709 21.3647 78.6317 21.7324 79.0214C22.1001 79.4112 22.5435 79.7217 23.0355 79.9339C23.5275 80.1461 24.0577 80.2556 24.5935 80.2556C25.1293 80.2556 25.6595 80.1461 26.1515 79.9339C26.6434 79.7217 27.0869 79.4112 27.4546 79.0214C27.8222 78.6317 28.1064 78.1709 28.2897 77.6674C28.4729 77.1639 28.5513 76.6283 28.5202 76.0934ZM77.6135 37.1067H71.9068V39.6934H75.0135V41.0267H77.6802L77.6135 37.1067ZM58.8535 62.08L70.2535 49.8C70.4074 49.6121 70.507 49.3856 70.5416 49.1451C70.5762 48.9047 70.5444 48.6593 70.4497 48.4356C70.355 48.2119 70.201 48.0183 70.0042 47.8757C69.8075 47.7331 69.5756 47.647 69.3335 47.6267H63.5868V38.4H60.9868V48.92C60.9868 49.2737 61.1273 49.6128 61.3773 49.8628C61.6274 50.1129 61.9665 50.2534 62.3202 50.2534H66.3202L57.8935 59.3334L49.4668 50.2534H53.4668C53.8204 50.2534 54.1596 50.1129 54.4096 49.8628C54.6597 49.6128 54.8002 49.2737 54.8002 48.92V38.4H52.2268V47.6267H46.5068C46.2625 47.6426 46.0272 47.7255 45.8268 47.8662C45.6265 48.007 45.4687 48.2003 45.3709 48.4248C45.2731 48.6493 45.2391 48.8964 45.2724 49.139C45.3058 49.3816 45.4054 49.6103 45.5602 49.8L56.9602 62.08C57.0841 62.205 57.2316 62.3042 57.3941 62.3719C57.5565 62.4396 57.7308 62.4744 57.9068 62.4744C58.0828 62.4744 58.2571 62.4396 58.4196 62.3719C58.5821 62.3042 58.7295 62.205 58.8535 62.08ZM72.3202 31.8134H78.0402C78.2921 31.8078 78.5373 31.7309 78.7473 31.5917C78.9573 31.4524 79.1236 31.2566 79.2268 31.0267C79.3228 30.7944 79.3512 30.5398 79.3088 30.2921C79.2663 30.0444 79.1547 29.8137 78.9868 29.6267L67.5868 17.3334C67.4629 17.2084 67.3154 17.1092 67.1529 17.0415C66.9905 16.9738 66.8162 16.939 66.6402 16.939C66.4641 16.939 66.2899 16.9738 66.1274 17.0415C65.9649 17.1092 65.8174 17.2084 65.6935 17.3334L54.2935 29.6C54.1256 29.7871 54.014 30.0177 53.9715 30.2654C53.9291 30.5131 53.9575 30.7678 54.0535 31C54.1567 31.2299 54.323 31.4258 54.533 31.565C54.7431 31.7042 54.9882 31.7811 55.2402 31.7867H60.9602V43.1867H63.6268V30.5067C63.6268 30.1531 63.4863 29.8139 63.2363 29.5639C62.9863 29.3138 62.6471 29.1734 62.2935 29.1734H58.2935L66.6668 20.1467L75.0802 29.2134H71.0802C70.7265 29.2134 70.3874 29.3538 70.1374 29.6039C69.8873 29.8539 69.7468 30.1931 69.7468 30.5467V43.2534H72.4135L72.3202 31.8134ZM50.0935 79.1334V72.6134C50.0935 71.5773 49.6819 70.5836 48.9493 69.8509C48.2166 69.1183 47.2229 68.7067 46.1868 68.7067H36.9335C35.8974 68.7067 34.9037 69.1183 34.1711 69.8509C33.4384 70.5836 33.0268 71.5773 33.0268 72.6134V79.1334C33.0268 80.1695 33.4384 81.1632 34.1711 81.8958C34.9037 82.6284 35.8974 83.04 36.9335 83.04H46.1868C47.2229 83.04 48.2166 82.6284 48.9493 81.8958C49.6819 81.1632 50.0935 80.1695 50.0935 79.1334ZM46.1868 71.3067C46.5404 71.3067 46.8796 71.4472 47.1296 71.6972C47.3797 71.9473 47.5202 72.2864 47.5202 72.64V79.16C47.5202 79.5137 47.3797 79.8528 47.1296 80.1028C46.8796 80.3529 46.5404 80.4934 46.1868 80.4934H36.9335C36.5799 80.4934 36.2407 80.3529 35.9907 80.1028C35.7406 79.8528 35.6002 79.5137 35.6002 79.16V72.6134C35.6002 72.2597 35.7406 71.9206 35.9907 71.6706C36.2407 71.4205 36.5799 71.28 36.9335 71.28L46.1868 71.3067ZM47.5202 66.7334C47.5202 65.6301 47.0819 64.572 46.3017 63.7918C45.5216 63.0117 44.4635 62.5734 43.3602 62.5734H39.8935C38.789 62.5734 37.7295 63.0112 36.9472 63.791C36.1649 64.5708 35.7237 65.6288 35.7202 66.7334V69.3334H38.3202V66.7334C38.3201 66.5274 38.3609 66.3234 38.4402 66.1333C38.5194 65.9431 38.6355 65.7706 38.7818 65.6255C38.928 65.4805 39.1016 65.3659 39.2924 65.2883C39.4832 65.2107 39.6875 65.1716 39.8935 65.1734H43.3602C43.565 65.1734 43.7679 65.2137 43.9571 65.2921C44.1464 65.3705 44.3184 65.4854 44.4632 65.6303C44.6081 65.7751 44.723 65.9471 44.8014 66.1364C44.8798 66.3256 44.9202 66.5285 44.9202 66.7334V69.3334H47.5868L47.5202 66.7334Z" fill="white"/>
</g>
<defs>
<linearGradient id="paint0_linear_2385_7383" x1="-20.7067" y1="120.707" x2="120.707" y2="-20.7067" gradientUnits="userSpaceOnUse">
<stop stop-color="#055F4E"/>
<stop offset="1" stop-color="#56C0A7"/>
</linearGradient>
<clipPath id="clip0_2385_7383">
<rect width="100" height="100" fill="white"/>
</clipPath>
</defs>
</svg>
