<svg width="100" height="100" viewBox="0 0 100 100" fill="none" xmlns="http://www.w3.org/2000/svg">
<g clip-path="url(#clip0_2385_7376)">
<path d="M100 0H0V100H100V0Z" fill="url(#paint0_linear_2385_7376)"/>
<path d="M69.2001 23.3335C68.8001 18.1335 59.1068 15.3335 49.9601 15.3335C40.8134 15.3335 31.1067 18.1335 30.6667 23.3335V63.3335C30.6667 68.7335 40.6267 71.6535 50.0001 71.6535C59.3734 71.6535 69.3334 68.7468 69.3334 63.3468V23.3468L69.2001 23.3335ZM49.9601 18.0002C60.2534 18.0002 66.5734 21.2935 66.5734 23.6668C66.5734 26.0402 60.2534 29.3335 49.9601 29.3335C39.6667 29.3335 33.3334 26.0268 33.3334 23.6668C33.3334 21.3068 39.6534 18.0002 49.9601 18.0002ZM49.9601 69.0002C39.6534 69.0002 33.3334 65.7068 33.3334 63.3468V55.6535C36.8934 58.3202 43.6134 59.6535 50.0401 59.6535C56.4667 59.6535 63.0801 58.3202 66.6667 55.6535V63.2935C66.5734 65.7068 60.2534 69.0002 49.9601 69.0002ZM50.0401 57.0002C39.7467 57.0002 33.4267 53.6935 33.4267 51.3335H33.3334V42.3202C36.8934 44.9868 43.6134 46.3202 50.0401 46.3202C56.4667 46.3202 63.0801 44.9868 66.6667 42.3202V51.3335C66.6667 53.6935 60.3467 57.0002 50.0401 57.0002ZM50.0401 43.6668C39.7467 43.6668 33.4267 40.3602 33.4267 38.0002H33.3334V28.0002C36.9201 30.5868 43.5734 32.0002 49.9601 32.0002C56.3468 32.0002 63.1068 30.6668 66.6667 28.0002V38.0002C66.6667 40.3602 60.3467 43.6668 50.0401 43.6668Z" fill="white"/>
<path d="M34.6667 74H32V82H34.6667V74Z" fill="white"/>
<path d="M68.0002 74H65.3335V82H68.0002V74Z" fill="white"/>
<path d="M45.3334 76.667H42.6667V84.667H45.3334V76.667Z" fill="white"/>
<path d="M57.3334 76.667H54.6667V84.667H57.3334V76.667Z" fill="white"/>
</g>
<defs>
<linearGradient id="paint0_linear_2385_7376" x1="-20.7067" y1="120.707" x2="120.707" y2="-20.7067" gradientUnits="userSpaceOnUse">
<stop stop-color="#055F4E"/>
<stop offset="1" stop-color="#56C0A7"/>
</linearGradient>
<clipPath id="clip0_2385_7376">
<rect width="100" height="100" fill="white"/>
</clipPath>
</defs>
</svg>
