<svg width="100" height="100" viewBox="0 0 100 100" fill="none" xmlns="http://www.w3.org/2000/svg">
<g clip-path="url(#clip0_2385_7384)">
<path d="M100 -1H0V99H100V-1Z" fill="url(#paint0_linear_2385_7384)"/>
<path d="M66.3501 40.19C66.5273 39.11 66.4404 38.0031 66.0968 36.9639C65.7532 35.9247 65.1631 34.9842 64.377 34.2227C63.5909 33.4611 62.6321 32.9012 61.5826 32.5908C60.5331 32.2804 59.424 32.2286 58.3501 32.44C56.7301 27.63 52.4701 25 46.2501 25C46.1301 25 34.4201 25.16 33.9001 38.92C25.1101 39.53 25.0001 48.29 25.0001 48.38C24.9884 51.027 26.0101 53.574 27.8479 55.479C29.6857 57.3841 32.1944 58.4967 34.8401 58.58H39.8401L37.2501 61.89C37.1353 62.0351 37.063 62.2092 37.0412 62.3929C37.0194 62.5766 37.049 62.7628 37.1268 62.9307C37.2045 63.0986 37.3273 63.2416 37.4815 63.3439C37.6357 63.4462 37.8152 63.5037 38.0001 63.51H45.0001V71.51C45.0001 71.7752 45.1055 72.0296 45.293 72.2171C45.4805 72.4046 45.7349 72.51 46.0001 72.51H54.0001C54.2653 72.51 54.5197 72.4046 54.7072 72.2171C54.8947 72.0296 55.0001 71.7752 55.0001 71.51V63.51H62.0001C62.1884 63.511 62.3732 63.4588 62.5332 63.3595C62.6931 63.2601 62.8218 63.1176 62.9043 62.9483C62.9869 62.7791 63.0199 62.5899 62.9997 62.4027C62.9795 62.2155 62.9069 62.0378 62.7901 61.89L60.2001 58.58H66.4201C71.5501 58.58 75.0001 54.58 75.0001 48.72C75.0001 44.99 72.7101 40.67 66.3501 40.19ZM54.0001 61.51C53.7349 61.51 53.4805 61.6154 53.293 61.8029C53.1055 61.9904 53.0001 62.2448 53.0001 62.51V70.51H47.0001V62.51C47.0001 62.2448 46.8947 61.9904 46.7072 61.8029C46.5197 61.6154 46.2653 61.51 46.0001 61.51H40.0501L50.0001 48.73L60.0001 61.51H54.0001ZM66.4301 56.58H58.6301L50.7901 46.53C50.6966 46.4096 50.5768 46.3121 50.4399 46.245C50.303 46.178 50.1526 46.1431 50.0001 46.1431C49.8476 46.1431 49.6972 46.178 49.5603 46.245C49.4233 46.3121 49.3036 46.4096 49.2101 46.53L41.3701 56.58H34.8401C32.7241 56.5045 30.7211 55.6066 29.2569 54.0771C27.7928 52.5476 26.9831 50.5072 27.0001 48.39C27.0001 48.08 27.1301 40.88 34.8401 40.88C35.1053 40.88 35.3597 40.7746 35.5472 40.5871C35.7347 40.3996 35.8401 40.1452 35.8401 39.88C35.8401 27.2 45.7901 27 46.2101 27C50.2101 27 55.2101 28.18 56.6401 33.85C56.7067 34.1062 56.8721 34.3256 57.1001 34.46C57.2133 34.5275 57.3387 34.572 57.4691 34.5909C57.5995 34.6097 57.7324 34.6026 57.8601 34.57C58.7437 34.2446 59.702 34.179 60.6218 34.3811C61.5415 34.5831 62.3841 35.0444 63.0499 35.7102C63.7157 36.376 64.177 37.2186 64.379 38.1383C64.5811 39.058 64.5155 40.0164 64.1901 40.9C64.153 41.0497 64.1511 41.206 64.1844 41.3566C64.2178 41.5072 64.2855 41.6481 64.3824 41.7682C64.4792 41.8883 64.6025 41.9843 64.7426 42.0488C64.8828 42.1133 65.0359 42.1445 65.1901 42.14C70.9701 42.14 73.0301 45.54 73.0301 48.72C73.0001 52.52 71.2701 56.58 66.4201 56.58H66.4301Z" fill="white"/>
</g>
<defs>
<linearGradient id="paint0_linear_2385_7384" x1="0" y1="99" x2="100" y2="-1" gradientUnits="userSpaceOnUse">
<stop stop-color="#055F4E"/>
<stop offset="1" stop-color="#56C0A7"/>
</linearGradient>
<clipPath id="clip0_2385_7384">
<rect width="100" height="100" fill="white"/>
</clipPath>
</defs>
</svg>
