<svg width="100" height="100" viewBox="0 0 100 100" fill="none" xmlns="http://www.w3.org/2000/svg">
<g clip-path="url(#clip0_2385_4051)">
<path d="M100 0H0V100H100V0Z" fill="url(#paint0_linear_2385_4051)"/>
<path d="M81.9999 83.3334C81.8244 83.3344 81.6504 83.3008 81.488 83.2344C81.3255 83.1681 81.1778 83.0703 81.0532 82.9467L57.0532 58.9467L58.9465 57.0534L80.6665 78.7868V19.3334H21.2132L42.9465 41.0534L41.0532 42.9467L17.0532 18.9467C16.8682 18.7592 16.7429 18.5212 16.693 18.2625C16.6432 18.0038 16.6711 17.7362 16.7732 17.4934C16.8732 17.2499 17.0431 17.0415 17.2614 16.8944C17.4797 16.7473 17.7366 16.6681 17.9999 16.6667H81.9999C82.3535 16.6667 82.6926 16.8072 82.9427 17.0573C83.1927 17.3073 83.3332 17.6465 83.3332 18.0001V82.0001C83.3319 82.2633 83.2527 82.5203 83.1056 82.7386C82.9585 82.9569 82.75 83.1267 82.5065 83.2267C82.3483 83.3014 82.1748 83.3379 81.9999 83.3334Z" fill="white"/>
<path d="M51.3332 83.3335C51.1577 83.3345 50.9838 83.3009 50.8213 83.2345C50.6589 83.1682 50.5111 83.0704 50.3865 82.9468L17.0532 49.6135C16.8682 49.426 16.7429 49.1879 16.693 48.9293C16.6432 48.6706 16.6711 48.403 16.7732 48.1602C16.8732 47.9167 17.0431 47.7082 17.2614 47.5611C17.4797 47.414 17.7366 47.3348 17.9999 47.3335H51.3332C51.6868 47.3335 52.026 47.474 52.276 47.724C52.5261 47.9741 52.6665 48.3132 52.6665 48.6668V82.0002C52.6652 82.2634 52.586 82.5204 52.4389 82.7387C52.2918 82.9569 52.0834 83.1268 51.8399 83.2268C51.6816 83.3015 51.5081 83.338 51.3332 83.3335ZM21.2132 50.0002L49.9999 78.7868V50.0002H21.2132Z" fill="white"/>
</g>
<defs>
<linearGradient id="paint0_linear_2385_4051" x1="-20.7067" y1="120.707" x2="120.707" y2="-20.7067" gradientUnits="userSpaceOnUse">
<stop stop-color="#055F4E"/>
<stop offset="1" stop-color="#56C0A7"/>
</linearGradient>
<clipPath id="clip0_2385_4051">
<rect width="100" height="100" fill="white"/>
</clipPath>
</defs>
</svg>
