<svg width="100" height="100" viewBox="0 0 100 100" fill="none" xmlns="http://www.w3.org/2000/svg">
<g clip-path="url(#clip0_2385_4050)">
<path d="M100 0H0V100H100V0Z" fill="url(#paint0_linear_2385_4050)"/>
<path d="M48.6666 35.8133V39.8133H51.3333V35.8133H48.6666ZM38.4399 55.8133L37.1066 53.5067L40.1866 51.7333L41.5199 54.04L38.4399 55.8133ZM43.5599 52.8533L42.2266 50.5467L45.3333 48.7333L46.6666 51.04L43.5599 52.8533ZM75.9999 61.3333L74.6666 63.6533L78.1333 65.6533L79.4666 63.3333L75.9999 61.3333ZM70.2266 58L68.8933 60.32L72.3599 62.32L73.6933 60L70.2266 58ZM64.4399 54.6667L63.1066 56.9867L66.5733 58.9867L67.9066 56.6667L64.4399 54.6667ZM82.6666 37.4533L58.6666 23.6C58.4639 23.483 58.234 23.4214 57.9999 23.4214C57.7659 23.4214 57.536 23.483 57.3333 23.6L49.0799 28.36L33.3333 37.4533C33.1298 37.5708 32.961 37.74 32.8439 37.9437C32.7268 38.1474 32.6657 38.3784 32.6666 38.6133V66.32C32.6657 66.555 32.7268 66.786 32.8439 66.9897C32.961 67.1934 33.1298 67.3625 33.3333 67.48L57.3333 81.3333C57.536 81.4504 57.7659 81.512 57.9999 81.512C58.234 81.512 58.4639 81.4504 58.6666 81.3333L82.6666 67.48C82.8701 67.3625 83.0389 67.1934 83.156 66.9897C83.273 66.786 83.3342 66.555 83.3333 66.32V38.6667C83.3439 38.4228 83.2873 38.1807 83.1697 37.9667C83.0522 37.7527 82.8782 37.5752 82.6666 37.4533ZM56.6666 77.8667L35.3333 65.56V57.56L36.3999 56.9467L35.3333 55.0933V40.92L47.6133 48L48.6799 49.84L49.7466 49.2267L56.6666 53.2267V77.8667ZM57.9999 50.9333L51.3333 47.08V42.48H48.6666V45.5333L36.6666 38.6667L48.6666 31.7467V33.2H51.3333V30.1467L57.9999 26.2933L79.3333 38.6667L57.9999 50.9333ZM80.6666 65.6L59.3333 77.9067V54.7867L60.7999 55.6267L62.1333 53.3067L60.6799 52.4667L80.6799 40.9333L80.6666 65.6ZM45.6399 23.8933L36.4799 18.6667C36.2772 18.5496 36.0473 18.488 35.8133 18.488C35.5792 18.488 35.3493 18.5496 35.1466 18.6667L17.3333 28.9333C17.1342 29.0513 16.9693 29.2191 16.8548 29.4202C16.7402 29.6212 16.68 29.8486 16.6799 30.08V50.6667C16.6793 50.9065 16.7433 51.1421 16.8654 51.3486C16.9874 51.5551 17.1629 51.7249 17.3733 51.84L26.7066 56.9867C26.9032 57.0928 27.1232 57.1478 27.3466 57.1467C27.5859 57.1466 27.8208 57.0821 28.0266 56.96C28.2256 56.842 28.3905 56.6742 28.5051 56.4732C28.6196 56.2721 28.6799 56.0447 28.6799 55.8133V36L45.6666 26.1867C45.8681 26.0703 46.0357 25.9033 46.1526 25.7021C46.2696 25.501 46.3319 25.2727 46.3333 25.04C46.3292 24.8047 46.2629 24.5746 46.1411 24.3732C46.0193 24.1718 45.8464 24.0063 45.6399 23.8933ZM25.9999 53.56L19.3333 49.88V32.36L25.9999 36.0267V53.56ZM27.3333 33.7067L20.6666 30.08L35.8133 21.3333L42.3066 25.04L27.3333 33.7067Z" fill="white"/>
</g>
<defs>
<linearGradient id="paint0_linear_2385_4050" x1="-20.7067" y1="120.72" x2="120.72" y2="-20.7067" gradientUnits="userSpaceOnUse">
<stop stop-color="#055F4E"/>
<stop offset="1" stop-color="#56C0A7"/>
</linearGradient>
<clipPath id="clip0_2385_4050">
<rect width="100" height="100" fill="white"/>
</clipPath>
</defs>
</svg>
