<svg width="100" height="100" viewBox="0 0 100 100" fill="none" xmlns="http://www.w3.org/2000/svg">
<g clip-path="url(#clip0_2385_4049)">
<path d="M100 0H0V100H100V0Z" fill="url(#paint0_linear_2385_4049)"/>
<path d="M73.74 32.5H71V30C70.9948 29.0682 70.6202 28.1765 69.9585 27.5204C69.2968 26.8643 68.4019 26.4974 67.47 26.5H34.53C33.5982 26.4974 32.7033 26.8643 32.0416 27.5204C31.3799 28.1765 31.0053 29.0682 31 30V56.5H27C26.8137 56.4987 26.6307 56.5495 26.4716 56.6467C26.3126 56.7439 26.1839 56.8836 26.1 57.05C26.0172 57.217 25.9827 57.4037 26.0004 57.5893C26.018 57.7748 26.0872 57.9517 26.2 58.1L29.99 63.1C30.0832 63.2242 30.204 63.325 30.3428 63.3944C30.4817 63.4639 30.6348 63.5 30.79 63.5H53V69.24C53 69.5368 53.0585 69.8307 53.1721 70.1049C53.2857 70.3791 53.4521 70.6282 53.662 70.8381C53.8718 71.0479 54.121 71.2144 54.3952 71.328C54.6694 71.4416 54.9633 71.5 55.26 71.5H73.74C74.0368 71.5 74.3307 71.4416 74.6049 71.328C74.8791 71.2144 75.1282 71.0479 75.3381 70.8381C75.548 70.6282 75.7144 70.3791 75.828 70.1049C75.9416 69.8307 76 69.5368 76 69.24V34.76C76 34.1606 75.7619 33.5858 75.3381 33.162C74.9143 32.7381 74.3394 32.5 73.74 32.5ZM73.74 34.5C73.809 34.5 73.8751 34.5274 73.9239 34.5762C73.9727 34.6249 74 34.6911 74 34.76V59.5H55V55.5H61.26C62.5042 55.4635 63.6848 54.9421 64.5498 54.0472C65.4148 53.1523 65.8958 51.9547 65.89 50.71C65.89 47.53 64.74 45.92 62.47 45.92H61.06V45.66C61.0468 45.0663 60.892 44.4844 60.6084 43.9626C60.3249 43.4408 59.9209 42.9942 59.43 42.66C58.7844 42.2332 58.0594 41.9406 57.2984 41.7998C56.5373 41.6589 55.7557 41.6726 55 41.84V34.76C55 34.6911 55.0274 34.6249 55.0762 34.5762C55.125 34.5274 55.1911 34.5 55.26 34.5H73.74ZM44.41 40.4C44.241 39.9733 44.1529 39.5189 44.15 39.06C44.15 37.9991 44.5715 36.9817 45.3216 36.2316C46.0718 35.4814 47.0892 35.06 48.15 35.06C49.2623 35.0729 50.3287 35.5057 51.1353 36.2716C51.942 37.0374 52.4295 38.0799 52.5 39.19V40.37C52.5031 40.5366 52.5476 40.6997 52.6297 40.8447C52.7118 40.9896 52.8288 41.1118 52.97 41.2V49.5H42.14C41.0792 49.5 40.0618 49.0786 39.3116 48.3284C38.5615 47.5783 38.14 46.5609 38.14 45.5C38.14 44.4391 38.5615 43.4217 39.3116 42.6716C40.0618 41.9214 41.0792 41.5 42.14 41.5C42.5022 41.5056 42.8621 41.5594 43.21 41.66C43.3873 41.7082 43.5744 41.7066 43.7508 41.6554C43.9272 41.6043 44.0861 41.5055 44.21 41.37C44.3247 41.2396 44.4035 41.0816 44.4386 40.9115C44.4736 40.7414 44.4638 40.5651 44.41 40.4ZM59.3 47.58C59.3938 47.6867 59.5091 47.7722 59.6384 47.8308C59.7677 47.8894 59.9081 47.9198 60.05 47.92H62.47C63.01 47.92 63.89 47.92 63.89 50.71C63.9011 51.4259 63.6326 52.1179 63.1415 52.6389C62.6503 53.1599 61.9754 53.4689 61.26 53.5H55V43.88C55.538 43.7062 56.1067 43.6485 56.6686 43.7105C57.2306 43.7726 57.773 43.953 58.26 44.24C58.4979 44.3939 58.6944 44.6039 58.8321 44.8515C58.9699 45.0991 59.0447 45.3767 59.05 45.66V45.92C59.05 46.21 59.05 46.65 59.05 46.78C59.0314 46.9235 59.044 47.0693 59.0872 47.2075C59.1304 47.3456 59.203 47.4727 59.3 47.58ZM33 30C33.0053 29.5986 33.1692 29.2156 33.4558 28.9346C33.7425 28.6536 34.1286 28.4973 34.53 28.5H67.42C67.623 28.492 67.8255 28.5247 68.0155 28.5962C68.2056 28.6678 68.3794 28.7767 68.5267 28.9165C68.674 29.0563 68.7917 29.2242 68.873 29.4103C68.9543 29.5964 68.9975 29.7969 69 30V32.5H55.26C54.6607 32.5 54.0858 32.7381 53.662 33.162C53.2382 33.5858 53 34.1606 53 34.76V35.32C52.4006 34.6271 51.6611 34.0692 50.8303 33.6831C49.9994 33.297 49.0962 33.0914 48.18 33.08C46.5887 33.08 45.0626 33.7122 43.9374 34.8374C42.8122 35.9626 42.18 37.4887 42.18 39.08C42.18 39.24 42.18 39.41 42.18 39.57C41.3921 39.57 40.6119 39.7252 39.8839 40.0267C39.156 40.3283 38.4946 40.7702 37.9374 41.3274C37.3803 41.8845 36.9383 42.546 36.6368 43.2739C36.3352 44.0019 36.18 44.7821 36.18 45.57C36.18 46.3579 36.3352 47.1382 36.6368 47.8661C36.9383 48.5941 37.3803 49.2555 37.9374 49.8127C38.4946 50.3698 39.156 50.8118 39.8839 51.1133C40.6119 51.4148 41.3921 51.57 42.18 51.57H53V56.57H33V30ZM31.29 61.5L29 58.5H53V61.5H31.29ZM73.74 69.5H55.26C55.1911 69.5 55.125 69.4726 55.0762 69.4239C55.0274 69.3751 55 69.309 55 69.24V61.5H74V69.24C74 69.309 73.9727 69.3751 73.9239 69.4239C73.8751 69.4726 73.809 69.5 73.74 69.5Z" fill="white"/>
</g>
<defs>
<linearGradient id="paint0_linear_2385_4049" x1="0" y1="100" x2="100" y2="0" gradientUnits="userSpaceOnUse">
<stop stop-color="#055F4E"/>
<stop offset="1" stop-color="#56C0A7"/>
</linearGradient>
<clipPath id="clip0_2385_4049">
<rect width="100" height="100" fill="white"/>
</clipPath>
</defs>
</svg>
