<svg width="100" height="100" viewBox="0 0 100 100" fill="none" xmlns="http://www.w3.org/2000/svg">
<g clip-path="url(#clip0_2385_9611)">
<path d="M100 0H0V100H100V0Z" fill="url(#paint0_linear_2385_9611)"/>
<path d="M73.3333 20H21.9467C20.567 20.0725 19.2722 20.6882 18.3453 21.7126C17.4183 22.737 16.9347 24.0867 17 25.4667V58.5333C16.9347 59.9133 17.4183 61.263 18.3453 62.2874C19.2722 63.3118 20.567 63.9275 21.9467 64H50.3333V61.3333H21.9467C21.2847 61.2376 20.683 60.8966 20.2606 60.3779C19.8383 59.8593 19.6263 59.2009 19.6667 58.5333V36H43.6667V56C43.6667 56.3536 43.8071 56.6928 44.0572 56.9428C44.3072 57.1929 44.6464 57.3333 45 57.3333H55.6667V54.6667H46.9333V54.2667C46.9298 52.0411 47.6459 49.8741 48.9746 48.0887C50.3034 46.3034 52.1738 44.9955 54.3067 44.36C55.3359 44.8312 56.4547 45.0751 57.5867 45.0751C58.7187 45.0751 59.8374 44.8312 60.8667 44.36C63.3257 45.1022 65.4243 46.726 66.76 48.92L69.0267 47.5867C67.6539 45.3456 65.6372 43.5705 63.24 42.4933C64.3339 41.1947 64.9337 39.5513 64.9333 37.8533C64.9333 35.9084 64.1607 34.0432 62.7854 32.6679C61.4102 31.2926 59.5449 30.52 57.6 30.52C55.6551 30.52 53.7898 31.2926 52.4146 32.6679C51.0393 34.0432 50.2667 35.9084 50.2667 37.8533C50.3015 39.5237 50.914 41.1304 52 42.4C49.6924 43.4234 47.7359 45.1017 46.3733 47.2267V29.3333H69.04V47.6V48H71.7067V36H75.7067V49.3333H78.3733V25.4667C78.4055 24.7758 78.3002 24.0854 78.0637 23.4356C77.8271 22.7857 77.4638 22.1892 76.9951 21.6807C76.5263 21.1722 75.9612 20.7619 75.3327 20.4734C74.7041 20.1848 74.0245 20.024 73.3333 20ZM57.6 33.16C58.2093 33.1565 58.8134 33.273 59.3777 33.503C59.942 33.7329 60.4555 34.0718 60.8888 34.5001C61.3222 34.9285 61.6669 35.4381 61.9033 35.9997C62.1397 36.5613 62.2632 37.164 62.2667 37.7733C62.2611 38.5954 62.034 39.4008 61.6093 40.1047C61.1846 40.8086 60.578 41.3851 59.8533 41.7733C59.1589 42.1479 58.3823 42.3441 57.5933 42.3441C56.8043 42.3441 56.0277 42.1479 55.3333 41.7733C54.6121 41.3822 54.009 40.8048 53.5869 40.1012C53.1647 39.3977 52.939 38.5938 52.9333 37.7733C52.9368 37.164 53.0603 36.5613 53.2967 35.9997C53.5331 35.4381 53.8778 34.9285 54.3112 34.5001C54.7445 34.0718 55.258 33.7329 55.8223 33.503C56.3866 33.273 56.9907 33.1565 57.6 33.16ZM71.6667 33.3333V28C71.6667 27.6464 71.5262 27.3072 71.2761 27.0572C71.0261 26.8071 70.687 26.6667 70.3333 26.6667H45C44.6464 26.6667 44.3072 26.8071 44.0572 27.0572C43.8071 27.3072 43.6667 27.6464 43.6667 28V33.3333H19.6667V25.4667C19.6263 24.7991 19.8383 24.1407 20.2606 23.6221C20.683 23.1034 21.2847 22.7624 21.9467 22.6667H73.3333C74.0001 22.7563 74.6084 23.0947 75.0362 23.614C75.464 24.1333 75.6796 24.795 75.64 25.4667V33.3333H71.6667Z" fill="white"/>
<path d="M37 42.5996H22.36V45.2663H37V42.5996Z" fill="white"/>
<path d="M31.6667 49.2666H22.36V51.9333H31.6667V49.2666Z" fill="white"/>
<path d="M38.3333 49.2666H34.36V51.9333H38.3333V49.2666Z" fill="white"/>
<path d="M69.52 80.0663C67.6757 80.0751 65.8493 79.7054 64.1536 78.98C62.4579 78.2546 60.9292 77.189 59.6619 75.8491C58.3946 74.5091 57.4157 72.9234 56.7859 71.19C56.156 69.4565 55.8886 67.6123 56.0001 65.7714C56.1116 63.9304 56.5997 62.132 57.4342 60.4873C58.2687 58.8425 59.4318 57.3866 60.8516 56.2094C62.2713 55.0322 63.9176 54.1589 65.6884 53.6435C67.4592 53.1281 69.317 52.9816 71.1467 53.213C73.5651 53.5117 75.8574 54.4597 77.7804 55.9564C79.7033 57.453 81.1851 59.4425 82.0684 61.7136C82.9516 63.9846 83.2034 66.4525 82.797 68.8551C82.3906 71.2577 81.3411 73.5054 79.76 75.3596C78.5115 76.7962 76.9824 77.9623 75.2667 78.7863C73.4677 79.6279 71.5061 80.0648 69.52 80.0663ZM69.52 55.773C67.8075 55.7722 66.1199 56.1838 64.6 56.973C62.09 58.2755 60.1902 60.5095 59.3076 63.196C58.4251 65.8826 58.63 68.808 59.8786 71.3453C61.1272 73.8825 63.32 75.8297 65.9871 76.7696C68.6542 77.7094 71.5833 77.567 74.1467 76.373C75.5312 75.7163 76.7623 74.776 77.76 73.613C79.0307 72.126 79.8743 70.3223 80.201 68.3939C80.5277 66.4654 80.3252 64.4845 79.6151 62.662C78.905 60.8395 77.7139 59.2438 76.1686 58.0447C74.6233 56.8457 72.7817 56.0882 70.84 55.853C70.3932 55.7987 69.9435 55.7719 69.4933 55.773H69.52Z" fill="white"/>
<path d="M67.4001 72.2671C67.2246 72.2681 67.0506 72.2345 66.8882 72.1681C66.7257 72.1018 66.578 72.004 66.4534 71.8804L62.1467 67.5738L64.0001 65.6938L67.3601 69.0538L74.9601 61.4404L76.8534 63.3338L68.2934 71.8804C68.055 72.1173 67.7359 72.2554 67.4001 72.2671Z" fill="white"/>
</g>
<defs>
<linearGradient id="paint0_linear_2385_9611" x1="-20.7067" y1="120.707" x2="120.72" y2="-20.72" gradientUnits="userSpaceOnUse">
<stop stop-color="#BD0816"/>
<stop offset="1" stop-color="#FF5252"/>
</linearGradient>
<clipPath id="clip0_2385_9611">
<rect width="100" height="100" fill="white"/>
</clipPath>
</defs>
</svg>
