<svg width="100" height="100" viewBox="0 0 100 100" fill="none" xmlns="http://www.w3.org/2000/svg">
<g clip-path="url(#clip0_2385_9614)">
<path d="M100 0H0V100H100V0Z" fill="url(#paint0_linear_2385_9614)"/>
<path d="M49.6267 66.0933C48.2933 66.0933 46.6933 64.5066 43.92 60.1999C41.2533 64.3999 40.1333 65.5333 39.0133 65.5333C37.3867 65.5333 36.0933 63.3999 33.08 57.9199C32.2049 56.2419 31.2391 54.6128 30.1867 53.0399C29.0933 53.8133 26.72 55.9999 24.92 57.6533C17.8 64.2133 15.16 66.3866 13.48 64.9199C12.5733 64.1466 13.0667 62.9199 13.48 61.9199C15.9603 56.4488 18.7195 51.1085 21.7467 45.9199C28.6267 33.9199 29.48 33.9199 30.3867 33.9199C31.72 33.9199 32.52 35.1866 38.52 45.7599C40 48.4666 42.0267 51.9999 44 55.1599L44.52 54.3199C50.56 44.5466 52.76 41.4799 54.7867 41.5866C55.9067 41.5866 57.96 42.8399 61.5333 45.4666C66.0267 37.4666 67.92 34.5866 69.8 34.5866C73.4667 34.5866 82.6533 51.1066 85.1733 56.8266C87.6933 62.5466 87.2933 64.1999 86.5067 65.1066C85.04 66.7066 82.92 65.4266 69.04 54.5599C66.9733 52.9466 64.6267 51.1066 62.3733 49.4399C56 60.7333 52.68 66.0533 49.6533 66.0933H49.6267ZM45.4933 57.6533C47.32 60.5733 48.9067 62.8533 49.7333 63.3599C51.7733 62.7999 57.12 53.2399 60.16 47.7733C58.4588 46.4161 56.6172 45.245 54.6667 44.2799C53.2 45.1599 49.1333 51.7466 46.6667 55.7333C46.28 56.4266 45.88 57.0933 45.4933 57.6933V57.6533ZM63.6267 46.9866C65.56 48.4666 67.8667 50.2533 70.5733 52.3199C75.3867 56.0799 81.76 61.0666 84.3333 62.4533C83.5333 57.6399 73.0533 39.2533 69.7733 37.1999C68.5867 38.3199 65.9067 42.9866 63.6267 47.0799V46.9866ZM30.2933 49.9999C31.6267 49.9999 32.6667 51.7066 35.2933 56.4799C36.3557 58.5493 37.5632 60.5409 38.9067 62.4399C40.1103 60.8923 41.2233 59.2763 42.24 57.5999C40.5733 54.9333 38.56 51.3866 36.0533 46.9333C33.9467 43.2266 31.4133 38.7599 30.16 36.9866C27.3867 40.5733 19.0933 55.3199 16.3733 61.3333C18.3067 59.8399 21.0933 57.3333 23.04 55.5199C28 51.1866 29.24 50.0933 30.3467 50.0933L30.2933 49.9999ZM54.7867 44.1333L69.4533 37.1199L54.7867 44.1333Z" fill="white"/>
</g>
<defs>
<linearGradient id="paint0_linear_2385_9614" x1="-20.7107" y1="120.715" x2="120.711" y2="-20.7067" gradientUnits="userSpaceOnUse">
<stop stop-color="#BD0816"/>
<stop offset="1" stop-color="#FF5252"/>
</linearGradient>
<clipPath id="clip0_2385_9614">
<rect width="100" height="100" fill="white"/>
</clipPath>
</defs>
</svg>
