<svg width="100" height="100" viewBox="0 0 100 100" fill="none" xmlns="http://www.w3.org/2000/svg">
<g clip-path="url(#clip0_2385_9610)">
<path d="M100 0H0V100H100V0Z" fill="url(#paint0_linear_2385_9610)"/>
<path d="M63.32 64.9607V60.6674C63.32 60.3138 63.1795 59.9746 62.9295 59.7246C62.6794 59.4745 62.3403 59.334 61.9867 59.334H51.32V54.974C53.2979 54.6397 55.078 53.5746 56.3075 51.9897C57.5371 50.4048 58.1264 48.4158 57.9587 46.4169C57.7909 44.418 56.8784 42.5551 55.4018 41.1973C53.9253 39.8395 51.9926 39.0859 49.9867 39.0859C47.9808 39.0859 46.048 39.8395 44.5715 41.1973C43.095 42.5551 42.1824 44.418 42.0147 46.4169C41.847 48.4158 42.4363 50.4048 43.6658 51.9897C44.8954 53.5746 46.6755 54.6397 48.6533 54.974V59.334H37.9867C37.6331 59.334 37.2939 59.4745 37.0439 59.7246C36.7938 59.9746 36.6533 60.3138 36.6533 60.6674V64.9607C35.5718 65.2812 34.6418 65.9805 34.0337 66.9305C33.4256 67.8806 33.18 69.018 33.3419 70.1343C33.5039 71.2507 34.0624 72.2714 34.9154 73.0095C35.7683 73.7477 36.8586 74.154 37.9867 74.154C39.1147 74.154 40.205 73.7477 41.058 73.0095C41.9109 72.2714 42.4695 71.2507 42.6314 70.1343C42.7933 69.018 42.5477 67.8806 41.9396 66.9305C41.3315 65.9805 40.4016 65.2812 39.32 64.9607V62.0007H48.6533V64.9607C47.5755 65.2811 46.649 65.9788 46.0434 66.9263C45.4378 67.8738 45.1936 69.0077 45.3554 70.1204C45.5173 71.2332 46.0744 72.2505 46.9249 72.9862C47.7753 73.7219 48.8622 74.1268 49.9867 74.1268C51.1112 74.1268 52.1981 73.7219 53.0485 72.9862C53.8989 72.2505 54.4561 71.2332 54.6179 70.1204C54.7798 69.0077 54.5356 67.8738 53.93 66.9263C53.3244 65.9788 52.3979 65.2811 51.32 64.9607V62.0007H60.6533V64.9607C59.5718 65.2812 58.6418 65.9805 58.0337 66.9305C57.4256 67.8806 57.18 69.018 57.3419 70.1343C57.5039 71.2507 58.0624 72.2714 58.9154 73.0095C59.7683 73.7477 60.8586 74.154 61.9867 74.154C63.1147 74.154 64.205 73.7477 65.058 73.0095C65.9109 72.2714 66.4695 71.2507 66.6314 70.1343C66.7933 69.018 66.5477 67.8806 65.9396 66.9305C65.3315 65.9805 64.4016 65.2812 63.32 64.9607ZM40 69.4274C40 69.8229 39.8827 70.2096 39.663 70.5385C39.4432 70.8674 39.1308 71.1238 38.7654 71.2751C38.3999 71.4265 37.9978 71.4661 37.6098 71.389C37.2219 71.3118 36.8655 71.1213 36.5858 70.8416C36.3061 70.5619 36.1156 70.2055 36.0384 69.8176C35.9613 69.4296 36.0009 69.0275 36.1523 68.662C36.3036 68.2966 36.56 67.9842 36.8889 67.7644C37.2178 67.5447 37.6045 67.4274 38 67.4274C38.5304 67.4274 39.0392 67.6381 39.4142 68.0132C39.7893 68.3882 40 68.8969 40 69.4274ZM52 69.4274C52 69.8229 51.8827 70.2096 51.663 70.5385C51.4432 70.8674 51.1308 71.1238 50.7654 71.2751C50.3999 71.4265 49.9978 71.4661 49.6098 71.389C49.2219 71.3118 48.8655 71.1213 48.5858 70.8416C48.3061 70.5619 48.1156 70.2055 48.0384 69.8176C47.9613 69.4296 48.0009 69.0275 48.1523 68.662C48.3036 68.2966 48.56 67.9842 48.8889 67.7644C49.2178 67.5447 49.6045 67.4274 50 67.4274C50.5304 67.4274 51.0392 67.6381 51.4142 68.0132C51.7893 68.3882 52 68.8969 52 69.4274ZM50 52.4274C48.9452 52.4274 47.914 52.1146 47.037 51.5285C46.1599 50.9425 45.4763 50.1096 45.0727 49.135C44.669 48.1605 44.5634 47.0881 44.7692 46.0536C44.9749 45.019 45.4829 44.0687 46.2288 43.3228C46.9747 42.5769 47.925 42.069 48.9595 41.8632C49.9941 41.6574 51.0665 41.763 52.041 42.1667C53.0155 42.5704 53.8485 43.2539 54.4345 44.131C55.0206 45.0081 55.3333 46.0392 55.3333 47.094C55.3334 48.5062 54.7733 49.8608 53.776 50.8606C52.7787 51.8604 51.4255 52.4238 50.0133 52.4274H50ZM62 71.4274C61.6045 71.4274 61.2178 71.3101 60.8889 71.0903C60.56 70.8706 60.3036 70.5582 60.1523 70.1927C60.0009 69.8273 59.9613 69.4252 60.0384 69.0372C60.1156 68.6492 60.3061 68.2929 60.5858 68.0132C60.8655 67.7335 61.2219 67.543 61.6098 67.4658C61.9978 67.3886 62.3999 67.4282 62.7654 67.5796C63.1308 67.731 63.4432 67.9873 63.663 68.3162C63.8827 68.6451 64 69.0318 64 69.4274C64 69.9555 63.7911 70.4622 63.4189 70.8369C63.0468 71.2116 62.5415 71.4239 62.0133 71.4274H62Z" fill="white"/>
<path d="M70.0133 25.7607C70.0259 25.8043 70.0259 25.8505 70.0133 25.8941V25.7607Z" fill="white"/>
<path d="M50.0133 16.667C39.0267 16.667 27.3467 19.8537 27.3467 25.7603V74.2403C27.3467 80.147 39.04 83.3336 50.0133 83.3336C60.9867 83.3336 72.68 80.147 72.68 74.2403V25.947C72.693 25.8854 72.693 25.8219 72.68 25.7603C72.68 19.8537 60.9867 16.667 50.0133 16.667ZM70.0133 74.2403C70.0133 76.907 62.4 80.667 50.0133 80.667C37.6267 80.667 30.0133 76.9337 30.0133 74.2403V30.2403C34.08 33.2803 42.2267 34.8803 50.0133 34.8803C57.8 34.8803 65.9067 33.2803 70.0133 30.2537V74.2403ZM70.0133 25.8937C69.7867 28.5603 62.2267 32.1737 50.0133 32.1737C37.6133 32.1737 30.0133 28.4403 30.0133 25.7603C30.0133 23.0803 37.6133 19.3337 50.0133 19.3337C62.4133 19.3337 70.0133 23.067 70.0133 25.7603C70.0175 25.8064 70.0082 25.8527 69.9867 25.8937H70.0133Z" fill="white"/>
</g>
<defs>
<linearGradient id="paint0_linear_2385_9610" x1="-20.7067" y1="120.707" x2="120.707" y2="-20.7067" gradientUnits="userSpaceOnUse">
<stop stop-color="#BD0816"/>
<stop offset="1" stop-color="#FF5252"/>
</linearGradient>
<clipPath id="clip0_2385_9610">
<rect width="100" height="100" fill="white"/>
</clipPath>
</defs>
</svg>
