<svg width="100" height="100" viewBox="0 0 100 100" fill="none" xmlns="http://www.w3.org/2000/svg">
<g clip-path="url(#clip0_2385_9612)">
<path d="M100 0H0V100H100V0Z" fill="url(#paint0_linear_2385_9612)"/>
<path d="M56.36 83.3337H43.64C43.4581 83.3348 43.278 83.2987 43.1106 83.2276C42.9432 83.1565 42.7921 83.052 42.6666 82.9203C42.5413 82.7872 42.4446 82.6298 42.3827 82.4578C42.3208 82.2857 42.2949 82.1028 42.3066 81.9203L42.5466 77.7337C40.1384 77.0874 37.8254 76.1281 35.6666 74.8803L32.8666 78.0137C32.745 78.1485 32.5971 78.2571 32.4321 78.3328C32.267 78.4084 32.0882 78.4496 31.9066 78.4537C31.7267 78.4583 31.5477 78.4264 31.3804 78.3599C31.2131 78.2935 31.0611 78.1938 30.9333 78.067L21.9333 69.067C21.8065 68.9393 21.7069 68.7872 21.6404 68.6199C21.574 68.4526 21.5421 68.2736 21.5467 68.0937C21.5508 67.9121 21.5919 67.7333 21.6676 67.5683C21.7432 67.4032 21.8518 67.2553 21.9867 67.1337L25.12 64.3337C23.8764 62.1745 22.9216 59.8614 22.28 57.4537L18.08 57.6937C17.8975 57.7054 17.7146 57.6796 17.5426 57.6176C17.3705 57.5557 17.2131 57.459 17.08 57.3337C16.9484 57.2082 16.8438 57.0571 16.7727 56.8897C16.7016 56.7224 16.6655 56.5422 16.6667 56.3603V43.6403C16.6655 43.4585 16.7016 43.2783 16.7727 43.111C16.8438 42.9436 16.9484 42.7925 17.08 42.667C17.2131 42.5416 17.3705 42.445 17.5426 42.3831C17.7146 42.3211 17.8975 42.2952 18.08 42.307L22.2933 42.547C22.9363 40.1419 23.8958 37.8328 25.1467 35.6803L21.9867 32.867C21.8518 32.7454 21.7432 32.5975 21.6676 32.4324C21.5919 32.2674 21.5508 32.0886 21.5467 31.907C21.5421 31.7271 21.574 31.5481 21.6404 31.3808C21.7069 31.2135 21.8065 31.0614 21.9333 30.9337L30.9333 21.9337C31.0611 21.8069 31.2131 21.7072 31.3804 21.6408C31.5477 21.5743 31.7267 21.5424 31.9066 21.547C32.0882 21.5511 32.267 21.5923 32.4321 21.6679C32.5971 21.7436 32.745 21.8522 32.8666 21.987L35.68 25.1337C37.8356 23.8924 40.144 22.9377 42.5466 22.2937L42.3066 18.0804C42.2949 17.8979 42.3208 17.715 42.3827 17.5429C42.4446 17.3709 42.5413 17.2134 42.6666 17.0804C42.7921 16.9487 42.9432 16.8441 43.1106 16.7731C43.278 16.702 43.4581 16.6659 43.64 16.667H56.36C56.5418 16.6659 56.722 16.702 56.8894 16.7731C57.0568 16.8441 57.2078 16.9487 57.3333 17.0804C57.4587 17.2134 57.5553 17.3709 57.6173 17.5429C57.6792 17.715 57.7051 17.8979 57.6933 18.0804L57.4533 22.2937C59.8565 22.9424 62.1648 23.9015 64.32 25.147L67.1333 21.987C67.2549 21.8522 67.4028 21.7436 67.5679 21.6679C67.733 21.5923 67.9118 21.5511 68.0933 21.547C68.4556 21.5451 68.8044 21.6837 69.0666 21.9337L78.0666 30.9337C78.1935 31.0614 78.2931 31.2135 78.3595 31.3808C78.426 31.5481 78.4579 31.7271 78.4533 31.907C78.4492 32.0886 78.4081 32.2674 78.3324 32.4324C78.2567 32.5975 78.1482 32.7454 78.0133 32.867L74.8666 35.667C76.1122 37.8268 77.0714 40.1396 77.72 42.547L81.92 42.307C82.1024 42.2952 82.2854 42.3211 82.4574 42.3831C82.6294 42.445 82.7869 42.5416 82.92 42.667C83.0516 42.7925 83.1562 42.9436 83.2273 43.111C83.2983 43.2783 83.3344 43.4585 83.3333 43.6403V56.3603C83.3344 56.5422 83.2983 56.7224 83.2273 56.8897C83.1562 57.0571 83.0516 57.2082 82.92 57.3337C82.6454 57.578 82.2872 57.707 81.92 57.6937L77.72 57.4537C77.0772 59.8631 76.1178 62.1766 74.8666 64.3337L78.0133 67.1337C78.1482 67.2553 78.2567 67.4032 78.3324 67.5683C78.4081 67.7333 78.4492 67.9121 78.4533 68.0937C78.4579 68.2736 78.426 68.4526 78.3595 68.6199C78.2931 68.7872 78.1935 68.9393 78.0666 69.067L69.0666 78.067C68.9389 78.1938 68.7868 78.2935 68.6195 78.3599C68.4523 78.4264 68.2732 78.4583 68.0933 78.4537C67.9118 78.4496 67.733 78.4084 67.5679 78.3328C67.4028 78.2571 67.2549 78.1485 67.1333 78.0137L64.3466 74.8803C62.1849 76.1316 59.867 77.091 57.4533 77.7337L57.6933 81.9203C57.7051 82.1028 57.6792 82.2857 57.6173 82.4578C57.5553 82.6298 57.4587 82.7872 57.3333 82.9203C57.2078 83.052 57.0568 83.1565 56.8894 83.2276C56.722 83.2987 56.5418 83.3348 56.36 83.3337ZM45.0533 80.667H54.9466L54.6666 76.787C54.6591 76.4788 54.7586 76.1775 54.9482 75.9344C55.1379 75.6913 55.4059 75.5214 55.7066 75.4537C58.6131 74.7798 61.3823 73.6117 63.8933 72.0003C64.1602 71.8319 64.4781 71.7636 64.7906 71.8075C65.1031 71.8515 65.3899 72.0048 65.6 72.2403L68.1866 75.147L75.1866 68.147L72.2666 65.4803C72.0524 65.2801 71.9102 65.0148 71.862 64.7256C71.8138 64.4363 71.8623 64.1392 72 63.8803C73.5816 61.3886 74.7184 58.6411 75.36 55.7603C75.4277 55.4596 75.5976 55.1916 75.8407 55.0019C76.0838 54.8123 76.3851 54.7128 76.6933 54.7203L80.6 54.947V45.0537L76.76 45.3337C76.4518 45.3412 76.1505 45.2417 75.9074 45.0521C75.6643 44.8625 75.4944 44.5945 75.4266 44.2937C74.7586 41.3939 73.5997 38.6296 72 36.1203C71.8315 35.8535 71.7632 35.5355 71.8072 35.223C71.8511 34.9105 72.0045 34.6237 72.24 34.4137L75.16 31.8137L68.16 24.8137L65.4933 27.747C65.2897 27.9652 65.0187 28.1088 64.7237 28.1547C64.4288 28.2006 64.127 28.1463 63.8666 28.0003C61.374 26.4298 58.6328 25.2937 55.76 24.6403C55.4592 24.5726 55.1912 24.4027 55.0016 24.1596C54.812 23.9165 54.7124 23.6152 54.72 23.307L54.9466 19.387H45.0533L45.3333 23.2537C45.3408 23.5619 45.2413 23.8632 45.0517 24.1063C44.8621 24.3494 44.5941 24.5193 44.2933 24.587C41.3976 25.2481 38.6373 26.4027 36.1333 28.0003C35.8664 28.1688 35.5485 28.2371 35.236 28.1932C34.9235 28.1492 34.6367 27.9959 34.4266 27.7603L31.76 24.8403L24.76 31.8403L27.6933 34.507C27.9202 34.7039 28.074 34.9717 28.1296 35.267C28.1853 35.5622 28.1396 35.8676 28 36.1337C26.4199 38.6229 25.2789 41.365 24.6266 44.2403C24.5589 44.5411 24.389 44.8091 24.1459 44.9987C23.9028 45.1884 23.6015 45.2879 23.2933 45.2803L19.3867 45.0537V54.947L23.2267 54.667C23.5349 54.6595 23.8362 54.759 24.0793 54.9486C24.3224 55.1382 24.4922 55.4062 24.56 55.707C25.2274 58.6092 26.3911 61.3744 28 63.8803C28.1684 64.1472 28.2367 64.4652 28.1928 64.7777C28.1488 65.0902 27.9955 65.3769 27.76 65.587L24.8533 68.2537L31.8533 75.2537L34.4533 72.347C34.6472 72.104 34.9198 71.9364 35.2241 71.8731C35.5284 71.8098 35.8453 71.8548 36.12 72.0003C38.6139 73.5807 41.3604 74.7216 44.24 75.3737C44.5408 75.4414 44.8088 75.6113 44.9984 75.8544C45.188 76.0975 45.2875 76.3988 45.28 76.707L45.0533 80.667ZM50 70.2403C34.1866 70.2403 34 53.4137 34 53.2403V36.0003C34.0013 35.7371 34.0805 35.4802 34.2276 35.2619C34.3747 35.0436 34.5832 34.8737 34.8267 34.7737L49.4933 28.7204C49.6525 28.6482 49.8252 28.6108 50 28.6108C50.1747 28.6108 50.3475 28.6482 50.5066 28.7204L65.1733 34.7737C65.4168 34.8737 65.6252 35.0436 65.7723 35.2619C65.9195 35.4802 65.9987 35.7371 66 36.0003V53.3337C66 53.4537 65.8133 70.2403 50 70.2403ZM36.6666 36.907V53.2403C36.6666 53.827 36.8666 67.5737 50 67.5737C63.1333 67.5737 63.3333 53.867 63.3333 53.3337V36.947L50 31.4403L36.6666 36.907ZM50 64.7203C41.5333 64.7203 39.44 54.267 39.3333 53.8137C39.3268 53.7338 39.3268 53.6535 39.3333 53.5737V40.4403C39.3331 40.1733 39.413 39.9123 39.5628 39.6913C39.7125 39.4702 39.9252 39.2992 40.1733 39.2003L49.5066 35.427C49.8234 35.3008 50.1765 35.3008 50.4933 35.427L59.8266 39.2003C60.0747 39.2992 60.2874 39.4702 60.4372 39.6913C60.587 39.9123 60.6669 40.1733 60.6666 40.4403V53.6137C60.6732 53.6935 60.6732 53.7738 60.6666 53.8537C60.56 54.307 58.4666 64.7603 50 64.7603V64.7203ZM51.3333 38.667V61.9603C56.1866 60.9337 57.8 54.4003 58 53.467V41.3337L51.3333 38.667ZM42 53.4937C42.2133 54.427 43.84 60.947 48.6666 61.987V38.667L42 41.3337V53.4937Z" fill="white"/>
</g>
<defs>
<linearGradient id="paint0_linear_2385_9612" x1="-20.7067" y1="120.707" x2="120.707" y2="-20.7067" gradientUnits="userSpaceOnUse">
<stop stop-color="#BD0816"/>
<stop offset="1" stop-color="#FF5252"/>
</linearGradient>
<clipPath id="clip0_2385_9612">
<rect width="100" height="100" fill="white"/>
</clipPath>
</defs>
</svg>
