<svg width="100" height="100" viewBox="0 0 100 100" fill="none" xmlns="http://www.w3.org/2000/svg">
<path d="M41.34 91.84C7.34004 91.84 7.04004 55.72 7.04004 55.36V16.18L41.34 2L75.64 16.18V55.46C75.6106 57.0869 75.477 58.7102 75.24 60.32L71.24 59.76C71.4504 58.3357 71.5707 56.8995 71.6 55.46V18.86L41.34 6.34L11.04 18.86V55.36C11.04 56.68 11.46 87.84 41.34 87.84C45.839 87.9211 50.3061 87.0699 54.46 85.34L56 89C51.361 90.9457 46.3701 91.9126 41.34 91.84Z" fill="#D6242D"/>
<path d="M43.34 18.8398H39.34V77.7799H43.34V18.8398Z" fill="#D6242D"/>
<path d="M41.3399 79.8002C33.7399 79.8002 27.3399 75.8002 22.8599 67.9802C20.8182 64.4094 19.3217 60.5534 18.4199 56.5402V25.8002L41.3399 16.7002L64.2999 25.8002V56.5402C63.3999 60.5633 61.8962 64.4271 59.8399 68.0002C55.3399 75.7002 48.9399 79.8002 41.3399 79.8002ZM22.3999 56.0002C22.8199 58.0002 27.1999 75.8602 41.3399 75.8602C55.4799 75.8602 59.8599 58.0002 60.2999 56.0002V28.5002L41.3399 21.0002L22.3999 28.5002V56.0002Z" fill="#D6242D"/>
<path d="M75.72 97.8404C72.3102 97.8404 68.9771 96.8293 66.142 94.9349C63.3069 93.0405 61.0972 90.348 59.7923 87.1978C58.4875 84.0476 58.146 80.5812 58.8112 77.237C59.4765 73.8928 61.1184 70.8209 63.5295 68.4098C65.9405 65.9988 69.0124 64.3568 72.3566 63.6916C75.7009 63.0264 79.1672 63.3678 82.3174 64.6727C85.4676 65.9775 88.1602 68.1872 90.0545 71.0223C91.9489 73.8574 92.96 77.1906 92.96 80.6004C92.9547 85.1711 91.1366 89.5531 87.9047 92.785C84.6727 96.017 80.2907 97.8351 75.72 97.8404ZM75.72 67.3604C73.1014 67.3604 70.5415 68.1369 68.3642 69.5917C66.1869 71.0465 64.4899 73.1143 63.4878 75.5336C62.4857 77.9529 62.2235 80.6151 62.7344 83.1834C63.2453 85.7517 64.5062 88.1108 66.3579 89.9625C68.2095 91.8141 70.5687 93.0751 73.137 93.586C75.7053 94.0968 78.3674 93.8346 80.7867 92.8325C83.206 91.8304 85.2738 90.1334 86.7286 87.9561C88.1835 85.7788 88.96 83.219 88.96 80.6004C88.9547 77.0905 87.5581 73.7259 85.0762 71.2441C82.5944 68.7623 79.2298 67.3657 75.72 67.3604Z" fill="#D6242D"/>
<path d="M77.7201 71.0801H73.7201V90.1201H77.7201V71.0801Z" fill="#D6242D"/>
<path d="M85.2401 78.5996H66.2001V82.5996H85.2401V78.5996Z" fill="#D6242D"/>
</svg>
