<svg width="100" height="100" viewBox="0 0 100 100" fill="none" xmlns="http://www.w3.org/2000/svg">
<g clip-path="url(#clip0_2385_9596)">
<path d="M100 0H0V100H100V0Z" fill="url(#paint0_linear_2385_9596)"/>
<path d="M81.9999 16.667H18C17.6463 16.667 17.3072 16.8075 17.0572 17.0575C16.8071 17.3076 16.6666 17.6467 16.6666 18.0003V76.667C16.6666 77.0206 16.8071 77.3597 17.0572 77.6098C17.3072 77.8598 17.6463 78.0003 18 78.0003H29.56C29.2148 77.1423 28.9687 76.2476 28.8266 75.3337H19.3333V19.3337H80.6666V75.3337H71.5599C71.4062 75.5905 71.2275 75.8317 71.0266 76.0537L69.2266 78.0003H81.9999C82.3536 78.0003 82.6927 77.8598 82.9428 77.6098C83.1928 77.3597 83.3333 77.0206 83.3333 76.667V18.0003C83.3333 17.6467 83.1928 17.3076 82.9428 17.0575C82.6927 16.8075 82.3536 16.667 81.9999 16.667Z" fill="white"/>
<path d="M69.1199 72.494L66.3866 69.1606C66.2597 69.0042 66.099 68.8785 65.9165 68.7931C65.7341 68.7076 65.5347 68.6646 65.3332 68.6673H50.2399C49.3731 67.0587 48.088 65.7141 46.5203 64.7753C44.9526 63.8366 43.1605 63.3386 41.3333 63.334C38.6811 63.334 36.1375 64.3875 34.2622 66.2629C32.3868 68.1383 31.3333 70.6818 31.3333 73.334C31.3333 75.9861 32.3868 78.5297 34.2622 80.4051C36.1375 82.2804 38.6811 83.334 41.3333 83.334C45.6266 83.334 48.9599 81.3606 50.4266 78.0006H51.7599L53.7733 79.334C53.9964 79.4888 54.2616 79.5718 54.5333 79.5718C54.8049 79.5718 55.0701 79.4888 55.2932 79.334L57.1199 78.0006H57.7999L59.7999 79.334C60.0231 79.4888 60.2883 79.5718 60.5599 79.5718C60.8316 79.5718 61.0967 79.4888 61.3199 79.334L63.1466 78.0006H64.9866C65.1694 78.0001 65.3502 77.9619 65.5176 77.8885C65.685 77.8151 65.8356 77.708 65.9599 77.574L69.0532 74.2407C69.2728 74.0063 69.4005 73.7007 69.4127 73.3798C69.425 73.0589 69.321 72.7443 69.1199 72.494ZM64.4132 75.334H62.7332C62.4554 75.3358 62.185 75.4243 61.9599 75.5873L60.5332 76.614L58.9466 75.5606C58.7296 75.4148 58.4746 75.336 58.2132 75.334H56.7066C56.4287 75.3358 56.1583 75.4243 55.9332 75.5873L54.4932 76.614L52.9199 75.5606C52.703 75.4148 52.448 75.336 52.1866 75.334H49.5199C49.2258 75.3205 48.9355 75.4048 48.6943 75.5736C48.4531 75.7424 48.2746 75.9864 48.1866 76.2673C47.3066 79.0273 44.7332 80.6673 41.2799 80.6673C39.335 80.6673 37.4697 79.8947 36.0945 78.5194C34.7192 77.1442 33.9466 75.2789 33.9466 73.334C33.9466 71.3891 34.7192 69.5238 36.0945 68.1485C37.4697 66.7733 39.335 66.0007 41.2799 66.0007C42.7341 66.001 44.1561 66.4283 45.3696 67.2294C46.5832 68.0305 47.5349 69.1703 48.1066 70.5073C48.2066 70.7508 48.3765 70.9592 48.5948 71.1064C48.8131 71.2535 49.07 71.3327 49.3333 71.334H64.6666L66.3199 73.334L64.4132 75.334Z" fill="white"/>
<path d="M38.6666 69.6671C37.9426 69.6724 37.2363 69.8919 36.6368 70.298C36.0374 70.704 35.5716 71.2785 35.2981 71.949C35.0247 72.6194 34.9559 73.3558 35.1003 74.0653C35.2448 74.7748 35.5961 75.4256 36.11 75.9358C36.6238 76.4459 37.2772 76.7925 37.9877 76.9318C38.6982 77.0711 39.4341 76.997 40.1025 76.7187C40.771 76.4404 41.3421 75.9704 41.7438 75.3681C42.1455 74.7657 42.3599 74.0578 42.3599 73.3338C42.36 72.85 42.2642 72.371 42.0783 71.9244C41.8924 71.4778 41.6199 71.0724 41.2766 70.7316C40.9333 70.3907 40.5259 70.1212 40.078 69.9385C39.63 69.7558 39.1504 69.6636 38.6666 69.6671ZM38.6666 74.3338C38.4688 74.3338 38.2755 74.2751 38.111 74.1652C37.9466 74.0554 37.8184 73.8992 37.7427 73.7164C37.667 73.5337 37.6472 73.3327 37.6858 73.1387C37.7244 72.9447 37.8197 72.7665 37.9595 72.6267C38.0994 72.4868 38.2775 72.3916 38.4715 72.353C38.6655 72.3144 38.8666 72.3342 39.0493 72.4099C39.232 72.4856 39.3882 72.6137 39.4981 72.7782C39.608 72.9426 39.6666 73.136 39.6666 73.3338C39.6632 73.5979 39.5567 73.8503 39.3699 74.037C39.1831 74.2238 38.9308 74.3303 38.6666 74.3338Z" fill="white"/>
<path d="M71.3333 44.667H58C57.6463 44.667 57.3072 44.8075 57.0571 45.0575C56.8071 45.3076 56.6666 45.6467 56.6666 46.0003V59.3337C56.6666 59.6873 56.8071 60.0264 57.0571 60.2765C57.3072 60.5265 57.6463 60.667 58 60.667H71.3333C71.6869 60.667 72.0261 60.5265 72.2761 60.2765C72.5262 60.0264 72.6666 59.6873 72.6666 59.3337V46.0003C72.6666 45.6467 72.5262 45.3076 72.2761 45.0575C72.0261 44.8075 71.6869 44.667 71.3333 44.667ZM70 58.0003H59.3333V47.3337H70V58.0003Z" fill="white"/>
<path d="M35.9999 44C34.2858 44 32.6102 44.5083 31.185 45.4606C29.7598 46.4129 28.6489 47.7665 27.993 49.3501C27.337 50.9337 27.1654 52.6763 27.4998 54.3574C27.8342 56.0386 28.6596 57.5829 29.8717 58.7949C31.0837 60.007 32.628 60.8324 34.3091 61.1668C35.9903 61.5012 37.7329 61.3296 39.3165 60.6736C40.9001 60.0177 42.2537 58.9068 43.206 57.4816C44.1583 56.0564 44.6666 54.3808 44.6666 52.6667C44.6631 50.3692 43.7488 48.1669 42.1243 46.5423C40.4997 44.9178 38.2974 44.0035 35.9999 44ZM35.9999 58.6667C34.8132 58.6667 33.6532 58.3148 32.6665 57.6555C31.6798 56.9962 30.9108 56.0591 30.4566 54.9628C30.0025 53.8664 29.8837 52.66 30.1152 51.4961C30.3467 50.3322 30.9182 49.2631 31.7573 48.424C32.5964 47.5849 33.6655 47.0135 34.8294 46.782C35.9933 46.5504 37.1997 46.6693 38.296 47.1234C39.3924 47.5775 40.3295 48.3466 40.9887 49.3332C41.648 50.3199 41.9999 51.48 41.9999 52.6667C41.9964 54.2569 41.3631 55.781 40.2387 56.9054C39.1142 58.0299 37.5901 58.6631 35.9999 58.6667Z" fill="white"/>
<path d="M46.4266 37.2268L37.0932 23.8934C36.9704 23.7174 36.8068 23.5736 36.6164 23.4743C36.4261 23.3751 36.2146 23.3232 35.9999 23.3232C35.7852 23.3232 35.5737 23.3751 35.3834 23.4743C35.193 23.5736 35.0295 23.7174 34.9066 23.8934L25.5732 37.2268C25.4309 37.4267 25.3465 37.662 25.3293 37.9068C25.3121 38.1517 25.3629 38.3965 25.4759 38.6143C25.589 38.8321 25.76 39.0145 25.9701 39.1414C26.1801 39.2683 26.4212 39.3347 26.6666 39.3334H45.3332C45.5787 39.3347 45.8197 39.2683 46.0298 39.1414C46.2398 39.0145 46.4108 38.8321 46.5239 38.6143C46.6369 38.3965 46.6877 38.1517 46.6705 37.9068C46.6533 37.662 46.5689 37.4267 46.4266 37.2268ZM29.2266 36.6668L35.9999 26.9601L42.7732 36.6668H29.2266Z" fill="white"/>
<path d="M74.0532 32.0007L66.0532 23.6807C65.8034 23.4324 65.4655 23.293 65.1132 23.293C64.761 23.293 64.423 23.4324 64.1732 23.6807L55.8399 31.6807C55.7131 31.8015 55.6113 31.9461 55.5404 32.1062C55.4695 32.2664 55.4308 32.4389 55.4266 32.614C55.421 32.9665 55.5552 33.3069 55.7999 33.5607L63.7999 41.894C63.9254 42.0257 64.0764 42.1302 64.2438 42.2013C64.4112 42.2724 64.5914 42.3085 64.7732 42.3074C65.1165 42.306 65.4461 42.1723 65.6932 41.934L74.0132 33.934C74.14 33.8132 74.2418 33.6686 74.3127 33.5085C74.3837 33.3483 74.4223 33.1758 74.4266 33.0007C74.4366 32.8173 74.4086 32.6338 74.3443 32.4617C74.2801 32.2896 74.181 32.1327 74.0532 32.0007ZM64.7999 39.0274L58.6666 32.6274L65.0666 26.5074L71.1866 32.9074L64.7999 39.0274Z" fill="white"/>
</g>
<defs>
<linearGradient id="paint0_linear_2385_9596" x1="-20.7067" y1="120.72" x2="120.72" y2="-20.7067" gradientUnits="userSpaceOnUse">
<stop stop-color="#BD0816"/>
<stop offset="1" stop-color="#FF5252"/>
</linearGradient>
<clipPath id="clip0_2385_9596">
<rect width="100" height="100" fill="white"/>
</clipPath>
</defs>
</svg>
