<svg width="100" height="100" viewBox="0 0 100 100" fill="none" xmlns="http://www.w3.org/2000/svg">
<path d="M15.8799 63.2396C15.8799 62.6796 15.8799 62.1396 15.8799 61.5796C15.9085 51.33 19.91 41.4908 27.0431 34.1306C34.1762 26.7704 43.8853 22.4626 54.1289 22.1129C64.3725 21.7633 74.3527 25.399 81.9711 32.2557C89.5895 39.1123 94.2526 48.6558 94.9799 58.8796L90.9799 59.1396C90.4511 49.8522 86.3081 41.1407 79.4374 34.8694C72.5667 28.5981 63.5142 25.2653 54.2172 25.5842C44.9202 25.9031 36.1174 29.8483 29.6925 36.5756C23.2676 43.3029 19.7312 52.2778 19.8399 61.5796C19.8399 62.0796 19.8399 62.5796 19.8399 63.0796L15.8799 63.2396Z" fill="#D6242D"/>
<path d="M17.46 64.4403C17.46 63.7603 17.46 62.2203 17.46 61.8203C17.4869 56.7493 18.6828 51.7528 20.9548 47.2192C23.2268 42.6856 26.5137 38.737 30.56 35.6803L30.76 35.5403C36.4019 32.2395 42.8234 30.5064 49.36 30.5203C56.9662 30.4258 64.3987 32.7965 70.5454 37.2777C76.6922 41.7589 81.223 48.1098 83.46 55.3803L79.62 56.4603C77.6289 50.0052 73.5967 44.3707 68.1292 40.4035C62.6616 36.4363 56.0542 34.3507 49.3 34.4603C43.5206 34.4448 37.8407 35.9631 32.84 38.8603C29.2977 41.5516 26.4231 45.0228 24.4391 49.0046C22.4552 52.9863 21.4152 57.3717 21.4 61.8203C21.4 62.2203 21.4 63.7003 21.4 64.3403L17.46 64.4403Z" fill="#D6242D"/>
<path d="M20.1001 75.6604L19.5601 71.6604C23.1048 71.3257 26.5257 70.1831 29.5601 68.3204C36.1801 63.5204 50.1801 61.8004 57.7401 62.3204C62.6494 63.0554 67.4136 64.5535 71.8601 66.7604C73.8278 67.7439 75.8835 68.5408 78.0001 69.1404C81.3433 69.2424 84.6891 69.055 88.0001 68.5804H88.3401C89.5201 68.4604 90.6801 68.3404 91.8001 68.2604H92.9201V61.0404H92.5001L88.9001 61.3804L86.1801 61.6204L85.8801 57.6204L88.5601 57.4004L92.1001 57.0604L93.0201 56.9604C93.5158 56.882 94.0227 56.9125 94.5056 57.0496C94.9884 57.1868 95.4356 57.4274 95.8162 57.7546C96.1968 58.0819 96.5015 58.4881 96.7094 58.945C96.9173 59.4018 97.0233 59.8985 97.0201 60.4004V68.5804C97.0067 69.4561 96.6637 70.2945 96.0594 70.9284C95.4552 71.5623 94.6341 71.9451 93.7601 72.0004H93.4801L92.2401 72.1004L88.8401 72.4204H88.4801C84.813 72.9593 81.1022 73.1402 77.4001 72.9604C74.9221 72.3787 72.5195 71.513 70.2401 70.3804C66.1863 68.4112 61.8569 67.0692 57.4001 66.4004C50.6001 65.8804 37.6401 67.4204 31.8801 71.6004C28.3201 73.8463 24.2878 75.2361 20.1001 75.6604Z" fill="#D6242D"/>
<path d="M74.7399 61.5601C73.5999 61.2201 72.3399 60.7401 70.8799 60.1801C66.0245 57.9792 60.7508 56.8536 55.4199 56.8801C45.6999 57.4601 40.9799 58.0201 37.4199 59.0401L36.2999 55.2001C40.2999 54.0801 45.1399 53.4801 55.1999 52.9001C61.0961 52.821 66.9386 54.0291 72.3199 56.4401C73.6799 56.9801 74.8799 57.4201 75.8399 57.7001L74.7399 61.5601Z" fill="#D6242D"/>
<path d="M14.7999 75.9999C10.5199 75.9999 6.2999 75.2199 4.1199 73.0399C3.7058 72.6602 3.39224 72.1838 3.20727 71.6533C3.02229 71.1228 2.97166 70.5547 3.0599 69.9999C3.5399 67.4599 6.7999 65.9999 11.3399 63.9999C13.3399 63.1799 15.1999 62.3199 16.9199 61.3799L18.9199 64.8799C17.0399 65.9199 14.9199 66.8799 13.0199 67.6799C11.0654 68.4551 9.17893 69.3916 7.3799 70.4799C9.1799 71.7399 13.6999 72.4799 19.6399 71.6599L20.1799 75.6599C18.3959 75.8901 16.5987 76.0037 14.7999 75.9999Z" fill="#D6242D"/>
<path d="M84.6999 65.1199H76.6999C75.7964 65.1146 74.9316 64.752 74.2945 64.1112C73.6575 63.4704 73.2999 62.6035 73.2999 61.6999V57.3199C73.2999 56.4182 73.6581 55.5534 74.2958 54.9158C74.9334 54.2781 75.7982 53.9199 76.6999 53.9199H84.6999C85.6017 53.9199 86.4665 54.2781 87.1041 54.9158C87.7417 55.5534 88.0999 56.4182 88.0999 57.3199V61.6999C88.0999 62.6035 87.7424 63.4704 87.1053 64.1112C86.4683 64.752 85.6035 65.1146 84.6999 65.1199ZM77.2999 61.1199H84.0999V57.9999H77.2999V61.1199Z" fill="#D6242D"/>
<path d="M32.98 70.5602C26.9714 70.5199 21.1621 68.3998 16.54 64.5602L19.2 61.6602C23.1588 64.8648 28.1069 66.5967 33.2 66.5602L32.98 70.5602Z" fill="#D6242D"/>
</svg>
