<svg width="100" height="100" viewBox="0 0 100 100" fill="none" xmlns="http://www.w3.org/2000/svg">
<g clip-path="url(#clip0_2385_9592)">
<path d="M100 0H0V100H100V0Z" fill="url(#paint0_linear_2385_9592)"/>
<path d="M70 24.8136V51.4002C69.1133 51.3111 68.22 51.3111 67.3333 51.4002V25.7869L43.3333 18.0802L19.3333 27.0536V54.3869C19.4937 59.1799 20.5332 63.9027 22.4 68.3202C26.4 77.4002 33.4 82.0002 43.3333 82.0002C47.3872 82.0908 51.4004 81.1746 55.0133 79.3336L56.7733 81.3336V81.4669C52.6484 83.6857 48.0155 84.7888 43.3333 84.6669C29.52 84.6669 23 76.3602 20 69.3336C17.9699 64.6017 16.8395 59.5329 16.6666 54.3869V26.1336C16.6657 25.8611 16.7483 25.595 16.9033 25.3709C17.0582 25.1468 17.2781 24.9756 17.5333 24.8802L42.8666 15.4136C43.1515 15.314 43.4618 15.314 43.7466 15.4136L69.08 23.5602C69.3451 23.6467 69.5765 23.8141 69.7416 24.0389C69.9066 24.2638 69.997 24.5347 70 24.8136Z" fill="white"/>
<path d="M62.4666 29.4401L43.7999 22.4267C43.498 22.32 43.1686 22.32 42.8666 22.4267L24.1999 29.4401C23.9447 29.5354 23.7249 29.7067 23.5699 29.9307C23.415 30.1548 23.3324 30.421 23.3333 30.6934V57.0134C23.3267 57.0977 23.3267 57.1824 23.3333 57.2668C24.1136 60.7981 25.4216 64.1918 27.2133 67.3334C31.1333 74.0801 36.6933 77.6534 43.3066 77.6534C46.5625 77.7035 49.7583 76.7745 52.4799 74.9868C52.1452 74.1197 51.8777 73.2282 51.6799 72.3201L51.3599 72.5467C49.3927 73.9335 47.0916 74.7711 44.6933 74.9734V25.6401L60.6933 31.6401V53.3334C61.5476 52.8862 62.44 52.5158 63.3599 52.2267V30.6667C63.3534 30.3957 63.2644 30.1331 63.1048 29.9139C62.9452 29.6948 62.7226 29.5295 62.4666 29.4401ZM25.9999 56.8801V31.6134L41.9999 25.6134V74.9467C29.9999 73.8534 26.3199 58.3867 25.9999 56.8801Z" fill="white"/>
<path d="M75.3333 67.0667V69.7334H70V75.0667H67.3333V69.7334H62V67.0667H67.3333V61.7334H70V67.0667H75.3333Z" fill="white"/>
<path d="M68.6667 83.3333C65.7659 83.3333 62.9302 82.4731 60.5183 80.8615C58.1064 79.25 56.2265 76.9593 55.1164 74.2794C54.0064 71.5994 53.7159 68.6504 54.2818 65.8053C54.8477 62.9603 56.2446 60.3469 58.2958 58.2958C60.3469 56.2446 62.9603 54.8477 65.8053 54.2818C68.6504 53.7159 71.5994 54.0064 74.2794 55.1164C76.9593 56.2265 79.25 58.1064 80.8616 60.5183C82.4732 62.9302 83.3333 65.7659 83.3333 68.6667C83.3333 72.5565 81.7881 76.287 79.0376 79.0376C76.287 81.7881 72.5565 83.3333 68.6667 83.3333ZM68.6667 56.6667C66.2933 56.6667 63.9732 57.3705 61.9998 58.689C60.0264 60.0076 58.4884 61.8818 57.5801 64.0745C56.6719 66.2672 56.4342 68.68 56.8972 71.0078C57.3603 73.3355 58.5032 75.4737 60.1814 77.1519C61.8596 78.8302 63.9978 79.9731 66.3256 80.4361C68.6534 80.8991 71.0662 80.6615 73.2589 79.7532C75.4516 78.845 77.3257 77.3069 78.6443 75.3335C79.9629 73.3601 80.6667 71.04 80.6667 68.6667C80.6667 65.4841 79.4024 62.4318 77.152 60.1814C74.9015 57.931 71.8493 56.6667 68.6667 56.6667Z" fill="white"/>
</g>
<defs>
<linearGradient id="paint0_linear_2385_9592" x1="-20.7067" y1="120.711" x2="120.715" y2="-20.7107" gradientUnits="userSpaceOnUse">
<stop stop-color="#BD0816"/>
<stop offset="1" stop-color="#FF5252"/>
</linearGradient>
<clipPath id="clip0_2385_9592">
<rect width="100" height="100" fill="white"/>
</clipPath>
</defs>
</svg>
