<svg width="100" height="100" viewBox="0 0 100 100" fill="none" xmlns="http://www.w3.org/2000/svg">
<path d="M95 93.24H85.62V89.24H93V22H7V89.24H66.88V93.24H5C4.46957 93.24 3.96086 93.0293 3.58579 92.6542C3.21071 92.2791 3 91.7704 3 91.24V20C3 19.4696 3.21071 18.9609 3.58579 18.5858C3.96086 18.2107 4.46957 18 5 18H95C95.5304 18 96.0391 18.2107 96.4142 18.5858C96.7893 18.9609 97 19.4696 97 20V91.24C97 91.7704 96.7893 92.2791 96.4142 92.6542C96.0391 93.0293 95.5304 93.24 95 93.24Z" fill="#D6242D"/>
<path d="M94.9 21.9998H5C4.46957 21.9998 3.96086 21.7891 3.58579 21.414C3.21071 21.0389 3 20.5302 3 19.9998V8.75977C3 8.22933 3.21071 7.72062 3.58579 7.34555C3.96086 6.97048 4.46957 6.75977 5 6.75977H95C95.5304 6.75977 96.0391 6.97048 96.4142 7.34555C96.7893 7.72062 97 8.22933 97 8.75977V19.9998C97.0003 20.271 96.9455 20.5395 96.8388 20.789C96.7321 21.0384 96.5758 21.2635 96.3793 21.4505C96.1829 21.6376 95.9504 21.7828 95.6961 21.8772C95.4418 21.9716 95.1709 22.0133 94.9 21.9998ZM7 17.9998H93V10.7598H7V17.9998Z" fill="#D6242D"/>
<path d="M50.0001 65.1204C46.266 65.1204 42.6158 64.0131 39.511 61.9385C36.4062 59.8639 33.9863 56.9153 32.5573 53.4654C31.1283 50.0156 30.7544 46.2194 31.4829 42.5571C32.2114 38.8947 34.0095 35.5306 36.6499 32.8902C39.2904 30.2498 42.6545 28.4516 46.3168 27.7231C49.9792 26.9946 53.7753 27.3685 57.2252 28.7975C60.6751 30.2265 63.6237 32.6464 65.6983 35.7512C67.7728 38.856 68.8801 42.5062 68.8801 46.2404C68.8748 51.246 66.884 56.0451 63.3445 59.5847C59.8049 63.1242 55.0058 65.1151 50.0001 65.1204ZM50.0001 31.3804C47.0563 31.3804 44.1786 32.2536 41.7312 33.8895C39.2837 35.5254 37.3765 37.8505 36.2509 40.5707C35.1253 43.2908 34.8317 46.2837 35.4075 49.1707C35.9833 52.0576 37.4025 54.709 39.4855 56.7892C41.5685 58.8694 44.2217 60.285 47.1095 60.8569C49.9972 61.4288 52.9897 61.1312 55.7083 60.0019C58.4269 58.8726 60.7495 56.9623 62.3821 54.5127C64.0147 52.0631 64.8841 49.1842 64.8801 46.2404C64.8748 42.2974 63.3048 38.5178 60.5148 35.7315C57.7248 32.9453 53.9431 31.3804 50.0001 31.3804Z" fill="#D6242D"/>
<path d="M59.3801 85.7599C58.9128 85.7608 58.4599 85.5981 58.1001 85.2999L50.0001 78.6599L42.0001 85.2999C41.7078 85.5433 41.3522 85.6984 40.9749 85.7468C40.5977 85.7953 40.2144 85.7352 39.8701 85.5735C39.5258 85.4119 39.2347 85.1554 39.031 84.8341C38.8273 84.5129 38.7195 84.1403 38.7201 83.7599V66.8799H42.7201V79.5199L48.8401 74.5399C49.1964 74.2508 49.6413 74.0931 50.1001 74.0931C50.5589 74.0931 51.0038 74.2508 51.3601 74.5399L57.4801 79.5199V66.8799H61.4801V83.7599C61.479 84.1369 61.3714 84.5059 61.1697 84.8243C60.968 85.1428 60.6804 85.3978 60.3401 85.5599C60.0388 85.6966 59.7109 85.7649 59.3801 85.7599Z" fill="#D6242D"/>
<path d="M46.8801 55.7602C46.6058 55.7593 46.3347 55.7021 46.0835 55.592C45.8324 55.4819 45.6065 55.3213 45.4201 55.1202L39.1801 48.5602L42.0001 45.8002L46.8001 50.8402L58.0001 39.2402L60.8201 42.0002L48.3201 55.1202C48.1359 55.3189 47.9133 55.478 47.6657 55.588C47.4182 55.698 47.1509 55.7566 46.8801 55.7602Z" fill="#D6242D"/>
</svg>
