<svg width="100" height="100" viewBox="0 0 100 100" fill="none" xmlns="http://www.w3.org/2000/svg">
<path d="M22.3199 74.9396C18.8157 74.9246 15.3813 73.9579 12.3839 72.1425C9.38644 70.3272 6.93854 67.7316 5.30176 64.6331C3.66498 61.5345 2.90085 58.0495 3.091 54.5503C3.28115 51.0512 4.41845 47.6695 6.38137 44.7666C8.34428 41.8636 11.059 39.5486 14.2356 38.0688C17.4121 36.589 20.931 36 24.4162 36.3649C27.9015 36.7298 31.2221 38.0347 34.0232 40.1403C36.8244 42.2459 39.0008 45.0731 40.3199 48.3196H43.4399L47.4399 44.3196C47.8147 43.9471 48.3216 43.738 48.8499 43.738C49.3783 43.738 49.8852 43.9471 50.2599 44.3196L54.2599 48.3196H55.6199L59.6199 44.3196C59.8059 44.1321 60.0271 43.9834 60.2708 43.8818C60.5145 43.7803 60.7759 43.728 61.0399 43.728C61.304 43.728 61.5654 43.7803 61.8091 43.8818C62.0528 43.9834 62.274 44.1321 62.4599 44.3196L66.4599 48.3196H70.16C70.6461 48.3203 71.1153 48.498 71.4799 48.8196L73.2199 50.3396L70.5799 53.3596L69.4199 52.3196H65.2999C65.0367 52.3211 64.7758 52.2707 64.5321 52.1711C64.2885 52.0716 64.0668 51.925 63.8799 51.7396L60.7599 48.6396L57.6599 51.7396C57.4731 51.925 57.2514 52.0716 57.0078 52.1711C56.7641 52.2707 56.5032 52.3211 56.2399 52.3196H53.2199C52.6953 52.3174 52.1925 52.1091 51.8199 51.7396L48.6999 48.6396L45.5999 51.7396C45.4131 51.925 45.1914 52.0716 44.9478 52.1711C44.7041 52.2707 44.4432 52.3211 44.1799 52.3196H38.8399C38.4013 52.3411 37.9678 52.2176 37.6063 51.9682C37.2449 51.7187 36.9756 51.3573 36.8399 50.9396C35.7261 47.4544 33.4032 44.4821 30.2904 42.5591C27.1776 40.6361 23.48 39.8891 19.8649 40.4527C16.2497 41.0164 12.955 42.8537 10.5755 45.633C8.19587 48.4124 6.88808 51.9507 6.88808 55.6096C6.88808 59.2685 8.19587 62.8068 10.5755 65.5862C12.955 68.3655 16.2497 70.2028 19.8649 70.7665C23.48 71.3301 27.1776 70.5831 30.2904 68.6601C33.4032 66.7371 35.7261 63.7648 36.8399 60.2796C36.972 59.8582 37.2398 59.4923 37.6016 59.239C37.9633 58.9858 38.3988 58.8594 38.8399 58.8796H56.9599V62.8796H40.2399C38.8075 66.4555 36.3325 69.5178 33.1367 71.6686C29.9409 73.8193 26.172 74.959 22.3199 74.9396ZM17.0599 62.9396C15.6201 62.9396 14.2126 62.5126 13.0154 61.7127C11.8182 60.9128 10.8851 59.7758 10.3341 58.4455C9.7831 57.1153 9.63893 55.6515 9.91983 54.2393C10.2007 52.8272 10.8941 51.53 11.9122 50.5119C12.9303 49.4937 14.2275 48.8004 15.6397 48.5195C17.0519 48.2386 18.5156 48.3828 19.8459 48.9338C21.1761 49.4848 22.3131 50.4179 23.113 51.615C23.913 52.8122 24.3399 54.2198 24.3399 55.6596C24.3241 57.58 23.5501 59.4163 22.1866 60.7686C20.823 62.1209 18.9804 62.8797 17.0599 62.8796V62.9396ZM17.0599 52.3996C16.4104 52.3996 15.7754 52.5925 15.2356 52.9538C14.6958 53.3151 14.2754 53.8286 14.0278 54.4291C13.7801 55.0296 13.7163 55.6901 13.8445 56.3269C13.9727 56.9637 14.2871 57.5481 14.7478 58.006C15.2085 58.4639 15.7948 58.7747 16.4324 58.899C17.07 59.0233 17.7301 58.9555 18.3291 58.7041C18.928 58.4528 19.4389 58.0293 19.7969 57.4873C20.1549 56.9453 20.3439 56.3092 20.3399 55.6596C20.3452 55.2255 20.2643 54.7947 20.1018 54.3921C19.9394 53.9895 19.6986 53.6232 19.3935 53.3144C19.0884 53.0056 18.725 52.7604 18.3245 52.593C17.9239 52.4257 17.4941 52.3396 17.0599 52.3396V52.3996Z" fill="#D6242D"/>
<path d="M77.66 42.1403C73.8182 42.1605 70.0587 41.0277 66.8676 38.8884C63.6766 36.7492 61.2006 33.7018 59.76 30.1403H56.64L52.64 34.1403C52.2653 34.5128 51.7584 34.7219 51.23 34.7219C50.7016 34.7219 50.1947 34.5128 49.82 34.1403L45.82 30.1403H44.46L40.46 34.1403C40.0853 34.5128 39.5784 34.7219 39.05 34.7219C38.5216 34.7219 38.0147 34.5128 37.64 34.1403L33.64 30.1403H30.18C29.6964 30.1451 29.2275 29.9746 28.86 29.6603L22.86 24.3803C22.4657 24.0333 22.2237 23.5452 22.1862 23.0213C22.1488 22.4974 22.319 21.9798 22.66 21.5803L27.18 16.3003C27.3678 16.0807 27.6009 15.9045 27.8633 15.7837C28.1257 15.6628 28.4111 15.6003 28.7 15.6003H59.76C61.0787 12.3588 63.253 9.53642 66.0507 7.43441C68.8484 5.33239 72.1645 4.02972 75.6449 3.66549C79.1253 3.30126 82.6393 3.88916 85.8116 5.3664C88.9839 6.84364 91.6954 9.15476 93.6566 12.053C95.6178 14.9511 96.755 18.3276 96.9468 21.8217C97.1385 25.3159 96.3777 28.7965 94.7455 31.8919C93.1133 34.9873 90.671 37.5813 87.6794 39.3969C84.6879 41.2125 81.2593 42.1814 77.76 42.2003L77.66 42.1403ZM55.82 26.0003H61.16C61.6012 25.9801 62.0366 26.1065 62.3984 26.3597C62.7602 26.613 63.028 26.9788 63.16 27.4003C64.2739 30.8855 66.5968 33.8577 69.7095 35.7807C72.8223 37.7037 76.5199 38.4508 80.1351 37.8871C83.7503 37.3235 87.0449 35.4862 89.4245 32.7068C91.8041 29.9275 93.1119 26.3891 93.1119 22.7303C93.1119 19.0714 91.8041 15.5331 89.4245 12.7537C87.0449 9.97435 83.7503 8.13707 80.1351 7.5734C76.5199 7.00973 72.8223 7.75681 69.7095 9.67981C66.5968 11.6028 64.2739 14.5751 63.16 18.0603C63.028 18.4817 62.7602 18.8476 62.3984 19.1008C62.0366 19.3541 61.6012 19.4805 61.16 19.4603H29.6L26.96 22.5403L30.96 26.0003H34.72C34.9846 26.0014 35.2464 26.055 35.4901 26.158C35.7339 26.261 35.9548 26.4113 36.14 26.6003L39.26 29.7003L42.36 26.6003C42.5452 26.4113 42.7661 26.261 43.0099 26.158C43.2536 26.055 43.5154 26.0014 43.78 26.0003H46.78C47.0446 26.0014 47.3064 26.055 47.5501 26.158C47.7939 26.261 48.0148 26.4113 48.2 26.6003L51.3 29.7003L54.42 26.6003C54.7893 26.2234 55.2925 26.0078 55.82 26.0003ZM82.94 30.0003C81.4993 30.0003 80.091 29.5728 78.8934 28.772C77.6958 27.9711 76.7627 26.833 76.2123 25.5016C75.6618 24.1702 75.5189 22.7054 75.8014 21.2926C76.0839 19.8799 76.7792 18.5828 77.7994 17.5655C78.8195 16.5481 80.1185 15.8564 81.532 15.5777C82.9455 15.2991 84.4099 15.4461 85.7398 16.0002C87.0697 16.5543 88.2053 17.4905 89.0028 18.6903C89.8003 19.8901 90.224 21.2996 90.22 22.7403C90.2147 24.6676 89.4454 26.5141 88.0807 27.8751C86.716 29.236 84.8673 30.0003 82.94 30.0003ZM82.94 19.4603C82.2913 19.4603 81.6571 19.6526 81.1177 20.0131C80.5783 20.3735 80.1579 20.8857 79.9097 21.4851C79.6614 22.0844 79.5965 22.7439 79.723 23.3802C79.8496 24.0164 80.162 24.6009 80.6207 25.0596C81.0794 25.5183 81.6638 25.8307 82.3001 25.9573C82.9364 26.0838 83.5959 26.0189 84.1952 25.7706C84.7945 25.5223 85.3068 25.1019 85.6672 24.5625C86.0276 24.0232 86.22 23.389 86.22 22.7403C86.1991 21.8843 85.8443 21.0704 85.2315 20.4725C84.6186 19.8746 83.7962 19.54 82.94 19.5403V19.4603Z" fill="#D6242D"/>
<path d="M51.88 85.28H5C4.46957 85.28 3.96086 85.0693 3.58579 84.6942C3.21071 84.3191 3 83.8104 3 83.28V74H7V81.38H51.88V85.28Z" fill="#D6242D"/>
<path d="M76.24 96.52C72.1332 96.52 68.1187 95.302 64.7043 93.0199C61.2899 90.7379 58.629 87.4945 57.0583 83.6999C55.4876 79.9053 55.0777 75.7302 55.8804 71.7026C56.683 67.675 58.6622 63.9759 61.5675 61.0734C64.4729 58.1709 68.1738 56.1952 72.2022 55.3965C76.2305 54.5977 80.4053 55.0117 84.1984 56.586C87.9914 58.1604 91.2323 60.8243 93.511 64.2409C95.7897 67.6575 97.0039 71.6732 97 75.78C96.9947 81.2824 94.8051 86.5577 90.9124 90.4466C87.0198 94.3356 81.7424 96.52 76.24 96.52ZM76.24 59.02C72.9252 59.02 69.6848 60.003 66.9286 61.8446C64.1725 63.6862 62.0243 66.3037 60.7558 69.3662C59.4872 72.4287 59.1553 75.7986 59.802 79.0497C60.4487 82.3008 62.0449 85.2872 64.3889 87.6311C66.7328 89.9751 69.7191 91.5713 72.9703 92.218C76.2214 92.8647 79.5913 92.5328 82.6538 91.2642C85.7162 89.9957 88.3338 87.8475 90.1754 85.0914C92.017 82.3352 93 79.0948 93 75.78C92.9947 71.3366 91.2272 67.0767 88.0852 63.9347C84.9433 60.7928 80.6834 59.0253 76.24 59.02Z" fill="#D6242D"/>
<path d="M78.26 79.6396H65V75.6396H74.26V62.6396H78.26V79.6396Z" fill="#D6242D"/>
</svg>
