<svg width="100" height="100" viewBox="0 0 100 100" fill="none" xmlns="http://www.w3.org/2000/svg">
<g clip-path="url(#clip0_2385_9591)">
<path d="M100 0H0V100H100V0Z" fill="url(#paint0_linear_2385_9591)"/>
<path d="M39.3333 60.28H29.8C22.8133 60.28 17.0666 55.1866 16.6933 48.72C16.6933 48.44 16.6933 48.16 16.6933 47.8666C16.5978 45.2228 17.3996 42.6244 18.9683 40.4941C20.537 38.3638 22.7803 36.8268 25.3333 36.1333C25.3333 35.8266 25.3333 35.52 25.3333 35.2C25.4333 31.907 26.4697 28.7107 28.3211 25.9856C30.1725 23.2605 32.7621 21.1195 35.7866 19.8133C39.0672 18.4179 42.6879 18.0265 46.1908 18.6887C49.6938 19.3508 52.9218 21.0368 55.4666 23.5333C57.1355 25.1359 58.4919 27.0349 59.4666 29.1333C60.8855 28.0437 62.6244 27.4531 64.4133 27.4533C68.1466 27.4533 72.0667 30.0533 72.8133 35.8266C79.6133 37.4533 83.3333 41.7333 83.3333 48C83.3333 54.6666 79.6933 59.08 73.3333 60.12L72.9066 57.4533C76.44 56.88 80.6666 54.7866 80.6666 47.9733C80.6666 42.7333 77.5333 39.4666 71.3333 38.2666C71.0427 38.211 70.7789 38.0603 70.5833 37.8382C70.3878 37.6161 70.2717 37.3353 70.2533 37.04C69.9466 31.9466 66.92 30.1466 64.4266 30.1466C63.5851 30.1497 62.7555 30.346 62.0018 30.7205C61.2482 31.095 60.5906 31.6377 60.08 32.3066C59.9352 32.4951 59.7427 32.6415 59.5223 32.7306C59.3019 32.8197 59.0618 32.8482 58.8266 32.8133C58.5908 32.7782 58.3687 32.6806 58.1834 32.5305C57.9982 32.3804 57.8566 32.1834 57.7733 31.96C56.9057 29.5116 55.4816 27.298 53.6133 25.4933C51.4341 23.3597 48.6722 21.9186 45.6756 21.3515C42.6789 20.7845 39.5815 21.1168 36.7733 22.3066C34.2576 23.4286 32.1042 25.2293 30.5545 27.5066C29.0049 29.784 28.1203 32.448 28 35.2C28.0019 35.7793 28.0375 36.3581 28.1066 36.9333C28.1132 36.9864 28.1132 37.0402 28.1066 37.0933C28.1103 37.4149 27.9976 37.7269 27.7893 37.9719C27.5811 38.2169 27.2913 38.3784 26.9733 38.4266C24.0533 39.16 19.3066 41.3733 19.3066 47.84C19.3066 48.08 19.3066 48.32 19.3066 48.5466C19.6 53.6 24.1866 57.5866 29.7466 57.6H39.3333V60.28Z" fill="white"/>
<path d="M82 81.613H78.08C77.7321 81.6151 77.3972 81.4811 77.1467 81.2396L74.7867 78.9463H68.6667C68.3131 78.9463 67.9739 78.8058 67.7239 78.5558C67.4738 78.3057 67.3333 77.9666 67.3333 77.613V74.1596L65.4533 72.2796H62C61.6464 72.2796 61.3072 72.1392 61.0572 71.8891C60.8071 71.6391 60.6667 71.2999 60.6667 70.9463V67.333L60.16 66.5196C58.6836 67.0469 57.1278 67.3175 55.56 67.3196C52.6268 67.3233 49.7716 66.3749 47.4236 64.6169C45.0756 62.8588 43.3617 60.3862 42.5394 57.5706C41.7171 54.755 41.8309 51.7485 42.8637 49.0032C43.8965 46.2578 45.7925 43.9218 48.2667 42.3463C48.6133 42.1196 49 41.9063 49.3733 41.7063C49.7467 41.5063 50.2133 41.3063 50.6267 41.133C51.2946 40.8836 51.9812 40.6875 52.68 40.5463C53.0354 40.4628 53.3963 40.4049 53.76 40.373H54.0933H54.52H54.72C54.9977 40.3259 55.2784 40.2992 55.56 40.293C59.1381 40.2999 62.569 41.7179 65.1079 44.2393C67.6467 46.7606 69.0884 50.1817 69.12 53.7596C69.1631 55.3626 68.8866 56.958 68.3067 58.453L82.9733 73.1196C83.217 73.3751 83.3551 73.7133 83.36 74.0663V80.3196C83.3495 80.6709 83.2008 81.0039 82.9461 81.2461C82.6914 81.4883 82.3514 81.6202 82 81.613ZM78.6267 78.9463H80.6667V74.5863L65.7733 59.693C65.5887 59.5081 65.4625 59.273 65.4104 59.017C65.3582 58.761 65.3824 58.4953 65.48 58.253C66.1599 56.8648 66.4895 55.3312 66.44 53.7863C66.4365 50.8983 65.2877 48.1296 63.2455 46.0875C61.2034 44.0453 58.4347 42.8965 55.5467 42.893C55.387 42.8792 55.2264 42.8792 55.0667 42.893H54.76H54.6667H54.4H54.1067C53.833 42.9134 53.5612 42.9535 53.2933 43.013C52.7271 43.1275 52.17 43.2834 51.6267 43.4796C51.36 43.5996 50.9867 43.7596 50.6267 43.9463C50.2667 44.133 50.0267 44.2796 49.7333 44.4663C47.388 45.9419 45.694 48.2569 44.9971 50.9388C44.3002 53.6207 44.6528 56.4674 45.983 58.8982C47.3132 61.329 49.5208 63.1607 52.1553 64.0195C54.7898 64.8783 57.6528 64.6995 60.16 63.5196C60.4539 63.3816 60.7881 63.3555 61.0999 63.4463C61.4117 63.5371 61.6796 63.7386 61.8533 64.013L63.1867 66.1063C63.3182 66.3185 63.3875 66.5633 63.3867 66.813V69.4796H66.0533C66.2288 69.4786 66.4028 69.5123 66.5652 69.5786C66.7277 69.645 66.8754 69.7427 67 69.8663L69.6667 72.533C69.7903 72.6576 69.888 72.8053 69.9544 72.9678C70.0207 73.1302 70.0544 73.3042 70.0533 73.4796V76.1463H75.3867C75.7346 76.1442 76.0695 76.2782 76.32 76.5196L78.6267 78.9463ZM53.2933 56.2796C52.6444 56.2824 52.0015 56.1539 51.4035 55.9018C50.8055 55.6498 50.2646 55.2794 49.8133 54.813C49.3563 54.3551 48.994 53.8117 48.747 53.2138C48.5 52.6159 48.3732 51.9752 48.3738 51.3283C48.3745 50.6813 48.5025 50.0409 48.7506 49.4434C48.9988 48.846 49.3621 48.3033 49.82 47.8463C50.7447 46.9233 51.9982 46.4055 53.3047 46.4068C53.9516 46.4074 54.5921 46.5354 55.1895 46.7836C55.787 47.0317 56.3297 47.3951 56.7867 47.853C57.2531 48.3042 57.6235 48.8451 57.8756 49.4431C58.1276 50.0412 58.2561 50.684 58.2533 51.333C58.243 52.6371 57.7221 53.8853 56.8025 54.81C55.8828 55.7347 54.6374 56.2622 53.3333 56.2796H53.2933ZM53.2933 49.2663C52.9987 49.2641 52.7066 49.3208 52.4341 49.433C52.1617 49.5451 51.9143 49.7106 51.7067 49.9196C51.2813 50.3436 51.0415 50.919 51.04 51.5196C51.0393 51.8172 51.0978 52.112 51.2123 52.3867C51.3268 52.6614 51.4948 52.9106 51.7067 53.1196C51.9143 53.3342 52.1629 53.5047 52.4378 53.6212C52.7127 53.7377 53.0081 53.7977 53.3067 53.7977C53.6052 53.7977 53.9007 53.7377 54.1756 53.6212C54.4504 53.5047 54.6991 53.3342 54.9067 53.1196C55.3321 52.6957 55.5719 52.1202 55.5733 51.5196C55.5731 51.2242 55.514 50.9317 55.3995 50.6593C55.285 50.3869 55.1175 50.14 54.9067 49.933C54.4549 49.525 53.8616 49.3097 53.2533 49.333L53.2933 49.2663Z" fill="white"/>
</g>
<defs>
<linearGradient id="paint0_linear_2385_9591" x1="-20.7067" y1="120.707" x2="120.707" y2="-20.7067" gradientUnits="userSpaceOnUse">
<stop stop-color="#BD0816"/>
<stop offset="1" stop-color="#FF5252"/>
</linearGradient>
<clipPath id="clip0_2385_9591">
<rect width="100" height="100" fill="white"/>
</clipPath>
</defs>
</svg>
