<svg width="100" height="100" viewBox="0 0 100 100" fill="none" xmlns="http://www.w3.org/2000/svg">
<path d="M22.3399 81.5002C18.8344 81.4867 15.3984 80.5207 12.3995 78.7054C9.40056 76.8901 6.9514 74.2938 5.31392 71.1942C3.67645 68.0946 2.91223 64.6082 3.103 61.1078C3.29377 57.6075 4.43235 54.2248 6.39699 51.3215C8.36162 48.4182 11.0784 46.1035 14.2569 44.6249C17.4353 43.1463 20.9559 42.5594 24.4422 42.9269C27.9284 43.2945 31.2492 44.6027 34.0494 46.7116C36.8496 48.8206 39.0239 51.651 40.3399 54.9002H43.4599L47.4599 50.9002C47.8346 50.5277 48.3415 50.3186 48.8699 50.3186C49.3983 50.3186 49.9052 50.5277 50.2799 50.9002L54.2799 54.9002H55.6399L59.6399 50.9002C60.0146 50.5277 60.5215 50.3186 61.0499 50.3186C61.5783 50.3186 62.0852 50.5277 62.4599 50.9002L66.4599 54.9002H70.1599C70.6435 54.8953 71.1124 55.0659 71.4799 55.3802L77.4799 60.6602C77.8742 61.0071 78.1162 61.4953 78.1537 62.0192C78.1911 62.5431 78.0209 63.0607 77.6799 63.4602L73.1599 68.7402C72.9721 68.9597 72.739 69.136 72.4766 69.2568C72.2142 69.3776 71.9288 69.4402 71.6399 69.4402H40.2399C38.8087 73.0129 36.3368 76.073 33.1449 78.2235C29.9531 80.374 26.1886 81.5156 22.3399 81.5002ZM22.3399 46.8402C19.5067 46.8374 16.728 47.6193 14.312 49.0993C11.896 50.5793 9.93703 52.6994 8.65237 55.2247C7.36771 57.75 6.80751 60.5817 7.0339 63.4059C7.26029 66.2301 8.26441 68.9364 9.93494 71.2248C11.6055 73.5132 13.8771 75.2942 16.498 76.3704C19.1189 77.4466 21.9867 77.776 24.7833 77.3219C27.58 76.8678 30.1962 75.6481 32.342 73.7979C34.4878 71.9478 36.0792 69.5395 36.9399 66.8402C37.0719 66.4188 37.3397 66.0529 37.7015 65.7996C38.0633 65.5464 38.4988 65.42 38.9399 65.4402H70.3999L73.0399 62.3602L69.0399 58.9002H65.2999C65.0353 58.8991 64.7735 58.8455 64.5298 58.7425C64.286 58.6395 64.0651 58.4892 63.8799 58.3002L60.7599 55.2002L57.6599 58.3002C57.4747 58.4892 57.2538 58.6395 57.01 58.7425C56.7663 58.8455 56.5045 58.8991 56.2399 58.9002H53.2399C52.9753 58.8991 52.7135 58.8455 52.4698 58.7425C52.226 58.6395 52.0051 58.4892 51.8199 58.3002L48.7199 55.2002L45.5999 58.3002C45.4147 58.4892 45.1938 58.6395 44.95 58.7425C44.7063 58.8455 44.4445 58.8991 44.1799 58.9002H38.8399C38.3988 58.9204 37.9633 58.794 37.6015 58.5407C37.2397 58.2875 36.9719 57.9216 36.8399 57.5002C35.8648 54.4159 33.9349 51.7212 31.3286 49.8051C28.7224 47.8891 25.5747 46.8508 22.3399 46.8402ZM17.0599 69.4402C15.6201 69.4402 14.2125 69.0132 13.0154 68.2133C11.8182 67.4133 10.8851 66.2764 10.3341 64.9461C9.78306 63.6159 9.63889 62.1521 9.91979 60.7399C10.2007 59.3277 10.894 58.0306 11.9122 57.0124C12.9303 55.9943 14.2275 55.301 15.6397 55.0201C17.0518 54.7392 18.5156 54.8833 19.8458 55.4343C21.1761 55.9853 22.3131 56.9184 23.113 58.1156C23.9129 59.3128 24.3399 60.7203 24.3399 62.1602C24.3399 64.091 23.5729 65.9427 22.2076 67.3079C20.8424 68.6732 18.9907 69.4402 17.0599 69.4402ZM17.0599 58.9002C16.4103 58.9002 15.7754 59.0931 15.2356 59.4544C14.6958 59.8157 14.2754 60.3291 14.0277 60.9296C13.7801 61.5301 13.7163 62.1907 13.8445 62.8275C13.9727 63.4643 14.287 64.0487 14.7478 64.5066C15.2085 64.9645 15.7948 65.2753 16.4324 65.3996C17.0699 65.5239 17.7301 65.456 18.329 65.2047C18.928 64.9534 19.4389 64.5299 19.7969 63.9879C20.1549 63.4458 20.3439 62.8097 20.3399 62.1602C20.3346 61.2937 19.9867 60.4646 19.3722 59.8538C18.7576 59.243 17.9264 58.9002 17.0599 58.9002Z" fill="#D6242D"/>
<path d="M77.66 46.8396C73.8188 46.8571 70.0605 45.7232 66.87 43.5843C63.6794 41.4453 61.2029 38.3995 59.76 34.8396H56.64L52.64 38.8396C52.2653 39.2121 51.7584 39.4211 51.23 39.4211C50.7016 39.4211 50.1947 39.2121 49.82 38.8396L45.82 34.8396H44.46L40.46 38.8396C40.0853 39.2121 39.5784 39.4211 39.05 39.4211C38.5216 39.4211 38.0147 39.2121 37.64 38.8396L33.64 34.8396H30.18C29.6939 34.8389 29.2246 34.6611 28.86 34.3396L22.86 29.0596C22.4657 28.7126 22.2237 28.2244 22.1862 27.7005C22.1488 27.1766 22.319 26.659 22.66 26.2596L27.18 20.9796C27.3678 20.76 27.6009 20.5838 27.8633 20.4629C28.1257 20.3421 28.4111 20.2795 28.7 20.2796H59.76C61.0791 17.033 63.2555 14.2059 66.0567 12.1003C68.8579 9.99469 72.1785 8.68973 75.6637 8.32486C79.149 7.95998 82.6679 8.54891 85.8444 10.0287C89.0209 11.5085 91.7357 13.8236 93.6986 16.7265C95.6615 19.6294 96.7988 23.0112 96.9889 26.5103C97.1791 30.0094 96.4149 33.4945 94.7782 36.593C93.1414 39.6916 90.6935 42.2872 87.6961 44.1025C84.6986 45.9178 81.2643 46.8846 77.76 46.8996L77.66 46.8396ZM55.82 30.8396H61.16C61.6012 30.8194 62.0366 30.9457 62.3984 31.199C62.7602 31.4523 63.028 31.8181 63.16 32.2396C64.276 35.7231 66.6001 38.6932 69.713 40.6142C72.826 42.5351 76.523 43.2804 80.1371 42.7156C83.7512 42.1509 87.0445 40.3132 89.423 37.5341C91.8015 34.7551 93.1087 31.2175 93.1087 27.5596C93.1087 23.9016 91.8015 20.3641 89.423 17.585C87.0445 14.8059 83.7512 12.9683 80.1371 12.4035C76.523 11.8387 72.826 12.584 69.713 14.505C66.6001 16.4259 64.276 19.396 63.16 22.8796C63.028 23.301 62.7602 23.6669 62.3984 23.9201C62.0366 24.1734 61.6012 24.2998 61.16 24.2796H29.6L26.96 27.3596L30.96 30.8396H34.72C34.9832 30.838 35.2441 30.8885 35.4878 30.988C35.7315 31.0875 35.9531 31.2342 36.14 31.4196L39.26 34.5196L42.36 31.4196C42.5469 31.2342 42.7685 31.0875 43.0122 30.988C43.2559 30.8885 43.5168 30.838 43.78 30.8396H46.78C47.0432 30.838 47.3041 30.8885 47.5478 30.988C47.7915 31.0875 48.0131 31.2342 48.2 31.4196L51.3 34.5196L54.42 31.4196C54.5995 31.2257 54.8157 31.0693 55.056 30.9595C55.2963 30.8496 55.5559 30.7885 55.82 30.7796V30.8396ZM82.94 34.8396C81.5002 34.8396 80.0926 34.4126 78.8954 33.6127C77.6983 32.8127 76.7652 31.6757 76.2142 30.3455C75.6631 29.0152 75.519 27.5515 75.7999 26.1393C76.0808 24.7271 76.7741 23.4299 77.7923 22.4118C78.8104 21.3937 80.1076 20.7003 81.5197 20.4194C82.9319 20.1385 84.3957 20.2827 85.7259 20.8337C87.0562 21.3847 88.1932 22.3178 88.9931 23.515C89.793 24.7122 90.22 26.1197 90.22 27.5596C90.2042 29.4799 89.4302 31.3162 88.0666 32.6686C86.7031 34.0209 84.8604 34.7796 82.94 34.7796V34.8396ZM82.94 24.2796C82.2913 24.2796 81.6571 24.4719 81.1177 24.8323C80.5783 25.1927 80.1579 25.705 79.9097 26.3044C79.6614 26.9037 79.5965 27.5632 79.723 28.1995C79.8496 28.8357 80.162 29.4202 80.6207 29.8789C81.0794 30.3376 81.6638 30.65 82.3001 30.7765C82.9364 30.9031 83.5959 30.8381 84.1952 30.5899C84.7945 30.3416 85.3068 29.9212 85.6672 29.3818C86.0276 28.8424 86.22 28.2083 86.22 27.5596C86.2253 27.1245 86.1445 26.6927 85.9823 26.289C85.82 25.8853 85.5796 25.5177 85.2747 25.2073C84.9699 24.8969 84.6067 24.6498 84.206 24.4803C83.8053 24.3108 83.3751 24.2222 82.94 24.2196V24.2796Z" fill="#D6242D"/>
<path d="M95 91.84H5C4.46957 91.84 3.96086 91.6293 3.58579 91.2542C3.21071 90.8791 3 90.3704 3 89.84V80.46H7V87.84H93V80.46H97V89.84C97 90.1026 96.9483 90.3627 96.8478 90.6053C96.7472 90.848 96.5999 91.0685 96.4142 91.2542C96.2285 91.4399 96.008 91.5872 95.7654 91.6877C95.5227 91.7882 95.2626 91.84 95 91.84Z" fill="#D6242D"/>
</svg>
