<svg width="100" height="100" viewBox="0 0 100 100" fill="none" xmlns="http://www.w3.org/2000/svg">
<path d="M30.3799 69.8597C26.5964 69.8641 22.8832 68.8373 19.6394 66.8898C16.3956 64.9423 13.7438 62.1477 11.969 58.8063C10.1942 55.4649 9.36341 51.703 9.56601 47.9249C9.7686 44.1468 10.9969 40.4953 13.1189 37.3629C15.2409 34.2304 18.1763 31.7354 21.6098 30.146C25.0432 28.5566 28.8449 27.9328 32.6063 28.3417C36.3676 28.7506 39.9465 30.1767 42.9582 32.4668C45.9699 34.757 48.3006 37.8245 49.6999 41.3397H53.2599L57.5799 37.0197C57.7659 36.8323 57.9871 36.6835 58.2308 36.5819C58.4745 36.4804 58.7359 36.4281 58.9999 36.4281C59.264 36.4281 59.5254 36.4804 59.7691 36.5819C60.0128 36.6835 60.234 36.8323 60.4199 37.0197L64.7399 41.3397H66.3399L70.6599 37.0197C70.8459 36.8323 71.0671 36.6835 71.3108 36.5819C71.5545 36.4804 71.8159 36.4281 72.0799 36.4281C72.344 36.4281 72.6054 36.4804 72.8491 36.5819C73.0928 36.6835 73.314 36.8323 73.4999 37.0197L77.8199 41.3397H81.8199C82.3061 41.3404 82.7753 41.5182 83.1399 41.8397L89.6799 47.5597C90.0743 47.9067 90.3163 48.3948 90.3537 48.9187C90.3911 49.4426 90.2209 49.9602 89.8799 50.3597L85.0399 55.9997C84.8544 56.2167 84.6245 56.3915 84.3657 56.5122C84.107 56.6329 83.8254 56.6969 83.5399 56.6997H49.6999C48.1805 60.5845 45.5229 63.9196 42.0754 66.2679C38.6278 68.6162 34.5513 69.8682 30.3799 69.8597ZM30.3799 32.2397C27.277 32.2393 24.2345 33.0971 21.5889 34.7184C18.9433 36.3397 16.7977 38.6612 15.3894 41.4261C13.9812 44.191 13.3653 47.2916 13.6097 50.3848C13.8541 53.478 14.9495 56.4434 16.7745 58.9528C18.5995 61.4622 21.0831 63.4179 23.9506 64.6035C26.818 65.7891 29.9575 66.1584 33.0218 65.6706C36.0861 65.1827 38.9557 63.8568 41.3133 61.8394C43.6708 59.822 45.4243 57.1918 46.3799 54.2397C46.5072 53.835 46.7599 53.4813 47.1014 53.2296C47.443 52.9779 47.8557 52.8414 48.2799 52.8397H82.6199L85.6399 49.3197L81.1399 45.3197H76.9799C76.4553 45.3175 75.9525 45.1092 75.5799 44.7397L71.9999 41.2597L68.4999 44.7597C68.1274 45.1292 67.6246 45.3375 67.0999 45.3397H63.9999C63.4704 45.3324 62.9632 45.1252 62.5799 44.7597L58.9999 41.2597L55.4999 44.7597C55.313 44.9451 55.0914 45.0917 54.8477 45.1913C54.6041 45.2908 54.3431 45.3412 54.0799 45.3397H48.2799C47.8557 45.3381 47.443 45.2015 47.1014 44.9499C46.7599 44.6982 46.5072 44.3444 46.3799 43.9397C45.3093 40.5382 43.1791 37.5681 40.3006 35.4632C37.4221 33.3582 33.946 32.2288 30.3799 32.2397ZM24.6399 56.7797C23.1139 56.7758 21.6233 56.3196 20.3564 55.469C19.0895 54.6183 18.1031 53.4112 17.5219 52.0002C16.9406 50.5892 16.7906 49.0376 17.0907 47.5414C17.3908 46.0452 18.1277 44.6715 19.2081 43.5938C20.2886 42.5162 21.6642 41.7829 23.1612 41.4866C24.6582 41.1904 26.2094 41.3444 27.6188 41.9293C29.0283 42.5142 30.2328 43.5037 31.0802 44.7728C31.9277 46.0419 32.3799 47.5337 32.3799 49.0597C32.3799 50.0752 32.1796 51.0807 31.7904 52.0187C31.4012 52.9566 30.8307 53.8085 30.1117 54.5257C29.3927 55.2428 28.5393 55.811 27.6004 56.1978C26.6614 56.5846 25.6554 56.7824 24.6399 56.7797ZM24.6399 45.3397C23.905 45.3437 23.1878 45.5652 22.5787 45.9764C21.9696 46.3875 21.4959 46.9699 21.2174 47.6499C20.9389 48.33 20.8681 49.0774 21.0139 49.7976C21.1596 50.5179 21.5155 51.1789 22.0366 51.6972C22.5576 52.2154 23.2205 52.5677 23.9415 52.7096C24.6626 52.8516 25.4095 52.7767 26.0881 52.4946C26.7667 52.2125 27.3465 51.7357 27.7544 51.1244C28.1622 50.513 28.3799 49.7946 28.3799 49.0597C28.3799 48.5695 28.2831 48.0841 28.0949 47.6315C27.9067 47.1789 27.6309 46.7679 27.2833 46.4222C26.9357 46.0765 26.5233 45.8029 26.0697 45.6171C25.616 45.4314 25.1301 45.3371 24.6399 45.3397Z" fill="#D6242D"/>
<path d="M95 79.1199H5C4.46957 79.1199 3.96086 78.9092 3.58579 78.5341C3.21071 78.159 3 77.6503 3 77.1199V20.8799C3 20.3494 3.21071 19.8407 3.58579 19.4657C3.96086 19.0906 4.46957 18.8799 5 18.8799H95C95.5304 18.8799 96.0391 19.0906 96.4142 19.4657C96.7893 19.8407 97 20.3494 97 20.8799V77.1199C97 77.6503 96.7893 78.159 96.4142 78.5341C96.0391 78.9092 95.5304 79.1199 95 79.1199ZM7 75.1199H93V22.8799H7V75.1199Z" fill="#D6242D"/>
</svg>
