<svg width="100" height="100" viewBox="0 0 100 100" fill="none" xmlns="http://www.w3.org/2000/svg">
<path d="M50 97C40.7043 97 31.6173 94.2435 23.8882 89.0791C16.1591 83.9147 10.135 76.5743 6.57768 67.9861C3.02036 59.398 2.08961 49.9479 3.90311 40.8308C5.71662 31.7137 10.1929 23.3391 16.766 16.766C23.3391 10.1929 31.7137 5.71662 40.8308 3.90311C49.9479 2.08961 59.398 3.02036 67.9861 6.57768C76.5743 10.135 83.9147 16.1591 89.0791 23.8882C94.2435 31.6173 97 40.7043 97 50C96.9894 62.4619 92.0343 74.4104 83.2223 83.2223C74.4104 92.0343 62.4619 96.9894 50 97ZM50 7.00002C41.4954 7.00002 33.1818 9.52193 26.1105 14.2468C19.0392 18.9717 13.5278 25.6874 10.2732 33.5446C7.01863 41.4019 6.16709 50.0477 7.82625 58.3889C9.48542 66.7301 13.5808 74.392 19.5944 80.4056C25.6081 86.4193 33.27 90.5146 41.6111 92.1738C49.9523 93.833 58.5982 92.9814 66.4554 89.7268C74.3126 86.4723 81.0283 80.9609 85.7532 73.8895C90.4781 66.8182 93 58.5046 93 50C92.9894 38.599 88.4557 27.6679 80.3939 19.6061C72.3322 11.5444 61.4011 7.01061 50 7.00002Z" fill="#D6242D"/>
<path d="M44.38 81.9999C43.8496 81.9999 43.3409 81.7892 42.9658 81.4141C42.5907 81.039 42.38 80.5303 42.38 79.9999V65.5799L21.14 31.5799L24.52 29.4599L46 63.9999C46.19 64.3214 46.2933 64.6866 46.3 65.0599V77.8199C48.371 77.2794 50.3815 76.5289 52.3 75.5799L53.6 74.9999V64.9999C53.6468 64.6381 53.7844 64.2941 54 63.9999L75.5 29.3799L78.88 31.4999L57.62 65.4999V76.1599C57.6236 76.5559 57.5096 76.944 57.2925 77.2751C57.0753 77.6063 56.7647 77.8655 56.4 78.0199C55.58 78.3399 54.78 78.7199 53.96 79.0799C51.0114 80.7251 47.745 81.7207 44.38 81.9999Z" fill="#D6242D"/>
<path d="M50 36.5603C39.12 36.5603 20.84 35.7603 20.84 30.4403C20.84 25.1203 39.12 24.3203 50 24.3203C60.88 24.3203 79.18 25.1203 79.18 30.4403C79.18 35.7603 60.9 36.5603 50 36.5603ZM26.48 30.4403C34.2071 32.084 42.1034 32.7958 50 32.5603C57.9031 32.7966 65.8062 32.0848 73.54 30.4403C65.8062 28.7958 57.9031 28.084 50 28.3203C42.1034 28.0849 34.2071 28.7966 26.48 30.4403Z" fill="#D6242D"/>
</svg>
