<svg width="100" height="100" viewBox="0 0 100 100" fill="none" xmlns="http://www.w3.org/2000/svg">
<path d="M81.9999 97H17.9999C16.5129 96.9947 15.0885 96.4003 14.0389 95.3469C12.9893 94.2935 12.3999 92.8671 12.3999 91.38V8.62C12.3999 7.13294 12.9893 5.7065 14.0389 4.65311C15.0885 3.59973 16.5129 3.00529 17.9999 3H81.9999C83.4869 3.00529 84.9113 3.59973 85.9609 4.65311C87.0105 5.7065 87.5999 7.13294 87.5999 8.62V91.38C87.5999 92.8671 87.0105 94.2935 85.9609 95.3469C84.9113 96.4003 83.4869 96.9947 81.9999 97ZM17.9999 7C17.7881 6.99998 17.5784 7.04202 17.383 7.12368C17.1875 7.20533 17.0102 7.32498 16.8614 7.47568C16.7126 7.62638 16.5951 7.80513 16.5159 8.00156C16.4367 8.198 16.3973 8.40821 16.3999 8.62V91.38C16.3973 91.5918 16.4367 91.802 16.5159 91.9984C16.5951 92.1949 16.7126 92.3736 16.8614 92.5243C17.0102 92.675 17.1875 92.7947 17.383 92.8763C17.5784 92.958 17.7881 93 17.9999 93H81.9999C82.2117 93 82.4214 92.958 82.6169 92.8763C82.8123 92.7947 82.9896 92.675 83.1384 92.5243C83.2872 92.3736 83.4047 92.1949 83.4839 91.9984C83.5631 91.802 83.6025 91.5918 83.5999 91.38V8.62C83.6025 8.40821 83.5631 8.198 83.4839 8.00156C83.4047 7.80513 83.2872 7.62638 83.1384 7.47568C82.9896 7.32498 82.8123 7.20533 82.6169 7.12368C82.4214 7.04202 82.2117 6.99998 81.9999 7H17.9999Z" fill="#D6242D"/>
<path d="M25.1653 65.4675L22.3369 68.2959L39.2085 85.1675L42.0369 82.339L25.1653 65.4675Z" fill="#D6242D"/>
<path d="M39.2226 65.4673L22.3511 82.3389L25.1795 85.1673L42.0511 68.2957L39.2226 65.4673Z" fill="#D6242D"/>
<path d="M29.38 31.3799C29.1153 31.3788 28.8536 31.3252 28.6098 31.2222C28.3661 31.1192 28.1452 30.9689 27.96 30.7799L20.46 23.2799L23.28 20.4599L29.28 26.4599L42.86 12.8799L45.68 15.6999L30.68 30.6999C30.3484 31.083 29.8838 31.3261 29.38 31.3799Z" fill="#D6242D"/>
<path d="M29.38 55.7598C29.1153 55.7587 28.8536 55.7051 28.6098 55.6021C28.3661 55.4991 28.1452 55.3487 27.96 55.1598L20.46 47.6598L23.28 44.8398L29.28 50.8398L42.86 37.2598L45.68 40.0798L30.68 55.0798C30.3484 55.4629 29.8838 55.706 29.38 55.7598Z" fill="#D6242D"/>
</svg>
