<svg width="100" height="100" viewBox="0 0 100 100" fill="none" xmlns="http://www.w3.org/2000/svg">
<g clip-path="url(#clip0_2385_9620)">
<path d="M100 0H0V100H100V0Z" fill="url(#paint0_linear_2385_9620)"/>
<path d="M20.3467 68.5204C19.2939 68.2629 18.3585 67.6586 17.6909 66.8048C17.0234 65.951 16.6626 64.8974 16.6667 63.8137V29.5204C16.6667 28.2332 17.178 26.9987 18.0882 26.0885C18.9983 25.1784 20.2328 24.667 21.52 24.667H73.1467C74.2304 24.6629 75.284 25.0237 76.1378 25.6913C76.9916 26.3588 77.5959 27.2943 77.8533 28.347L75.2667 28.987C75.15 28.5136 74.8775 28.0931 74.493 27.7932C74.1085 27.4933 73.6343 27.3315 73.1467 27.3337H21.52C20.9411 27.3372 20.387 27.5687 19.9777 27.978C19.5683 28.3873 19.3368 28.9415 19.3333 29.5204V63.8137C19.3311 64.3013 19.493 64.7755 19.7929 65.16C20.0927 65.5445 20.5132 65.817 20.9867 65.9337L20.3467 68.5204Z" fill="white"/>
<path d="M42 54H28.6666V56.6667H42V54Z" fill="white"/>
<path d="M38 60.667H28.6666V63.3337H38V60.667Z" fill="white"/>
<path d="M43.3334 60.667H39.3334V63.3337H43.3334V60.667Z" fill="white"/>
<path d="M78.52 31.334H28.1467C26.8701 31.334 25.6458 31.8411 24.7432 32.7438C23.8405 33.6465 23.3334 34.8707 23.3334 36.1473V70.5207C23.3334 71.7972 23.8405 73.0215 24.7432 73.9242C25.6458 74.8269 26.8701 75.334 28.1467 75.334H78.52C79.7966 75.334 81.0209 74.8269 81.9236 73.9242C82.8262 73.0215 83.3334 71.7972 83.3334 70.5207V36.1473C83.3334 34.8707 82.8262 33.6465 81.9236 32.7438C81.0209 31.8411 79.7966 31.334 78.52 31.334ZM80.6667 70.5207C80.6667 71.09 80.4405 71.636 80.038 72.0386C79.6354 72.4412 79.0894 72.6673 78.52 72.6673H28.1467C27.5774 72.6673 27.0314 72.4412 26.6288 72.0386C26.2262 71.636 26 71.09 26 70.5207V47.334H48.6667V67.334C48.6667 67.6876 48.8072 68.0267 49.0572 68.2768C49.3073 68.5268 49.6464 68.6673 50 68.6673H75.3334C75.687 68.6673 76.0261 68.5268 76.2762 68.2768C76.5262 68.0267 76.6667 67.6876 76.6667 67.334V47.334H80.6667V70.5207ZM64.84 53.1873C64.148 53.5619 63.3736 53.7581 62.5867 53.7581C61.7998 53.7581 61.0254 53.5619 60.3334 53.1873C59.4269 52.6875 58.7123 51.9004 58.3021 50.95C57.8919 49.9996 57.8093 48.9398 58.0674 47.9373C58.3254 46.9348 58.9095 46.0466 59.7276 45.4124C60.5458 44.7782 61.5515 44.4341 62.5867 44.4341C63.6219 44.4341 64.6276 44.7782 65.4458 45.4124C66.2639 46.0466 66.848 46.9348 67.106 47.9373C67.3641 48.9398 67.2815 49.9996 66.8713 50.95C66.4611 51.9004 65.7465 52.6875 64.84 53.1873ZM59.3734 55.7473C60.4026 56.2185 61.5214 56.4624 62.6534 56.4624C63.7854 56.4624 64.9041 56.2185 65.9334 55.7473C68.0746 56.3767 69.9536 57.6841 71.288 59.473C72.6225 61.2619 73.3402 63.4356 73.3334 65.6673V66.0007H52V65.6673C51.9965 63.4418 52.7126 61.2747 54.0413 59.4894C55.3701 57.704 57.2405 56.3961 59.3734 55.7607V55.7473ZM68.2667 53.774C69.1528 52.7015 69.7156 51.3991 69.8893 50.0188C70.063 48.6385 69.8405 47.2372 69.2478 45.9786C68.6551 44.72 67.7165 43.656 66.5418 42.9107C65.3671 42.1654 64.0046 41.7697 62.6134 41.7697C61.2222 41.7697 59.8597 42.1654 58.6849 42.9107C57.5102 43.656 56.5717 44.72 55.9789 45.9786C55.3862 47.2372 55.1637 48.6385 55.3374 50.0188C55.5112 51.3991 56.0739 52.7015 56.96 53.774C54.6346 54.8078 52.674 56.5175 51.3334 58.6806V40.6673H74V58.734C72.6309 56.5451 70.6325 54.8209 68.2667 53.7873V53.774ZM80.6667 44.654H76.6667V39.3207C76.6667 38.967 76.5262 38.6279 76.2762 38.3778C76.0261 38.1278 75.687 37.9873 75.3334 37.9873H50C49.6464 37.9873 49.3073 38.1278 49.0572 38.3778C48.8072 38.6279 48.6667 38.967 48.6667 39.3207V44.654H26V36.1473C26 35.578 26.2262 35.032 26.6288 34.6294C27.0314 34.2268 27.5774 34.0007 28.1467 34.0007H78.52C79.0894 34.0007 79.6354 34.2268 80.038 34.6294C80.4405 35.032 80.6667 35.578 80.6667 36.1473V44.654Z" fill="white"/>
</g>
<defs>
<linearGradient id="paint0_linear_2385_9620" x1="-20.7147" y1="120.711" x2="120.707" y2="-20.7107" gradientUnits="userSpaceOnUse">
<stop stop-color="#BD0816"/>
<stop offset="1" stop-color="#FF5252"/>
</linearGradient>
<clipPath id="clip0_2385_9620">
<rect width="100" height="100" fill="white"/>
</clipPath>
</defs>
</svg>
