<svg width="100" height="100" viewBox="0 0 100 100" fill="none" xmlns="http://www.w3.org/2000/svg">
<g clip-path="url(#clip0_2385_9589)">
<path d="M100 0H0V100H100V0Z" fill="url(#paint0_linear_2385_9589)"/>
<path d="M67.0012 65.0665L65.1156 66.9521L81.0585 82.895L82.9441 81.0094L67.0012 65.0665Z" fill="white"/>
<path d="M18.9485 17.0118L17.0629 18.8975L34.7311 36.5657L36.6167 34.6801L18.9485 17.0118Z" fill="white"/>
<path d="M30.3947 67.7219L21.0609 77.0557L22.9465 78.9413L32.2803 69.6075L30.3947 67.7219Z" fill="white"/>
<path d="M77.0615 21.0588L67.7277 30.3926L69.6133 32.2782L78.9471 22.9444L77.0615 21.0588Z" fill="white"/>
<path d="M83.3333 48.6667V51.3333H80.6667C80.4238 57.3402 78.4054 63.1401 74.8667 68L72.7067 66.4267C75.9079 62.0237 77.7357 56.7724 77.96 51.3333H75.2933V48.6667H77.96C77.7279 43.2414 75.9005 38.0051 72.7067 33.6133L74.8667 32C78.3959 36.8629 80.4049 42.6626 80.64 48.6667H83.3333Z" fill="white"/>
<path d="M68 25.1334L66.4267 27.2934C62.0237 24.0921 56.7724 22.2643 51.3333 22.04V24.7067H48.6667V22.04C43.2414 22.2721 38.0051 24.0995 33.6133 27.2934L32 25.1334C36.8629 21.6041 42.6626 19.5951 48.6667 19.36V16.6934H51.3333V19.36C57.3374 19.5951 63.1371 21.6041 68 25.1334Z" fill="white"/>
<path d="M68 74.867C63.1371 78.3963 57.3374 80.4053 51.3333 80.6404V83.307H48.6667V80.6404C42.6626 80.4053 36.8629 78.3963 32 74.867L33.5733 72.707C37.9763 75.9083 43.2276 77.7361 48.6667 77.9604V75.2937H51.3333V77.9604C56.7586 77.7283 61.9949 75.9009 66.3867 72.707L68 74.867Z" fill="white"/>
<path d="M22.04 51.3333C22.2721 56.7586 24.0995 61.9949 27.2934 66.3867L25.1334 68C21.6041 63.1371 19.5951 57.3374 19.36 51.3333H16.6934V48.6667H19.36C19.5951 42.6626 21.6041 36.8629 25.1334 32L27.2934 33.5733C24.0921 37.9763 22.2643 43.2276 22.04 48.6667H24.7067V51.3333H22.04Z" fill="white"/>
<path d="M62.0534 41.5871C61.8604 41.4844 61.6452 41.4307 61.4267 41.4307C61.2081 41.4307 60.9929 41.4844 60.8 41.5871C60.6033 41.6873 60.4345 41.8348 60.3088 42.0163C60.1832 42.1978 60.1046 42.4077 60.08 42.6271C59.9981 43.4402 59.86 44.2465 59.6667 45.0405C59.354 41.8129 58.206 38.7224 56.3356 36.0734C54.4652 33.4245 51.937 31.3084 49 29.9338C47.1983 28.5587 45.0885 27.6434 42.8534 27.2671C42.5653 27.2192 42.2695 27.2671 42.0114 27.4035C41.7532 27.5399 41.5469 27.7573 41.4243 28.0223C41.3016 28.2873 41.2694 28.5852 41.3324 28.8703C41.3955 29.1554 41.5504 29.4119 41.7734 29.6005C43.1652 30.9619 44.1861 32.6565 44.7391 34.5233C45.2922 36.3901 45.359 38.3672 44.9334 40.2671C43.3867 38.2271 40.9334 35.7871 38.0267 35.7871C37.8117 35.7875 37.6 35.8398 37.4097 35.9396C37.2193 36.0395 37.0559 36.1839 36.9334 36.3605C36.8096 36.5395 36.7315 36.7461 36.7059 36.9622C36.6803 37.1784 36.7081 37.3975 36.7867 37.6005C37.56 39.5871 39.0934 45.5205 36.9067 48.9605C36.76 49.1738 36.64 49.3871 36.5067 49.6138C35.0504 52.2714 34.6247 55.3725 35.3109 58.3243C35.9972 61.276 37.7473 63.8712 40.2267 65.6138C42.8301 67.3766 45.6544 68.7887 48.6267 69.8138C48.772 69.8666 48.9254 69.8936 49.08 69.8938H49.36C51.1334 69.7338 63.2 68.1738 65.6667 58.6005C69.08 45.6005 62.3467 41.7471 62.0534 41.5871ZM47.12 66.4005C45.252 65.6073 43.4657 64.6338 41.7867 63.4938C39.8382 62.1308 38.4623 60.0958 37.9233 57.7798C37.3843 55.4639 37.7203 53.0304 38.8667 50.9471L39.1867 50.4005C41.44 46.8805 40.7867 42.0805 40.08 39.1738C41.8247 40.5124 43.2692 42.2021 44.32 44.1338C44.4349 44.3695 44.6168 44.5661 44.8428 44.699C45.0689 44.8319 45.3291 44.8952 45.5909 44.881C45.8528 44.8668 46.1046 44.7756 46.3149 44.619C46.5252 44.4624 46.6847 44.2473 46.7734 44.0005C47.59 41.9832 47.974 39.8169 47.9005 37.6418C47.827 35.4668 47.2976 33.3314 46.3467 31.3738C48.0401 32.3549 49.3937 33.8295 50.2267 35.6005C52.12 39.5205 51.6934 44.9338 49.1334 49.6138C46.5034 54.7968 45.7903 60.7426 47.12 66.4005ZM63.12 57.9605C61.3734 64.7605 53.04 66.6805 50.0534 67.1471C49.3334 64.5605 47.9067 57.3338 51.4667 50.8271C53.9562 46.4899 54.6592 41.3538 53.4267 36.5071C55.84 39.3338 57.8667 43.8005 56.7867 50.4938C56.7448 50.7605 56.7849 51.0335 56.9015 51.2769C57.0182 51.5203 57.206 51.7226 57.4401 51.857C57.6741 51.9913 57.9435 52.0515 58.2125 52.0295C58.4815 52.0075 58.7375 51.9044 58.9467 51.7338C60.6842 50.0472 61.8538 47.8617 62.2934 45.4805C63.5734 47.3338 64.9067 51.0805 63.1334 57.9605H63.12Z" fill="white"/>
</g>
<defs>
<linearGradient id="paint0_linear_2385_9589" x1="-20.7067" y1="120.707" x2="120.72" y2="-20.72" gradientUnits="userSpaceOnUse">
<stop stop-color="#BD0816"/>
<stop offset="1" stop-color="#FF5252"/>
</linearGradient>
<clipPath id="clip0_2385_9589">
<rect width="100" height="100" fill="white"/>
</clipPath>
</defs>
</svg>
