<svg width="100" height="100" viewBox="0 0 100 100" fill="none" xmlns="http://www.w3.org/2000/svg">
<g clip-path="url(#clip0_2385_9621)">
<path d="M100 0H0V100H100V0Z" fill="url(#paint0_linear_2385_9621)"/>
<path d="M79.6 25.333H20.4C19.411 25.3365 18.4634 25.731 17.764 26.4304C17.0647 27.1297 16.6702 28.0773 16.6667 29.0663V70.933C16.6702 71.9221 17.0647 72.8696 17.764 73.569C18.4634 74.2684 19.411 74.6628 20.4 74.6663H79.6C80.5891 74.6628 81.5366 74.2684 82.236 73.569C82.9354 72.8696 83.3298 71.9221 83.3333 70.933V29.0663C83.3298 28.0773 82.9354 27.1297 82.236 26.4304C81.5366 25.731 80.5891 25.3365 79.6 25.333ZM80.6667 70.933C80.6667 71.2159 80.5543 71.4872 80.3543 71.6873C80.1542 71.8873 79.8829 71.9997 79.6 71.9997H20.4C20.1171 71.9997 19.8458 71.8873 19.6458 71.6873C19.4457 71.4872 19.3334 71.2159 19.3334 70.933V29.0663C19.3334 28.7834 19.4457 28.5121 19.6458 28.3121C19.8458 28.1121 20.1171 27.9997 20.4 27.9997H79.6C79.8829 27.9997 80.1542 28.1121 80.3543 28.3121C80.5543 28.5121 80.6667 28.7834 80.6667 29.0663V70.933Z" fill="white"/>
<path d="M67.3333 42.666H54V45.3327H67.3333V42.666Z" fill="white"/>
<path d="M75.3334 42.666H72.6667V45.3327H75.3334V42.666Z" fill="white"/>
<path d="M48.28 47.0658C48.1565 46.9399 48.0093 46.8396 47.8468 46.771C47.6843 46.7023 47.5097 46.6666 47.3333 46.6658H28.6667V39.9992C28.6852 39.2546 28.8753 38.5243 29.2222 37.8652C29.5691 37.2061 30.0634 36.636 30.6667 36.1992C32.0115 35.1892 33.6516 34.6503 35.3333 34.6658C37.0816 34.6412 38.782 35.2364 40.1333 36.3458C40.6924 36.7815 41.1492 37.3344 41.4717 37.9656C41.7942 38.5967 41.9745 39.2909 42 39.9992V46.6658H44.6667V39.4658C44.6425 38.4198 44.3758 37.3936 43.8876 36.4681C43.3994 35.5426 42.703 34.7431 41.8533 34.1325C39.978 32.7156 37.6835 31.9649 35.3333 31.9992C30.1867 31.9992 26 35.3458 26 39.4525V46.6658H23.3333C22.9797 46.6658 22.6406 46.8063 22.3905 47.0564C22.1405 47.3064 22 47.6456 22 47.9992V66.6658C22 67.0195 22.1405 67.3586 22.3905 67.6086C22.6406 67.8587 22.9797 67.9992 23.3333 67.9992H47.3333C47.687 67.9992 48.0261 67.8587 48.2761 67.6086C48.5262 67.3586 48.6667 67.0195 48.6667 66.6658V47.9992C48.6652 47.6494 48.5263 47.3142 48.28 47.0658ZM46 53.3325H42V55.9992H46V58.6658H42V61.3325H46V65.3325H24.6667V49.3325H46V53.3325Z" fill="white"/>
<path d="M35.3334 51.4268C34.4173 51.4302 33.5315 51.7555 32.8309 52.3458C32.1304 52.9361 31.6595 53.7538 31.5006 54.656C31.3418 55.5583 31.5051 56.4876 31.9619 57.2817C32.4188 58.0757 33.1402 58.684 34 59.0001V62.6668H36.6667V59.0001C37.5265 58.684 38.2479 58.0757 38.7048 57.2817C39.1617 56.4876 39.3249 55.5583 39.1661 54.656C39.0072 53.7538 38.5364 52.9361 37.8358 52.3458C37.1352 51.7555 36.2495 51.4302 35.3334 51.4268ZM35.3334 57.0268C34.9985 57.0268 34.6711 56.9274 34.3926 56.7414C34.1141 56.5553 33.8971 56.2909 33.7689 55.9814C33.6408 55.672 33.6072 55.3315 33.6726 55.0031C33.7379 54.6746 33.8992 54.3729 34.136 54.1361C34.3728 53.8992 34.6745 53.738 35.003 53.6726C35.3315 53.6073 35.672 53.6408 35.9814 53.769C36.2908 53.8972 36.5553 54.1142 36.7413 54.3927C36.9274 54.6711 37.0267 54.9985 37.0267 55.3334C37.0267 55.5558 36.9829 55.776 36.8978 55.9814C36.8127 56.1869 36.688 56.3736 36.5307 56.5308C36.3735 56.688 36.1868 56.8128 35.9814 56.8979C35.7759 56.983 35.5557 57.0268 35.3334 57.0268Z" fill="white"/>
<path d="M63.3333 49.333H54V51.9997H63.3333V49.333Z" fill="white"/>
<path d="M75.3334 49.333H68.6667V51.9997H75.3334V49.333Z" fill="white"/>
<path d="M71.3333 56H54V58.6667H71.3333V56Z" fill="white"/>
</g>
<defs>
<linearGradient id="paint0_linear_2385_9621" x1="-20.7067" y1="120.707" x2="120.72" y2="-20.72" gradientUnits="userSpaceOnUse">
<stop stop-color="#BD0816"/>
<stop offset="1" stop-color="#FF5252"/>
</linearGradient>
<clipPath id="clip0_2385_9621">
<rect width="100" height="100" fill="white"/>
</clipPath>
</defs>
</svg>
