<svg width="100" height="100" viewBox="0 0 100 100" fill="none" xmlns="http://www.w3.org/2000/svg">
<g clip-path="url(#clip0_2385_9615)">
<path d="M100 0H0V100H100V0Z" fill="url(#paint0_linear_2385_9615)"/>
<path d="M50.0001 83.333C49.8246 83.334 49.6507 83.3004 49.4882 83.234C49.3258 83.1677 49.178 83.0699 49.0534 82.9463L41.0534 74.9463C40.8684 74.7588 40.7431 74.5207 40.6933 74.2621C40.6434 74.0034 40.6713 73.7358 40.7734 73.493C40.8735 73.2495 41.0433 73.0411 41.2616 72.894C41.4799 72.7469 41.7369 72.6677 42.0001 72.6663H46.0001V67.333H48.6668V73.9997C48.6668 74.3533 48.5263 74.6924 48.2762 74.9425C48.0262 75.1925 47.6871 75.333 47.3334 75.333H45.2268L50.0001 80.1197L54.7868 75.333H52.6668C52.3132 75.333 51.974 75.1925 51.724 74.9425C51.4739 74.6924 51.3334 74.3533 51.3334 73.9997V67.333H54.0001V72.6663H58.0001C58.2656 72.665 58.5255 72.743 58.7464 72.8903C58.9673 73.0375 59.1392 73.2474 59.2401 73.493C59.3406 73.7371 59.3663 74.0055 59.3141 74.2642C59.2619 74.5229 59.134 74.7603 58.9468 74.9463L50.9468 82.9463C50.8222 83.0699 50.6744 83.1677 50.512 83.234C50.3495 83.3004 50.1756 83.334 50.0001 83.333Z" fill="white"/>
<path d="M66 66H36.6667C36.3131 66 35.9739 65.8595 35.7239 65.6095C35.4738 65.3594 35.3334 65.0203 35.3334 64.6667V27.3333C35.3334 26.9797 35.4738 26.6406 35.7239 26.3905C35.9739 26.1405 36.3131 26 36.6667 26H56.6667V28.6667H38V63.3333H64.6667V36.6667H67.3334V64.6667C67.3334 65.0203 67.1929 65.3594 66.9429 65.6095C66.6928 65.8595 66.3537 66 66 66Z" fill="white"/>
<path d="M62.0001 42H40.6667V44.6667H62.0001V42Z" fill="white"/>
<path d="M47.3334 47.333H40.6667V49.9997H47.3334V47.333Z" fill="white"/>
<path d="M54.0001 52.667H40.6667V55.3337H54.0001V52.667Z" fill="white"/>
<path d="M51.3334 35.333H40.6667V37.9997H51.3334V35.333Z" fill="white"/>
<path d="M58.3334 82.2801L57.6667 79.6934C64.8938 77.8274 71.1922 73.3896 75.3813 67.212C79.5705 61.0344 81.3628 53.541 80.4223 46.1364C79.4818 38.7318 75.873 31.9244 70.2725 26.9903C64.6719 22.0561 57.4641 19.3339 50 19.3339C42.536 19.3339 35.3281 22.0561 29.7276 26.9903C24.127 31.9244 20.5183 38.7318 19.5778 46.1364C18.6373 53.541 20.4296 61.0344 24.6188 67.212C28.8079 73.3896 35.1063 77.8274 42.3334 79.6934L41.6667 82.2801C33.8112 80.2518 26.9651 75.4282 22.4117 68.7133C17.8583 61.9985 15.9101 53.8535 16.9324 45.8051C17.9547 37.7566 21.8772 30.3573 27.9648 24.9941C34.0523 19.6308 41.8869 16.6719 50 16.6719C58.1132 16.6719 65.9478 19.6308 72.0353 24.9941C78.1229 30.3573 82.0454 37.7566 83.0677 45.8051C84.09 53.8535 82.1418 61.9985 77.5884 68.7133C73.035 75.4282 66.1889 80.2518 58.3334 82.2801Z" fill="white"/>
<path d="M66 38.0005H56.6667C56.3131 38.0005 55.9739 37.86 55.7239 37.61C55.4738 37.3599 55.3334 37.0208 55.3334 36.6672V27.3338C55.3347 27.0706 55.4139 26.8137 55.561 26.5954C55.7081 26.3771 55.9165 26.2072 56.16 26.1072C56.4029 26.0051 56.6705 25.9772 56.9291 26.027C57.1878 26.0768 57.4259 26.2022 57.6134 26.3872L66.9467 35.7205C67.1339 35.9065 67.2618 36.1439 67.314 36.4026C67.3662 36.6614 67.3405 36.9298 67.24 37.1738C67.1391 37.4194 66.9672 37.6293 66.7463 37.7766C66.5254 37.9239 66.2655 38.0018 66 38.0005ZM58 35.3338H62.7867L58 30.5472V35.3338Z" fill="white"/>
</g>
<defs>
<linearGradient id="paint0_linear_2385_9615" x1="-20.7067" y1="120.707" x2="120.707" y2="-20.7067" gradientUnits="userSpaceOnUse">
<stop stop-color="#BD0816"/>
<stop offset="1" stop-color="#FF5252"/>
</linearGradient>
<clipPath id="clip0_2385_9615">
<rect width="100" height="100" fill="white"/>
</clipPath>
</defs>
</svg>
