<svg width="100" height="100" viewBox="0 0 100 100" fill="none" xmlns="http://www.w3.org/2000/svg">
<g clip-path="url(#clip0_2385_9618)">
<path d="M100 0H0V100H100V0Z" fill="url(#paint0_linear_2385_9618)"/>
<path d="M62.6666 58.666C62.0073 58.666 61.3628 58.8615 60.8147 59.2278C60.2665 59.5941 59.8393 60.1147 59.587 60.7237C59.3347 61.3328 59.2687 62.003 59.3973 62.6496C59.5259 63.2962 59.8434 63.8902 60.3096 64.3564C60.7757 64.8225 61.3697 65.14 62.0163 65.2686C62.6629 65.3972 63.3331 65.3312 63.9422 65.0789C64.5513 64.8267 65.0719 64.3994 65.4381 63.8513C65.8044 63.3031 65.9999 62.6586 65.9999 61.9993C65.9999 61.1153 65.6487 60.2674 65.0236 59.6423C64.3985 59.0172 63.5506 58.666 62.6666 58.666ZM62.6666 62.866C62.4952 62.866 62.3276 62.8152 62.1851 62.72C62.0426 62.6247 61.9315 62.4894 61.8659 62.331C61.8003 62.1726 61.7831 61.9984 61.8166 61.8303C61.85 61.6622 61.9326 61.5077 62.0538 61.3865C62.175 61.2653 62.3294 61.1828 62.4975 61.1493C62.6656 61.1159 62.8399 61.1331 62.9982 61.1987C63.1566 61.2642 63.292 61.3753 63.3872 61.5179C63.4824 61.6604 63.5333 61.8279 63.5333 61.9993C63.5333 62.2292 63.4419 62.4496 63.2794 62.6122C63.1169 62.7747 62.8964 62.866 62.6666 62.866Z" fill="white"/>
<path d="M82.9466 76.3463L72.96 66.3729C73.3477 65.3186 73.542 64.203 73.5333 63.0796C73.5263 60.4945 72.4953 58.0175 70.6661 56.1908C68.8369 54.3641 66.3584 53.3365 63.7733 53.333C63.5469 53.3187 63.3198 53.3187 63.0933 53.333H62.6666H62.4533C62.1888 53.3559 61.926 53.396 61.6666 53.453C61.1629 53.5562 60.6681 53.6989 60.1866 53.8796C59.88 53.9996 59.5866 54.133 59.2533 54.293C58.92 54.453 58.72 54.5863 58.4666 54.7596C57.0836 55.6341 55.9449 56.8449 55.1567 58.2789C54.3686 59.7129 53.9569 61.3233 53.96 62.9596C53.967 65.547 54.9998 68.0261 56.8319 69.8532C58.664 71.6803 61.1459 72.7063 63.7333 72.7063C64.8369 72.7146 65.9335 72.5296 66.9733 72.1596L67.2933 72.453V74.6663C67.2933 75.0199 67.4338 75.359 67.6838 75.6091C67.9339 75.8591 68.273 75.9996 68.6266 75.9996H70.7466L71.2933 76.5463V78.6663C71.2933 79.0199 71.4338 79.359 71.6838 79.6091C71.9339 79.8591 72.273 79.9996 72.6266 79.9996H76.0666L78.3066 82.2663C78.4301 82.3923 78.5774 82.4925 78.7399 82.5612C78.9024 82.6298 79.0769 82.6656 79.2533 82.6663H81.92C82.2736 82.6663 82.6127 82.5258 82.8628 82.2758C83.1128 82.0257 83.2533 81.6866 83.2533 81.333V77.333C83.2704 77.1564 83.2521 76.9781 83.1994 76.8087C83.1468 76.6393 83.0608 76.4821 82.9466 76.3463ZM80.6666 79.9996H79.8533L77.6133 77.733C77.4898 77.607 77.3426 77.5067 77.1801 77.4381C77.0176 77.3694 76.8431 77.3337 76.6666 77.333H74V75.9996C74.001 75.8241 73.9674 75.6502 73.901 75.4877C73.8347 75.3253 73.7369 75.1775 73.6133 75.053L72.28 73.7196C72.1554 73.596 72.0076 73.4983 71.8452 73.4319C71.6827 73.3656 71.5088 73.3319 71.3333 73.333H70V71.9996C70.0011 71.8178 69.965 71.6376 69.8939 71.4702C69.8228 71.3028 69.7183 71.1518 69.5866 71.0263L68.2533 69.693C68.0591 69.5092 67.8142 69.388 67.5502 69.3452C67.2863 69.3024 67.0156 69.34 66.7733 69.453C65.8431 69.8892 64.8273 70.1124 63.8 70.1063C62.2821 70.0937 60.8086 69.5927 59.5976 68.6774C58.3866 67.7622 57.5025 66.4813 57.0763 65.0244C56.65 63.5675 56.7041 62.0121 57.2307 60.5884C57.7573 59.1647 58.7283 57.9485 60 57.1196L60.56 56.7863L61.24 56.4796C61.5868 56.3525 61.9436 56.2543 62.3066 56.1863L62.8666 56.093H63.3333H63.52H63.8266C65.7056 56.0929 67.5078 56.8384 68.8377 58.1658C70.1676 59.4932 70.9164 61.294 70.92 63.173C70.9294 64.2165 70.6966 65.2479 70.24 66.1863C70.1166 66.4363 70.0747 66.7186 70.1201 66.9937C70.1656 67.2687 70.2961 67.5226 70.4933 67.7196L80.72 77.933L80.6666 79.9996Z" fill="white"/>
<path d="M24.6666 64.9063V20.4263C24.663 20.3738 24.6698 20.321 24.6866 20.2711C24.7034 20.2212 24.73 20.1751 24.7646 20.1354C24.7993 20.0958 24.8415 20.0634 24.8888 20.0401C24.936 20.0168 24.9874 20.0031 25.04 19.9997H69.6266C69.6792 20.0031 69.7306 20.0168 69.7778 20.0401C69.8251 20.0634 69.8672 20.0958 69.9019 20.1354C69.9366 20.1751 69.9631 20.2212 69.98 20.2711C69.9968 20.321 70.0036 20.3738 70 20.4263V51.9997H72.6666V20.4263C72.6701 20.0236 72.5943 19.6241 72.4434 19.2507C72.2925 18.8773 72.0696 18.5373 71.7873 18.25C71.505 17.9628 71.1689 17.734 70.7982 17.5766C70.4274 17.4193 70.0293 17.3365 69.6266 17.333H25.04C24.6372 17.3365 24.2391 17.4193 23.8684 17.5766C23.4977 17.734 23.1616 17.9628 22.8793 18.25C22.597 18.5373 22.374 18.8773 22.2232 19.2507C22.0723 19.6241 21.9964 20.0236 22 20.4263V26.6663H18C17.6463 26.6663 17.3072 26.8068 17.0572 27.0569C16.8071 27.3069 16.6666 27.6461 16.6666 27.9997V35.9997C16.6666 36.3533 16.8071 36.6924 17.0572 36.9425C17.3072 37.1925 17.6463 37.333 18 37.333H22V47.9997H18C17.6463 47.9997 17.3072 48.1401 17.0572 48.3902C16.8071 48.6402 16.6666 48.9794 16.6666 49.333V57.333C16.6666 57.6866 16.8071 58.0258 17.0572 58.2758C17.3072 58.5259 17.6463 58.6663 18 58.6663H22V64.9063C21.9964 65.3091 22.0723 65.7085 22.2232 66.0819C22.374 66.4554 22.597 66.7954 22.8793 67.0826C23.1616 67.3699 23.4977 67.5987 23.8684 67.7561C24.2391 67.9134 24.6372 67.9962 25.04 67.9997H51.3333V65.333H25.04C24.9874 65.3296 24.936 65.3159 24.8888 65.2926C24.8415 65.2693 24.7993 65.2369 24.7646 65.1972C24.73 65.1576 24.7034 65.1115 24.6866 65.0616C24.6698 65.0116 24.663 64.9589 24.6666 64.9063ZM19.3333 34.6663V29.333H22V34.6663H19.3333ZM19.3333 55.9997V50.6663H22V55.9997H19.3333Z" fill="white"/>
<path d="M46 30.6664C48.5059 30.6748 50.9464 31.4675 52.979 32.9333C55.0115 34.3991 56.5342 36.4645 57.3333 38.8397L59.8666 37.9864C58.7594 34.6872 56.5151 31.8893 53.5348 30.0925C50.5545 28.2957 47.0324 27.6172 43.5979 28.1782C40.1634 28.7391 37.0403 30.5031 34.7866 33.1547C32.5329 35.8064 31.2955 39.173 31.2955 42.653C31.2955 46.133 32.5329 49.4997 34.7866 52.1513C37.0403 54.803 40.1634 56.5669 43.5979 57.1279C47.0324 57.6889 50.5545 57.0103 53.5348 55.2136C56.5151 53.4168 58.7594 50.6188 59.8666 47.3197L57.3333 46.493C56.6287 48.5871 55.3596 50.4461 53.666 51.865C51.9723 53.2838 49.9197 54.2076 47.7346 54.5343C45.5494 54.8611 43.3164 54.5782 41.2818 53.7169C39.2471 52.8556 37.4897 51.4492 36.2034 49.6528C34.917 47.8564 34.1515 45.7398 33.9914 43.5361C33.8312 41.3324 34.2826 39.1273 35.2957 37.1638C36.3088 35.2003 37.8444 33.5547 39.7331 32.4082C41.6219 31.2617 43.7905 30.659 46 30.6664Z" fill="white"/>
<path d="M64.6666 41.3327H53.8799C53.5456 39.3548 52.4805 37.5747 50.8956 36.3452C49.3107 35.1156 47.3217 34.5263 45.3228 34.6941C43.3239 34.8618 41.461 35.7744 40.1032 37.2509C38.7454 38.7274 37.9918 40.6601 37.9918 42.666C37.9918 44.672 38.7454 46.6047 40.1032 48.0812C41.461 49.5577 43.3239 50.4703 45.3228 50.638C47.3217 50.8058 49.3107 50.2165 50.8956 48.9869C52.4805 47.7573 53.5456 45.9772 53.8799 43.9994H64.6666V41.3327ZM45.9999 47.9994C44.9451 47.9994 43.9139 47.6866 43.0369 47.1005C42.1598 46.5145 41.4762 45.6816 41.0726 44.707C40.6689 43.7325 40.5633 42.6601 40.7691 41.6256C40.9749 40.591 41.4828 39.6407 42.2287 38.8948C42.9746 38.1489 43.9249 37.641 44.9594 37.4352C45.994 37.2294 47.0664 37.335 48.0409 37.7387C49.0154 38.1423 49.8484 38.8259 50.4344 39.703C51.0205 40.5801 51.3333 41.6112 51.3333 42.666C51.3333 44.0805 50.7714 45.4371 49.7712 46.4373C48.771 47.4375 47.4144 47.9994 45.9999 47.9994Z" fill="white"/>
</g>
<defs>
<linearGradient id="paint0_linear_2385_9618" x1="-20.7147" y1="120.711" x2="120.707" y2="-20.7107" gradientUnits="userSpaceOnUse">
<stop stop-color="#BD0816"/>
<stop offset="1" stop-color="#FF5252"/>
</linearGradient>
<clipPath id="clip0_2385_9618">
<rect width="100" height="100" fill="white"/>
</clipPath>
</defs>
</svg>
