<svg width="100" height="100" viewBox="0 0 100 100" fill="none" xmlns="http://www.w3.org/2000/svg">
<g clip-path="url(#clip0_2385_9594)">
<path d="M100 0H0V100H100V0Z" fill="url(#paint0_linear_2385_9594)"/>
<path d="M50 28.8667C48.8254 28.8693 47.6764 28.5232 46.6986 27.8723C45.7208 27.2213 44.9583 26.2948 44.5075 25.2101C44.0568 24.1254 43.9382 22.9313 44.1667 21.7791C44.3952 20.6269 44.9606 19.5684 45.7912 18.7378C46.6218 17.9072 47.6802 17.3419 48.8324 17.1134C49.9846 16.8848 51.1787 17.0035 52.2634 17.4542C53.3481 17.9049 54.2747 18.6675 54.9256 19.6453C55.5766 20.623 55.9226 21.772 55.92 22.9467C55.92 24.5167 55.2963 26.0225 54.1861 27.1327C53.0759 28.2429 51.5701 28.8667 50 28.8667ZM50 19.68C49.3534 19.6773 48.7205 19.8667 48.1815 20.224C47.6426 20.5814 47.2218 21.0906 46.9725 21.6873C46.7232 22.284 46.6566 22.9412 46.7811 23.5757C46.9057 24.2103 47.2157 24.7936 47.6721 25.2518C48.1284 25.71 48.7104 26.0224 49.3445 26.1495C49.9785 26.2767 50.636 26.2128 51.2337 25.9659C51.8314 25.7191 52.3423 25.3004 52.7019 24.7629C53.0614 24.2254 53.2533 23.5933 53.2533 22.9467C53.2533 22.0826 52.911 21.2537 52.3013 20.6415C51.6915 20.0292 50.8641 19.6835 50 19.68Z" fill="white"/>
<path d="M73.8266 39.187C72.6492 39.1895 71.4976 38.8417 70.5184 38.1877C69.5393 37.5337 68.7769 36.6032 68.3282 35.5146C67.8795 34.426 67.7648 33.2285 67.9988 32.0745C68.2328 30.9206 68.8049 29.8623 69.6422 29.0345C70.4794 28.2066 71.5441 27.6466 72.7007 27.4257C73.8572 27.2048 75.0533 27.333 76.1368 27.7939C77.2202 28.2549 78.1421 29.0279 78.7849 30.0143C79.4277 31.0008 79.7625 32.1563 79.7466 33.3336C79.7291 34.8921 79.0976 36.3808 77.9893 37.4767C76.881 38.5725 75.3852 39.1871 73.8266 39.187ZM73.8266 30.0003C73.1828 29.9978 72.5527 30.1856 72.0153 30.5401C71.4779 30.8946 71.0572 31.3999 70.8061 31.9927C70.555 32.5855 70.4846 33.2393 70.6038 33.8719C70.723 34.5046 71.0265 35.0879 71.4762 35.5486C71.9259 36.0093 72.5016 36.3269 73.1312 36.4615C73.7608 36.596 74.4161 36.5416 75.0148 36.3049C75.6135 36.0683 76.1289 35.66 76.4963 35.1313C76.8638 34.6027 77.0668 33.9773 77.08 33.3336C77.0888 32.9002 77.0113 32.4693 76.8519 32.0661C76.6926 31.663 76.4545 31.2955 76.1517 30.9853C75.8489 30.675 75.4874 30.4282 75.0882 30.259C74.689 30.0899 74.2602 30.002 73.8266 30.0003Z" fill="white"/>
<path d="M26.5732 71.227C25.3975 71.2296 24.2474 70.8829 23.2691 70.2307C22.2908 69.5786 21.5283 68.6505 21.0783 67.5642C20.6284 66.4779 20.5113 65.2825 20.742 64.1295C20.9727 62.9766 21.5408 61.9182 22.374 61.0887C23.2073 60.2592 24.2682 59.696 25.4222 59.4705C26.5761 59.245 27.771 59.3674 28.8553 59.8223C29.9395 60.2771 30.8642 61.0438 31.5119 62.0251C32.1596 63.0063 32.5012 64.1579 32.4932 65.3337C32.4862 66.8991 31.8594 68.3981 30.7499 69.5025C29.6405 70.607 28.1387 71.227 26.5732 71.227ZM26.5732 62.0403C25.9277 62.0377 25.2959 62.2264 24.7576 62.5826C24.2192 62.9388 23.7985 63.4465 23.5484 64.0416C23.2983 64.6367 23.2302 65.2925 23.3526 65.9263C23.475 66.5601 23.7824 67.1435 24.2361 67.6027C24.6897 68.0619 25.2693 68.3765 25.9015 68.5066C26.5338 68.6367 27.1904 68.5766 27.7885 68.3338C28.3867 68.0911 28.8995 67.6765 29.2622 67.1426C29.6249 66.6086 29.8213 65.9792 29.8266 65.3337C29.8301 64.9036 29.7486 64.477 29.5869 64.0785C29.4251 63.6799 29.1862 63.3172 28.884 63.0113C28.5817 62.7053 28.222 62.462 27.8254 62.2954C27.4289 62.1287 27.0034 62.0421 26.5732 62.0403Z" fill="white"/>
<path d="M50 82.9868C48.8259 82.9894 47.6775 82.6437 46.7 81.9933C45.7225 81.343 44.96 80.4172 44.5088 79.3333C44.0577 78.2493 43.9383 77.0559 44.1657 75.9041C44.3932 74.7523 44.9572 73.6938 45.7865 72.8627C46.6157 72.0315 47.6729 71.4651 48.8242 71.2351C49.9755 71.0051 51.1692 71.1218 52.2542 71.5705C53.3391 72.0192 54.2666 72.7797 54.9191 73.7557C55.5717 74.7317 55.92 75.8794 55.92 77.0534C55.92 78.6248 55.2967 80.1319 54.1869 81.2442C53.0771 82.3566 51.5713 82.9832 50 82.9868ZM50 73.8001C49.3528 73.7975 48.7194 73.9872 48.1801 74.3451C47.6409 74.703 47.2201 75.2131 46.9712 75.8105C46.7224 76.4079 46.6565 77.0659 46.7822 77.7008C46.9078 78.3357 47.2192 78.919 47.6768 79.3766C48.1345 79.8343 48.7178 80.1457 49.3527 80.2713C49.9876 80.3969 50.6455 80.3311 51.2429 80.0822C51.8404 79.8333 52.3504 79.4125 52.7084 78.8733C53.0663 78.3341 53.256 77.7007 53.2533 77.0534C53.2498 76.1917 52.9059 75.3662 52.2966 74.7569C51.6872 74.1475 50.8618 73.8036 50 73.8001Z" fill="white"/>
<path d="M26.1733 38.853C24.9992 38.853 23.8516 38.5047 22.8755 37.8521C21.8995 37.1996 21.139 36.2721 20.6904 35.1872C20.2417 34.1022 20.125 32.9085 20.355 31.7572C20.585 30.6059 21.1514 29.5487 21.9825 28.7194C22.8137 27.8902 23.8721 27.3261 25.024 27.0987C26.1758 26.8713 27.3692 26.9907 28.4532 27.4418C29.5371 27.8929 30.4628 28.6555 31.1132 29.633C31.7635 30.6105 32.1093 31.7589 32.1066 32.933C32.1066 33.7115 31.9531 34.4825 31.6547 35.2016C31.3564 35.9207 30.9191 36.5739 30.368 37.1238C29.8169 37.6737 29.1627 38.1095 28.4429 38.4062C27.7231 38.7029 26.9519 38.8548 26.1733 38.853ZM26.1733 29.6663C25.5272 29.6663 24.8956 29.8579 24.3584 30.2169C23.8212 30.5758 23.4026 31.086 23.1553 31.6829C22.9081 32.2798 22.8434 32.9366 22.9694 33.5703C23.0955 34.204 23.4066 34.786 23.8634 35.2429C24.3203 35.6997 24.9023 36.0109 25.536 36.1369C26.1697 36.2629 26.8265 36.1983 27.4234 35.951C28.0203 35.7038 28.5305 35.2851 28.8894 34.7479C29.2484 34.2107 29.44 33.5791 29.44 32.933C29.44 32.0666 29.0958 31.2357 28.4832 30.6231C27.8706 30.0105 27.0397 29.6663 26.1733 29.6663Z" fill="white"/>
<path d="M31.1115 34.4937L29.5801 36.6768L36.7405 41.6999L38.272 39.5168L31.1115 34.4937Z" fill="white"/>
<path d="M69.7486 34.0388L61.7218 37.8057L62.8547 40.2197L70.8814 36.4529L69.7486 34.0388Z" fill="white"/>
<path d="M36.38 57.3371L30.0375 61.7617L31.5632 63.9488L37.9057 59.5242L36.38 57.3371Z" fill="white"/>
<path d="M51.3333 28.627H48.6666V34.1203H51.3333V28.627Z" fill="white"/>
<path d="M51.3333 66.4404H48.6666V72.0938H51.3333V66.4404Z" fill="white"/>
<path d="M73.8267 70.4399C72.652 70.4425 71.503 70.0965 70.5253 69.4455C69.5475 68.7946 68.7849 67.868 68.3342 66.7833C67.8835 65.6986 67.7649 64.5045 67.9934 63.3523C68.2219 62.2001 68.7872 61.1417 69.6178 60.3111C70.4484 59.4805 71.5069 58.9151 72.6591 58.6866C73.8113 58.4581 75.0054 58.5767 76.0901 59.0274C77.1748 59.4782 78.1013 60.2407 78.7523 61.2185C79.4032 62.1963 79.7493 63.3453 79.7467 64.5199C79.7467 66.09 79.123 67.5958 78.0127 68.706C76.9025 69.8162 75.3967 70.4399 73.8267 70.4399ZM73.8267 61.2532C73.18 61.2506 72.5471 61.4399 72.0082 61.7973C71.4692 62.1546 71.0485 62.6639 70.7992 63.2605C70.5499 63.8572 70.4833 64.5144 70.6078 65.149C70.7323 65.7835 71.0424 66.3668 71.4987 66.825C71.955 67.2832 72.5371 67.5957 73.1711 67.7228C73.8051 67.8499 74.4626 67.786 75.0603 67.5392C75.658 67.2923 76.169 66.8736 76.5285 66.3361C76.8881 65.7987 77.08 65.1666 77.08 64.5199C77.08 63.6558 76.7377 62.827 76.1279 62.2147C75.5182 61.6025 74.6907 61.2568 73.8267 61.2532Z" fill="white"/>
<path d="M64.6395 56.9883L63.113 59.1748L68.8199 63.1589L70.3464 60.9724L64.6395 56.9883Z" fill="white"/>
<path d="M50.0799 66.8671C46.744 66.8671 43.483 65.8779 40.7093 64.0246C37.9356 62.1712 35.7738 59.537 34.4972 56.4551C33.2206 53.3731 32.8865 49.9818 33.5374 46.7099C34.1882 43.4381 35.7946 40.4328 38.1534 38.0739C40.5122 35.7151 43.5176 34.1087 46.7894 33.4579C50.0612 32.8071 53.4525 33.1411 56.5345 34.4177C59.6165 35.6943 62.2507 37.8561 64.1041 40.6298C65.9574 43.4036 66.9466 46.6646 66.9466 50.0005C66.9431 54.4727 65.1649 58.7607 62.0026 61.9231C58.8402 65.0854 54.5522 66.8636 50.0799 66.8671ZM50.0799 35.8005C47.2714 35.8005 44.526 36.6333 42.1908 38.1936C39.8557 39.7539 38.0356 41.9716 36.9608 44.5664C35.8861 47.1611 35.6049 50.0162 36.1528 52.7707C36.7007 55.5253 38.0531 58.0555 40.039 60.0414C42.0249 62.0273 44.5551 63.3797 47.3096 63.9276C50.0642 64.4755 52.9193 64.1943 55.514 63.1196C58.1087 62.0448 60.3265 60.2247 61.8868 57.8896C63.4471 55.5544 64.2799 52.809 64.2799 50.0005C64.2729 46.2366 62.7746 42.6288 60.1131 39.9673C57.4516 37.3058 53.8438 35.8075 50.0799 35.8005Z" fill="white"/>
<path d="M50.4 63.0799C42.4 63.0799 40.2 56.0266 40.2 52.2933V41.9199C40.2013 41.6567 40.2805 41.3998 40.4276 41.1815C40.5747 40.9632 40.7831 40.7933 41.0266 40.6933L49.88 37.0266C50.0426 36.9588 50.2171 36.9238 50.3933 36.9238C50.5695 36.9238 50.744 36.9588 50.9066 37.0266L59.76 40.6933C60.0034 40.7933 60.2119 40.9632 60.359 41.1815C60.5061 41.3998 60.5853 41.6567 60.5866 41.9199V52.3199C60.5866 55.9999 58.4533 63.0799 50.4 63.0799ZM42.8666 42.8133V52.2933C42.8666 52.6266 43 60.4133 50.4 60.4133C57.8 60.4133 57.92 52.6533 57.92 52.3199V42.8133L50.4 39.7066L42.8666 42.8133Z" fill="white"/>
<path d="M50.4 58.6664C45.4267 58.6664 44.24 52.6798 44.1867 52.4264C44.1801 52.3421 44.1801 52.2574 44.1867 52.1731V45.3331C44.1864 45.0661 44.2663 44.8051 44.4161 44.584C44.5659 44.3629 44.7786 44.1919 45.0267 44.0931L49.92 42.1198C50.2407 41.99 50.5993 41.99 50.92 42.1198L55.7867 43.9998C56.0347 44.0986 56.2475 44.2696 56.3972 44.4907C56.547 44.7118 56.6269 44.9727 56.6267 45.2398V52.1464C56.6332 52.2307 56.6332 52.3154 56.6267 52.3998C56.56 52.6798 55.36 58.6664 50.4 58.6664ZM46.8267 51.9998C46.9867 52.6398 47.8933 55.9998 50.4 55.9998C52.9067 55.9998 53.8133 52.6798 53.96 51.9998V46.1331L50.4 44.7198L46.8267 46.1598V51.9998Z" fill="white"/>
<path d="M51.7466 44.3066H49.08V58.36H51.7466V44.3066Z" fill="white"/>
</g>
<defs>
<linearGradient id="paint0_linear_2385_9594" x1="-20.72" y1="120.707" x2="120.707" y2="-20.72" gradientUnits="userSpaceOnUse">
<stop stop-color="#BD0816"/>
<stop offset="1" stop-color="#FF5252"/>
</linearGradient>
<clipPath id="clip0_2385_9594">
<rect width="100" height="100" fill="white"/>
</clipPath>
</defs>
</svg>
