<svg width="100" height="100" viewBox="0 0 100 100" fill="none" xmlns="http://www.w3.org/2000/svg">
<path d="M27.02 73.0195C22.6535 73.0159 18.3707 71.821 14.633 69.5637C10.8952 67.3063 7.84411 64.0721 5.8083 60.2092C3.77248 56.3463 2.82909 52.0012 3.07974 47.6419C3.33039 43.2826 4.76557 39.0743 7.23071 35.4702C9.69586 31.8661 13.0975 29.0028 17.0694 27.1887C21.0412 25.3747 25.4327 24.6786 29.7709 25.1754C34.109 25.6722 38.2294 27.3431 41.6883 30.0082C45.1472 32.6732 47.8135 36.2314 49.4 40.2995H54L59.16 35.1395C59.5347 34.767 60.0416 34.5579 60.57 34.5579C61.0984 34.5579 61.6053 34.767 61.98 35.1395L67.14 40.2995H69.32L74.48 35.1395C74.6669 34.9542 74.8885 34.8075 75.1322 34.708C75.3758 34.6085 75.6368 34.558 75.9 34.5595C76.4247 34.5617 76.9275 34.77 77.3 35.1395L82.46 40.2995H87.38C87.8661 40.3002 88.3354 40.478 88.7 40.7995L96.36 47.4995C96.7543 47.8465 96.9963 48.3347 97.0337 48.8586C97.0712 49.3825 96.901 49.9001 96.56 50.2995L90.78 56.9995C90.5922 57.2191 90.3591 57.3953 90.0967 57.5162C89.8343 57.637 89.5489 57.6996 89.26 57.6995H49.4C47.6636 62.2216 44.5931 66.1088 40.5959 68.845C36.5988 71.5812 31.864 73.0372 27.02 73.0195ZM27.02 29.0195C23.324 29.006 19.6965 30.0169 16.5402 31.94C13.3839 33.8631 10.8222 36.6232 9.13952 39.914C7.45682 43.2048 6.71893 46.8975 7.00774 50.5822C7.29655 54.2669 8.60076 57.7996 10.7756 60.788C12.9505 63.7764 15.9109 66.1037 19.3283 67.5116C22.7457 68.9195 26.4864 69.3528 30.1351 68.7636C33.7839 68.1744 37.198 66.5855 39.9985 64.1735C42.799 61.7615 44.8764 58.6206 46 55.0995C46.132 54.6781 46.3998 54.3122 46.7616 54.059C47.1234 53.8057 47.5588 53.6793 48 53.6995H88.34L92.2 49.1995L86.58 44.2995H81.6C81.3368 44.3011 81.0758 44.2506 80.8322 44.1511C80.5885 44.0515 80.3669 43.9049 80.18 43.7195L75.86 39.3795L71.52 43.7195C71.3331 43.9049 71.1115 44.0515 70.8678 44.1511C70.6241 44.2506 70.3632 44.3011 70.1 44.2995H66.28C66.0168 44.3011 65.7558 44.2506 65.5122 44.1511C65.2685 44.0515 65.0469 43.9049 64.86 43.7195L60.54 39.3795L56.2 43.7195C56.0131 43.9049 55.7915 44.0515 55.5478 44.1511C55.3041 44.2506 55.0432 44.3011 54.78 44.2995H48C47.5588 44.3197 47.1234 44.1933 46.7616 43.9401C46.3998 43.6868 46.132 43.321 46 42.8995C44.7144 38.8706 42.1847 35.3529 38.7745 32.8518C35.3643 30.3508 31.249 28.9951 27.02 28.9795V29.0195ZM20.32 57.6995C18.5993 57.6995 16.9172 57.1893 15.4865 56.2333C14.0558 55.2774 12.9407 53.9186 12.2822 52.3289C11.6238 50.7392 11.4515 48.9899 11.7872 47.3022C12.1228 45.6146 12.9514 44.0644 14.1682 42.8477C15.3849 41.631 16.9351 40.8024 18.6227 40.4667C20.3103 40.131 22.0596 40.3033 23.6493 40.9618C25.239 41.6203 26.5978 42.7354 27.5538 44.1661C28.5097 45.5968 29.02 47.2788 29.02 48.9995C29.02 50.142 28.795 51.2733 28.3577 52.3289C27.9205 53.3844 27.2797 54.3435 26.4718 55.1514C25.6639 55.9592 24.7049 56.6001 23.6493 57.0373C22.5938 57.4745 21.4625 57.6995 20.32 57.6995ZM20.32 44.2995C19.3904 44.2995 18.4817 44.5752 17.7088 45.0916C16.9359 45.6081 16.3335 46.3421 15.9778 47.2009C15.622 48.0597 15.5289 49.0047 15.7103 49.9165C15.8916 50.8282 16.3393 51.6656 16.9966 52.3229C17.6539 52.9802 18.4914 53.4279 19.4031 53.6092C20.3148 53.7906 21.2598 53.6975 22.1186 53.3418C22.9774 52.986 23.7114 52.3836 24.2279 51.6107C24.7443 50.8378 25.02 49.9291 25.02 48.9995C25.02 47.753 24.5248 46.5576 23.6434 45.6761C22.762 44.7947 21.5665 44.2995 20.32 44.2995Z" fill="#D6242D"/>
</svg>
