<svg width="100" height="100" viewBox="0 0 100 100" fill="none" xmlns="http://www.w3.org/2000/svg">
<g clip-path="url(#clip0_2385_9600)">
<path d="M100 0H0V100H100V0Z" fill="url(#paint0_linear_2385_9600)"/>
<path d="M32.6667 82.667C32.4774 82.6668 32.2903 82.6263 32.1179 82.5481C31.9454 82.4699 31.7916 82.3559 31.6667 82.2137L27 76.8804C26.7856 76.6373 26.6672 76.3245 26.6667 76.0004V72.5604L23.0534 68.947C22.9284 68.8231 22.8292 68.6756 22.7615 68.5131C22.6938 68.3507 22.659 68.1764 22.659 68.0004C22.659 67.8244 22.6938 67.6501 22.7615 67.4876C22.8292 67.3251 22.9284 67.1777 23.0534 67.0537L26.6667 63.4537V61.8937L23.0534 58.2804C22.9284 58.1564 22.8292 58.0089 22.7615 57.8465C22.6938 57.684 22.659 57.5097 22.659 57.3337C22.659 57.1577 22.6938 56.9834 22.7615 56.8209C22.8292 56.6585 22.9284 56.511 23.0534 56.387L26.6667 52.787V49.5604C23.4873 48.3441 20.7588 46.1797 18.8508 43.3606C16.9428 40.5415 15.9476 37.204 16 33.8004C16.0265 29.3801 17.8079 25.1514 20.9523 22.0445C24.0966 18.9377 28.3464 17.2072 32.7667 17.2337C37.187 17.2602 41.4157 19.0416 44.5225 22.186C47.6294 25.3303 49.3599 29.5801 49.3334 34.0004C49.3459 37.3687 48.3318 40.6608 46.4261 43.4383C44.5205 46.2157 41.8138 48.3466 38.6667 49.547V77.3337C38.6667 77.5263 38.625 77.7166 38.5444 77.8915C38.4639 78.0665 38.3464 78.2219 38.2 78.347L33.5333 82.347C33.2918 82.5536 32.9845 82.6671 32.6667 82.667ZM29.3334 75.4937L32.8 79.4937L36 76.7204V48.6004C35.9866 48.3063 36.0708 48.016 36.2396 47.7748C36.4085 47.5336 36.6524 47.3551 36.9334 47.267C40.1064 46.2454 42.8102 44.1241 44.5577 41.2853C46.3051 38.4465 46.9811 35.077 46.4641 31.7839C45.947 28.4907 44.2707 25.4906 41.7374 23.324C39.204 21.1574 35.9802 19.9668 32.6467 19.9668C29.3132 19.9668 26.0893 21.1574 23.556 23.324C21.0226 25.4906 19.3464 28.4907 18.8293 31.7839C18.3122 35.077 18.9883 38.4465 20.7357 41.2853C22.4831 44.1241 25.187 46.2454 28.36 47.267C28.6484 47.3477 28.9013 47.5231 29.0778 47.765C29.2544 48.0068 29.3444 48.3011 29.3334 48.6004V53.3337C29.3344 53.5092 29.3007 53.6831 29.2344 53.8456C29.168 54.008 29.0703 54.1558 28.9467 54.2804L25.8934 57.3337L28.9467 60.387C29.0703 60.5116 29.168 60.6594 29.2344 60.8218C29.3007 60.9843 29.3344 61.1582 29.3334 61.3337V64.0004C29.3319 64.3502 29.193 64.6854 28.9467 64.9337L25.8934 68.0004L28.9467 71.0537C29.0703 71.1783 29.168 71.326 29.2344 71.4885C29.3007 71.6509 29.3344 71.8249 29.3334 72.0004V75.4937ZM32.6667 35.3337C31.48 35.3337 30.32 34.9818 29.3333 34.3225C28.3466 33.6632 27.5775 32.7262 27.1234 31.6298C26.6693 30.5334 26.5505 29.327 26.782 28.1632C27.0135 26.9993 27.5849 25.9302 28.424 25.0911C29.2632 24.2519 30.3323 23.6805 31.4961 23.449C32.66 23.2175 33.8664 23.3363 34.9628 23.7904C36.0591 24.2445 36.9962 25.0136 37.6555 26.0003C38.3148 26.987 38.6667 28.147 38.6667 29.3337C38.6632 30.9239 38.0299 32.448 36.9054 33.5724C35.781 34.6969 34.2569 35.3302 32.6667 35.3337ZM32.6667 26.0004C32.0074 26.0004 31.3629 26.1959 30.8148 26.5621C30.2666 26.9284 29.8394 27.449 29.5871 28.0581C29.3348 28.6672 29.2688 29.3374 29.3974 29.984C29.526 30.6306 29.8435 31.2245 30.3097 31.6907C30.7758 32.1569 31.3698 32.4744 32.0164 32.603C32.663 32.7316 33.3332 32.6656 33.9423 32.4133C34.5514 32.161 35.072 31.7338 35.4382 31.1856C35.8045 30.6374 36 29.993 36 29.3337C36 28.4496 35.6488 27.6018 35.0237 26.9767C34.3986 26.3516 33.5507 26.0004 32.6667 26.0004Z" fill="white"/>
<path d="M81.4534 73.3337H41.3334V70.667H81.3334V41.3337H52V38.667H81.4534C82.1207 38.6634 82.7625 38.9233 83.2393 39.3901C83.7161 39.857 83.9895 40.4931 84 41.1604V70.8404C83.9895 71.5076 83.7161 72.1437 83.2393 72.6106C82.7625 73.0774 82.1207 73.3373 81.4534 73.3337Z" fill="white"/>
<path d="M46 60.6667C44.9451 60.6667 43.914 60.3539 43.0369 59.7678C42.1599 59.1818 41.4763 58.3489 41.0726 57.3743C40.6689 56.3998 40.5633 55.3274 40.7691 54.2929C40.9749 53.2583 41.4828 52.308 42.2287 51.5621C42.9746 50.8162 43.9249 50.3083 44.9595 50.1025C45.994 49.8967 47.0664 50.0023 48.0409 50.406C49.0155 50.8096 49.8484 51.4932 50.4345 52.3703C51.0205 53.2474 51.3333 54.2785 51.3333 55.3333C51.3333 56.7478 50.7714 58.1044 49.7712 59.1046C48.771 60.1048 47.4145 60.6667 46 60.6667ZM46 52.6667C45.4725 52.6667 44.957 52.8231 44.5184 53.1161C44.0799 53.4091 43.7381 53.8256 43.5363 54.3128C43.3345 54.8001 43.2816 55.3363 43.3845 55.8536C43.4874 56.3709 43.7414 56.846 44.1143 57.219C44.4873 57.5919 44.9624 57.8459 45.4797 57.9488C45.997 58.0517 46.5332 57.9989 47.0205 57.797C47.5077 57.5952 47.9242 57.2534 48.2172 56.8149C48.5102 56.3763 48.6666 55.8608 48.6666 55.3333C48.6666 54.6261 48.3857 53.9478 47.8856 53.4477C47.3855 52.9476 46.7072 52.6667 46 52.6667Z" fill="white"/>
<path d="M59.3333 60.6667C58.2785 60.6667 57.2474 60.3539 56.3703 59.7678C55.4932 59.1818 54.8096 58.3489 54.406 57.3743C54.0023 56.3998 53.8967 55.3274 54.1025 54.2929C54.3083 53.2583 54.8162 52.308 55.5621 51.5621C56.308 50.8162 57.2583 50.3083 58.2929 50.1025C59.3274 49.8967 60.3998 50.0023 61.3743 50.406C62.3489 50.8096 63.1818 51.4932 63.7678 52.3703C64.3539 53.2474 64.6667 54.2785 64.6667 55.3333C64.6667 56.7478 64.1048 58.1044 63.1046 59.1046C62.1044 60.1048 60.7478 60.6667 59.3333 60.6667ZM59.3333 52.6667C58.8059 52.6667 58.2903 52.8231 57.8518 53.1161C57.4133 53.4091 57.0715 53.8256 56.8697 54.3128C56.6678 54.8001 56.615 55.3363 56.7179 55.8536C56.8208 56.3709 57.0748 56.846 57.4477 57.219C57.8207 57.5919 58.2958 57.8459 58.8131 57.9488C59.3304 58.0517 59.8666 57.9989 60.3538 57.797C60.8411 57.5952 61.2576 57.2534 61.5506 56.8149C61.8436 56.3763 62 55.8608 62 55.3333C62 54.6261 61.719 53.9478 61.219 53.4477C60.7189 52.9476 60.0406 52.6667 59.3333 52.6667Z" fill="white"/>
<path d="M50.6667 64H41.3334V66.6667H50.6667V64Z" fill="white"/>
<path d="M64 64H54.6667V66.6667H64V64Z" fill="white"/>
<path d="M77.3333 64H68V66.6667H77.3333V64Z" fill="white"/>
</g>
<defs>
<linearGradient id="paint0_linear_2385_9600" x1="-20.7107" y1="120.707" x2="120.711" y2="-20.7147" gradientUnits="userSpaceOnUse">
<stop stop-color="#BD0816"/>
<stop offset="1" stop-color="#FF5252"/>
</linearGradient>
<clipPath id="clip0_2385_9600">
<rect width="100" height="100" fill="white"/>
</clipPath>
</defs>
</svg>
