<svg width="100" height="100" viewBox="0 0 100 100" fill="none" xmlns="http://www.w3.org/2000/svg">
<g clip-path="url(#clip0_2385_9597)">
<path d="M100 0H0V100H100V0Z" fill="url(#paint0_linear_2385_9597)"/>
<path d="M65.3333 25.3331L50.6667 16.8398C50.464 16.7227 50.2341 16.6611 50 16.6611C49.766 16.6611 49.536 16.7227 49.3333 16.8398L34.6667 25.3331C34.4632 25.4506 34.2944 25.6197 34.1773 25.8234C34.0602 26.0271 33.9991 26.2582 34 26.4931V43.4264C33.9991 43.6614 34.0602 43.8924 34.1773 44.0961C34.2944 44.2998 34.4632 44.469 34.6667 44.5864L49.3333 53.0531C49.536 53.1701 49.766 53.2317 50 53.2317C50.2341 53.2317 50.464 53.1701 50.6667 53.0531L65.3333 44.5864C65.5368 44.469 65.7056 44.2998 65.8227 44.0961C65.9398 43.8924 66.0009 43.6614 66 43.4264V26.4664C65.9963 26.236 65.9329 26.0105 65.8161 25.8119C65.6993 25.6132 65.5329 25.4483 65.3333 25.3331ZM48.6667 49.5598L36.6667 42.6664V28.7864L48.6667 35.7064V49.5598ZM50 33.3998L38 26.4664L50 19.5331L62 26.4664L50 33.3998ZM63.3333 42.6664L51.3333 49.5864V35.7064L63.3333 28.7864V42.6664Z" fill="white"/>
<path d="M81.9999 67.333H76.6666V60.6663C76.6666 60.3127 76.5261 59.9736 76.2761 59.7235C76.026 59.4735 75.6869 59.333 75.3333 59.333H51.3333V55.333H48.6666V59.333H24.6666C24.313 59.333 23.9739 59.4735 23.7238 59.7235C23.4738 59.9736 23.3333 60.3127 23.3333 60.6663V67.333H18C17.6463 67.333 17.3072 67.4735 17.0572 67.7235C16.8071 67.9736 16.6666 68.3127 16.6666 68.6663V81.9997C16.6666 82.3533 16.8071 82.6924 17.0572 82.9425C17.3072 83.1925 17.6463 83.333 18 83.333H31.3333C31.6869 83.333 32.0261 83.1925 32.2761 82.9425C32.5261 82.6924 32.6666 82.3533 32.6666 81.9997V68.6663C32.6666 68.3127 32.5261 67.9736 32.2761 67.7235C32.0261 67.4735 31.6869 67.333 31.3333 67.333H26V61.9997H48.6666V67.333H43.3333C42.9797 67.333 42.6405 67.4735 42.3905 67.7235C42.1404 67.9736 42 68.3127 42 68.6663V81.9997C42 82.3533 42.1404 82.6924 42.3905 82.9425C42.6405 83.1925 42.9797 83.333 43.3333 83.333H56.6666C57.0202 83.333 57.3594 83.1925 57.6094 82.9425C57.8595 82.6924 58 82.3533 58 81.9997V68.6663C58 68.3127 57.8595 67.9736 57.6094 67.7235C57.3594 67.4735 57.0202 67.333 56.6666 67.333H51.3333V61.9997H74V67.333H68.6666C68.313 67.333 67.9739 67.4735 67.7238 67.7235C67.4738 67.9736 67.3333 68.3127 67.3333 68.6663V81.9997C67.3333 82.3533 67.4738 82.6924 67.7238 82.9425C67.9739 83.1925 68.313 83.333 68.6666 83.333H81.9999C82.3536 83.333 82.6927 83.1925 82.9428 82.9425C83.1928 82.6924 83.3333 82.3533 83.3333 81.9997V68.6663C83.3333 68.3127 83.1928 67.9736 82.9428 67.7235C82.6927 67.4735 82.3536 67.333 81.9999 67.333ZM30 69.9997V80.6663H19.3333V69.9997H30ZM55.3333 69.9997V80.6663H44.6666V69.9997H55.3333ZM80.6666 80.6663H70V69.9997H80.6666V80.6663Z" fill="white"/>
</g>
<defs>
<linearGradient id="paint0_linear_2385_9597" x1="-20.7107" y1="120.715" x2="120.711" y2="-20.7067" gradientUnits="userSpaceOnUse">
<stop stop-color="#BD0816"/>
<stop offset="1" stop-color="#FF5252"/>
</linearGradient>
<clipPath id="clip0_2385_9597">
<rect width="100" height="100" fill="white"/>
</clipPath>
</defs>
</svg>
