<svg width="100" height="100" viewBox="0 0 100 100" fill="none" xmlns="http://www.w3.org/2000/svg">
<path d="M46.98 72.6598H6.98001V66.4198C6.97001 59.0628 9.4307 51.9155 13.9675 46.1238C18.5044 40.3322 24.8546 36.2317 32 34.4798L32.74 34.2998L33.42 34.6598C35.6993 35.88 38.2447 36.5185 40.83 36.5185C43.4154 36.5185 45.9607 35.88 48.24 34.6598L48.92 34.2998L49.66 34.4798C56.0825 36.0728 61.8791 39.5563 66.3 44.4798L63.34 47.1598C59.5911 43.0225 54.7312 40.051 49.34 38.5998C46.6623 39.8972 43.7255 40.5712 40.75 40.5712C37.7745 40.5712 34.8377 39.8972 32.16 38.5998C26.0587 40.2688 20.6741 43.8947 16.8333 48.9206C12.9925 53.9465 10.908 60.0944 10.9 66.4198V68.6598H46.9L46.98 72.6598Z" fill="#D6242D"/>
<path d="M40.7999 40.4398C37.7827 40.4487 34.8117 39.6991 32.1599 38.2598C28.6487 36.3443 25.8754 33.314 24.2779 29.6471C22.6804 25.9802 22.3498 21.8858 23.3381 18.0101C24.3265 14.1344 26.5776 10.6983 29.736 8.24423C32.8944 5.79019 36.7802 4.45801 40.7799 4.45801C44.7796 4.45801 48.6654 5.79019 51.8239 8.24423C54.9823 10.6983 57.2333 14.1344 58.2217 18.0101C59.2101 21.8858 58.8794 25.9802 57.2819 29.6471C55.6845 33.314 52.9112 36.3443 49.3999 38.2598C46.7564 39.6832 43.8023 40.432 40.7999 40.4398ZM40.7999 8.95977C37.726 8.90086 34.7214 9.8761 32.2681 11.729C29.8148 13.582 28.0549 16.2052 27.2708 19.178C26.4867 22.1508 26.7237 25.3008 27.944 28.1227C29.1642 30.9446 31.2969 33.2749 33.9999 34.7398C36.0665 35.8479 38.375 36.4278 40.7199 36.4278C43.0648 36.4278 45.3734 35.8479 47.4399 34.7398C50.1298 33.2809 52.2547 30.9647 53.4769 28.1593C54.6991 25.354 54.9484 22.2206 54.1852 19.2573C53.4219 16.294 51.69 13.6709 49.2646 11.8051C46.8393 9.93923 43.8598 8.93771 40.7999 8.95977Z" fill="#D6242D"/>
<path d="M71.82 95.3597L50.54 83.0797V58.4997L71.82 46.2197L93.1 58.4997V83.0797L71.82 95.3597ZM54.54 80.7597L71.82 90.7597L89.1 80.7597V60.7597L71.82 50.7597L54.54 60.7597V80.7597Z" fill="#D6242D"/>
<path d="M71.82 73.1004L51.54 61.4004L53.54 57.9404L71.82 68.4804L90.1 57.9404L92.1 61.4004L71.82 73.1004Z" fill="#D6242D"/>
<path d="M73.8199 70.7998H69.8199V93.0598H73.8199V70.7998Z" fill="#D6242D"/>
</svg>
