<svg width="100" height="100" viewBox="0 0 100 100" fill="none" xmlns="http://www.w3.org/2000/svg">
<path d="M84.8801 64.5998H67.6201V60.5998H80.8801V60.4798C80.8834 57.5846 79.9503 54.7661 78.2201 52.4448C76.4899 50.1235 74.0555 48.4239 71.2801 47.5998C69.9026 48.2178 68.4099 48.5373 66.9001 48.5373C65.3903 48.5373 63.8976 48.2178 62.5201 47.5998C61.2148 47.9895 59.9795 48.5836 58.8601 49.3598L56.6001 45.9998C58.3091 44.82 60.2211 43.9657 62.2401 43.4798L63.0001 43.2998L63.6801 43.6598C64.6688 44.1954 65.7756 44.476 66.9001 44.476C68.0246 44.476 69.1314 44.1954 70.1201 43.6598L70.8001 43.2998L71.5601 43.4798C75.3589 44.3997 78.7379 46.5705 81.1538 49.643C83.5698 52.7155 84.8822 56.5112 84.8801 60.4198V64.5998Z" fill="#D6242D"/>
<path d="M66.8801 48.5001C65.2038 48.4973 63.5544 48.0781 62.0801 47.2801C60.1297 46.2158 58.5892 44.5322 57.702 42.495C56.8147 40.4579 56.6312 38.1833 57.1804 36.0303C57.7296 33.8772 58.9802 31.9685 60.7349 30.6052C62.4895 29.242 64.6482 28.502 66.8701 28.502C69.0921 28.502 71.2508 29.242 73.0054 30.6052C74.76 31.9685 76.0107 33.8772 76.5599 36.0303C77.1091 38.1833 76.9255 40.4579 76.0383 42.495C75.1511 44.5322 73.6106 46.2158 71.6601 47.2801C70.1937 48.0796 68.5503 48.499 66.8801 48.5001ZM66.8801 32.7401C65.306 32.7399 63.7948 33.3583 62.6724 34.462C61.5501 35.5656 60.9064 37.0662 60.8801 38.6401C60.891 39.6954 61.1866 40.7282 61.7357 41.6294C62.2849 42.5305 63.0672 43.2667 64.0001 43.7601C64.8832 44.2433 65.8736 44.4965 66.8801 44.4965C67.8867 44.4965 68.8771 44.2433 69.7601 43.7601C70.687 43.2631 71.4624 42.525 72.0045 41.6238C72.5466 40.7226 72.8353 39.6918 72.8401 38.6401C72.814 37.0731 72.1759 35.5785 71.0621 34.4759C69.9483 33.3734 68.4473 32.7503 66.8801 32.7401Z" fill="#D6242D"/>
<path d="M64.34 74.5397H15.12V69.5397C15.1137 64.1967 16.9054 59.007 20.2067 54.8059C23.5081 50.6049 28.127 47.6369 33.32 46.3797L34.08 46.1797L34.74 46.5597C36.2749 47.3929 37.9936 47.8293 39.74 47.8293C41.4864 47.8293 43.2052 47.3929 44.74 46.5597L45.42 46.1997L46.16 46.3797C51.3604 47.6291 55.9884 50.5938 59.2976 54.7956C62.6067 58.9974 64.4042 64.1913 64.4 69.5397L64.34 74.5397ZM19.12 70.5397H60.34V69.5397C60.3395 65.2125 58.9244 61.0042 56.3102 57.556C53.6961 54.1078 50.0262 51.6087 45.86 50.4397C43.9367 51.3342 41.8412 51.7976 39.72 51.7976C37.5989 51.7976 35.5033 51.3342 33.58 50.4397C29.4158 51.6094 25.7486 54.1092 23.1378 57.5578C20.527 61.0064 19.116 65.2143 19.12 69.5397V70.5397Z" fill="#D6242D"/>
<path d="M39.6999 51.7596C37.4624 51.7617 35.2607 51.1975 33.2999 50.1196C30.7195 48.7033 28.6837 46.4687 27.5132 43.7679C26.3428 41.067 26.1043 38.0535 26.8354 35.2022C27.5664 32.3509 29.2254 29.8238 31.551 28.0193C33.8765 26.2148 36.7364 25.2354 39.6799 25.2354C42.6235 25.2354 45.4834 26.2148 47.8089 28.0193C50.1344 29.8238 51.7934 32.3509 52.5245 35.2022C53.2555 38.0535 53.017 41.067 51.8466 43.7679C50.6762 46.4687 48.6404 48.7033 46.0599 50.1196C44.1082 51.1838 41.9229 51.7473 39.6999 51.7596ZM39.6999 29.4596C37.2581 29.449 34.9117 30.4074 33.1757 32.1247C31.4397 33.842 30.4558 36.1778 30.4399 38.6196C30.4375 40.2585 30.8787 41.8675 31.7167 43.276C32.5548 44.6845 33.7584 45.8398 35.1999 46.6196C36.576 47.3635 38.1156 47.7531 39.6799 47.7531C41.2442 47.7531 42.7839 47.3635 44.1599 46.6196C45.6066 45.8442 46.8155 44.6903 47.6574 43.2813C48.4993 41.8723 48.9426 40.261 48.9399 38.6196C48.9347 37.4114 48.6915 36.2161 48.2243 35.1019C47.7571 33.9878 47.0751 32.9765 46.2171 32.1259C45.359 31.2753 44.3419 30.6021 43.2237 30.1446C42.1055 29.6871 40.9081 29.4543 39.6999 29.4596Z" fill="#D6242D"/>
<path d="M97.6799 90.8801H2.31995V9.12012H97.6799V90.8801ZM6.31995 86.8801H93.6799V13.1201H6.31995V86.8801Z" fill="#D6242D"/>
</svg>
