<svg width="100" height="100" viewBox="0 0 100 100" fill="none" xmlns="http://www.w3.org/2000/svg">
<g clip-path="url(#clip0_2385_9617)">
<path d="M100 0H0V100H100V0Z" fill="url(#paint0_linear_2385_9617)"/>
<path d="M68.6666 64.667H43.3333V67.3337H68.6666V64.667Z" fill="white"/>
<path d="M37.9999 64.667H31.3333V67.3337H37.9999V64.667Z" fill="white"/>
<path d="M59.3333 70H43.3333V72.6667H59.3333V70Z" fill="white"/>
<path d="M37.9999 70H31.3333V72.6667H37.9999V70Z" fill="white"/>
<path d="M82 27.334H18V30.0007H82V27.334Z" fill="white"/>
<path d="M82 80.6668H75.3333V78.0001H80.9333V22.0001H19.3333V78.0001H62V80.6668H18C17.6463 80.6668 17.3072 80.5263 17.0572 80.2763C16.8071 80.0262 16.6666 79.6871 16.6666 79.3335V20.6668C16.6666 20.3132 16.8071 19.974 17.0572 19.724C17.3072 19.4739 17.6463 19.3335 18 19.3335H81.92C82.1017 19.3225 82.2837 19.3489 82.4548 19.411C82.6259 19.4731 82.7825 19.5696 82.9149 19.6945C83.0473 19.8194 83.1528 19.9702 83.2247 20.1374C83.2967 20.3046 83.3336 20.4848 83.3333 20.6668V79.3335C83.3343 79.5089 83.3007 79.6829 83.2343 79.8453C83.168 80.0078 83.0702 80.1555 82.9466 80.2801C82.822 80.4037 82.6743 80.5015 82.5118 80.5678C82.3494 80.6342 82.1754 80.6678 82 80.6668Z" fill="white"/>
<path d="M42.2934 59.4534C42.0155 59.4516 41.7451 59.363 41.52 59.2C41.3132 59.0519 41.153 58.8476 41.0585 58.6113C40.964 58.375 40.9391 58.1167 40.9867 57.8667L42.32 49.9734L36.5734 44.3734C36.4046 44.1972 36.2875 43.9781 36.2347 43.74C36.1818 43.5018 36.1953 43.2538 36.2737 43.0228C36.3521 42.7918 36.4923 42.5867 36.6792 42.4299C36.866 42.2731 37.0923 42.1705 37.3334 42.1334L45.2534 40.9734L48.8 33.7867C48.909 33.5643 49.0777 33.3767 49.2873 33.2448C49.4969 33.1129 49.7391 33.042 49.9867 33.04C50.2366 33.0395 50.4816 33.1093 50.6938 33.2413C50.9059 33.3733 51.0767 33.5623 51.1867 33.7867L54.7334 40.9734L62.7334 42.1067C62.9814 42.1405 63.2149 42.2434 63.4072 42.4036C63.5995 42.5639 63.7428 42.775 63.8207 43.0129C63.8986 43.2508 63.9079 43.5058 63.8477 43.7487C63.7874 43.9917 63.66 44.2128 63.48 44.3867L57.7467 49.9867L59.08 57.88C59.1276 58.13 59.1027 58.3884 59.0082 58.6246C58.9137 58.8609 58.7536 59.0652 58.5467 59.2134C58.3451 59.3575 58.1073 59.4426 57.86 59.4591C57.6127 59.4756 57.3657 59.4228 57.1467 59.3067L50.0534 55.5867L42.96 59.32C42.7531 59.4214 42.5234 59.4673 42.2934 59.4534ZM40.3867 44.3734L44.6934 48.5734C44.8477 48.7233 44.9635 48.9082 45.0308 49.1126C45.0981 49.3169 45.115 49.5345 45.08 49.7467L44.0667 55.68L49.4 52.88C49.5913 52.7796 49.804 52.7271 50.02 52.7271C50.236 52.7271 50.4488 52.7796 50.64 52.88L55.9734 55.6667L54.96 49.7467C54.9211 49.5335 54.9348 49.3139 54.9998 49.1072C55.0649 48.9004 55.1794 48.7126 55.3334 48.56L59.64 44.36L53.6934 43.5067C53.4774 43.4767 53.272 43.3941 53.0954 43.2662C52.9187 43.1384 52.7761 42.9692 52.68 42.7734L50.0134 37.44L47.3467 42.84C47.2502 43.0316 47.109 43.1971 46.9349 43.3225C46.7608 43.4478 46.559 43.5293 46.3467 43.56L40.3867 44.3734Z" fill="white"/>
</g>
<defs>
<linearGradient id="paint0_linear_2385_9617" x1="-20.7107" y1="120.715" x2="120.711" y2="-20.7067" gradientUnits="userSpaceOnUse">
<stop stop-color="#BD0816"/>
<stop offset="1" stop-color="#FF5252"/>
</linearGradient>
<clipPath id="clip0_2385_9617">
<rect width="100" height="100" fill="white"/>
</clipPath>
</defs>
</svg>
