<svg width="100" height="100" viewBox="0 0 100 100" fill="none" xmlns="http://www.w3.org/2000/svg">
<g clip-path="url(#clip0_2385_9619)">
<path d="M100 0H0V100H100V0Z" fill="url(#paint0_linear_2385_9619)"/>
<path d="M63.0934 51.1338C62.9005 51.031 62.6853 50.9773 62.4667 50.9773C62.2482 50.9773 62.033 51.031 61.8401 51.1338C61.6416 51.2352 61.4717 51.3847 61.3459 51.5687C61.2201 51.7527 61.1425 51.9653 61.1201 52.1871C60.9929 53.4583 60.7383 54.7135 60.3601 55.9338C60.1989 50.8038 58.1086 45.9234 54.5067 42.2671C52.7096 40.4415 50.601 38.9515 48.2801 37.8671C46.2445 36.3193 43.8584 35.298 41.3334 34.8938C41.0411 34.8404 40.7394 34.8862 40.4761 35.0239C40.2128 35.1616 40.003 35.3833 39.8801 35.6538C39.758 35.9223 39.7285 36.2237 39.796 36.5108C39.8636 36.7979 40.0244 37.0545 40.2534 37.2404C41.8918 38.8667 43.0829 40.8883 43.7112 43.1096C44.3395 45.331 44.3839 47.6769 43.8401 49.9204C42.1067 47.5871 39.2534 44.5871 35.8401 44.5871C35.6239 44.5889 35.4115 44.6433 35.221 44.7455C35.0305 44.8477 34.8678 44.9947 34.7467 45.1738C34.6251 45.3512 34.5483 45.5555 34.5228 45.7691C34.4972 45.9827 34.5237 46.1993 34.6001 46.4004C34.6001 46.4804 37.7734 54.7204 34.7334 59.5071C34.5734 59.7471 34.4267 59.9871 34.2667 60.2538C32.6289 63.2485 32.1531 66.7421 32.9305 70.0657C33.7079 73.3894 35.6839 76.3095 38.4801 78.2671C41.3759 80.2204 44.5133 81.7891 47.8134 82.9338L48.0134 83.0138V82.9338L48.4401 83.1071H48.5601C50.1734 82.9604 64.2934 81.3604 67.2267 70.3471C70.9601 55.6404 63.4001 51.3204 63.0934 51.1338ZM40.0001 76.0804C37.74 74.5075 36.1421 72.1537 35.5143 69.4727C34.8865 66.7917 35.2733 63.9732 36.6001 61.5604C36.7067 61.3471 36.8401 61.1338 36.9734 60.9204C39.6401 56.7738 38.6934 51.0271 37.8534 47.8138C40.0777 49.356 41.9053 51.4029 43.1867 53.7871C43.3071 54.0146 43.4908 54.2023 43.7156 54.3277C43.9403 54.4531 44.1966 54.5108 44.4534 54.4938C44.7128 54.4743 44.9609 54.3793 45.167 54.2206C45.3731 54.0618 45.5283 53.8463 45.6134 53.6004C47.9867 46.8404 46.5467 41.8804 44.8401 38.8138C45.4191 39.1065 45.9684 39.4548 46.4801 39.8538C46.5334 39.913 46.5965 39.9626 46.6667 40.0004C47.2385 40.4457 47.7695 40.941 48.2534 41.4804C48.4109 41.6454 48.5536 41.8239 48.6801 42.0138C50.4828 44.4014 51.4229 47.3296 51.3467 50.3204C51.3059 53.7565 50.388 57.1252 48.6801 60.1071C48.4001 60.6138 48.1601 61.1204 47.9067 61.6404C45.4748 67.2841 44.9597 73.5694 46.4401 79.5338C44.1836 78.6002 42.0262 77.4433 40.0001 76.0804ZM64.5867 69.6804C62.4934 77.6804 52.4667 79.8538 49.3467 80.3471C47.5704 74.5788 47.8916 68.3681 50.2534 62.8138C50.4667 62.3604 50.6934 61.916 50.9334 61.4804C52.8744 58.103 53.9122 54.2824 53.9467 50.3871C53.9579 48.4427 53.647 46.5099 53.0267 44.6671C56.0001 47.8538 58.6667 53.1204 57.3334 61.1471C57.2881 61.4148 57.3257 61.69 57.4411 61.9358C57.5564 62.1816 57.7441 62.3863 57.9789 62.5225C58.2138 62.6588 58.4846 62.7201 58.7553 62.6983C59.0259 62.6765 59.2834 62.5726 59.4934 62.4004C59.6134 62.2938 62.1601 60.1738 63.3334 54.9738C64.9067 57.0004 66.7334 61.3338 64.6001 69.6804H64.5867Z" fill="white"/>
<path d="M48 82.9336V83.0136C48.1471 83.0778 48.3062 83.1096 48.4667 83.1069L48 82.9336Z" fill="white"/>
<path d="M20.2267 50.2273C20.2267 50.0007 20.2267 49.7873 20.2267 49.5607C21.5892 49.5724 22.9152 49.12 23.9864 48.278C25.0577 47.4359 25.8104 46.2543 26.1208 44.9275C26.4311 43.6007 26.2806 42.2078 25.6941 40.9779C25.1075 39.7481 24.1197 38.7545 22.8934 38.1607C24.7813 33.9618 27.6371 30.2699 31.2267 27.3873L29.52 25.334C25.4446 28.5849 22.238 32.7947 20.1867 37.5873C18.836 37.5998 17.529 38.0677 16.4772 38.9154C15.4255 39.763 14.6905 40.9407 14.3913 42.2579C14.092 43.5752 14.246 44.9548 14.8284 46.1737C15.4107 47.3925 16.3873 48.3792 17.6 48.974C17.6 49.4007 17.6 49.8451 17.6 50.3073C17.6015 54.8858 18.5854 59.4106 20.4854 63.5762C22.3853 67.7419 25.1571 71.4513 28.6134 74.454L30.3867 72.454C27.1949 69.6973 24.6351 66.2848 22.8818 62.4491C21.1284 58.6134 20.2228 54.4447 20.2267 50.2273ZM16.8934 43.5606C16.8934 42.9014 17.0889 42.2569 17.4551 41.7088C17.8214 41.1606 18.342 40.7333 18.9511 40.4811C19.5602 40.2288 20.2304 40.1628 20.877 40.2914C21.5236 40.42 22.1175 40.7375 22.5837 41.2036C23.0499 41.6698 23.3674 42.2637 23.496 42.9104C23.6246 43.557 23.5586 44.2272 23.3063 44.8363C23.054 45.4454 22.6268 45.9659 22.0786 46.3322C21.5304 46.6985 20.886 46.894 20.2267 46.894C19.3426 46.894 18.4948 46.5428 17.8697 45.9177C17.2445 45.2926 16.8934 44.4447 16.8934 43.5606Z" fill="white"/>
<path d="M79.7734 38.8934H79.4934C78.7903 36.9735 77.8969 35.1288 76.8267 33.3867L74.5734 34.8001C75.5137 36.3239 76.3126 37.9306 76.96 39.6001C75.8519 40.1991 74.9604 41.1317 74.4119 42.2657C73.8634 43.3997 73.6857 44.6775 73.904 45.9181C74.1223 47.1588 74.7256 48.2992 75.6283 49.1778C76.531 50.0564 77.6873 50.6287 78.9334 50.8134C78.8367 56.8768 76.8408 62.7572 73.2267 67.6267L75.3467 69.2267C79.3731 63.833 81.5648 57.2908 81.6 50.56C82.9729 50.1365 84.1482 49.2344 84.9122 48.0177C85.6763 46.8011 85.9785 45.3506 85.7638 43.9301C85.5491 42.5095 84.8318 41.2132 83.7423 40.2766C82.6528 39.3401 81.2634 38.8256 79.8267 38.8267L79.7734 38.8934ZM79.7734 48.2267C79.1141 48.2267 78.4696 48.0312 77.9215 47.6649C77.3733 47.2987 76.946 46.7781 76.6938 46.169C76.4415 45.5599 76.3755 44.8897 76.5041 44.2431C76.6327 43.5965 76.9502 43.0025 77.4163 42.5364C77.8825 42.0702 78.4764 41.7527 79.1231 41.6241C79.7697 41.4955 80.4399 41.5615 81.049 41.8138C81.6581 42.0661 82.1786 42.4933 82.5449 43.0415C82.9112 43.5896 83.1067 44.2341 83.1067 44.8934C83.1067 45.7774 82.7555 46.6253 82.1304 47.2504C81.5053 47.8755 80.6574 48.2267 79.7734 48.2267Z" fill="white"/>
<path d="M63.3867 24.3599C57.8157 21.3831 51.4325 20.2842 45.1867 21.2265L44.7867 18.5599C51.6052 17.5318 58.5734 18.7337 64.6534 21.9865L63.3867 24.3599Z" fill="white"/>
<path d="M70.2267 34.2266C69.04 34.2266 67.88 33.8747 66.8933 33.2154C65.9066 32.5561 65.1375 31.619 64.6834 30.5227C64.2293 29.4263 64.1105 28.2199 64.342 27.056C64.5735 25.8921 65.1449 24.823 65.984 23.9839C66.8232 23.1448 67.8923 22.5734 69.0561 22.3419C70.22 22.1103 71.4264 22.2292 72.5228 22.6833C73.6191 23.1374 74.5562 23.9064 75.2155 24.8931C75.8748 25.8798 76.2267 27.0399 76.2267 28.2266C76.2232 29.8168 75.5899 31.3409 74.4654 32.4653C73.341 33.5898 71.8169 34.223 70.2267 34.2266ZM70.2267 24.8932C69.5674 24.8932 68.923 25.0887 68.3748 25.455C67.8266 25.8213 67.3994 26.3419 67.1471 26.951C66.8948 27.56 66.8288 28.2303 66.9574 28.8769C67.086 29.5235 67.4035 30.1174 67.8697 30.5836C68.3358 31.0498 68.9298 31.3672 69.5764 31.4958C70.223 31.6245 70.8932 31.5585 71.5023 31.3062C72.1114 31.0539 72.632 30.6266 72.9983 30.0785C73.3645 29.5303 73.56 28.8858 73.56 28.2266C73.5565 27.3436 73.2042 26.4978 72.5798 25.8734C71.9555 25.2491 71.1097 24.8967 70.2267 24.8932Z" fill="white"/>
<path d="M37.56 28.8936C36.3733 28.8936 35.2133 28.5417 34.2266 27.8824C33.2399 27.2231 32.4709 26.286 32.0167 25.1897C31.5626 24.0933 31.4438 22.8869 31.6753 21.723C31.9068 20.5591 32.4782 19.49 33.3174 18.6509C34.1565 17.8118 35.2256 17.2404 36.3895 17.0088C37.5533 16.7773 38.7597 16.8962 39.8561 17.3503C40.9525 17.8044 41.8895 18.5734 42.5488 19.5601C43.2081 20.5468 43.56 21.7069 43.56 22.8936C43.5565 24.4838 42.9232 26.0079 41.7988 27.1323C40.6743 28.2568 39.1502 28.89 37.56 28.8936ZM37.56 19.5602C36.9007 19.5602 36.2563 19.7557 35.7081 20.122C35.1599 20.4883 34.7327 21.0089 34.4804 21.6179C34.2281 22.227 34.1621 22.8973 34.2907 23.5439C34.4193 24.1905 34.7368 24.7844 35.203 25.2506C35.6692 25.7168 36.2631 26.0342 36.9097 26.1628C37.5563 26.2915 38.2265 26.2254 38.8356 25.9732C39.4447 25.7209 39.9653 25.2936 40.3316 24.7455C40.6978 24.1973 40.8933 23.5528 40.8933 22.8936C40.8898 22.0106 40.5375 21.1648 39.9131 20.5404C39.2888 19.9161 38.443 19.5637 37.56 19.5602Z" fill="white"/>
</g>
<defs>
<linearGradient id="paint0_linear_2385_9619" x1="-20.7067" y1="120.72" x2="120.72" y2="-20.7067" gradientUnits="userSpaceOnUse">
<stop stop-color="#BD0816"/>
<stop offset="1" stop-color="#FF5252"/>
</linearGradient>
<clipPath id="clip0_2385_9619">
<rect width="100" height="100" fill="white"/>
</clipPath>
</defs>
</svg>
