<svg width="100" height="100" viewBox="0 0 100 100" fill="none" xmlns="http://www.w3.org/2000/svg">
<path d="M81.9999 97H17.9999C16.5129 96.9947 15.0885 96.4003 14.0389 95.3469C12.9893 94.2935 12.3999 92.8671 12.3999 91.38V8.62C12.3999 7.13294 12.9893 5.7065 14.0389 4.65311C15.0885 3.59973 16.5129 3.00529 17.9999 3H81.9999C83.4869 3.00529 84.9113 3.59973 85.9609 4.65311C87.0105 5.7065 87.5999 7.13294 87.5999 8.62V91.38C87.5999 92.8671 87.0105 94.2935 85.9609 95.3469C84.9113 96.4003 83.4869 96.9947 81.9999 97ZM17.9999 7C17.7881 6.99998 17.5784 7.04202 17.383 7.12368C17.1875 7.20533 17.0102 7.32498 16.8614 7.47568C16.7126 7.62638 16.5951 7.80513 16.5159 8.00156C16.4367 8.198 16.3973 8.40821 16.3999 8.62V91.38C16.3973 91.5918 16.4367 91.802 16.5159 91.9984C16.5951 92.1949 16.7126 92.3736 16.8614 92.5243C17.0102 92.675 17.1875 92.7947 17.383 92.8763C17.5784 92.958 17.7881 93 17.9999 93H81.9999C82.2117 93 82.4214 92.958 82.6169 92.8763C82.8123 92.7947 82.9896 92.675 83.1384 92.5243C83.2872 92.3736 83.4047 92.1949 83.4839 91.9984C83.5631 91.802 83.6025 91.5918 83.5999 91.38V8.62C83.6025 8.40821 83.5631 8.198 83.4839 8.00156C83.4047 7.80513 83.2872 7.62638 83.1384 7.47568C82.9896 7.32498 82.8123 7.20533 82.6169 7.12368C82.4214 7.04202 82.2117 6.99998 81.9999 7H17.9999Z" fill="#D6242D"/>
<path d="M35.0001 76.98C33.8008 76.5902 32.7203 75.902 31.8601 74.98C31.2011 74.1529 30.8604 73.1169 30.9001 72.06C30.8808 71.1388 31.1386 70.233 31.6401 69.46C32.1536 68.6716 32.8824 68.0469 33.7401 67.66C34.7569 67.1998 35.8642 66.9742 36.9801 67C38.6434 67.0192 40.2896 67.3376 41.8401 67.94V70.08C40.3376 69.5711 38.7661 69.2945 37.1801 69.26C36.247 69.1958 35.3188 69.4419 34.5401 69.96C34.2294 70.1889 33.9808 70.4917 33.8167 70.8409C33.6525 71.1901 33.5781 71.5748 33.6001 71.96C33.5853 72.266 33.6346 72.5718 33.7448 72.8576C33.855 73.1435 34.0237 73.4032 34.2401 73.62C34.923 74.184 35.7118 74.6056 36.5601 74.86L38.9601 75.76C40.1368 76.149 41.1915 76.8384 42.0201 77.76C42.6636 78.5779 42.9903 79.6006 42.9401 80.64C42.9668 81.4001 42.8184 82.1562 42.5063 82.8498C42.1942 83.5434 41.7267 84.1559 41.1401 84.64C39.7576 85.7019 38.0408 86.2339 36.3001 86.14C34.4944 86.1789 32.7032 85.8098 31.0601 85.06V83.06C32.7341 83.6389 34.4891 83.9494 36.2601 83.98C37.2973 84.0369 38.3241 83.7485 39.1801 83.16C39.5209 82.9058 39.7952 82.573 39.9797 82.19C40.1643 81.8069 40.2536 81.385 40.2401 80.96C40.2531 80.6619 40.2048 80.3644 40.0981 80.0857C39.9915 79.8071 39.8288 79.5533 39.6201 79.34C39.0427 78.8024 38.3623 78.3874 37.6201 78.12L35.0001 76.98Z" fill="#D6242D"/>
<path d="M50.5401 85.6199V69.6199H44.7401V67.4199H59.0201V69.6199H53.2001V85.6199H50.5401Z" fill="#D6242D"/>
<path d="M65.0199 76.98C63.8236 76.5962 62.7482 75.9068 61.8999 74.98C61.2272 74.1593 60.8786 73.1204 60.9199 72.06C60.9101 71.1401 61.1672 70.237 61.6599 69.46C62.1862 68.6752 62.9201 68.0521 63.7799 67.66C64.7967 67.1998 65.9041 66.9742 67.0199 67C68.6832 67.0192 70.3294 67.3376 71.8799 67.94V70.08C70.3702 69.5724 68.7923 69.2959 67.1999 69.26C66.2668 69.1958 65.3386 69.4419 64.5599 69.96C64.2516 70.1899 64.0058 70.4934 63.8451 70.8428C63.6844 71.1922 63.6138 71.5763 63.6399 71.96C63.6213 72.2647 63.6668 72.5699 63.7736 72.8559C63.8805 73.1418 64.0461 73.4022 64.2599 73.62C64.9508 74.1832 65.746 74.6045 66.5999 74.86L68.9799 75.76C70.1566 76.149 71.2114 76.8384 72.0399 77.76C72.689 78.576 73.0227 79.5983 72.9799 80.64C73.0067 81.4001 72.8582 82.1562 72.5461 82.8498C72.234 83.5434 71.7666 84.1559 71.1799 84.64C69.7958 85.6987 68.0802 86.2304 66.3399 86.14C64.5275 86.182 62.7292 85.8127 61.0799 85.06V83.06C62.7543 83.6373 64.5091 83.9477 66.2799 83.98C67.3171 84.0369 68.3439 83.7485 69.1999 83.16C69.5456 82.9092 69.8248 82.5775 70.013 82.1941C70.2013 81.8107 70.2929 81.387 70.2799 80.96C70.2884 80.6625 70.2379 80.3662 70.1315 80.0882C70.0251 79.8102 69.8649 79.5559 69.6599 79.34C69.0774 78.8092 68.3985 78.395 67.6599 78.12L65.0199 76.98Z" fill="#D6242D"/>
<path d="M50.0001 52.0005C45.8933 52.0044 41.8776 50.7902 38.461 48.5115C35.0444 46.2328 32.3805 42.9919 30.8061 39.1988C29.2318 35.4058 28.8178 31.231 29.6166 27.2027C30.4153 23.1743 32.391 19.4734 35.2935 16.568C38.196 13.6627 41.8951 11.6835 45.9227 10.8808C49.9503 10.0782 54.1254 10.4881 57.92 12.0588C61.7145 13.6295 64.958 16.2904 67.24 19.7048C69.522 23.1192 70.7401 27.1337 70.7401 31.2405C70.7348 36.7413 68.5487 42.0156 64.6609 45.9071C60.7731 49.7986 55.5009 51.9899 50.0001 52.0005ZM50.0001 14.5005C46.6836 14.4965 43.4405 15.4766 40.6812 17.3167C37.922 19.1568 35.7707 21.7741 34.4997 24.8374C33.2287 27.9008 32.8951 31.2723 33.5412 34.5253C34.1872 37.7782 35.7839 40.7664 38.129 43.1116C40.4741 45.4567 43.4623 47.0533 46.7153 47.6994C49.9683 48.3454 53.3398 48.0119 56.4031 46.7408C59.4664 45.4698 62.0838 43.3186 63.9239 40.5593C65.764 37.8001 66.7441 34.557 66.7401 31.2405C66.7295 26.804 64.9625 22.5522 61.8254 19.4152C58.6883 16.2781 54.4366 14.511 50.0001 14.5005Z" fill="#D6242D"/>
<path d="M51.9999 35.1201H38.7599V31.1201H47.9999V18.1201H51.9999V35.1201Z" fill="#D6242D"/>
</svg>
