<svg width="100" height="100" viewBox="0 0 100 100" fill="none" xmlns="http://www.w3.org/2000/svg">
<path d="M82.2399 97H17.7599C16.3312 96.9947 14.9628 96.4234 13.9544 95.4113C12.9461 94.3992 12.3799 93.0287 12.3799 91.6V8.4C12.3799 6.97129 12.9461 5.6008 13.9544 4.58868C14.9628 3.57655 16.3312 3.00529 17.7599 3H65.7599L87.5599 24.8V91.6C87.56 93.0184 87.0021 94.3799 86.0067 95.3904C85.0112 96.4008 83.6581 96.979 82.2399 97ZM17.7599 7C17.577 6.99998 17.3959 7.03633 17.2271 7.10693C17.0584 7.17752 16.9053 7.28097 16.7769 7.41124C16.6485 7.54151 16.5473 7.69601 16.4791 7.86575C16.411 8.0355 16.3772 8.2171 16.3799 8.4V91.6C16.3772 91.7829 16.411 91.9645 16.4791 92.1342C16.5473 92.304 16.6485 92.4585 16.7769 92.5888C16.9053 92.719 17.0584 92.8225 17.2271 92.8931C17.3959 92.9637 17.577 93 17.7599 93H82.2399C82.4228 93 82.6039 92.9637 82.7727 92.8931C82.9414 92.8225 83.0944 92.719 83.2228 92.5888C83.3512 92.4585 83.4525 92.304 83.5206 92.1342C83.5888 91.9645 83.6225 91.7829 83.6199 91.6V26.46L64.1799 7H17.7599Z" fill="#D6242D"/>
<path d="M70.62 83.8801H29.46C28.9295 83.8801 28.4208 83.6694 28.0457 83.2943C27.6707 82.9193 27.46 82.4105 27.46 81.8801V48.1201C27.46 47.5897 27.6707 47.081 28.0457 46.7059C28.4208 46.3308 28.9295 46.1201 29.46 46.1201H70.62C71.1504 46.1201 71.6591 46.3308 72.0342 46.7059C72.4092 47.081 72.62 47.5897 72.62 48.1201V81.8801C72.62 82.4105 72.4092 82.9193 72.0342 83.2943C71.6591 83.6694 71.1504 83.8801 70.62 83.8801ZM31.46 79.8801H68.62V50.1401H31.46V79.8801Z" fill="#D6242D"/>
<path d="M63.2199 48.12H59.2199V39.18C59.2264 36.6329 58.2607 34.1794 56.5199 32.32C55.6843 31.4284 54.6743 30.7181 53.5528 30.233C52.4312 29.7479 51.2219 29.4984 49.9999 29.5C48.7839 29.5011 47.5804 29.7459 46.4605 30.2199C45.3406 30.694 44.3272 31.3876 43.4799 32.26C41.7158 34.0833 40.7328 36.523 40.7399 39.06V48.1H36.7399V39.06C36.7295 35.4878 38.123 32.0545 40.6199 29.5C41.8359 28.2391 43.2928 27.2354 44.9041 26.5483C46.5154 25.8611 48.2482 25.5047 49.9999 25.5C51.7489 25.5028 53.4794 25.8585 55.0877 26.5458C56.696 27.2331 58.1491 28.2379 59.3599 29.5C61.8205 32.0962 63.1821 35.5431 63.1599 39.12L63.2199 48.12Z" fill="#D6242D"/>
<path d="M87.6201 26.8799H83.6201V52.6599H87.6201V26.8799Z" fill="#D6242D"/>
<path d="M85.62 27.62H65C64.4696 27.62 63.9609 27.4093 63.5858 27.0342C63.2107 26.6591 63 26.1504 63 25.62V5H67V23.62H85.62V27.62Z" fill="#D6242D"/>
<path d="M50.0001 67.0402C48.2974 67.0402 46.6644 66.3638 45.4604 65.1598C44.2565 63.9558 43.5801 62.3229 43.5801 60.6202C43.5801 58.9175 44.2565 57.2846 45.4604 56.0806C46.6644 54.8766 48.2974 54.2002 50.0001 54.2002C51.7028 54.2002 53.3357 54.8766 54.5397 56.0806C55.7437 57.2846 56.4201 58.9175 56.4201 60.6202C56.4201 62.3229 55.7437 63.9558 54.5397 65.1598C53.3357 66.3638 51.7028 67.0402 50.0001 67.0402ZM50.0001 58.2002C49.6841 58.1961 49.3706 58.2559 49.0784 58.3762C48.7863 58.4966 48.5215 58.6748 48.3001 58.9002C47.9593 59.2375 47.7264 59.6684 47.6309 60.1383C47.5354 60.6082 47.5817 61.0959 47.7638 61.5394C47.9459 61.983 48.2557 62.3624 48.6539 62.6296C49.052 62.8968 49.5206 63.0397 50.0001 63.0402C50.3186 63.0429 50.6345 62.9821 50.9293 62.8614C51.2241 62.7407 51.492 62.5626 51.7172 62.3373C51.9425 62.1121 52.1206 61.8442 52.2413 61.5494C52.362 61.2546 52.4227 60.9387 52.4201 60.6202C52.4227 60.3017 52.362 59.9858 52.2413 59.691C52.1206 59.3961 51.9425 59.1283 51.7172 58.9031C51.492 58.6778 51.2241 58.4996 50.9293 58.379C50.6345 58.2583 50.3186 58.1975 50.0001 58.2002Z" fill="#D6242D"/>
<path d="M52 65H48V74.38H52V65Z" fill="#D6242D"/>
</svg>
