<svg width="100" height="100" viewBox="0 0 100 100" fill="none" xmlns="http://www.w3.org/2000/svg">
<path d="M81.9999 97H17.9999C16.5129 96.9947 15.0885 96.4003 14.0389 95.3469C12.9893 94.2935 12.3999 92.8671 12.3999 91.38V8.62C12.3999 7.13294 12.9893 5.7065 14.0389 4.65311C15.0885 3.59973 16.5129 3.00529 17.9999 3H81.9999C83.4869 3.00529 84.9113 3.59973 85.9609 4.65311C87.0105 5.7065 87.5999 7.13294 87.5999 8.62V91.38C87.5999 92.8671 87.0105 94.2935 85.9609 95.3469C84.9113 96.4003 83.4869 96.9947 81.9999 97ZM17.9999 7C17.7881 6.99998 17.5784 7.04202 17.383 7.12368C17.1875 7.20533 17.0102 7.32498 16.8614 7.47568C16.7126 7.62638 16.5951 7.80513 16.5159 8.00156C16.4367 8.198 16.3973 8.40821 16.3999 8.62V91.38C16.3973 91.5918 16.4367 91.802 16.5159 91.9984C16.5951 92.1949 16.7126 92.3736 16.8614 92.5243C17.0102 92.675 17.1875 92.7947 17.383 92.8763C17.5784 92.958 17.7881 93 17.9999 93H81.9999C82.2117 93 82.4214 92.958 82.6169 92.8763C82.8123 92.7947 82.9896 92.675 83.1384 92.5243C83.2872 92.3736 83.4047 92.1949 83.4839 91.9984C83.5631 91.802 83.6025 91.5918 83.5999 91.38V8.62C83.6025 8.40821 83.5631 8.198 83.4839 8.00156C83.4047 7.80513 83.2872 7.62638 83.1384 7.47568C82.9896 7.32498 82.8123 7.20533 82.6169 7.12368C82.4214 7.04202 82.2117 6.99998 81.9999 7H17.9999Z" fill="#D6242D"/>
<path d="M33.1599 63.2402C32.6832 63.2403 32.2222 63.07 31.8599 62.7602L28.1799 59.6002C27.9604 59.4124 27.7841 59.1794 27.6633 58.917C27.5424 58.6546 27.4799 58.3691 27.4799 58.0802V36.7202C24.5032 35.414 22.0666 33.1233 20.5792 30.2329C19.0918 27.3425 18.6442 24.0283 19.3115 20.8468C19.9788 17.6654 21.7205 14.8104 24.244 12.7613C26.7675 10.7122 29.9192 9.59375 33.1699 9.59375C36.4206 9.59375 39.5723 10.7122 42.0958 12.7613C44.6193 14.8104 46.361 17.6654 47.0283 20.8468C47.6957 24.0283 47.248 27.3425 45.7606 30.2329C44.2732 33.1233 41.8366 35.414 38.8599 36.7202V38.2402L41.4399 40.8402C41.8124 41.215 42.0215 41.7219 42.0215 42.2502C42.0215 42.7786 41.8124 43.2855 41.4399 43.6602L38.8599 46.2402V46.7002L41.4399 49.2802C41.8124 49.6549 42.0215 50.1619 42.0215 50.6902C42.0215 51.2186 41.8124 51.7255 41.4399 52.1002L38.8599 54.6802V57.0202C38.8648 57.5038 38.6942 57.9727 38.3799 58.3402L34.6799 62.5602C34.4903 62.7761 34.2563 62.9486 33.994 63.0659C33.7317 63.1833 33.4472 63.2427 33.1599 63.2402ZM31.4799 57.2402L32.9599 58.5202L34.8599 56.3602V53.8602C34.861 53.5956 34.9146 53.3338 35.0176 53.0901C35.1206 52.8463 35.2709 52.6255 35.4599 52.4402L37.1999 50.7002L35.4599 48.9402C35.2709 48.755 35.1206 48.5341 35.0176 48.2904C34.9146 48.0466 34.861 47.7848 34.8599 47.5202V45.4202C34.861 45.1556 34.9146 44.8938 35.0176 44.6501C35.1206 44.4063 35.2709 44.1855 35.4599 44.0002L37.1999 42.2402L35.4599 40.5002C35.2709 40.315 35.1206 40.0941 35.0176 39.8504C34.9146 39.6066 34.861 39.3448 34.8599 39.0802V35.3202C34.8616 34.896 34.9981 34.4833 35.2498 34.1417C35.5014 33.8002 35.8552 33.5475 36.2599 33.4202C38.5687 32.6831 40.538 31.145 41.8122 29.0834C43.0865 27.0218 43.5819 24.5726 43.2089 22.1779C42.8359 19.7831 41.6191 17.6006 39.7782 16.0243C37.9373 14.4479 35.5935 13.5815 33.1699 13.5815C30.7463 13.5815 28.4025 14.4479 26.5616 16.0243C24.7207 17.6006 23.5039 19.7831 23.1309 22.1779C22.758 24.5726 23.2533 27.0218 24.5276 29.0834C25.8018 31.145 27.7711 32.6831 30.0799 33.4202C30.4846 33.5475 30.8384 33.8002 31.09 34.1417C31.3417 34.4833 31.4782 34.896 31.4799 35.3202V57.2402ZM33.1599 25.8402C32.0386 25.8399 30.9423 25.5088 30.0082 24.8885C29.0741 24.2681 28.3437 23.386 27.9085 22.3526C27.4733 21.3192 27.3525 20.1804 27.5613 19.0787C27.7702 17.977 28.2993 16.9614 29.0825 16.1589C29.8657 15.3565 30.8682 14.8028 31.9645 14.5673C33.0609 14.3319 34.2023 14.4249 35.2459 14.835C36.2896 15.245 37.1891 15.9538 37.832 16.8725C38.4748 17.7913 38.8324 18.8792 38.8599 20.0002C38.8705 20.7545 38.7308 21.5034 38.4489 22.2031C38.1669 22.9028 37.7484 23.5393 37.2178 24.0755C36.6872 24.6118 36.0551 25.0369 35.3584 25.3261C34.6616 25.6154 33.9143 25.763 33.1599 25.7602V25.8402ZM33.1599 18.4602C32.8237 18.4602 32.495 18.5599 32.2154 18.7467C31.9359 18.9335 31.718 19.199 31.5893 19.5097C31.4606 19.8203 31.427 20.1621 31.4926 20.4919C31.5582 20.8216 31.7201 21.1246 31.9578 21.3623C32.1956 21.6001 32.4985 21.762 32.8283 21.8276C33.158 21.8932 33.4998 21.8595 33.8105 21.7308C34.1211 21.6022 34.3866 21.3843 34.5734 21.1047C34.7602 20.8251 34.8599 20.4965 34.8599 20.1602C34.8707 19.9303 34.8348 19.7006 34.7542 19.4851C34.6736 19.2695 34.5501 19.0725 34.3912 18.9061C34.2322 18.7397 34.0411 18.6072 33.8295 18.5168C33.6178 18.4264 33.39 18.38 33.1599 18.3802V18.4602Z" fill="#D6242D"/>
<path d="M78.1199 89.5H44.3799C43.8495 89.5 43.3408 89.2893 42.9657 88.9142C42.5906 88.5392 42.3799 88.0305 42.3799 87.5V59.5C42.3784 59.2368 42.4288 58.9759 42.5284 58.7322C42.6279 58.4885 42.7746 58.2669 42.9599 58.08C43.1468 57.8947 43.3684 57.748 43.6121 57.6485C43.8558 57.549 44.1167 57.4985 44.3799 57.5H78.1199C78.3845 57.5011 78.6463 57.5547 78.89 57.6577C79.1338 57.7607 79.3547 57.9111 79.5399 58.1C79.9094 58.4726 80.1177 58.9754 80.1199 59.5V87.5C80.1199 88.0305 79.9092 88.5392 79.5341 88.9142C79.1591 89.2893 78.6504 89.5 78.1199 89.5ZM46.3799 85.5H76.1199V61.38H46.3799V85.5Z" fill="#D6242D"/>
<path d="M72.5999 59.6195H68.5999V51.9995C68.671 49.973 67.9439 47.9995 66.575 46.5034C65.2061 45.0074 63.3048 44.1083 61.2799 43.9995C59.2426 44.0879 57.323 44.9788 55.9403 46.4777C54.5576 47.9766 53.8241 49.9617 53.8999 51.9995V59.7795H49.9V52.0195C49.8246 48.9211 50.9797 45.9189 53.1124 43.67C55.2451 41.4211 58.1818 40.1085 61.2799 40.0195C64.3622 40.1343 67.2755 41.4575 69.39 43.703C71.5045 45.9485 72.6504 48.9359 72.5799 52.0195L72.5999 59.6195Z" fill="#D6242D"/>
<path d="M61.26 75.72C59.83 75.6346 58.4867 75.0063 57.5044 73.9636C56.5221 72.9209 55.9751 71.5425 55.9751 70.11C55.9751 68.6775 56.5221 67.2991 57.5044 66.2564C58.4867 65.2137 59.83 64.5854 61.26 64.5C62.6899 64.5854 64.0333 65.2137 65.0156 66.2564C65.9978 67.2991 66.5449 68.6775 66.5449 70.11C66.5449 71.5425 65.9978 72.9209 65.0156 73.9636C64.0333 75.0063 62.6899 75.6346 61.26 75.72ZM61.26 68.5C60.8639 68.5442 60.498 68.7329 60.2323 69.0299C59.9666 69.3269 59.8197 69.7115 59.8197 70.11C59.8197 70.5085 59.9666 70.8931 60.2323 71.1901C60.498 71.4871 60.8639 71.6758 61.26 71.72C61.4726 71.7228 61.6835 71.6826 61.8802 71.6019C62.0769 71.5212 62.2553 71.4017 62.4046 71.2504C62.554 71.0991 62.6714 70.9193 62.7496 70.7216C62.8278 70.524 62.8654 70.3125 62.86 70.1C62.8624 69.6743 62.6971 69.2648 62.4 68.96C62.0929 68.6664 61.6848 68.5018 61.26 68.5Z" fill="#D6242D"/>
<path d="M63.2599 73.04H59.2599V81.48H63.2599V73.04Z" fill="#D6242D"/>
</svg>
