<svg width="100" height="100" viewBox="0 0 100 100" fill="none" xmlns="http://www.w3.org/2000/svg">
<g clip-path="url(#clip0_2385_9595)">
<path d="M100 0H0V100H100V0Z" fill="url(#paint0_linear_2385_9595)"/>
<path d="M66.995 65.1398L65.1094 67.0254L81.0523 82.9683L82.9379 81.0827L66.995 65.1398Z" fill="white"/>
<path d="M18.9423 17.0724L17.0566 18.958L34.7249 36.6262L36.6105 34.7406L18.9423 17.0724Z" fill="white"/>
<path d="M30.3885 67.7961L21.0547 77.1299L22.9403 79.0155L32.2741 69.6817L30.3885 67.7961Z" fill="white"/>
<path d="M77.0551 21.1193L67.7213 30.4531L69.6069 32.3387L78.9407 23.0049L77.0551 21.1193Z" fill="white"/>
<path d="M80.6133 48.6931C80.365 42.7205 78.3666 36.9525 74.8667 32.1064L72.7067 33.6798C75.8772 38.0676 77.6983 43.2854 77.9467 48.6931H75.28V51.3598H77.9467C77.7262 56.7975 75.9032 62.0486 72.7067 66.4531L74.8667 67.9998C78.3922 63.1368 80.3924 57.3355 80.6133 51.3331H83.28V48.6664L80.6133 48.6931Z" fill="white"/>
<path d="M33.6133 27.36C38.0092 24.1759 43.2438 22.3537 48.6667 22.12V24.6934H51.3333V22.12C56.7562 22.3537 61.9908 24.1759 66.3867 27.36L68 25.2C63.1337 21.681 57.3344 19.6814 51.3333 19.4534V16.6934H48.6667V19.4534C42.6656 19.6814 36.8663 21.681 32 25.2L33.6133 27.36Z" fill="white"/>
<path d="M66.3867 72.7734C61.9908 75.9576 56.7562 77.7797 51.3333 78.0134V75.3468H48.6667V78.0134C43.2438 77.7797 38.0092 75.9576 33.6133 72.7734L32 74.9334C36.8663 78.4525 42.6656 80.4521 48.6667 80.6801V83.3468H51.3333V80.6801C57.3344 80.4521 63.1337 78.4525 68 74.9334L66.3867 72.7734Z" fill="white"/>
<path d="M25.1333 68.0001L27.2933 66.4267C24.0968 62.0223 22.2737 56.7711 22.0533 51.3334H24.72V48.6667H22.0533C22.3017 43.259 24.1228 38.0413 27.2933 33.6534L25.1333 32.0801C21.6334 36.9262 19.635 42.6941 19.3866 48.6667H16.72V51.3334H19.3866C19.6075 57.3358 21.6078 63.1371 25.1333 68.0001Z" fill="white"/>
<path d="M56.52 32.3339C54.6902 30.814 52.3785 29.9962 50 30.0272C44.8533 30.0272 40.6666 33.6672 40.6666 38.1472V44.6939H38C37.6464 44.6939 37.3072 44.8344 37.0572 45.0844C36.8071 45.3345 36.6666 45.6736 36.6666 46.0272V64.6939C36.6656 64.8694 36.6993 65.0433 36.7656 65.2058C36.832 65.3682 36.9297 65.516 37.0533 65.6406C37.1779 65.7641 37.3257 65.8619 37.4881 65.9282C37.6506 65.9946 37.8245 66.0282 38 66.0272H62C62.3536 66.0272 62.6927 65.8867 62.9428 65.6367C63.1928 65.3867 63.3333 65.0475 63.3333 64.6939V46.0272C63.3318 45.6774 63.193 45.3422 62.9466 45.0939C62.8232 44.9679 62.6759 44.8677 62.5134 44.799C62.3509 44.7304 62.1764 44.6946 62 44.6939H59.3333V38.1606C59.3211 37.0423 59.0627 35.9405 58.5764 34.9335C58.0902 33.9264 57.3881 33.0389 56.52 32.3339ZM43.3333 38.1472C43.3333 35.1339 46.3333 32.6939 50 32.6939C51.7465 32.6655 53.4468 33.2559 54.8 34.3606C55.3719 34.8182 55.8366 35.3955 56.1614 36.052C56.4862 36.7086 56.6632 37.4283 56.68 38.1606V44.6939H43.3466L43.3333 38.1472ZM60.6666 51.3606H56.6666V54.0272H60.6666V56.6939H56.6666V59.3606H60.6666V63.3606H39.3333V47.3606H60.6666V51.3606Z" fill="white"/>
<path d="M48.6666 57.0133V60.6933H51.3333V57.0133C52.1968 56.6998 52.9223 56.0919 53.3821 55.2965C53.8419 54.5011 54.0067 53.5692 53.8475 52.6643C53.6883 51.7595 53.2153 50.9397 52.5117 50.349C51.808 49.7584 50.9187 49.4346 49.9999 49.4346C49.0812 49.4346 48.1919 49.7584 47.4882 50.349C46.7845 50.9397 46.3115 51.7595 46.1524 52.6643C45.9932 53.5692 46.158 54.5011 46.6178 55.2965C47.0776 56.0919 47.803 56.6998 48.6666 57.0133ZM49.9999 51.92C50.2864 51.9174 50.5672 52.0003 50.8063 52.1581C51.0454 52.3159 51.232 52.5415 51.3422 52.8059C51.4524 53.0704 51.4812 53.3617 51.425 53.6426C51.3688 53.9235 51.23 54.1813 51.0265 54.3829C50.8229 54.5846 50.5639 54.7209 50.2824 54.7745C50.001 54.8281 49.71 54.7965 49.4466 54.6838C49.1832 54.5712 48.9594 54.3824 48.8038 54.1419C48.6482 53.9013 48.568 53.6198 48.5733 53.3333C48.5768 52.9573 48.7286 52.5978 48.9958 52.3331C49.263 52.0685 49.6239 51.92 49.9999 51.92Z" fill="white"/>
</g>
<defs>
<linearGradient id="paint0_linear_2385_9595" x1="-20.7067" y1="120.72" x2="120.72" y2="-20.7067" gradientUnits="userSpaceOnUse">
<stop stop-color="#BD0816"/>
<stop offset="1" stop-color="#FF5252"/>
</linearGradient>
<clipPath id="clip0_2385_9595">
<rect width="100" height="100" fill="white"/>
</clipPath>
</defs>
</svg>
