<svg width="100" height="100" viewBox="0 0 100 100" fill="none" xmlns="http://www.w3.org/2000/svg">
<g clip-path="url(#clip0_2385_9588)">
<rect x="0.959961" y="1.91992" width="97.2" height="97.2"/>
<path d="M90.5 8.5H8.5V90.5H90.5V8.5Z" fill="url(#paint0_linear_2385_9588)"/>
<path d="M89 10V89H10V10H89ZM92 7H7V92H92V7Z" fill="white"/>
<path d="M49 79.4502C27.25 79.4502 27 54.0002 27 53.7002V29.5402C27.0006 29.3387 27.062 29.1422 27.1762 28.9762C27.2904 28.8103 27.4521 28.6827 27.64 28.6102L48.64 20.5202C48.8717 20.4308 49.1283 20.4308 49.36 20.5202L70.36 28.6102C70.5479 28.6827 70.7096 28.8103 70.8238 28.9762C70.938 29.1422 70.9994 29.3387 71 29.5402V55.2002C71 55.4402 70.75 79.4502 49 79.4502ZM29 30.2302V53.7002C29.1414 57.8205 30.0115 61.8833 31.57 65.7002C34.88 73.5102 40.75 77.4502 49 77.4502C57.25 77.4502 63.16 73.7402 66.46 66.4502C68.0102 62.8945 68.8721 59.077 69 55.2002V30.2002L49 22.5202L29 30.2302Z" fill="white"/>
<path d="M49 73.4502C43.71 73.4502 39.25 70.4502 36.12 64.6802C34.6722 61.996 33.6213 59.116 33 56.1302C32.9974 56.0869 32.9974 56.0435 33 56.0002V33.4502C32.9998 33.2499 33.0597 33.0542 33.172 32.8884C33.2844 32.7226 33.4439 32.5943 33.63 32.5202L48.63 26.5202C48.8676 26.4256 49.1324 26.4256 49.37 26.5202L64.37 32.5202C64.556 32.5943 64.7156 32.7226 64.8279 32.8884C64.9402 33.0542 65.0002 33.2499 65 33.4502V56.0002C65.0049 56.0601 65.0049 56.1203 65 56.1802C64.385 59.1649 63.3408 62.0449 61.9 64.7302C58.75 70.4202 54.29 73.4502 49 73.4502ZM35 55.8502C35.25 57.0802 38.4 71.4502 49 71.4502C59.6 71.4502 62.75 57.0802 63 55.8502V34.1302L49 28.5302L35 34.1302V55.8502Z" fill="white"/>
<path d="M50 27.4502H48V72.4502H50V27.4502Z" fill="white"/>
</g>
<defs>
<linearGradient id="paint0_linear_2385_9588" x1="8.5" y1="90.5" x2="90.5" y2="8.5" gradientUnits="userSpaceOnUse">
<stop stop-color="#BD0816"/>
<stop offset="1" stop-color="#FF5252"/>
</linearGradient>
<clipPath id="clip0_2385_9588">
<rect width="100" height="100" fill="white"/>
</clipPath>
</defs>
</svg>
