<svg width="100" height="100" viewBox="0 0 100 100" fill="none" xmlns="http://www.w3.org/2000/svg">
<g clip-path="url(#clip0_2385_3460)">
<path d="M100 0H0V100H100V0Z" fill="url(#paint0_linear_2385_3460)"/>
<path d="M49.6001 82.2533L49.3734 82.3867C49.1707 82.5037 48.9408 82.5653 48.7067 82.5653C48.4727 82.5653 48.2428 82.5037 48.0401 82.3867L47.8134 82.2533H49.6001ZM76.0667 34.32L49.3334 18.9066C49.1307 18.7896 48.9008 18.728 48.6667 18.728C48.4327 18.728 48.2028 18.7896 48.0001 18.9066L31.4134 28.4933L32.7467 30.8133L47.4134 22.3733V26.2533H50.0801V22.3733L72.8801 35.52L49.3334 49.1067L33.3334 39.7733L32.0001 42.1333L47.4401 51.0533V78.9066L25.3334 66.16L29.4667 63.7733L28.1334 61.4666L23.4267 64.1333V44.92H20.7601V65.8266C20.7591 66.0616 20.8203 66.2926 20.9374 66.4963C21.0545 66.7 21.2233 66.8692 21.4267 66.9866L47.3734 82L47.8134 82.2533H49.6001L50.0401 82L54.7734 79.3333L53.4401 77.0133L50.0401 78.9733V51.7733L74.0401 37.92V63.52L72.0001 62.3066L70.6667 64.6133L73.1067 66.04L69.6001 68L70.9334 70.32L76.0001 67.4C76.2036 67.2825 76.3724 67.1134 76.4894 66.9097C76.6065 66.706 76.6677 66.4749 76.6667 66.24V35.4533C76.6701 35.2292 76.6168 35.0079 76.5119 34.8098C76.4071 34.6117 76.254 34.4432 76.0667 34.32ZM50.0401 42.32V47.6533H47.3734V42.32H50.0401ZM50.0401 30.32V36.9866H47.3734V30.32H50.0401ZM47.3734 82.0667V82.32H47.8134L47.3734 82.0667ZM49.6001 82.32H50.0401V82L49.6001 82.32ZM59.2934 54.9866L57.9601 57.28L52.2001 53.92L53.5334 51.6266L59.2934 54.9866ZM68.5067 60.32L67.1734 62.6133L61.4134 59.2533L62.7467 56.96L68.5067 60.32ZM46.5067 53.9466L42.1201 56.48L40.7867 54.1733L45.1734 51.64L46.5067 53.9466ZM38.6667 58.4533L32.8934 61.7733L31.5601 59.4666L37.3334 56.1333L38.6667 58.4533ZM31.6134 35.24C31.6187 33.7647 31.186 32.3211 30.3703 31.0919C29.5545 29.8627 28.3923 28.9032 27.0309 28.335C25.6694 27.7668 24.17 27.6154 22.7224 27.9C21.2749 28.1845 19.9443 28.8923 18.8993 29.9336C17.8542 30.9749 17.1417 32.3029 16.852 33.7494C16.5622 35.1959 16.7082 36.6959 17.2716 38.0594C17.8349 39.4229 18.7902 40.5885 20.0165 41.4087C21.2427 42.2288 22.6848 42.6666 24.1601 42.6666C26.1322 42.6667 28.024 41.8851 29.421 40.4931C30.818 39.101 31.6064 37.2121 31.6134 35.24ZM28.9467 35.24C28.9467 36.1867 28.666 37.1121 28.14 37.8993C27.6141 38.6865 26.8665 39.3 25.9919 39.6623C25.1172 40.0246 24.1548 40.1194 23.2262 39.9347C22.2977 39.75 21.4448 39.2941 20.7754 38.6247C20.106 37.9552 19.6501 37.1023 19.4654 36.1738C19.2807 35.2453 19.3755 34.2829 19.7378 33.4082C20.1001 32.5336 20.7136 31.786 21.5007 31.26C22.2879 30.734 23.2134 30.4533 24.1601 30.4533C25.4296 30.4533 26.6471 30.9576 27.5448 31.8553C28.4424 32.753 28.9467 33.9705 28.9467 35.24ZM72.3467 76.9466C72.3467 75.4699 71.9088 74.0263 71.0884 72.7984C70.2679 71.5705 69.1018 70.6135 67.7374 70.0483C66.3731 69.4832 64.8718 69.3353 63.4234 69.6235C61.975 69.9116 60.6446 70.6227 59.6003 71.6669C58.5561 72.7112 57.845 74.0416 57.5569 75.49C57.2688 76.9384 57.4166 78.4397 57.9818 79.804C58.5469 81.1684 59.5039 82.3345 60.7318 83.155C61.9597 83.9754 63.4033 84.4133 64.8801 84.4133C66.8604 84.4133 68.7595 83.6267 70.1598 82.2264C71.5601 80.8261 72.3467 78.9269 72.3467 76.9466ZM69.6801 76.9466C69.6827 77.8966 69.4034 78.8259 68.8776 79.617C68.3518 80.4081 67.6031 81.0254 66.7262 81.3908C65.8494 81.7561 64.8838 81.8531 63.9518 81.6694C63.0199 81.4857 62.1633 81.0296 61.4907 80.3588C60.8181 79.6881 60.3596 78.8328 60.1733 77.9013C59.987 76.9699 60.0813 76.0041 60.4442 75.1262C60.8071 74.2483 61.4223 73.4979 62.212 72.9699C63.0016 72.4418 63.9302 72.16 64.8801 72.16C66.1497 72.1635 67.3666 72.6685 68.2656 73.565C69.1647 74.4616 69.673 75.677 69.6801 76.9466ZM83.2934 23.0533C83.2934 21.5792 82.8563 20.1382 82.0373 18.9125C81.2183 17.6868 80.0543 16.7315 78.6923 16.1673C77.3304 15.6032 75.8318 15.4556 74.386 15.7432C72.9402 16.0308 71.6121 16.7406 70.5698 17.783C69.5274 18.8254 68.8175 20.1534 68.53 21.5992C68.2424 23.045 68.39 24.5437 68.9541 25.9056C69.5182 27.2675 70.4735 28.4316 71.6992 29.2505C72.9249 30.0695 74.3659 30.5066 75.8401 30.5066C77.8157 30.5031 79.7095 29.7167 81.1065 28.3197C82.5035 26.9227 83.2899 25.029 83.2934 23.0533ZM80.6267 23.0533C80.6241 23.9995 80.3411 24.9236 79.8136 25.709C79.286 26.4944 78.5375 27.1059 77.6626 27.4661C76.7878 27.8263 75.8257 27.9192 74.8981 27.733C73.9705 27.5468 73.1188 27.0899 72.4507 26.42C71.7826 25.75 71.328 24.8971 71.1444 23.9689C70.9608 23.0408 71.0564 22.079 71.4191 21.2051C71.7817 20.3313 72.3953 19.5845 73.1821 19.0591C73.969 18.5337 74.8939 18.2533 75.8401 18.2533C76.4698 18.2533 77.0933 18.3776 77.6749 18.6189C78.2566 18.8603 78.7848 19.2141 79.2295 19.66C79.6741 20.1059 80.0265 20.6352 80.2662 21.2174C80.506 21.7997 80.6285 22.4236 80.6267 23.0533Z" fill="white"/>
</g>
<defs>
<linearGradient id="paint0_linear_2385_3460" x1="-20.7107" y1="120.715" x2="120.711" y2="-20.7067" gradientUnits="userSpaceOnUse">
<stop stop-color="#B0084D"/>
<stop offset="1" stop-color="#FF4F8B"/>
</linearGradient>
<clipPath id="clip0_2385_3460">
<rect width="100" height="100" fill="white"/>
</clipPath>
</defs>
</svg>
