<svg width="100" height="100" viewBox="0 0 100 100" fill="none" xmlns="http://www.w3.org/2000/svg">
<g clip-path="url(#clip0_2385_3470)">
<path d="M100 0H0V100H100V0Z" fill="url(#paint0_linear_2385_3470)"/>
<path d="M74.7699 41.36L74.7099 41.29L69.7099 35.36C69.6225 35.2546 69.5144 35.1682 69.3923 35.1063C69.2702 35.0444 69.1366 35.0082 68.9999 35H31.0499C30.9047 35.0012 30.7615 35.0341 30.6302 35.0962C30.499 35.1584 30.3829 35.2484 30.2899 35.36L25.2899 41.29L25.2299 41.36C25.0808 41.5399 24.9995 41.7663 24.9999 42V60.12C24.9893 61.4019 25.4876 62.6358 26.3857 63.5507C27.2837 64.4656 28.508 64.9868 29.7899 65H40.3799C41.4343 64.9964 42.4695 64.7178 43.3832 64.1916C44.2969 63.6655 45.0575 62.9101 45.5899 62L48.6899 56.64C48.8851 56.3051 49.2016 56.0581 49.574 55.9501C49.9463 55.8421 50.3458 55.8815 50.6899 56.06C50.9301 56.2 51.1299 56.3998 51.2699 56.64L54.4099 62C54.9423 62.9101 55.703 63.6655 56.6167 64.1916C57.5304 64.7178 58.5656 64.9964 59.6199 65H70.2099C71.4918 64.9868 72.7162 64.4656 73.6142 63.5507C74.5122 62.6358 75.0106 61.4019 74.9999 60.12V42C75.0004 41.7663 74.919 41.5399 74.7699 41.36ZM31.7399 37H68.7399L72.1099 41H28.3699L31.7399 37ZM72.9999 60.12C73.008 60.8708 72.7195 61.5944 72.1971 62.1336C71.6747 62.6729 70.9606 62.9842 70.2099 63H59.6199C58.9151 63.0028 58.222 62.8193 57.6109 62.4681C56.9998 62.1169 56.4923 61.6104 56.1399 61L52.9999 55.6C52.6919 55.0663 52.2488 54.6231 51.7151 54.3149C51.1815 54.0068 50.5761 53.8446 49.9599 53.8446C49.3437 53.8446 48.7383 54.0068 48.2047 54.3149C47.6711 54.6231 47.228 55.0663 46.9199 55.6L43.8599 61C43.5075 61.6104 43 62.1169 42.3889 62.4681C41.7778 62.8193 41.0848 63.0028 40.3799 63H29.7899C29.0393 62.9842 28.3252 62.6729 27.8028 62.1336C27.2804 61.5944 26.9919 60.8708 26.9999 60.12V43H72.9999V60.12Z" fill="white"/>
</g>
<defs>
<linearGradient id="paint0_linear_2385_3470" x1="0" y1="100" x2="100" y2="0" gradientUnits="userSpaceOnUse">
<stop stop-color="#B0084D"/>
<stop offset="1" stop-color="#FF4F8B"/>
</linearGradient>
<clipPath id="clip0_2385_3470">
<rect width="100" height="100" fill="white"/>
</clipPath>
</defs>
</svg>
