<svg width="100" height="100" viewBox="0 0 100 100" fill="none" xmlns="http://www.w3.org/2000/svg">
<path d="M84.0999 97H15.9999C14.2975 97.0132 12.6092 96.6893 11.0326 96.0469C9.45591 95.4045 8.022 94.4564 6.81351 93.2572C5.60502 92.0581 4.64586 90.6315 3.99133 89.0598C3.3368 87.4882 2.99985 85.8025 2.9999 84.1V16C2.98659 14.2891 3.31375 12.5927 3.96235 11.0094C4.61094 9.42618 5.56801 7.98778 6.77783 6.77796C7.98766 5.56813 9.42606 4.61106 11.0093 3.96247C12.5926 3.31387 14.289 2.98671 15.9999 3.00002H84.1999C85.894 3.01311 87.5689 3.35974 89.129 4.02014C90.6891 4.68054 92.1038 5.64177 93.2924 6.84894C94.481 8.05612 95.4202 9.48559 96.0563 11.0557C96.6925 12.6259 97.0131 14.306 96.9999 16V84.2C96.9735 87.604 95.6028 90.8595 93.1864 93.2571C90.77 95.6548 87.5039 97.0001 84.0999 97ZM15.9999 7.00002C14.815 6.98935 13.6399 7.21485 12.5432 7.66336C11.4464 8.11188 10.45 8.77441 9.61215 9.61227C8.77429 10.4501 8.11175 11.4465 7.66324 12.5433C7.21473 13.64 6.98923 14.8152 6.9999 16V84.2C7.03154 86.5588 7.99627 88.809 9.68297 90.4583C11.3697 92.1075 13.641 93.0214 15.9999 93H84.1999C86.5587 92.9947 88.8194 92.0554 90.4873 90.3874C92.1552 88.7195 93.0946 86.4588 93.0999 84.1V16C93.1106 14.8152 92.8851 13.64 92.4366 12.5433C91.9881 11.4465 91.3255 10.4501 90.4877 9.61227C89.6498 8.77441 88.6534 8.11188 87.5566 7.66336C86.4599 7.21485 85.2848 6.98935 84.0999 7.00002H15.9999Z" fill="#D86613"/>
<path d="M46.24 35.12H16.24C15.7096 35.12 15.2008 34.9093 14.8258 34.5342C14.4507 34.1591 14.24 33.6504 14.24 33.12V14.38C14.24 13.8496 14.4507 13.3409 14.8258 12.9658C15.2008 12.5907 15.7096 12.38 16.24 12.38H46.24C46.7704 12.38 47.2791 12.5907 47.6542 12.9658C48.0293 13.3409 48.24 13.8496 48.24 14.38V33.12C48.24 33.6504 48.0293 34.1591 47.6542 34.5342C47.2791 34.9093 46.7704 35.12 46.24 35.12ZM18.24 31.12H44.24V16.38H18.24V31.12Z" fill="#D86613"/>
<path d="M25.76 20H21.76V27.5H25.76V20Z" fill="#D86613"/>
<path d="M33.26 20H29.26V27.5H33.26V20Z" fill="#D86613"/>
<path d="M40.76 20H36.76V27.5H40.76V20Z" fill="#D86613"/>
<path d="M46.24 61.38H16.24C15.7096 61.38 15.2008 61.1693 14.8258 60.7942C14.4507 60.4191 14.24 59.9104 14.24 59.38V40.62C14.24 40.0896 14.4507 39.5809 14.8258 39.2058C15.2008 38.8307 15.7096 38.62 16.24 38.62H46.24C46.7704 38.62 47.2791 38.8307 47.6542 39.2058C48.0293 39.5809 48.24 40.0896 48.24 40.62V59.38C48.24 59.9104 48.0293 60.4191 47.6542 60.7942C47.2791 61.1693 46.7704 61.38 46.24 61.38ZM18.24 57.38H44.24V42.62H18.24V57.38Z" fill="#D86613"/>
<path d="M25.76 46.26H21.76V53.76H25.76V46.26Z" fill="#D86613"/>
<path d="M33.26 46.26H29.26V53.76H33.26V46.26Z" fill="#D86613"/>
<path d="M40.76 46.26H36.76V53.76H40.76V46.26Z" fill="#D86613"/>
<path d="M46.24 87.62H16.24C15.7096 87.62 15.2008 87.4093 14.8258 87.0342C14.4507 86.6591 14.24 86.1504 14.24 85.62V66.88C14.24 66.3496 14.4507 65.8409 14.8258 65.4658C15.2008 65.0907 15.7096 64.88 16.24 64.88H46.24C46.7704 64.88 47.2791 65.0907 47.6542 65.4658C48.0293 65.8409 48.24 66.3496 48.24 66.88V85.62C48.24 85.8827 48.1883 86.1427 48.0878 86.3854C47.9872 86.628 47.8399 86.8485 47.6542 87.0342C47.4685 87.2199 47.248 87.3673 47.0054 87.4678C46.7627 87.5683 46.5026 87.62 46.24 87.62ZM18.24 83.62H44.24V68.88H18.24V83.62Z" fill="#D86613"/>
<path d="M25.76 72.5H21.76V80H25.76V72.5Z" fill="#D86613"/>
<path d="M33.26 72.5H29.26V80H33.26V72.5Z" fill="#D86613"/>
<path d="M40.76 72.5H36.76V80H40.76V72.5Z" fill="#D86613"/>
<path d="M83.76 35.12H53.76C53.2296 35.12 52.7209 34.9093 52.3458 34.5342C51.9707 34.1591 51.76 33.6504 51.76 33.12V14.38C51.76 13.8496 51.9707 13.3409 52.3458 12.9658C52.7209 12.5907 53.2296 12.38 53.76 12.38H83.76C84.2904 12.38 84.7992 12.5907 85.1742 12.9658C85.5493 13.3409 85.76 13.8496 85.76 14.38V33.12C85.76 33.6504 85.5493 34.1591 85.1742 34.5342C84.7992 34.9093 84.2904 35.12 83.76 35.12ZM55.76 31.12H81.76V16.38H55.76V31.12Z" fill="#D86613"/>
<path d="M63.26 20H59.26V27.5H63.26V20Z" fill="#D86613"/>
<path d="M70.76 20H66.76V27.5H70.76V20Z" fill="#D86613"/>
<path d="M78.26 20H74.26V27.5H78.26V20Z" fill="#D86613"/>
<path d="M83.76 61.38H53.76C53.2296 61.38 52.7209 61.1693 52.3458 60.7942C51.9707 60.4191 51.76 59.9104 51.76 59.38V40.62C51.76 40.0896 51.9707 39.5809 52.3458 39.2058C52.7209 38.8307 53.2296 38.62 53.76 38.62H83.76C84.2904 38.62 84.7992 38.8307 85.1742 39.2058C85.5493 39.5809 85.76 40.0896 85.76 40.62V59.38C85.76 59.9104 85.5493 60.4191 85.1742 60.7942C84.7992 61.1693 84.2904 61.38 83.76 61.38ZM55.76 57.38H81.76V42.62H55.76V57.38Z" fill="#D86613"/>
<path d="M63.26 46.26H59.26V53.76H63.26V46.26Z" fill="#D86613"/>
<path d="M70.76 46.26H66.76V53.76H70.76V46.26Z" fill="#D86613"/>
<path d="M78.26 46.26H74.26V53.76H78.26V46.26Z" fill="#D86613"/>
<path d="M83.76 87.62H53.76C53.2296 87.62 52.7209 87.4093 52.3458 87.0342C51.9707 86.6591 51.76 86.1504 51.76 85.62V66.88C51.76 66.3496 51.9707 65.8409 52.3458 65.4658C52.7209 65.0907 53.2296 64.88 53.76 64.88H83.76C84.2904 64.88 84.7992 65.0907 85.1742 65.4658C85.5493 65.8409 85.76 66.3496 85.76 66.88V85.62C85.76 85.8827 85.7083 86.1427 85.6078 86.3854C85.5073 86.628 85.3599 86.8485 85.1742 87.0342C84.9885 87.2199 84.768 87.3673 84.5254 87.4678C84.2827 87.5683 84.0227 87.62 83.76 87.62ZM55.76 83.62H81.76V68.88H55.76V83.62Z" fill="#D86613"/>
<path d="M63.26 72.5H59.26V80H63.26V72.5Z" fill="#D86613"/>
<path d="M70.76 72.5H66.76V80H70.76V72.5Z" fill="#D86613"/>
<path d="M78.26 72.5H74.26V80H78.26V72.5Z" fill="#D86613"/>
</svg>
