<svg width="100" height="100" viewBox="0 0 100 100" fill="none" xmlns="http://www.w3.org/2000/svg">
<path d="M60.0001 19.66L50.0001 9.66002L40.0001 19.66L37.1201 16.84L48.5801 5.38002C48.766 5.19256 48.9872 5.04377 49.231 4.94224C49.4747 4.8407 49.7361 4.78842 50.0001 4.78842C50.2641 4.78842 50.5256 4.8407 50.7693 4.94224C51.013 5.04377 51.2342 5.19256 51.4201 5.38002L62.8601 16.84L60.0001 19.66Z" fill="#D86613"/>
<path d="M52 6.80002H48V28.4H52V6.80002Z" fill="#D86613"/>
<path d="M50.0001 95.2C49.7369 95.2015 49.476 95.151 49.2323 95.0515C48.9886 94.952 48.767 94.8053 48.5801 94.62L37.1201 83.16L40.0001 80.34L50.0001 90.34L60.0001 80.34L62.8201 83.16L51.3801 94.62C51.0125 94.9847 50.5179 95.1926 50.0001 95.2Z" fill="#D86613"/>
<path d="M52 71.6H48V93.2H52V71.6Z" fill="#D86613"/>
<path d="M61.2199 64.6H38.7799C37.8835 64.6 37.0238 64.2439 36.3899 63.61C35.756 62.9762 35.3999 62.1165 35.3999 61.22V38.78C35.3999 37.8836 35.756 37.0239 36.3899 36.39C37.0238 35.7561 37.8835 35.4 38.7799 35.4H61.2199C62.1163 35.4 62.976 35.7561 63.6099 36.39C64.2438 37.0239 64.5999 37.8836 64.5999 38.78V61.22C64.5999 62.1165 64.2438 62.9762 63.6099 63.61C62.976 64.2439 62.1163 64.6 61.2199 64.6ZM39.3999 60.6H60.5999V39.4H39.3999V60.6Z" fill="#D86613"/>
<path d="M41.2 32H37.2V37.4H41.2V32Z" fill="#D86613"/>
<path d="M48.3999 32H44.3999V37.4H48.3999V32Z" fill="#D86613"/>
<path d="M55.6001 32H51.6001V37.4H55.6001V32Z" fill="#D86613"/>
<path d="M62.8 32H58.8V37.4H62.8V32Z" fill="#D86613"/>
<path d="M41.2 62.6H37.2V68H41.2V62.6Z" fill="#D86613"/>
<path d="M48.3999 62.6H44.3999V68H48.3999V62.6Z" fill="#D86613"/>
<path d="M55.6001 62.6H51.6001V68H55.6001V62.6Z" fill="#D86613"/>
<path d="M62.8 62.6H58.8V68H62.8V62.6Z" fill="#D86613"/>
<path d="M37.4 58.8H32V62.8H37.4V58.8Z" fill="#D86613"/>
<path d="M37.4 51.6H32V55.6H37.4V51.6Z" fill="#D86613"/>
<path d="M37.4 44.4H32V48.4H37.4V44.4Z" fill="#D86613"/>
<path d="M37.4 37.2H32V41.2H37.4V37.2Z" fill="#D86613"/>
<path d="M68.0001 58.8H62.6001V62.8H68.0001V58.8Z" fill="#D86613"/>
<path d="M68.0001 51.6H62.6001V55.6H68.0001V51.6Z" fill="#D86613"/>
<path d="M68.0001 44.4H62.6001V48.4H68.0001V44.4Z" fill="#D86613"/>
<path d="M68.0001 37.2H62.6001V41.2H68.0001V37.2Z" fill="#D86613"/>
<path d="M16.4401 63L13.6001 60.16L23.6001 50.16L13.6001 40.16L16.4401 37.34L27.8801 48.78C28.0676 48.9659 28.2163 49.1871 28.3179 49.4308C28.4194 49.6745 28.4717 49.9359 28.4717 50.2C28.4717 50.464 28.4194 50.7254 28.3179 50.9691C28.2163 51.2128 28.0676 51.434 27.8801 51.62L16.4401 63Z" fill="#D86613"/>
<path d="M26.6 48H5V52H26.6V48Z" fill="#D86613"/>
<path d="M83.5599 63L72.0999 51.54C71.9124 51.3541 71.7637 51.1329 71.6621 50.8892C71.5606 50.6454 71.5083 50.384 71.5083 50.12C71.5083 49.856 71.5606 49.5946 71.6621 49.3509C71.7637 49.1071 71.9124 48.8859 72.0999 48.7L83.5599 37.26L86.3799 40L76.3799 50L86.3799 60L83.5599 63Z" fill="#D86613"/>
<path d="M94.9999 48H73.3999V52H94.9999V48Z" fill="#D86613"/>
</svg>
