<svg width="100" height="100" viewBox="0 0 100 100" fill="none" xmlns="http://www.w3.org/2000/svg">
<path d="M95 79.12H5C4.46957 79.12 3.96086 78.9092 3.58579 78.5342C3.21071 78.1591 3 77.6504 3 77.12V20.8799C3 20.3495 3.21071 19.8408 3.58579 19.4657C3.96086 19.0907 4.46957 18.8799 5 18.8799H95C95.5304 18.8799 96.0391 19.0907 96.4142 19.4657C96.7893 19.8408 97 20.3495 97 20.8799V77.12C97 77.6504 96.7893 78.1591 96.4142 78.5342C96.0391 78.9092 95.5304 79.12 95 79.12ZM7 75.12H93V22.8799H7V75.12Z" fill="#D86613"/>
<path d="M18.26 28.3799H14.26V69.6399H18.26V28.3799Z" fill="#D86613"/>
<path d="M29.5 28.3799H25.5V69.6399H29.5V28.3799Z" fill="#D86613"/>
<path d="M40.76 28.3799H36.76V69.6399H40.76V28.3799Z" fill="#D86613"/>
<path d="M52 28.3799H48V69.6399H52V28.3799Z" fill="#D86613"/>
<path d="M63.26 28.3799H59.26V69.6399H63.26V28.3799Z" fill="#D86613"/>
<path d="M74.5 28.3799H70.5V69.6399H74.5V28.3799Z" fill="#D86613"/>
<path d="M85.76 28.3799H81.76V69.6399H85.76V28.3799Z" fill="#D86613"/>
</svg>
