<svg width="100" height="100" viewBox="0 0 100 100" fill="none" xmlns="http://www.w3.org/2000/svg">
<g clip-path="url(#clip0_0_891)">
<path d="M84.0999 97H15.9999C14.2975 97.0132 12.6092 96.6893 11.0326 96.0469C9.45591 95.4045 8.022 94.4564 6.81351 93.2572C5.60502 92.0581 4.64586 90.6315 3.99133 89.0598C3.3368 87.4882 2.99985 85.8025 2.9999 84.1V16C2.98659 14.2891 3.31375 12.5927 3.96235 11.0094C4.61094 9.42618 5.56801 7.98778 6.77783 6.77796C7.98766 5.56813 9.42606 4.61106 11.0093 3.96247C12.5926 3.31387 14.289 2.98671 15.9999 3.00002H84.1999C85.894 3.01311 87.5689 3.35974 89.129 4.02014C90.6891 4.68054 92.1038 5.64177 93.2924 6.84894C94.481 8.05612 95.4202 9.48559 96.0563 11.0557C96.6925 12.6259 97.0131 14.306 96.9999 16V84.2C96.9735 87.604 95.6028 90.8595 93.1864 93.2571C90.77 95.6548 87.5039 97.0001 84.0999 97ZM15.9999 7.00002C14.815 6.98935 13.6399 7.21485 12.5432 7.66336C11.4464 8.11188 10.45 8.77441 9.61215 9.61227C8.77429 10.4501 8.11175 11.4465 7.66324 12.5433C7.21473 13.64 6.98923 14.8152 6.9999 16V84.2C7.03154 86.5588 7.99627 88.809 9.68297 90.4583C11.3697 92.1075 13.641 93.0214 15.9999 93H84.1999C86.5587 92.9947 88.8194 92.0554 90.4873 90.3874C92.1552 88.7195 93.0946 86.4588 93.0999 84.1V16C93.1106 14.8152 92.8851 13.64 92.4366 12.5433C91.9881 11.4465 91.3255 10.4501 90.4877 9.61227C89.6498 8.77441 88.6534 8.11188 87.5566 7.66336C86.4599 7.21485 85.2848 6.98935 84.0999 7.00002H15.9999Z" fill="#D86613"/>
<path d="M83.76 44.5H16.24C15.7096 44.5 15.2008 44.2893 14.8258 43.9142C14.4507 43.5391 14.24 43.0304 14.24 42.5V20C14.24 19.4696 14.4507 18.9609 14.8258 18.5858C15.2008 18.2107 15.7096 18 16.24 18H83.76C84.2904 18 84.7991 18.2107 85.1742 18.5858C85.5493 18.9609 85.76 19.4696 85.76 20V42.5C85.76 43.0304 85.5493 43.5391 85.1742 43.9142C84.7991 44.2893 84.2904 44.5 83.76 44.5ZM18.24 40.5H81.76V22H18.24V40.5Z" fill="#D86613"/>
<path d="M83.76 83.88H16.24C15.7096 83.88 15.2008 83.6693 14.8258 83.2942C14.4507 82.9192 14.24 82.4104 14.24 81.88V53.76C14.24 53.2296 14.4507 52.7209 14.8258 52.3458C15.2008 51.9707 15.7096 51.76 16.24 51.76H83.76C84.2904 51.76 84.7991 51.9707 85.1742 52.3458C85.5493 52.7209 85.76 53.2296 85.76 53.76V81.88C85.76 82.4104 85.5493 82.9192 85.1742 83.2942C84.7991 83.6693 84.2904 83.88 83.76 83.88ZM18.24 79.88H81.76V55.76H18.24V79.88Z" fill="#D86613"/>
<path d="M40.76 20H36.76V42.5H40.76V20Z" fill="#D86613"/>
<path d="M63.26 20H59.26V42.5H63.26V20Z" fill="#D86613"/>
<path d="M40.76 53.76H36.76V81.88H40.76V53.76Z" fill="#D86613"/>
<path d="M63.26 53.76H59.26V81.88H63.26V53.76Z" fill="#D86613"/>
</g>
<defs>
<clipPath id="clip0_0_891">
<rect width="100" height="100" fill="white"/>
</clipPath>
</defs>
</svg>
