<svg width="100" height="100" viewBox="0 0 100 100" fill="none" xmlns="http://www.w3.org/2000/svg">
<g clip-path="url(#clip0_0_1047)">
<path d="M100 0H0V100H100V0Z" fill="#D86613"/>
<path d="M49.72 85.92C49.4716 85.9248 49.2269 85.8602 49.0133 85.7333L18.6666 68.24C18.4514 68.1157 18.2727 67.9369 18.1486 67.7215C18.0246 67.5062 17.9595 67.2619 17.96 67.0133V31.5733C17.9595 31.3248 18.0246 31.0805 18.1486 30.8652C18.2727 30.6498 18.4514 30.471 18.6666 30.3467L46.5733 14.2667C46.7806 14.1216 47.0249 14.0386 47.2777 14.0272C47.5305 14.0158 47.7812 14.0766 48.0007 14.2024C48.2203 14.3283 48.3994 14.514 48.5173 14.7378C48.6353 14.9617 48.687 15.2145 48.6666 15.4667V30.8133C48.6656 31.0515 48.6039 31.2855 48.4872 31.4931C48.3706 31.7008 48.2029 31.8753 48 32L34.04 40V58.5867L49.76 67.6667L63.5066 59.6667C63.7093 59.5497 63.9393 59.488 64.1733 59.488C64.4073 59.488 64.6373 59.5497 64.84 59.6667L78.0666 67.2667C78.2819 67.391 78.4606 67.5698 78.5846 67.7852C78.7087 68.0005 78.7738 68.2448 78.7733 68.4933C78.78 68.7413 78.7175 68.9862 78.5926 69.2006C78.4678 69.4149 78.2856 69.5902 78.0666 69.7067L50.4 85.7067C50.1969 85.8382 49.9618 85.9119 49.72 85.92ZM20.6666 66.0533L50.44 83.24L76 68.4667L65.3333 62.32L51.16 70.5067C50.9382 70.6317 50.6879 70.6974 50.4333 70.6974C50.1787 70.6974 49.9284 70.6317 49.7066 70.5067L32 60.2933C31.7858 60.1712 31.6076 59.9947 31.4835 59.7817C31.3594 59.5686 31.2938 59.3266 31.2933 59.08V39.28C31.2866 39.0321 31.3491 38.7871 31.474 38.5728C31.5988 38.3584 31.781 38.1832 32 38.0667L45.96 30.0667V17.8267L20.6266 32.4933L20.6666 66.0533Z" fill="white"/>
<path d="M80.5866 65.3334C80.3393 65.3301 80.0966 65.266 79.88 65.1467L66.6666 57.5067C66.4476 57.3902 66.2655 57.2149 66.1406 57.0006C66.0158 56.7862 65.9532 56.5413 65.96 56.2934V40.1467L52 32.0934C51.7858 31.9713 51.6076 31.7947 51.4835 31.5817C51.3594 31.3686 51.2938 31.1266 51.2933 30.88V15.5334C51.2878 15.289 51.3495 15.0478 51.4718 14.8362C51.5941 14.6246 51.7722 14.4506 51.9866 14.3334C52.1893 14.2163 52.4193 14.1547 52.6533 14.1547C52.8874 14.1547 53.1173 14.2163 53.32 14.3334L81.3333 30.4267C81.5475 30.5488 81.7257 30.7253 81.8498 30.9384C81.9738 31.1514 82.0395 31.3935 82.04 31.64V63.8667C82.0404 64.1152 81.9754 64.3595 81.8513 64.5749C81.7272 64.7903 81.5486 64.9691 81.3333 65.0934C81.1108 65.2397 80.8527 65.3226 80.5866 65.3334ZM68.6666 55.4L79.3333 61.5334V32.5334L54 17.8667V30.04L68 38.1467C68.219 38.2632 68.4011 38.4385 68.526 38.6528C68.6508 38.8671 68.7134 39.1121 68.7066 39.36L68.6666 55.4Z" fill="white"/>
</g>
<defs>
<clipPath id="clip0_0_1047">
<rect width="100" height="100" fill="white"/>
</clipPath>
</defs>
</svg>
