<svg width="100" height="100" viewBox="0 0 100 100" fill="none" xmlns="http://www.w3.org/2000/svg">
<g clip-path="url(#clip0_0_1101)">
<path d="M100 0H0V100H100V0Z" fill="url(#paint0_linear_0_1101)"/>
<path d="M54 68.52H53.5866C53.3318 68.4375 53.1078 68.2801 52.9437 68.0685C52.7796 67.8568 52.6831 67.6006 52.6666 67.3333C51.8 59.12 48.6666 53.2533 43.9066 51.24C43.5815 51.1019 43.3244 50.8403 43.1919 50.5129C43.0594 50.1854 43.0623 49.8187 43.2 49.4933C43.335 49.1751 43.5884 48.9217 43.9066 48.7867C48.5733 46.76 51.76 40.8933 52.6666 32.6667C52.6865 32.4923 52.7406 32.3236 52.8258 32.1702C52.9109 32.0168 53.0256 31.8818 53.1631 31.7728C53.3006 31.6638 53.4582 31.583 53.627 31.535C53.7958 31.4871 53.9724 31.4729 54.1466 31.4933C54.4645 31.5317 54.7579 31.6831 54.9733 31.92C57.96 35.2133 62.9733 41.9467 62.9733 50C62.9733 58.56 56.8666 66 54.9733 68.08C54.8501 68.2165 54.7001 68.326 54.5326 68.4017C54.3651 68.4774 54.1838 68.5177 54 68.52ZM47.12 50C50.9333 52.6667 53.6266 57.5467 54.8266 63.9733C57.0533 60.9733 60.2533 55.6667 60.2533 50C60.2533 44.3333 57.3333 39.3333 54.84 36C53.6533 42.4267 50.9466 47.3333 47.12 50Z" fill="white"/>
<path d="M42.6666 35.4533L42.1999 36.8667L40.7999 37.3333L42.1999 37.8L42.6666 39.2133L43.1333 37.8L44.5466 37.3333L43.1333 36.8667L42.6666 35.4533Z" fill="white"/>
<path d="M42.6666 40.92L41.7733 38.2267L39.08 37.3334L41.7733 36.44L42.6666 33.7467L43.56 36.44L46.2533 37.3334L43.56 38.2267L42.6666 40.92Z" fill="white"/>
<path d="M66.6666 55.4533L66.2 56.8667L64.7866 57.3333L66.2 57.8L66.6666 59.2133L67.1333 57.8L68.5466 57.3333L67.1333 56.8667L66.6666 55.4533Z" fill="white"/>
<path d="M66.6666 60.52L65.8666 58.1333L63.48 57.3333L65.8666 56.5333L66.6666 54.1467L67.4666 56.5333L69.8533 57.3333L67.4666 58.1333L66.6666 60.52Z" fill="white"/>
<path d="M41.28 60.1067L40.6533 61.9867L38.7733 62.6133L40.6533 63.2267L41.28 65.1067L41.9067 63.2267L43.7733 62.6133L41.9067 61.9867L41.28 60.1067Z" fill="white"/>
<path d="M41.3333 66.76L40.2933 63.64L37.1333 62.6667L40.24 61.6267L41.3333 58.4667L42.3733 61.5733L45.48 62.6133L42.3733 63.64L41.3333 66.76ZM40.92 62.6667L41.1866 62.7467L41.28 63.0133L41.3333 62.6667L41.6 62.5867L41.3333 62.4933L41.2533 62.2267L41.16 62.4933L40.92 62.6667Z" fill="white"/>
<path d="M50.08 75.44C44.1141 75.4443 38.3382 73.3429 33.7697 69.5062C29.2012 65.6694 26.1334 60.3435 25.1066 54.4667C25.0465 54.1131 25.1293 53.75 25.3369 53.4575C25.5444 53.1649 25.8597 52.9668 26.2133 52.9067C26.5669 52.8466 26.9299 52.9294 27.2225 53.1369C27.5151 53.3445 27.7132 53.6597 27.7733 54.0133C28.7728 59.5884 31.8234 64.5873 36.3243 68.0256C40.8253 71.464 46.4504 73.0926 52.0921 72.5909C57.7339 72.0892 62.9833 69.4934 66.8068 65.3147C70.6304 61.1361 72.7509 55.6773 72.7509 50.0133C72.7509 44.3494 70.6304 38.8906 66.8068 34.7119C62.9833 30.5333 57.7339 27.9375 52.0921 27.4358C46.4504 26.9341 40.8253 28.5627 36.3243 32.001C31.8234 35.4394 28.7728 40.4383 27.7733 46.0133C27.7418 46.1884 27.6761 46.3556 27.58 46.5053C27.4838 46.655 27.3592 46.7843 27.2131 46.8859C26.918 47.0909 26.5536 47.1703 26.2 47.1067C25.8463 47.043 25.5325 46.8415 25.3275 46.5465C25.1224 46.2514 25.043 45.887 25.1066 45.5333C25.9754 40.8 28.1744 36.412 31.4463 32.883C34.7182 29.354 38.9276 26.8299 43.5818 25.6061C48.236 24.3824 53.1425 24.5097 57.727 25.973C62.3116 27.4363 66.3844 30.1752 69.469 33.8691C72.5536 37.563 74.5222 42.0591 75.1444 46.8311C75.7667 51.6031 75.0168 56.4536 72.9827 60.815C70.9485 65.1763 67.7141 68.8681 63.6582 71.4581C59.6022 74.0481 54.8924 75.4293 50.08 75.44Z" fill="white"/>
<path d="M20.6666 51.3333H18C17.6463 51.3333 17.3072 51.1929 17.0572 50.9428C16.8071 50.6928 16.6666 50.3536 16.6666 50C16.6666 49.6464 16.8071 49.3072 17.0572 49.0572C17.3072 48.8071 17.6463 48.6667 18 48.6667H20.6666C21.0202 48.6667 21.3594 48.8071 21.6094 49.0572C21.8595 49.3072 22 49.6464 22 50C22 50.3536 21.8595 50.6928 21.6094 50.9428C21.3594 51.1929 21.0202 51.3333 20.6666 51.3333Z" fill="white"/>
<path d="M27.3333 51.3333H24.6666C24.313 51.3333 23.9738 51.1929 23.7238 50.9428C23.4737 50.6928 23.3333 50.3536 23.3333 50C23.3333 49.6464 23.4737 49.3072 23.7238 49.0572C23.9738 48.8071 24.313 48.6667 24.6666 48.6667H27.3333C27.6869 48.6667 28.026 48.8071 28.2761 49.0572C28.5261 49.3072 28.6666 49.6464 28.6666 50C28.6666 50.3536 28.5261 50.6928 28.2761 50.9428C28.026 51.1929 27.6869 51.3333 27.3333 51.3333Z" fill="white"/>
<path d="M34 51.3333H31.3333C30.9797 51.3333 30.6406 51.1929 30.3905 50.9428C30.1405 50.6928 30 50.3536 30 50C30 49.6464 30.1405 49.3072 30.3905 49.0572C30.6406 48.8071 30.9797 48.6667 31.3333 48.6667H34C34.3536 48.6667 34.6928 48.8071 34.9428 49.0572C35.1929 49.3072 35.3333 49.6464 35.3333 50C35.3333 50.3536 35.1929 50.6928 34.9428 50.9428C34.6928 51.1929 34.3536 51.3333 34 51.3333Z" fill="white"/>
<path d="M40.6666 51.3333H38C37.6463 51.3333 37.3072 51.1929 37.0571 50.9428C36.8071 50.6928 36.6666 50.3536 36.6666 50C36.6666 49.6464 36.8071 49.3072 37.0571 49.0572C37.3072 48.8071 37.6463 48.6667 38 48.6667H40.6666C41.0202 48.6667 41.3594 48.8071 41.6094 49.0572C41.8595 49.3072 42 49.6464 42 50C42 50.3536 41.8595 50.6928 41.6094 50.9428C41.3594 51.1929 41.0202 51.3333 40.6666 51.3333Z" fill="white"/>
</g>
<defs>
<linearGradient id="paint0_linear_0_1101" x1="-20.72" y1="120.72" x2="120.707" y2="-20.7067" gradientUnits="userSpaceOnUse">
<stop stop-color="#C8511B"/>
<stop offset="1" stop-color="#FF9900"/>
</linearGradient>
<clipPath id="clip0_0_1101">
<rect width="100" height="100" fill="white"/>
</clipPath>
</defs>
</svg>
