<svg width="100" height="100" viewBox="0 0 100 100" fill="none" xmlns="http://www.w3.org/2000/svg">
<g clip-path="url(#clip0_0_1072)">
<path d="M100 0H0V100H100V0Z" fill="#D86613"/>
<path d="M50 86.0134C49.7664 86.015 49.5366 85.9552 49.3333 85.84L18.6667 68.1333C18.4632 68.0159 18.2944 67.8467 18.1773 67.643C18.0602 67.4393 17.9991 67.2083 18 66.9734V31.56C17.9991 31.3251 18.0602 31.094 18.1773 30.8903C18.2944 30.6866 18.4632 30.5175 18.6667 30.4L46.6667 14.16C46.8694 14.043 47.0993 13.9814 47.3333 13.9814C47.5674 13.9814 47.7973 14.043 48 14.16C48.2035 14.2775 48.3723 14.4466 48.4894 14.6503C48.6064 14.854 48.6676 15.0851 48.6667 15.32V30.6667C48.6676 30.9016 48.6064 31.1327 48.4894 31.3364C48.3723 31.5401 48.2035 31.7092 48 31.8267L34 40V58.4933L50 67.7333L63.96 59.7333C64.1627 59.6163 64.3926 59.5547 64.6267 59.5547C64.8607 59.5547 65.0907 59.6163 65.2934 59.7333L78.6267 67.4267C78.8319 67.543 79.0026 67.7116 79.1213 67.9154C79.2401 68.1192 79.3026 68.3508 79.3026 68.5867C79.3026 68.8225 79.2401 69.0542 79.1213 69.258C79.0026 69.4618 78.8319 69.6304 78.6267 69.7467L50.6667 85.84C50.4635 85.9552 50.2336 86.015 50 86.0134ZM20.6667 66.2L50 83.1467L75.3334 68.48L64.6667 62.32L50.6667 70.44C50.464 70.557 50.2341 70.6186 50 70.6186C49.766 70.6186 49.536 70.557 49.3333 70.44L32 60.4267C31.7965 60.3092 31.6277 60.1401 31.5106 59.9364C31.3936 59.7327 31.3324 59.5016 31.3333 59.2667V39.2667C31.3324 39.0317 31.3936 38.8007 31.5106 38.597C31.6277 38.3933 31.7965 38.2242 32 38.1067L46 29.96V17.6267L20.6667 32.2934V66.2Z" fill="white"/>
<path d="M80.6667 65.24C80.4332 65.2416 80.2033 65.1819 80.0001 65.0667L66.6667 57.4C66.4618 57.2893 66.295 57.1194 66.188 56.9125C66.0809 56.7056 66.0387 56.4713 66.0667 56.24V40L52.0001 32C51.7966 31.8825 51.6278 31.7134 51.5107 31.5097C51.3936 31.306 51.3325 31.075 51.3334 30.84V15.4667C51.3325 15.2317 51.3936 15.0007 51.5107 14.797C51.6278 14.5933 51.7966 14.4242 52.0001 14.3067C52.2051 14.197 52.4341 14.1396 52.6667 14.1396C52.8993 14.1396 53.1283 14.197 53.3334 14.3067L81.3334 30.4C81.5369 30.5175 81.7057 30.6866 81.8228 30.8903C81.9398 31.094 82.001 31.3251 82.0001 31.56V63.9067C82.0001 64.2603 81.8596 64.5994 81.6095 64.8495C81.3595 65.0995 81.0203 65.24 80.6667 65.24ZM68.6667 55.48L79.3334 61.5867V32.3333L54.0001 17.7734V30.08L68.0001 38.08C68.2016 38.1964 68.3691 38.3634 68.4861 38.5646C68.603 38.7657 68.6653 38.994 68.6667 39.2267V55.48Z" fill="white"/>
<path d="M43.3334 59.32V39.32H46V48.4267L54.6667 39.32H58.1867L49.1467 49.0534L58.9734 59.32H55.3334L46 49.9867V59.32H43.3334Z" fill="white"/>
</g>
<defs>
<clipPath id="clip0_0_1072">
<rect width="100" height="100" fill="white"/>
</clipPath>
</defs>
</svg>
