<svg width="100" height="100" viewBox="0 0 100 100" fill="none" xmlns="http://www.w3.org/2000/svg">
<g clip-path="url(#clip0_0_931)">
<path d="M100 0H0V100H100V0Z" fill="#D86613"/>
<path d="M80.6534 54H73.9867V51.3333H80.6534V19.3333H48.6534V26H45.9867V19.3333C45.9867 18.6261 46.2676 17.9478 46.7677 17.4477C47.2678 16.9476 47.9461 16.6667 48.6534 16.6667H80.6534C81.3606 16.6667 82.0389 16.9476 82.539 17.4477C83.0391 17.9478 83.32 18.6261 83.32 19.3333V51.3333C83.32 52.0406 83.0391 52.7188 82.539 53.2189C82.0389 53.719 81.3606 54 80.6534 54Z" fill="white"/>
<path d="M51.32 83.3333H19.32C18.6127 83.3333 17.9345 83.0524 17.4344 82.5523C16.9343 82.0522 16.6533 81.3739 16.6533 80.6667V48.6667C16.6533 47.9594 16.9343 47.2811 17.4344 46.781C17.9345 46.2809 18.6127 46 19.32 46H25.9867V48.6667H19.32V80.6667H51.32V74H53.9867V80.6667C53.9867 81.3739 53.7057 82.0522 53.2056 82.5523C52.7055 83.0524 52.0272 83.3333 51.32 83.3333Z" fill="white"/>
<path d="M71.3333 38V35.3333H67.3333C67.2784 34.6444 66.9798 33.9975 66.4911 33.5088C66.0024 33.0201 65.3556 32.7215 64.6666 32.6667V28.6667H62V32.6667H58V28.6667H55.3333V32.6667H51.3333V28.6667H48.6666V32.6667H44.6666V28.6667H42V32.6667H38V28.6667H35.3333V32.6667C34.6443 32.7215 33.9975 33.0201 33.5088 33.5088C33.0201 33.9975 32.7215 34.6444 32.6666 35.3333H28.6666V38H32.6666V42H28.6666V44.6667H32.6666V48.6667H28.6666V51.3333H32.6666V55.3333H28.6666V58H32.6666V62H28.6666V64.6667H32.6666C32.7215 65.3556 33.0201 66.0025 33.5088 66.4912C33.9975 66.9799 34.6443 67.2784 35.3333 67.3333V71.3333H38V67.3333H42V71.3333H44.6666V67.3333H48.6666V71.3333H51.3333V67.3333H55.3333V71.3333H58V67.3333H62V71.3333H64.6666V67.3333C65.3556 67.2784 66.0024 66.9799 66.4911 66.4912C66.9798 66.0025 67.2784 65.3556 67.3333 64.6667H71.3333V62H67.3333V58H71.3333V55.3333H67.3333V51.3333H71.3333V48.6667H67.3333V44.6667H71.3333V42H67.3333V38H71.3333ZM64.6666 64.4267C64.6666 64.4903 64.6413 64.5514 64.5963 64.5964C64.5513 64.6414 64.4903 64.6667 64.4266 64.6667H35.5733C35.5096 64.6667 35.4486 64.6414 35.4036 64.5964C35.3586 64.5514 35.3333 64.4903 35.3333 64.4267V35.5733C35.3333 35.5097 35.3586 35.4486 35.4036 35.4036C35.4486 35.3586 35.5096 35.3333 35.5733 35.3333H64.4266C64.4903 35.3333 64.5513 35.3586 64.5963 35.4036C64.6413 35.4486 64.6666 35.5097 64.6666 35.5733V64.4267Z" fill="white"/>
</g>
<defs>
<clipPath id="clip0_0_931">
<rect width="100" height="100" fill="white"/>
</clipPath>
</defs>
</svg>
