<svg width="100" height="100" viewBox="0 0 100 100" fill="none" xmlns="http://www.w3.org/2000/svg">
<path d="M86.3 97H32.3C31.7696 97 31.2608 96.7893 30.8858 96.4142C30.5107 96.0391 30.3 95.5304 30.3 95V23C30.3 22.4696 30.5107 21.9609 30.8858 21.5858C31.2608 21.2107 31.7696 21 32.3 21H86.3C86.8304 21 87.3391 21.2107 87.7142 21.5858C88.0893 21.9609 88.3 22.4696 88.3 23V95C88.3 95.5304 88.0893 96.0391 87.7142 96.4142C87.3391 96.7893 86.8304 97 86.3 97ZM34.3 93H84.3V25H34.3V93Z" fill="#D86613"/>
<path d="M48.78 43H39.78C39.2495 43 38.7408 42.7893 38.3658 42.4142C37.9907 42.0391 37.78 41.5304 37.78 41V32C37.78 31.4696 37.9907 30.9609 38.3658 30.5858C38.7408 30.2107 39.2495 30 39.78 30H48.78C49.3104 30 49.8191 30.2107 50.1942 30.5858C50.5693 30.9609 50.78 31.4696 50.78 32V41C50.78 41.5304 50.5693 42.0391 50.1942 42.4142C49.8191 42.7893 49.3104 43 48.78 43ZM41.78 39H46.78V34H41.78V39Z" fill="#D86613"/>
<path d="M48.78 64H39.78C39.2495 64 38.7408 63.7893 38.3658 63.4142C37.9907 63.0391 37.78 62.5304 37.78 62V53C37.78 52.4696 37.9907 51.9609 38.3658 51.5858C38.7408 51.2107 39.2495 51 39.78 51H48.78C49.3104 51 49.8191 51.2107 50.1942 51.5858C50.5693 51.9609 50.78 52.4696 50.78 53V62C50.78 62.5304 50.5693 63.0391 50.1942 63.4142C49.8191 63.7893 49.3104 64 48.78 64ZM41.78 60H46.78V55H41.78V60Z" fill="#D86613"/>
<path d="M48.78 85.02H39.78C39.2495 85.02 38.7408 84.8093 38.3658 84.4342C37.9907 84.0591 37.78 83.5504 37.78 83.02V74C37.78 73.4696 37.9907 72.9609 38.3658 72.5858C38.7408 72.2107 39.2495 72 39.78 72H48.78C49.3104 72 49.8191 72.2107 50.1942 72.5858C50.5693 72.9609 50.78 73.4696 50.78 74V83.02C50.78 83.5504 50.5693 84.0591 50.1942 84.4342C49.8191 84.8093 49.3104 85.02 48.78 85.02ZM41.78 81.02H46.78V76H41.78V81.02Z" fill="#D86613"/>
<path d="M80.32 34.5H53.3V38.5H80.32V34.5Z" fill="#D86613"/>
<path d="M80.32 55.48H53.3V59.48H80.32V55.48Z" fill="#D86613"/>
<path d="M80.32 76.5H53.3V80.5H80.32V76.5Z" fill="#D86613"/>
<path d="M32.3 88H23.3C22.7696 88 22.2608 87.7893 21.8858 87.4142C21.5107 87.0391 21.3 86.5304 21.3 86V14C21.3 13.4696 21.5107 12.9609 21.8858 12.5858C22.2608 12.2107 22.7696 12 23.3 12H77.3C77.8304 12 78.3391 12.2107 78.7142 12.5858C79.0893 12.9609 79.3 13.4696 79.3 14V23H75.3V16H25.3V84H32.3V88Z" fill="#D86613"/>
<path d="M22.7 79.02H13.7C13.1695 79.02 12.6608 78.8093 12.2857 78.4342C11.9107 78.0591 11.7 77.5504 11.7 77.02V5C11.7 4.46957 11.9107 3.96086 12.2857 3.58579C12.6608 3.21071 13.1695 3 13.7 3H67.7C68.2304 3 68.7391 3.21071 69.1142 3.58579C69.4892 3.96086 69.7 4.46957 69.7 5V14H65.7V7H15.7V75H22.7V79.02Z" fill="#D86613"/>
</svg>
