<svg width="100" height="100" viewBox="0 0 100 100" fill="none" xmlns="http://www.w3.org/2000/svg">
<path d="M79.12 64.48L76.2 61.76L87.12 50L76.2 38.24L79.12 35.52L91.3 48.64C91.6429 49.0098 91.8335 49.4956 91.8335 50C91.8335 50.5044 91.6429 50.9902 91.3 51.36L79.12 64.48Z" fill="#D86613"/>
<path d="M87.0399 48H40.1599V52H87.0399V48Z" fill="#D86613"/>
<path d="M25.1599 67C21.7976 67 18.5109 66.003 15.7152 64.135C12.9196 62.267 10.7407 59.612 9.45397 56.5056C8.16728 53.3993 7.83062 49.9811 8.48657 46.6835C9.14252 43.3858 10.7616 40.3567 13.1391 37.9792C15.5166 35.6017 18.5457 33.9826 21.8434 33.3267C25.1411 32.6707 28.5592 33.0074 31.6655 34.2941C34.7719 35.5807 37.4269 37.7597 39.2949 40.5553C41.1629 43.3509 42.1599 46.6377 42.1599 50C42.1546 54.5071 40.3619 58.828 37.1749 62.015C33.9879 65.2019 29.667 66.9947 25.1599 67ZM25.1599 37C22.5888 37 20.0753 37.7624 17.9375 39.1909C15.7997 40.6194 14.1334 42.6497 13.1495 45.0251C12.1655 47.4006 11.9081 50.0144 12.4097 52.5362C12.9113 55.0579 14.1494 57.3743 15.9675 59.1924C17.7856 61.0105 20.102 62.2486 22.6237 62.7502C25.1455 63.2518 27.7594 62.9944 30.1348 62.0104C32.5102 61.0265 34.5406 59.3603 35.969 57.2224C37.3975 55.0846 38.1599 52.5712 38.1599 50C38.1546 46.5538 36.7833 43.2503 34.3465 40.8135C31.9096 38.3766 28.6061 37.0053 25.1599 37Z" fill="#D86613"/>
</svg>
