<svg width="100" height="100" viewBox="0 0 100 100" fill="none" xmlns="http://www.w3.org/2000/svg">
<path d="M84.0999 97H15.9999C14.2975 97.0132 12.6092 96.6893 11.0326 96.0469C9.45591 95.4045 8.022 94.4564 6.81351 93.2572C5.60502 92.0581 4.64586 90.6315 3.99133 89.0598C3.3368 87.4882 2.99985 85.8025 2.9999 84.1V16C2.98659 14.2891 3.31375 12.5927 3.96235 11.0094C4.61094 9.42618 5.56801 7.98778 6.77783 6.77796C7.98766 5.56813 9.42606 4.61106 11.0093 3.96247C12.5926 3.31387 14.289 2.98671 15.9999 3.00002H84.1999C85.894 3.01311 87.5689 3.35974 89.129 4.02014C90.6891 4.68054 92.1038 5.64177 93.2924 6.84894C94.481 8.05612 95.4202 9.48559 96.0563 11.0557C96.6925 12.6259 97.0131 14.306 96.9999 16V84.2C96.9735 87.604 95.6028 90.8595 93.1864 93.2571C90.77 95.6548 87.5039 97.0001 84.0999 97ZM15.9999 7.00002C14.815 6.98935 13.6399 7.21485 12.5432 7.66336C11.4464 8.11188 10.45 8.77441 9.61215 9.61227C8.77429 10.4501 8.11175 11.4465 7.66324 12.5433C7.21473 13.64 6.98923 14.8152 6.9999 16V84.2C7.03154 86.5588 7.99627 88.809 9.68297 90.4583C11.3697 92.1075 13.641 93.0214 15.9999 93H84.1999C86.5587 92.9947 88.8194 92.0554 90.4873 90.3874C92.1552 88.7195 93.0946 86.4588 93.0999 84.1V16C93.1106 14.8152 92.8851 13.64 92.4366 12.5433C91.9881 11.4465 91.3255 10.4501 90.4877 9.61227C89.6498 8.77441 88.6534 8.11188 87.5566 7.66336C86.4599 7.21485 85.2848 6.98935 84.0999 7.00002H15.9999Z" fill="#D86613"/>
<path d="M22.6 42L18.74 40.9C20.2902 35.6403 23.1374 30.8545 27.02 26.9823C30.9026 23.1102 35.6961 20.276 40.96 18.74L42 22.6C37.4012 23.9519 33.2153 26.4364 29.8258 29.8258C26.4364 33.2153 23.9519 37.4012 22.6 42Z" fill="#D86613"/>
<path d="M59.04 81.26L58 77.4C62.5988 76.0481 66.7847 73.5636 70.1742 70.1742C73.5636 66.7847 76.0481 62.5988 77.4 58L81.26 59.1C79.7098 64.3597 76.8626 69.1455 72.98 73.0177C69.0974 76.8898 64.3039 79.724 59.04 81.26Z" fill="#D86613"/>
<path d="M40.96 81.26C35.6892 79.7185 30.8911 76.8752 27.008 72.992C23.1248 69.1089 20.2815 64.3108 18.74 59.04L22.6 58C23.9519 62.5988 26.4364 66.7847 29.8258 70.1742C33.2153 73.5636 37.4012 76.0481 42 77.4L40.96 81.26Z" fill="#D86613"/>
<path d="M77.4 42C76.0481 37.4012 73.5636 33.2153 70.1742 29.8258C66.7847 26.4364 62.5988 23.9519 58 22.6L59.1 18.74C64.3597 20.2902 69.1455 23.1374 73.0177 27.02C76.8898 30.9026 79.724 35.6961 81.26 40.96L77.4 42Z" fill="#D86613"/>
<path d="M36.1001 42.48L32.5801 40.48C34.4212 37.0989 37.199 34.3211 40.5801 32.48L42.5801 36C39.8186 37.4605 37.5606 39.7185 36.1001 42.48Z" fill="#D86613"/>
<path d="M59.4399 67.42L57.4399 63.9C60.2167 62.479 62.5022 60.2561 63.9999 57.52L67.5199 59.52C65.642 62.8753 62.8367 65.6181 59.4399 67.42Z" fill="#D86613"/>
<path d="M40.5601 67.42C37.179 65.5789 34.4012 62.8011 32.5601 59.42L36.0801 57.42C37.5032 60.207 39.7336 62.5001 42.4801 64L40.5601 67.42Z" fill="#D86613"/>
<path d="M64.0001 42.48C62.5502 39.7699 60.3302 37.5499 57.6201 36.1L59.6201 32.58C63.0012 34.4211 65.779 37.1989 67.6201 40.58L64.0001 42.48Z" fill="#D86613"/>
<path d="M57.5 38.88H42.5C41.9696 38.88 41.4609 38.6693 41.0858 38.2942C40.7107 37.9191 40.5 37.4104 40.5 36.88V14.38C40.5 13.8496 40.7107 13.3409 41.0858 12.9658C41.4609 12.5907 41.9696 12.38 42.5 12.38H57.5C58.0304 12.38 58.5391 12.5907 58.9142 12.9658C59.2893 13.3409 59.5 13.8496 59.5 14.38V36.88C59.5 37.4104 59.2893 37.9191 58.9142 38.2942C58.5391 38.6693 58.0304 38.88 57.5 38.88ZM44.5 34.88H55.5V16.38H44.5V34.88Z" fill="#D86613"/>
<path d="M57.5 87.62H42.5C41.9696 87.62 41.4609 87.4093 41.0858 87.0342C40.7107 86.6591 40.5 86.1504 40.5 85.62V63.12C40.5 62.5896 40.7107 62.0809 41.0858 61.7058C41.4609 61.3307 41.9696 61.12 42.5 61.12H57.5C58.0304 61.12 58.5391 61.3307 58.9142 61.7058C59.2893 62.0809 59.5 62.5896 59.5 63.12V85.62C59.5 86.1504 59.2893 86.6591 58.9142 87.0342C58.5391 87.4093 58.0304 87.62 57.5 87.62ZM44.5 83.62H55.5V65.12H44.5V83.62Z" fill="#D86613"/>
<path d="M36.8799 59.5H14.3799C13.8494 59.5 13.3407 59.2893 12.9657 58.9142C12.5906 58.5391 12.3799 58.0304 12.3799 57.5V42.5C12.3799 41.9696 12.5906 41.4609 12.9657 41.0858C13.3407 40.7107 13.8494 40.5 14.3799 40.5H36.8799C37.4103 40.5 37.919 40.7107 38.2941 41.0858C38.6692 41.4609 38.8799 41.9696 38.8799 42.5V57.5C38.8799 58.0304 38.6692 58.5391 38.2941 58.9142C37.919 59.2893 37.4103 59.5 36.8799 59.5ZM16.3799 55.5H34.8799V44.5H16.3799V55.5Z" fill="#D86613"/>
<path d="M85.6201 59.5H63.1201C62.5897 59.5 62.081 59.2893 61.7059 58.9142C61.3308 58.5391 61.1201 58.0304 61.1201 57.5V42.5C61.1201 41.9696 61.3308 41.4609 61.7059 41.0858C62.081 40.7107 62.5897 40.5 63.1201 40.5H85.6201C86.1506 40.5 86.6593 40.7107 87.0343 41.0858C87.4094 41.4609 87.6201 41.9696 87.6201 42.5V57.5C87.6201 58.0304 87.4094 58.5391 87.0343 58.9142C86.6593 59.2893 86.1506 59.5 85.6201 59.5ZM65.1201 55.5H83.6201V44.5H65.1201V55.5Z" fill="#D86613"/>
</svg>
