<svg width="100" height="100" viewBox="0 0 100 100" fill="none" xmlns="http://www.w3.org/2000/svg">
<path d="M95 79.12H5C4.46957 79.12 3.96086 78.9092 3.58579 78.5342C3.21071 78.1591 3 77.6504 3 77.12V20.8799C3 20.3495 3.21071 19.8408 3.58579 19.4657C3.96086 19.0907 4.46957 18.8799 5 18.8799H95C95.5304 18.8799 96.0391 19.0907 96.4142 19.4657C96.7893 19.8408 97 20.3495 97 20.8799V77.12C97 77.6504 96.7893 78.1591 96.4142 78.5342C96.0391 78.9092 95.5304 79.12 95 79.12ZM7 75.12H93V22.8799H7V75.12Z" fill="#D86613"/>
<path d="M16.3799 28.3799H12.3799V69.6399H16.3799V28.3799Z" fill="#D86613"/>
<path d="M27.6201 28.3799H23.6201V69.6399H27.6201V28.3799Z" fill="#D86613"/>
<path d="M76.3799 28.3799H72.3799V69.6399H76.3799V28.3799Z" fill="#D86613"/>
<path d="M87.6201 28.3799H83.6201V69.6399H87.6201V28.3799Z" fill="#D86613"/>
<path d="M61.7399 64.1199H38.2599C37.3634 64.1199 36.5037 63.7638 35.8699 63.13C35.236 62.4961 34.8799 61.6364 34.8799 60.7399V37.2599C34.8799 36.3635 35.236 35.5038 35.8699 34.8699C36.5037 34.236 37.3634 33.8799 38.2599 33.8799H61.7399C62.6363 33.8799 63.496 34.236 64.1299 34.8699C64.7638 35.5038 65.1199 36.3635 65.1199 37.2599V60.7399C65.1199 61.6364 64.7638 62.4961 64.1299 63.13C63.496 63.7638 62.6363 64.1199 61.7399 64.1199ZM38.8799 60.1199H61.1199V37.8799H38.8799V60.1199Z" fill="#D86613"/>
<path d="M40.76 30.26H36.76V35.88H40.76V30.26Z" fill="#D86613"/>
<path d="M48.26 30.26H44.26V35.88H48.26V30.26Z" fill="#D86613"/>
<path d="M55.76 30.26H51.76V35.88H55.76V30.26Z" fill="#D86613"/>
<path d="M63.26 30.26H59.26V35.88H63.26V30.26Z" fill="#D86613"/>
<path d="M40.76 62.1201H36.76V67.7401H40.76V62.1201Z" fill="#D86613"/>
<path d="M48.26 62.1201H44.26V67.7401H48.26V62.1201Z" fill="#D86613"/>
<path d="M55.76 62.1201H51.76V67.7401H55.76V62.1201Z" fill="#D86613"/>
<path d="M63.26 62.1201H59.26V67.7401H63.26V62.1201Z" fill="#D86613"/>
<path d="M36.88 35.76H31.26V39.76H36.88V35.76Z" fill="#D86613"/>
<path d="M36.88 43.26H31.26V47.26H36.88V43.26Z" fill="#D86613"/>
<path d="M36.88 50.76H31.26V54.76H36.88V50.76Z" fill="#D86613"/>
<path d="M36.88 58.26H31.26V62.26H36.88V58.26Z" fill="#D86613"/>
<path d="M68.7401 35.76H63.1201V39.76H68.7401V35.76Z" fill="#D86613"/>
<path d="M68.7401 43.26H63.1201V47.26H68.7401V43.26Z" fill="#D86613"/>
<path d="M68.7401 50.76H63.1201V54.76H68.7401V50.76Z" fill="#D86613"/>
<path d="M68.7401 58.26H63.1201V62.26H68.7401V58.26Z" fill="#D86613"/>
</svg>
