<svg width="100" height="100" viewBox="0 0 100 100" fill="none" xmlns="http://www.w3.org/2000/svg">
<g clip-path="url(#clip0_0_951)">
<path d="M100 0H0V100H100V0Z" fill="#D86613"/>
<path d="M48.6667 21.2133V33.9867H51.3334V21.2133L57.5467 27.4267L59.4267 25.5333L50.9467 17.0533C50.8227 16.9284 50.6753 16.8292 50.5128 16.7615C50.3503 16.6938 50.176 16.6589 50 16.6589C49.824 16.6589 49.6497 16.6938 49.4873 16.7615C49.3248 16.8292 49.1773 16.9284 49.0534 17.0533L40.5734 25.5333L42.4534 27.4267L48.6667 21.2133Z" fill="white"/>
<path d="M51.3334 78.7733V65.9867H48.6667V78.7733L42.4534 72.56L40.5734 74.4533L49.0534 82.9333C49.1773 83.0583 49.3248 83.1575 49.4873 83.2252C49.6497 83.2929 49.824 83.3277 50 83.3277C50.176 83.3277 50.3503 83.2929 50.5128 83.2252C50.6753 83.1575 50.8227 83.0583 50.9467 82.9333L59.4267 74.4533L57.5467 72.56L51.3334 78.7733Z" fill="white"/>
<path d="M59.3334 39.5333V36.6533H56.6667V39.32H54V36.6533H51.3334V39.32H48.6667V36.6533H46V39.32H43.3334V36.6533H40.6667V39.5333C40.1658 39.7572 39.7631 40.1551 39.5334 40.6533H36.6667V43.32H39.3334V45.9867H36.6667V48.6533H39.3334V51.32H36.6667V53.9867H39.3334V56.6533H36.6667V59.32H39.5334C39.7584 59.8246 40.1621 60.2283 40.6667 60.4533V63.32H43.3334V60.6533H46V63.32H48.6667V60.6533H51.3334V63.32H54V60.6533H56.6667V63.32H59.3334V60.4533C59.838 60.2283 60.2416 59.8246 60.4667 59.32H63.3334V56.6533H60.6667V53.9867H63.3334V51.32H60.6667V48.6533H63.3334V45.9867H60.6667V43.32H63.3334V40.6533H60.4667C60.2369 40.1551 59.8342 39.7572 59.3334 39.5333ZM58 57.9867H42V41.9867H58V57.9867Z" fill="white"/>
<path d="M25.0267 40.6533L23.1467 42.5467L29.3334 48.6533H16.6667V51.32H29.4534L23.1467 57.6267L25.0267 59.5067L33.52 51.0267C33.6436 50.9021 33.7414 50.7543 33.8077 50.5919C33.8741 50.4294 33.9077 50.2555 33.9067 50.08C33.9052 49.7302 33.7663 49.395 33.52 49.1467L25.0267 40.6533Z" fill="white"/>
<path d="M83.3333 48.6533H70.7333L76.8533 42.5467L74.9733 40.6533L66.48 49.1467C66.2337 49.395 66.0948 49.7302 66.0933 50.08C66.0923 50.2555 66.126 50.4294 66.1923 50.5919C66.2587 50.7543 66.3564 50.9021 66.48 51.0267L74.9733 59.5067L76.8533 57.6267L70.5467 51.32H83.3333V48.6533Z" fill="white"/>
</g>
<defs>
<clipPath id="clip0_0_951">
<rect width="100" height="100" fill="white"/>
</clipPath>
</defs>
</svg>
