<svg width="100" height="100" viewBox="0 0 100 100" fill="none" xmlns="http://www.w3.org/2000/svg">
<path d="M57.0001 84.82L27.6001 55.42L11.4201 71.6L8.58008 68.78L26.1801 51.18C26.5548 50.8075 27.0617 50.5984 27.5901 50.5984C28.1184 50.5984 28.6254 50.8075 29.0001 51.18L59.8201 82L57.0001 84.82Z" fill="#D86613"/>
<path d="M88.58 68.18L65.84 45.44L43.54 67.74L40.72 64.92L64.44 41.2C64.8147 40.8275 65.3216 40.6184 65.85 40.6184C66.3783 40.6184 66.8852 40.8275 67.26 41.2L91.42 65.36L88.58 68.18Z" fill="#D86613"/>
<path d="M42.3199 47.88C40.467 47.884 38.6546 47.3379 37.1123 46.3109C35.57 45.2839 34.3672 43.8223 33.6563 42.1112C32.9453 40.4 32.7583 38.5164 33.1188 36.6989C33.4793 34.8814 34.3712 33.2117 35.6814 31.9015C36.9917 30.5913 38.6613 29.6994 40.4788 29.3389C42.2963 28.9784 44.18 29.1654 45.8911 29.8764C47.6022 30.5873 49.0639 31.7901 50.0908 33.3324C51.1178 34.8747 51.6639 36.6871 51.6599 38.54C51.6546 41.0155 50.6689 43.3881 48.9185 45.1386C47.168 46.889 44.7954 47.8747 42.3199 47.88ZM42.3199 33.18C41.259 33.1761 40.2207 33.487 39.3366 34.0736C38.4526 34.6602 37.7624 35.4959 37.3537 36.4749C36.9449 37.454 36.8359 38.5323 37.0405 39.5734C37.245 40.6144 37.7539 41.5714 38.5028 42.323C39.2516 43.0746 40.2066 43.5871 41.2469 43.7955C42.2871 44.004 43.3659 43.899 44.3465 43.4939C45.327 43.0888 46.1653 42.4018 46.7552 41.5199C47.345 40.6381 47.6599 39.601 47.6599 38.54C47.6599 37.1219 47.098 35.7616 46.0971 34.757C45.0962 33.7524 43.738 33.1853 42.3199 33.18Z" fill="#D86613"/>
<path d="M89.32 91.66H10C9.46957 91.66 8.96086 91.4493 8.58579 91.0742C8.21071 90.6991 8 90.1904 8 89.66V10.34C8 9.80956 8.21071 9.30085 8.58579 8.92578C8.96086 8.55071 9.46957 8.34 10 8.34H89.32C89.8504 8.34 90.3591 8.55071 90.7342 8.92578C91.1093 9.30085 91.32 9.80956 91.32 10.34V89.66C91.32 90.1904 91.1093 90.6991 90.7342 91.0742C90.3591 91.4493 89.8504 91.66 89.32 91.66ZM12 87.66H87.32V12.34H12V87.66Z" fill="#D86613"/>
</svg>
