<svg width="100" height="100" viewBox="0 0 100 100" fill="none" xmlns="http://www.w3.org/2000/svg">
<path d="M72.5001 16.38H23.7601C23.3697 16.3814 22.9875 16.2685 22.6606 16.0553C22.3336 15.842 22.0762 15.5378 21.9201 15.18C21.7636 14.824 21.7142 14.43 21.7782 14.0464C21.8421 13.6627 22.0165 13.3061 22.2801 13.02L30.9401 3.64002C31.1288 3.43646 31.3579 3.27444 31.6127 3.16426C31.8675 3.05407 32.1425 2.99814 32.4201 3.00002H63.8401C64.1143 3.0009 64.3854 3.05817 64.6366 3.16827C64.8878 3.27837 65.1136 3.43894 65.3001 3.64002L74.0001 13.02C74.2669 13.3039 74.445 13.6596 74.5125 14.0433C74.5801 14.427 74.534 14.8221 74.3801 15.18C74.2213 15.5441 73.9577 15.8527 73.6229 16.0664C73.2881 16.2801 72.8972 16.3893 72.5001 16.38ZM28.3201 12.38H68.0001L62.9601 7.00002H33.3001L28.3201 12.38Z" fill="#3F8624"/>
<path d="M74.5 27.4999H70.5V23.8799H25.76V27.4999H21.76V21.8799C21.76 21.3495 21.9707 20.8408 22.3458 20.4657C22.7209 20.0907 23.2296 19.8799 23.76 19.8799H72.5C73.0304 19.8799 73.5391 20.0907 73.9142 20.4657C74.2893 20.8408 74.5 21.3495 74.5 21.8799V27.4999Z" fill="#3F8624"/>
<path d="M48.0001 96.9999C38.0001 96.9999 23.1401 94.7599 22.9001 88.6199L16.2201 38.9399C16.1166 38.4095 16.2281 37.8597 16.5301 37.4115C16.832 36.9633 17.2996 36.6534 17.8301 36.5499C18.3605 36.4465 18.9103 36.558 19.3585 36.86C19.8067 37.1619 20.1166 37.6295 20.2201 38.1599C20.8201 40.7999 32.0001 44.6199 48.0001 44.6199C64.0001 44.6199 75.2001 40.7999 76.0001 38.1599C76.1035 37.6295 76.4134 37.1619 76.8616 36.86C77.3098 36.558 77.8596 36.4465 78.3901 36.5499C78.9205 36.6534 79.3881 36.9633 79.69 37.4115C79.992 37.8597 80.1035 38.4095 80.0001 38.9399L73.1401 88.6199C73.1401 90.7999 71.1401 92.6199 67.6201 94.0399C66.0872 94.6134 64.5169 95.0812 62.9201 95.4399C58.0189 96.5051 53.0155 97.0282 48.0001 96.9999ZM20.9201 43.9999L26.9201 88.2999C26.9201 88.2999 26.9201 88.4799 26.9201 88.5799C27.4201 89.9999 35.8401 92.9999 48.0001 92.9999C52.7062 93.0295 57.4013 92.5399 62.0001 91.5399C63.4007 91.2318 64.7775 90.8241 66.1201 90.3199C68.8001 89.2599 69.1201 88.4199 69.1201 88.4199C69.1111 88.3469 69.1111 88.273 69.1201 88.1999L75.1201 43.8799C68.5601 47.2799 56.6001 48.6199 48.0201 48.6199C39.4401 48.6199 27.5001 47.2799 20.9201 43.9999Z" fill="#3F8624"/>
<path d="M48 48.62C36.24 48.62 18 46.1 16.26 39.18C16.2509 39.1002 16.2509 39.0197 16.26 38.94V38.32C16.26 38.22 16.26 38.14 16.26 38.06C16.26 31.12 32.76 26.44 48.26 26.44C63.76 26.44 80 31.12 80 38V38.26V38.88V39.12C78 46.1 59.8 48.62 48 48.62ZM20.16 38.26C21.08 40.88 32.16 44.62 48.02 44.62C63.88 44.62 74.98 40.88 75.88 38.26L76 38C75.72 35.7 64.96 30.48 48.1 30.48C31.24 30.48 20.4 35.66 20.14 38L20.16 38.26Z" fill="#3F8624"/>
<path d="M79.4799 69.02C74.8799 69.02 65.4799 66.34 47.1399 57.32L48.8999 53.72C60.8999 59.62 75.1399 65.24 79.3599 65.26C77.8255 63.8741 76.1098 62.7034 74.2599 61.78L73.9999 61.66L75.9999 58.16L76.2199 58.28C81.1799 61.02 83.4799 63.08 83.8599 65.18C83.9471 65.6507 83.9297 66.1348 83.8087 66.598C83.6877 67.0612 83.4662 67.4921 83.1599 67.86C82.6686 68.3106 82.0844 68.648 81.4486 68.8484C80.8128 69.0488 80.1408 69.1074 79.4799 69.02Z" fill="#3F8624"/>
<path d="M48 59.26C47.2603 59.26 46.5372 59.0407 45.9222 58.6297C45.3071 58.2188 44.8278 57.6347 44.5447 56.9513C44.2616 56.2679 44.1876 55.5159 44.3319 54.7904C44.4762 54.0649 44.8324 53.3985 45.3554 52.8755C45.8785 52.3524 46.5449 51.9962 47.2704 51.8519C47.9959 51.7076 48.7479 51.7816 49.4312 52.0647C50.1146 52.3478 50.6988 52.8272 51.1097 53.4422C51.5207 54.0572 51.74 54.7803 51.74 55.52C51.74 56.5119 51.346 57.4632 50.6446 58.1646C49.9432 58.866 48.9919 59.26 48 59.26ZM48 55.26C47.9311 55.26 47.8649 55.2874 47.8162 55.3362C47.7674 55.3849 47.74 55.4511 47.74 55.52C47.74 55.82 48.28 55.82 48.28 55.52C48.2801 55.4841 48.2728 55.4486 48.2585 55.4157C48.2442 55.3828 48.2232 55.3532 48.1969 55.3287C48.1706 55.3043 48.1395 55.2856 48.1057 55.2738C48.0718 55.2619 48.0358 55.2573 48 55.26Z" fill="#3F8624"/>
</svg>
