<svg width="100" height="100" viewBox="0 0 100 100" fill="none" xmlns="http://www.w3.org/2000/svg">
<g clip-path="url(#clip0_0_964)">
<path d="M100 0H0V100H100V0Z" fill="#D86613"/>
<path d="M79.3334 40.08V67.3467L55.3334 81.2133V70.8667L68.6667 63.1733C69.0234 62.9729 69.3292 62.6931 69.5604 62.3555C69.7916 62.0179 69.942 61.6317 70 61.2267C70.0271 60.8805 70.0271 60.5328 70 60.1867V45.0133L79.3334 39.68V40.08ZM81.2134 35.68C81.0786 35.6775 80.9455 35.7096 80.8267 35.7733L68.0934 43.1333C67.8534 43.2667 67.3334 43.5067 67.3334 43.8133V60.1867C67.3478 60.4131 67.3478 60.6402 67.3334 60.8667L53.0667 69.0933C52.9494 69.1641 52.8523 69.2638 52.7846 69.3828C52.7169 69.5019 52.6809 69.6364 52.6801 69.7733V84.44C52.6801 84.5433 52.7004 84.6456 52.7399 84.741C52.7795 84.8365 52.8374 84.9232 52.9105 84.9963C52.9835 85.0693 53.0702 85.1272 53.1657 85.1668C53.2611 85.2063 53.3634 85.2267 53.4667 85.2267C53.6026 85.2245 53.7356 85.1878 53.8534 85.12L81.6267 69.12C81.744 69.0492 81.8411 68.9495 81.9088 68.8305C81.9765 68.7114 82.0125 68.577 82.0134 68.44V36.36C82.0134 36.2573 81.993 36.1556 81.9533 36.0609C81.9136 35.9662 81.8554 35.8804 81.7822 35.8084C81.709 35.7364 81.6221 35.6797 81.5267 35.6417C81.4314 35.6036 81.3294 35.5849 81.2267 35.5867L81.2134 35.68Z" fill="white"/>
<path d="M47.8933 86.5867C47.5237 86.5873 47.1605 86.4908 46.84 86.3067L19.0533 70.3067C18.7328 70.1216 18.4666 69.8553 18.2817 69.5346C18.0968 69.2139 17.9996 68.8502 18 68.48V33.16C17.9996 32.7898 18.0968 32.4261 18.2817 32.1054C18.4666 31.7847 18.7328 31.5184 19.0533 31.3333L49.6133 13.6933C49.9342 13.5033 50.3004 13.403 50.6733 13.403C51.0463 13.403 51.4124 13.5033 51.7333 13.6933L79.5067 29.6933C79.8263 29.8794 80.0918 30.146 80.2765 30.4664C80.4613 30.7869 80.559 31.1501 80.56 31.52C80.5587 31.8916 80.461 32.2566 80.2763 32.5791C80.0917 32.9016 79.8265 33.1707 79.5067 33.36L50 50.4267V84.48C50.0031 84.8507 49.9072 85.2155 49.722 85.5367C49.5368 85.8579 49.2691 86.1237 48.9467 86.3067C48.6262 86.4908 48.2629 86.5873 47.8933 86.5867ZM20.6667 68.12L47.3333 83.5067V50.1067C47.3333 49.7348 47.4305 49.3693 47.6152 49.0465C47.8 48.7238 48.0659 48.4549 48.3867 48.2667L77.3333 31.5733L50.6667 16.1733L20.68 33.5067L20.6667 68.12Z" fill="white"/>
</g>
<defs>
<clipPath id="clip0_0_964">
<rect width="100" height="100" fill="white"/>
</clipPath>
</defs>
</svg>
