<svg width="100" height="100" viewBox="0 0 100 100" fill="none" xmlns="http://www.w3.org/2000/svg">
<path d="M83.76 97H16.24C15.7096 97 15.2008 96.7893 14.8258 96.4142C14.4507 96.0391 14.24 95.5304 14.24 95V5C14.24 4.46957 14.4507 3.96086 14.8258 3.58579C15.2008 3.21071 15.7096 3 16.24 3H83.76C84.2904 3 84.7991 3.21071 85.1742 3.58579C85.5493 3.96086 85.76 4.46957 85.76 5V95C85.76 95.5304 85.5493 96.0391 85.1742 96.4142C84.7991 96.7893 84.2904 97 83.76 97ZM18.24 93H81.76V7H18.24V93Z" fill="#D86613"/>
<path d="M36.84 29.52H25.6C25.0696 29.52 24.5609 29.3093 24.1858 28.9342C23.8108 28.5592 23.6 28.0504 23.6 27.52V16.26C23.6 15.7296 23.8108 15.2209 24.1858 14.8458C24.5609 14.4707 25.0696 14.26 25.6 14.26H36.84C37.3705 14.26 37.8792 14.4707 38.2543 14.8458C38.6293 15.2209 38.84 15.7296 38.84 16.26V27.52C38.84 28.0504 38.6293 28.5592 38.2543 28.9342C37.8792 29.3093 37.3705 29.52 36.84 29.52ZM27.6 25.52H34.84V18.26H27.6V25.52Z" fill="#D86613"/>
<path d="M36.84 55.76H25.6C25.0696 55.76 24.5609 55.5493 24.1858 55.1742C23.8108 54.7991 23.6 54.2904 23.6 53.76V42.5C23.6 41.9696 23.8108 41.4609 24.1858 41.0858C24.5609 40.7107 25.0696 40.5 25.6 40.5H36.84C37.3705 40.5 37.8792 40.7107 38.2543 41.0858C38.6293 41.4609 38.84 41.9696 38.84 42.5V53.76C38.84 54.2904 38.6293 54.7991 38.2543 55.1742C37.8792 55.5493 37.3705 55.76 36.84 55.76ZM27.6 51.76H34.84V44.5H27.6V51.76Z" fill="#D86613"/>
<path d="M36.84 82H25.6C25.0696 82 24.5609 81.7893 24.1858 81.4142C23.8108 81.0391 23.6 80.5304 23.6 80V68.76C23.6 68.2296 23.8108 67.7209 24.1858 67.3458C24.5609 66.9707 25.0696 66.76 25.6 66.76H36.84C37.3705 66.76 37.8792 66.9707 38.2543 67.3458C38.6293 67.7209 38.84 68.2296 38.84 68.76V80C38.84 80.5304 38.6293 81.0391 38.2543 81.4142C37.8792 81.7893 37.3705 82 36.84 82ZM27.6 78H34.84V70.76H27.6V78Z" fill="#D86613"/>
<path d="M76.26 19.8799H42.5V23.8799H76.26V19.8799Z" fill="#D86613"/>
<path d="M76.26 46.1201H42.5V50.1201H76.26V46.1201Z" fill="#D86613"/>
<path d="M76.26 72.3799H42.5V76.3799H76.26V72.3799Z" fill="#D86613"/>
</svg>
