<svg width="100" height="100" viewBox="0 0 100 100" fill="none" xmlns="http://www.w3.org/2000/svg">
<path d="M95 80.12H5C4.46957 80.12 3.96086 79.9092 3.58579 79.5342C3.21071 79.1591 3 78.6504 3 78.12V21.8799C3 21.3495 3.21071 20.8408 3.58579 20.4657C3.96086 20.0907 4.46957 19.8799 5 19.8799H95C95.5304 19.8799 96.0391 20.0907 96.4142 20.4657C96.7893 20.8408 97 21.3495 97 21.8799V78.12C97 78.6504 96.7893 79.1591 96.4142 79.5342C96.0391 79.9092 95.5304 80.12 95 80.12ZM7 76.12H93V23.8799H7V76.12Z" fill="#D86613"/>
<path d="M16.3799 29.3799H12.3799V70.6399H16.3799V29.3799Z" fill="#D86613"/>
<path d="M27.6201 29.3799H23.6201V70.6399H27.6201V29.3799Z" fill="#D86613"/>
<path d="M76.3799 29.3799H72.3799V70.6399H76.3799V29.3799Z" fill="#D86613"/>
<path d="M87.6201 29.3799H83.6201V70.6399H87.6201V29.3799Z" fill="#D86613"/>
<path d="M66.8801 53.88H33.1201C32.5897 53.88 32.081 53.6693 31.7059 53.2942C31.3308 52.9191 31.1201 52.4104 31.1201 51.88V31.24C31.1201 30.7096 31.3308 30.2008 31.7059 29.8258C32.081 29.4507 32.5897 29.24 33.1201 29.24H66.8801C67.4105 29.24 67.9193 29.4507 68.2943 29.8258C68.6694 30.2008 68.8801 30.7096 68.8801 31.24V51.88C68.8801 52.4104 68.6694 52.9191 68.2943 53.2942C67.9193 53.6693 67.4105 53.88 66.8801 53.88ZM35.1201 49.88H64.8801V33.24H35.1201V49.88Z" fill="#D86613"/>
<path d="M65 70.7599H35C34.4696 70.7599 33.9609 70.5492 33.5858 70.1742C33.2107 69.7991 33 69.2904 33 68.7599V59.3799C33 58.8495 33.2107 58.3408 33.5858 57.9657C33.9609 57.5907 34.4696 57.3799 35 57.3799H65C65.5304 57.3799 66.0391 57.5907 66.4142 57.9657C66.7893 58.3408 67 58.8495 67 59.3799V68.7599C67 69.2904 66.7893 69.7991 66.4142 70.1742C66.0391 70.5492 65.5304 70.7599 65 70.7599ZM37 66.7599H63V61.3799H37V66.7599Z" fill="#D86613"/>
<path d="M59.3601 63.1201H55.6201V65.0001H59.3601V63.1201Z" fill="#D86613"/>
<path d="M52 51.8799H48V59.3799H52V51.8799Z" fill="#D86613"/>
</svg>
