<svg width="100" height="100" viewBox="0 0 100 100" fill="none" xmlns="http://www.w3.org/2000/svg">
<g clip-path="url(#clip0_0_1168)">
<path d="M100 0H0V100H100V0Z" fill="url(#paint0_linear_0_1168)"/>
<path d="M42.3333 47.7733H38.56H38.32C36.433 47.4628 34.687 46.58 33.3181 45.2446C31.9493 43.9091 31.0237 42.1854 30.6666 40.3067C29.92 34.08 33.6266 31.1733 36.44 30.2133C36.4606 27.0834 37.595 24.063 39.64 21.6933C40.7644 20.4013 42.1598 19.3729 43.7269 18.6816C45.294 17.9902 46.9943 17.6528 48.7066 17.6933C51.0889 17.5954 53.4447 18.2239 55.4616 19.4954C57.4785 20.767 59.0613 22.6216 60 24.8133C61.2032 24.0995 62.6284 23.8573 64 24.1333C68 24.8933 69.1067 29 69.1333 31.0667H66.4666C66.4666 30.92 66.36 27.2667 63.4533 26.7067C62.8985 26.5994 62.3242 26.6601 61.804 26.881C61.2839 27.1019 60.8414 27.4729 60.5333 27.9467C60.3865 28.1649 60.1785 28.3349 59.9353 28.4352C59.6922 28.5355 59.4248 28.5616 59.1668 28.5103C58.9088 28.459 58.6718 28.3326 58.4855 28.1468C58.2993 27.9611 58.1721 27.7245 58.12 27.4667C57.6503 25.3674 56.4588 23.4996 54.7532 22.1887C53.0476 20.8779 50.9361 20.2071 48.7866 20.2933C47.4536 20.261 46.13 20.524 44.9106 21.0634C43.6911 21.6028 42.6061 22.4053 41.7333 23.4133C40.8268 24.4462 40.1396 25.6524 39.7133 26.9588C39.287 28.2652 39.1305 29.6446 39.2533 31.0133C39.2995 31.3573 39.2097 31.7058 39.0031 31.9846C38.7964 32.2635 38.4892 32.4508 38.1466 32.5067C37.5866 32.6133 32.64 33.6933 33.3866 39.92C33.6755 41.2065 34.3343 42.3805 35.282 43.2973C36.2296 44.2141 37.4246 44.8338 38.72 45.08H42.36L42.3333 47.7733Z" fill="white"/>
<path d="M59.3467 46.5867H50.2134V49.2533H59.3467V46.5867Z" fill="white"/>
<path d="M59.3467 51.8133H50.2134V54.48H59.3467V51.8133Z" fill="white"/>
<path d="M59.3467 41.3333H50.2134V44H59.3467V41.3333Z" fill="white"/>
<path d="M61.52 44C61.2563 44 60.9985 43.9218 60.7792 43.7753C60.56 43.6288 60.3891 43.4205 60.2881 43.1769C60.1872 42.9333 60.1608 42.6652 60.2123 42.4065C60.2637 42.1479 60.3907 41.9103 60.5772 41.7239C60.7636 41.5374 61.0012 41.4104 61.2599 41.3589C61.5185 41.3075 61.7866 41.3339 62.0302 41.4348C62.2739 41.5357 62.4821 41.7066 62.6286 41.9259C62.7751 42.1452 62.8533 42.403 62.8533 42.6667C62.8533 43.0203 62.7128 43.3594 62.4628 43.6095C62.2127 43.8595 61.8736 44 61.52 44Z" fill="white"/>
<path d="M61.52 49.2267C61.1664 49.2267 60.8272 49.0862 60.5772 48.8362C60.3271 48.5861 60.1866 48.247 60.1866 47.8933C60.1866 47.5397 60.3271 47.2006 60.5772 46.9505C60.8272 46.7005 61.1664 46.56 61.52 46.56C61.8736 46.56 62.2127 46.7005 62.4628 46.9505C62.7128 47.2006 62.8533 47.5397 62.8533 47.8933C62.8533 48.247 62.7128 48.5861 62.4628 48.8362C62.2127 49.0862 61.8736 49.2267 61.52 49.2267Z" fill="white"/>
<path d="M61.52 54.44C61.2563 54.44 60.9985 54.3618 60.7792 54.2153C60.56 54.0688 60.3891 53.8606 60.2881 53.6169C60.1872 53.3733 60.1608 53.1052 60.2123 52.8466C60.2637 52.5879 60.3907 52.3504 60.5772 52.1639C60.7636 51.9774 61.0012 51.8504 61.2599 51.799C61.5185 51.7475 61.7866 51.7739 62.0302 51.8749C62.2739 51.9758 62.4821 52.1467 62.6286 52.3659C62.7751 52.5852 62.8533 52.843 62.8533 53.1067C62.8533 53.4603 62.7128 53.7995 62.4628 54.0495C62.2127 54.2995 61.8736 54.44 61.52 54.44Z" fill="white"/>
<path d="M65.4133 79.28H46.9733C45.9124 79.28 44.895 78.8586 44.1448 78.1084C43.3947 77.3583 42.9733 76.3409 42.9733 75.28V36.4667C42.9733 35.4058 43.3947 34.3884 44.1448 33.6382C44.895 32.8881 45.9124 32.4667 46.9733 32.4667H65.4133C66.4741 32.4667 67.4915 32.8881 68.2417 33.6382C68.9918 34.3884 69.4133 35.4058 69.4133 36.4667V75.28C69.4133 76.3409 68.9918 77.3583 68.2417 78.1084C67.4915 78.8586 66.4741 79.28 65.4133 79.28ZM46.9733 35.1333C46.6196 35.1333 46.2805 35.2738 46.0305 35.5238C45.7804 35.7739 45.6399 36.113 45.6399 36.4667V75.28C45.6399 75.6336 45.7804 75.9728 46.0305 76.2228C46.2805 76.4729 46.6196 76.6133 46.9733 76.6133H65.4133C65.7669 76.6133 66.106 76.4729 66.3561 76.2228C66.6061 75.9728 66.7466 75.6336 66.7466 75.28V36.4667C66.7466 36.113 66.6061 35.7739 66.3561 35.5238C66.106 35.2738 65.7669 35.1333 65.4133 35.1333H46.9733Z" fill="white"/>
<path d="M52.7466 82.3466H47.1066C46.753 82.3466 46.4139 82.2062 46.1638 81.9561C45.9138 81.7061 45.7733 81.3669 45.7733 81.0133V77.9467C45.7733 77.593 45.9138 77.2539 46.1638 77.0038C46.4139 76.7538 46.753 76.6133 47.1066 76.6133H52.7466C53.1003 76.6133 53.4394 76.7538 53.6895 77.0038C53.9395 77.2539 54.08 77.593 54.08 77.9467V81.0133C54.08 81.3669 53.9395 81.7061 53.6895 81.9561C53.4394 82.2062 53.1003 82.3466 52.7466 82.3466ZM48.44 79.68H51.4133V79.28H48.44V79.68Z" fill="white"/>
<path d="M65.8399 82.3466H60.1866C59.833 82.3466 59.4938 82.2062 59.2438 81.9561C58.9937 81.7061 58.8533 81.3669 58.8533 81.0133V77.9467C58.8533 77.593 58.9937 77.2539 59.2438 77.0038C59.4938 76.7538 59.833 76.6133 60.1866 76.6133H65.8399C66.1936 76.6133 66.5327 76.7538 66.7828 77.0038C67.0328 77.2539 67.1733 77.593 67.1733 77.9467V81.0133C67.1733 81.3669 67.0328 81.7061 66.7828 81.9561C66.5327 82.2062 66.1936 82.3466 65.8399 82.3466ZM61.5199 79.68H64.5066V79.28H61.5199V79.68Z" fill="white"/>
</g>
<defs>
<linearGradient id="paint0_linear_0_1168" x1="-20.7107" y1="120.715" x2="120.711" y2="-20.7067" gradientUnits="userSpaceOnUse">
<stop stop-color="#C8511B"/>
<stop offset="1" stop-color="#FF9900"/>
</linearGradient>
<clipPath id="clip0_0_1168">
<rect width="100" height="100" fill="white"/>
</clipPath>
</defs>
</svg>
