<svg width="100" height="100" viewBox="0 0 100 100" fill="none" xmlns="http://www.w3.org/2000/svg">
<g clip-path="url(#clip0_0_1136)">
<path d="M100 0H0V100H100V0Z" fill="#D86613"/>
<path d="M69.9999 62.6667V60C73.2133 60 80.6666 59.04 80.6666 50.1333C80.6666 44.8 77.5333 41.4533 71.3333 40.2133C71.043 40.1545 70.7806 40.0006 70.5874 39.7761C70.3943 39.5516 70.2814 39.2691 70.2666 38.9733C69.9599 33.7733 66.9333 31.92 64.4399 31.92C63.5937 31.9282 62.7609 32.1324 62.0068 32.5164C61.2526 32.9004 60.5977 33.4538 60.0933 34.1333C59.9482 34.3221 59.7553 34.4686 59.5345 34.5576C59.3138 34.6466 59.0732 34.6749 58.8378 34.6395C58.6024 34.6041 58.3808 34.5064 58.1959 34.3564C58.0111 34.2064 57.8697 34.0097 57.7866 33.7867C56.9247 31.274 55.4968 28.9931 53.6133 27.12C51.5727 25.0027 48.9511 23.5369 46.0788 22.9072C43.2065 22.2775 40.2121 22.5121 37.473 23.5815C34.7338 24.6509 32.3726 26.5073 30.6868 28.9166C29.001 31.3258 28.0661 34.1802 27.9999 37.12C28.0018 37.7171 28.0374 38.3136 28.1066 38.9067C28.1455 39.2291 28.0654 39.5547 27.8813 39.8223C27.6972 40.0899 27.4217 40.2811 27.1066 40.36C24.1999 41.08 19.3199 43.2933 19.3199 50.0133C19.3199 50.28 19.3199 50.52 19.3199 50.7467C19.5504 53.3373 20.7656 55.741 22.7153 57.4625C24.665 59.1839 27.2006 60.0921 29.7999 60H31.3333V62.6667H29.7999C26.5292 62.7496 23.3504 61.5796 20.914 59.396C18.4776 57.2123 16.9677 54.1802 16.6933 50.92C16.6933 50.64 16.6933 50.3467 16.6933 50.04C16.5775 47.3666 17.3677 44.7325 18.9358 42.5642C20.5039 40.396 22.7581 38.8206 25.3333 38.0933C25.3333 37.7733 25.3333 37.4533 25.3333 37.12C25.4132 33.6631 26.5112 30.3065 28.4898 27.4707C30.4684 24.6349 33.2396 22.4458 36.4565 21.1775C39.6733 19.9093 43.1929 19.6182 46.5744 20.3409C49.9559 21.0635 53.0491 22.7677 55.4666 25.24C57.1308 26.8874 58.4856 28.8203 59.4666 30.9467C60.8691 29.8318 62.6083 29.2255 64.3999 29.2267C68.1333 29.2267 72.0666 31.8933 72.7999 37.7867C79.5732 39.4533 83.2933 43.8 83.2933 50.1067C83.3333 59.36 76.4399 62.6667 69.9999 62.6667Z" fill="white"/>
<path d="M60.6666 49.1067C58.8676 49.1191 57.1374 49.7997 55.812 51.0162C54.4866 52.2328 53.6606 53.8985 53.4945 55.6898C53.3283 57.4812 53.8338 59.2704 54.9128 60.71C55.9918 62.1496 57.5673 63.1369 59.3333 63.48V69.3333H51.3333V46.5733C53.1103 46.241 54.6991 45.2571 55.7885 43.8144C56.8779 42.3717 57.3892 40.5742 57.2223 38.7741C57.0555 36.974 56.2224 35.3011 54.8864 34.0832C53.5504 32.8654 51.8078 32.1903 50 32.1903C48.1922 32.1903 46.4495 32.8654 45.1135 34.0832C43.7775 35.3011 42.9445 36.974 42.7776 38.7741C42.6107 40.5742 43.1221 42.3717 44.2114 43.8144C45.3008 45.2571 46.8896 46.241 48.6666 46.5733V62.6667H40.6666V60.0933C42.4436 59.761 44.0325 58.7771 45.1218 57.3344C46.2112 55.8917 46.7225 54.0942 46.5557 52.2941C46.3888 50.494 45.5557 48.8211 44.2197 47.6032C42.8837 46.3854 41.1411 45.7103 39.3333 45.7103C37.5255 45.7103 35.7829 46.3854 34.4469 47.6032C33.1109 48.8211 32.2778 50.494 32.1109 52.2941C31.9441 54.0942 32.4554 55.8917 33.5448 57.3344C34.6341 58.7771 36.223 59.761 38 60.0933V64C38 64.3536 38.1404 64.6928 38.3905 64.9428C38.6405 65.1929 38.9797 65.3333 39.3333 65.3333H48.6666V80H51.3333V72H60.6666C61.0203 72 61.3594 71.8595 61.6095 71.6095C61.8595 71.3594 62 71.0203 62 70.6667V63.48C63.766 63.1369 65.3415 62.1496 66.4205 60.71C67.4995 59.2704 68.005 57.4812 67.8388 55.6898C67.6727 53.8985 66.8467 52.2328 65.5213 51.0162C64.1959 49.7997 62.4657 49.1191 60.6666 49.1067ZM34.7466 52.9867C34.744 52.0789 35.0108 51.1909 35.5131 50.4348C36.0155 49.6788 36.7309 49.0888 37.5688 48.7396C38.4067 48.3904 39.3293 48.2977 40.2199 48.4732C41.1105 48.6486 41.929 49.0844 42.5718 49.7254C43.2146 50.3663 43.6528 51.1835 43.8308 52.0736C44.0089 52.9637 43.9189 53.8866 43.5721 54.7255C43.2253 55.5644 42.6375 56.2815 41.8829 56.7861C41.1283 57.2907 40.241 57.56 39.3333 57.56C38.1192 57.56 36.9545 57.0786 36.0947 56.2213C35.235 55.364 34.7502 54.2008 34.7466 52.9867ZM45.4133 39.4533C45.4054 38.5445 45.6676 37.6538 46.1668 36.8943C46.6659 36.1348 47.3795 35.5407 48.2168 35.1874C49.0542 34.8341 49.9777 34.7375 50.87 34.91C51.7624 35.0824 52.5834 35.5161 53.2288 36.1559C53.8743 36.7957 54.3151 37.6129 54.4954 38.5037C54.6756 39.3945 54.5871 40.3188 54.2412 41.1592C53.8952 41.9996 53.3074 42.7184 52.5523 43.2241C51.7972 43.7299 50.9088 44 50 44C48.7904 44 47.6298 43.5223 46.7708 42.6708C45.9117 41.8192 45.4239 40.6628 45.4133 39.4533ZM60.6666 60.9467C59.7595 60.9467 58.8727 60.6777 58.1184 60.1737C57.3642 59.6697 56.7763 58.9533 56.4291 58.1152C56.082 57.2771 55.9911 56.3549 56.1681 55.4652C56.3451 54.5755 56.7819 53.7582 57.4234 53.1167C58.0648 52.4753 58.8821 52.0384 59.7718 51.8615C60.6616 51.6845 61.5838 51.7753 62.4219 52.1225C63.26 52.4696 63.9763 53.0575 64.4803 53.8118C64.9843 54.5661 65.2533 55.4528 65.2533 56.36C65.2533 57.5765 64.7701 58.7431 63.9099 59.6033C63.0497 60.4634 61.8831 60.9467 60.6666 60.9467Z" fill="white"/>
</g>
<defs>
<clipPath id="clip0_0_1136">
<rect width="100" height="100" fill="white"/>
</clipPath>
</defs>
</svg>
