<svg width="100" height="100" viewBox="0 0 100 100" fill="none" xmlns="http://www.w3.org/2000/svg">
<g clip-path="url(#clip0_0_1119)">
<path d="M100 0H0V100H100V0Z" fill="#D86613"/>
<path d="M77 67.4534V57.88C78.4489 57.6369 79.803 56.9996 80.9136 56.0378C82.0242 55.076 82.8485 53.827 83.2961 52.4276C83.7437 51.0283 83.7973 49.5327 83.4511 48.1049C83.1049 46.6772 82.3722 45.3723 81.3333 44.3334C80.2944 43.2945 78.9895 42.5618 77.5618 42.2156C76.134 41.8694 74.6384 41.923 73.2391 42.3706C71.8397 42.8182 70.5907 43.6425 69.6289 44.7531C68.6671 45.8637 68.0298 47.2178 67.7867 48.6667H58.2134C57.9355 47.0314 57.1562 45.523 55.9833 44.3501C54.8104 43.1772 53.3019 42.3979 51.6667 42.12V35.2267C54.0021 34.8896 56.1232 33.6804 57.6031 31.8425C59.0829 30.0045 59.8117 27.6743 59.6427 25.3207C59.4737 22.9671 58.4196 20.7649 56.6923 19.1572C54.9651 17.5495 52.693 16.6557 50.3334 16.6557C47.9737 16.6557 45.7016 17.5495 43.9744 19.1572C42.2472 20.7649 41.193 22.9671 41.024 25.3207C40.855 27.6743 41.5838 30.0045 43.0636 31.8425C44.5435 33.6804 46.6646 34.8896 49 35.2267V42.12C47.3648 42.3979 45.8563 43.1772 44.6834 44.3501C43.5106 45.523 42.7312 47.0314 42.4534 48.6667H33.56C33.3145 47.085 32.6358 45.6022 31.5992 44.3827C30.5625 43.1632 29.2083 42.2545 27.6868 41.7576C26.1653 41.2606 24.5359 41.1947 22.9792 41.5671C21.4226 41.9396 19.9994 42.7358 18.8676 43.8676C17.7358 44.9994 16.9396 46.4226 16.5671 47.9792C16.1947 49.5359 16.2606 51.1653 16.7576 52.6868C17.2545 54.2083 18.1632 55.5625 19.3827 56.5991C20.6022 57.6358 22.085 58.3145 23.6667 58.56V67.4534C21.6888 67.7877 19.9087 68.8528 18.6792 70.4377C17.4496 72.0226 16.8603 74.0116 17.028 76.0105C17.1958 78.0094 18.1083 79.8723 19.5849 81.2301C21.0614 82.5879 22.9941 83.3415 25 83.3415C27.0059 83.3415 28.9387 82.5879 30.4152 81.2301C31.8917 79.8723 32.8043 78.0094 32.972 76.0105C33.1397 74.0116 32.5504 72.0226 31.3209 70.4377C30.0913 68.8528 28.3112 67.7877 26.3334 67.4534V58.56C28.1467 58.2729 29.8226 57.419 31.1208 56.1208C32.419 54.8226 33.2729 53.1467 33.56 51.3333H42.4534C42.7312 52.9686 43.5106 54.4771 44.6834 55.6499C45.8563 56.8228 47.3648 57.6021 49 57.88V66.1067C46.8432 66.4425 44.8926 67.5798 43.5378 69.2913C42.1831 71.0028 41.5241 73.1625 41.6925 75.3388C41.8609 77.5151 42.8443 79.5477 44.4462 81.0304C46.0482 82.5132 48.1506 83.3368 50.3334 83.3368C52.5161 83.3368 54.6186 82.5132 56.2205 81.0304C57.8224 79.5477 58.8058 77.5151 58.9742 75.3388C59.1426 73.1625 58.4836 71.0028 57.1289 69.2913C55.7742 67.5798 53.8235 66.4425 51.6667 66.1067V57.88C53.3019 57.6021 54.8104 56.8228 55.9833 55.6499C57.1562 54.4771 57.9355 52.9686 58.2134 51.3333H67.7867C68.0646 52.9686 68.8439 54.4771 70.0168 55.6499C71.1896 56.8228 72.6981 57.6021 74.3334 57.88V67.4534C72.3555 67.7877 70.5754 68.8528 69.3458 70.4377C68.1163 72.0226 67.527 74.0116 67.6947 76.0105C67.8625 78.0094 68.775 79.8723 70.2515 81.2301C71.728 82.5879 73.6608 83.3415 75.6667 83.3415C77.6726 83.3415 79.6053 82.5879 81.0818 81.2301C82.5584 79.8723 83.4709 78.0094 83.6387 76.0105C83.8064 74.0116 83.2171 72.0226 81.9875 70.4377C80.758 68.8528 78.9779 67.7877 77 67.4534ZM30.3334 75.3333C30.3334 76.3882 30.0206 77.4193 29.4345 78.2964C28.8485 79.1735 28.0155 79.857 27.041 80.2607C26.0665 80.6644 24.9941 80.77 23.9595 80.5642C22.925 80.3584 21.9747 79.8505 21.2288 79.1046C20.4829 78.3587 19.975 77.4084 19.7692 76.3738C19.5634 75.3393 19.669 74.2669 20.0727 73.2924C20.4763 72.3178 21.1599 71.4849 22.037 70.8988C22.914 70.3128 23.9452 70 25 70C26.4145 70 27.7711 70.5619 28.7713 71.5621C29.7715 72.5623 30.3334 73.9189 30.3334 75.3333ZM25 56C23.8133 56 22.6533 55.6481 21.6666 54.9888C20.6799 54.3295 19.9109 53.3925 19.4567 52.2961C19.0026 51.1998 18.8838 49.9934 19.1153 48.8295C19.3468 47.6656 19.9183 46.5965 20.7574 45.7574C21.5965 44.9183 22.6656 44.3468 23.8295 44.1153C24.9934 43.8838 26.1998 44.0026 27.2961 44.4567C28.3925 44.9109 29.3296 45.6799 29.9888 46.6666C30.6481 47.6533 31 48.8133 31 50C30.9965 51.5902 30.3632 53.1143 29.2388 54.2388C28.1143 55.3632 26.5902 55.9965 25 56ZM43.6667 26C43.6667 24.6815 44.0577 23.3925 44.7902 22.2962C45.5228 21.1999 46.564 20.3454 47.7821 19.8408C49.0003 19.3362 50.3408 19.2042 51.634 19.4614C52.9272 19.7187 54.1151 20.3536 55.0474 21.286C55.9798 22.2183 56.6147 23.4062 56.8719 24.6994C57.1292 25.9926 56.9971 27.3331 56.4925 28.5512C55.988 29.7694 55.1335 30.8106 54.0372 31.5431C52.9408 32.2757 51.6519 32.6667 50.3334 32.6667C48.5652 32.6667 46.8696 31.9643 45.6193 30.7141C44.3691 29.4638 43.6667 27.7681 43.6667 26ZM56.3334 74.6667C56.3334 75.8534 55.9815 77.0134 55.3222 78.0001C54.6629 78.9868 53.7258 79.7558 52.6295 80.21C51.5331 80.6641 50.3267 80.7829 49.1628 80.5514C47.9989 80.3199 46.9298 79.7484 46.0907 78.9093C45.2516 78.0702 44.6802 77.0011 44.4486 75.8372C44.2171 74.6733 44.3359 73.4669 44.7901 72.3706C45.2442 71.2742 46.0132 70.3372 46.9999 69.6779C47.9866 69.0186 49.1467 68.6667 50.3334 68.6667C51.9236 68.6702 53.4476 69.3035 54.5721 70.4279C55.6966 71.5524 56.3298 73.0765 56.3334 74.6667ZM50.3334 55.3333C49.2785 55.3333 48.2474 55.0206 47.3703 54.4345C46.4932 53.8485 45.8097 53.0155 45.406 52.041C45.0023 51.0665 44.8967 49.9941 45.1025 48.9595C45.3083 47.925 45.8162 46.9747 46.5621 46.2288C47.308 45.4829 48.2583 44.9749 49.2929 44.7692C50.3274 44.5634 51.3998 44.669 52.3743 45.0727C53.3489 45.4763 54.1818 46.1599 54.7679 47.037C55.3539 47.914 55.6667 48.9452 55.6667 50C55.6667 51.4145 55.1048 52.7711 54.1046 53.7712C53.1044 54.7714 51.7478 55.3333 50.3334 55.3333ZM70.3334 50C70.3334 48.9452 70.6461 47.914 71.2322 47.037C71.8182 46.1599 72.6512 45.4763 73.6257 45.0727C74.6002 44.669 75.6726 44.5634 76.7072 44.7692C77.7417 44.9749 78.692 45.4829 79.4379 46.2288C80.1838 46.9747 80.6918 47.925 80.8975 48.9595C81.1033 49.9941 80.9977 51.0665 80.594 52.041C80.1904 53.0155 79.5068 53.8485 78.6297 54.4345C77.7527 55.0206 76.7215 55.3333 75.6667 55.3333C74.2522 55.3333 72.8956 54.7714 71.8955 53.7712C70.8953 52.7711 70.3334 51.4145 70.3334 50ZM75.6667 80.6667C74.6119 80.6667 73.5807 80.3539 72.7036 79.7679C71.8266 79.1818 71.143 78.3489 70.7393 77.3743C70.3357 76.3998 70.23 75.3274 70.4358 74.2929C70.6416 73.2583 71.1496 72.308 71.8955 71.5621C72.6413 70.8162 73.5916 70.3083 74.6262 70.1025C75.6608 69.8967 76.7331 70.0023 77.7077 70.406C78.6822 70.8097 79.5152 71.4932 80.1012 72.3703C80.6872 73.2474 81 74.2785 81 75.3333C81 76.7478 80.4381 78.1044 79.4379 79.1046C78.4377 80.1048 77.0812 80.6667 75.6667 80.6667Z" fill="white"/>
<path d="M25 52.6667C26.4728 52.6667 27.6667 51.4728 27.6667 50C27.6667 48.5272 26.4728 47.3333 25 47.3333C23.5273 47.3333 22.3334 48.5272 22.3334 50C22.3334 51.4728 23.5273 52.6667 25 52.6667Z" fill="white"/>
<path d="M50.3333 77.3333C51.8061 77.3333 53 76.1394 53 74.6667C53 73.1939 51.8061 72 50.3333 72C48.8605 72 47.6666 73.1939 47.6666 74.6667C47.6666 76.1394 48.8605 77.3333 50.3333 77.3333Z" fill="white"/>
</g>
<defs>
<clipPath id="clip0_0_1119">
<rect width="100" height="100" fill="white"/>
</clipPath>
</defs>
</svg>
