<svg width="100" height="100" viewBox="0 0 100 100" fill="none" xmlns="http://www.w3.org/2000/svg">
<path d="M47.2799 62.3C44.0599 62.3 41.7799 62.1 41.0199 62.02H40.5799C40.1381 61.9603 39.7288 61.7547 39.4172 61.4358C39.1056 61.117 38.9094 60.7031 38.8599 60.26C38.4987 56.3302 38.4452 52.3781 38.6999 48.44C38.6999 47.98 38.6999 47.44 38.6999 46.92L38.7999 45.8L42.7999 46.24L42.6999 47.28C42.6999 47.7 42.6999 48.18 42.6999 48.64C42.501 51.8169 42.501 55.0031 42.6999 58.18C48.6999 58.6 69.6599 59.1 81.7199 46.78C93.7799 34.46 93.2799 12.9 92.8799 6.77999C86.9399 6.39999 65.8799 5.99999 53.9999 18.22C53.7199 18.5 53.3999 18.84 53.1199 19.16C52.9688 19.3099 52.8284 19.4703 52.6999 19.64L49.4799 17.14C49.6419 16.9112 49.8154 16.6909 49.9999 16.48L50.9599 15.44C66.3999 -0.320013 93.7999 2.83999 94.9599 2.97999C95.4054 3.03551 95.8193 3.23928 96.1349 3.55852C96.4505 3.87777 96.6495 4.29391 96.6999 4.73999C96.8799 5.99999 99.9999 33.86 84.5999 49.54C73.7399 60.64 56.5799 62.3 47.2799 62.3Z" fill="#D86613"/>
<path d="M41.2401 62H41.0801H40.5801C40.1382 61.9404 39.729 61.7348 39.4173 61.4159C39.1057 61.097 38.9095 60.6831 38.8601 60.24C38.4174 55.4436 38.4174 50.6165 38.8601 45.82L42.8601 46.18C42.5522 49.631 42.4654 53.098 42.6001 56.56C51.7343 49.7201 60.3204 42.1771 68.2801 34C76.621 25.536 84.2657 16.4131 91.1401 6.72003C83.5201 6.42003 64.9001 6.98003 54.0001 18.22C53.5288 18.6704 53.0879 19.1515 52.6801 19.66L49.5001 17.12C49.9814 16.5189 50.4955 15.9447 51.0401 15.4C66.4401 -0.319971 93.8401 2.84003 95.0401 2.98003C95.3808 3.02153 95.7052 3.15004 95.9819 3.3532C96.2586 3.55636 96.4784 3.82733 96.6201 4.14003C96.7719 4.45795 96.8371 4.81034 96.809 5.16154C96.7809 5.51275 96.6605 5.8503 96.4601 6.14003C88.9581 17.0998 80.4839 27.3613 71.1401 36.8C62.2913 45.9039 52.6685 54.2218 42.3801 61.66C42.0433 61.8864 41.6457 62.005 41.2401 62Z" fill="#D86613"/>
<path d="M42.5601 56.56H38.5601V95.94H42.5601V56.56Z" fill="#D86613"/>
<path d="M25.5599 47.32C21.0813 47.324 16.7021 45.9995 12.9764 43.5142C9.2506 41.0289 6.34566 37.4944 4.62903 33.3578C2.91239 29.2213 2.46119 24.6685 3.3325 20.2755C4.20381 15.8824 6.35848 11.8465 9.52394 8.67821C12.6894 5.50995 16.7234 3.35171 21.1157 2.47652C25.508 1.60133 30.0612 2.04851 34.1992 3.76149C38.3373 5.47446 41.8744 8.37628 44.363 12.0998C46.8516 15.8234 48.1799 20.2014 48.1799 24.68C48.1746 30.6794 45.7904 36.4319 41.55 40.676C37.3097 44.9201 31.5593 47.3094 25.5599 47.32ZM25.5599 6.00003C21.8716 5.99607 18.265 7.08643 15.1966 9.1331C12.1282 11.1798 9.73593 14.0907 8.32264 17.4976C6.90934 20.9044 6.53852 24.6539 7.25711 28.2716C7.9757 31.8893 9.7514 35.2124 12.3595 37.8205C14.9675 40.4285 18.2907 42.2042 21.9083 42.9228C25.526 43.6414 29.2755 43.2706 32.6824 41.8573C36.0892 40.444 39.0002 38.0518 41.0468 34.9834C43.0935 31.915 44.1839 28.3084 44.1799 24.62C44.1746 19.6833 42.2112 14.9503 38.7204 11.4595C35.2296 7.96876 30.4966 6.00532 25.5599 6.00003Z" fill="#D86613"/>
<path d="M27.5601 12.66H23.5601V39.3H27.5601V12.66Z" fill="#D86613"/>
<path d="M31.8799 20.94L25.5599 14.62L19.2399 20.94L16.3999 18.12L24.1399 10.38C24.5146 10.0075 25.0215 9.79837 25.5499 9.79837C26.0783 9.79837 26.5852 10.0075 26.9599 10.38L34.6999 18.12L31.8799 20.94Z" fill="#D86613"/>
</svg>
