<svg width="100" height="100" viewBox="0 0 100 100" fill="none" xmlns="http://www.w3.org/2000/svg">
<path d="M31.7999 62.0001C28.7199 62.0001 26.3799 61.8201 25.2199 61.7001H24.8199C24.3738 61.6496 23.9577 61.4506 23.6384 61.135C23.3192 60.8194 23.1154 60.4055 23.0599 59.9601C22.9199 58.7801 19.8399 30.8201 35.2199 15.1401C50.5999 -0.539947 77.9999 2.54005 79.1999 2.68005C79.6453 2.73557 80.0592 2.93935 80.3748 3.25859C80.6904 3.57783 80.8895 3.99398 80.9399 4.44005C81.0799 5.62005 84.1599 33.5601 68.7799 49.2601C57.9999 60.2801 41.3399 62.0001 31.7999 62.0001ZM26.8999 57.8201C32.6399 58.2201 53.8399 58.7401 65.9199 46.4201C77.9999 34.1001 77.4999 12.5201 77.0999 6.42005C71.1399 6.12005 49.9999 5.66005 37.9999 18.0001C25.9999 30.3401 26.4999 51.8401 26.8999 57.8601V57.8201Z" fill="#D86613"/>
<path d="M25.4199 61.74H25.1599H24.8199C24.3738 61.6895 23.9577 61.4905 23.6384 61.1749C23.3192 60.8593 23.1154 60.4454 23.0599 60C22.9199 58.82 19.8399 30.86 35.2199 15.18C50.5999 -0.500026 77.9999 2.53997 79.1999 2.67997C79.5395 2.72114 79.8628 2.84871 80.139 3.05049C80.4152 3.25228 80.6351 3.52154 80.7775 3.83253C80.92 4.14353 80.9803 4.48586 80.9527 4.82681C80.9251 5.16777 80.8105 5.49594 80.6199 5.77997C73.1348 16.7654 64.6666 27.0477 55.3199 36.5C46.4862 45.6181 36.8693 53.9434 26.5799 61.38C26.2399 61.6173 25.8345 61.7431 25.4199 61.74ZM72.5199 6.37997C63.8199 6.37997 47.9999 7.87997 37.9999 18C26.8399 29.38 26.4199 48.74 26.7399 56.34C35.8943 49.4802 44.4942 41.9101 52.4599 33.7C60.8083 25.2428 68.4536 16.1192 75.3199 6.41997L72.5199 6.37997Z" fill="#D86613"/>
<path d="M26.74 56.26H22.74V95.64H26.74V56.26Z" fill="#D86613"/>
</svg>
