<svg width="100" height="100" viewBox="0 0 100 100" fill="none" xmlns="http://www.w3.org/2000/svg">
<path d="M78.12 78.24H62.94C62.5596 78.2427 62.1864 78.1369 61.864 77.935C61.5416 77.7331 61.2835 77.4434 61.12 77.1L39.84 31.38H31.24C30.7096 31.38 30.2008 31.1693 29.8258 30.7942C29.4507 30.4191 29.24 29.9104 29.24 29.38V16.24C29.24 15.7096 29.4507 15.2008 29.8258 14.8258C30.2008 14.4507 30.7096 14.24 31.24 14.24H50.22C50.5957 14.2466 50.9619 14.3589 51.2768 14.5641C51.5916 14.7692 51.8422 15.0589 52 15.4L73.24 61.12H78.12C78.6504 61.12 79.1591 61.3307 79.5342 61.7058C79.9093 62.0809 80.12 62.5896 80.12 63.12V76.24C80.12 76.7704 79.9093 77.2791 79.5342 77.6542C79.1591 78.0293 78.6504 78.24 78.12 78.24ZM64.12 74.24H76.12V65.12H72C71.6175 65.1209 71.2427 65.0122 70.9201 64.8066C70.5975 64.601 70.3407 64.3072 70.18 63.96L48.96 18.24H33.26V27.38H41.12C41.5025 27.379 41.8773 27.4878 42.1999 27.6934C42.5225 27.899 42.7793 28.1928 42.94 28.54L64.12 74.24Z" fill="#D86613"/>
<path d="M36.8601 78.24H20.6201C20.2829 78.239 19.9514 78.1528 19.6565 77.9894C19.3615 77.826 19.1127 77.5907 18.9331 77.3053C18.7535 77.0199 18.6489 76.6938 18.6292 76.3571C18.6094 76.0205 18.6751 75.6844 18.8201 75.38L35.8001 39.82C35.9622 39.4796 36.2172 39.192 36.5356 38.9903C36.8541 38.7886 37.2231 38.681 37.6001 38.68C37.9749 38.6792 38.3424 38.7838 38.6607 38.9818C38.9789 39.1799 39.2351 39.4634 39.4001 39.8L47.5401 56.6C47.668 56.8686 47.7344 57.1624 47.7344 57.46C47.7344 57.7575 47.668 58.0513 47.5401 58.32L38.6601 77.1C38.498 77.4403 38.243 77.7279 37.9245 77.9296C37.606 78.1313 37.2371 78.2389 36.8601 78.24ZM23.8001 74.24H35.5801L43.5801 57.48L37.5801 45.3L23.8001 74.24Z" fill="#D86613"/>
<path d="M50 97C40.7043 97 31.6173 94.2435 23.8882 89.0791C16.1591 83.9147 10.135 76.5743 6.57768 67.9861C3.02036 59.398 2.08961 49.9479 3.90311 40.8308C5.71662 31.7137 10.1929 23.3391 16.766 16.766C23.3391 10.1929 31.7137 5.71662 40.8308 3.90311C49.9479 2.08961 59.398 3.02036 67.9861 6.57768C76.5743 10.135 83.9147 16.1591 89.0791 23.8882C94.2435 31.6173 97 40.7043 97 50C96.9894 62.4619 92.0343 74.4104 83.2223 83.2223C74.4104 92.0343 62.4619 96.9894 50 97ZM50 7.00002C41.4954 7.00002 33.1818 9.52193 26.1105 14.2468C19.0392 18.9717 13.5278 25.6874 10.2732 33.5446C7.01863 41.4019 6.16709 50.0477 7.82625 58.3889C9.48542 66.7301 13.5808 74.392 19.5944 80.4056C25.6081 86.4193 33.27 90.5146 41.6111 92.1738C49.9523 93.833 58.5982 92.9814 66.4554 89.7268C74.3126 86.4723 81.0283 80.9609 85.7532 73.8895C90.4781 66.8182 93 58.5046 93 50C92.9841 38.6006 88.4487 27.6726 80.3881 19.612C72.3275 11.5513 61.3995 7.01589 50 7.00002Z" fill="#D86613"/>
</svg>
