<svg width="100" height="100" viewBox="0 0 100 100" fill="none" xmlns="http://www.w3.org/2000/svg">
<g clip-path="url(#clip0_0_1140)">
<path d="M100 0H0V100H100V0Z" fill="#D86613"/>
<path d="M33.0534 48.5467C33.1494 48.6595 33.2566 48.7622 33.3734 48.8533C33.5732 49.0248 33.7824 49.1851 34 49.3333L34.1467 49.4133C34.3617 49.5463 34.5843 49.6666 34.8134 49.7733L35.2267 49.9467H35.36H35.5067L35.84 50.0933C36.4667 50.32 37.1734 50.5867 37.9467 50.8267L39.16 51.1867L39.8134 51.36C43.1465 52.1769 46.5684 52.5755 50 52.5467C55.2151 52.6621 60.3955 51.6714 65.2001 49.64C66.2255 49.1731 67.0965 48.4232 67.7106 47.4785C68.3246 46.5338 68.6563 45.4334 68.6667 44.3067V25.1733C68.6652 24.7768 68.5517 24.3888 68.3394 24.0538C68.1272 23.7189 67.8247 23.4507 67.4667 23.28L50.9067 15.5467C50.6305 15.4123 50.3273 15.3424 50.02 15.3424C49.7128 15.3424 49.4096 15.4123 49.1334 15.5467L32.5334 23.28C32.1754 23.4507 31.8729 23.7189 31.6607 24.0538C31.4484 24.3888 31.3349 24.7768 31.3334 25.1733V44.3733C31.3314 45.8041 31.8477 47.1872 32.7867 48.2667C32.8687 48.3663 32.9578 48.4599 33.0534 48.5467ZM39.8534 48.7333L38.7334 48.4C38.0134 48.1733 37.4 47.9333 36.8534 47.7467L36.3734 47.5467L35.92 47.3333C35.7694 47.2658 35.6225 47.1902 35.48 47.1067L35.1467 46.8533L34.9734 46.6667C34.9449 46.6247 34.9087 46.5885 34.8667 46.56L34.76 46.44C34.2507 45.8514 33.9713 45.0984 33.9734 44.32V26.7733L48.64 33.64V49.96C45.8755 49.9112 43.1251 49.5534 40.44 48.8933L39.8534 48.7333ZM64.12 47.32C60.0724 49.0489 55.7213 49.9554 51.3201 49.9867V33.8933L65.9867 27.2267V44.2933C66.0063 44.9252 65.8398 45.5489 65.5079 46.087C65.1761 46.6251 64.6935 47.0539 64.12 47.32ZM50 18.0667L64.7467 24.9467L50.24 31.4533L50.1334 31.3867L35.8 24.72L50 18.0667Z" fill="white"/>
<path d="M73.04 36.9067L72.2934 39.4667C78.28 41.2267 82 43.7333 82 46C82 50.4133 68.8534 55.3333 50 55.3333C31.1467 55.3333 18 50.4133 18 46C18 43.7333 21.72 41.2267 27.7067 39.4667L26.96 36.9067C19.4667 39.1067 15.3334 42.3467 15.3334 46C15.3334 53.7867 33.2 58 50 58C66.8 58 84.6667 53.7867 84.6667 46C84.6667 42.3467 80.5334 39.12 73.04 36.9067Z" fill="white"/>
<path d="M72.9601 62.1867L66.7601 59.52C66.5234 59.4045 66.2635 59.3445 66.0001 59.3445C65.7367 59.3445 65.4768 59.4045 65.2401 59.52L58.9068 62.2533C58.6334 62.3883 58.4034 62.5973 58.2431 62.8567C58.0828 63.116 57.9986 63.4151 58.0001 63.72V70.5867L52.0934 68C51.8557 67.8883 51.5962 67.8303 51.3334 67.8303C51.0707 67.8303 50.8112 67.8883 50.5734 68L44.6268 70.5733V63.6933C44.6239 63.3741 44.5294 63.0624 44.3545 62.7953C44.1796 62.5282 43.9316 62.3169 43.6401 62.1867L37.4268 59.52C37.1924 59.4047 36.9346 59.3448 36.6734 59.3448C36.4122 59.3448 36.1545 59.4047 35.9201 59.52L29.5734 62.2533C29.3001 62.3883 29.0701 62.5973 28.9098 62.8567C28.7495 63.116 28.6653 63.4151 28.6668 63.72V71.8267C28.6696 72.1459 28.7642 72.4577 28.9391 72.7248C29.114 72.9919 29.3619 73.2031 29.6534 73.3333L35.8534 76H36.0001C36.2107 76.0916 36.4371 76.1414 36.6668 76.1467C36.898 76.1565 37.1277 76.1059 37.3334 76L43.3201 73.4267V80.2933C43.3255 80.6103 43.4212 80.9192 43.596 81.1837C43.7707 81.4482 44.0173 81.6574 44.3068 81.7867L50.4934 84.4533C50.4934 84.4533 50.4934 84.4533 50.5868 84.4533C50.8124 84.5581 51.058 84.6127 51.3068 84.6133C51.543 84.6156 51.7763 84.5607 51.9868 84.4533L58.3468 81.72C58.6182 81.5826 58.8465 81.373 59.0064 81.1142C59.1664 80.8555 59.2519 80.5576 59.2534 80.2533V73.4267L65.1734 76H65.3334C65.5611 76.0987 65.8054 76.153 66.0534 76.16C66.2671 76.152 66.4764 76.0974 66.6668 76L73.0401 73.3333C73.3135 73.1984 73.5435 72.9893 73.7038 72.73C73.8641 72.4707 73.9483 72.1715 73.9468 71.8667V63.6933C73.9439 63.3741 73.8494 63.0624 73.6745 62.7953C73.4996 62.5282 73.2516 62.3169 72.9601 62.1867ZM65.9734 62.08L69.6134 63.6267L66.2001 65.0267L62.6668 63.5067L65.9734 62.08ZM51.3068 70.5867L54.9468 72.1333L51.5334 73.4667L48.0001 72L51.3068 70.5867ZM36.6401 62.08L40.2668 63.64L36.8534 64.9733L33.3334 63.5067L36.6401 62.08ZM31.3068 65.5467L35.3068 67.2533V72.8533L31.3068 71.1333V65.5467ZM37.9734 72.84V67.5067L41.9734 65.8667V71.2L37.9734 72.84ZM45.9734 74.04L49.9734 75.76V81.3333L45.9734 79.6133V74.04ZM52.6401 81.3467V76L56.6401 74.3467V79.68L52.6401 81.3467ZM60.6401 65.5467L64.6401 67.2533V72.8533L60.6401 71.1333V65.5467ZM67.3068 72.8533V67.52L71.3068 65.8667V71.2L67.3068 72.8533Z" fill="white"/>
</g>
<defs>
<clipPath id="clip0_0_1140">
<rect width="100" height="100" fill="white"/>
</clipPath>
</defs>
</svg>
