<svg width="100" height="100" viewBox="0 0 100 100" fill="none" xmlns="http://www.w3.org/2000/svg">
<g clip-path="url(#clip0_0_1181)">
<path d="M100 0H0V100H100V0Z" fill="#D86613"/>
<path d="M70.48 71.3334H30.8C24.3066 71.3334 17.0933 66.6 16.6933 59.56C16.6933 59.28 16.6933 59 16.6933 58.6934C16.6933 58.3867 16.6933 58.3334 16.6933 58.1467C16.6867 58.098 16.6867 58.0487 16.6933 58C16.6867 57.9068 16.6867 57.8132 16.6933 57.72C16.7876 55.2153 17.6753 52.8052 19.2282 50.8377C20.7811 48.8702 22.919 47.447 25.3333 46.7734C25.3333 46.44 25.3333 46.12 25.3333 45.7867C25.4096 42.328 26.5058 38.9688 28.4844 36.1309C30.463 33.293 33.2358 31.1028 36.4548 29.8352C39.6737 28.5675 43.1954 28.279 46.5777 29.0057C49.9601 29.7324 53.0524 31.4421 55.4666 33.92C57.1299 35.5631 58.4848 37.4915 59.4666 39.6133C60.8776 38.506 62.6197 37.905 64.4133 37.9067C68.16 37.9067 72.08 40.5734 72.8133 46.4534C79.2133 48 82.8666 52 83.2933 57.6667C83.3072 57.7774 83.3072 57.8893 83.2933 58C83.2999 58.0576 83.2999 58.1158 83.2933 58.1734C83.2933 58.3867 83.2933 58.5867 83.2933 58.8C83.3333 70.4267 73.4933 71.3334 70.48 71.3334ZM19.3466 59.3334V59.4267C19.6533 64.8667 25.6133 68.6667 30.7866 68.6667H70.48C73.48 68.6667 80.3733 67.7334 80.6533 59.3334H61.7466C61.9074 59.8605 61.9883 60.4089 61.9866 60.96C61.9175 62.3545 61.3149 63.669 60.3036 64.6315C59.2922 65.594 57.9495 66.1308 56.5533 66.1308C55.1571 66.1308 53.8144 65.594 52.803 64.6315C51.7917 63.669 51.1891 62.3545 51.12 60.96C51.1161 60.4077 51.2017 59.8584 51.3733 59.3334H38.2666C37.9996 59.3336 37.7386 59.2537 37.5175 59.1039C37.2965 58.9541 37.1254 58.7414 37.0266 58.4933C36.9265 58.245 36.9035 57.9723 36.9606 57.7107C37.0177 57.4491 37.1522 57.2108 37.3466 57.0267C37.6206 56.7706 37.8389 56.4609 37.9879 56.1168C38.137 55.7727 38.2138 55.4017 38.2133 55.0267C38.1646 54.3261 37.852 53.6701 37.3385 53.191C36.825 52.7119 36.1489 52.4455 35.4466 52.4455C34.7444 52.4455 34.0682 52.7119 33.5548 53.191C33.0413 53.6701 32.7286 54.3261 32.68 55.0267C32.6795 55.4017 32.7562 55.7727 32.9053 56.1168C33.0544 56.4609 33.2727 56.7706 33.5466 57.0267C33.7388 57.2123 33.8708 57.4513 33.9255 57.7129C33.9802 57.9744 33.955 58.2463 33.8533 58.4933C33.7545 58.7414 33.5835 58.9541 33.3624 59.1039C33.1413 59.2537 32.8803 59.3336 32.6133 59.3334H19.3466ZM47.3466 56.6667H53.7466C54.012 56.6677 54.271 56.7479 54.4905 56.897C54.71 57.0461 54.88 57.2573 54.9788 57.5036C55.0776 57.7498 55.1007 58.02 55.0451 58.2795C54.9894 58.5389 54.8577 58.7759 54.6666 58.96C54.3927 59.2161 54.1744 59.5258 54.0253 59.8699C53.8762 60.214 53.7995 60.585 53.8 60.96C53.8486 61.6606 54.1613 62.3166 54.6748 62.7957C55.1882 63.2747 55.8644 63.5412 56.5666 63.5412C57.2689 63.5412 57.945 63.2747 58.4585 62.7957C58.972 62.3166 59.2846 61.6606 59.3333 60.96C59.3338 60.585 59.257 60.214 59.1079 59.8699C58.9589 59.5258 58.7406 59.2161 58.4666 58.96C58.2744 58.7744 58.1425 58.5354 58.0878 58.2738C58.0331 58.0123 58.0583 57.7404 58.16 57.4933C58.2609 57.2478 58.4328 57.0379 58.6537 56.8906C58.8746 56.7433 59.1345 56.6654 59.4 56.6667H80.48C79.7333 52.5467 76.6666 49.92 71.3466 48.8533C71.0564 48.7945 70.794 48.6407 70.6008 48.4161C70.4077 48.1916 70.2948 47.9091 70.28 47.6133C69.9733 42.4267 66.9333 40.5734 64.44 40.5734C63.5945 40.578 62.7617 40.7792 62.0073 41.161C61.2529 41.5428 60.5977 42.0948 60.0933 42.7734C59.9483 42.9621 59.7553 43.1086 59.5346 43.1976C59.3138 43.2866 59.0732 43.3149 58.8378 43.2795C58.6024 43.2442 58.3808 43.1464 58.196 42.9964C58.0111 42.8465 57.8698 42.6497 57.7866 42.4267C56.9035 39.9469 55.4829 37.6931 53.6266 35.8267C51.8634 34.0683 49.7058 32.7564 47.3333 32V42.12C47.8583 41.9484 48.4076 41.8628 48.96 41.8667C50.4027 41.8667 51.7864 42.4398 52.8066 43.46C53.8268 44.4802 54.4 45.8639 54.4 47.3067C54.4 48.7495 53.8268 50.1331 52.8066 51.1533C51.7864 52.1735 50.4027 52.7467 48.96 52.7467C48.4081 52.7438 47.8599 52.6584 47.3333 52.4933L47.3466 56.6667ZM40.68 56.6667H44.68V50.16C44.6782 49.8918 44.7574 49.6293 44.9071 49.4068C45.0568 49.1843 45.2702 49.0121 45.5193 48.9128C45.7684 48.8134 46.0417 48.7915 46.3035 48.8499C46.5653 48.9083 46.8033 49.0442 46.9866 49.24C47.2386 49.5155 47.5457 49.735 47.8879 49.8843C48.2302 50.0336 48.5999 50.1094 48.9733 50.1067C49.7088 50.1067 50.4142 49.8145 50.9343 49.2944C51.4544 48.7743 51.7466 48.0689 51.7466 47.3334C51.7466 46.5978 51.4544 45.8924 50.9343 45.3723C50.4142 44.8522 49.7088 44.56 48.9733 44.56C48.6009 44.5556 48.2318 44.6293 47.8896 44.7763C47.5474 44.9233 47.2398 45.1403 46.9866 45.4134C46.8041 45.6083 46.5673 45.744 46.3067 45.8027C46.0462 45.8615 45.7741 45.8407 45.5255 45.743C45.277 45.6453 45.0635 45.4752 44.9127 45.2548C44.762 45.0344 44.6809 44.7737 44.68 44.5067V31.4534C42.0039 31.148 39.2943 31.5384 36.8133 32.5867C34.267 33.7564 32.0952 35.6095 30.5392 37.9399C28.9833 40.2702 28.1043 42.9866 28 45.7867C27.9949 46.3884 28.0305 46.9898 28.1066 47.5867C28.145 47.911 28.063 48.2381 27.8763 48.506C27.6895 48.7739 27.4109 48.9639 27.0933 49.04C25.1993 49.3862 23.4558 50.3017 22.0955 51.6643C20.7353 53.027 19.8228 54.772 19.48 56.6667H30.24C30.0783 56.1351 29.9974 55.5823 30 55.0267C30.0691 53.6322 30.6717 52.3177 31.683 51.3552C32.6944 50.3927 34.0371 49.8559 35.4333 49.8559C36.8295 49.8559 38.1722 50.3927 39.1836 51.3552C40.1949 52.3177 40.7975 53.6322 40.8666 55.0267C40.8758 55.5827 40.7947 56.1366 40.6266 56.6667H40.68Z" fill="white"/>
</g>
<defs>
<clipPath id="clip0_0_1181">
<rect width="100" height="100" fill="white"/>
</clipPath>
</defs>
</svg>
