<svg width="100" height="100" viewBox="0 0 100 100" fill="none" xmlns="http://www.w3.org/2000/svg">
<g clip-path="url(#clip0_0_1150)">
<path d="M100 0H0V100H100V0Z" fill="#D86613"/>
<path d="M80.6667 83.3333H64.24C63.9887 83.3326 63.7427 83.2609 63.5304 83.1264C63.318 82.992 63.148 82.8002 63.04 82.5733L39.8133 34H29.9867C29.633 34 29.2939 33.8595 29.0438 33.6095C28.7938 33.3594 28.6533 33.0203 28.6533 32.6667V18C28.6533 17.6464 28.7938 17.3072 29.0438 17.0572C29.2939 16.8071 29.633 16.6667 29.9867 16.6667H50.52C50.7713 16.6674 51.0173 16.7391 51.2296 16.8736C51.4419 17.008 51.6119 17.1998 51.72 17.4267L74.84 66H80.6667C81.0203 66 81.3594 66.1405 81.6095 66.3905C81.8595 66.6406 82 66.9797 82 67.3333V82C82 82.3536 81.8595 82.6928 81.6095 82.9428C81.3594 83.1929 81.0203 83.3333 80.6667 83.3333ZM65.08 80.6667H79.3333V68.6667H74C73.7487 68.666 73.5027 68.5942 73.2904 68.4598C73.078 68.3253 72.9081 68.1336 72.8 67.9067L49.68 19.3333H31.3333V31.3333H40.6667C40.918 31.334 41.164 31.4058 41.3763 31.5402C41.5886 31.6747 41.7586 31.8664 41.8667 32.0933L65.08 80.6667Z" fill="white"/>
<path d="M36.64 83.3334H19.3067C19.0801 83.3338 18.8571 83.2765 18.6588 83.1669C18.4605 83.0572 18.2935 82.8988 18.1734 82.7067C18.046 82.5099 17.9728 82.2831 17.9611 82.049C17.9494 81.8149 17.9996 81.5819 18.1067 81.3734L36.24 43.4934C36.3481 43.2665 36.5181 43.0747 36.7304 42.9403C36.9427 42.8058 37.1887 42.7341 37.44 42.7334C37.6899 42.7329 37.9349 42.8026 38.1471 42.9346C38.3593 43.0666 38.5301 43.2556 38.64 43.48L47.32 61.3334C47.4074 61.5142 47.4528 61.7125 47.4528 61.9134C47.4528 62.1142 47.4074 62.3125 47.32 62.4934L37.8534 82.4934C37.7563 82.7373 37.5893 82.9471 37.3735 83.0965C37.1577 83.246 36.9025 83.3283 36.64 83.3334ZM21.44 80.6667H35.8L44.64 62L37.4534 47.1334L21.44 80.6667Z" fill="white"/>
</g>
<defs>
<clipPath id="clip0_0_1150">
<rect width="100" height="100" fill="white"/>
</clipPath>
</defs>
</svg>
