<svg width="100" height="100" viewBox="0 0 100 100" fill="none" xmlns="http://www.w3.org/2000/svg">
<g clip-path="url(#clip0_0_1185)">
<rect x="0.959961" y="1.84" width="97.2" height="97.2"/>
<path d="M90.5 8.5H8.5V90.5H90.5V8.5Z" fill="#D86613"/>
<path d="M89 10V89H10V10H89ZM92 7H7V92H92V7Z" fill="white"/>
<path d="M75 39V37H71V32.67C71 31.6967 70.6133 30.7632 69.9251 30.0749C69.2368 29.3867 68.3033 29 67.33 29H63V25H61V29H57V25H55V29H51V25H49V29H45V25H43V29H39V25H37V29H32.67C31.6967 29 30.7632 29.3867 30.0749 30.0749C29.3867 30.7632 29 31.6967 29 32.67V37H25V39H29V43H25V45H29V49H25V51H29V55H25V57H29V61H25V63H29V67.33C29 68.3033 29.3867 69.2368 30.0749 69.9251C30.7632 70.6133 31.6967 71 32.67 71H37V75H39V71H43V75H45V71H49V75H51V71H55V75H57V71H61V75H63V71H67.33C68.3033 71 69.2368 70.6133 69.9251 69.9251C70.6133 69.2368 71 68.3033 71 67.33V63H75V61H71V57H75V55H71V51H75V49H71V45H75V43H71V39H75ZM69 67.33C69 67.7729 68.8241 68.1977 68.5109 68.5109C68.1977 68.8241 67.7729 69 67.33 69H32.67C32.4507 69 32.2335 68.9568 32.0309 68.8729C31.8283 68.789 31.6442 68.6659 31.4891 68.5109C31.3341 68.3558 31.211 68.1717 31.1271 67.9691C31.0432 67.7665 31 67.5493 31 67.33V32.67C31 32.4507 31.0432 32.2335 31.1271 32.0309C31.211 31.8283 31.3341 31.6442 31.4891 31.4891C31.6442 31.3341 31.8283 31.211 32.0309 31.1271C32.2335 31.0432 32.4507 31 32.67 31H67.33C67.5493 31 67.7665 31.0432 67.9691 31.1271C68.1717 31.211 68.3558 31.3341 68.5109 31.4891C68.6659 31.6442 68.789 31.8283 68.8729 32.0309C68.9568 32.2335 69 32.4507 69 32.67V67.33Z" fill="white"/>
<path d="M59.62 38H40.38C39.7504 38.0052 39.1481 38.2577 38.7029 38.7029C38.2577 39.1481 38.0052 39.7504 38 40.38V59.62C38.0052 60.2496 38.2577 60.8519 38.7029 61.2971C39.1481 61.7423 39.7504 61.9948 40.38 62H59.62C60.2496 61.9948 60.8519 61.7423 61.2971 61.2971C61.7423 60.8519 61.9948 60.2496 62 59.62V40.38C61.9948 39.7504 61.7423 39.1481 61.2971 38.7029C60.8519 38.2577 60.2496 38.0052 59.62 38ZM60 59.62C60 59.7208 59.96 59.8174 59.8887 59.8887C59.8174 59.96 59.7208 60 59.62 60H40.38C40.2792 60 40.1826 59.96 40.1113 59.8887C40.04 59.8174 40 59.7208 40 59.62V40.38C40 40.2792 40.04 40.1826 40.1113 40.1113C40.1826 40.04 40.2792 40 40.38 40H59.62C59.7208 40 59.8174 40.04 59.8887 40.1113C59.96 40.1826 60 40.2792 60 40.38V59.62Z" fill="white"/>
</g>
<defs>
<clipPath id="clip0_0_1185">
<rect width="100" height="100" fill="white"/>
</clipPath>
</defs>
</svg>
