<svg width="100" height="100" viewBox="0 0 100 100" fill="none" xmlns="http://www.w3.org/2000/svg">
<g clip-path="url(#clip0_0_1194)">
<path d="M100 0H0V100H100V0Z" fill="#D86613"/>
<path d="M66.0533 51.3333C66.3883 53.39 67.4852 55.2452 69.1259 56.5298C70.7665 57.8144 72.8306 58.4344 74.9076 58.2663C76.9846 58.0983 78.9221 57.1545 80.3349 55.6228C81.7477 54.0911 82.5321 52.0838 82.5321 50C82.5321 47.9163 81.7477 45.9089 80.3349 44.3772C78.9221 42.8455 76.9846 41.9017 74.9076 41.7337C72.8306 41.5656 70.7665 42.1856 69.1259 43.4702C67.4852 44.7549 66.3883 46.61 66.0533 48.6667H56.1066C55.9524 46.2117 55.3182 43.8109 54.24 41.6L66.24 31.4533C67.7125 32.6187 69.537 33.2498 71.4148 33.2435C73.2927 33.2371 75.1128 32.5935 76.5774 31.4182C78.042 30.2428 79.0643 28.6052 79.4771 26.7732C79.8899 24.9413 79.6687 23.0234 78.8498 21.3335C78.0309 19.6436 76.6627 18.2816 74.969 17.4705C73.2753 16.6593 71.3565 16.4469 69.5265 16.8681C67.6964 17.2893 66.0635 18.3192 64.8949 19.7891C63.7262 21.2591 63.0911 23.0821 63.0933 24.96C63.0777 26.57 63.5419 28.1482 64.4266 29.4933L52.8266 39.2667C50.5235 35.8162 47.1716 33.1981 43.2662 31.7992C39.3607 30.4002 35.1088 30.2945 31.1387 31.4978C27.1685 32.7011 23.6908 35.1495 21.2191 38.4813C18.7475 41.8131 17.4131 45.8515 17.4131 50C17.4131 54.1485 18.7475 58.1869 21.2191 61.5187C23.6908 64.8505 27.1685 67.2989 31.1387 68.5022C35.1088 69.7055 39.3607 69.5998 43.2662 68.2009C47.1716 66.8019 50.5235 64.1838 52.8266 60.7333L64.4266 70.5067C63.5419 71.8519 63.0777 73.43 63.0933 75.04C63.0925 76.9143 63.7277 78.7335 64.895 80.1999C66.0623 81.6664 67.6926 82.6935 69.5193 83.1132C71.346 83.5328 73.2611 83.3203 74.9514 82.5104C76.6416 81.7004 78.0071 80.3409 78.8245 78.6542C79.6419 76.9675 79.8628 75.0534 79.4511 73.2248C79.0395 71.3963 78.0196 69.7615 76.5583 68.5878C75.0969 67.4141 73.2806 66.7709 71.4063 66.7635C69.532 66.756 67.7106 67.3847 66.24 68.5467L54.24 58.4C55.3182 56.1891 55.9524 53.7883 56.1066 51.3333H66.0533ZM74.2133 44.3733C75.3267 44.3707 76.4159 44.6985 77.3429 45.3151C78.27 45.9318 78.9932 46.8096 79.4212 47.8375C79.8491 48.8654 79.9624 49.9972 79.7468 51.0895C79.5312 52.1819 78.9964 53.1857 78.21 53.9739C77.4236 54.7622 76.4211 55.2994 75.3293 55.5176C74.2374 55.7358 73.1054 55.6251 72.0765 55.1996C71.0476 54.7742 70.168 54.053 69.5492 53.1274C68.9303 52.2018 68.6 51.1134 68.6 50C68.6 48.51 69.1909 47.0809 70.2433 46.0261C71.2956 44.9712 72.7233 44.3769 74.2133 44.3733ZM71.44 19.3333C72.5528 19.3333 73.6407 19.6633 74.566 20.2816C75.4913 20.8999 76.2125 21.7786 76.6383 22.8068C77.0642 23.8349 77.1756 24.9663 76.9585 26.0577C76.7414 27.1492 76.2055 28.1518 75.4186 28.9387C74.6317 29.7256 73.6291 30.2615 72.5377 30.4786C71.4462 30.6957 70.3149 30.5842 69.2867 30.1584C68.2586 29.7325 67.3798 29.0113 66.7616 28.086C66.1433 27.1607 65.8133 26.0729 65.8133 24.96C65.8133 23.4677 66.4061 22.0366 67.4613 20.9814C68.5165 19.9262 69.9477 19.3333 71.44 19.3333ZM71.44 69.4267C72.5534 69.4267 73.6418 69.757 74.5674 70.3759C75.4929 70.9947 76.2141 71.8743 76.6396 72.9032C77.0651 73.9321 77.1757 75.0641 76.9575 76.156C76.7393 77.2478 76.2021 78.2503 75.4139 79.0367C74.6256 79.8231 73.6218 80.3579 72.5295 80.5735C71.4371 80.7891 70.3054 80.6758 69.2775 80.2479C68.2496 79.82 67.3717 79.0967 66.7551 78.1696C66.1384 77.2426 65.8107 76.1534 65.8133 75.04C65.8168 73.55 66.4112 72.1223 67.466 71.07C68.5208 70.0177 69.95 69.4267 71.44 69.4267ZM36.8266 66.6667C33.5303 66.6667 30.3079 65.6892 27.5671 63.8578C24.8263 62.0265 22.6901 59.4235 21.4286 56.3781C20.1672 53.3326 19.8371 49.9815 20.4802 46.7485C21.1233 43.5155 22.7106 40.5458 25.0415 38.2149C27.3724 35.884 30.3421 34.2967 33.5751 33.6536C36.8081 33.0105 40.1593 33.3406 43.2047 34.602C46.2501 35.8635 48.8531 37.9997 50.6845 40.7405C52.5158 43.4813 53.4933 46.7037 53.4933 50C53.4862 54.4181 51.728 58.6533 48.604 61.7773C45.4799 64.9014 41.2447 66.6596 36.8266 66.6667Z" fill="white"/>
</g>
<defs>
<clipPath id="clip0_0_1194">
<rect width="100" height="100" fill="white"/>
</clipPath>
</defs>
</svg>
