<svg width="100" height="100" viewBox="0 0 100 100" fill="none" xmlns="http://www.w3.org/2000/svg">
<g clip-path="url(#clip0_0_1198)">
<path d="M100 0H0V100H100V0Z" fill="#D86613"/>
<path d="M29.3333 66H60.2C59.3797 66.9549 58.4883 67.8463 57.5333 68.6666H29.3333C25.9993 68.7458 22.7611 67.547 20.2822 65.316C17.8033 63.085 16.2713 59.9906 16 56.6666C16 56.3733 16 56.08 16 55.7733C15.891 53.045 16.7095 50.3601 18.3222 48.1567C19.9348 45.9532 22.2464 44.3611 24.88 43.64C24.88 43.2933 24.88 42.96 24.88 42.6133C24.96 39.4282 25.891 36.3225 27.5763 33.6185C29.2616 30.9145 31.6398 28.7109 34.4641 27.2361C37.2884 25.7614 40.456 25.0693 43.638 25.2318C46.82 25.3942 49.9006 26.4053 52.56 28.16C53.6412 28.8586 54.6505 29.6625 55.5733 30.56L56 31C57.5242 32.5831 58.7686 34.4136 59.68 36.4133C59.8267 36.2933 59.9867 36.1866 60.1467 36.08C60.0555 37.422 59.8863 38.7576 59.64 40.08C59.44 40.14 59.2267 40.14 59.0267 40.08C58.7908 40.0449 58.5687 39.9472 58.3835 39.7972C58.1982 39.6471 58.0566 39.4501 57.9733 39.2266C57.0854 36.6844 55.6309 34.3773 53.72 32.48C51.6342 30.3191 48.9565 28.8227 46.0231 28.1786C43.0897 27.5345 40.0313 27.7715 37.2322 28.8599C34.433 29.9482 32.0178 31.8393 30.2899 34.2957C28.5619 36.7522 27.5983 39.6644 27.52 42.6666C27.5219 43.2815 27.5575 43.8957 27.6267 44.5066C27.6658 44.8444 27.5744 45.1844 27.3712 45.457C27.168 45.7297 26.8682 45.9144 26.5333 45.9733C23.5467 46.7466 18.6667 49.0266 18.6667 55.8266C18.6667 56.08 18.6667 56.3333 18.6667 56.5733C18.916 59.205 20.1569 61.6433 22.1377 63.3939C24.1185 65.1444 26.691 66.0761 29.3333 66Z" fill="white"/>
<path d="M84 55.9066C84 65.3333 76.9867 68.6666 70.4133 68.6666H68.3333L68.48 68.48C69.08 67.6933 69.6667 66.8666 70.2267 66H70.4133C73.6933 66 81.3333 65.0133 81.3333 55.9066C81.3333 50.44 78.12 47.0266 71.7867 45.7466C71.4985 45.6884 71.2377 45.5365 71.0448 45.3147C70.8519 45.0928 70.7377 44.8134 70.72 44.52C70.7439 43.3627 70.5126 42.2144 70.0425 41.1566C69.5724 40.0989 68.875 39.1577 68 38.4C68.12 37.4133 68.1867 36.4533 68.2267 35.5333V35.4266C69.6898 36.2135 70.9273 37.3617 71.8212 38.762C72.715 40.1624 73.2356 41.7682 73.3333 43.4266C80.2 45.0666 84 49.4933 84 55.9066Z" fill="white"/>
<path d="M49.3333 63.3333H36C35.6463 63.3333 35.3072 63.1929 35.0571 62.9428C34.8071 62.6928 34.6666 62.3536 34.6666 62V34C34.6666 33.6464 34.8071 33.3072 35.0571 33.0572C35.3072 32.8071 35.6463 32.6667 36 32.6667H49.3333C49.6869 32.6667 50.0261 32.8071 50.2761 33.0572C50.5261 33.3072 50.6666 33.6464 50.6666 34V62C50.6666 62.3536 50.5261 62.6928 50.2761 62.9428C50.0261 63.1929 49.6869 63.3333 49.3333 63.3333ZM37.3333 60.6667H48V35.3333H37.3333V60.6667Z" fill="white"/>
<path d="M46.6666 38H38.6666V40.6667H46.6666V38Z" fill="white"/>
<path d="M46.6666 43.3333H38.6666V46H46.6666V43.3333Z" fill="white"/>
<path d="M66.6666 51.8667L60.3466 54.4266C60.0202 54.5506 59.6597 54.5506 59.3333 54.4266C59.1707 54.3581 59.0234 54.258 58.8998 54.1321C58.7762 54.0063 58.6788 53.8571 58.6133 53.6933L56.1066 47.5333L58.5733 46.52L59.7866 49.5333C61.4965 44.9751 62.5297 40.191 62.8533 35.3333V34.8933C62.9599 30.6533 62.0133 27.76 60.1866 26.9867C58.7199 26.36 56.8799 27.2133 55.5866 28.04L54.1466 25.8C57.4666 23.6667 59.8399 23.9333 61.2399 24.5467C64.0933 25.8 65.5733 29.4667 65.4533 34.8933V35.4267C65.1129 40.694 63.9848 45.8805 62.1066 50.8133L65.6666 49.3333L66.6666 51.8667Z" fill="white"/>
<path d="M75.5733 60.3733L73.0666 61.3333L71.8533 58C70.2866 61.1212 68.4531 64.1011 66.3733 66.9066L65.2933 68.24C61.2933 73.2266 57.2933 75.9066 54.0133 75.9066C53.2795 75.9083 52.5532 75.7585 51.88 75.4666C51.0567 75.066 50.3279 74.4951 49.7418 73.7918C49.1557 73.0884 48.7256 72.2686 48.48 71.3866H51.3733C51.6923 72.0988 52.2483 72.6784 52.9466 73.0266C55.24 74.0266 59.1866 71.5466 63.2266 66.56C63.56 66.1333 63.9066 65.72 64.24 65.2266C66.1637 62.6215 67.8673 59.8609 69.3333 56.9733L66.0933 58.16L65.1733 55.6533L71.5733 53.3333C71.736 53.2655 71.9104 53.2305 72.0866 53.2305C72.2629 53.2305 72.4373 53.2655 72.6 53.3333C72.9158 53.4834 73.16 53.7516 73.28 54.08L75.5733 60.3733Z" fill="white"/>
</g>
<defs>
<clipPath id="clip0_0_1198">
<rect width="100" height="100" fill="white"/>
</clipPath>
</defs>
</svg>
