<svg width="100" height="100" viewBox="0 0 100 100" fill="none" xmlns="http://www.w3.org/2000/svg">
<path d="M68.74 74.5H31.26C30.7296 74.5 30.2209 74.2893 29.8458 73.9142C29.4707 73.5391 29.26 73.0304 29.26 72.5V40.5C29.26 39.9696 29.4707 39.4609 29.8458 39.0858C30.2209 38.7107 30.7296 38.5 31.26 38.5H68.76C69.2905 38.5 69.7992 38.7107 70.1742 39.0858C70.5493 39.4609 70.76 39.9696 70.76 40.5V72.5C70.76 72.7643 70.7076 73.026 70.6059 73.27C70.5041 73.514 70.355 73.7354 70.1672 73.9213C69.9793 74.1073 69.7565 74.2542 69.5115 74.3535C69.2666 74.4529 69.0043 74.5026 68.74 74.5ZM33.26 70.5H66.74V42.5H33.26V70.5Z" fill="#232F3E"/>
<path d="M59.22 40.52V32.42C59.1788 31.2527 58.9073 30.1052 58.4209 29.0432C57.9346 27.9813 57.2431 27.0261 56.3862 26.2324C55.5293 25.4387 54.524 24.8223 53.428 24.4186C52.332 24.0148 51.167 23.8318 50 23.88C47.659 23.7875 45.3759 24.6217 43.6461 26.2018C41.9163 27.7818 40.8793 29.9802 40.76 32.32V40.48H36.76V32.32C36.8749 28.9176 38.3321 25.6991 40.8131 23.3681C43.2941 21.037 46.5971 19.7829 50 19.88C53.4095 19.8048 56.7096 21.0849 59.1766 23.4394C61.6436 25.7939 63.0761 29.0308 63.16 32.44V40.44L59.22 40.52Z" fill="#232F3E"/>
<path d="M49.9999 60C49.1358 60 48.2802 59.8298 47.4819 59.4991C46.6835 59.1684 45.9582 58.6838 45.3472 58.0728C44.7362 57.4618 44.2515 56.7364 43.9208 55.9381C43.5901 55.1397 43.4199 54.2841 43.4199 53.42C43.4199 52.5559 43.5901 51.7003 43.9208 50.9019C44.2515 50.1036 44.7362 49.3782 45.3472 48.7672C45.9582 48.1562 46.6835 47.6715 47.4819 47.3409C48.2802 47.0102 49.1358 46.84 49.9999 46.84C50.8648 46.8374 51.7216 47.0058 52.5211 47.3355C53.3206 47.6652 54.047 48.1498 54.6586 48.7613C55.2701 49.3729 55.7547 50.0993 56.0844 50.8988C56.4142 51.6983 56.5826 52.5552 56.5799 53.42C56.5826 54.2848 56.4142 55.1417 56.0844 55.9412C55.7547 56.7407 55.2701 57.4671 54.6586 58.0787C54.047 58.6902 53.3206 59.1748 52.5211 59.5045C51.7216 59.8342 50.8648 60.0026 49.9999 60ZM49.9999 50.84C49.3157 50.84 48.6594 51.1118 48.1756 51.5957C47.6917 52.0795 47.4199 52.7357 47.4199 53.42C47.4199 54.1043 47.6917 54.7605 48.1756 55.2443C48.6594 55.7282 49.3157 56 49.9999 56C50.3395 56.0027 50.6762 55.9377 50.9904 55.809C51.3046 55.6803 51.5901 55.4904 51.8302 55.2503C52.0703 55.0102 52.2602 54.7247 52.389 54.4105C52.5177 54.0962 52.5826 53.7595 52.5799 53.42C52.5845 53.0808 52.5194 52.7442 52.3886 52.4312C52.2579 52.1181 52.0643 51.8352 51.8199 51.6C51.5839 51.3565 51.3009 51.1636 50.988 51.0329C50.6752 50.9023 50.339 50.8366 49.9999 50.84Z" fill="#232F3E"/>
<path d="M52 57.5H48V66.88H52V57.5Z" fill="#232F3E"/>
<path d="M50 97C49.5581 96.9986 49.1291 96.851 48.78 96.58C42.4774 92.0296 35.2996 88.8357 27.7 87.2C12.24 84.44 3 76 3 64.64C3.15411 59.1332 4.88986 53.7871 8 49.24C10 45.74 11.78 42.72 11.78 38.62C11.6796 35.8991 11.0247 33.2273 9.85547 30.7684C8.68619 28.3095 7.02715 26.1152 4.98 24.32C4.77246 24.1539 4.60012 23.948 4.47306 23.7145C4.346 23.481 4.26677 23.2245 4.24 22.96C4.21435 22.6951 4.24183 22.4278 4.32081 22.1736C4.3998 21.9195 4.52871 21.6837 4.7 21.48C4.7 21.34 15.72 8.12001 18.22 4.70001C18.3925 4.46071 18.6158 4.26253 18.8739 4.11967C19.132 3.97682 19.4185 3.89282 19.7128 3.87371C20.0072 3.85459 20.3022 3.90083 20.5766 4.00911C20.851 4.11739 21.098 4.28503 21.3 4.50001C23.0035 6.52257 25.1032 8.17472 27.4698 9.35455C29.8364 10.5344 32.4195 11.2169 35.06 11.36C40.28 11.36 44.4 9.02001 48.42 3.78001C48.6069 3.53912 48.8465 3.34417 49.1203 3.21006C49.3942 3.07595 49.6951 3.00623 50 3.00623C50.3049 3.00623 50.6058 3.07595 50.8797 3.21006C51.1535 3.34417 51.3931 3.53912 51.58 3.78001C55.58 9.02001 59.72 11.36 64.94 11.36C67.5805 11.2169 70.1636 10.5344 72.5302 9.35455C74.8968 8.17472 76.9965 6.52257 78.7 4.50001C78.9018 4.28713 79.1479 4.12124 79.421 4.01409C79.694 3.90695 79.9873 3.86117 80.28 3.88001C80.5751 3.89735 80.8627 3.97988 81.122 4.12167C81.3814 4.26346 81.6061 4.46098 81.78 4.70001C84.28 8.12001 95.2 21.34 95.3 21.48C95.4713 21.6837 95.6002 21.9195 95.6792 22.1736C95.7582 22.4278 95.7857 22.6951 95.76 22.96C95.7332 23.2245 95.654 23.481 95.5269 23.7145C95.3999 23.948 95.2275 24.1539 95.02 24.32C92.9827 26.1235 91.3304 28.3195 90.162 30.7767C88.9936 33.2338 88.333 35.9015 88.22 38.62C88.22 42.72 89.98 45.74 92 49.24C95.1101 53.7871 96.8459 59.1332 97 64.64C97 76 87.76 84.44 72.3 87.2C64.697 88.8251 57.517 92.0199 51.22 96.58C50.8709 96.851 50.4419 96.9986 50 97ZM8.96 22.58C13.1925 26.8471 15.6326 32.5716 15.78 38.58C15.5485 43.1079 14.0519 47.4801 11.46 51.2C9.16 55.2 7 58.88 7 64.6C7 78.32 23.38 82.34 28.4 83.24C36.154 84.8502 43.5016 88.0137 50 92.54C56.5016 88.0279 63.8491 84.878 71.6 83.28C76.62 82.38 93 78.36 93 64.64C93 58.92 90.84 55.2 88.54 51.24C85.9481 47.5201 84.4515 43.1479 84.22 38.62C84.3674 32.6116 86.8075 26.8871 91.04 22.62C88.58 19.6 82.94 12.74 80 8.90001C75.985 12.8673 70.6213 15.1741 64.98 15.36C62.1003 15.3637 59.2571 14.7161 56.663 13.4658C54.0689 12.2155 51.7911 10.3949 50 8.14001C48.2131 10.3896 45.9417 12.2071 43.355 13.4571C40.7683 14.7072 37.9329 15.3576 35.06 15.36C29.4047 15.1841 24.025 12.8765 20 8.90001C17.06 12.74 11.42 19.6 8.96 22.58Z" fill="#232F3E"/>
</svg>
