<svg width="100" height="100" viewBox="0 0 100 100" fill="none" xmlns="http://www.w3.org/2000/svg">
<path d="M78.7999 76.72H21.1999C11.1999 76.72 3.55992 70.06 3.03992 60.88C3.03992 60.46 3.03992 60.06 3.03992 59.62C2.89253 55.8439 4.01951 52.1279 6.23961 49.0699C8.4597 46.0118 11.6439 43.7893 15.2799 42.76C15.2799 42.34 15.2799 41.92 15.2799 41.5C15.2799 41.08 15.2799 40.82 15.2799 40.5C15.5994 35.9739 17.1359 31.6183 19.727 27.8936C22.3181 24.1689 25.8675 21.2135 29.9999 19.34C34.639 17.3363 39.774 16.7759 44.7361 17.732C49.6981 18.688 54.2574 21.1161 57.8199 24.7C60.1645 27.0024 62.069 29.7135 63.4399 32.7C65.422 31.1862 67.8459 30.3642 70.3399 30.36C75.6399 30.36 81.1999 34.1 82.3399 42.36C91.8799 44.78 97.0999 50.92 97.0999 59.82C96.9999 70.7 90.5399 76.72 78.7999 76.72ZM39.9999 21.32C37.0681 21.3284 34.1664 21.9128 31.4599 23.04C27.9125 24.6867 24.8897 27.2826 22.7259 30.5405C20.5622 33.7985 19.3418 37.5915 19.1999 41.5C19.2019 42.3358 19.2554 43.1707 19.3599 44C19.4236 44.4869 19.3059 44.9802 19.0292 45.3859C18.7526 45.7916 18.3364 46.0813 17.8599 46.2C13.8599 47.2 6.99992 50.2 6.99992 59.64C6.99992 60 6.99992 60.34 6.99992 60.68C7.37992 67.66 13.3399 72.68 21.1599 72.68H78.7999C88.3599 72.68 92.9999 68.44 92.9999 59.74C92.9999 52.3 88.6199 47.64 79.9799 45.88C79.5445 45.7917 79.1509 45.5609 78.8612 45.2241C78.5715 44.8873 78.4022 44.4637 78.3799 44.02C77.9599 36.8 73.7599 34.24 70.3799 34.24C69.2113 34.2516 68.0614 34.5339 67.0203 35.0649C65.9793 35.5958 65.0755 36.3609 64.3799 37.3C64.1624 37.5831 63.873 37.8028 63.5418 37.9364C63.2107 38.0699 62.8498 38.1123 62.4967 38.0592C62.1436 38.0062 61.8112 37.8595 61.5339 37.6346C61.2566 37.4096 61.0446 37.1145 60.9199 36.78C59.7021 33.2955 57.7047 30.1351 55.0799 27.54C51.0765 23.5496 45.6524 21.3123 39.9999 21.32Z" fill="#232F3E"/>
<path d="M39.3401 67.28L36.5801 64.38C39.8986 61.2148 44.2805 59.4046 48.8654 59.3047C53.4502 59.2047 57.9068 60.8224 61.3601 63.84L58.7401 66.84C56.0334 64.4821 52.5436 63.2202 48.9548 63.3016C45.3661 63.383 41.9371 64.8018 39.3401 67.28Z" fill="#232F3E"/>
<path d="M34 61.62L31.2 58.72C35.9332 54.2173 42.1789 51.647 48.7103 51.5138C55.2418 51.3805 61.587 53.6941 66.5 58L63.86 61C59.6993 57.3665 54.3326 55.4163 48.81 55.5309C43.2873 55.6456 38.0062 57.8169 34 61.62Z" fill="#232F3E"/>
<path d="M28.56 56L25.8 53.04C31.9325 47.1845 40.0316 43.8317 48.5085 43.6393C56.9853 43.4469 65.2282 46.4288 71.62 52L69 55.04C63.3543 50.1268 56.076 47.5013 48.5939 47.679C41.1118 47.8566 33.9663 50.8245 28.56 56Z" fill="#232F3E"/>
</svg>
