<svg width="100" height="100" viewBox="0 0 100 100" fill="none" xmlns="http://www.w3.org/2000/svg">
<path d="M80 97H20C19.4696 97 18.9609 96.7893 18.5858 96.4142C18.2107 96.0391 18 95.5304 18 95V9.74C18 7.95244 18.7101 6.2381 19.9741 4.9741C21.2381 3.7101 22.9524 3 24.74 3H75.26C77.0476 3 78.7619 3.7101 80.0259 4.9741C81.2899 6.2381 82 7.95244 82 9.74V95C82 95.5304 81.7893 96.0391 81.4142 96.4142C81.0391 96.7893 80.5304 97 80 97ZM22 93H78V9.74C77.9948 9.01492 77.7044 8.32103 77.1917 7.80831C76.679 7.29559 75.9851 7.00524 75.26 7H24.74C24.0149 7.00524 23.321 7.29559 22.8083 7.80831C22.2956 8.32103 22.0052 9.01492 22 9.74V93Z" fill="#232F3E"/>
<path d="M38.76 27.62H31.26C30.7296 27.62 30.2209 27.4093 29.8458 27.0342C29.4707 26.6591 29.26 26.1504 29.26 25.62V12.5C29.26 11.9696 29.4707 11.4609 29.8458 11.0858C30.2209 10.7107 30.7296 10.5 31.26 10.5H38.76C39.2904 10.5 39.7992 10.7107 40.1742 11.0858C40.5493 11.4609 40.76 11.9696 40.76 12.5V25.62C40.76 25.8826 40.7083 26.1427 40.6078 26.3854C40.5073 26.628 40.3599 26.8485 40.1742 27.0342C39.9885 27.2199 39.768 27.3673 39.5254 27.4678C39.2827 27.5683 39.0227 27.62 38.76 27.62ZM33.26 23.62H36.76V14.5H33.26V23.62Z" fill="#232F3E"/>
<path d="M53.76 27.62H46.26C45.7296 27.62 45.2209 27.4093 44.8458 27.0342C44.4707 26.6591 44.26 26.1504 44.26 25.62V12.5C44.26 11.9696 44.4707 11.4609 44.8458 11.0858C45.2209 10.7107 45.7296 10.5 46.26 10.5H53.76C54.2904 10.5 54.7992 10.7107 55.1742 11.0858C55.5493 11.4609 55.76 11.9696 55.76 12.5V25.62C55.76 26.1504 55.5493 26.6591 55.1742 27.0342C54.7992 27.4093 54.2904 27.62 53.76 27.62ZM48.26 23.62H51.76V14.5H48.26V23.62Z" fill="#232F3E"/>
<path d="M68.76 27.62H61.26C60.7296 27.62 60.2209 27.4093 59.8458 27.0342C59.4707 26.6591 59.26 26.1504 59.26 25.62V12.5C59.26 11.9696 59.4707 11.4609 59.8458 11.0858C60.2209 10.7107 60.7296 10.5 61.26 10.5H68.76C69.2904 10.5 69.7991 10.7107 70.1742 11.0858C70.5493 11.4609 70.76 11.9696 70.76 12.5V25.62C70.76 26.1504 70.5493 26.6591 70.1742 27.0342C69.7991 27.4093 69.2904 27.62 68.76 27.62ZM63.26 23.62H66.76V14.5H63.26V23.62Z" fill="#232F3E"/>
<path d="M38.76 48.26H31.26C30.7296 48.26 30.2209 48.0493 29.8458 47.6742C29.4707 47.2991 29.26 46.7904 29.26 46.26V33.12C29.26 32.5896 29.4707 32.0809 29.8458 31.7058C30.2209 31.3307 30.7296 31.12 31.26 31.12H38.76C39.2904 31.12 39.7992 31.3307 40.1742 31.7058C40.5493 32.0809 40.76 32.5896 40.76 33.12V46.26C40.76 46.5226 40.7083 46.7827 40.6078 47.0254C40.5073 47.268 40.3599 47.4885 40.1742 47.6742C39.9885 47.8599 39.768 48.0072 39.5254 48.1078C39.2827 48.2083 39.0227 48.26 38.76 48.26ZM33.26 44.26H36.76V35.12H33.26V44.26Z" fill="#232F3E"/>
<path d="M53.76 48.26H46.26C45.7296 48.26 45.2209 48.0493 44.8458 47.6742C44.4707 47.2991 44.26 46.7904 44.26 46.26V33.12C44.26 32.5896 44.4707 32.0809 44.8458 31.7058C45.2209 31.3307 45.7296 31.12 46.26 31.12H53.76C54.2904 31.12 54.7992 31.3307 55.1742 31.7058C55.5493 32.0809 55.76 32.5896 55.76 33.12V46.26C55.76 46.7904 55.5493 47.2991 55.1742 47.6742C54.7992 48.0493 54.2904 48.26 53.76 48.26ZM48.26 44.26H51.76V35.12H48.26V44.26Z" fill="#232F3E"/>
<path d="M68.76 48.26H61.26C60.7296 48.26 60.2209 48.0493 59.8458 47.6742C59.4707 47.2991 59.26 46.7904 59.26 46.26V33.12C59.26 32.5896 59.4707 32.0809 59.8458 31.7058C60.2209 31.3307 60.7296 31.12 61.26 31.12H68.76C69.2904 31.12 69.7991 31.3307 70.1742 31.7058C70.5493 32.0809 70.76 32.5896 70.76 33.12V46.26C70.76 46.7904 70.5493 47.2991 70.1742 47.6742C69.7991 48.0493 69.2904 48.26 68.76 48.26ZM63.26 44.26H66.76V35.12H63.26V44.26Z" fill="#232F3E"/>
<path d="M38.76 68.88H31.26C30.7296 68.88 30.2209 68.6693 29.8458 68.2942C29.4707 67.9192 29.26 67.4104 29.26 66.88V53.76C29.26 53.2296 29.4707 52.7209 29.8458 52.3458C30.2209 51.9707 30.7296 51.76 31.26 51.76H38.76C39.2904 51.76 39.7992 51.9707 40.1742 52.3458C40.5493 52.7209 40.76 53.2296 40.76 53.76V66.88C40.76 67.1427 40.7083 67.4027 40.6078 67.6454C40.5073 67.888 40.3599 68.1085 40.1742 68.2942C39.9885 68.4799 39.768 68.6273 39.5254 68.7278C39.2827 68.8283 39.0227 68.88 38.76 68.88ZM33.26 64.88H36.76V55.76H33.26V64.88Z" fill="#232F3E"/>
<path d="M53.76 68.88H46.26C45.7296 68.88 45.2209 68.6693 44.8458 68.2942C44.4707 67.9192 44.26 67.4104 44.26 66.88V53.76C44.26 53.2296 44.4707 52.7209 44.8458 52.3458C45.2209 51.9707 45.7296 51.76 46.26 51.76H53.76C54.2904 51.76 54.7992 51.9707 55.1742 52.3458C55.5493 52.7209 55.76 53.2296 55.76 53.76V66.88C55.76 67.4104 55.5493 67.9192 55.1742 68.2942C54.7992 68.6693 54.2904 68.88 53.76 68.88ZM48.26 64.88H51.76V55.76H48.26V64.88Z" fill="#232F3E"/>
<path d="M68.76 68.88H61.26C60.7296 68.88 60.2209 68.6693 59.8458 68.2942C59.4707 67.9192 59.26 67.4104 59.26 66.88V53.76C59.26 53.2296 59.4707 52.7209 59.8458 52.3458C60.2209 51.9707 60.7296 51.76 61.26 51.76H68.76C69.2904 51.76 69.7991 51.9707 70.1742 52.3458C70.5493 52.7209 70.76 53.2296 70.76 53.76V66.88C70.76 67.4104 70.5493 67.9192 70.1742 68.2942C69.7991 68.6693 69.2904 68.88 68.76 68.88ZM63.26 64.88H66.76V55.76H63.26V64.88Z" fill="#232F3E"/>
</svg>
