<svg width="100" height="100" viewBox="0 0 100 100" fill="none" xmlns="http://www.w3.org/2000/svg">
<path d="M75.3199 97H24.6799C24.1495 97 23.6408 96.7893 23.2657 96.4142C22.8906 96.0391 22.6799 95.5304 22.6799 95V5C22.6799 4.46957 22.8906 3.96086 23.2657 3.58579C23.6408 3.21071 24.1495 3 24.6799 3H75.3199C75.8504 3 76.3591 3.21071 76.7342 3.58579C77.1092 3.96086 77.3199 4.46957 77.3199 5V95C77.3199 95.5304 77.1092 96.0391 76.7342 96.4142C76.3591 96.7893 75.8504 97 75.3199 97ZM26.6799 93H73.3199V7H26.6799V93Z" fill="#232F3E"/>
<path d="M67.8 12.38H32.18V16.38H67.8V12.38Z" fill="#232F3E"/>
<path d="M67.8 21.76H32.18V25.76H67.8V21.76Z" fill="#232F3E"/>
<path d="M67.8 31.12H32.18V35.12H67.8V31.12Z" fill="#232F3E"/>
<path d="M67.8 40.5H32.18V44.5H67.8V40.5Z" fill="#232F3E"/>
</svg>
