<svg width="100" height="100" viewBox="0 0 100 100" fill="none" xmlns="http://www.w3.org/2000/svg">
<path d="M49.4199 71.68C45.3131 71.68 41.2986 70.462 37.8842 68.18C34.4698 65.8979 31.809 62.6545 30.2383 58.8599C28.6676 55.0654 28.2576 50.8902 29.0603 46.8626C29.8629 42.835 31.8421 39.136 34.7475 36.2334C37.6528 33.3309 41.3537 31.3553 45.3821 30.5565C49.4105 29.7577 53.5852 30.1717 57.3783 31.7461C61.1713 33.3204 64.4122 35.9844 66.6909 39.401C68.9697 42.8176 70.1839 46.8333 70.1799 50.94C70.1746 56.4425 67.9851 61.7177 64.0924 65.6067C60.1997 69.4956 54.9223 71.68 49.4199 71.68ZM49.4199 34.18C46.1051 34.18 42.8647 35.163 40.1086 37.0046C37.3524 38.8462 35.2042 41.4638 33.9357 44.5263C32.6672 47.5888 32.3353 50.9586 32.982 54.2098C33.6286 57.4609 35.2249 60.4472 37.5688 62.7911C39.9127 65.1351 42.8991 66.7313 46.1502 67.378C49.4013 68.0247 52.7712 67.6928 55.8337 66.4243C58.8962 65.1557 61.5137 63.0076 63.3553 60.2514C65.197 57.4952 66.1799 54.2549 66.1799 50.94C66.1799 48.7391 65.7464 46.5597 64.9041 44.5263C64.0619 42.4929 62.8273 40.6452 61.271 39.0889C59.7147 37.5326 57.8671 36.2981 55.8337 35.4558C53.8003 34.6136 51.6209 34.18 49.4199 34.18Z" fill="#232F3E"/>
<path d="M42.5001 64.18C42.1589 64.1792 41.8229 64.0969 41.5201 63.94C41.2082 63.7647 40.949 63.5089 40.7696 63.1993C40.5902 62.8898 40.4971 62.5377 40.5001 62.18V39.68C40.5029 39.3243 40.6005 38.9759 40.7829 38.6705C40.9652 38.3651 41.2257 38.1139 41.5375 37.9428C41.8493 37.7716 42.201 37.6867 42.5565 37.6967C42.9121 37.7068 43.2585 37.8115 43.5601 38L61.7001 49.26C61.992 49.4377 62.2335 49.6873 62.4016 49.9849C62.5697 50.2825 62.6586 50.6182 62.6601 50.96C62.6586 51.3017 62.5697 51.6375 62.4016 51.9351C62.2335 52.2327 61.992 52.4822 61.7001 52.66L43.5601 63.9C43.2397 64.0902 42.8726 64.1872 42.5001 64.18ZM44.5001 43.28V58.6L56.8601 50.94L44.5001 43.28Z" fill="#232F3E"/>
<path d="M92.76 94.18H7.26C6.14234 94.1854 5.06776 93.7492 4.27 92.9665C3.47223 92.1837 3.0158 91.1176 3 90V10C3.0158 8.88244 3.47223 7.81632 4.27 7.03353C5.06776 6.25074 6.14234 5.81461 7.26 5.82H92.76C93.8742 5.81988 94.9437 6.25835 95.7371 7.04057C96.5306 7.8228 96.9842 8.88591 97 10V90C96.9842 91.1141 96.5306 92.1772 95.7371 92.9594C94.9437 93.7416 93.8742 94.1801 92.76 94.18ZM7.26 9.81999C7.20221 9.8134 7.14399 9.82801 7.09616 9.86112C7.04834 9.89423 7.01417 9.94358 7 10V90C6.99988 90.0333 7.00669 90.0662 7.01998 90.0967C7.03327 90.1272 7.05276 90.1546 7.07721 90.1772C7.10166 90.1997 7.13054 90.217 7.162 90.2278C7.19347 90.2386 7.22684 90.2428 7.26 90.24H92.76C92.8237 90.24 92.8847 90.2147 92.9297 90.1697C92.9747 90.1247 93 90.0636 93 90V10C93 9.93634 92.9747 9.8753 92.9297 9.83029C92.8847 9.78528 92.8237 9.76 92.76 9.76L7.26 9.81999Z" fill="#232F3E"/>
<path d="M23.7599 24.8199H14.3799C13.8494 24.8199 13.3407 24.6092 12.9657 24.2342C12.5906 23.8591 12.3799 23.3504 12.3799 22.8199V15.3199C12.3799 14.7895 12.5906 14.2808 12.9657 13.9057C13.3407 13.5307 13.8494 13.3199 14.3799 13.3199H23.7599C24.2903 13.3199 24.799 13.5307 25.1741 13.9057C25.5492 14.2808 25.7599 14.7895 25.7599 15.3199V22.8199C25.7599 23.3504 25.5492 23.8591 25.1741 24.2342C24.799 24.6092 24.2903 24.8199 23.7599 24.8199ZM16.3799 20.8199H21.7599V17.3199H16.3799V20.8199Z" fill="#232F3E"/>
<path d="M44.38 24.8199H35C34.4696 24.8199 33.9609 24.6092 33.5858 24.2342C33.2107 23.8591 33 23.3504 33 22.8199V15.3199C33 14.7895 33.2107 14.2808 33.5858 13.9057C33.9609 13.5307 34.4696 13.3199 35 13.3199H44.38C44.9104 13.3199 45.4191 13.5307 45.7942 13.9057C46.1693 14.2808 46.38 14.7895 46.38 15.3199V22.8199C46.38 23.3504 46.1693 23.8591 45.7942 24.2342C45.4191 24.6092 44.9104 24.8199 44.38 24.8199ZM37 20.8199H42.38V17.3199H37V20.8199Z" fill="#232F3E"/>
<path d="M65.0001 24.8199H55.6201C55.0897 24.8199 54.581 24.6092 54.2059 24.2342C53.8308 23.8591 53.6201 23.3504 53.6201 22.8199V15.3199C53.6201 14.7895 53.8308 14.2808 54.2059 13.9057C54.581 13.5307 55.0897 13.3199 55.6201 13.3199H65.0001C65.5305 13.3199 66.0393 13.5307 66.4143 13.9057C66.7894 14.2808 67.0001 14.7895 67.0001 15.3199V22.8199C67.0001 23.3504 66.7894 23.8591 66.4143 24.2342C66.0393 24.6092 65.5305 24.8199 65.0001 24.8199ZM57.6201 20.8199H63.0001V17.3199H57.6201V20.8199Z" fill="#232F3E"/>
<path d="M85.62 24.8199H76.26C75.7296 24.8199 75.2209 24.6092 74.8458 24.2342C74.4707 23.8591 74.26 23.3504 74.26 22.8199V15.3199C74.26 14.7895 74.4707 14.2808 74.8458 13.9057C75.2209 13.5307 75.7296 13.3199 76.26 13.3199H85.62C86.1504 13.3199 86.6591 13.5307 87.0342 13.9057C87.4093 14.2808 87.62 14.7895 87.62 15.3199V22.8199C87.62 23.3504 87.4093 23.8591 87.0342 24.2342C86.6591 24.6092 86.1504 24.8199 85.62 24.8199ZM78.26 20.8199H83.62V17.3199H78.26V20.8199Z" fill="#232F3E"/>
<path d="M23.7599 86.6799H14.3799C13.8494 86.6799 13.3407 86.4692 12.9657 86.0942C12.5906 85.7191 12.3799 85.2104 12.3799 84.6799V77.1799C12.3799 76.6495 12.5906 76.1408 12.9657 75.7657C13.3407 75.3906 13.8494 75.1799 14.3799 75.1799H23.7599C24.2903 75.1799 24.799 75.3906 25.1741 75.7657C25.5492 76.1408 25.7599 76.6495 25.7599 77.1799V84.6799C25.7599 85.2104 25.5492 85.7191 25.1741 86.0942C24.799 86.4692 24.2903 86.6799 23.7599 86.6799ZM16.3799 82.6799H21.7599V79.1799H16.3799V82.6799Z" fill="#232F3E"/>
<path d="M44.38 86.6799H35C34.4696 86.6799 33.9609 86.4692 33.5858 86.0942C33.2107 85.7191 33 85.2104 33 84.6799V77.1799C33 76.6495 33.2107 76.1408 33.5858 75.7657C33.9609 75.3906 34.4696 75.1799 35 75.1799H44.38C44.9104 75.1799 45.4191 75.3906 45.7942 75.7657C46.1693 76.1408 46.38 76.6495 46.38 77.1799V84.6799C46.38 85.2104 46.1693 85.7191 45.7942 86.0942C45.4191 86.4692 44.9104 86.6799 44.38 86.6799ZM37 82.6799H42.38V79.1799H37V82.6799Z" fill="#232F3E"/>
<path d="M65.0001 86.6799H55.6201C55.0897 86.6799 54.581 86.4692 54.2059 86.0942C53.8308 85.7191 53.6201 85.2104 53.6201 84.6799V77.1799C53.6201 76.6495 53.8308 76.1408 54.2059 75.7657C54.581 75.3906 55.0897 75.1799 55.6201 75.1799H65.0001C65.5305 75.1799 66.0393 75.3906 66.4143 75.7657C66.7894 76.1408 67.0001 76.6495 67.0001 77.1799V84.6799C67.0001 85.2104 66.7894 85.7191 66.4143 86.0942C66.0393 86.4692 65.5305 86.6799 65.0001 86.6799ZM57.6201 82.6799H63.0001V79.1799H57.6201V82.6799Z" fill="#232F3E"/>
<path d="M85.62 86.6799H76.26C75.7296 86.6799 75.2209 86.4692 74.8458 86.0942C74.4707 85.7191 74.26 85.2104 74.26 84.6799V77.1799C74.26 76.6495 74.4707 76.1408 74.8458 75.7657C75.2209 75.3906 75.7296 75.1799 76.26 75.1799H85.62C86.1504 75.1799 86.6591 75.3906 87.0342 75.7657C87.4093 76.1408 87.62 76.6495 87.62 77.1799V84.6799C87.62 85.2104 87.4093 85.7191 87.0342 86.0942C86.6591 86.4692 86.1504 86.6799 85.62 86.6799ZM78.26 82.6799H83.62V79.1799H78.26V82.6799Z" fill="#232F3E"/>
</svg>
