<svg width="100" height="100" viewBox="0 0 100 100" fill="none" xmlns="http://www.w3.org/2000/svg">
<path d="M50 97C32.66 97 14.26 92.22 14.26 83.34V16.66C14.26 7.78 32.66 3 50 3C67.34 3 85.76 7.78 85.76 16.66V83.34C85.76 92.22 67.34 97 50 97ZM50 7C30.32 7 18.26 12.62 18.26 16.66V83.34C18.26 87.34 30.26 93 50 93C69.74 93 81.76 87.38 81.76 83.34V16.66C81.76 12.62 69.68 7 50 7Z" fill="#232F3E"/>
<path d="M50 28.3C32.66 28.3 14.26 23.52 14.26 14.64H18.26C18.26 18.64 30.26 24.3 50 24.3C69.74 24.3 81.76 18.68 81.76 14.64H85.76C85.76 23.52 67.34 28.3 50 28.3Z" fill="#232F3E"/>
</svg>
