<svg width="100" height="100" viewBox="0 0 100 100" fill="none" xmlns="http://www.w3.org/2000/svg">
<path d="M97 97H3V3H97V97ZM7 93H93V7H7V93Z" fill="#232F3E"/>
<path d="M32.58 43.38C32.5533 44.1513 32.6546 44.9218 32.88 45.66C33.0961 46.2973 33.3706 46.9132 33.7 47.5C33.8114 47.6735 33.8736 47.8739 33.88 48.08C33.8643 48.2376 33.8106 48.3891 33.7235 48.5215C33.6365 48.6539 33.5186 48.7632 33.38 48.84L31.78 49.9C31.5827 50.0467 31.3457 50.1303 31.1 50.14C30.9557 50.1338 30.8141 50.0988 30.6835 50.037C30.553 49.9751 30.4362 49.8878 30.34 49.78C29.99 49.42 29.6876 49.0168 29.44 48.58C29.18 48.16 28.92 47.66 28.64 47.1C27.7379 48.2161 26.5941 49.1129 25.2949 49.7227C23.9957 50.3324 22.575 50.6392 21.14 50.62C20.2049 50.6782 19.2676 50.547 18.3844 50.2343C17.5011 49.9215 16.6902 49.4337 16 48.8C15.3632 48.1505 14.8674 47.3765 14.5439 46.5264C14.2204 45.6763 14.0761 44.7685 14.12 43.86C14.0821 42.8675 14.2714 41.8796 14.6735 40.9714C15.0755 40.0633 15.6798 39.259 16.44 38.62C18.212 37.2104 20.439 36.4989 22.7 36.62C23.6034 36.6291 24.5052 36.6959 25.4 36.82C26.34 36.96 27.4 37.14 28.34 37.38V35.5C28.4728 34.0616 28.0427 32.6277 27.14 31.5C25.9583 30.5817 24.4692 30.1522 22.98 30.3C22.05 30.307 21.1239 30.4211 20.22 30.64C19.2792 30.8635 18.3566 31.1577 17.46 31.52C17.1774 31.654 16.8827 31.7612 16.58 31.84C16.4474 31.8597 16.3126 31.8597 16.18 31.84C15.82 31.84 15.64 31.56 15.64 31.04V29.78C15.6153 29.4691 15.6776 29.1574 15.82 28.88C16.0101 28.65 16.2493 28.4655 16.52 28.34C17.5611 27.8523 18.6459 27.4639 19.76 27.18C21.0678 26.8521 22.4118 26.6908 23.76 26.7C26.1629 26.4643 28.562 27.1826 30.44 28.7C31.2009 29.5482 31.7812 30.5424 32.1456 31.622C32.5101 32.7016 32.6511 33.8441 32.56 34.98L32.58 43.38ZM22.2 47.26C23.0996 47.2562 23.9921 47.1007 24.84 46.8C25.7772 46.4764 26.6121 45.9105 27.26 45.16C27.6714 44.693 27.9722 44.1393 28.14 43.54C28.3121 42.8128 28.3927 42.0671 28.38 41.32V40.24C27.5957 40.0528 26.801 39.9126 26 39.82C25.204 39.7182 24.4025 39.6648 23.6 39.66C22.251 39.5543 20.9073 39.9221 19.8 40.7C19.3752 41.0578 19.04 41.51 18.8212 42.0205C18.6024 42.531 18.5061 43.0856 18.54 43.64C18.5059 44.1332 18.5716 44.6283 18.7331 45.0957C18.8946 45.563 19.1486 45.993 19.48 46.36C19.8514 46.6823 20.283 46.9279 20.7499 47.0823C21.2168 47.2368 21.7097 47.2972 22.2 47.26ZM42.74 50C42.396 50.0278 42.0522 49.9436 41.76 49.76C41.479 49.492 41.29 49.1419 41.22 48.76L35.22 28.98C35.1141 28.6615 35.0404 28.3332 35 28C34.9904 27.9162 34.9999 27.8314 35.0277 27.7518C35.0554 27.6722 35.1008 27.6 35.1604 27.5404C35.22 27.4808 35.2923 27.4354 35.3719 27.4076C35.4514 27.3798 35.5363 27.3704 35.62 27.38H38.14C38.4905 27.3507 38.841 27.4348 39.14 27.62C39.398 27.9097 39.5771 28.261 39.66 28.64L44 45.52L48 28.62C48.0646 28.2388 48.2383 27.8845 48.5 27.6C48.8063 27.4146 49.1632 27.3306 49.52 27.36H51.52C51.8831 27.3317 52.2461 27.4155 52.56 27.6C52.8145 27.8869 52.9811 28.241 53.04 28.62L57.04 45.74L61.46 28.62C61.5487 28.239 61.7348 27.8875 62 27.6C62.2979 27.4121 62.6493 27.3277 63 27.36H65.38C65.4656 27.3498 65.5525 27.3595 65.6338 27.3883C65.715 27.4172 65.7885 27.4644 65.8485 27.5264C65.9086 27.5883 65.9534 27.6633 65.9797 27.7454C66.006 27.8276 66.0129 27.9147 66 28C66.008 28.1399 66.008 28.2801 66 28.42L65.82 29.04L59.6 48.8C59.53 49.1819 59.341 49.532 59.06 49.8C58.7417 49.9906 58.3659 50.0615 58 50H56C55.6339 50.0338 55.2671 49.9422 54.96 49.74C54.6946 49.4524 54.5266 49.0885 54.48 48.7L50.48 32.24L46.48 48.7C46.4191 49.0882 46.2452 49.45 45.98 49.74C45.6804 49.9422 45.3199 50.0341 44.96 50H42.74ZM75.58 50.68C74.2333 50.6832 72.8908 50.5288 71.58 50.22C70.5536 50.0085 69.5588 49.6657 68.62 49.2C68.2906 49.0482 68.0176 48.7962 67.84 48.48C67.7397 48.2529 67.6853 48.0082 67.68 47.76V46.46C67.68 45.94 67.88 45.66 68.26 45.66C68.4188 45.6319 68.5812 45.6319 68.74 45.66L69.38 45.92C70.288 46.3122 71.2326 46.6137 72.2 46.82C73.2013 47.0178 74.2194 47.1183 75.24 47.12C76.5407 47.1956 77.8365 46.9045 78.98 46.28C79.3863 46.0503 79.7267 45.7199 79.9684 45.3206C80.2101 44.9213 80.3449 44.4665 80.36 44C80.3681 43.6716 80.3103 43.3449 80.1901 43.0392C80.0699 42.7334 79.8896 42.4549 79.66 42.22C78.9161 41.5897 78.0418 41.1321 77.1 40.88L73.38 39.7C71.8158 39.2657 70.4207 38.3659 69.38 37.12C68.521 36.0669 68.0356 34.7585 68 33.4C67.9753 32.4102 68.2097 31.4312 68.68 30.56C69.1592 29.7813 69.784 29.1023 70.52 28.56C71.3165 27.9578 72.2187 27.5101 73.18 27.24C74.2268 26.94 75.3112 26.7918 76.4 26.8C76.975 26.7934 77.5497 26.8268 78.12 26.9C78.7 26.9 79.26 27.08 79.78 27.2C80.2735 27.3069 80.7609 27.4404 81.24 27.6C81.606 27.7141 81.9608 27.8614 82.3 28.04C82.5985 28.2016 82.8632 28.4188 83.08 28.68C83.238 28.9307 83.3149 29.224 83.3 29.52V30.72C83.3 31.26 83.1 31.54 82.72 31.54C82.3705 31.4925 82.0321 31.3842 81.72 31.22C80.169 30.545 78.4912 30.2108 76.8 30.24C75.6231 30.1777 74.4506 30.426 73.4 30.96C73.0857 31.1766 72.8216 31.4584 72.6259 31.7861C72.4301 32.1139 72.3072 32.4799 72.2654 32.8594C72.2237 33.2388 72.2641 33.6229 72.3839 33.9853C72.5038 34.3478 72.7003 34.6802 72.96 34.96C73.7893 35.627 74.7503 36.111 75.78 36.38L79.4 37.54C80.9554 37.9272 82.3527 38.7865 83.4 40C84.188 41.025 84.6041 42.2874 84.58 43.58C84.6178 44.5982 84.4192 45.6113 84 46.54C83.5 47.4258 82.8184 48.1959 82 48.8C81.152 49.4491 80.1882 49.931 79.16 50.22C77.9979 50.5623 76.7915 50.7308 75.58 50.72V50.68Z" fill="#232F3E"/>
<path fill-rule="evenodd" clip-rule="evenodd" d="M80.4001 63.14C72.0001 69.36 59.8001 72.66 49.2801 72.66C35.2498 72.7269 21.6994 67.5564 11.2801 58.16C10.5001 57.44 11.2801 56.48 12.1401 57.02C23.7119 63.6365 36.8103 67.118 50.1401 67.12C60.1144 67.053 69.977 65.0139 79.1601 61.12C80.6001 60.58 81.8001 62.12 80.4001 63.14Z" fill="#232F3E"/>
<path fill-rule="evenodd" clip-rule="evenodd" d="M83.9999 59.14C82.9199 57.76 76.8799 58.5 74.1599 58.82C73.3399 58.92 73.2199 58.2 73.9599 57.68C78.7799 54.3 86.6599 55.28 87.5799 56.4C88.4999 57.52 87.3399 65.46 82.8199 69.24C82.1399 69.82 81.4799 69.52 81.7799 68.74C82.7199 66.2 84.9799 60.52 83.9999 59.14Z" fill="#232F3E"/>
</svg>
