<svg width="100" height="100" viewBox="0 0 100 100" fill="none" xmlns="http://www.w3.org/2000/svg">
<path d="M78.8001 78.78H68.8001V74.78H78.8001C88.3601 74.78 93.0001 70.54 93.0001 61.84C93.0001 54.4 88.6201 49.74 79.9801 47.98C79.5479 47.8926 79.1566 47.6648 78.8672 47.3321C78.5779 46.9993 78.4066 46.5802 78.3801 46.14C77.9601 38.92 73.7601 36.34 70.3801 36.34C69.2115 36.3516 68.0615 36.634 67.0205 37.1649C65.9794 37.6959 65.0756 38.4609 64.3801 39.4C64.1625 39.6832 63.8732 39.9029 63.542 40.0364C63.2109 40.1699 62.85 40.2124 62.4969 40.1593C62.1438 40.1062 61.8114 39.9596 61.5341 39.7347C61.2568 39.5097 61.0448 39.2146 60.9201 38.88C59.7023 35.3956 57.7049 32.2352 55.0801 29.64C52.0655 26.6145 48.2116 24.5641 44.018 23.7546C39.8243 22.9451 35.4842 23.4138 31.5601 25.1C27.9939 26.7326 24.9505 29.3224 22.7684 32.5814C20.5863 35.8404 19.3511 39.6409 19.2001 43.56C19.2039 44.3759 19.2573 45.1907 19.3601 46C19.4237 46.4869 19.306 46.9802 19.0294 47.3859C18.7528 47.7916 18.3366 48.0814 17.8601 48.2C13.8601 49.2 7.00009 52.2 7.00009 61.64C7.00009 61.98 7.00009 62.28 7.00009 62.6C7.40009 69.66 13.3601 74.74 21.1801 74.74H31.1801V78.74H21.1801C11.1801 78.74 3.54009 72.08 3.02009 62.9C3.02009 62.42 3.02009 62.04 3.02009 61.64C2.87013 57.8657 3.99647 54.1511 6.21729 51.0956C8.4381 48.0402 11.6238 45.8223 15.2601 44.8C15.2601 44.38 15.2601 43.94 15.2601 43.52C15.365 38.6315 16.9115 33.8828 19.7055 29.87C22.4995 25.8572 26.4166 22.7591 30.965 20.9645C35.5135 19.1699 40.4907 18.7588 45.2719 19.7827C50.0532 20.8067 54.4255 23.2201 57.8401 26.72C60.1874 29.0201 62.0923 31.7318 63.4601 34.72C65.4375 33.1951 67.863 32.3655 70.3601 32.36C75.6601 32.36 81.2201 36.1 82.3601 44.36C91.8801 46.78 97.1201 52.92 97.1201 61.82C97.0001 72.76 90.5401 78.78 78.8001 78.78ZM57.5001 78.78H42.5001V74.78H57.5001V78.78Z" fill="#232F3E"/>
<path d="M63.12 76.9C62.5953 76.8978 62.0925 76.6895 61.72 76.32L50.46 65.08L53.28 62.24L63.12 72L72.96 62.16L75.78 65L64.54 76.24C64.3598 76.4399 64.1412 76.6014 63.8972 76.7148C63.6533 76.8282 63.3889 76.8912 63.12 76.9Z" fill="#232F3E"/>
<path d="M65.1201 44.9H61.1201V73.02H65.1201V44.9Z" fill="#232F3E"/>
<path d="M46.7202 57.58L36.8802 47.74L27.0402 57.58L24.2202 54.74L35.4602 43.5C35.8349 43.1275 36.3418 42.9185 36.8702 42.9185C37.3986 42.9185 37.9055 43.1275 38.2802 43.5L49.5402 54.74L46.7202 57.58Z" fill="#232F3E"/>
<path d="M38.8799 44.9H34.8799V78.66H38.8799V44.9Z" fill="#232F3E"/>
</svg>
