<svg width="100" height="100" viewBox="0 0 100 100" fill="none" xmlns="http://www.w3.org/2000/svg">
<path d="M30.38 68.34L24 46.24H27.42L32 64.98L36.7 46.24H40L33.66 68.34H30.38Z" fill="#232F3E"/>
<path d="M45.72 59.76V68.34H42.72V46.34H49.18C50.2749 46.3064 51.3552 46.5982 52.2843 47.1785C53.2134 47.7587 53.9497 48.6014 54.4 49.6C54.8975 50.6985 55.1435 51.8943 55.12 53.1C55.2042 54.8808 54.6192 56.6287 53.48 58C52.9453 58.6086 52.2823 59.0911 51.5388 59.4127C50.7952 59.7343 49.9896 59.8871 49.18 59.86L45.72 59.76ZM45.72 57.3H48.86C49.314 57.3189 49.7655 57.2246 50.174 57.0256C50.5825 56.8266 50.935 56.5291 51.2 56.16C51.8011 55.2208 52.0818 54.1121 52 53C52.0699 51.8744 51.7678 50.7569 51.14 49.82C50.8704 49.4571 50.5164 49.1655 50.1086 48.9703C49.7009 48.7752 49.2517 48.6824 48.8 48.7H45.72V57.3Z" fill="#232F3E"/>
<path d="M71.4399 67.66C70.0334 68.3228 68.4948 68.6578 66.9399 68.64C61.2466 68.64 58.4 64.88 58.4 57.36C58.1928 54.3694 58.965 51.3927 60.5999 48.88C61.3649 47.9148 62.3518 47.1489 63.4766 46.6474C64.6014 46.1459 65.8308 45.9238 67.0599 46C68.476 46.0173 69.8752 46.3093 71.1799 46.86V49.38C69.9661 48.9756 68.699 48.7532 67.4199 48.72C66.5801 48.6539 65.7373 48.8029 64.971 49.1528C64.2047 49.5027 63.5401 50.0421 63.0399 50.72C61.9608 52.6354 61.4736 54.8277 61.6399 57.02V57.78C61.4917 59.9381 61.9562 62.0943 62.9799 64C63.4693 64.6744 64.1233 65.2124 64.8795 65.5625C65.6358 65.9126 66.469 66.0632 67.3 66C68.7092 65.9171 70.1013 65.6481 71.4399 65.2V67.66Z" fill="#232F3E"/>
<path d="M71.6 75.4H21.2C12.56 75.4 5.50004 69.78 5.04004 61.4C5.04004 61.02 5.04004 60.66 5.04004 60.26C5.04004 50.6 11.58 46.26 17.4 44.88C17.2958 43.9637 17.2423 43.0423 17.24 42.12C17.3936 37.8164 18.7388 33.64 21.1259 30.0558C23.513 26.4717 26.8482 23.6205 30.76 21.82C35.0408 19.9854 39.774 19.4793 44.3458 20.3673C48.9177 21.2552 53.1173 23.4964 56.4 26.8C59.2326 29.6113 61.3872 33.0313 62.7 36.8V36.8C68 30 79.62 32 80.38 44.64C85.88 45.74 95 49.12 95 60.44C95 73.5 85.1601 75.4 78.8 75.4H71.6Z" stroke="#232F3E" stroke-width="2" stroke-linejoin="round"/>
</svg>
