<svg width="100" height="100" viewBox="0 0 100 100" fill="none" xmlns="http://www.w3.org/2000/svg">
<path d="M50.0001 94.3L11.6201 72.16V27.84L50.0001 5.69995L88.3801 27.84V72.16L50.0001 94.3ZM15.6201 69.84L50.0001 89.7L84.3801 69.84V30.16L50.0001 10.3L15.6201 30.16V69.84Z" fill="#232F3E"/>
<path d="M67.2001 76.72L42.1001 51.62L50.6201 43.1L75.7201 68.2L67.2001 76.72ZM47.7601 51.62L67.2001 71.06L70.0001 68.2L50.5601 48.76L47.7601 51.62Z" fill="#232F3E"/>
<path d="M36.7818 35.0284L33.9534 37.8568L46.1015 50.0049L48.9299 47.1765L36.7818 35.0284Z" fill="#232F3E"/>
<path d="M33.5599 39.18H33.3599C32.7183 39.1572 32.0883 39.0014 31.51 38.7225C30.9316 38.4437 30.4174 38.0478 29.9999 37.56L24.1599 30.62L29.4999 25.28L36.4399 31.14C37.1373 31.7467 37.6338 32.551 37.8637 33.4463C38.0936 34.3416 38.0459 35.2857 37.7271 36.1533C37.4082 37.0209 36.8332 37.7711 36.0783 38.3045C35.3234 38.8379 34.4242 39.1293 33.4999 39.14L33.5599 39.18ZM29.5599 30.86L33.0199 34.98C33.0723 35.0405 33.1367 35.0896 33.209 35.124C33.2813 35.1584 33.3599 35.1775 33.4399 35.18C33.514 35.1822 33.5877 35.1692 33.6566 35.1416C33.7254 35.1141 33.7878 35.0727 33.8399 35.02C33.8978 34.9666 33.9437 34.9016 33.9747 34.8292C34.0057 34.7569 34.0211 34.6788 34.0199 34.6C34.0103 34.4394 33.9386 34.2888 33.8199 34.18L29.7999 30.72L29.5599 30.86Z" fill="#232F3E"/>
<path d="M34.96 76.76C33.4644 76.7645 31.9873 76.4294 30.64 75.7799L28 74.5599L33 69.5599L32.04 68.5999L27.04 73.5999L26 71.0599C25.159 69.3503 24.8239 67.4359 25.0343 65.5422C25.2446 63.6485 25.9915 61.8543 27.1871 60.3708C28.3827 58.8873 29.9773 57.7763 31.7831 57.1685C33.5889 56.5606 35.5307 56.4814 37.38 56.9399L40 54.2L42.84 57.04L38.32 61.54L37.12 61.08C36.0282 60.6502 34.8344 60.5499 33.6862 60.7916C32.538 61.0334 31.4859 61.6064 30.66 62.4399C29.6798 63.434 29.0663 64.7316 28.92 66.12L32.1 62.9399L38.72 69.5599L35.54 72.7399C36.9284 72.5937 38.226 71.9802 39.22 71C40.0496 70.1758 40.6203 69.1272 40.8619 67.9831C41.1035 66.8389 41.0056 65.6491 40.58 64.5599L40.12 63.34L44.96 58.5L47.8 61.32L44.74 64.4C45.1214 66.0736 45.07 67.8168 44.5906 69.465C44.1112 71.1132 43.2196 72.612 42 73.82C40.1341 75.6918 37.603 76.7488 34.96 76.76Z" fill="#232F3E"/>
<path d="M60.32 48.8L57.5 46L62 41.56L63.2 42.04C64.2911 42.4631 65.482 42.5578 66.6263 42.3127C67.7705 42.0675 68.8181 41.493 69.64 40.66C70.6269 39.6788 71.242 38.3849 71.38 37L68.22 40.16L61.6 33.54L64.76 30.38C63.3751 30.518 62.0813 31.1331 61.1 32.12C60.267 32.942 59.6926 33.9895 59.4474 35.1338C59.2022 36.278 59.2969 37.469 59.72 38.56L60.2 39.78L55.58 44.38L52.74 41.56L55.6 38.7C55.1492 36.8546 55.2334 34.919 55.8427 33.1196C56.452 31.3203 57.5612 29.7318 59.0405 28.5399C60.5198 27.3481 62.308 26.6023 64.1957 26.3898C66.0835 26.1773 67.9927 26.5069 69.7 27.34L72.24 28.56L67.26 33.54L68.22 34.5L73.22 29.52L74.36 32C75.1671 33.7054 75.4753 35.6044 75.249 37.4775C75.0227 39.3506 74.2711 41.1215 73.081 42.5856C71.8909 44.0496 70.3109 45.1472 68.5235 45.7514C66.7362 46.3556 64.8143 46.4418 62.98 46L60.32 48.8Z" fill="#232F3E"/>
</svg>
