<svg width="100" height="100" viewBox="0 0 100 100" fill="none" xmlns="http://www.w3.org/2000/svg">
<path d="M63.9999 97H34.2399C28.2399 97 24.5799 93.94 24.5799 89V12.76C24.5693 10.1855 25.5804 7.71201 27.3915 5.88222C29.2025 4.05243 31.6655 3.01587 34.2399 3H63.9999C66.5744 3.01587 69.0373 4.05243 70.8484 5.88222C72.6594 7.71201 73.6706 10.1855 73.6599 12.76V20H69.6599V12.76C69.6706 11.2464 69.0809 9.79025 68.02 8.71061C66.9591 7.63096 65.5135 7.01584 63.9999 7H34.2399C32.7263 7.01584 31.2808 7.63096 30.2199 8.71061C29.159 9.79025 28.5692 11.2464 28.5799 12.76V89.02C28.5799 91.66 30.5799 93.02 34.2399 93.02H63.9999C67.7599 93.02 69.6599 91.68 69.6599 89.02V84.32H73.6599V89.02C73.5599 94 69.8599 97 63.9999 97Z" fill="#232F3E"/>
<path d="M58.4399 10.5H47.1799V14.5H58.4399V10.5Z" fill="#232F3E"/>
<path d="M39.68 16C39.0059 16.0079 38.3446 15.8152 37.7803 15.4465C37.2159 15.0778 36.7739 14.5496 36.5104 13.929C36.2469 13.3085 36.1739 12.6237 36.3005 11.9615C36.4272 11.2994 36.7478 10.6898 37.2216 10.2103C37.6955 9.73079 38.3012 9.40298 38.9618 9.26851C39.6224 9.13405 40.3081 9.19901 40.9317 9.45513C41.5553 9.71125 42.0887 10.147 42.4641 10.7069C42.8395 11.2669 43.0399 11.9258 43.04 12.6C43.0426 13.0438 42.9578 13.4839 42.7904 13.895C42.6229 14.3061 42.3762 14.6801 42.0642 14.9959C41.7522 15.3116 41.381 15.5628 40.9719 15.735C40.5629 15.9073 40.1239 15.9973 39.68 16ZM39.68 12C39.5646 12.0116 39.455 12.0564 39.3646 12.1289C39.2741 12.2015 39.2066 12.2987 39.1702 12.4089C39.1339 12.519 39.1302 12.6373 39.1597 12.7495C39.1892 12.8617 39.2506 12.9629 39.3364 13.0409C39.4222 13.1189 39.5288 13.1704 39.6433 13.1891C39.7577 13.2078 39.8752 13.1929 39.9814 13.1463C40.0875 13.0996 40.1779 13.0232 40.2416 12.9262C40.3052 12.8293 40.3394 12.7159 40.34 12.6C40.3375 12.5168 40.3182 12.4349 40.2834 12.3593C40.2486 12.2837 40.1989 12.2159 40.1373 12.1599C40.0757 12.1039 40.0035 12.0609 39.9249 12.0334C39.8464 12.0059 39.7631 11.9946 39.68 12Z" fill="#232F3E"/>
<path d="M73.5601 76.26H69.5601V22H26.5601V18H71.5601C72.0905 18 72.5992 18.2107 72.9743 18.5858C73.3493 18.9609 73.5601 19.4696 73.5601 20V76.26Z" fill="#232F3E"/>
<path d="M71.5601 85.76H26.5601V81.76H69.5601V72.5H73.5601V83.76C73.5601 84.2904 73.3493 84.7991 72.9743 85.1742C72.5992 85.5493 72.0905 85.76 71.5601 85.76Z" fill="#232F3E"/>
</svg>
