<svg width="100" height="100" viewBox="0 0 100 100" fill="none" xmlns="http://www.w3.org/2000/svg">
<path d="M95 22.94H5C4.46957 22.94 3.96086 22.7293 3.58579 22.3542C3.21071 21.9791 3 21.4704 3 20.94V6C3 5.46957 3.21071 4.96086 3.58579 4.58579C3.96086 4.21071 4.46957 4 5 4H95C95.5304 4 96.0391 4.21071 96.4142 4.58579C96.7893 4.96086 97 5.46957 97 6V21C96.9844 21.52 96.7668 22.0134 96.3934 22.3756C96.02 22.7378 95.5202 22.9402 95 22.94ZM7 18.94H93V8H7V18.94Z" fill="#232F3E"/>
<path d="M95 47.32H5C4.46957 47.32 3.96086 47.1093 3.58579 46.7342C3.21071 46.3592 3 45.8505 3 45.32V30.16C3 29.6296 3.21071 29.1209 3.58579 28.7458C3.96086 28.3707 4.46957 28.16 5 28.16H95C95.5304 28.16 96.0391 28.3707 96.4142 28.7458C96.7893 29.1209 97 29.6296 97 30.16V45.32C97 45.8505 96.7893 46.3592 96.4142 46.7342C96.0391 47.1093 95.5304 47.32 95 47.32ZM7 43.32H93V32.16H7V43.32Z" fill="#232F3E"/>
<path d="M95 71.8399H5C4.46957 71.8399 3.96086 71.6292 3.58579 71.2541C3.21071 70.8791 3 70.3704 3 69.8399V54.6799C3 54.1495 3.21071 53.6408 3.58579 53.2657C3.96086 52.8906 4.46957 52.6799 5 52.6799H95C95.5304 52.6799 96.0391 52.8906 96.4142 53.2657C96.7893 53.6408 97 54.1495 97 54.6799V69.8399C97 70.3704 96.7893 70.8791 96.4142 71.2541C96.0391 71.6292 95.5304 71.8399 95 71.8399ZM7 67.8399H93V56.6799H7V67.8399Z" fill="#232F3E"/>
<path d="M95 96H5C4.46957 96 3.96086 95.7893 3.58579 95.4142C3.21071 95.0391 3 94.5304 3 94V79C3 78.4696 3.21071 77.9609 3.58579 77.5858C3.96086 77.2107 4.46957 77 5 77H95C95.5304 77 96.0391 77.2107 96.4142 77.5858C96.7893 77.9609 97 78.4696 97 79V94C97 94.5304 96.7893 95.0391 96.4142 95.4142C96.0391 95.7893 95.5304 96 95 96ZM7 92H93V81H7V92Z" fill="#232F3E"/>
<path d="M89.38 11.4399H46.26V15.4399H89.38V11.4399Z" fill="#232F3E"/>
<path d="M61.2401 35.8199H10.6201V39.82H61.2401V35.8199Z" fill="#232F3E"/>
<path d="M89.38 60.1801H46.26V64.18H89.38V60.1801Z" fill="#232F3E"/>
<path d="M61.2401 84.5601H10.6201V88.5601H61.2401V84.5601Z" fill="#232F3E"/>
</svg>
