<svg width="100" height="100" viewBox="0 0 100 100" fill="none" xmlns="http://www.w3.org/2000/svg">
<path d="M95 96.8801H5.00001C4.46957 96.8801 3.96087 96.6693 3.58579 96.2943C3.21072 95.9192 3.00001 95.4105 3.00001 94.8801V88.8801C2.99398 78.6868 6.41393 68.7872 12.7106 60.7713C19.0073 52.7554 27.8153 47.0882 37.72 44.6801C38.2062 44.5688 38.7161 44.6325 39.16 44.8601C42.4786 46.6718 46.199 47.6213 49.98 47.6213C53.761 47.6213 57.4814 46.6718 60.8 44.8601C61.2349 44.6269 61.7407 44.5628 62.22 44.6801C72.1392 47.0775 80.9633 52.7426 87.272 60.7637C93.5808 68.7848 97.0073 78.6953 97 88.9001V94.9001C96.9947 95.427 96.7817 95.9306 96.4072 96.3014C96.0327 96.6721 95.527 96.8801 95 96.8801ZM7.00001 92.8801H93V88.8801C93.0027 79.7068 89.9601 70.7923 84.3496 63.5348C78.7392 56.2774 70.8782 51.0878 62 48.7801C58.2741 50.646 54.167 51.6248 50 51.6401C45.8304 51.647 41.7183 50.667 38 48.7801C29.1202 51.0917 21.2587 56.2852 15.6484 63.546C10.0381 70.8068 6.99633 79.7243 7.00001 88.9001V92.8801Z" fill="#232F3E"/>
<path d="M50.0001 51.5C45.8762 51.515 41.816 50.4827 38.2001 48.5C34.4735 46.4117 31.3644 43.3763 29.1873 39.7009C27.0101 36.0255 25.842 31.8404 25.8012 27.5688C25.7603 23.2972 26.8481 19.0905 28.9545 15.3741C31.0609 11.6577 34.1113 8.56342 37.7972 6.40412C41.4832 4.24482 45.6739 3.09707 49.9457 3.07693C54.2175 3.05679 58.4188 4.16497 62.1249 6.28942C65.831 8.41387 68.9105 11.4792 71.0519 15.1756C73.1933 18.8719 74.3206 23.0682 74.3201 27.34C74.3235 31.6804 73.1498 35.9404 70.9239 39.6666C68.6981 43.3928 65.5034 46.4456 61.6801 48.5C58.0935 50.4473 54.0811 51.4779 50.0001 51.5ZM50.0001 7.12003C45.4829 7.03191 41.0671 8.46371 37.461 11.1857C33.855 13.9077 31.2679 17.762 30.1147 22.1304C28.9615 26.4988 29.309 31.1279 31.1017 35.2751C32.8943 39.4222 36.028 42.8471 40.0001 45C43.0241 46.6402 46.4098 47.4993 49.85 47.4993C53.2903 47.4993 56.676 46.6402 59.7001 45C63.6476 42.8584 66.767 39.4599 68.5635 35.3438C70.3599 31.2276 70.7304 26.6295 69.6163 22.2788C68.5023 17.9281 65.9673 14.074 62.4136 11.3278C58.86 8.58168 54.4911 7.10077 50.0001 7.12003Z" fill="#232F3E"/>
</svg>
