<svg width="100" height="100" viewBox="0 0 100 100" fill="none" xmlns="http://www.w3.org/2000/svg">
<path d="M65 65.38H35V69.38H65V65.38Z" fill="#232F3E"/>
<path d="M25.62 71.62C21.1471 71.6161 16.7757 70.2861 13.0585 67.7981C9.34128 65.3102 6.44513 61.7761 4.73614 57.6425C3.02715 53.5088 2.58205 48.9613 3.45711 44.5748C4.33216 40.1883 6.48809 36.1597 9.65234 32.9982C12.8166 29.8367 16.8471 27.6844 21.2344 26.8132C25.6217 25.942 30.1688 26.3911 34.3009 28.1038C38.433 29.8164 41.9646 32.7157 44.4493 36.4351C46.9339 40.1545 48.26 44.527 48.26 49C48.2547 55.001 45.8671 60.7545 41.6219 64.996C37.3766 69.2375 31.6211 71.62 25.62 71.62ZM25.62 30.38C21.9382 30.384 18.3402 31.4794 15.2808 33.5278C12.2214 35.5762 9.8379 38.4856 8.43166 41.8883C7.02542 45.291 6.65954 49.0342 7.38025 52.6448C8.10096 56.2554 9.87592 59.5713 12.4808 62.1734C15.0856 64.7754 18.4034 66.5468 22.0148 67.2637C25.6262 67.9805 29.369 67.6106 32.7702 66.2007C36.1714 64.7908 39.0783 62.4043 41.1234 59.3426C43.1685 56.281 44.26 52.6818 44.26 49C44.2494 44.0615 42.2816 39.3285 38.7876 35.8383C35.2936 32.3481 30.5586 30.3853 25.62 30.38Z" fill="#232F3E"/>
<path d="M25.6201 54.96C24.4334 54.96 23.2734 54.6081 22.2867 53.9488C21.3 53.2895 20.531 52.3524 20.0768 51.2561C19.6227 50.1597 19.5039 48.9533 19.7354 47.7894C19.9669 46.6255 20.5384 45.5564 21.3775 44.7173C22.2166 43.8782 23.2857 43.3068 24.4496 43.0753C25.6135 42.8437 26.8199 42.9626 27.9162 43.4167C29.0126 43.8708 29.9496 44.6398 30.6089 45.6265C31.2682 46.6132 31.6201 47.7733 31.6201 48.96C31.6201 50.5513 30.988 52.0774 29.8628 53.2026C28.7375 54.3278 27.2114 54.96 25.6201 54.96ZM25.6201 46.96C25.2246 46.96 24.8379 47.0773 24.509 47.297C24.1801 47.5168 23.9237 47.8291 23.7724 48.1946C23.621 48.56 23.5814 48.9622 23.6585 49.3501C23.7357 49.7381 23.9262 50.0945 24.2059 50.3742C24.4856 50.6539 24.842 50.8444 25.2299 50.9215C25.6179 50.9987 26.02 50.9591 26.3855 50.8077C26.7509 50.6563 27.0633 50.4 27.2831 50.0711C27.5028 49.7422 27.6201 49.3555 27.6201 48.96C27.5994 48.4435 27.3796 47.9551 27.0068 47.5972C26.6339 47.2392 26.137 47.0396 25.6201 47.04V46.96Z" fill="#232F3E"/>
<path d="M19.1201 32.7691L15.6428 34.7461L19.5671 41.6485L23.0444 39.6715L19.1201 32.7691Z" fill="#232F3E"/>
<path d="M19.8341 55.0894L15.8186 61.9392L19.2694 63.9621L23.2849 57.1124L19.8341 55.0894Z" fill="#232F3E"/>
<path d="M42.68 45.8199H34.74V49.8199H42.68V45.8199Z" fill="#232F3E"/>
<path d="M74.38 71.62C69.9062 71.62 65.5329 70.2934 61.813 67.8079C58.0932 65.3223 55.1939 61.7896 53.4819 57.6563C51.7698 53.5231 51.3219 48.9749 52.1947 44.5871C53.0675 40.1992 55.2218 36.1687 58.3853 33.0053C61.5487 29.8418 65.5792 27.6874 69.9671 26.8147C74.3549 25.9419 78.9031 26.3898 83.0363 28.1019C87.1696 29.8139 90.7024 32.7132 93.1879 36.433C95.6734 40.1529 97 44.5262 97 49C96.9947 54.9976 94.6099 60.748 90.3689 64.9889C86.128 69.2298 80.3776 71.6147 74.38 71.62ZM74.38 30.38C70.6973 30.38 67.0974 31.4721 64.0353 33.5181C60.9733 35.564 58.5867 38.4721 57.1774 41.8745C55.7681 45.2768 55.3993 49.0207 56.1178 52.6326C56.8363 56.2445 58.6096 59.5623 61.2137 62.1663C63.8177 64.7704 67.1355 66.5438 70.7474 67.2622C74.3594 67.9807 78.1032 67.612 81.5056 66.2027C84.9079 64.7933 87.816 62.4068 89.862 59.3447C91.908 56.2827 93 52.6827 93 49C92.9947 44.0633 91.0313 39.3303 87.5405 35.8395C84.0497 32.3488 79.3167 30.3853 74.38 30.38Z" fill="#232F3E"/>
<path d="M74.3799 54.96C73.1932 54.96 72.0332 54.6081 71.0465 53.9488C70.0598 53.2895 69.2907 52.3524 68.8366 51.2561C68.3825 50.1597 68.2637 48.9533 68.4952 47.7894C68.7267 46.6255 69.2981 45.5564 70.1372 44.7173C70.9764 43.8782 72.0455 43.3068 73.2094 43.0753C74.3732 42.8437 75.5796 42.9626 76.676 43.4167C77.7724 43.8708 78.7094 44.6398 79.3687 45.6265C80.028 46.6132 80.3799 47.7733 80.3799 48.96C80.3799 50.5513 79.7478 52.0774 78.6225 53.2026C77.4973 54.3278 75.9712 54.96 74.3799 54.96ZM74.3799 46.96C73.9843 46.96 73.5977 47.0773 73.2688 47.297C72.9399 47.5168 72.6835 47.8291 72.5321 48.1946C72.3808 48.56 72.3411 48.9622 72.4183 49.3501C72.4955 49.7381 72.686 50.0945 72.9657 50.3742C73.2454 50.6539 73.6018 50.8444 73.9897 50.9215C74.3777 50.9987 74.7798 50.9591 75.1453 50.8077C75.5107 50.6563 75.8231 50.4 76.0428 50.0711C76.2626 49.7422 76.3799 49.3555 76.3799 48.96C76.3592 48.4435 76.1394 47.9551 75.7666 47.5972C75.3937 47.2392 74.8968 47.0396 74.3799 47.04V46.96Z" fill="#232F3E"/>
<path d="M67.8882 32.7697L64.4109 34.7467L68.3352 41.6491L71.8125 39.6721L67.8882 32.7697Z" fill="#232F3E"/>
<path d="M68.5936 55.0846L64.5781 61.9343L68.0289 63.9573L72.0444 57.1075L68.5936 55.0846Z" fill="#232F3E"/>
<path d="M91.44 45.8199H83.5V49.8199H91.44V45.8199Z" fill="#232F3E"/>
</svg>
