<svg width="100" height="100" viewBox="0 0 100 100" fill="none" xmlns="http://www.w3.org/2000/svg">
<path d="M32.5144 46.2C32.4904 47.0022 32.5965 47.8031 32.8287 48.5714C33.0582 49.2332 33.345 49.8737 33.6858 50.4857C33.8076 50.6629 33.8769 50.8708 33.8858 51.0857C33.8708 51.2506 33.8162 51.4094 33.7267 51.5487C33.6372 51.688 33.5153 51.8036 33.3715 51.8857L31.6858 53C31.4853 53.1432 31.2464 53.2228 31.0001 53.2285C30.8482 53.226 30.6985 53.1917 30.5607 53.1277C30.4229 53.0637 30.3 52.9715 30.2001 52.8571C29.8301 52.4864 29.5041 52.0741 29.2287 51.6285C28.9715 51.1714 28.7144 50.6571 28.4287 50.0571C27.4915 51.228 26.2987 52.169 24.9418 52.8078C23.5849 53.4467 22.0997 53.7665 20.6001 53.7428C19.6313 53.7952 18.6619 53.6527 17.7491 53.3239C16.8363 52.9951 15.9987 52.4866 15.2858 51.8285C14.6226 51.1591 14.107 50.3582 13.7724 49.4773C13.4378 48.5964 13.2915 47.6551 13.343 46.7142C13.3083 45.6787 13.5059 44.6486 13.9212 43.6994C14.3365 42.7501 14.9589 41.9059 15.743 41.2285C17.6049 39.7771 19.9283 39.0466 22.2858 39.1714C23.2418 39.1671 24.1969 39.234 25.143 39.3714C26.143 39.5142 27.143 39.7142 28.2001 39.9428V38C28.3527 36.4712 27.9016 34.9434 26.943 33.7428C25.7077 32.7891 24.1519 32.349 22.6001 32.5142C21.6377 32.5188 20.6791 32.6338 19.743 32.8571C18.7686 33.0883 17.8134 33.394 16.8858 33.7714L15.943 34.1142H15.543C15.143 34.1142 14.9715 33.8285 14.9715 33.2857V31.9714C14.9462 31.6568 15.0054 31.3411 15.143 31.0571C15.3555 30.8128 15.6188 30.6178 15.9144 30.4857C16.9841 29.971 18.1044 29.5689 19.2572 29.2857C20.6104 28.9372 22.0028 28.7644 23.4001 28.7714C25.9189 28.5518 28.4229 29.3318 30.3715 30.9428C31.1718 31.8213 31.7806 32.8566 32.1593 33.983C32.538 35.1093 32.6784 36.3022 32.5715 37.4857L32.5144 46.2ZM21.7144 50.2571C22.6874 50.2585 23.6536 50.0943 24.5715 49.7714C25.5492 49.4377 26.4181 48.8453 27.0858 48.0571C27.5266 47.5804 27.841 47.0008 28.0001 46.3714C28.1847 45.6142 28.2711 44.8364 28.2572 44.0571V42.8571C27.4178 42.6827 26.5687 42.5586 25.7144 42.4857C24.8572 42.4857 24.0287 42.4857 23.2001 42.4857C21.8033 42.3736 20.4106 42.747 19.2572 43.5428C18.8115 43.918 18.4603 44.3928 18.232 44.9289C18.0037 45.4649 17.9047 46.0472 17.943 46.6285C17.8959 47.1462 17.9581 47.668 18.1254 48.1602C18.2928 48.6524 18.5615 49.1039 18.9144 49.4857C19.7088 50.1034 20.7157 50.3808 21.7144 50.2571ZM43.1144 53.1142C42.7523 53.1479 42.3895 53.0572 42.0858 52.8571C41.7958 52.5684 41.597 52.2008 41.5144 51.8L35.2858 31.2285C35.1592 30.8791 35.0823 30.5136 35.0572 30.1428C35.0572 29.7142 35.2572 29.4857 35.6858 29.4857H38.3144C38.6765 29.452 39.0393 29.5427 39.343 29.7428C39.6213 30.036 39.8097 30.4029 39.8858 30.8L44.3715 48.5714L48.5715 30.8285C48.6154 30.4272 48.7971 30.0536 49.0858 29.7714C49.4001 29.5712 49.7718 29.4808 50.143 29.5142H52.2858C52.666 29.4808 53.0468 29.571 53.3715 29.7714C53.6395 30.0681 53.8178 30.4346 53.8858 30.8285L58.0287 48.5714L62.6287 30.7428C62.7048 30.3458 62.8932 29.9789 63.1715 29.6857C63.4752 29.4856 63.838 29.3949 64.2001 29.4285H66.6858C66.7743 29.4196 66.8637 29.4305 66.9475 29.4603C67.0313 29.4902 67.1073 29.5383 67.1702 29.6012C67.2331 29.6641 67.2813 29.7402 67.3111 29.824C67.341 29.9078 67.3519 29.9972 67.343 30.0857C67.3537 30.2283 67.3537 30.3716 67.343 30.5142C67.343 30.5142 67.343 30.8857 67.1715 31.1714L60.7144 51.7428C60.6382 52.1399 60.4498 52.5067 60.1715 52.8C59.8645 52.9922 59.5044 53.0822 59.143 53.0571H56.8572C56.4816 53.0971 56.1045 52.9952 55.8001 52.7714C55.517 52.4852 55.3362 52.1136 55.2858 51.7142L51.143 34.5714L47.0287 51.7142C46.9783 52.1136 46.7975 52.4852 46.5144 52.7714C46.2077 52.9903 45.8325 53.0917 45.4572 53.0571L43.1144 53.1142ZM77.4001 53.8C76.0156 53.8066 74.6351 53.6532 73.2858 53.3428C72.2238 53.1297 71.1955 52.7741 70.2287 52.2857C69.8869 52.1228 69.5992 51.8649 69.4001 51.5428C69.2891 51.3007 69.2307 51.0378 69.2287 50.7714V49.4285C69.2287 48.8857 69.4287 48.6 69.8287 48.6C69.999 48.5727 70.1726 48.5727 70.343 48.6L71.0001 48.8857C71.9159 49.2949 72.8741 49.6015 73.8572 49.8C74.8992 50.0269 75.9623 50.1418 77.0287 50.1428C78.3821 50.227 79.7311 49.9195 80.9144 49.2571C81.344 48.9958 81.6971 48.6257 81.9379 48.1842C82.1787 47.7427 82.2987 47.2455 82.2858 46.7428C82.2994 46.4009 82.243 46.0599 82.1202 45.7406C81.9974 45.4212 81.8107 45.1303 81.5715 44.8857C80.7981 44.2154 79.8782 43.7359 78.8858 43.4857L75.0287 42.2571C73.36 41.8376 71.8687 40.8968 70.7715 39.5714C69.9088 38.4591 69.4368 37.0933 69.4287 35.6857C69.413 34.6872 69.6593 33.7021 70.143 32.8285C70.6209 31.9699 71.2729 31.2206 72.0572 30.6285C72.9161 29.9978 73.885 29.5327 74.9144 29.2571C76.01 28.9415 77.1457 28.7875 78.2858 28.8C78.8756 28.7583 79.4675 28.7583 80.0572 28.8L81.8001 29.0857L83.3144 29.5142L84.4287 29.9714C84.7276 30.1479 84.9974 30.3696 85.2287 30.6285C85.3879 30.8959 85.4672 31.2032 85.4572 31.5142V32.7714C85.4572 33.3428 85.2572 33.6285 84.8572 33.6285C84.4943 33.587 84.144 33.4702 83.8287 33.2857C82.2071 32.5809 80.4538 32.2302 78.6858 32.2571C77.4608 32.1977 76.241 32.4535 75.143 33C74.7353 33.2482 74.4028 33.6027 74.1814 34.0255C73.9599 34.4483 73.8577 34.9235 73.8858 35.4C73.8845 35.7521 73.9548 36.1008 74.0923 36.4249C74.2298 36.7491 74.4317 37.0419 74.6858 37.2857C75.5292 37.9606 76.5014 38.4564 77.543 38.7428L81.3144 39.9428C82.9131 40.367 84.3468 41.2631 85.4287 42.5142C86.2478 43.588 86.6806 44.9068 86.6572 46.2571C86.6742 47.3253 86.4393 48.3824 85.9715 49.3428C85.5126 50.2628 84.8478 51.0645 84.0287 51.6857C83.181 52.3671 82.2114 52.881 81.1715 53.2C79.9244 53.601 78.6243 53.8128 77.3144 53.8285L77.4001 53.8Z" fill="#232F3E"/>
<path fill-rule="evenodd" clip-rule="evenodd" d="M82.3428 66.9428C72.78 73.4412 61.4761 76.8971 49.9142 76.8571C35.296 76.9361 21.1746 71.5565 10.3142 61.7714C9.48566 61.0285 10.3142 59.9999 11.2285 60.5714C23.2824 67.4777 36.9363 71.103 50.8285 71.0857C61.2132 71.0434 71.4869 68.946 81.0571 64.9142C82.5428 64.2856 83.8 65.8857 82.3428 66.9428Z" fill="#232F3E"/>
<path fill-rule="evenodd" clip-rule="evenodd" d="M86 62.8571C84.8572 61.3999 78.5714 62.1713 75.7429 62.5142C74.8857 62.5142 74.7714 61.857 75.5429 61.3142C80.5429 57.7999 88.7715 58.7999 89.8286 59.9999C90.8857 61.1999 89.5715 69.4285 84.8572 73.3713C84.1429 73.9713 83.4572 73.6285 83.7714 72.8571C84.7429 70.1428 87.1143 64.2285 86 62.8571Z" fill="#232F3E"/>
</svg>
