<svg width="100" height="100" viewBox="0 0 100 100" fill="none" xmlns="http://www.w3.org/2000/svg">
<path d="M72.9714 73.6H28.3429C24.8041 73.6465 21.3805 72.3428 18.769 69.9543C16.1575 67.5657 14.5543 64.2717 14.2857 60.7428C14.2857 60.3714 14.2857 60 14.2857 59.6286C14.1416 56.7071 14.9848 53.8221 16.6796 51.4381C18.3743 49.054 20.822 47.3096 23.6286 46.4857C23.6286 46.0857 23.6286 45.6857 23.6286 45.3143C23.7316 41.7089 24.826 38.2016 26.7917 35.1774C28.7574 32.1533 31.5183 29.7292 34.7714 28.1714C38.2915 26.6051 42.2097 26.1652 45.9895 26.912C49.7692 27.6587 53.2258 29.5556 55.8857 32.3428C57.7033 34.1942 59.1656 36.3635 60.2 38.7428C61.2378 37.8823 62.4692 37.287 63.7882 37.0083C65.1072 36.7295 66.4742 36.7757 67.7714 37.1428C69.6762 37.8126 71.3352 39.04 72.5327 40.6656C73.7302 42.2912 74.4107 44.2395 74.4857 46.2571C77.656 46.8009 80.5284 48.4577 82.5866 50.9296C84.6448 53.4015 85.7538 56.5265 85.7143 59.7428C85.7143 72.4 73.1143 73.5714 72.9714 73.6ZM25.3429 48.8286C22.913 49.3557 20.7514 50.7336 19.2479 52.7138C17.7443 54.6941 16.9978 57.1464 17.1429 59.6286C17.1429 59.9428 17.1429 60.2571 17.1429 60.5714C17.3825 63.4129 18.6997 66.0551 20.8245 67.9568C22.9493 69.8585 25.7209 70.8757 28.5714 70.8H73.1143C75.8972 70.5555 78.4875 69.2773 80.3745 67.2173C82.2614 65.1573 83.3081 62.465 83.3081 59.6714C83.3081 56.8778 82.2614 54.1856 80.3745 52.1256C78.4875 50.0656 75.8972 48.7873 73.1143 48.5428C72.9397 48.5151 72.7722 48.4531 72.6216 48.3604C72.471 48.2677 72.3402 48.1463 72.2366 48.0029C72.1331 47.8595 72.0589 47.6971 72.0183 47.525C71.9777 47.3529 71.9715 47.1745 72 47C72.0542 45.4196 71.6196 43.861 70.7555 42.5367C69.8913 41.2124 68.6398 40.1869 67.1714 39.6C66.0344 39.2861 64.828 39.3318 63.7179 39.7308C62.6079 40.1298 61.6485 40.8626 60.9714 41.8286C60.8229 42.0305 60.6219 42.1879 60.3901 42.2836C60.1584 42.3793 59.9049 42.4097 59.6572 42.3714C59.4122 42.3268 59.1832 42.219 58.9927 42.0587C58.8023 41.8983 58.657 41.6909 58.5714 41.4571C57.5744 38.7487 55.983 36.2982 53.9143 34.2857C51.6442 31.8859 48.6846 30.2505 45.4447 29.6056C42.2049 28.9607 38.8447 29.3381 35.8286 30.6857C33.0629 32.0643 30.7213 34.1648 29.0515 36.7651C27.3817 39.3653 26.4458 42.3686 26.3429 45.4571C26.3002 46.1231 26.3002 46.7911 26.3429 47.4571C26.3859 47.7999 26.2979 48.1462 26.0967 48.427C25.8954 48.7077 25.5956 48.9021 25.2572 48.9714L25.3429 48.8286Z" fill="#232F3E"/>
</svg>
