<svg width="100" height="100" viewBox="0 0 100 100" fill="none" xmlns="http://www.w3.org/2000/svg">
<path d="M78.1199 97H21.8799C21.3494 97 20.8407 96.7893 20.4657 96.4142C20.0906 96.0391 19.8799 95.5304 19.8799 95V27.5C19.8799 26.9696 20.0906 26.4609 20.4657 26.0858C20.8407 25.7107 21.3494 25.5 21.8799 25.5H34.8799V5C34.8799 4.46957 35.0906 3.96086 35.4657 3.58579C35.8407 3.21071 36.3495 3 36.8799 3H63.1199C63.3825 3 63.6426 3.05173 63.8853 3.15224C64.1279 3.25275 64.3484 3.40007 64.5341 3.58579C64.7198 3.7715 64.8671 3.99198 64.9676 4.23463C65.0682 4.47728 65.1199 4.73736 65.1199 5V25.5H78.1199C78.6503 25.5 79.159 25.7107 79.5341 26.0858C79.9092 26.4609 80.1199 26.9696 80.1199 27.5V95C80.1199 95.5304 79.9092 96.0391 79.5341 96.4142C79.159 96.7893 78.6503 97 78.1199 97ZM23.8799 93H76.1199V29.5H63.1199C62.5895 29.5 62.0807 29.2893 61.7057 28.9142C61.3306 28.5391 61.1199 28.0304 61.1199 27.5V7H38.8799V27.5C38.8799 28.0304 38.6692 28.5391 38.2941 28.9142C37.919 29.2893 37.4103 29.5 36.8799 29.5H23.8799V93Z" fill="#232F3E"/>
<path d="M48.26 10.62H44.26V27.5H48.26V10.62Z" fill="#232F3E"/>
<path d="M55.76 10.62H51.76V27.5H55.76V10.62Z" fill="#232F3E"/>
<path d="M38.88 33.12H34.88V42.5H38.88V33.12Z" fill="#232F3E"/>
<path d="M38.88 48.12H34.88V57.5H38.88V48.12Z" fill="#232F3E"/>
<path d="M38.88 63.12H34.88V72.5H38.88V63.12Z" fill="#232F3E"/>
<path d="M38.88 78.12H34.88V89.36H38.88V78.12Z" fill="#232F3E"/>
<path d="M31.3799 33.12H27.3799V42.5H31.3799V33.12Z" fill="#232F3E"/>
<path d="M31.3799 48.12H27.3799V57.5H31.3799V48.12Z" fill="#232F3E"/>
<path d="M31.3799 63.12H27.3799V72.5H31.3799V63.12Z" fill="#232F3E"/>
<path d="M31.3799 78.12H27.3799V89.36H31.3799V78.12Z" fill="#232F3E"/>
<path d="M48.26 33.12H44.26V42.5H48.26V33.12Z" fill="#232F3E"/>
<path d="M48.26 48.12H44.26V57.5H48.26V48.12Z" fill="#232F3E"/>
<path d="M48.26 63.12H44.26V72.5H48.26V63.12Z" fill="#232F3E"/>
<path d="M48.26 78.12H44.26V89.36H48.26V78.12Z" fill="#232F3E"/>
<path d="M55.76 33.12H51.76V42.5H55.76V33.12Z" fill="#232F3E"/>
<path d="M55.76 48.12H51.76V57.5H55.76V48.12Z" fill="#232F3E"/>
<path d="M55.76 63.12H51.76V72.5H55.76V63.12Z" fill="#232F3E"/>
<path d="M55.76 78.12H51.76V89.36H55.76V78.12Z" fill="#232F3E"/>
<path d="M65.1201 33.12H61.1201V42.5H65.1201V33.12Z" fill="#232F3E"/>
<path d="M65.1201 48.12H61.1201V57.5H65.1201V48.12Z" fill="#232F3E"/>
<path d="M65.1201 63.12H61.1201V72.5H65.1201V63.12Z" fill="#232F3E"/>
<path d="M65.1201 78.12H61.1201V89.36H65.1201V78.12Z" fill="#232F3E"/>
<path d="M72.6201 33.12H68.6201V42.5H72.6201V33.12Z" fill="#232F3E"/>
<path d="M72.6201 48.12H68.6201V57.5H72.6201V48.12Z" fill="#232F3E"/>
<path d="M72.6201 63.12H68.6201V72.5H72.6201V63.12Z" fill="#232F3E"/>
<path d="M72.6201 78.12H68.6201V89.36H72.6201V78.12Z" fill="#232F3E"/>
</svg>
