<svg width="100" height="100" viewBox="0 0 100 100" fill="none" xmlns="http://www.w3.org/2000/svg">
<path d="M40.9999 97C40.7367 97.0015 40.4757 96.9511 40.2321 96.8516C39.9884 96.752 39.7668 96.6054 39.5799 96.42L3.57988 60.42C3.39242 60.2341 3.24363 60.0129 3.1421 59.7692C3.04056 59.5255 2.98828 59.2641 2.98828 59C2.98828 58.736 3.04056 58.4746 3.1421 58.2309C3.24363 57.9872 3.39242 57.766 3.57988 57.58L57.5799 3.58003C57.7668 3.39467 57.9884 3.24802 58.2321 3.14849C58.4757 3.04896 58.7367 2.99851 58.9999 3.00003H94.9999C95.5303 3.00003 96.039 3.21075 96.4141 3.58582C96.7892 3.96089 96.9999 4.4696 96.9999 5.00003V41C97.0014 41.2632 96.9509 41.5242 96.8514 41.7678C96.7519 42.0115 96.6052 42.2332 96.4199 42.42L42.4199 96.42C42.233 96.6054 42.0114 96.752 41.7677 96.8516C41.524 96.9511 41.2631 97.0015 40.9999 97ZM7.81988 59L40.9999 92.18L92.9999 40.18V7.00003H59.8199L7.81988 59Z" fill="#232F3E"/>
<path d="M78.8199 28.58C76.8567 28.5795 74.9732 27.8031 73.5799 26.42C72.3575 25.2064 71.594 23.6063 71.4198 21.8926C71.2455 20.1789 71.6713 18.4579 72.6244 17.0231C73.5776 15.5883 74.999 14.5287 76.6463 14.0251C78.2935 13.5214 80.0645 13.605 81.657 14.2614C83.2496 14.9179 84.565 16.1066 85.3788 17.6247C86.1927 19.1429 86.4545 20.8963 86.1197 22.586C85.7849 24.2757 84.8742 25.7968 83.543 26.8899C82.2117 27.983 80.5424 28.5803 78.8199 28.58ZM78.8199 17.78C77.9195 17.7843 77.0571 18.1437 76.4199 18.78C76.1022 19.0935 75.8501 19.4672 75.6784 19.8793C75.5067 20.2914 75.4188 20.7335 75.4199 21.18C75.4221 22.0808 75.7818 22.944 76.4199 23.58C77.067 24.1962 77.9263 24.54 78.8199 24.54C79.7135 24.54 80.5729 24.1962 81.2199 23.58C81.6938 23.1045 82.0162 22.4994 82.1467 21.841C82.2772 21.1825 82.2099 20.5002 81.9533 19.8799C81.6966 19.2597 81.2621 18.7293 80.7045 18.3556C80.1469 17.9819 79.4912 17.7816 78.8199 17.78Z" fill="#232F3E"/>
<path d="M39.8 73.86C37.576 73.8665 35.378 73.3809 33.3637 72.4382C31.3494 71.4954 29.5685 70.1188 28.1487 68.4069C26.7289 66.695 25.7053 64.6903 25.1513 62.5363C24.5974 60.3824 24.5267 58.1326 24.9443 55.9481C25.362 53.7636 26.2577 51.6986 27.5672 49.9009C28.8767 48.1033 30.5676 46.6175 32.5188 45.5502C34.47 44.4828 36.6331 43.8602 38.8532 43.7271C41.0732 43.5939 43.2952 43.9535 45.36 44.78L46.66 43.5V39.5C46.66 38.9695 46.8707 38.4608 47.2458 38.0857C47.6209 37.7107 48.1296 37.5 48.66 37.5H52.66L53.1 37.06V33.06C53.1 32.5295 53.3107 32.0208 53.6858 31.6458C54.0609 31.2707 54.5696 31.06 55.1 31.06H59.1L60.92 29.24C61.2625 28.8982 61.7172 28.6921 62.2 28.66L68.2 28.26C68.7242 28.2268 69.2404 28.4013 69.637 28.7455C70.0337 29.0898 70.279 29.5763 70.32 30.1L70.72 35.32C70.744 35.6097 70.7045 35.9011 70.6043 36.1739C70.5041 36.4468 70.3457 36.6946 70.14 36.9L53.8 53.24C54.7076 55.5247 55.0421 57.9969 54.7743 60.4407C54.5065 62.8845 53.6444 65.2255 52.2635 67.2594C50.8826 69.2933 49.0247 70.9583 46.8522 72.1088C44.6796 73.2594 42.2584 73.8606 39.8 73.86ZM39.8 47.7C36.863 47.7106 34.05 48.8847 31.977 50.9652C29.904 53.0457 28.74 55.863 28.74 58.8C28.735 60.2549 29.0209 61.6961 29.5807 63.039C30.1405 64.3819 30.9631 65.5994 32 66.62C33.8635 68.4982 36.3385 69.6462 38.976 69.8556C41.6135 70.0651 44.2387 69.322 46.3753 67.7614C48.5118 66.2007 50.018 63.9259 50.6207 61.3496C51.2234 58.7734 50.8825 56.0664 49.66 53.72C49.4653 53.3467 49.3933 52.9215 49.4544 52.5049C49.5154 52.0883 49.7064 51.7017 50 51.4L66.68 34.72L66.5 32.38L63.2 32.6L61.32 34.48C61.1331 34.6653 60.9115 34.812 60.6678 34.9115C60.4241 35.011 60.1632 35.0615 59.9 35.06H57.08V38C57.0778 38.5246 56.8695 39.0274 56.5 39.4L54.88 41.02C54.5075 41.3895 54.0047 41.5978 53.48 41.6H50.66V44.42C50.6589 44.6846 50.6053 44.9463 50.5023 45.1901C50.3993 45.4338 50.249 45.6547 50.06 45.84L47.2 48.6C46.9006 48.8969 46.515 49.0916 46.0984 49.1562C45.6817 49.2209 45.2553 49.1522 44.88 48.96C43.3122 48.1388 41.5699 47.7067 39.8 47.7ZM37 67.58C35.6106 67.5812 34.2638 67.1001 33.1896 66.219C32.1153 65.3378 31.3802 64.1111 31.1096 62.7483C30.8391 61.3855 31.0499 59.971 31.7061 58.7463C32.3623 57.5216 33.4231 56.5626 34.7077 56.033C35.9922 55.5034 37.4207 55.4359 38.7493 55.8422C40.078 56.2485 41.2245 57.1034 41.9931 58.2608C42.7617 59.4183 43.1048 60.8066 42.9638 62.1888C42.8228 63.5711 42.2065 64.8615 41.22 65.84C40.0975 66.9533 38.581 67.5786 37 67.58ZM37 59.58C36.7392 59.5742 36.48 59.6228 36.239 59.7227C35.998 59.8225 35.7803 59.9714 35.6 60.16C35.2336 60.5338 35.0283 61.0365 35.0283 61.56C35.0283 62.0835 35.2336 62.5861 35.6 62.96C35.7719 63.1892 35.9911 63.3788 36.2427 63.516C36.4943 63.6531 36.7724 63.7346 37.0582 63.7549C37.3441 63.7752 37.6309 63.7339 37.8994 63.6337C38.1678 63.5335 38.4116 63.3768 38.6142 63.1742C38.8168 62.9716 38.9736 62.7278 39.0737 62.4593C39.1739 62.1909 39.2153 61.904 39.195 61.6182C39.1747 61.3324 39.0932 61.0542 38.956 60.8027C38.8189 60.5511 38.6292 60.3319 38.4 60.16C38.018 59.8124 37.5163 59.626 37 59.64V59.58Z" fill="#232F3E"/>
</svg>
