<svg width="100" height="100" viewBox="0 0 100 100" fill="none" xmlns="http://www.w3.org/2000/svg">
<path d="M50 97C40.7043 97 31.6173 94.2435 23.8882 89.0791C16.1591 83.9147 10.135 76.5743 6.57768 67.9861C3.02036 59.398 2.08961 49.9479 3.90311 40.8308C5.71662 31.7137 10.1929 23.3391 16.766 16.766C23.3391 10.1929 31.7137 5.71662 40.8308 3.90311C49.9479 2.08961 59.398 3.02036 67.9861 6.57768C76.5743 10.135 83.9147 16.1591 89.0791 23.8882C94.2435 31.6173 97 40.7043 97 50C96.9894 62.4619 92.0343 74.4104 83.2223 83.2223C74.4104 92.0343 62.4619 96.9894 50 97ZM50 7.00002C41.4954 7.00002 33.1818 9.52193 26.1105 14.2468C19.0392 18.9717 13.5278 25.6874 10.2732 33.5446C7.01863 41.4019 6.16709 50.0477 7.82625 58.3889C9.48542 66.7301 13.5808 74.392 19.5944 80.4056C25.6081 86.4193 33.27 90.5146 41.6111 92.1738C49.9523 93.833 58.5982 92.9814 66.4554 89.7268C74.3126 86.4723 81.0283 80.9609 85.7532 73.8895C90.4781 66.8182 93 58.5046 93 50C92.9894 38.599 88.4557 27.6679 80.3939 19.6061C72.3322 11.5444 61.4011 7.01061 50 7.00002Z" fill="#232F3E"/>
<path d="M50 70.76C45.8941 70.76 41.8803 69.5424 38.4664 67.2613C35.0524 64.9802 32.3915 61.7379 30.8203 57.9445C29.249 54.1511 28.8379 49.977 29.6389 45.9499C30.4399 41.9229 32.4171 38.2238 35.3205 35.3205C38.2238 32.4171 41.9229 30.4399 45.9499 29.6389C49.977 28.8379 54.1511 29.249 57.9445 30.8203C61.7379 32.3915 64.9802 35.0524 67.2613 38.4664C69.5424 41.8803 70.76 45.8941 70.76 50C70.7547 55.5043 68.5658 60.7816 64.6737 64.6737C60.7816 68.5658 55.5043 70.7547 50 70.76ZM50 33.26C46.6843 33.26 43.4432 34.2435 40.6866 36.086C37.93 37.9285 35.7818 40.5472 34.5139 43.6109C33.2459 46.6745 32.9152 50.0454 33.5635 53.2971C34.2118 56.5487 35.81 59.5351 38.156 61.8782C40.5019 64.2213 43.4901 65.816 46.7426 66.4604C49.995 67.1048 53.3655 66.7701 56.4276 65.4985C59.4898 64.2269 62.1059 62.0756 63.9452 59.3168C65.7844 56.558 66.764 53.3157 66.76 50C66.76 47.8 66.3263 45.6216 65.4838 43.5893C64.6413 41.557 63.4065 39.7107 61.8499 38.156C60.2933 36.6012 58.4456 35.3686 56.4123 34.5285C54.379 33.6884 52.2 33.2574 50 33.26Z" fill="#232F3E"/>
<path d="M50.0001 61.38C47.7494 61.38 45.5492 60.7126 43.6777 59.4621C41.8063 58.2117 40.3477 56.4344 39.4864 54.3549C38.625 52.2755 38.3997 49.9874 38.8388 47.7799C39.2779 45.5724 40.3617 43.5446 41.9532 41.9531C43.5448 40.3616 45.5725 39.2778 47.78 38.8387C49.9875 38.3996 52.2756 38.6249 54.3551 39.4863C56.4345 40.3476 58.2118 41.8062 59.4622 43.6776C60.7127 45.549 61.3801 47.7492 61.3801 50C61.3801 53.0182 60.1812 55.9127 58.047 58.0469C55.9128 60.181 53.0183 61.38 50.0001 61.38ZM50.0001 42.62C48.5405 42.62 47.1136 43.0528 45.9 43.8638C44.6864 44.6747 43.7405 45.8273 43.1819 47.1758C42.6233 48.5243 42.4772 50.0082 42.7619 51.4398C43.0467 52.8713 43.7496 54.1863 44.7817 55.2184C45.8138 56.2506 47.1288 56.9534 48.5604 57.2382C49.9919 57.5229 51.4758 57.3768 52.8243 56.8182C54.1728 56.2597 55.3254 55.3137 56.1364 54.1001C56.9473 52.8865 57.3801 51.4596 57.3801 50C57.3748 48.0443 56.5956 46.1703 55.2127 44.7874C53.8299 43.4045 51.9558 42.6253 50.0001 42.62Z" fill="#232F3E"/>
</svg>
