<svg width="100" height="100" viewBox="0 0 100 100" fill="none" xmlns="http://www.w3.org/2000/svg">
<path d="M90.96 69.82H8.95996C7.36866 69.82 5.84254 69.1879 4.71732 68.0626C3.5921 66.9374 2.95996 65.4113 2.95996 63.82V10C2.95996 8.4087 3.5921 6.88258 4.71732 5.75736C5.84254 4.63214 7.36866 4 8.95996 4H90.96C92.5513 4 94.0774 4.63214 95.2026 5.75736C96.3278 6.88258 96.96 8.4087 96.96 10V63.78C96.9652 64.5713 96.8139 65.3558 96.5148 66.0884C96.2156 66.821 95.7745 67.4871 95.2168 68.0485C94.6591 68.6099 93.9959 69.0555 93.2654 69.3595C92.5348 69.6635 91.7513 69.82 90.96 69.82ZM9.03996 8C8.50953 8 8.00082 8.21071 7.62575 8.58579C7.25068 8.96086 7.03996 9.46957 7.03996 10V63.78C7.03996 64.3104 7.25068 64.8191 7.62575 65.1942C8.00082 65.5693 8.50953 65.78 9.03996 65.78H91.04C91.5704 65.78 92.0791 65.5693 92.4542 65.1942C92.8293 64.8191 93.04 64.3104 93.04 63.78V10C93.04 9.46957 92.8293 8.96086 92.4542 8.58579C92.0791 8.21071 91.5704 8 91.04 8H9.03996Z" fill="#232F3E"/>
<path d="M90 96.0001H10C8.15176 95.9845 6.38334 95.2447 5.07452 93.9396C3.76571 92.6346 3.02088 90.8683 3 89.0201V80.3601C3.0052 78.5015 3.7431 76.7199 5.0536 75.4019C6.36409 74.0839 8.14145 73.3359 10 73.3201H90C91.8655 73.3253 93.6531 74.0687 94.9722 75.3879C96.2913 76.707 97.0347 78.4946 97.04 80.3601V89.0201C97.019 90.8751 96.2686 92.6474 94.9512 93.9536C93.6338 95.2598 91.8552 95.9949 90 96.0001ZM10 77.3201C9.20069 77.3306 8.4377 77.6555 7.87621 78.2245C7.31472 78.7935 6.99993 79.5607 7 80.3601V89.0201C7.01551 89.809 7.33718 90.561 7.89701 91.1171C8.45684 91.6732 9.21098 91.9898 10 92.0001H90C90.8063 92.0001 91.5795 91.6798 92.1496 91.1097C92.7197 90.5396 93.04 89.7663 93.04 88.9601V80.3601C93.04 79.9609 92.9614 79.5655 92.8086 79.1967C92.6558 78.8279 92.4319 78.4928 92.1496 78.2105C91.8673 77.9282 91.5322 77.7042 91.1634 77.5515C90.7945 77.3987 90.3992 77.3201 90 77.3201H10Z" fill="#232F3E"/>
<path d="M87.5 62.3199H12.5C11.9696 62.3199 11.4609 62.1092 11.0858 61.7342C10.7107 61.3591 10.5 60.8504 10.5 60.3199V13.4399C10.5 12.9095 10.7107 12.4008 11.0858 12.0257C11.4609 11.6507 11.9696 11.4399 12.5 11.4399H87.5C88.0304 11.4399 88.5391 11.6507 88.9142 12.0257C89.2893 12.4008 89.5 12.9095 89.5 13.4399V60.3199C89.5 60.8504 89.2893 61.3591 88.9142 61.7342C88.5391 62.1092 88.0304 62.3199 87.5 62.3199ZM14.5 58.3199H85.5V15.4399H14.5V58.3199Z" fill="#232F3E"/>
<path d="M87.5 80.8201H65C63.8954 80.8201 63 81.7155 63 82.8201V86.5801C63 87.6846 63.8954 88.5801 65 88.5801H87.5C88.6046 88.5801 89.5 87.6846 89.5 86.5801V82.8201C89.5 81.7155 88.6046 80.8201 87.5 80.8201Z" fill="#232F3E"/>
</svg>
