<svg width="100" height="100" viewBox="0 0 100 100" fill="none" xmlns="http://www.w3.org/2000/svg">
<path d="M50 75.0599L28.3 62.5199V37.4799L50 24.9399L71.7 37.4799V62.5199L50 75.0599ZM32.3 60.2199L50 70.4399L67.7 60.2199V39.7799L50 29.5599L32.3 39.7799V60.2199Z" fill="#232F3E"/>
<path d="M50.0001 94.3L11.6201 72.16V27.84L50.0001 5.69995L88.3801 27.84V72.16L50.0001 94.3ZM15.6201 69.84L50.0001 89.7L84.3801 69.84V30.16L50.0001 10.3L15.6201 30.16V69.84Z" fill="#232F3E"/>
<path d="M85.3643 27.2827L48.9875 48.2764L50.9869 51.7408L87.3637 30.7472L85.3643 27.2827Z" fill="#232F3E"/>
<path d="M14.7051 27.1266L12.7051 30.6066L49.2451 51.6066L51.2451 48.1266L14.7051 27.1266Z" fill="#232F3E"/>
<path d="M52 50H48V92H52V50Z" fill="#232F3E"/>
</svg>
