<svg width="100" height="100" viewBox="0 0 100 100" fill="none" xmlns="http://www.w3.org/2000/svg">
<path d="M78.8001 63.78H68.8001V59.78H78.8001C88.3601 59.78 93.0001 55.54 93.0001 46.84C93.0001 39.4 88.6201 34.74 79.9801 32.98C79.5478 32.8926 79.1566 32.6648 78.8672 32.3321C78.5779 31.9993 78.4066 31.5802 78.3801 31.14C77.9601 23.92 73.7601 21.34 70.3801 21.34C69.2115 21.3516 68.0615 21.634 67.0205 22.1649C65.9794 22.6959 65.0756 23.4609 64.3801 24.4C64.1625 24.6832 63.8732 24.9029 63.542 25.0364C63.2108 25.1699 62.85 25.2124 62.4969 25.1593C62.1438 25.1062 61.8113 24.9596 61.5341 24.7347C61.2568 24.5097 61.0448 24.2146 60.9201 23.88C59.679 20.388 57.6538 17.227 55.0001 14.64C51.9855 11.6145 48.1316 9.56406 43.938 8.75457C39.7443 7.94508 35.4042 8.41382 31.4801 10.1C27.9289 11.7439 24.9019 14.3386 22.7345 17.5968C20.5671 20.855 19.3438 24.6494 19.2001 28.56C19.2029 29.3892 19.2563 30.2174 19.3601 31.04C19.4237 31.5269 19.306 32.0202 19.0294 32.4259C18.7528 32.8317 18.3366 33.1214 17.8601 33.24C13.8601 34.24 7.00007 37.24 7.00007 46.68C7.00007 47.04 7.00007 47.38 7.00007 47.74C7.38007 54.7 13.3401 59.74 21.1601 59.74H31.1601V63.74H21.1601C11.1601 63.74 3.52007 57.08 3.00007 47.9C3.00007 47.48 3.00007 47.08 3.00007 46.64C2.85011 42.8658 3.97645 39.1511 6.19727 36.0956C8.41808 33.0402 11.6038 30.8223 15.2401 29.8C15.2401 29.38 15.2401 28.94 15.2401 28.52C15.345 23.6315 16.8915 18.8828 19.6855 14.87C22.4795 10.8572 26.3965 7.75911 30.945 5.96452C35.4934 4.16992 40.4706 3.75879 45.2519 4.78274C50.0332 5.80669 54.4055 8.22009 57.8201 11.72C60.1646 14.0225 62.0692 16.7336 63.4401 19.72C65.4222 18.2063 67.846 17.3843 70.3401 17.38C75.6401 17.38 81.2001 21.12 82.3401 29.38C91.7801 31.8 97.0001 38 97.0001 46.84C97.0001 57.76 90.5401 63.78 78.8001 63.78ZM57.5001 63.78H42.5001V59.78H57.5001V63.78Z" fill="#232F3E"/>
<path d="M63.12 95.66C62.5953 95.6578 62.0925 95.4495 61.72 95.08L50.46 83.82L53.28 81L63.12 90.82L72.96 81L75.78 83.82L64.54 95.08C64.3531 95.2654 64.1315 95.412 63.8878 95.5115C63.6441 95.6111 63.3832 95.6615 63.12 95.66Z" fill="#232F3E"/>
<path d="M65.1201 59.9H61.1201V91.78H65.1201V59.9Z" fill="#232F3E"/>
<path d="M46.72 42.58L36.88 32.74L27.04 42.58L24.22 39.74L35.46 28.5C35.8347 28.1275 36.3416 27.9185 36.87 27.9185C37.3983 27.9185 37.9052 28.1275 38.28 28.5L49.54 39.74L46.72 42.58Z" fill="#232F3E"/>
<path d="M38.88 29.9H34.88V63.66H38.88V29.9Z" fill="#232F3E"/>
</svg>
