<svg width="100" height="100" viewBox="0 0 100 100" fill="none" xmlns="http://www.w3.org/2000/svg">
<g clip-path="url(#clip0_2385_3864)">
<path d="M100 0H0V100H100V0Z" fill="url(#paint0_linear_2385_3864)"/>
<path d="M46.9602 74.56C46.6065 74.56 46.2674 74.4196 46.0174 74.1695C45.7673 73.9195 45.6268 73.5803 45.6268 73.2267V69.52C45.6424 68.7522 45.4796 67.9913 45.151 67.2972C44.8225 66.603 44.3372 65.9947 43.7335 65.52C43.0802 65.0534 41.1468 63.7067 40.4535 63.2934C33.2535 59.08 28.9468 52.08 28.9468 44.6267C28.9606 39.0713 31.1626 33.7451 35.0759 29.8019C38.9891 25.8587 44.2984 23.6161 49.8535 23.56L51.5735 23.6267H51.7602C56.0228 23.9834 60.0761 25.6285 63.3816 28.3434C66.6872 31.0583 69.0886 34.7146 70.2668 38.8267C70.2668 39.0534 70.3868 39.2267 70.4268 39.4C70.9578 41.3328 71.2225 43.329 71.2135 45.3334C71.2135 58.5734 61.2135 70.84 47.4268 74.5334C47.273 74.5614 47.1162 74.5703 46.9602 74.56ZM49.8535 26.1067C45.0057 26.1627 40.3746 28.1243 36.9614 31.5674C33.5483 35.0105 31.6272 39.6586 31.6135 44.5067C31.6135 51.0667 35.4268 57.2134 41.8002 60.9467C42.7335 61.48 45.2002 63.24 45.3068 63.3067C46.256 64.0366 47.0207 64.9789 47.5394 66.058C48.0581 67.1372 48.3164 68.3229 48.2935 69.52V71.44C60.1335 67.5867 68.5468 56.7734 68.5468 45.28C68.5583 43.4957 68.3204 41.7185 67.8402 40C67.8137 39.8732 67.7781 39.7484 67.7335 39.6267C67.7335 39.6267 67.7335 39.5067 67.7335 39.4934C66.7243 35.8961 64.6416 32.6923 61.7636 30.3099C58.8856 27.9274 55.3493 26.4797 51.6268 26.16H51.4668L49.8535 26.1067ZM40.2802 83.3334C39.9856 83.3325 39.6996 83.234 39.4668 83.0534C39.3079 82.9278 39.1797 82.7677 39.0919 82.5852C39.0041 82.4027 38.9591 82.2026 38.9602 82V70C34.3668 68.0073 30.3976 64.81 27.4725 60.7463C24.5474 56.6826 22.7753 51.9037 22.3436 46.9154C21.912 41.927 22.8369 36.9148 25.0204 32.409C27.204 27.9033 30.565 24.0716 34.7477 21.3195C38.9305 18.5673 43.7795 16.9971 48.7815 16.775C53.7835 16.5529 58.7526 17.6871 63.1628 20.0577C67.5731 22.4282 71.2605 25.9469 73.8348 30.2414C76.4091 34.5359 77.7746 39.4464 77.7868 44.4534C77.7868 61.4 64.6268 77.0934 46.5202 81.7867L40.6135 83.3067C40.5038 83.3286 40.3919 83.3376 40.2802 83.3334ZM50.0002 19.3334C44.2029 19.3264 38.5818 21.326 34.0913 24.9925C29.6007 28.6591 26.5174 33.7667 25.3648 39.4482C24.2121 45.1298 25.0612 51.0351 27.7678 56.1618C30.4745 61.2885 34.8719 65.3205 40.2135 67.5734C40.6193 67.7336 40.9687 68.0102 41.2178 68.3684C41.4669 68.7266 41.6046 69.1505 41.6135 69.5867V80.2534L45.8535 79.16C62.8135 74.7867 75.1868 60.1734 75.1868 44.4934C75.1886 41.1866 74.5381 37.9119 73.2727 34.8568C72.0072 31.8017 70.1516 29.0262 67.8121 26.6892C65.4726 24.3522 62.6952 22.4995 59.6387 21.2373C56.5823 19.9751 53.307 19.3281 50.0002 19.3334ZM60.2802 36.6667H38.9468V39.3334H60.2802V36.6667ZM64.2802 43.3334H38.9468V46H64.2802V43.3334ZM52.2802 50H38.9468V52.6667H52.2802V50Z" fill="white"/>
</g>
<defs>
<linearGradient id="paint0_linear_2385_3864" x1="-20.7067" y1="120.707" x2="120.707" y2="-20.7067" gradientUnits="userSpaceOnUse">
<stop stop-color="#BD0816"/>
<stop offset="1" stop-color="#FF5252"/>
</linearGradient>
<clipPath id="clip0_2385_3864">
<rect width="100" height="100" fill="white"/>
</clipPath>
</defs>
</svg>
