<svg width="100" height="100" viewBox="0 0 100 100" fill="none" xmlns="http://www.w3.org/2000/svg">
<g clip-path="url(#clip0_2385_3861)">
<path d="M100 0H0V100H100V0Z" fill="url(#paint0_linear_2385_3861)"/>
<path d="M82.0001 16.6666H18.0001C17.6465 16.6666 17.3073 16.8071 17.0573 17.0572C16.8072 17.3072 16.6667 17.6463 16.6667 18V81.9999C16.6667 82.3536 16.8072 82.6927 17.0573 82.9428C17.3073 83.1928 17.6465 83.3333 18.0001 83.3333H82.0001C82.3537 83.3333 82.6928 83.1928 82.9429 82.9428C83.1929 82.6927 83.3334 82.3536 83.3334 81.9999V18C83.3334 17.6463 83.1929 17.3072 82.9429 17.0572C82.6928 16.8071 82.3537 16.6666 82.0001 16.6666ZM78.7734 19.3333L50.0001 48.12L21.2267 19.3333H78.7734ZM80.6667 80.6666H19.3334V21.2266L49.0534 50.9466C49.1774 51.0716 49.3248 51.1708 49.4873 51.2385C49.6498 51.3062 49.8241 51.341 50.0001 51.341C50.1761 51.341 50.3504 51.3062 50.5128 51.2385C50.6753 51.1708 50.8228 51.0716 50.9467 50.9466L80.6667 21.2266V80.6666Z" fill="white"/>
</g>
<defs>
<linearGradient id="paint0_linear_2385_3861" x1="-20.7067" y1="120.707" x2="120.707" y2="-20.7067" gradientUnits="userSpaceOnUse">
<stop stop-color="#BD0816"/>
<stop offset="1" stop-color="#FF5252"/>
</linearGradient>
<clipPath id="clip0_2385_3861">
<rect width="100" height="100" fill="white"/>
</clipPath>
</defs>
</svg>
