<svg width="100" height="100" viewBox="0 0 100 100" fill="none" xmlns="http://www.w3.org/2000/svg">
<g clip-path="url(#clip0_2385_3862)">
<path d="M100 0H0V100H100V0Z" fill="url(#paint0_linear_2385_3862)"/>
<path d="M82.9467 49.0533L50.9467 17.0533C50.8222 16.9297 50.6744 16.832 50.512 16.7656C50.3495 16.6993 50.1756 16.6656 50.0001 16.6666H18.0001C17.6465 16.6666 17.3073 16.8071 17.0573 17.0572C16.8072 17.3072 16.6667 17.6464 16.6667 18V82C16.6667 82.3536 16.8072 82.6927 17.0573 82.9428C17.3073 83.1928 17.6465 83.3333 18.0001 83.3333H82.0001C82.3537 83.3333 82.6928 83.1928 82.9429 82.9428C83.1929 82.6927 83.3334 82.3536 83.3334 82V50C83.3344 49.8245 83.3008 49.6506 83.2344 49.4881C83.1681 49.3257 83.0703 49.1779 82.9467 49.0533ZM51.3334 21.2133L78.7868 48.6667H51.3334V21.2133ZM80.6667 80.6667H51.3334V78H48.6667V80.6667H19.3334V51.3333H22.0001V48.6667H19.3334V19.3333H48.6667V48.6667H44.6667V51.3333H48.6667V55.3333H51.3334V51.3333H80.6667V80.6667ZM24.6667 48.6667V51.3333H28.6667V48.6667H24.6667ZM31.3334 48.6667V51.3333H35.3334V48.6667H31.3334ZM38.0001 48.6667V51.3333H42.0001V48.6667H38.0001ZM48.6667 58V62H51.3334V58H48.6667ZM48.6667 64.6667V68.6667H51.3334V64.6667H48.6667ZM48.6667 71.3333V75.3333H51.3334V71.3333H48.6667Z" fill="white"/>
</g>
<defs>
<linearGradient id="paint0_linear_2385_3862" x1="-20.7067" y1="120.707" x2="120.707" y2="-20.7067" gradientUnits="userSpaceOnUse">
<stop stop-color="#BD0816"/>
<stop offset="1" stop-color="#FF5252"/>
</linearGradient>
<clipPath id="clip0_2385_3862">
<rect width="100" height="100" fill="white"/>
</clipPath>
</defs>
</svg>
