<svg width="100" height="100" viewBox="0 0 100 100" fill="none" xmlns="http://www.w3.org/2000/svg">
<g clip-path="url(#clip0_2385_3863)">
<path d="M100 0H0V100H100V0Z" fill="url(#paint0_linear_2385_3863)"/>
<path d="M82.3733 48.72L63.8933 43.3867L79.4266 34.6667C79.6049 34.5665 79.7578 34.4266 79.8734 34.2578C79.989 34.089 80.0643 33.8959 80.0933 33.6934C80.1233 33.4884 80.1053 33.2793 80.0405 33.0826C79.9757 32.8859 79.8659 32.707 79.7199 32.56L73.5733 26.4134C73.3666 26.2078 73.0982 26.0756 72.8092 26.0371C72.5202 25.9985 72.2266 26.0558 71.9733 26.2L54.9733 35.6534L59.9733 18.32C60.0254 18.1207 60.0333 17.9124 59.9964 17.7098C59.9596 17.5071 59.8789 17.3149 59.7599 17.1467C59.6357 16.9811 59.4747 16.8467 59.2896 16.7541C59.1044 16.6616 58.9003 16.6134 58.6933 16.6134H49.9999C49.7024 16.6015 49.4095 16.6896 49.1678 16.8636C48.9262 17.0376 48.7497 17.2874 48.6666 17.5734L43.3333 36.0534L34.6666 20.5734C34.5662 20.3934 34.4253 20.2392 34.2552 20.1228C34.0851 20.0064 33.8904 19.9311 33.6862 19.9026C33.4821 19.8742 33.2742 19.8935 33.0787 19.959C32.8833 20.0245 32.7057 20.1343 32.5599 20.28L26.4133 26.4267C26.2159 26.633 26.0899 26.8972 26.0539 27.1804C26.0179 27.4636 26.0738 27.7509 26.2133 28L35.6533 45.0134L18.3733 40C18.1702 39.9406 17.9558 39.9304 17.748 39.9702C17.5401 40.01 17.3448 40.0987 17.178 40.229C17.0112 40.3593 16.8779 40.5274 16.789 40.7194C16.7 40.9115 16.6581 41.1219 16.6666 41.3334V50C16.6548 50.2976 16.7429 50.5905 16.9168 50.8321C17.0908 51.0738 17.3407 51.2502 17.6266 51.3334L36.1066 56.6667L20.5733 65.3334C20.3949 65.4336 20.242 65.5735 20.1264 65.7423C20.0108 65.9111 19.9356 66.1042 19.9066 66.3067C19.8765 66.5116 19.8946 66.7207 19.9594 66.9175C20.0242 67.1142 20.134 67.2931 20.2799 67.44L26.4266 73.5867C26.5512 73.7103 26.6989 73.808 26.8614 73.8744C27.0238 73.9407 27.1978 73.9744 27.3733 73.9734C27.6023 73.9727 27.8273 73.913 28.0266 73.8L45.0266 64.36L39.9999 81.6267C39.9478 81.826 39.9399 82.0343 39.9768 82.237C40.0136 82.4396 40.0944 82.6318 40.2133 82.8C40.3375 82.9656 40.4985 83.1 40.6837 83.1926C40.8688 83.2852 41.0729 83.3334 41.2799 83.3334H49.9999C50.2975 83.3452 50.5904 83.2571 50.832 83.0831C51.0737 82.9091 51.2501 82.6593 51.3333 82.3734L56.6666 63.8934L65.3333 79.4267C65.4335 79.605 65.5734 79.7579 65.7422 79.8735C65.911 79.9891 66.1041 80.0644 66.3066 80.0934H66.4933C66.6687 80.0944 66.8427 80.0607 67.0051 79.9944C67.1676 79.928 67.3154 79.8303 67.4399 79.7067L73.5866 73.56C73.781 73.3548 73.9052 73.0931 73.9411 72.8126C73.9771 72.5322 73.923 72.2477 73.7866 72L64.3466 54.9734L81.6799 59.9734C81.804 59.9863 81.9292 59.9863 82.0533 59.9734C82.4069 59.9734 82.746 59.8329 82.9961 59.5828C83.2461 59.3328 83.3866 58.9936 83.3866 58.64V50C83.3834 49.7045 83.2822 49.4185 83.0987 49.1868C82.9153 48.9551 82.6601 48.7909 82.3733 48.72ZM72.3999 29.0267L76.5866 33.2134L60.5866 42.1734L56.3733 37.96L72.3999 29.0267ZM51.0666 19.3334H56.9866L51.9733 36.6667H45.9599L51.0666 19.3334ZM29.0266 27.6L33.2133 23.4134L42.1733 39.48L37.9599 43.6934L29.0266 27.6ZM19.3333 49V43.08L36.6666 48.0934V54.04L19.3333 49ZM27.5999 70.9734L23.4133 66.7867L39.4799 57.8267L43.6933 62.04L27.5999 70.9734ZM48.9999 80.6667H43.0799L48.0933 63.3334H54.0399L48.9999 80.6667ZM55.2266 59.3334C55.0575 59.5058 54.9384 59.7209 54.8821 59.9557C54.8257 60.1906 54.8342 60.4363 54.9066 60.6667H47.0933C46.8206 60.6619 46.5537 60.7461 46.3333 60.9067L40.6533 55.2267C40.4822 55.0553 40.2678 54.9337 40.0329 54.875C39.798 54.8163 39.5515 54.8226 39.3199 54.8934V47.0934C39.3248 46.8207 39.2405 46.5538 39.0799 46.3334L44.7599 40.6534C44.9313 40.4823 45.0529 40.2678 45.1116 40.0329C45.1704 39.798 45.164 39.5516 45.0933 39.32H52.8933C53.166 39.3248 53.4328 39.2406 53.6533 39.08L59.3333 44.76C59.5816 45.0063 59.9168 45.1452 60.2666 45.1467C60.3947 45.1671 60.5252 45.1671 60.6533 45.1467V52.9467C60.6484 53.2194 60.7327 53.4862 60.8933 53.7067L55.2266 59.3334ZM70.9733 72.4L66.7866 76.5867L57.8266 60.5867L62.0399 56.3734L70.9733 72.4ZM80.6666 56.92L63.3333 51.9067V45.96L80.6666 51V56.92Z" fill="white"/>
</g>
<defs>
<linearGradient id="paint0_linear_2385_3863" x1="-20.7147" y1="120.711" x2="120.707" y2="-20.7107" gradientUnits="userSpaceOnUse">
<stop stop-color="#BD0816"/>
<stop offset="1" stop-color="#FF5252"/>
</linearGradient>
<clipPath id="clip0_2385_3863">
<rect width="100" height="100" fill="white"/>
</clipPath>
</defs>
</svg>
