<svg width="100" height="100" viewBox="0 0 100 100" fill="none" xmlns="http://www.w3.org/2000/svg">
<g clip-path="url(#clip0_2385_3860)">
<path d="M100 0H0V100H100V0Z" fill="url(#paint0_linear_2385_3860)"/>
<path d="M74.9852 67.62C74.9096 67.4358 74.7806 67.2784 74.6149 67.1679C74.4493 67.0575 74.2544 66.999 74.0552 67H70.0552V46.53C70.0553 46.0639 69.963 45.6024 69.7837 45.1722C69.6044 44.7419 69.3417 44.3514 69.0107 44.0232C68.6798 43.6951 68.2871 43.4357 67.8553 43.26C67.4236 43.0844 66.9613 42.996 66.4952 43H64.0552V39C64.0552 38.7348 63.9499 38.4804 63.7623 38.2929C63.5748 38.1054 63.3205 38 63.0552 38H60.0552V34C60.0552 33.7348 59.9499 33.4804 59.7623 33.2929C59.5748 33.1054 59.3205 33 59.0552 33H54.0552V30C54.0552 29.7348 53.9499 29.4804 53.7624 29.2929C53.5748 29.1054 53.3205 29 53.0552 29H51.0552V25H49.0552V29H47.0552C46.79 29 46.5357 29.1054 46.3481 29.2929C46.1606 29.4804 46.0552 29.7348 46.0552 30V33H41.0552C40.79 33 40.5357 33.1054 40.3481 33.2929C40.1606 33.4804 40.0552 33.7348 40.0552 34V38H37.0552C36.79 38 36.5357 38.1054 36.3481 38.2929C36.1606 38.4804 36.0552 38.7348 36.0552 39V43H33.6152C33.1495 42.9974 32.6879 43.0867 32.2567 43.2628C31.8256 43.4389 31.4334 43.6983 31.1027 44.0262C30.772 44.3541 30.5092 44.7441 30.3295 45.1737C30.1497 45.6034 30.0565 46.0643 30.0552 46.53V67H25.9952C25.7978 67.001 25.6051 67.0604 25.4414 67.1707C25.2777 67.2811 25.1503 67.4374 25.0752 67.62C24.9999 67.8031 24.9806 68.0044 25.0198 68.1984C25.0589 68.3924 25.1548 68.5705 25.2952 68.71L30.3552 73.71C30.5415 73.8947 30.7929 73.9989 31.0552 74H69.0552C69.3176 73.9989 69.569 73.8947 69.7552 73.71L74.8152 68.71C74.9474 68.565 75.0339 68.3844 75.0641 68.1906C75.0944 67.9967 75.0669 67.7983 74.9852 67.62ZM64.0552 45H66.4752C66.8843 45.0047 67.2759 45.1659 67.5698 45.4505C67.8637 45.735 68.0374 46.1213 68.0552 46.53V67H64.0552V45ZM54.0552 35H58.0552V39C58.0552 39.2652 58.1606 39.5196 58.3481 39.7071C58.5357 39.8946 58.79 40 59.0552 40H62.0552V67H54.0552V35ZM48.0552 31H52.0552V67H48.0552V31ZM38.0552 40H41.0552C41.3205 40 41.5748 39.8946 41.7624 39.7071C41.9499 39.5196 42.0552 39.2652 42.0552 39V35H46.0552V67H38.0552V40ZM32.0552 46.53C32.0729 46.1247 32.2438 45.7413 32.5334 45.4572C32.823 45.1732 33.2097 45.0098 33.6152 45H36.0552V67H32.0552V46.53ZM68.5952 72H31.5152L28.5152 69H71.6252L68.5952 72Z" fill="white"/>
</g>
<defs>
<linearGradient id="paint0_linear_2385_3860" x1="0" y1="100" x2="100" y2="0" gradientUnits="userSpaceOnUse">
<stop stop-color="#BD0816"/>
<stop offset="1" stop-color="#FF5252"/>
</linearGradient>
<clipPath id="clip0_2385_3860">
<rect width="100" height="100" fill="white"/>
</clipPath>
</defs>
</svg>
