<svg width="100" height="100" viewBox="0 0 100 100" fill="none" xmlns="http://www.w3.org/2000/svg">
<path d="M89.7002 37.6201C88.118 37.6201 86.5712 37.1509 85.2556 36.2719C83.94 35.3928 82.9147 34.1434 82.3092 32.6816C81.7037 31.2198 81.5452 29.6112 81.8539 28.0594C82.1626 26.5075 82.9245 25.0821 84.0433 23.9633C85.1622 22.8444 86.5876 22.0825 88.1395 21.7738C89.6913 21.4652 91.2999 21.6236 92.7617 22.2291C94.2235 22.8346 95.4729 23.86 96.352 25.1756C97.231 26.4912 97.7002 28.0379 97.7002 29.6201C97.7002 31.7419 96.8574 33.7767 95.3571 35.277C93.8568 36.7773 91.8219 37.6201 89.7002 37.6201ZM89.7002 25.7801C88.9091 25.7801 88.1357 26.0147 87.4779 26.4542C86.8201 26.8938 86.3074 27.5185 86.0047 28.2494C85.7019 28.9803 85.6227 29.7846 85.7771 30.5605C85.9314 31.3364 86.3124 32.0491 86.8718 32.6085C87.4312 33.168 88.1439 33.5489 88.9198 33.7033C89.6958 33.8576 90.5 33.7784 91.2309 33.4756C91.9618 33.1729 92.5866 32.6602 93.0261 32.0024C93.4656 31.3446 93.7002 30.5712 93.7002 29.7801C93.7002 28.7193 93.2788 27.7018 92.5286 26.9517C91.7785 26.2015 90.7611 25.7801 89.7002 25.7801Z" fill="#D6242D"/>
<path d="M89.7002 58.3398C88.118 58.3398 86.5712 57.8707 85.2556 56.9916C83.94 56.1126 82.9147 54.8631 82.3092 53.4013C81.7037 51.9395 81.5452 50.331 81.8539 48.7791C82.1626 47.2273 82.9245 45.8018 84.0433 44.683C85.1622 43.5642 86.5876 42.8022 88.1395 42.4936C89.6913 42.1849 91.2999 42.3433 92.7617 42.9488C94.2235 43.5543 95.4729 44.5797 96.352 45.8953C97.231 47.2109 97.7002 48.7576 97.7002 50.3398C97.7002 52.4616 96.8574 54.4964 95.3571 55.9967C93.8568 57.497 91.8219 58.3398 89.7002 58.3398ZM89.7002 46.4998C88.9091 46.4998 88.1357 46.7344 87.4779 47.174C86.8201 47.6135 86.3074 48.2382 86.0047 48.9691C85.7019 49.7 85.6227 50.5043 85.7771 51.2802C85.9314 52.0561 86.3124 52.7689 86.8718 53.3283C87.4312 53.8877 88.1439 54.2686 88.9198 54.423C89.6958 54.5773 90.5 54.4981 91.2309 54.1954C91.9618 53.8926 92.5866 53.3799 93.0261 52.7221C93.4656 52.0643 93.7002 51.291 93.7002 50.4998C93.7002 49.439 93.2788 48.4216 92.5286 47.6714C91.7785 46.9213 90.7611 46.4998 89.7002 46.4998Z" fill="#D6242D"/>
<path d="M49.7402 37.6201C48.158 37.6201 46.6113 37.1509 45.2957 36.2719C43.9801 35.3928 42.9547 34.1434 42.3492 32.6816C41.7437 31.2198 41.5853 29.6112 41.894 28.0594C42.2026 26.5075 42.9646 25.0821 44.0834 23.9633C45.2022 22.8444 46.6277 22.0825 48.1795 21.7738C49.7314 21.4652 51.3399 21.6236 52.8017 22.2291C54.2635 22.8346 55.5129 23.86 56.392 25.1756C57.271 26.4912 57.7402 28.0379 57.7402 29.6201C57.7402 31.7419 56.8974 33.7767 55.3971 35.277C53.8968 36.7773 51.862 37.6201 49.7402 37.6201ZM49.7402 25.7801C48.9491 25.7801 48.1758 26.0147 47.518 26.4542C46.8602 26.8938 46.3475 27.5185 46.0447 28.2494C45.742 28.9803 45.6628 29.7846 45.8171 30.5605C45.9714 31.3364 46.3524 32.0491 46.9118 32.6085C47.4712 33.168 48.184 33.5489 48.9599 33.7033C49.7358 33.8576 50.5401 33.7784 51.271 33.4756C52.0019 33.1729 52.6266 32.6602 53.0661 32.0024C53.5056 31.3446 53.7402 30.5712 53.7402 29.7801C53.7402 28.7193 53.3188 27.7018 52.5687 26.9517C51.8185 26.2015 50.8011 25.7801 49.7402 25.7801Z" fill="#D6242D"/>
<path d="M29.02 18.3799C27.4378 18.3799 25.8911 17.9107 24.5755 17.0316C23.2599 16.1526 22.2345 14.9032 21.629 13.4414C21.0235 11.9795 20.8651 10.371 21.1737 8.81916C21.4824 7.26732 22.2443 5.84185 23.3632 4.72303C24.482 3.60421 25.9075 2.84229 27.4593 2.5336C29.0111 2.22492 30.6197 2.38335 32.0815 2.98885C33.5433 3.59435 34.7927 4.61973 35.6718 5.93532C36.5508 7.25092 37.02 8.79764 37.02 10.3799C37.02 12.5016 36.1772 14.5364 34.6769 16.0367C33.1766 17.537 31.1418 18.3799 29.02 18.3799ZM29.02 6.53989C28.2289 6.53989 27.4555 6.77448 26.7977 7.21401C26.1399 7.65353 25.6273 8.27825 25.3245 9.00915C25.0218 9.74006 24.9425 10.5443 25.0969 11.3202C25.2512 12.0962 25.6322 12.8089 26.1916 13.3683C26.751 13.9277 27.4637 14.3087 28.2397 14.463C29.0156 14.6174 29.8199 14.5382 30.5508 14.2354C31.2817 13.9327 31.9064 13.42 32.3459 12.7622C32.7854 12.1044 33.02 11.331 33.02 10.5399C33.02 9.47902 32.5986 8.4616 31.8485 7.71146C31.0983 6.96131 30.0809 6.53989 29.02 6.53989Z" fill="#D6242D"/>
<path d="M29.02 98.2998C27.4378 98.2998 25.8911 97.8306 24.5755 96.9516C23.2599 96.0725 22.2345 94.8231 21.629 93.3613C21.0235 91.8995 20.8651 90.2909 21.1737 88.7391C21.4824 87.1872 22.2443 85.7618 23.3632 84.643C24.482 83.5241 25.9075 82.7622 27.4593 82.4535C29.0111 82.1448 30.6197 82.3033 32.0815 82.9088C33.5433 83.5143 34.7927 84.5397 35.6718 85.8552C36.5508 87.1708 37.02 88.7176 37.02 90.2998C37.02 92.4215 36.1772 94.4564 34.6769 95.9567C33.1766 97.457 31.1418 98.2998 29.02 98.2998ZM29.02 86.4598C28.2289 86.4598 27.4555 86.6944 26.7977 87.1339C26.1399 87.5735 25.6273 88.1982 25.3245 88.9291C25.0218 89.66 24.9425 90.4643 25.0969 91.2402C25.2512 92.0161 25.6322 92.7288 26.1916 93.2882C26.751 93.8477 27.4637 94.2286 28.2397 94.383C29.0156 94.5373 29.8199 94.4581 30.5508 94.1553C31.2817 93.8526 31.9064 93.3399 32.3459 92.6821C32.7854 92.0243 33.02 91.2509 33.02 90.4598C33.02 89.3989 32.5986 88.3815 31.8485 87.6314C31.0983 86.8812 30.0809 86.4598 29.02 86.4598Z" fill="#D6242D"/>
<path d="M9.79981 58.3398C8.21756 58.3398 6.67084 57.8707 5.35525 56.9916C4.03965 56.1126 3.01427 54.8631 2.40877 53.4013C1.80327 51.9395 1.64484 50.331 1.95353 48.7791C2.26221 47.2273 3.02413 45.8018 4.14295 44.683C5.26177 43.5642 6.68724 42.8022 8.23909 42.4936C9.79093 42.1849 11.3995 42.3433 12.8613 42.9488C14.3231 43.5543 15.5725 44.5797 16.4516 45.8953C17.3306 47.2109 17.7998 48.7576 17.7998 50.3398C17.7998 52.4616 16.957 54.4964 15.4567 55.9967C13.9564 57.497 11.9215 58.3398 9.79981 58.3398ZM9.79981 46.4998C9.00868 46.4998 8.23532 46.7344 7.57753 47.174C6.91973 47.6135 6.40704 48.2382 6.10429 48.9691C5.80154 49.7 5.72233 50.5043 5.87667 51.2802C6.03101 52.0561 6.41197 52.7689 6.97138 53.3283C7.53079 53.8877 8.24352 54.2686 9.01945 54.423C9.79537 54.5773 10.5996 54.4981 11.3305 54.1954C12.0614 53.8926 12.6862 53.3799 13.1257 52.7221C13.5652 52.0643 13.7998 51.291 13.7998 50.4998C13.7998 49.439 13.3784 48.4216 12.6282 47.6714C11.8781 46.9213 10.8607 46.4998 9.79981 46.4998Z" fill="#D6242D"/>
<path d="M9.79981 37.6201C8.21756 37.6201 6.67084 37.1509 5.35525 36.2719C4.03965 35.3928 3.01427 34.1434 2.40877 32.6816C1.80327 31.2198 1.64484 29.6112 1.95353 28.0594C2.26221 26.5075 3.02413 25.0821 4.14295 23.9633C5.26177 22.8444 6.68724 22.0825 8.23909 21.7738C9.79093 21.4652 11.3995 21.6236 12.8613 22.2291C14.3231 22.8346 15.5725 23.86 16.4516 25.1756C17.3306 26.4912 17.7998 28.0379 17.7998 29.6201C17.7998 31.7419 16.957 33.7767 15.4567 35.277C13.9564 36.7773 11.9215 37.6201 9.79981 37.6201ZM9.79981 25.7801C9.00868 25.7801 8.23532 26.0147 7.57753 26.4542C6.91973 26.8938 6.40704 27.5185 6.10429 28.2494C5.80154 28.9803 5.72233 29.7846 5.87667 30.5605C6.03101 31.3364 6.41197 32.0491 6.97138 32.6085C7.53079 33.168 8.24352 33.5489 9.01945 33.7033C9.79537 33.8576 10.5996 33.7784 11.3305 33.4756C12.0614 33.1729 12.6862 32.6602 13.1257 32.0024C13.5652 31.3446 13.7998 30.5712 13.7998 29.7801C13.7998 28.7193 13.3784 27.7018 12.6282 26.9517C11.8781 26.2015 10.8607 25.7801 9.79981 25.7801Z" fill="#D6242D"/>
<path d="M89.7002 14C89.0119 14 88.3391 13.7959 87.7668 13.4136C87.1946 13.0312 86.7485 12.4877 86.4851 11.8518C86.2217 11.2159 86.1528 10.5162 86.2871 9.84113C86.4214 9.16607 86.7528 8.546 87.2395 8.05931C87.7262 7.57262 88.3462 7.24118 89.0213 7.10691C89.6964 6.97263 90.3961 7.04155 91.032 7.30494C91.6678 7.56833 92.2113 8.01437 92.5937 8.58666C92.9761 9.15894 93.1802 9.83176 93.1802 10.52C93.175 11.4414 92.8066 12.3235 92.1551 12.975C91.5037 13.6265 90.6215 13.9948 89.7002 14ZM89.7002 10C89.5623 10 89.43 10.0548 89.3325 10.1523C89.235 10.2499 89.1802 10.3821 89.1802 10.52C89.1802 11.08 90.2202 11.1 90.2202 10.52C90.2202 10.3821 90.1654 10.2499 90.0679 10.1523C89.9704 10.0548 89.8381 10 89.7002 10Z" fill="#D6242D"/>
<path d="M70.46 93.8599C69.7744 93.8481 69.1076 93.6339 68.5433 93.2444C67.9789 92.8549 67.5423 92.3074 67.288 91.6706C67.0338 91.0337 66.9734 90.336 67.1144 89.6649C67.2554 88.9939 67.5914 88.3794 68.0804 87.8987C68.5694 87.418 69.1895 87.0925 69.8629 86.963C70.5363 86.8335 71.2329 86.9058 71.8653 87.1709C72.4977 87.436 73.0377 87.882 73.4175 88.4529C73.7973 89.0238 73.9999 89.6942 74 90.3799C73.9974 90.8412 73.9036 91.2975 73.7241 91.7224C73.5445 92.1474 73.2827 92.5326 72.9537 92.856C72.6247 93.1795 72.2351 93.4346 71.8071 93.6069C71.3791 93.7792 70.9213 93.8652 70.46 93.8599ZM70.46 89.8599C70.3221 89.8599 70.1899 89.9147 70.0923 90.0122C69.9948 90.1097 69.94 90.242 69.94 90.3799C69.94 90.9399 70.98 90.9399 70.98 90.3799C70.98 90.3116 70.9666 90.244 70.9405 90.1809C70.9143 90.1178 70.876 90.0605 70.8277 90.0122C70.7795 89.9639 70.7221 89.9256 70.659 89.8995C70.5959 89.8733 70.5283 89.8599 70.46 89.8599Z" fill="#D6242D"/>
<path d="M89.7002 74.6202C89.0119 74.6202 88.3391 74.4161 87.7668 74.0337C87.1946 73.6513 86.7485 73.1078 86.4851 72.4719C86.2217 71.836 86.1528 71.1363 86.2871 70.4612C86.4214 69.7862 86.7528 69.1661 87.2395 68.6794C87.7262 68.1927 88.3462 67.8613 89.0213 67.727C89.6964 67.5927 90.3961 67.6617 91.032 67.9251C91.6678 68.1884 92.2113 68.6345 92.5937 69.2068C92.9761 69.7791 93.1802 70.4519 93.1802 71.1402C93.175 72.0615 92.8066 72.9436 92.1551 73.5951C91.5037 74.2466 90.6215 74.6149 89.7002 74.6202ZM89.7002 70.6202C89.5623 70.6202 89.43 70.6749 89.3325 70.7725C89.235 70.87 89.1802 71.0022 89.1802 71.1402C89.1802 71.7202 90.2202 71.7202 90.2202 71.1402C90.2202 71.0022 90.1654 70.87 90.0679 70.7725C89.9704 70.6749 89.8381 70.6202 89.7002 70.6202Z" fill="#D6242D"/>
<path d="M70.46 33.1802C69.7744 33.1684 69.1076 32.9543 68.5433 32.5648C67.9789 32.1753 67.5423 31.6277 67.288 30.9909C67.0338 30.354 66.9734 29.6563 67.1144 28.9852C67.2554 28.3142 67.5914 27.6997 68.0804 27.219C68.5694 26.7383 69.1895 26.4128 69.8629 26.2833C70.5363 26.1538 71.2329 26.2262 71.8653 26.4912C72.4977 26.7563 73.0377 27.2023 73.4175 27.7732C73.7973 28.3441 73.9999 29.0145 74 29.7002C73.9974 30.1615 73.9036 30.6178 73.7241 31.0427C73.5445 31.4677 73.2827 31.8529 72.9537 32.1763C72.6247 32.4998 72.2351 32.7549 71.8071 32.9272C71.3791 33.0995 70.9213 33.1855 70.46 33.1802ZM70.46 29.1802C70.3221 29.1802 70.1899 29.235 70.0923 29.3325C69.9948 29.43 69.94 29.5623 69.94 29.7002C69.94 30.2802 70.98 30.2802 70.98 29.7002C70.98 29.6319 70.9666 29.5643 70.9405 29.5012C70.9143 29.4381 70.876 29.3808 70.8277 29.3325C70.7795 29.2842 70.7221 29.2459 70.659 29.2198C70.5959 29.1936 70.5283 29.1802 70.46 29.1802Z" fill="#D6242D"/>
<path d="M49.7398 14C49.0515 14 48.3787 13.7959 47.8064 13.4136C47.2341 13.0312 46.7881 12.4877 46.5247 11.8518C46.2613 11.2159 46.1924 10.5162 46.3266 9.84113C46.4609 9.16607 46.7924 8.546 47.279 8.05931C47.7657 7.57262 48.3858 7.24118 49.0609 7.10691C49.7359 6.97263 50.4356 7.04155 51.0715 7.30494C51.7074 7.56833 52.2509 8.01437 52.6333 8.58666C53.0157 9.15894 53.2198 9.83176 53.2198 10.52C53.2198 11.443 52.8531 12.3281 52.2005 12.9808C51.5479 13.6334 50.6627 14 49.7398 14ZM49.7398 10C49.6019 10 49.4696 10.0548 49.3721 10.1523C49.2746 10.2499 49.2198 10.3821 49.2198 10.52C49.2198 11.1 50.2598 11.08 50.2798 10.52C50.2746 10.3803 50.2154 10.2481 50.1147 10.1511C50.014 10.0541 49.8796 9.99994 49.7398 10Z" fill="#D6242D"/>
<path d="M9.79983 74.6202C9.11155 74.6202 8.43872 74.4161 7.86644 74.0337C7.29416 73.6513 6.84812 73.1078 6.58473 72.4719C6.32133 71.836 6.25242 71.1363 6.38669 70.4612C6.52097 69.7862 6.85241 69.1661 7.33909 68.6794C7.82578 68.1927 8.44586 67.8613 9.12091 67.727C9.79597 67.5927 10.4957 67.6617 11.1316 67.9251C11.7675 68.1884 12.311 68.6345 12.6933 69.2068C13.0757 69.7791 13.2798 70.4519 13.2798 71.1402C13.2798 72.0631 12.9132 72.9483 12.2606 73.6009C11.6079 74.2535 10.7228 74.6202 9.79983 74.6202ZM9.79983 70.6202C9.66191 70.6202 9.52965 70.6749 9.43213 70.7725C9.33461 70.87 9.27983 71.0022 9.27983 71.1402C9.27983 71.7202 10.3198 71.7202 10.3198 71.1402C10.3198 71.0022 10.265 70.87 10.1675 70.7725C10.07 70.6749 9.93774 70.6202 9.79983 70.6202Z" fill="#D6242D"/>
<path d="M29.0201 54C28.3326 53.996 27.6618 53.7886 27.0922 53.4038C26.5225 53.019 26.0796 52.4742 25.8193 51.8379C25.5589 51.2017 25.4929 50.5026 25.6294 49.8289C25.7659 49.1552 26.0989 48.537 26.5864 48.0523C27.0739 47.5676 27.694 47.2381 28.3685 47.1055C29.043 46.9728 29.7417 47.0429 30.3764 47.3068C31.0111 47.5708 31.5534 48.0169 31.9349 48.5887C32.3164 49.1605 32.5201 49.8326 32.5201 50.52C32.5201 50.9787 32.4294 51.4328 32.2533 51.8564C32.0771 52.2799 31.819 52.6644 31.4937 52.9878C31.1685 53.3112 30.7825 53.5671 30.3579 53.7409C29.9334 53.9146 29.4787 54.0026 29.0201 54ZM29.0201 50C28.8856 50.0052 28.7585 50.0622 28.6652 50.1592C28.572 50.2561 28.52 50.3855 28.5201 50.52C28.5201 51.1 29.5401 51.1 29.5601 50.52C29.5549 50.3803 29.4957 50.248 29.395 50.151C29.2943 50.054 29.1599 49.9999 29.0201 50Z" fill="#D6242D"/>
<path d="M48.2798 54C47.5907 54.0039 46.9159 53.8032 46.341 53.4232C45.7661 53.0433 45.3169 52.5012 45.0505 51.8656C44.784 51.2301 44.7122 50.5298 44.8442 49.8534C44.9762 49.177 45.3061 48.5551 45.792 48.0664C46.2779 47.5777 46.8979 47.2443 47.5735 47.1084C48.2491 46.9725 48.9498 47.0402 49.5869 47.303C50.2239 47.5658 50.7686 48.0118 51.1519 48.5845C51.5352 49.1572 51.7398 49.8309 51.7398 50.52C51.7346 51.4379 51.369 52.317 50.7218 52.9679C50.0746 53.6189 49.1976 53.9895 48.2798 54ZM48.2798 50C48.14 49.9999 48.0056 50.054 47.9048 50.151C47.8041 50.248 47.745 50.3803 47.7398 50.52C47.7398 51.1 48.7798 51.1 48.7798 50.52C48.7799 50.3855 48.7279 50.2561 48.6346 50.1592C48.5414 50.0622 48.4142 50.0052 48.2798 50Z" fill="#D6242D"/>
<path d="M48.2798 71.8398C47.5907 71.8438 46.9159 71.6431 46.341 71.2631C45.7661 70.8831 45.3169 70.341 45.0505 69.7055C44.784 69.07 44.7122 68.3696 44.8442 67.6933C44.9762 67.0169 45.3061 66.3949 45.792 65.9063C46.2779 65.4176 46.8979 65.0841 47.5735 64.9482C48.2491 64.8123 48.9498 64.8801 49.5869 65.1429C50.2239 65.4057 50.7686 65.8517 51.1519 66.4244C51.5352 66.9971 51.7398 67.6707 51.7398 68.3598C51.7346 69.2777 51.369 70.1569 50.7218 70.8078C50.0746 71.4587 49.1976 71.8293 48.2798 71.8398ZM48.2798 67.8398C48.2098 67.8371 48.1401 67.8486 48.0746 67.8735C48.0092 67.8984 47.9495 67.9363 47.8991 67.9849C47.8487 68.0334 47.8086 68.0917 47.7812 68.1561C47.7538 68.2205 47.7397 68.2898 47.7398 68.3598C47.7398 68.9198 48.7798 68.9198 48.7798 68.3598C48.7825 68.2925 48.7715 68.2253 48.7476 68.1623C48.7237 68.0993 48.6873 68.0418 48.6406 67.9933C48.5939 67.9447 48.5379 67.9061 48.4759 67.8797C48.4139 67.8533 48.3472 67.8398 48.2798 67.8398Z" fill="#D6242D"/>
<path d="M9.79983 93.8604C9.11155 93.8604 8.43872 93.6563 7.86644 93.2739C7.29416 92.8915 6.84812 92.348 6.58473 91.7121C6.32133 91.0762 6.25242 90.3765 6.38669 89.7015C6.52097 89.0264 6.85241 88.4063 7.33909 87.9197C7.82578 87.433 8.44586 87.1015 9.12091 86.9673C9.79597 86.833 10.4957 86.9019 11.1316 87.1653C11.7675 87.4287 12.311 87.8747 12.6933 88.447C13.0757 89.0193 13.2798 89.6921 13.2798 90.3804C13.2798 91.3033 12.9132 92.1885 12.2606 92.8411C11.6079 93.4938 10.7228 93.8604 9.79983 93.8604ZM9.79983 89.8604C9.66191 89.8604 9.52965 89.9152 9.43213 90.0127C9.33461 90.1102 9.27983 90.2425 9.27983 90.3804C9.27983 90.9604 10.3198 90.9604 10.3198 90.3804C10.3198 90.2425 10.265 90.1102 10.1675 90.0127C10.07 89.9152 9.93774 89.8604 9.79983 89.8604Z" fill="#D6242D"/>
<path d="M9.7998 14C9.11409 13.9999 8.4437 13.7973 7.87279 13.4175C7.30188 13.0377 6.8559 12.4977 6.59083 11.8653C6.32577 11.2329 6.25344 10.5363 6.38292 9.86289C6.51241 9.18953 6.83794 8.56942 7.31864 8.08043C7.79934 7.59144 8.41379 7.25536 9.08485 7.11438C9.7559 6.97341 10.4536 7.03382 11.0905 7.28804C11.7273 7.54225 12.2749 7.97894 12.6644 8.54328C13.0539 9.10761 13.268 9.77444 13.2798 10.46C13.2878 10.9221 13.2036 11.381 13.0323 11.8102C12.861 12.2394 12.6059 12.6301 12.282 12.9597C11.958 13.2892 11.5717 13.5509 11.1455 13.7295C10.7194 13.9081 10.2619 14.0001 9.7998 14ZM9.7998 10C9.66188 10 9.52962 10.0548 9.4321 10.1523C9.33458 10.2499 9.2798 10.3821 9.2798 10.52C9.2798 11.08 10.3198 11.1 10.3198 10.52C10.3198 10.3821 10.265 10.2499 10.1675 10.1523C10.07 10.0548 9.93771 10 9.7998 10Z" fill="#D6242D"/>
<path d="M70.46 56.8605C69.1863 56.8605 67.9412 56.4828 66.8821 55.7751C65.8231 55.0675 64.9977 54.0617 64.5102 52.885C64.0228 51.7082 63.8953 50.4133 64.1438 49.1641C64.3923 47.9149 65.0056 46.7674 65.9063 45.8667C66.8069 44.9661 67.9544 44.3527 69.2036 44.1042C70.4529 43.8557 71.7477 43.9833 72.9245 44.4707C74.1013 44.9581 75.1071 45.7835 75.8147 46.8426C76.5223 47.9017 76.9 49.1468 76.9 50.4205C76.8947 52.1268 76.2146 53.7618 75.008 54.9684C73.8014 56.175 72.1664 56.8552 70.46 56.8605ZM70.46 47.9805C69.9774 47.9805 69.5057 48.1236 69.1044 48.3917C68.7032 48.6598 68.3904 49.0409 68.2058 49.4867C68.0211 49.9326 67.9728 50.4232 68.0669 50.8965C68.1611 51.3698 68.3934 51.8046 68.7347 52.1458C69.0759 52.4871 69.5107 52.7194 69.984 52.8136C70.4573 52.9077 70.9479 52.8594 71.3938 52.6747C71.8396 52.4901 72.2207 52.1773 72.4888 51.7761C72.7569 51.3748 72.9 50.9031 72.9 50.4205C72.8947 49.7768 72.6353 49.1613 72.1783 48.708C71.7213 48.2548 71.1037 48.0005 70.46 48.0005V47.9805Z" fill="#D6242D"/>
<path d="M70.46 77.5802C69.1863 77.5802 67.9412 77.2025 66.8821 76.4949C65.8231 75.7872 64.9977 74.7814 64.5102 73.6047C64.0228 72.4279 63.8953 71.1331 64.1438 69.8838C64.3923 68.6346 65.0056 67.4871 65.9063 66.5864C66.8069 65.6858 67.9544 65.0724 69.2036 64.8239C70.4529 64.5755 71.7477 64.703 72.9245 65.1904C74.1013 65.6778 75.1071 66.5033 75.8147 67.5623C76.5223 68.6214 76.9 69.8665 76.9 71.1402C76.8947 72.8466 76.2146 74.4815 75.008 75.6881C73.8014 76.8947 72.1664 77.5749 70.46 77.5802ZM70.46 68.7002C69.9774 68.7002 69.5057 68.8433 69.1044 69.1114C68.7032 69.3795 68.3904 69.7606 68.2058 70.2065C68.0211 70.6523 67.9728 71.1429 68.0669 71.6162C68.1611 72.0895 68.3934 72.5243 68.7347 72.8655C69.0759 73.2068 69.5107 73.4392 69.984 73.5333C70.4573 73.6275 70.9479 73.5791 71.3938 73.3945C71.8396 73.2098 72.2207 72.897 72.4888 72.4958C72.7569 72.0945 72.9 71.6228 72.9 71.1402C72.9 70.4931 72.643 69.8724 72.1854 69.4149C71.7278 68.9573 71.1071 68.7002 70.46 68.7002Z" fill="#D6242D"/>
<path d="M89.6998 96.8204C88.4261 96.8204 87.181 96.4427 86.1219 95.7351C85.0628 95.0275 84.2374 94.0217 83.75 92.8449C83.2626 91.6682 83.135 90.3733 83.3835 89.1241C83.632 87.8748 84.2454 86.7273 85.146 85.8267C86.0467 84.926 87.1941 84.3127 88.4434 84.0642C89.6926 83.8157 90.9875 83.9432 92.1642 84.4306C93.341 84.9181 94.3468 85.7435 95.0544 86.8026C95.7621 87.8616 96.1398 89.1067 96.1398 90.3804C96.1345 92.0868 95.4543 93.7218 94.2477 94.9284C93.0411 96.135 91.4061 96.8152 89.6998 96.8204ZM89.6998 87.9404C89.2172 87.9404 88.7454 88.0835 88.3442 88.3516C87.9429 88.6198 87.6302 89.0008 87.4455 89.4467C87.2608 89.8925 87.2125 90.3831 87.3067 90.8565C87.4008 91.3298 87.6332 91.7645 87.9744 92.1058C88.3157 92.447 88.7504 92.6794 89.2237 92.7736C89.6971 92.8677 90.1877 92.8194 90.6335 92.6347C91.0794 92.45 91.4604 92.1373 91.7285 91.736C91.9967 91.3348 92.1398 90.863 92.1398 90.3804C92.1241 89.7438 91.8601 89.1384 91.4042 88.6937C90.9483 88.2491 90.3366 88.0002 89.6998 88.0004V87.9404Z" fill="#D6242D"/>
<path d="M70.46 16.8995C69.1863 16.8995 67.9412 16.5218 66.8821 15.8142C65.8231 15.1066 64.9977 14.1008 64.5102 12.924C64.0228 11.7473 63.8953 10.4524 64.1438 9.20315C64.3923 7.95391 65.0056 6.80642 65.9063 5.90577C66.8069 5.00512 67.9544 4.39177 69.2036 4.14328C70.4529 3.89479 71.7477 4.02232 72.9245 4.50975C74.1013 4.99718 75.1071 5.82261 75.8147 6.88166C76.5223 7.94071 76.9 9.18582 76.9 10.4595C76.9 11.3052 76.7334 12.1427 76.4098 12.924C76.0862 13.7054 75.6118 14.4153 75.0138 15.0133C74.4158 15.6113 73.7058 16.0857 72.9245 16.4093C72.1432 16.733 71.3057 16.8995 70.46 16.8995ZM70.46 8.01953C69.9774 8.01953 69.5057 8.16264 69.1044 8.43075C68.7032 8.69886 68.3904 9.07994 68.2058 9.52579C68.0211 9.97164 67.9728 10.4622 68.0669 10.9356C68.1611 11.4089 68.3934 11.8436 68.7347 12.1849C69.0759 12.5261 69.5107 12.7585 69.984 12.8527C70.4573 12.9468 70.9479 12.8985 71.3938 12.7138C71.8396 12.5291 72.2207 12.2164 72.4888 11.8151C72.7569 11.4139 72.9 10.9421 72.9 10.4595C72.9027 10.1374 72.8415 9.81799 72.7201 9.51964C72.5986 9.2213 72.4193 8.94995 72.1925 8.72125C71.9656 8.49255 71.6958 8.31103 71.3984 8.18716C71.1011 8.06329 70.7821 7.99952 70.46 7.99953V8.01953Z" fill="#D6242D"/>
<path d="M29.0201 36.1397C27.7472 36.1358 26.5041 35.7547 25.4477 35.0447C24.3913 34.3347 23.569 33.3275 23.0846 32.1504C22.6002 30.9733 22.4755 29.6791 22.7263 28.4311C22.977 27.1832 23.592 26.0376 24.4934 25.1389C25.3948 24.2403 26.5424 23.6289 27.7911 23.3821C29.0397 23.1352 30.3336 23.2639 31.5092 23.7519C32.6848 24.2399 33.6894 25.0653 34.3961 26.124C35.1029 27.1826 35.4801 28.4269 35.4801 29.6997C35.4801 30.5471 35.3129 31.3862 34.988 32.1688C34.6631 32.9515 34.1869 33.6623 33.5868 34.2606C32.9867 34.8589 32.2744 35.3328 31.4907 35.6553C30.7071 35.9777 29.8675 36.1424 29.0201 36.1397ZM29.0201 27.2597C28.5384 27.2637 28.0686 27.4101 27.67 27.6806C27.2714 27.9511 26.9618 28.3336 26.7801 28.7798C26.5985 29.226 26.5531 29.7159 26.6494 30.1879C26.7458 30.6599 26.9798 31.0928 27.3218 31.432C27.6638 31.7713 28.0986 32.0017 28.5714 32.0942C29.0441 32.1868 29.5337 32.1373 29.9784 31.952C30.4231 31.7668 30.803 31.454 31.0702 31.0532C31.3375 30.6524 31.4801 30.1815 31.4801 29.6997C31.4801 29.3776 31.4163 29.0587 31.2925 28.7613C31.1686 28.464 30.9871 28.1941 30.7584 27.9673C30.5297 27.7405 30.2583 27.5611 29.96 27.4397C29.6616 27.3183 29.3422 27.2571 29.0201 27.2597Z" fill="#D6242D"/>
<path d="M29.0201 77.5802C27.7472 77.5762 26.5041 77.1952 25.4477 76.4851C24.3913 75.7751 23.569 74.7679 23.0846 73.5908C22.6002 72.4137 22.4755 71.1195 22.7263 69.8716C22.977 68.6237 23.592 67.478 24.4934 66.5794C25.3948 65.6807 26.5424 65.0694 27.7911 64.8225C29.0397 64.5756 30.3336 64.7043 31.5092 65.1923C32.6848 65.6803 33.6894 66.5058 34.3961 67.5644C35.1029 68.623 35.4801 69.8673 35.4801 71.1402C35.4801 71.9876 35.3129 72.8266 34.988 73.6093C34.6631 74.3919 34.1869 75.1027 33.5868 75.701C32.9867 76.2993 32.2744 76.7732 31.4907 77.0957C30.7071 77.4182 29.8675 77.5828 29.0201 77.5802ZM29.0201 68.7002C28.5384 68.7041 28.0686 68.8506 27.67 69.1211C27.2714 69.3916 26.9618 69.774 26.7801 70.2202C26.5985 70.6664 26.5531 71.1563 26.6494 71.6283C26.7458 72.1003 26.9798 72.5332 27.3218 72.8725C27.6638 73.2117 28.0986 73.4421 28.5714 73.5346C29.0441 73.6272 29.5337 73.5777 29.9784 73.3925C30.4231 73.2072 30.803 72.8945 31.0702 72.4937C31.3375 72.0928 31.4801 71.6219 31.4801 71.1402C31.4801 70.8181 31.4163 70.4991 31.2925 70.2018C31.1686 69.9044 30.9871 69.6346 30.7584 69.4077C30.5297 69.1809 30.2583 69.0016 29.96 68.8801C29.6616 68.7587 29.3422 68.6975 29.0201 68.7002Z" fill="#D6242D"/>
<path d="M49.7398 96.8204C48.4661 96.8204 47.221 96.4427 46.1619 95.7351C45.1029 95.0275 44.2774 94.0217 43.79 92.8449C43.3026 91.6682 43.1751 90.3733 43.4236 89.1241C43.672 87.8748 44.2854 86.7273 45.186 85.8267C46.0867 84.926 47.2342 84.3127 48.4834 84.0642C49.7327 83.8157 51.0275 83.9432 52.2043 84.4306C53.381 84.9181 54.3868 85.7435 55.0945 86.8026C55.8021 87.8616 56.1798 89.1067 56.1798 90.3804C56.1798 92.0884 55.5013 93.7265 54.2936 94.9342C53.0858 96.1419 51.4478 96.8204 49.7398 96.8204ZM49.7398 87.9404C49.2572 87.9404 48.7855 88.0835 48.3842 88.3516C47.983 88.6198 47.6702 89.0008 47.4855 89.4467C47.3009 89.8925 47.2525 90.3831 47.3467 90.8565C47.4408 91.3298 47.6732 91.7645 48.0145 92.1058C48.3557 92.447 48.7905 92.6794 49.2638 92.7736C49.7371 92.8677 50.2277 92.8194 50.6736 92.6347C51.1194 92.45 51.5005 92.1373 51.7686 91.736C52.0367 91.3348 52.1798 90.863 52.1798 90.3804C52.1641 89.7438 51.9002 89.1384 51.4443 88.6937C50.9884 88.2491 50.3767 88.0002 49.7398 88.0004V87.9404Z" fill="#D6242D"/>
</svg>
