<svg width="100" height="100" viewBox="0 0 100 100" fill="none" xmlns="http://www.w3.org/2000/svg">
<path d="M48.2199 48.9604L45.3999 46.1404L50.5799 40.9604L45.3999 35.7804L48.2199 32.9404L54.8199 39.5404C55.0053 39.7273 55.1519 39.9489 55.2514 40.1926C55.351 40.4363 55.4014 40.6972 55.3999 40.9604C55.3977 41.4851 55.1894 41.9879 54.8199 42.3604L48.2199 48.9604Z" fill="#D6242D"/>
<path d="M65.8399 46.2197H54.4399V50.2197H65.8399V46.2197Z" fill="#D6242D"/>
<path d="M24.3001 20.36C22.9772 20.3639 21.6829 19.975 20.5814 19.2425C19.4798 18.51 18.6205 17.467 18.1124 16.2456C17.6043 15.0241 17.4704 13.6794 17.7275 12.3817C17.9846 11.084 18.6212 9.89195 19.5566 8.95653C20.492 8.02111 21.6841 7.3845 22.9818 7.12739C24.2794 6.87027 25.6242 7.00425 26.8456 7.51232C28.0671 8.02039 29.1101 8.87968 29.8426 9.98126C30.5751 11.0828 30.964 12.3771 30.9601 13.7C30.9548 15.4647 30.2514 17.1556 29.0036 18.4035C27.7557 19.6513 26.0648 20.3547 24.3001 20.36ZM24.3001 11.02C23.7692 11.016 23.2491 11.1698 22.8057 11.4619C22.3624 11.7539 22.0158 12.1711 21.8099 12.6604C21.6039 13.1498 21.548 13.6893 21.6492 14.2104C21.7503 14.7316 22.0039 15.211 22.3779 15.5878C22.7519 15.9646 23.2294 16.2219 23.7498 16.3269C24.2702 16.432 24.8101 16.3801 25.301 16.1778C25.7919 15.9756 26.2116 15.6321 26.507 15.191C26.8024 14.7498 26.9601 14.2309 26.9601 13.7C26.9601 12.9926 26.6805 12.314 26.1822 11.812C25.6839 11.3099 25.0074 11.0253 24.3001 11.02Z" fill="#D6242D"/>
<path d="M24.3001 83.4C22.9781 83.404 21.6846 83.0156 20.5835 82.284C19.4823 81.5524 18.623 80.5105 18.1143 79.2902C17.6057 78.07 17.4705 76.7262 17.726 75.4291C17.9815 74.132 18.6161 72.9399 19.5496 72.0037C20.483 71.0674 21.6732 70.4292 22.9695 70.1699C24.2659 69.9105 25.61 70.0416 26.8318 70.5466C28.0536 71.0516 29.098 71.9078 29.8329 73.0067C30.5678 74.1057 30.9601 75.398 30.9601 76.72C30.9549 78.4866 30.2521 80.1796 29.0048 81.4306C27.7576 82.6817 26.0667 83.3895 24.3001 83.4ZM24.3001 74.06C23.7684 74.0561 23.2475 74.2104 22.8037 74.5033C22.3599 74.7963 22.0133 75.2146 21.808 75.7052C21.6027 76.1957 21.5479 76.7362 21.6507 77.2579C21.7535 77.7796 22.0091 78.259 22.3851 78.635C22.7611 79.011 23.2405 79.2666 23.7622 79.3694C24.2839 79.4722 24.8244 79.4174 25.315 79.2121C25.8055 79.0068 26.2238 78.6602 26.5168 78.2164C26.8097 77.7726 26.9641 77.2518 26.9601 76.72C26.9654 76.3664 26.9006 76.0152 26.7696 75.6868C26.6385 75.3583 26.4437 75.059 26.1965 74.8061C25.9492 74.5533 25.6543 74.3519 25.3289 74.2135C25.0034 74.0752 24.6537 74.0026 24.3001 74V74.06Z" fill="#D6242D"/>
<path d="M9.11993 51.8805C7.7979 51.8844 6.50443 51.496 5.40328 50.7644C4.30213 50.0328 3.44283 48.9909 2.93417 47.7707C2.42551 46.5504 2.29036 45.2067 2.54585 43.9096C2.80134 42.6125 3.43596 41.4203 4.36938 40.4841C5.30279 39.5479 6.49301 38.9097 7.78935 38.6503C9.08568 38.391 10.4298 38.5221 11.6516 39.0271C12.8734 39.5321 13.9178 40.3883 14.6527 41.4872C15.3876 42.5861 15.7799 43.8784 15.7799 45.2005C15.7747 46.9671 15.072 48.6601 13.8247 49.9111C12.5774 51.1621 10.8865 51.8699 9.11993 51.8805ZM9.11993 42.5405C8.58819 42.5365 8.0673 42.6908 7.62352 42.9838C7.17974 43.2768 6.83315 43.6951 6.62783 44.1856C6.42251 44.6761 6.36776 45.2166 6.47053 45.7384C6.5733 46.2601 6.82895 46.7394 7.20495 47.1154C7.58096 47.4915 8.06032 47.7471 8.58204 47.8499C9.10377 47.9526 9.64427 47.8979 10.1348 47.6926C10.6253 47.4873 11.0436 47.1407 11.3366 46.6969C11.6296 46.2531 11.7839 45.7322 11.7799 45.2005C11.7747 44.4966 11.4928 43.8231 10.995 43.3254C10.4973 42.8276 9.82378 42.5457 9.11993 42.5405Z" fill="#D6242D"/>
<path d="M9.11993 35.5397C7.7979 35.5436 6.50443 35.1552 5.40328 34.4236C4.30213 33.692 3.44283 32.6501 2.93417 31.4299C2.42551 30.2096 2.29036 28.8659 2.54585 27.5688C2.80134 26.2717 3.43596 25.0795 4.36938 24.1433C5.30279 23.2071 6.49301 22.5689 7.78935 22.3095C9.08568 22.0501 10.4298 22.1813 11.6516 22.6863C12.8734 23.1913 13.9178 24.0474 14.6527 25.1464C15.3876 26.2453 15.7799 27.5376 15.7799 28.8597C15.7747 30.6262 15.072 32.3193 13.8247 33.5703C12.5774 34.8213 10.8865 35.5291 9.11993 35.5397ZM9.11993 26.1997C8.58819 26.1957 8.0673 26.35 7.62352 26.643C7.17974 26.9359 6.83315 27.3543 6.62783 27.8448C6.42251 28.3353 6.36776 28.8758 6.47053 29.3975C6.5733 29.9193 6.82895 30.3986 7.20495 30.7746C7.58096 31.1506 8.06032 31.4063 8.58204 31.5091C9.10377 31.6118 9.64427 31.5571 10.1348 31.3518C10.6253 31.1464 11.0436 30.7998 11.3366 30.3561C11.6296 29.9123 11.7839 29.3914 11.7799 28.8597C11.7747 28.1558 11.4928 27.4823 10.995 26.9845C10.4973 26.4868 9.82378 26.2049 9.11993 26.1997Z" fill="#D6242D"/>
<path d="M72.1399 16.86C71.5101 16.86 70.8945 16.673 70.3711 16.3227C69.8478 15.9723 69.4402 15.4745 69.2001 14.8923C68.96 14.31 68.8982 13.6696 69.0225 13.0522C69.1469 12.4348 69.4517 11.8682 69.8985 11.4243C70.3452 10.9804 70.9137 10.6791 71.5319 10.5587C72.15 10.4383 72.7901 10.5041 73.3708 10.7478C73.9515 10.9916 74.4467 11.4023 74.7937 11.9279C75.1407 12.4534 75.3239 13.0702 75.3199 13.7C75.3199 14.1167 75.2375 14.5292 75.0775 14.9139C74.9174 15.2986 74.6829 15.6479 74.3873 15.9416C74.0917 16.2353 73.741 16.4676 73.3553 16.6252C72.9696 16.7828 72.5566 16.8626 72.1399 16.86ZM72.1399 12.86C71.9206 12.8652 71.712 12.956 71.5588 13.113C71.4056 13.27 71.3198 13.4806 71.3199 13.7C71.3507 13.898 71.4513 14.0785 71.6035 14.2088C71.7557 14.3391 71.9495 14.4108 72.1499 14.4108C72.3503 14.4108 72.5441 14.3391 72.6963 14.2088C72.8485 14.0785 72.9491 13.898 72.9799 13.7C72.9799 13.4772 72.8914 13.2636 72.7339 13.106C72.5763 12.9485 72.3627 12.86 72.1399 12.86Z" fill="#D6242D"/>
<path d="M70.8602 40.6598C70.2344 40.6637 69.6214 40.4818 69.0992 40.137C68.5769 39.7922 68.1687 39.3 67.9265 38.723C67.6843 38.1459 67.6188 37.5099 67.7385 36.8957C67.8581 36.2814 68.1575 35.7164 68.5986 35.2725C69.0398 34.8286 69.6028 34.5256 70.2163 34.402C70.8298 34.2785 71.4662 34.3399 72.0448 34.5785C72.6234 34.817 73.1181 35.222 73.4662 35.7421C73.8143 36.2622 74.0002 36.8739 74.0002 37.4998C74.0002 38.3344 73.67 39.1352 73.0817 39.7272C72.4934 40.3192 71.6948 40.6545 70.8602 40.6598ZM70.8602 36.6598C70.6374 36.6598 70.4237 36.7483 70.2662 36.9058C70.1087 37.0633 70.0202 37.277 70.0202 37.4998C70.0202 37.7226 70.1087 37.9362 70.2662 38.0938C70.4237 38.2513 70.6374 38.3398 70.8602 38.3398C71.083 38.3398 71.2966 38.2513 71.4542 38.0938C71.6117 37.9362 71.7002 37.7226 71.7002 37.4998C71.7002 37.277 71.6117 37.0633 71.4542 36.9058C71.2966 36.7483 71.083 36.6598 70.8602 36.6598Z" fill="#D6242D"/>
<path d="M40.6399 16.8599C40.0092 16.8639 39.3917 16.6803 38.8657 16.3324C38.3397 15.9845 37.929 15.488 37.6858 14.9061C37.4427 14.3243 37.378 13.6832 37.5001 13.0645C37.6221 12.4458 37.9254 11.8773 38.3713 11.4314C38.8173 10.9855 39.3857 10.6822 40.0044 10.5601C40.6232 10.4381 41.2642 10.5027 41.8461 10.7459C42.428 10.9891 42.9244 11.3997 43.2723 11.9257C43.6202 12.4517 43.8038 13.0693 43.7999 13.6999C43.7946 14.5364 43.46 15.3371 42.8685 15.9286C42.2771 16.5201 41.4763 16.8547 40.6399 16.8599ZM40.6399 12.8599C40.4171 12.8599 40.2034 12.9484 40.0459 13.106C39.8884 13.2635 39.7999 13.4772 39.7999 13.6999C39.7998 13.8093 39.8217 13.9176 39.8642 14.0184C39.9066 14.1192 39.9688 14.2105 40.0471 14.287C40.1254 14.3634 40.2181 14.4233 40.3199 14.4634C40.4217 14.5034 40.5305 14.5226 40.6399 14.5199C40.8574 14.5199 41.0659 14.4335 41.2197 14.2798C41.3735 14.126 41.4599 13.9174 41.4599 13.6999C41.4625 13.5906 41.4433 13.4818 41.4033 13.38C41.3633 13.2782 41.3033 13.1854 41.2269 13.1071C41.1505 13.0289 41.0592 12.9667 40.9584 12.9242C40.8576 12.8818 40.7493 12.8599 40.6399 12.8599Z" fill="#D6242D"/>
<path d="M9.11986 64.7203C8.48923 64.7242 7.87166 64.5406 7.34566 64.1927C6.81966 63.8448 6.40898 63.3484 6.16582 62.7665C5.92265 62.1846 5.85799 61.5436 5.98006 60.9249C6.10212 60.3061 6.40539 59.7377 6.85132 59.2918C7.29726 58.8458 7.86571 58.5426 8.48443 58.4205C9.10314 58.2984 9.74418 58.3631 10.3261 58.6062C10.9079 58.8494 11.4044 59.2601 11.7523 59.7861C12.1002 60.3121 12.2838 60.9297 12.2799 61.5603C12.2746 62.3968 11.94 63.1975 11.3485 63.789C10.757 64.3804 9.95633 64.715 9.11986 64.7203ZM9.11986 60.7203C9.00955 60.7203 8.90032 60.742 8.79841 60.7842C8.69649 60.8264 8.60389 60.8883 8.52589 60.9663C8.44789 61.0443 8.38602 61.1369 8.3438 61.2388C8.30159 61.3407 8.27986 61.45 8.27986 61.5603C8.27983 61.6697 8.30168 61.778 8.34414 61.8788C8.38659 61.9796 8.44879 62.0709 8.52706 62.1473C8.60534 62.2237 8.69811 62.2837 8.79992 62.3237C8.90172 62.3637 9.01051 62.383 9.11986 62.3803C9.23248 62.3886 9.3456 62.3735 9.45212 62.336C9.55864 62.2985 9.65626 62.2394 9.73888 62.1624C9.8215 62.0854 9.88732 61.9922 9.93223 61.8886C9.97714 61.785 10.0002 61.6732 9.99986 61.5603C10.003 61.4457 9.98201 61.3317 9.93835 61.2257C9.89468 61.1197 9.82928 61.0241 9.74635 60.9449C9.66343 60.8658 9.56483 60.8049 9.45692 60.7662C9.34901 60.7275 9.23419 60.7119 9.11986 60.7203Z" fill="#D6242D"/>
<path d="M24.3001 48.3804C23.6703 48.3844 23.0535 48.2013 22.528 47.8543C22.0024 47.5073 21.5917 47.012 21.3479 46.4313C21.1042 45.8506 21.0384 45.2106 21.1588 44.5924C21.2792 43.9742 21.5805 43.4057 22.0244 42.959C22.4683 42.5123 23.0349 42.2074 23.6523 42.0831C24.2697 41.9588 24.9101 42.0206 25.4924 42.2606C26.0746 42.5007 26.5724 42.9083 26.9228 43.4317C27.2731 43.955 27.4601 44.5707 27.4601 45.2004C27.4601 46.0404 27.1278 46.8462 26.5358 47.442C25.9437 48.0378 25.14 48.3752 24.3001 48.3804ZM24.3001 44.3804C24.1323 44.3765 23.9672 44.4229 23.8261 44.5137C23.6849 44.6044 23.5742 44.7354 23.5081 44.8896C23.4421 45.0439 23.4238 45.2145 23.4555 45.3792C23.4873 45.544 23.5677 45.6955 23.6864 45.8142C23.805 45.9328 23.9565 46.0133 24.1213 46.045C24.2861 46.0768 24.4566 46.0585 24.6109 45.9924C24.7652 45.9264 24.8961 45.8157 24.9869 45.6745C25.0777 45.5333 25.124 45.3682 25.1201 45.2004C25.115 44.9846 25.027 44.7789 24.8743 44.6262C24.7216 44.4736 24.516 44.3855 24.3001 44.3804Z" fill="#D6242D"/>
<path d="M9.11992 79.9996C8.49014 80.0035 7.87337 79.8204 7.34779 79.4734C6.82222 79.1264 6.41152 78.6312 6.16777 78.0504C5.92401 77.4697 5.85817 76.8297 5.97861 76.2115C6.09904 75.5934 6.40032 75.0249 6.84424 74.5782C7.28817 74.1314 7.85474 73.8266 8.47214 73.7022C9.08954 73.5779 9.72996 73.6397 10.3122 73.8798C10.8944 74.1199 11.3923 74.5274 11.7426 75.0508C12.0929 75.5742 12.2799 76.1898 12.2799 76.8196C12.2799 77.6595 11.9477 78.4654 11.3556 79.0611C10.7636 79.6569 9.95984 79.9943 9.11992 79.9996ZM9.11992 75.9996C9.01057 75.9969 8.90179 76.0162 8.79998 76.0562C8.69817 76.0962 8.6054 76.1562 8.52712 76.2326C8.44885 76.309 8.38665 76.4003 8.3442 76.5011C8.30175 76.6019 8.27989 76.7102 8.27992 76.8196C8.27992 77.0424 8.36842 77.256 8.52595 77.4136C8.68348 77.5711 8.89714 77.6596 9.11992 77.6596C9.24341 77.6701 9.36766 77.6524 9.48334 77.6079C9.59902 77.5635 9.70311 77.4934 9.78781 77.4029C9.8725 77.3125 9.93559 77.204 9.97233 77.0856C10.0091 76.9673 10.0185 76.8421 9.99992 76.7196C9.97476 76.5091 9.86905 76.3165 9.70498 76.1823C9.54091 76.0481 9.33123 75.9826 9.11992 75.9996Z" fill="#D6242D"/>
<path d="M9.11986 16.8599C8.48923 16.8639 7.87166 16.6803 7.34566 16.3324C6.81966 15.9845 6.40898 15.488 6.16582 14.9061C5.92265 14.3243 5.85799 13.6832 5.98006 13.0645C6.10212 12.4458 6.40539 11.8773 6.85132 11.4314C7.29726 10.9855 7.86571 10.6822 8.48443 10.5601C9.10314 10.4381 9.74418 10.5027 10.3261 10.7459C10.9079 10.9891 11.4044 11.3997 11.7523 11.9257C12.1002 12.4517 12.2838 13.0693 12.2799 13.6999C12.2746 14.5364 11.94 15.3371 11.3485 15.9286C10.757 16.5201 9.95633 16.8547 9.11986 16.8599ZM9.11986 12.8599C8.89708 12.8599 8.68342 12.9484 8.52589 13.106C8.36836 13.2635 8.27986 13.4772 8.27986 13.6999C8.27983 13.8093 8.30168 13.9176 8.34414 14.0184C8.38659 14.1192 8.44879 14.2105 8.52706 14.287C8.60534 14.3634 8.69811 14.4233 8.79992 14.4634C8.90172 14.5034 9.01051 14.5226 9.11986 14.5199C9.23248 14.5282 9.3456 14.5131 9.45212 14.4756C9.55864 14.4381 9.65626 14.379 9.73888 14.3021C9.8215 14.2251 9.88732 14.1319 9.93223 14.0282C9.97714 13.9246 10.0002 13.8129 9.99986 13.6999C10.003 13.5853 9.98201 13.4714 9.93835 13.3654C9.89468 13.2594 9.82928 13.1637 9.74635 13.0846C9.66343 13.0054 9.56483 12.9445 9.45692 12.9058C9.34901 12.8671 9.23419 12.8515 9.11986 12.8599Z" fill="#D6242D"/>
<path d="M56.98 19.2002C55.8922 19.2002 54.8288 18.8776 53.9243 18.2733C53.0199 17.6689 52.3149 16.81 51.8986 15.805C51.4824 14.8 51.3734 13.6941 51.5857 12.6272C51.7979 11.5603 52.3217 10.5803 53.0909 9.81111C53.8601 9.04192 54.8401 8.5181 55.907 8.30588C56.9739 8.09366 58.0797 8.20258 59.0847 8.61886C60.0897 9.03514 60.9487 9.74009 61.5531 10.6446C62.1574 11.549 62.48 12.6124 62.48 13.7002C62.48 15.1589 61.9005 16.5578 60.8691 17.5893C59.8376 18.6207 58.4387 19.2002 56.98 19.2002ZM56.98 12.2002C56.5822 12.2002 56.2006 12.3582 55.9193 12.6395C55.638 12.9208 55.48 13.3024 55.48 13.7002C55.48 14.098 55.638 14.4796 55.9193 14.7609C56.2006 15.0422 56.5822 15.2002 56.98 15.2002C57.3778 15.2002 57.7593 15.0422 58.0406 14.7609C58.3219 14.4796 58.48 14.098 58.48 13.7002C58.48 13.3024 58.3219 12.9208 58.0406 12.6395C57.7593 12.3582 57.3778 12.2002 56.98 12.2002Z" fill="#D6242D"/>
<path d="M24.2998 34.3798C23.2072 34.3838 22.138 34.0634 21.2276 33.4593C20.3172 32.8551 19.6066 31.9944 19.1857 30.9861C18.7649 29.9778 18.6527 28.8673 18.8634 27.7952C19.0741 26.7231 19.5983 25.7377 20.3695 24.9637C21.1406 24.1897 22.1242 23.662 23.1955 23.4474C24.2668 23.2328 25.3777 23.3409 26.3875 23.7581C27.3974 24.1753 28.2606 24.8828 28.8681 25.791C29.4755 26.6992 29.7998 27.7672 29.7998 28.8598C29.7945 30.3187 29.214 31.7167 28.1843 32.7502C27.1545 33.7837 25.7587 34.3693 24.2998 34.3798ZM24.2998 27.3598C23.9975 27.3559 23.7009 27.4421 23.4479 27.6076C23.1949 27.7731 22.997 28.0103 22.8794 28.2888C22.7619 28.5674 22.7301 28.8746 22.7881 29.1713C22.8462 29.468 22.9913 29.7407 23.2051 29.9545C23.4189 30.1683 23.6915 30.3134 23.9882 30.3714C24.2849 30.4294 24.5922 30.3977 24.8707 30.2801C25.1493 30.1626 25.3865 29.9647 25.552 29.7117C25.7174 29.4587 25.8037 29.1621 25.7998 28.8598C25.7946 28.4636 25.6349 28.0851 25.3547 27.8049C25.0745 27.5247 24.696 27.365 24.2998 27.3598Z" fill="#D6242D"/>
<path d="M24.2998 67.0596C23.212 67.0596 22.1486 66.737 21.2442 66.1327C20.3397 65.5283 19.6348 64.6693 19.2185 63.6643C18.8022 62.6593 18.6933 61.5535 18.9055 60.4866C19.1177 59.4197 19.6415 58.4397 20.4107 57.6705C21.1799 56.9013 22.1599 56.3775 23.2268 56.1653C24.2937 55.953 25.3996 56.062 26.4046 56.4782C27.4096 56.8945 28.2685 57.5995 28.8729 58.5039C29.4772 59.4084 29.7998 60.4718 29.7998 61.5596C29.7945 63.0166 29.2134 64.4125 28.1831 65.4428C27.1528 66.4732 25.7569 67.0543 24.2998 67.0596ZM24.2998 60.0596C24.0031 60.0596 23.7131 60.1475 23.4665 60.3124C23.2198 60.4772 23.0275 60.7115 22.914 60.9855C22.8005 61.2596 22.7708 61.5612 22.8286 61.8522C22.8865 62.1432 23.0294 62.4105 23.2391 62.6202C23.4489 62.83 23.7162 62.9729 24.0072 63.0308C24.2981 63.0886 24.5997 63.0589 24.8738 62.9454C25.1479 62.8319 25.3822 62.6396 25.547 62.3929C25.7118 62.1463 25.7998 61.8562 25.7998 61.5596C25.8079 61.3576 25.7751 61.1561 25.7033 60.9671C25.6316 60.7781 25.5224 60.6056 25.3823 60.4599C25.2422 60.3142 25.074 60.1983 24.888 60.1192C24.702 60.0401 24.5019 59.9994 24.2998 59.9996V60.0596Z" fill="#D6242D"/>
<path d="M63.4002 89.7H37.6802C37.1497 89.7 36.641 89.4893 36.266 89.1142C35.8909 88.7391 35.6802 88.2304 35.6802 87.7V26C35.6802 25.4696 35.8909 24.9609 36.266 24.5858C36.641 24.2107 37.1497 24 37.6802 24H78.8402C79.3706 24 79.8793 24.2107 80.2544 24.5858C80.6295 24.9609 80.8402 25.4696 80.8402 26V54.92H76.8402V28H39.6802V85.7H63.4002V89.7Z" fill="#D6242D"/>
<path d="M79.48 93.5596C75.9199 93.5596 72.4398 92.5039 69.4797 90.526C66.5196 88.5482 64.2125 85.737 62.8502 82.4479C61.4878 79.1588 61.1313 75.5396 61.8259 72.048C62.5204 68.5563 64.2347 65.349 66.7521 62.8317C69.2694 60.3143 72.4767 58.6 75.9684 57.9054C79.46 57.2109 83.0792 57.5674 86.3683 58.9297C89.6574 60.2921 92.4686 62.5992 94.4464 65.5593C96.4243 68.5194 97.48 71.9995 97.48 75.5596C97.48 80.3335 95.5836 84.9118 92.2079 88.2875C88.8323 91.6632 84.2539 93.5596 79.48 93.5596ZM79.48 61.4196C76.7111 61.4196 74.0043 62.2407 71.702 63.779C69.3997 65.3173 67.6053 67.5038 66.5457 70.062C65.486 72.6202 65.2088 75.4351 65.749 78.1508C66.2892 80.8666 67.6226 83.3611 69.5805 85.3191C71.5384 87.277 74.033 88.6104 76.7487 89.1506C79.4645 89.6908 82.2794 89.4135 84.8376 88.3539C87.3957 87.2943 89.5822 85.4998 91.1206 83.1976C92.6589 80.8953 93.48 78.1885 93.48 75.4196C93.48 71.7065 92.005 68.1456 89.3795 65.5201C86.754 62.8946 83.193 61.4196 79.48 61.4196Z" fill="#D6242D"/>
<path d="M81.48 65.8398H77.48V86.1998H81.48V65.8398Z" fill="#D6242D"/>
<path d="M75.5402 72.84L72.7002 70L78.0002 64.66C78.1861 64.4725 78.4073 64.3237 78.651 64.2222C78.8948 64.1206 79.1562 64.0684 79.4202 64.0684C79.6842 64.0684 79.9456 64.1206 80.1894 64.2222C80.4331 64.3237 80.6543 64.4725 80.8402 64.66L86.2602 70L83.4202 72.82L79.4202 68.82L75.5402 72.84Z" fill="#D6242D"/>
<path d="M49.9998 61.9996C49.3709 61.9996 48.7561 61.8131 48.2331 61.4637C47.7102 61.1143 47.3026 60.6177 47.0619 60.0366C46.8212 59.4555 46.7582 58.8161 46.8809 58.1993C47.0036 57.5824 47.3065 57.0158 47.7512 56.571C48.196 56.1263 48.7626 55.8235 49.3794 55.7008C49.9963 55.5781 50.6357 55.641 51.2168 55.8817C51.7978 56.1224 52.2945 56.53 52.6439 57.0529C52.9933 57.5759 53.1798 58.1907 53.1798 58.8196C53.1798 59.663 52.8448 60.4719 52.2484 61.0682C51.6521 61.6646 50.8432 61.9996 49.9998 61.9996ZM49.9998 57.9996C49.8018 58.0305 49.6214 58.1311 49.491 58.2833C49.3607 58.4355 49.2891 58.6293 49.2891 58.8297C49.2891 59.03 49.3607 59.2238 49.491 59.376C49.6214 59.5282 49.8018 59.6288 49.9998 59.6596C50.1196 59.6783 50.242 59.6708 50.3587 59.6377C50.4753 59.6045 50.5833 59.5465 50.6754 59.4677C50.7675 59.3888 50.8414 59.291 50.8921 59.1808C50.9428 59.0707 50.9691 58.9509 50.9691 58.8297C50.9691 58.7084 50.9428 58.5886 50.8921 58.4785C50.8414 58.3683 50.7675 58.2705 50.6754 58.1916C50.5833 58.1128 50.4753 58.0548 50.3587 58.0216C50.242 57.9885 50.1196 57.981 49.9998 57.9996Z" fill="#D6242D"/>
<path d="M48.72 82.1198C47.3989 82.1198 46.1074 81.728 45.0088 80.994C43.9103 80.26 43.0541 79.2167 42.5485 77.9961C42.0429 76.7755 41.9106 75.4324 42.1684 74.1366C42.4261 72.8408 43.0624 71.6505 43.9966 70.7163C44.9308 69.7821 46.121 69.1459 47.4168 68.8881C48.7126 68.6304 50.0558 68.7627 51.2764 69.2683C52.497 69.7739 53.5403 70.63 54.2743 71.7286C55.0083 72.8271 55.4 74.1186 55.4 75.4398C55.4 77.2114 54.6963 78.9105 53.4435 80.1632C52.1908 81.416 50.4917 82.1198 48.72 82.1198ZM48.72 72.7798C48.1891 72.7798 47.6702 72.9375 47.2291 73.2329C46.7879 73.5282 46.4444 73.948 46.2422 74.4389C46.0399 74.9297 45.9881 75.4696 46.0931 75.99C46.1981 76.5104 46.4554 76.9879 46.8322 77.3619C47.209 77.7359 47.6884 77.9896 48.2096 78.0907C48.7308 78.1918 49.2702 78.1359 49.7596 77.93C50.2489 77.7241 50.6661 77.3775 50.9581 76.9341C51.2502 76.4908 51.404 75.9707 51.4 75.4398C51.4001 75.0888 51.3306 74.7412 51.1957 74.4172C51.0607 74.0932 50.863 73.799 50.6139 73.5518C50.3648 73.3045 50.0692 73.109 49.7441 72.9765C49.4191 72.844 49.071 72.7771 48.72 72.7798Z" fill="#D6242D"/>
</svg>
