<svg width="100" height="100" viewBox="0 0 100 100" fill="none" xmlns="http://www.w3.org/2000/svg">
<path d="M97.5999 86.0195H28.8799V90.0195H97.5999V86.0195Z" fill="#D6242D"/>
<path d="M23.7598 89.9996H3.33984V85.9996H21.7598V13.1396H25.7598V87.9996C25.7598 88.5301 25.5491 89.0388 25.1741 89.4139C24.799 89.7889 24.2903 89.9996 23.7598 89.9996Z" fill="#D6242D"/>
<path d="M23.7598 39.2803H3.33984V43.2803H23.7598V39.2803Z" fill="#D6242D"/>
<path d="M23.7598 24.7598H3.33984V28.7598H23.7598V24.7598Z" fill="#D6242D"/>
<path d="M23.7598 53.9404H3.33984V57.9404H23.7598V53.9404Z" fill="#D6242D"/>
<path d="M23.7598 70.04H3.33984V74.04H23.7598V70.04Z" fill="#D6242D"/>
<path d="M5.33984 82.9196H1.33984V13.1396C1.33984 12.6092 1.55056 12.1005 1.92563 11.7254C2.3007 11.3504 2.80941 11.1396 3.33984 11.1396H97.5998V15.1396H5.33984V82.9196Z" fill="#D6242D"/>
<path d="M97.5999 17.96H28.8799V21.96H97.5999V17.96Z" fill="#D6242D"/>
<path d="M11.86 17.96H8.45996V21.96H11.86V17.96Z" fill="#D6242D"/>
<path d="M91.1602 50.6797C90.5699 50.6836 89.9918 50.5122 89.4991 50.1872C89.0065 49.8622 88.6214 49.3982 88.3928 48.854C88.1642 48.3098 88.1023 47.71 88.215 47.1307C88.3277 46.5513 88.6099 46.0184 89.0259 45.5997C89.4418 45.1809 89.9728 44.8951 90.5514 44.7785C91.13 44.6619 91.7302 44.7197 92.2759 44.9446C92.8216 45.1696 93.2882 45.5515 93.6165 46.042C93.9448 46.5325 94.1201 47.1094 94.1202 47.6997C94.1202 48.4866 93.809 49.2415 93.2544 49.7998C92.6999 50.3581 91.947 50.6744 91.1602 50.6797ZM91.1602 46.6797C90.9536 46.6797 90.7518 46.7412 90.5803 46.8564C90.4089 46.9716 90.2757 47.1352 90.1976 47.3264C90.1195 47.5176 90.1001 47.7278 90.1418 47.93C90.1836 48.1323 90.2847 48.3175 90.4321 48.4622C90.5796 48.6068 90.7668 48.7042 90.9698 48.7421C91.1728 48.7799 91.3825 48.7564 91.5722 48.6746C91.7618 48.5928 91.9228 48.4564 92.0347 48.2828C92.1465 48.1092 92.2041 47.9062 92.2002 47.6997C92.2002 47.564 92.1732 47.4297 92.1206 47.3047C92.0681 47.1796 91.9912 47.0662 91.8944 46.9713C91.7975 46.8763 91.6827 46.8016 91.5566 46.7515C91.4306 46.7014 91.2958 46.677 91.1602 46.6797Z" fill="#D6242D"/>
<path d="M91.1602 37.5799C90.1877 37.5918 89.2337 37.3141 88.4196 36.7821C87.6055 36.25 86.9682 35.4878 86.5887 34.5924C86.2092 33.697 86.1047 32.7089 86.2886 31.7539C86.4724 30.7989 86.9363 29.9202 87.6211 29.2297C88.306 28.5392 89.1808 28.0681 90.1342 27.8764C91.0877 27.6847 92.0766 27.781 92.9751 28.1532C93.8736 28.5253 94.6411 29.1564 95.1798 29.966C95.7185 30.7757 96.0041 31.7274 96.0002 32.6999C96.0002 33.9873 95.4916 35.2225 94.585 36.1365C93.6785 37.0506 92.4475 37.5694 91.1602 37.5799ZM91.1602 31.7999C90.9822 31.7999 90.8082 31.8527 90.6601 31.9516C90.5121 32.0505 90.3968 32.191 90.3287 32.3555C90.2605 32.5199 90.2427 32.7009 90.2775 32.8755C90.3122 33.0501 90.3979 33.2104 90.5238 33.3363C90.6496 33.4622 90.81 33.5479 90.9846 33.5826C91.1592 33.6173 91.3401 33.5995 91.5046 33.5314C91.669 33.4633 91.8096 33.3479 91.9085 33.1999C92.0074 33.0519 92.0602 32.8779 92.0602 32.6999C92.0602 32.4612 91.9653 32.2323 91.7966 32.0635C91.6278 31.8947 91.3989 31.7999 91.1602 31.7999Z" fill="#D6242D"/>
<path d="M90.2 70C89.0359 70.0118 87.8948 69.6767 86.922 69.0374C85.9491 68.3981 85.1888 67.4835 84.7378 66.4104C84.2869 65.3372 84.1658 64.154 84.39 63.0117C84.6142 61.8694 85.1735 60.8198 85.9966 59.9966C86.8198 59.1735 87.8694 58.6142 89.0117 58.39C90.154 58.1658 91.3372 58.2869 92.4103 58.7378C93.4835 59.1888 94.3981 59.9491 95.0374 60.922C95.6767 61.8948 96.0118 63.0359 96 64.2C95.9843 65.7334 95.3683 67.1996 94.2839 68.2839C93.1996 69.3683 91.7334 69.9844 90.2 70ZM90.2 62.28C89.8321 62.28 89.4725 62.3891 89.1666 62.5934C88.8607 62.7978 88.6223 63.0883 88.4816 63.4282C88.3408 63.7681 88.3039 64.142 88.3757 64.5028C88.4475 64.8636 88.6246 65.1951 88.8848 65.4552C89.1449 65.7153 89.4763 65.8925 89.8371 65.9642C90.1979 66.036 90.5719 65.9992 90.9118 65.8584C91.2516 65.7176 91.5421 65.4792 91.7465 65.1733C91.9509 64.8675 92.06 64.5078 92.06 64.14C92.0444 63.6571 91.8416 63.1993 91.4944 62.8634C91.1473 62.5274 90.6831 62.3397 90.2 62.34V62.28Z" fill="#D6242D"/>
<path d="M69.1202 71.9997H39.6602C37.0433 71.9708 34.5307 70.9695 32.6114 69.1904C30.692 67.4114 29.5031 64.9819 29.2761 62.3747C29.049 59.7675 29.8001 57.1691 31.383 55.0851C32.966 53.001 35.2677 51.5804 37.8402 51.0997C38.2828 49.0854 39.4008 47.283 41.0087 45.9915C42.6167 44.7001 44.6178 43.9973 46.6802 43.9997V47.9997C46.0193 47.9997 45.3648 48.1302 44.7545 48.3837C44.1441 48.6372 43.5898 49.0088 43.1234 49.4771C42.657 49.9453 42.2877 50.5011 42.0366 51.1125C41.7855 51.7238 41.6576 52.3788 41.6602 53.0397C41.6602 53.5701 41.4495 54.0788 41.0744 54.4539C40.6993 54.829 40.1906 55.0397 39.6602 55.0397C37.9485 55.0555 36.3127 55.748 35.1098 56.9658C33.907 58.1837 33.2348 59.828 33.2402 61.5397C33.2706 63.2366 33.9556 64.8561 35.1519 66.0599C36.3483 67.2637 37.9635 67.9587 39.6602 67.9997H69.1202C71.2419 67.9997 73.2767 67.1568 74.777 65.6565C76.2773 64.1563 77.1202 62.1214 77.1202 59.9997C77.1202 57.878 76.2773 55.8431 74.777 54.3428C73.2767 52.8425 71.2419 51.9997 69.1202 51.9997C68.5898 51.9997 68.081 51.789 67.706 51.4139C67.3309 51.0388 67.1202 50.5301 67.1202 49.9997C67.1149 47.9273 66.2893 45.9413 64.8239 44.4759C63.3585 43.0106 61.3726 42.185 59.3002 42.1797V38.1797C62.1175 38.1876 64.8401 39.1982 66.9802 41.0305C69.1204 42.8628 70.5383 45.3972 70.9802 48.1797C73.922 48.6926 76.5669 50.2839 78.3981 52.6427C80.2293 55.0016 81.1152 57.9584 80.8828 60.9356C80.6503 63.9127 79.3161 66.6962 77.141 68.7422C74.9658 70.7882 72.106 71.9497 69.1202 71.9997Z" fill="#D6242D"/>
<path d="M54.6399 54.1402C53.6066 54.1402 52.5966 53.8335 51.7377 53.2591C50.8789 52.6846 50.2098 51.8682 49.8153 50.9132C49.4209 49.9582 49.3187 48.9076 49.5217 47.8944C49.7247 46.8813 50.2239 45.9513 50.9559 45.222C51.6879 44.4928 52.6199 43.9972 53.6338 43.7981C54.6477 43.5989 55.6979 43.7052 56.6514 44.1033C57.6049 44.5015 58.4187 45.1736 58.9899 46.0347C59.5611 46.8957 59.8638 47.9069 59.8599 48.9402C59.8546 50.3212 59.3023 51.6438 58.3239 52.6184C57.3456 53.593 56.0209 54.1402 54.6399 54.1402ZM54.6399 47.7202C54.3986 47.7202 54.1627 47.7917 53.9621 47.9258C53.7615 48.0599 53.6051 48.2504 53.5128 48.4733C53.4204 48.6962 53.3963 48.9416 53.4433 49.1782C53.4904 49.4149 53.6066 49.6322 53.7772 49.8029C53.9478 49.9735 54.1652 50.0897 54.4019 50.1368C54.6385 50.1838 54.8838 50.1597 55.1068 50.0673C55.3297 49.975 55.5202 49.8186 55.6543 49.618C55.7883 49.4174 55.8599 49.1815 55.8599 48.9402C55.8626 48.7792 55.8329 48.6194 55.7725 48.4701C55.7122 48.3209 55.6224 48.1853 55.5086 48.0715C55.3948 47.9577 55.2592 47.8679 55.1099 47.8076C54.9607 47.7472 54.8008 47.7175 54.6399 47.7202Z" fill="#D6242D"/>
<path d="M66.9401 64.6195C66.3864 64.6195 65.845 64.4553 65.3845 64.1476C64.9241 63.84 64.5652 63.4027 64.3533 62.891C64.1413 62.3794 64.0859 61.8164 64.1939 61.2733C64.302 60.7301 64.5686 60.2312 64.9602 59.8396C65.3518 59.448 65.8507 59.1814 66.3939 59.0733C66.937 58.9653 67.5 59.0207 68.0117 59.2327C68.5233 59.4446 68.9606 59.8035 69.2682 60.2639C69.5759 60.7244 69.7401 61.2657 69.7401 61.8195C69.7401 62.5621 69.4451 63.2743 68.92 63.7994C68.3949 64.3245 67.6827 64.6195 66.9401 64.6195ZM66.9401 60.6195C66.7028 60.6195 66.4708 60.6899 66.2735 60.8218C66.0761 60.9536 65.9223 61.141 65.8315 61.3603C65.7407 61.5796 65.7169 61.8209 65.7632 62.0536C65.8095 62.2864 65.9238 62.5002 66.0916 62.6681C66.2594 62.8359 66.4733 62.9502 66.706 62.9965C66.9388 63.0428 67.1801 63.019 67.3994 62.9282C67.6186 62.8374 67.806 62.6836 67.9379 62.4862C68.0698 62.2889 68.1401 62.0569 68.1401 61.8195C68.1401 61.6619 68.1091 61.5059 68.0488 61.3603C67.9885 61.2147 67.9001 61.0824 67.7887 60.971C67.6772 60.8596 67.545 60.7712 67.3994 60.7109C67.2538 60.6506 67.0977 60.6195 66.9401 60.6195Z" fill="#D6242D"/>
<path d="M54.6398 40.8196C54.0812 40.8236 53.5341 40.6616 53.0677 40.3541C52.6013 40.0467 52.2368 39.6076 52.0202 39.0927C51.8037 38.5778 51.745 38.0102 51.8516 37.4618C51.9581 36.9135 52.2251 36.4091 52.6187 36.0128C53.0123 35.6164 53.5147 35.3458 54.0623 35.2354C54.6098 35.1249 55.1778 35.1796 55.6943 35.3924C56.2108 35.6053 56.6524 35.9667 56.9631 36.4309C57.2739 36.895 57.4398 37.441 57.4398 37.9996C57.4398 38.7441 57.1455 39.4583 56.6209 39.9866C56.0964 40.5149 55.3842 40.8143 54.6398 40.8196ZM54.6398 36.8196C54.4832 36.817 54.3276 36.8455 54.1821 36.9036C54.0366 36.9617 53.9042 37.0482 53.7925 37.1581C53.6808 37.2679 53.592 37.3989 53.5315 37.5434C53.471 37.6879 53.4398 37.843 53.4398 37.9996C53.4398 38.3179 53.5662 38.6231 53.7913 38.8481C54.0163 39.0732 54.3215 39.1996 54.6398 39.1996C54.9581 39.1996 55.2633 39.0732 55.4883 38.8481C55.7134 38.6231 55.8398 38.3179 55.8398 37.9996C55.8398 37.843 55.8087 37.6879 55.7481 37.5434C55.6876 37.3989 55.5989 37.2679 55.4872 37.1581C55.3755 37.0482 55.243 36.9617 55.0975 36.9036C54.952 36.8455 54.7964 36.817 54.6398 36.8196Z" fill="#D6242D"/>
<path d="M54.6402 66.2003C53.7651 66.2003 52.9098 65.9406 52.1825 65.454C51.4552 64.9675 50.8887 64.276 50.5547 63.4672C50.2208 62.6583 50.1344 61.7686 50.3066 60.9107C50.4788 60.0527 50.9017 59.2652 51.5219 58.6479C52.142 58.0305 52.9315 57.6111 53.7902 57.4429C54.6489 57.2746 55.5382 57.365 56.3455 57.7026C57.1528 58.0402 57.8417 58.6098 58.325 59.3393C58.8083 60.0688 59.0641 60.9253 59.0602 61.8004C59.0549 62.9691 58.5869 64.0883 57.7585 64.9128C56.9302 65.7374 55.809 66.2004 54.6402 66.2003ZM54.6402 61.3804C54.5859 61.3803 54.5322 61.3913 54.4823 61.4126C54.4325 61.4339 54.3874 61.4652 54.35 61.5045C54.3126 61.5438 54.2836 61.5903 54.2647 61.6411C54.2458 61.692 54.2375 61.7462 54.2402 61.8004C54.2402 62.2404 55.0602 62.2404 55.0602 61.8004C55.0602 61.689 55.0159 61.5821 54.9372 61.5034C54.8584 61.4246 54.7516 61.3804 54.6402 61.3804Z" fill="#D6242D"/>
<path d="M80.88 48.5198C79.721 48.5198 78.5881 48.1761 77.6244 47.5322C76.6607 46.8883 75.9096 45.9731 75.4661 44.9023C75.0226 43.8316 74.9065 42.6533 75.1326 41.5166C75.3587 40.3798 75.9168 39.3357 76.7364 38.5162C77.5559 37.6966 78.6001 37.1385 79.7368 36.9124C80.8735 36.6863 82.0518 36.8023 83.1226 37.2459C84.1933 37.6894 85.1085 38.4405 85.7524 39.4042C86.3963 40.3678 86.74 41.5008 86.74 42.6598C86.74 44.214 86.1226 45.7045 85.0237 46.8035C83.9247 47.9024 82.4342 48.5198 80.88 48.5198ZM80.88 40.8198C80.4225 40.8674 79.9989 41.0829 79.691 41.4245C79.3831 41.7662 79.2126 42.2099 79.2126 42.6698C79.2126 43.1298 79.3831 43.5734 79.691 43.9151C79.9989 44.2567 80.4225 44.4722 80.88 44.5198C81.1391 44.5468 81.401 44.519 81.6487 44.4383C81.8964 44.3577 82.1244 44.2259 82.3179 44.0514C82.5114 43.877 82.6661 43.6639 82.772 43.4259C82.8779 43.1879 82.9326 42.9303 82.9326 42.6698C82.9326 42.4093 82.8779 42.1517 82.772 41.9137C82.6661 41.6757 82.5114 41.4626 82.3179 41.2882C82.1244 41.1138 81.8964 40.9819 81.6487 40.9013C81.401 40.8206 81.1391 40.7928 80.88 40.8198Z" fill="#D6242D"/>
</svg>
