<svg width="100" height="100" viewBox="0 0 100 100" fill="none" xmlns="http://www.w3.org/2000/svg">
<path d="M30.1401 17.7197C28.5579 17.7197 27.0112 17.2505 25.6956 16.3715C24.38 15.4924 23.3546 14.243 22.7491 12.7812C22.1436 11.3194 21.9852 9.71086 22.2939 8.15901C22.6025 6.60716 23.3645 5.1817 24.4833 4.06288C25.6021 2.94406 27.0276 2.18213 28.5794 1.87345C30.1313 1.56477 31.7398 1.72319 33.2016 2.32869C34.6634 2.93419 35.9128 3.95958 36.7919 5.27517C37.6709 6.59076 38.1401 8.13748 38.1401 9.71973C38.1401 11.8415 37.2973 13.8763 35.797 15.3766C34.2967 16.8769 32.2619 17.7197 30.1401 17.7197ZM30.1401 5.71973C29.349 5.71973 28.5757 5.95433 27.9179 6.39385C27.2601 6.83338 26.7474 7.45809 26.4446 8.189C26.1419 8.9199 26.0627 9.72417 26.217 10.5001C26.3713 11.276 26.7523 11.9887 27.3117 12.5482C27.8711 13.1076 28.5839 13.4885 29.3598 13.6429C30.1357 13.7972 30.94 13.718 31.6709 13.4152C32.4018 13.1125 33.0265 12.5998 33.466 11.942C33.9055 11.2842 34.1401 10.5109 34.1401 9.71973C34.1349 8.66233 33.7111 7.65005 32.9615 6.90422C32.2119 6.1584 31.1975 5.73972 30.1401 5.73973V5.71973Z" fill="#D6242D"/>
<path d="M12 35.8604C10.4178 35.8604 8.87103 35.3912 7.55544 34.5121C6.23985 33.6331 5.21447 32.3836 4.60897 30.9218C4.00347 29.46 3.84504 27.8515 4.15372 26.2996C4.4624 24.7478 5.22433 23.3223 6.34315 22.2035C7.46197 21.0847 8.88743 20.3228 10.4393 20.0141C11.9911 19.7054 13.5997 19.8638 15.0615 20.4693C16.5233 21.0748 17.7727 22.1002 18.6518 23.4158C19.5308 24.7314 20 26.2781 20 27.8604C20 29.9821 19.1571 32.0169 17.6569 33.5172C16.1566 35.0175 14.1217 35.8604 12 35.8604ZM12 23.8604C11.2089 23.8604 10.4355 24.095 9.77772 24.5345C9.11993 24.974 8.60724 25.5987 8.30448 26.3296C8.00173 27.0605 7.92252 27.8648 8.07686 28.6407C8.2312 29.4166 8.61217 30.1294 9.17158 30.6888C9.73099 31.2482 10.4437 31.6292 11.2196 31.7835C11.9956 31.9378 12.7998 31.8586 13.5307 31.5559C14.2616 31.2531 14.8864 30.7404 15.3259 30.0826C15.7654 29.4248 16 28.6515 16 27.8604C15.9947 26.803 15.571 25.7907 14.8214 25.0448C14.0718 24.299 13.0574 23.8803 12 23.8804V23.8604Z" fill="#D6242D"/>
<path d="M30.8198 33.0195C30.1276 33.0195 29.4509 32.8143 28.8753 32.4297C28.2998 32.0451 27.8512 31.4985 27.5862 30.8589C27.3213 30.2194 27.252 29.5157 27.3871 28.8367C27.5221 28.1578 27.8555 27.5341 28.345 27.0447C28.8344 26.5552 29.4581 26.2218 30.137 26.0868C30.8159 25.9517 31.5197 26.021 32.1592 26.286C32.7988 26.5509 33.3454 26.9995 33.73 27.575C34.1146 28.1506 34.3198 28.8273 34.3198 29.5195C34.3146 30.4462 33.9441 31.3334 33.2889 31.9886C32.6337 32.6438 31.7465 33.0143 30.8198 33.0195ZM30.8198 29.0195C30.6872 29.0195 30.56 29.0722 30.4663 29.166C30.3725 29.2597 30.3198 29.3869 30.3198 29.5195C30.3198 30.0795 31.3198 30.0795 31.3198 29.5195C31.3198 29.3869 31.2671 29.2597 31.1734 29.166C31.0796 29.0722 30.9524 29.0195 30.8198 29.0195Z" fill="#D6242D"/>
<path d="M49.7598 13.2402C49.0675 13.2402 48.3908 13.035 47.8153 12.6504C47.2397 12.2658 46.7911 11.7192 46.5262 11.0796C46.2613 10.4401 46.192 9.73635 46.327 9.05742C46.4621 8.37849 46.7954 7.75485 47.2849 7.26536C47.7744 6.77588 48.398 6.44254 49.077 6.30749C49.7559 6.17244 50.4596 6.24175 51.0992 6.50666C51.7387 6.77156 52.2853 7.22017 52.6699 7.79574C53.0545 8.37131 53.2598 9.048 53.2598 9.74024C53.2598 10.6685 52.891 11.5587 52.2346 12.2151C51.5783 12.8715 50.688 13.2402 49.7598 13.2402ZM49.7598 9.24024C49.6272 9.24024 49.5 9.29292 49.4062 9.38668C49.3124 9.48045 49.2598 9.60763 49.2598 9.74024C49.2598 10.3002 50.2798 10.3002 50.2798 9.74024C50.2746 9.60582 50.2175 9.47864 50.1206 9.3854C50.0236 9.29217 49.8943 9.24014 49.7598 9.24024Z" fill="#D6242D"/>
<path d="M11.9999 73.2803C11.3069 73.2803 10.6294 73.0745 10.0534 72.689C9.47739 72.3035 9.02881 71.7557 8.7645 71.115C8.50019 70.4743 8.43205 69.7695 8.56873 69.0901C8.70541 68.4106 9.04074 67.787 9.53223 67.2983C10.0237 66.8096 10.6492 66.4779 11.3295 66.3451C12.0097 66.2123 12.7141 66.2845 13.3533 66.5525C13.9924 66.8204 14.5377 67.2722 14.9198 67.8504C15.302 68.4286 15.5039 69.1072 15.4999 69.8003C15.4947 70.7251 15.1236 71.6102 14.4678 72.2622C13.812 72.9143 12.9247 73.2803 11.9999 73.2803ZM11.9999 69.2803C11.8655 69.2854 11.7383 69.3425 11.6451 69.4395C11.5519 69.5364 11.4998 69.6658 11.4999 69.8003C11.4999 70.3403 12.4999 70.3403 12.4999 69.8003C12.5 69.6658 12.448 69.5364 12.3548 69.4395C12.2615 69.3425 12.1344 69.2854 11.9999 69.2803Z" fill="#D6242D"/>
<path d="M12 13.2402C11.3078 13.2402 10.6311 13.035 10.0555 12.6504C9.47993 12.2658 9.03133 11.7192 8.76642 11.0796C8.50152 10.4401 8.4322 9.73635 8.56725 9.05742C8.7023 8.37849 9.03564 7.75485 9.52513 7.26536C10.0146 6.77588 10.6383 6.44254 11.3172 6.30749C11.9961 6.17244 12.6999 6.24175 13.3394 6.50666C13.9789 6.77156 14.5256 7.22017 14.9101 7.79574C15.2947 8.37131 15.5 9.048 15.5 9.74024C15.4948 10.6669 15.1243 11.5541 14.4691 12.2093C13.8138 12.8646 12.9266 13.235 12 13.2402ZM12 9.24024C11.8674 9.24024 11.7402 9.29292 11.6464 9.38668C11.5527 9.48045 11.5 9.60763 11.5 9.74024C11.5 10.3002 12.5 10.3002 12.5 9.74024C12.5 9.60763 12.4473 9.48045 12.3536 9.38668C12.2598 9.29292 12.1326 9.24024 12 9.24024Z" fill="#D6242D"/>
<path d="M69.4 16.2199C68.118 16.2002 66.8705 15.8018 65.8144 15.0748C64.7583 14.3478 63.9408 13.3247 63.4647 12.1342C62.9886 10.9437 62.8753 9.63905 63.1389 8.3843C63.4025 7.12956 64.0313 5.98079 64.9462 5.08254C65.8611 4.18429 67.0212 3.57667 68.2805 3.33612C69.5399 3.09558 70.8423 3.23286 72.0238 3.73069C73.2054 4.22852 74.2133 5.06466 74.9208 6.13392C75.6283 7.20319 76.0038 8.4578 76 9.73994C75.9974 10.6003 75.8241 11.4516 75.49 12.2445C75.1559 13.0374 74.6678 13.7561 74.0538 14.3589C73.4399 14.9617 72.7124 15.4366 71.9135 15.756C71.1146 16.0755 70.2603 16.2332 69.4 16.2199ZM69.4 7.23994C68.9103 7.25954 68.4371 7.42266 68.0393 7.70901C67.6416 7.99535 67.3368 8.3923 67.1628 8.85049C66.9888 9.30868 66.9534 9.8079 67.0608 10.2861C67.1683 10.7643 67.4139 11.2003 67.7672 11.54C68.1205 11.8797 68.5658 12.1081 69.0479 12.1967C69.5299 12.2853 70.0273 12.2303 70.4784 12.0385C70.9294 11.8467 71.3141 11.5266 71.5846 11.1179C71.8551 10.7092 71.9996 10.23 72 9.73994C72.0002 9.40305 71.9324 9.06957 71.8006 8.75955C71.6687 8.44953 71.4756 8.16936 71.2327 7.93585C70.9899 7.70235 70.7024 7.52034 70.3874 7.40075C70.0725 7.28116 69.7366 7.22646 69.4 7.23994Z" fill="#D6242D"/>
<path d="M11.6601 55.6601C10.3737 55.6641 9.11505 55.2862 8.0435 54.5744C6.97195 53.8626 6.13572 52.8488 5.64068 51.6615C5.14564 50.4741 5.01407 49.1665 5.26261 47.9043C5.51115 46.6422 6.12863 45.4821 7.03687 44.5711C7.94511 43.66 9.10326 43.039 10.3647 42.7865C11.6261 42.5341 12.9341 42.6616 14.1229 43.153C15.3118 43.6444 16.3282 44.4775 17.0433 45.5469C17.7584 46.6162 18.1401 47.8737 18.1401 49.1601C18.1349 50.879 17.4511 52.5262 16.2376 53.7435C15.0241 54.9608 13.379 55.6496 11.6601 55.6601ZM11.6601 46.6801C11.164 46.6762 10.6779 46.8199 10.2637 47.0931C9.84957 47.3663 9.52604 47.7565 9.33435 48.2141C9.14266 48.6718 9.09146 49.1761 9.18729 49.6629C9.28311 50.1497 9.52162 50.597 9.87245 50.9478C10.2233 51.2986 10.6706 51.5372 11.1574 51.633C11.6442 51.7288 12.1485 51.6776 12.6061 51.4859C13.0637 51.2942 13.454 50.9707 13.7272 50.5565C14.0003 50.1424 14.1441 49.6563 14.1401 49.1601C14.1349 48.504 13.8719 47.8762 13.408 47.4123C12.944 46.9483 12.3163 46.6854 11.6601 46.6801Z" fill="#D6242D"/>
<path d="M81.9999 48.6801C80.1321 44.7535 77.1895 41.4368 73.5134 39.1145C69.8372 36.7923 65.5781 35.5597 61.2299 35.5597C56.8817 35.5597 52.6225 36.7923 48.9464 39.1145C45.2702 41.4368 42.3276 44.7535 40.4599 48.6801L36.8599 46.9601C39.053 42.3518 42.5072 38.4594 46.8222 35.7342C51.1373 33.009 56.1363 31.5625 61.2399 31.5625C66.3434 31.5625 71.3425 33.009 75.6575 35.7342C79.9725 38.4594 83.4268 42.3518 85.6199 46.9601L81.9999 48.6801Z" fill="#D6242D"/>
<path d="M61.2198 85.4999C56.1186 85.4878 51.1244 84.0361 46.8115 81.3118C42.4986 78.5875 39.0422 74.7012 36.8398 70.0999L40.4598 68.3799C42.3241 72.3075 45.2644 75.6257 48.9391 77.9491C52.6138 80.2725 56.8722 81.5058 61.2198 81.5058C65.5675 81.5058 69.8259 80.2725 73.5006 77.9491C77.1753 75.6257 80.1155 72.3075 81.9798 68.3799L85.5998 70.0999C83.3956 74.6997 79.9387 78.5847 75.6263 81.3088C71.3138 84.0328 66.3206 85.4854 61.2198 85.4999Z" fill="#D6242D"/>
<path d="M81.4001 87.4997L79.1001 84.2197C84.3321 80.5573 88.3246 75.3883 90.5464 69.4007C92.7682 63.4132 93.1138 56.891 91.5373 50.7021C89.9607 44.5133 86.5368 38.9513 81.7212 34.7564C76.9056 30.5615 70.9266 27.9327 64.5801 27.2197L65.0001 23.2197C72.1588 24.0161 78.9049 26.9748 84.3397 31.7018C89.7745 36.4287 93.64 42.6995 95.4212 49.6786C97.2023 56.6578 96.8146 64.014 94.3097 70.7673C91.8048 77.5205 87.3016 83.3502 81.4001 87.4797V87.4997Z" fill="#D6242D"/>
<path d="M57.4402 93.8196C50.2815 93.0232 43.5354 90.0645 38.1006 85.3375C32.6658 80.6106 28.8003 74.3398 27.0191 67.3607C25.238 60.3815 25.6257 53.0253 28.1306 46.272C30.6355 39.5188 35.1387 33.6891 41.0402 29.5596L43.3202 32.8396C38.0877 36.5033 34.0952 41.6739 31.8743 47.663C29.6534 53.6522 29.3095 60.1758 30.8884 66.3653C32.4672 72.5548 35.8939 78.1165 40.7123 82.31C45.5307 86.5036 51.5121 89.13 57.8602 89.8396L57.4402 93.8196Z" fill="#D6242D"/>
<path d="M61.2201 30.7996C60.1157 30.8036 59.0349 30.4797 58.1146 29.869C57.1944 29.2582 56.476 28.3881 56.0506 27.3689C55.6252 26.3496 55.5119 25.2271 55.7249 24.1433C55.938 23.0596 56.4678 22.0635 57.2474 21.2811C58.027 20.4987 59.0212 19.9653 60.1041 19.7483C61.1871 19.5314 62.3101 19.6407 63.3308 20.0625C64.3516 20.4842 65.2243 21.1994 65.8383 22.1175C66.4523 23.0355 66.7801 24.1151 66.7801 25.2196C66.7801 26.6961 66.195 28.1123 65.1529 29.1582C64.1107 30.2041 62.6966 30.7943 61.2201 30.7996ZM61.2201 23.6596C60.906 23.6557 60.5978 23.7455 60.3349 23.9175C60.072 24.0896 59.8664 24.3362 59.7443 24.6257C59.6223 24.9152 59.5893 25.2345 59.6496 25.5429C59.71 25.8512 59.8609 26.1346 60.083 26.3567C60.3052 26.5789 60.5885 26.7298 60.8969 26.7901C61.2052 26.8504 61.5245 26.8174 61.8141 26.6954C62.1036 26.5733 62.3501 26.3677 62.5222 26.1049C62.6943 25.842 62.7841 25.5338 62.7801 25.2196C62.7801 24.8059 62.6158 24.4091 62.3232 24.1165C62.0307 23.824 61.6339 23.6596 61.2201 23.6596Z" fill="#D6242D"/>
<path d="M61.2201 97.4002C60.1148 97.4042 59.0332 97.0798 58.1125 96.4681C57.1918 95.8565 56.4735 94.9853 56.0487 93.9648C55.6239 92.9444 55.5117 91.8208 55.7264 90.7365C55.941 89.6523 56.4729 88.6562 57.2545 87.8746C58.036 87.093 59.0321 86.5612 60.1164 86.3465C61.2007 86.1318 62.3243 86.244 63.3447 86.6688C64.3651 87.0936 65.2364 87.8119 65.848 88.7326C66.4596 89.6533 66.784 90.7349 66.7801 91.8402C66.7748 93.3132 66.1873 94.7243 65.1458 95.7659C64.1042 96.8075 62.6931 97.3949 61.2201 97.4002ZM61.2201 90.2602C60.999 90.2352 60.7752 90.2572 60.5632 90.3247C60.3512 90.3922 60.1559 90.5037 59.99 90.6519C59.8241 90.8001 59.6913 90.9817 59.6005 91.1847C59.5096 91.3878 59.4626 91.6077 59.4626 91.8302C59.4626 92.0527 59.5096 92.2726 59.6005 92.4757C59.6913 92.6787 59.8241 92.8603 59.99 93.0085C60.1559 93.1567 60.3512 93.2682 60.5632 93.3357C60.7752 93.4032 60.999 93.4252 61.2201 93.4002C61.6059 93.3566 61.9622 93.1724 62.2209 92.8828C62.4796 92.5932 62.6226 92.2185 62.6226 91.8302C62.6226 91.4419 62.4796 91.0672 62.2209 90.7776C61.9622 90.488 61.6059 90.3038 61.2201 90.2602Z" fill="#D6242D"/>
<path d="M82.6198 56.54H39.7998V60.54H82.6198V56.54Z" fill="#D6242D"/>
<path d="M61.2198 47.4402C54.5567 47.6468 47.9749 45.9319 42.2598 42.5002L44.4998 39.2002C49.5647 42.1547 55.359 43.624 61.2198 43.4402C67.1006 43.6332 72.9165 42.1636 77.9998 39.2002L80.2398 42.5002C74.506 45.9399 67.9027 47.6549 61.2198 47.4402Z" fill="#D6242D"/>
<path d="M77.9998 77.8602C72.934 74.9077 67.1404 73.4385 61.2798 73.6202C55.419 73.4364 49.6248 74.9057 44.5598 77.8602L42.3198 74.5602C48.035 71.1285 54.6168 69.4136 61.2798 69.6202C67.9425 69.417 74.5234 71.1317 80.2398 74.5602L77.9998 77.8602Z" fill="#D6242D"/>
<path d="M36.2401 64.1004C35.1348 64.1044 34.0532 63.78 33.1325 63.1683C32.2118 62.5567 31.4935 61.6854 31.0687 60.665C30.6439 59.6446 30.5317 58.521 30.7464 57.4367C30.9611 56.3525 31.4929 55.3564 32.2745 54.5748C33.0561 53.7932 34.0522 53.2613 35.1364 53.0467C36.2207 52.832 37.3443 52.9442 38.3647 53.369C39.3852 53.7938 40.2564 54.5121 40.868 55.4328C41.4797 56.3535 41.8041 57.4351 41.8001 58.5404C41.7948 60.0134 41.2074 61.4245 40.1658 62.4661C39.1242 63.5077 37.7131 64.0951 36.2401 64.1004ZM36.2401 56.9604C36.019 56.9354 35.7952 56.9574 35.5832 57.0249C35.3713 57.0924 35.1759 57.2039 35.01 57.3521C34.8441 57.5003 34.7114 57.6819 34.6205 57.8849C34.5296 58.088 34.4826 58.3079 34.4826 58.5304C34.4826 58.7529 34.5296 58.9728 34.6205 59.1759C34.7114 59.3789 34.8441 59.5605 35.01 59.7087C35.1759 59.8569 35.3713 59.9684 35.5832 60.0359C35.7952 60.1034 36.019 60.1254 36.2401 60.1004C36.626 60.0568 36.9822 59.8726 37.2409 59.583C37.4996 59.2934 37.6426 58.9187 37.6426 58.5304C37.6426 58.1421 37.4996 57.7674 37.2409 57.4778C36.9822 57.1882 36.626 57.004 36.2401 56.9604Z" fill="#D6242D"/>
<path d="M86.2001 64.1004C85.0947 64.1044 84.0132 63.78 83.0925 63.1683C82.1718 62.5567 81.4535 61.6854 81.0287 60.665C80.6039 59.6446 80.4917 58.521 80.7063 57.4367C80.921 56.3525 81.4529 55.3564 82.2344 54.5748C83.016 53.7932 84.0121 53.2613 85.0964 53.0467C86.1807 52.832 87.3043 52.9442 88.3247 53.369C89.3451 53.7938 90.2164 54.5121 90.828 55.4328C91.4396 56.3535 91.764 57.4351 91.7601 58.5404C91.7548 60.0134 91.1673 61.4245 90.1258 62.4661C89.0842 63.5077 87.673 64.0951 86.2001 64.1004ZM86.2001 56.9604C85.979 56.9354 85.7552 56.9574 85.5432 57.0249C85.3312 57.0924 85.1359 57.2039 84.97 57.3521C84.8041 57.5003 84.6713 57.6819 84.5804 57.8849C84.4896 58.088 84.4426 58.3079 84.4426 58.5304C84.4426 58.7529 84.4896 58.9728 84.5804 59.1759C84.6713 59.3789 84.8041 59.5605 84.97 59.7087C85.1359 59.8569 85.3312 59.9684 85.5432 60.0359C85.7552 60.1034 85.979 60.1254 86.2001 60.1004C86.5859 60.0568 86.9422 59.8726 87.2009 59.583C87.4596 59.2934 87.6026 58.9187 87.6026 58.5304C87.6026 58.1421 87.4596 57.7674 87.2009 57.4778C86.9422 57.1882 86.5859 57.004 86.2001 56.9604Z" fill="#D6242D"/>
<path d="M61.2199 85.4996C54.4399 85.4996 50.8799 71.9396 50.8799 58.5396C50.8799 45.1396 54.4399 31.5596 61.2199 31.5596C67.9999 31.5596 71.5399 45.1196 71.5399 58.5396C71.5399 71.9596 67.9999 85.4996 61.2199 85.4996ZM61.2199 35.4996C59.0599 35.4996 54.8799 43.4996 54.8799 58.4796C54.8799 73.4596 59.0599 81.4396 61.2199 81.4396C63.3799 81.4396 67.5399 73.4396 67.5399 58.4796C67.5399 43.5196 63.3599 35.5596 61.2199 35.5596V35.4996Z" fill="#D6242D"/>
</svg>
