<svg width="100" height="100" viewBox="0 0 100 100" fill="none" xmlns="http://www.w3.org/2000/svg">
<g clip-path="url(#clip0_2385_7076)">
<path d="M100 0H0V100H100V0Z" fill="url(#paint0_linear_2385_7076)"/>
<path d="M41.4533 64.5993C42.3732 64.6019 43.2732 64.331 44.0388 63.821C44.8045 63.3109 45.4012 62.5848 45.7533 61.7349C46.1053 60.8849 46.1967 59.9495 46.0159 59.0475C45.8351 58.1455 45.3903 57.3175 44.7379 56.6689C44.0855 56.0203 43.255 55.5802 42.352 55.4046C41.4489 55.229 40.514 55.3259 39.6661 55.6828C38.8182 56.0398 38.0956 56.6407 37.59 57.4093C37.0844 58.1779 36.8187 59.0794 36.8266 59.9993C36.8371 61.2207 37.3288 62.3886 38.1949 63.2498C39.0611 64.1109 40.2319 64.5959 41.4533 64.5993ZM41.4533 57.9327C41.84 57.9305 42.2189 58.042 42.5428 58.2534C42.8668 58.4648 43.1214 58.7667 43.2751 59.1216C43.4289 59.4765 43.4749 59.8688 43.4075 60.2497C43.3402 60.6306 43.1624 60.9832 42.8962 61.2639C42.63 61.5445 42.2873 61.7408 41.9105 61.8282C41.5337 61.9156 41.1396 61.8904 40.777 61.7557C40.4144 61.621 40.0995 61.3827 39.8712 61.0704C39.643 60.7581 39.5116 60.3857 39.4933 59.9993C39.4879 59.7386 39.5347 59.4794 39.6308 59.237C39.7269 58.9945 39.8705 58.7737 40.053 58.5875C40.2355 58.4012 40.4534 58.2532 40.6938 58.1522C40.9343 58.0513 41.1925 57.9993 41.4533 57.9993V57.9327Z" fill="white"/>
<path d="M59.4667 64.5993C60.3866 64.6019 61.2866 64.331 62.0523 63.821C62.8179 63.3109 63.4147 62.5848 63.7667 61.7349C64.1187 60.8849 64.2102 59.9495 64.0294 59.0475C63.8486 58.1455 63.4037 57.3175 62.7513 56.6689C62.0989 56.0203 61.2684 55.5802 60.3654 55.4046C59.4623 55.229 58.5275 55.3259 57.6796 55.6828C56.8317 56.0398 56.109 56.6407 55.6034 57.4093C55.0978 58.1779 54.8321 59.0794 54.84 59.9993C54.8505 61.2207 55.3422 62.3886 56.2084 63.2498C57.0745 64.1109 58.2453 64.5959 59.4667 64.5993ZM59.4667 57.9327C59.8535 57.9305 60.2323 58.042 60.5563 58.2534C60.8802 58.4648 61.1348 58.7667 61.2886 59.1216C61.4423 59.4765 61.4883 59.8688 61.421 60.2497C61.3536 60.6306 61.1758 60.9832 60.9096 61.2639C60.6435 61.5445 60.3007 61.7408 59.9239 61.8282C59.5472 61.9156 59.153 61.8904 58.7904 61.7557C58.4279 61.621 58.1129 61.3827 57.8847 61.0704C57.6564 60.7581 57.525 60.3857 57.5067 59.9993C57.5014 59.7386 57.5481 59.4794 57.6442 59.237C57.7403 58.9945 57.8839 58.7737 58.0664 58.5875C58.249 58.4012 58.4668 58.2532 58.7073 58.1522C58.9477 58.0513 59.2059 57.9993 59.4667 57.9993V57.9327Z" fill="white"/>
<path d="M82.32 64.9195L77.76 62.6662V58.6662H73.1334C72.8403 53.7615 70.8799 49.1043 67.5769 45.4667C64.274 41.8292 59.827 39.4297 54.9734 38.6662V36.1195C54.9089 34.9024 54.38 33.7563 53.4956 32.9176C52.6113 32.0789 51.4389 31.6113 50.22 31.6113C49.0012 31.6113 47.8288 32.0789 46.9444 32.9176C46.0601 33.7563 45.5312 34.9024 45.4667 36.1195V38.6662C40.612 39.4274 36.1637 41.8261 32.8603 45.4642C29.557 49.1023 27.5973 53.7607 27.3067 58.6662H22.6667V62.6662L18.1067 64.9462V75.7062L22.6667 77.9595V81.9595H77.76V77.9595L82.32 75.6795V64.9195ZM75.0934 61.3328V79.2262H73.2V61.3328H75.0934ZM48.1334 36.1195C48.1753 35.5949 48.4134 35.1053 48.8001 34.7483C49.1868 34.3913 49.6937 34.1931 50.22 34.1931C50.7463 34.1931 51.2533 34.3913 51.64 34.7483C52.0267 35.1053 52.2647 35.5949 52.3067 36.1195V38.3062C51.6134 38.3062 50.9734 38.2128 50.2134 38.2128C49.4534 38.2128 48.88 38.2128 48.1334 38.3062V36.1195ZM50.2134 40.8795C61.8 40.8795 70.5334 49.1195 70.5334 60.0528V79.2262H29.9067V59.9995C29.9067 49.1195 38.6667 40.8795 50.2134 40.8795ZM20.7867 74.0395V66.5728L22.6667 65.6262V74.9595L20.7867 74.0395ZM25.3334 61.3328H27.2267V79.2262H25.3334V61.3328ZM79.64 73.9862L77.7467 74.9328V65.5995L79.64 66.5462V73.9862Z" fill="white"/>
<path d="M40.2798 27.693L42.1731 29.5863C43.207 28.5522 44.4344 27.7319 45.7853 27.1723C47.1363 26.6126 48.5842 26.3245 50.0465 26.3245C51.5087 26.3245 52.9566 26.6126 54.3076 27.1723C55.6585 27.7319 56.8859 28.5522 57.9198 29.5863L59.7998 27.7063C57.2099 25.1204 53.6996 23.668 50.0398 23.668C46.3799 23.668 42.8697 25.1204 40.2798 27.7063V27.693Z" fill="white"/>
<path d="M50.0399 20.773C52.2331 20.7645 54.406 21.1928 56.432 22.0329C58.4579 22.8731 60.2963 24.1082 61.8399 25.6663L63.7332 23.773C60.1027 20.144 55.1797 18.1055 50.0465 18.1055C44.9134 18.1055 39.9903 20.144 36.3599 23.773L38.2532 25.6663C39.7952 24.1098 41.6314 22.8756 43.6549 22.0355C45.6785 21.1954 47.8489 20.7662 50.0399 20.773Z" fill="white"/>
<path d="M29.5864 39.0527C30.3775 39.0527 31.1509 38.8181 31.8087 38.3786C32.4665 37.9391 32.9792 37.3144 33.2819 36.5835C33.5847 35.8526 33.6639 35.0483 33.5096 34.2724C33.3552 33.4965 32.9743 32.7837 32.4148 32.2243C31.8554 31.6649 31.1427 31.2839 30.3668 31.1296C29.5909 30.9753 28.7866 31.0545 28.0557 31.3572C27.3248 31.66 26.7001 32.1727 26.2605 32.8305C25.821 33.4883 25.5864 34.2616 25.5864 35.0527C25.5864 36.1136 26.0079 37.131 26.758 37.8812C27.5081 38.6313 28.5256 39.0527 29.5864 39.0527ZM29.5864 33.8127C29.8501 33.8127 30.1079 33.8909 30.3272 34.0374C30.5464 34.184 30.7173 34.3922 30.8183 34.6358C30.9192 34.8795 30.9456 35.1475 30.8941 35.4062C30.8427 35.6648 30.7157 35.9024 30.5292 36.0889C30.3428 36.2753 30.1052 36.4023 29.8465 36.4538C29.5879 36.5052 29.3198 36.4788 29.0762 36.3779C28.8325 36.277 28.6243 36.1061 28.4778 35.8868C28.3313 35.6676 28.2531 35.4098 28.2531 35.1461C28.2531 34.7924 28.3936 34.4533 28.6436 34.2033C28.8937 33.9532 29.2328 33.8127 29.5864 33.8127Z" fill="white"/>
<path d="M21.6399 47C22.431 47 23.2044 46.7654 23.8622 46.3259C24.52 45.8864 25.0327 45.2616 25.3354 44.5307C25.6382 43.7998 25.7174 42.9956 25.563 42.2196C25.4087 41.4437 25.0277 40.731 24.4683 40.1716C23.9089 39.6122 23.1962 39.2312 22.4203 39.0769C21.6443 38.9225 20.8401 39.0017 20.1092 39.3045C19.3783 39.6072 18.7535 40.1199 18.314 40.7777C17.8745 41.4355 17.6399 42.2089 17.6399 43C17.6399 44.0609 18.0613 45.0783 18.8115 45.8284C19.5616 46.5786 20.579 47 21.6399 47ZM21.6399 41.7467C21.9036 41.7467 22.1614 41.8249 22.3807 41.9714C22.5999 42.1179 22.7708 42.3261 22.8717 42.5698C22.9726 42.8134 22.9991 43.0815 22.9476 43.3401C22.8962 43.5988 22.7692 43.8363 22.5827 44.0228C22.3962 44.2093 22.1587 44.3363 21.9 44.3877C21.6414 44.4392 21.3733 44.4128 21.1296 44.3118C20.886 44.2109 20.6778 44.04 20.5313 43.8208C20.3848 43.6015 20.3066 43.3437 20.3066 43.08C20.3066 42.7264 20.447 42.3872 20.6971 42.1372C20.9471 41.8871 21.2863 41.7467 21.6399 41.7467Z" fill="white"/>
<path d="M27.8933 43.7601C27.8933 44.153 28.0098 44.5371 28.2281 44.8638C28.4464 45.1905 28.7567 45.4452 29.1197 45.5955C29.4827 45.7459 29.8822 45.7853 30.2676 45.7086C30.6529 45.6319 31.0069 45.4427 31.2848 45.1649C31.5626 44.887 31.7518 44.5331 31.8285 44.1477C31.9051 43.7623 31.8658 43.3629 31.7154 42.9998C31.5651 42.6368 31.3104 42.3265 30.9837 42.1083C30.657 41.89 30.2729 41.7734 29.88 41.7734C29.3531 41.7734 28.8478 41.9827 28.4752 42.3553C28.1026 42.7279 27.8933 43.2332 27.8933 43.7601ZM30.56 43.7601C30.56 43.8946 30.5201 44.0261 30.4454 44.1379C30.3707 44.2497 30.2645 44.3369 30.1402 44.3883C30.0159 44.4398 29.8792 44.4533 29.7473 44.427C29.6154 44.4008 29.4942 44.336 29.3991 44.2409C29.304 44.1458 29.2393 44.0247 29.213 43.8928C29.1868 43.7609 29.2003 43.6241 29.2517 43.4999C29.3032 43.3756 29.3904 43.2694 29.5022 43.1947C29.614 43.12 29.7455 43.0801 29.88 43.0801C30.0603 43.0801 30.2333 43.1517 30.3608 43.2793C30.4883 43.4068 30.56 43.5798 30.56 43.7601Z" fill="white"/>
<path d="M38.1732 37.0798C38.5661 37.0798 38.9502 36.9633 39.2769 36.745C39.6036 36.5267 39.8583 36.2164 40.0086 35.8534C40.159 35.4904 40.1983 35.0909 40.1217 34.7055C40.045 34.3202 39.8558 33.9662 39.578 33.6883C39.3001 33.4105 38.9461 33.2213 38.5608 33.1446C38.1754 33.068 37.7759 33.1073 37.4129 33.2577C37.0499 33.408 36.7396 33.6627 36.5213 33.9894C36.303 34.3161 36.1865 34.7002 36.1865 35.0931C36.1865 35.62 36.3958 36.1253 36.7684 36.4979C37.141 36.8705 37.6463 37.0798 38.1732 37.0798ZM38.1732 34.4131C38.3272 34.4441 38.4657 34.5274 38.5653 34.6489C38.6648 34.7704 38.7192 34.9227 38.7192 35.0798C38.7192 35.2369 38.6648 35.3891 38.5653 35.5106C38.4657 35.6322 38.3272 35.7155 38.1732 35.7464C38.0192 35.7155 37.8806 35.6322 37.7811 35.5106C37.6816 35.3891 37.6272 35.2369 37.6272 35.0798C37.6272 34.9227 37.6816 34.7704 37.7811 34.6489C37.8806 34.5274 38.0192 34.4441 38.1732 34.4131Z" fill="white"/>
<path d="M21.64 37.0798C22.0329 37.0798 22.417 36.9633 22.7437 36.745C23.0704 36.5267 23.3251 36.2164 23.4754 35.8534C23.6258 35.4904 23.6651 35.0909 23.5885 34.7055C23.5118 34.3202 23.3226 33.9662 23.0448 33.6883C22.7669 33.4105 22.4129 33.2213 22.0276 33.1446C21.6422 33.068 21.2427 33.1073 20.8797 33.2577C20.5167 33.408 20.2064 33.6627 19.9881 33.9894C19.7698 34.3161 19.6533 34.7002 19.6533 35.0931C19.6533 35.62 19.8626 36.1253 20.2352 36.4979C20.6078 36.8705 21.1131 37.0798 21.64 37.0798ZM21.64 34.4131C21.7745 34.4131 21.9059 34.453 22.0178 34.5277C22.1296 34.6024 22.2168 34.7086 22.2682 34.8329C22.3197 34.9571 22.3332 35.0939 22.3069 35.2258C22.2807 35.3577 22.2159 35.4788 22.1208 35.5739C22.0257 35.669 21.9046 35.7338 21.7726 35.76C21.6407 35.7863 21.504 35.7728 21.3798 35.7214C21.2555 35.6699 21.1493 35.5827 21.0746 35.4709C20.9999 35.3591 20.96 35.2276 20.96 35.0931C20.96 34.9128 21.0316 34.7398 21.1592 34.6123C21.2867 34.4848 21.4596 34.4131 21.64 34.4131Z" fill="white"/>
<path d="M21.4931 49.0664C20.8379 49.0638 20.1968 49.2558 19.651 49.6182C19.1052 49.9805 18.6793 50.4968 18.4274 51.1015C18.1754 51.7063 18.1088 52.3722 18.236 53.0149C18.3631 53.6576 18.6784 54.248 19.1416 54.7112C19.6048 55.1745 20.1953 55.4897 20.8379 55.6169C21.4806 55.744 22.1466 55.6774 22.7513 55.4255C23.3561 55.1736 23.8724 54.7477 24.2347 54.2019C24.597 53.656 24.789 53.0149 24.7864 52.3598C24.7829 51.4874 24.4348 50.6518 23.8179 50.0349C23.2011 49.418 22.3654 49.0699 21.4931 49.0664ZM21.4931 53.0664C21.3233 53.0664 21.1605 52.999 21.0405 52.879C20.9205 52.759 20.8531 52.5962 20.8531 52.4264C20.8752 52.2743 20.9514 52.1351 21.0677 52.0345C21.184 51.9339 21.3326 51.8786 21.4864 51.8786C21.6402 51.8786 21.7888 51.9339 21.9051 52.0345C22.0214 52.1351 22.0976 52.2743 22.1197 52.4264C22.1035 52.5821 22.0307 52.7264 21.9152 52.832C21.7997 52.9377 21.6496 52.9974 21.4931 52.9998V53.0664Z" fill="white"/>
</g>
<defs>
<linearGradient id="paint0_linear_2385_7076" x1="-20.72" y1="120.707" x2="120.707" y2="-20.72" gradientUnits="userSpaceOnUse">
<stop stop-color="#BD0816"/>
<stop offset="1" stop-color="#FF5252"/>
</linearGradient>
<clipPath id="clip0_2385_7076">
<rect width="100" height="100" fill="white"/>
</clipPath>
</defs>
</svg>
