<svg width="100" height="100" viewBox="0 0 100 100" fill="none" xmlns="http://www.w3.org/2000/svg">
<g clip-path="url(#clip0_0_779)">
<path d="M100 0H0V100H100V0Z" fill="#D86613"/>
<path d="M35.1429 42.3716L33.1143 44.4002L37.2858 48.5716H14.2858V51.4287H37.2858L33.1143 55.6002L35.1429 57.6287L42.7715 50.0002L35.1429 42.3716Z" fill="white"/>
<path d="M85.7139 48.5716H62.7139L66.8853 44.4002L64.8567 42.3716L57.2281 50.0002L64.8567 57.6287L66.8853 55.6002L62.7139 51.4287H85.7139V48.5716Z" fill="white"/>
<path d="M48.5716 18.9716V41.9716H51.4287V18.9716L55.6001 23.143L57.6287 21.1144L50.0002 13.4858L42.3716 21.1144L44.4002 23.143L48.5716 18.9716Z" fill="white"/>
<path d="M51.4287 81.0288V58.0288H48.5716V81.0288L44.4002 76.8574L42.3716 78.886L50.0002 86.5145L57.6287 78.886L55.6001 76.8574L51.4287 81.0288Z" fill="white"/>
</g>
<defs>
<clipPath id="clip0_0_779">
<rect width="100" height="100" fill="white"/>
</clipPath>
</defs>
</svg>
