<svg width="100" height="100" viewBox="0 0 100 100" fill="none" xmlns="http://www.w3.org/2000/svg">
<g clip-path="url(#clip0_0_713)">
<path d="M100 0H0V100H100V0Z" fill="#FF9900"/>
<path d="M35.1429 42.3716L33.1143 44.4002L37.2858 48.5716H14.2858V51.4287H37.2858L33.1143 55.6002L35.1429 57.6287L42.7715 50.0002L35.1429 42.3716Z" fill="#232F3E"/>
<path d="M85.7144 48.5716H62.7144L66.8858 44.4002L64.8572 42.3716L57.2286 50.0002L64.8572 57.6287L66.8858 55.6002L62.7144 51.4287H85.7144V48.5716Z" fill="#232F3E"/>
<path d="M48.5713 18.9716V41.9716H51.4285V18.9716L55.5999 23.143L57.6285 21.1144L49.9999 13.4858L42.3713 21.1144L44.3999 23.143L48.5713 18.9716Z" fill="#232F3E"/>
<path d="M51.4285 81.0288V58.0288H48.5713V81.0288L44.3999 76.8574L42.3713 78.886L49.9999 86.5145L57.6285 78.886L55.5999 76.8574L51.4285 81.0288Z" fill="#232F3E"/>
</g>
<defs>
<clipPath id="clip0_0_713">
<rect width="100" height="100" fill="white"/>
</clipPath>
</defs>
</svg>
