<svg width="100" height="100" viewBox="0 0 100 100" fill="none" xmlns="http://www.w3.org/2000/svg">
<g clip-path="url(#clip0_0_720)">
<path d="M100 0H0V100H100V0Z" fill="#FF4F8B"/>
<path d="M70 65.7139H30.0001V61.4282H41.4286C41.8075 61.4282 42.1709 61.2777 42.4388 61.0098C42.7067 60.7419 42.8572 60.3785 42.8572 59.9997V52.8568C42.8572 52.4779 42.7067 52.1146 42.4388 51.8466C42.1709 51.5787 41.8075 51.4282 41.4286 51.4282H30.0001V48.5711H41.4286C41.8075 48.5711 42.1709 48.4206 42.4388 48.1527C42.7067 47.8848 42.8572 47.5214 42.8572 47.1425V39.9997C42.8572 39.6208 42.7067 39.2574 42.4388 38.9895C42.1709 38.7216 41.8075 38.5711 41.4286 38.5711H30.0001V34.2854H70V41.4282H72.8572V32.8568C72.8572 32.4779 72.7067 32.1146 72.4388 31.8466C72.1709 31.5787 71.8075 31.4282 71.4286 31.4282H51.4286V28.5711C53.163 28.2171 54.7041 27.2317 55.7532 25.806C56.8023 24.3802 57.2846 22.6158 57.1067 20.8546C56.9288 19.0935 56.1033 17.4611 54.7903 16.274C53.4772 15.0869 51.7702 14.4297 50 14.4297C48.2299 14.4297 46.5229 15.0869 45.2098 16.274C43.8968 17.4611 43.0713 19.0935 42.8934 20.8546C42.7155 22.6158 43.1978 24.3802 44.2469 25.806C45.296 27.2317 46.8371 28.2171 48.5715 28.5711V31.4282H28.5715C28.1926 31.4282 27.8292 31.5787 27.5613 31.8466C27.2934 32.1146 27.1429 32.4779 27.1429 32.8568V38.5711H15.7143C15.3355 38.5711 14.9721 38.7216 14.7042 38.9895C14.4363 39.2574 14.2858 39.6208 14.2858 39.9997V47.1425C14.2858 47.5214 14.4363 47.8848 14.7042 48.1527C14.9721 48.4206 15.3355 48.5711 15.7143 48.5711H27.1429V51.4282H15.7143C15.3355 51.4282 14.9721 51.5787 14.7042 51.8466C14.4363 52.1146 14.2858 52.4779 14.2858 52.8568V59.9997C14.2858 60.3785 14.4363 60.7419 14.7042 61.0098C14.9721 61.2777 15.3355 61.4282 15.7143 61.4282H27.1429V67.1425C27.1429 67.5214 27.2934 67.8848 27.5613 68.1527C27.8292 68.4206 28.1926 68.5711 28.5715 68.5711H48.5715V71.5711C46.8371 71.9251 45.296 72.9105 44.2469 74.3362C43.1978 75.7619 42.7155 77.5264 42.8934 79.2876C43.0713 81.0487 43.8968 82.681 45.2098 83.8681C46.5229 85.0552 48.2299 85.7125 50 85.7125C51.7702 85.7125 53.4772 85.0552 54.7903 83.8681C56.1033 82.681 56.9288 81.0487 57.1067 79.2876C57.2846 77.5264 56.8023 75.7619 55.7532 74.3362C54.7041 72.9105 53.163 71.9251 51.4286 71.5711V68.5711H71.4286C71.8075 68.5711 72.1709 68.4206 72.4388 68.1527C72.7067 67.8848 72.8572 67.5214 72.8572 67.1425V59.9997H70V65.7139ZM45.7143 21.4282C45.7143 20.5806 45.9657 19.752 46.4366 19.0472C46.9075 18.3424 47.5769 17.7931 48.36 17.4687C49.1431 17.1444 50.0048 17.0595 50.8362 17.2249C51.6675 17.3902 52.4311 17.7984 53.0305 18.3978C53.6299 18.9971 54.0381 19.7608 54.2034 20.5921C54.3688 21.4235 54.2839 22.2852 53.9595 23.0683C53.6352 23.8514 53.0858 24.5208 52.3811 24.9917C51.6763 25.4626 50.8477 25.7139 50 25.7139C48.8634 25.7139 47.7733 25.2624 46.9696 24.4587C46.1659 23.655 45.7143 22.5649 45.7143 21.4282ZM17.1429 41.4282H40.0001V45.7139H17.1429V41.4282ZM17.1429 54.2854H40.0001V58.5711H17.1429V54.2854ZM54.2858 78.5711C54.2858 79.4187 54.0344 80.2473 53.5635 80.9521C53.0926 81.6569 52.4232 82.2062 51.6401 82.5306C50.857 82.8549 49.9953 82.9398 49.164 82.7745C48.3326 82.6091 47.569 82.2009 46.9696 81.6015C46.3702 81.0022 45.962 80.2385 45.7967 79.4072C45.6313 78.5758 45.7162 77.7141 46.0406 76.931C46.3649 76.1479 46.9143 75.4786 47.619 75.0076C48.3238 74.5367 49.1524 74.2854 50 74.2854C51.1367 74.2854 52.2268 74.7369 53.0305 75.5406C53.8342 76.3444 54.2858 77.4344 54.2858 78.5711Z" fill="#232F3E"/>
<path d="M84.2858 44.2861H55.7143C55.3355 44.2861 54.9721 44.4366 54.7042 44.7046C54.4363 44.9725 54.2858 45.3358 54.2858 45.7147V55.7147C54.2858 56.0936 54.4363 56.457 54.7042 56.7249C54.9721 56.9928 55.3355 57.1433 55.7143 57.1433H84.2858C84.6646 57.1433 85.028 56.9928 85.2959 56.7249C85.5638 56.457 85.7143 56.0936 85.7143 55.7147V45.7147C85.7143 45.3358 85.5638 44.9725 85.2959 44.7046C85.028 44.4366 84.6646 44.2861 84.2858 44.2861ZM82.8572 54.2861H57.1429V47.1433H82.8572V54.2861Z" fill="#232F3E"/>
</g>
<defs>
<clipPath id="clip0_0_720">
<rect width="100" height="100" fill="white"/>
</clipPath>
</defs>
</svg>
