<svg width="100" height="100" viewBox="0 0 100 100" fill="none" xmlns="http://www.w3.org/2000/svg">
<g clip-path="url(#clip0_0_724)">
<path d="M100 0H0V100H100V0Z" fill="#8FA7C4"/>
<path d="M72.3142 37.8576H61.8571V15.7147C61.8571 15.3358 61.7066 14.9725 61.4387 14.7046C61.1708 14.4366 60.8074 14.2861 60.4285 14.2861H39.5714C39.1925 14.2861 38.8291 14.4366 38.5612 14.7046C38.2933 14.9725 38.1428 15.3358 38.1428 15.7147V37.8576H27.6857C27.3068 37.8576 26.9434 38.0081 26.6755 38.276C26.4076 38.5439 26.2571 38.9073 26.2571 39.2861V84.2861C26.2571 84.665 26.4076 85.0284 26.6755 85.2963C26.9434 85.5642 27.3068 85.7147 27.6857 85.7147H72.3142C72.6931 85.7147 73.0565 85.5642 73.3244 85.2963C73.5923 85.0284 73.7428 84.665 73.7428 84.2861V39.2861C73.7428 38.9073 73.5923 38.5439 73.3244 38.276C73.0565 38.0081 72.6931 37.8576 72.3142 37.8576ZM70.8857 82.8576H29.1142V40.7147H39.5714C39.9503 40.7147 40.3136 40.5642 40.5815 40.2963C40.8494 40.0284 40.9999 39.665 40.9999 39.2861V17.1433H58.9999V39.2861C58.9999 39.665 59.1504 40.0284 59.4184 40.2963C59.6863 40.5642 60.0496 40.7147 60.4285 40.7147H70.8857V82.8576Z" fill="#232F3E"/>
<path d="M38.2286 46.5996H35.3715V54.0282H38.2286V46.5996Z" fill="#232F3E"/>
<path d="M38.2286 58.5146H35.3715V65.9432H38.2286V58.5146Z" fill="#232F3E"/>
<path d="M38.2286 70.4287H35.3715V77.8573H38.2286V70.4287Z" fill="#232F3E"/>
<path d="M51.6285 46.5996H48.7714V54.0282H51.6285V46.5996Z" fill="#232F3E"/>
<path d="M51.6285 58.5146H48.7714V65.9432H51.6285V58.5146Z" fill="#232F3E"/>
<path d="M51.6285 70.4287H48.7714V77.8573H51.6285V70.4287Z" fill="#232F3E"/>
<path d="M65.0285 46.5996H62.1714V54.0282H65.0285V46.5996Z" fill="#232F3E"/>
<path d="M65.0285 58.5146H62.1714V65.9432H65.0285V58.5146Z" fill="#232F3E"/>
<path d="M65.0285 70.4287H62.1714V77.8573H65.0285V70.4287Z" fill="#232F3E"/>
<path d="M51.6285 23.7432H48.7714V31.1717H51.6285V23.7432Z" fill="#232F3E"/>
<path d="M51.6285 35.6572H48.7714V43.0858H51.6285V35.6572Z" fill="#232F3E"/>
</g>
<defs>
<clipPath id="clip0_0_724">
<rect width="100" height="100" fill="white"/>
</clipPath>
</defs>
</svg>
