<svg width="100" height="100" viewBox="0 0 100 100" fill="none" xmlns="http://www.w3.org/2000/svg">
<g clip-path="url(#clip0_0_738)">
<path d="M100 0H0V100H100V0Z" fill="#FF9900"/>
<path d="M84.2857 33.4858V30.6286H77.5714V22.4286H68.9999V15.7144H66.1428V22.4286H59.9999V15.7144H57.1428V22.4286H51.0857V15.7144H48.2285V22.4286H42.1142V15.7144H39.2571V22.4286H33.1428V15.7144H30.2857V22.4286H22.4285V30.6286H15.7142V33.4858H22.4285V39.6001H15.7142V42.4572H22.4285V48.5715H15.7142V51.4286H22.4285V57.5429H15.7142V60.4001H22.4285V66.5144H15.7142V69.3715H22.4285V77.5715H30.2857V84.2858H33.1428V77.5715H39.2571V84.2858H42.1142V77.5715H48.2285V84.2858H51.0857V77.5715H57.1428V84.2858H59.9999V77.5715H66.1142V84.2858H68.9714V77.5715H77.5428V69.3715H84.2857V66.5144H77.5714V60.4001H84.2857V57.5429H77.5714V51.4286H84.2857V48.5715H77.5714V42.4572H84.2857V39.6001H77.5714V33.4858H84.2857ZM74.7142 74.7144H25.2857V25.2858H74.7142V74.7144Z" fill="#232F3E"/>
</g>
<defs>
<clipPath id="clip0_0_738">
<rect width="100" height="100" fill="white"/>
</clipPath>
</defs>
</svg>
