<svg width="100" height="100" viewBox="0 0 100 100" fill="none" xmlns="http://www.w3.org/2000/svg">
<g clip-path="url(#clip0_0_806)">
<path d="M100 0H0V100H100V0Z" fill="#D86613"/>
<path d="M71.4285 63.5427V60.6856C74.8571 60.6856 82.8571 59.657 82.8571 50.1141C82.8571 44.3998 79.4856 40.7998 72.8571 39.4856C72.5504 39.4188 72.2736 39.2548 72.0677 39.018C71.8617 38.7812 71.7378 38.4842 71.7142 38.1713C71.3999 32.457 68.1428 30.5998 65.4856 30.5998C64.5767 30.5962 63.68 30.8095 62.8701 31.222C62.0601 31.6344 61.3602 32.2341 60.8285 32.9713C60.6776 33.1781 60.4719 33.3385 60.2346 33.4344C59.9973 33.5304 59.7378 33.558 59.4856 33.5141C59.2314 33.4761 58.9918 33.3715 58.7911 33.2109C58.5904 33.0503 58.4357 32.8395 58.3428 32.5998C57.4094 29.9326 55.8858 27.5104 53.8856 25.5141C51.6991 23.2491 48.892 21.6808 45.8169 21.0062C42.7419 20.3317 39.536 20.581 36.6022 21.7227C33.6684 22.8645 31.1374 24.8479 29.3273 27.4237C27.5172 29.9994 26.5087 33.0527 26.4285 36.1998C26.4323 36.8405 26.4801 37.48 26.5714 38.1141C26.6162 38.4639 26.5302 38.8179 26.3297 39.108C26.1293 39.3981 25.8286 39.6038 25.4856 39.6856C23.0806 40.1116 20.9109 41.3936 19.3774 43.2947C17.8439 45.1958 17.0501 47.5877 17.1428 50.0284C17.1285 50.2854 17.1285 50.5429 17.1428 50.7998C17.3964 53.5653 18.6973 56.1294 20.7794 57.9671C22.8615 59.8048 25.5672 60.7773 28.3428 60.6856H29.9713V63.5427H28.3714C24.862 63.6429 21.4474 62.3963 18.8281 60.0586C16.2088 57.7209 14.5835 54.4694 14.2856 50.9713C14.2856 50.657 14.2856 50.3427 14.2856 50.0284C14.144 47.138 14.9926 44.2857 16.6913 41.9428C18.3901 39.5999 20.8372 37.9066 23.6285 37.1427C23.6285 36.7998 23.6285 36.4284 23.6285 36.0856C23.7114 32.3805 24.8859 28.7823 27.0047 25.7418C29.1236 22.7012 32.0926 20.3536 35.5398 18.993C38.987 17.6325 42.7591 17.3194 46.3834 18.0932C50.0078 18.8669 53.3231 20.693 55.9142 23.3427C57.7189 25.1067 59.1816 27.1894 60.2285 29.4856C61.7403 28.2859 63.6128 27.6315 65.5428 27.6284C69.5428 27.6284 73.7428 30.4856 74.5142 36.7998C81.7999 38.5998 85.7713 43.257 85.7713 49.9998C85.7142 59.9998 78.3428 63.5427 71.4285 63.5427Z" fill="white"/>
<path d="M59.9996 49.0573C58.072 49.0707 56.2182 49.7998 54.7982 51.1033C53.3781 52.4067 52.4931 54.1914 52.3151 56.1107C52.137 58.0301 52.6786 59.9471 53.8347 61.4895C54.9908 63.0319 56.6788 64.0897 58.571 64.4573V70.7145H49.9996V46.343C51.9035 45.987 53.6058 44.9328 54.773 43.387C55.9402 41.8413 56.488 39.9154 56.3092 37.9867C56.1304 36.058 55.2379 34.2657 53.8065 32.9608C52.375 31.6559 50.5079 30.9326 48.571 30.9326C46.6341 30.9326 44.7669 31.6559 43.3355 32.9608C41.9041 34.2657 41.0115 36.058 40.8327 37.9867C40.6539 39.9154 41.2018 41.8413 42.369 43.387C43.5362 44.9328 45.2385 45.987 47.1424 46.343V63.4859H38.571V60.6288C40.4749 60.2727 42.1772 59.2185 43.3444 57.6727C44.5116 56.127 45.0595 54.2011 44.8807 52.2724C44.7019 50.3438 43.8093 48.5514 42.3779 47.2465C40.9465 45.9416 39.0793 45.2183 37.1424 45.2183C35.2055 45.2183 33.3384 45.9416 31.9069 47.2465C30.4755 48.5514 29.583 50.3438 29.4042 52.2724C29.2254 54.2011 29.7732 56.127 30.9404 57.6727C32.1076 59.2185 33.8099 60.2727 35.7138 60.6288V64.8002C35.7212 65.1768 35.874 65.5359 36.1404 65.8022C36.4067 66.0686 36.7658 66.2214 37.1424 66.2288H47.1424V81.9431H49.9996V73.3716H59.9996C60.3761 73.3643 60.7353 73.2114 61.0016 72.9451C61.268 72.6788 61.4208 72.3196 61.4281 71.943V64.4573C63.3203 64.0897 65.0084 63.0319 66.1644 61.4895C67.3205 59.9471 67.8621 58.0301 67.684 56.1107C67.506 54.1914 66.621 52.4067 65.201 51.1033C63.7809 49.7998 61.9271 49.0707 59.9996 49.0573ZM32.2281 53.2002C32.2281 52.2282 32.5163 51.2781 33.0563 50.47C33.5963 49.6618 34.3638 49.0319 35.2618 48.66C36.1598 48.288 37.1479 48.1907 38.1011 48.3803C39.0544 48.57 39.9301 49.038 40.6173 49.7253C41.3046 50.4125 41.7727 51.2882 41.9623 52.2415C42.1519 53.1947 42.0546 54.1828 41.6826 55.0808C41.3107 55.9788 40.6808 56.7463 39.8726 57.2863C39.0645 57.8263 38.1144 58.1145 37.1424 58.1145C35.8391 58.1145 34.5891 57.5967 33.6675 56.6751C32.7459 55.7535 32.2281 54.5035 32.2281 53.2002ZM43.6567 38.7145C43.6567 37.7425 43.9449 36.7924 44.4849 35.9842C45.0249 35.1761 45.7924 34.5462 46.6904 34.1743C47.5883 33.8023 48.5764 33.705 49.5297 33.8946C50.483 34.0842 51.3586 34.5523 52.0459 35.2395C52.7332 35.9268 53.2012 36.8025 53.3908 37.7557C53.5805 38.709 53.4831 39.6971 53.1112 40.5951C52.7392 41.4931 52.1094 42.2606 51.3012 42.8006C50.4931 43.3405 49.5429 43.6288 48.571 43.6288C47.2676 43.6288 46.0177 43.111 45.0961 42.1894C44.1745 41.2678 43.6567 40.0178 43.6567 38.7145ZM59.9996 61.743C59.0276 61.743 58.0775 61.4548 57.2693 60.9148C56.4612 60.3748 55.8313 59.6073 55.4593 58.7094C55.0874 57.8114 54.9901 56.8233 55.1797 55.87C55.3693 54.9168 55.8374 54.0411 56.5246 53.3538C57.2119 52.6666 58.0875 52.1985 59.0408 52.0089C59.9941 51.8193 60.9822 51.9166 61.8802 52.2886C62.7781 52.6605 63.5456 53.2904 64.0856 54.0985C64.6256 54.9067 64.9138 55.8568 64.9138 56.8288C64.9138 58.1321 64.3961 59.3821 63.4745 60.3037C62.5529 61.2253 61.3029 61.743 59.9996 61.743Z" fill="white"/>
</g>
<defs>
<clipPath id="clip0_0_806">
<rect width="100" height="100" fill="white"/>
</clipPath>
</defs>
</svg>
