<svg width="100" height="100" viewBox="0 0 100 100" fill="none" xmlns="http://www.w3.org/2000/svg">
<g clip-path="url(#clip0_0_741)">
<path d="M100 0H0V100H100V0Z" fill="#FF9900"/>
<path d="M71.4285 63.5427V60.6856C74.8571 60.6856 82.8571 59.657 82.8571 50.1141C82.8571 44.3998 79.4856 40.7998 72.8571 39.4856C72.5504 39.4188 72.2736 39.2548 72.0677 39.018C71.8617 38.7812 71.7378 38.4842 71.7142 38.1713C71.3999 32.457 68.1428 30.5998 65.4856 30.5998C64.5767 30.5962 63.68 30.8095 62.8701 31.222C62.0601 31.6344 61.3602 32.2341 60.8285 32.9713C60.6776 33.1781 60.4719 33.3385 60.2346 33.4344C59.9973 33.5304 59.7378 33.558 59.4856 33.5141C59.2314 33.4761 58.9918 33.3715 58.7911 33.2109C58.5904 33.0503 58.4357 32.8395 58.3428 32.5998C57.4094 29.9326 55.8858 27.5104 53.8856 25.5141C51.6991 23.2491 48.892 21.6808 45.8169 21.0062C42.7419 20.3317 39.536 20.581 36.6022 21.7227C33.6684 22.8645 31.1374 24.8479 29.3273 27.4237C27.5172 29.9994 26.5087 33.0527 26.4285 36.1998C26.4323 36.8405 26.4801 37.48 26.5714 38.1141C26.6162 38.4639 26.5302 38.8179 26.3297 39.108C26.1293 39.3981 25.8286 39.6038 25.4856 39.6856C23.0806 40.1116 20.9109 41.3936 19.3774 43.2947C17.8439 45.1958 17.0501 47.5877 17.1428 50.0284C17.1285 50.2854 17.1285 50.5429 17.1428 50.7998C17.3964 53.5653 18.6973 56.1294 20.7794 57.9671C22.8615 59.8048 25.5672 60.7773 28.3428 60.6856H29.9713V63.5427H28.3714C24.862 63.6429 21.4474 62.3963 18.8281 60.0586C16.2088 57.7209 14.5835 54.4694 14.2856 50.9713C14.2856 50.657 14.2856 50.3427 14.2856 50.0284C14.144 47.138 14.9926 44.2857 16.6913 41.9428C18.3901 39.5999 20.8372 37.9066 23.6285 37.1427C23.6285 36.7998 23.6285 36.4284 23.6285 36.0856C23.7114 32.3805 24.8859 28.7823 27.0047 25.7418C29.1236 22.7012 32.0926 20.3536 35.5398 18.993C38.987 17.6325 42.7591 17.3194 46.3834 18.0932C50.0078 18.8669 53.3231 20.693 55.9142 23.3427C57.7189 25.1067 59.1816 27.1894 60.2285 29.4856C61.7403 28.2859 63.6128 27.6315 65.5428 27.6284C69.5428 27.6284 73.7428 30.4856 74.5142 36.7998C81.7999 38.5998 85.7713 43.257 85.7713 49.9998C85.7142 59.9998 78.3428 63.5427 71.4285 63.5427Z" fill="#232F3E"/>
<path d="M60.0001 49.0573C58.0725 49.0707 56.2187 49.7998 54.7987 51.1033C53.3786 52.4067 52.4936 54.1914 52.3156 56.1107C52.1375 58.0301 52.6791 59.9471 53.8352 61.4895C54.9913 63.0319 56.6793 64.0897 58.5715 64.4573V70.7145H50V46.343C51.904 45.987 53.6063 44.9328 54.7735 43.387C55.9407 41.8413 56.4885 39.9154 56.3097 37.9867C56.1309 36.058 55.2384 34.2657 53.8069 32.9608C52.3755 31.6559 50.5084 30.9326 48.5715 30.9326C46.6346 30.9326 44.7674 31.6559 43.336 32.9608C41.9046 34.2657 41.012 36.058 40.8332 37.9867C40.6544 39.9154 41.2023 41.8413 42.3695 43.387C43.5367 44.9328 45.239 45.987 47.1429 46.343V63.4859H38.5715V60.6288C40.4754 60.2727 42.1777 59.2185 43.3449 57.6727C44.5121 56.127 45.0599 54.2011 44.8812 52.2724C44.7024 50.3438 43.8098 48.5514 42.3784 47.2465C40.9469 45.9416 39.0798 45.2183 37.1429 45.2183C35.206 45.2183 33.3389 45.9416 31.9074 47.2465C30.476 48.5514 29.5834 50.3438 29.4047 52.2724C29.2259 54.2011 29.7737 56.127 30.9409 57.6727C32.1081 59.2185 33.8104 60.2727 35.7143 60.6288V64.8002C35.7216 65.1768 35.8745 65.5359 36.1408 65.8022C36.4072 66.0686 36.7663 66.2214 37.1429 66.2288H47.1429V81.9431H50V73.3716H60.0001C60.3766 73.3643 60.7358 73.2114 61.0021 72.9451C61.2685 72.6788 61.4213 72.3196 61.4286 71.943V64.4573C63.3208 64.0897 65.0088 63.0319 66.1649 61.4895C67.321 59.9471 67.8626 58.0301 67.6845 56.1107C67.5065 54.1914 66.6215 52.4067 65.2014 51.1033C63.7814 49.7998 61.9276 49.0707 60.0001 49.0573ZM32.2286 53.2002C32.2286 52.2282 32.5168 51.2781 33.0568 50.47C33.5968 49.6618 34.3643 49.0319 35.2623 48.66C36.1603 48.288 37.1484 48.1907 38.1016 48.3803C39.0549 48.57 39.9306 49.038 40.6178 49.7253C41.3051 50.4125 41.7731 51.2882 41.9628 52.2415C42.1524 53.1947 42.0551 54.1828 41.6831 55.0808C41.3112 55.9788 40.6813 56.7463 39.8731 57.2863C39.065 57.8263 38.1149 58.1145 37.1429 58.1145C35.8396 58.1145 34.5896 57.5967 33.668 56.6751C32.7464 55.7535 32.2286 54.5035 32.2286 53.2002ZM43.6572 38.7145C43.6572 37.7425 43.9454 36.7924 44.4854 35.9842C45.0254 35.1761 45.7929 34.5462 46.6909 34.1743C47.5888 33.8023 48.5769 33.705 49.5302 33.8946C50.4835 34.0842 51.3591 34.5523 52.0464 35.2395C52.7337 35.9268 53.2017 36.8025 53.3913 37.7557C53.581 38.709 53.4836 39.6971 53.1117 40.5951C52.7397 41.4931 52.1099 42.2606 51.3017 42.8006C50.4936 43.3405 49.5434 43.6288 48.5715 43.6288C47.2681 43.6288 46.0182 43.111 45.0966 42.1894C44.1749 41.2678 43.6572 40.0178 43.6572 38.7145ZM60.0001 61.743C59.0281 61.743 58.078 61.4548 57.2698 60.9148C56.4617 60.3748 55.8318 59.6073 55.4598 58.7094C55.0879 57.8114 54.9906 56.8233 55.1802 55.87C55.3698 54.9168 55.8379 54.0411 56.5251 53.3538C57.2124 52.6666 58.088 52.1985 59.0413 52.0089C59.9946 51.8193 60.9827 51.9166 61.8807 52.2886C62.7786 52.6605 63.5461 53.2904 64.0861 54.0985C64.6261 54.9067 64.9143 55.8568 64.9143 56.8288C64.9143 58.1321 64.3966 59.3821 63.475 60.3037C62.5534 61.2253 61.3034 61.743 60.0001 61.743Z" fill="#232F3E"/>
</g>
<defs>
<clipPath id="clip0_0_741">
<rect width="100" height="100" fill="white"/>
</clipPath>
</defs>
</svg>
