<svg width="100" height="100" viewBox="0 0 100 100" fill="none" xmlns="http://www.w3.org/2000/svg">
<g clip-path="url(#clip0_0_810)">
<path d="M100 0H0V100H100V0Z" fill="#147EBA"/>
<path d="M78.2859 52.4003L67.6573 39.2574L78.2859 26.086H31.5716V22.3717C32.3985 22.1018 33.1194 21.5784 33.6322 20.8759C34.145 20.1733 34.4237 19.3272 34.4288 18.4574C34.3419 17.407 33.8633 16.4276 33.0879 15.7137C32.3125 14.9998 31.297 14.6035 30.243 14.6035C29.1891 14.6035 28.1736 14.9998 27.3982 15.7137C26.6228 16.4276 26.1442 17.407 26.0573 18.4574C26.058 19.3283 26.335 20.1764 26.8484 20.8798C27.3619 21.5832 28.0853 22.1056 28.9145 22.3717V82.8574H21.7145V85.7145H38.6002V82.8574H31.5716V52.4003H78.2859ZM30.1431 17.1431C30.411 17.1375 30.6745 17.2121 30.8996 17.3575C31.1248 17.5028 31.3013 17.7122 31.4065 17.9588C31.5116 18.2053 31.5406 18.4776 31.4897 18.7407C31.4388 19.0038 31.3104 19.2457 31.1209 19.4352C30.9314 19.6247 30.6895 19.7532 30.4264 19.8041C30.1632 19.855 29.8909 19.826 29.6444 19.7208C29.3979 19.6157 29.1885 19.4392 29.0431 19.214C28.8978 18.9888 28.8231 18.7253 28.8288 18.4574C28.8361 18.1111 28.9769 17.781 29.2218 17.5361C29.4667 17.2912 29.7968 17.1504 30.1431 17.1431ZM72.2859 28.9431L63.9716 39.2574L72.2859 49.5431H31.5716V28.9431H72.2859Z" fill="white"/>
</g>
<defs>
<clipPath id="clip0_0_810">
<rect width="100" height="100" fill="white"/>
</clipPath>
</defs>
</svg>
