<svg width="100" height="100" viewBox="0 0 100 100" fill="none" xmlns="http://www.w3.org/2000/svg">
<g clip-path="url(#clip0_0_745)">
<path d="M100 0H0V100H100V0Z" fill="#19A2C7"/>
<path d="M78.2857 52.4003L67.6571 39.2574L78.2857 26.086H31.5714V22.3717C32.3982 22.1018 33.1192 21.5784 33.632 20.8759C34.1448 20.1733 34.4235 19.3272 34.4285 18.4574C34.3417 17.407 33.863 16.4276 33.0877 15.7137C32.3123 14.9998 31.2968 14.6035 30.2428 14.6035C29.1888 14.6035 28.1733 14.9998 27.398 15.7137C26.6226 16.4276 26.1439 17.407 26.0571 18.4574C26.0578 19.3283 26.3348 20.1764 26.8482 20.8798C27.3616 21.5832 28.085 22.1056 28.9142 22.3717V82.8574H21.7142V85.7145H38.5999V82.8574H31.5714V52.4003H78.2857ZM30.1428 17.1431C30.4107 17.1375 30.6742 17.2121 30.8994 17.3575C31.1246 17.5028 31.3011 17.7122 31.4062 17.9588C31.5114 18.2053 31.5404 18.4776 31.4895 18.7407C31.4386 19.0038 31.3101 19.2457 31.1206 19.4352C30.9311 19.6247 30.6892 19.7532 30.4261 19.8041C30.163 19.855 29.8907 19.826 29.6442 19.7208C29.3976 19.6157 29.1882 19.4392 29.0429 19.214C28.8975 18.9888 28.8229 18.7253 28.8285 18.4574C28.8358 18.1111 28.9766 17.781 29.2215 17.5361C29.4664 17.2912 29.7965 17.1504 30.1428 17.1431ZM72.2857 28.9431L63.9714 39.2574L72.2857 49.5431H31.5714V28.9431H72.2857Z" fill="#232F3E"/>
</g>
<defs>
<clipPath id="clip0_0_745">
<rect width="100" height="100" fill="white"/>
</clipPath>
</defs>
</svg>
