<svg width="100" height="100" viewBox="0 0 100 100" fill="none" xmlns="http://www.w3.org/2000/svg">
<g clip-path="url(#clip0_0_748)">
<path d="M100 0H0V100H100V0Z" fill="#8FA7C4"/>
<path d="M70.0857 85.7147H29.9143C29.5354 85.7147 29.172 85.5642 28.9041 85.2963C28.6362 85.0284 28.4857 84.665 28.4857 84.2861V15.7147C28.4857 15.3358 28.6362 14.9725 28.9041 14.7046C29.172 14.4366 29.5354 14.2861 29.9143 14.2861H70.0857C70.4646 14.2861 70.828 14.4366 71.0959 14.7046C71.3638 14.9725 71.5143 15.3358 71.5143 15.7147V84.2861C71.5143 84.665 71.3638 85.0284 71.0959 85.2963C70.828 85.5642 70.4646 85.7147 70.0857 85.7147ZM31.4286 82.8576H68.5714V17.1433H31.4286V82.8576Z" fill="#232F3E"/>
<path d="M64.1429 24.5713H35.8572V27.4284H64.1429V24.5713Z" fill="#232F3E"/>
<path d="M64.1429 37.1143H35.8572V39.9714H64.1429V37.1143Z" fill="#232F3E"/>
<path d="M64.1429 49.6289H35.8572V52.486H64.1429V49.6289Z" fill="#232F3E"/>
</g>
<defs>
<clipPath id="clip0_0_748">
<rect width="100" height="100" fill="white"/>
</clipPath>
</defs>
</svg>
