<svg width="100" height="100" viewBox="0 0 100 100" fill="none" xmlns="http://www.w3.org/2000/svg">
<g clip-path="url(#clip0_0_813)">
<path d="M100 0H0V100H100V0Z" fill="#5A6C86"/>
<path d="M70.0861 85.7147H29.9147C29.5358 85.7147 29.1724 85.5642 28.9045 85.2963C28.6366 85.0284 28.4861 84.665 28.4861 84.2861V15.7147C28.4861 15.3358 28.6366 14.9725 28.9045 14.7046C29.1724 14.4366 29.5358 14.2861 29.9147 14.2861H70.0861C70.465 14.2861 70.8283 14.4366 71.0962 14.7046C71.3641 14.9725 71.5147 15.3358 71.5147 15.7147V84.2861C71.5147 84.665 71.3641 85.0284 71.0962 85.2963C70.8283 85.5642 70.465 85.7147 70.0861 85.7147ZM31.4289 82.8576H68.5718V17.1433H31.4289V82.8576Z" fill="white"/>
<path d="M64.1425 24.5713H35.8568V27.4284H64.1425V24.5713Z" fill="white"/>
<path d="M64.1425 37.1143H35.8568V39.9714H64.1425V37.1143Z" fill="white"/>
<path d="M64.1425 49.6289H35.8568V52.486H64.1425V49.6289Z" fill="white"/>
</g>
<defs>
<clipPath id="clip0_0_813">
<rect width="100" height="100" fill="white"/>
</clipPath>
</defs>
</svg>
