<svg width="100" height="100" viewBox="0 0 100 100" fill="none" xmlns="http://www.w3.org/2000/svg">
<g clip-path="url(#clip0_0_819)">
<path d="M100 0H0V100H100V0Z" fill="#D86613"/>
<path d="M60.0004 56.7714V43.3429C60.008 42.9066 59.9286 42.4732 59.7669 42.0679C59.6051 41.6627 59.3643 41.2937 59.0585 40.9825C58.7526 40.6713 58.3878 40.4241 57.9854 40.2555C57.583 40.0868 57.151 39.9999 56.7147 40H43.2861C42.8498 39.9999 42.4178 40.0868 42.0154 40.2555C41.6129 40.4241 41.2482 40.6713 40.9423 40.9825C40.6364 41.2937 40.3956 41.6627 40.2339 42.0679C40.0722 42.4732 39.9928 42.9066 40.0004 43.3429V56.7714C40.0226 57.6306 40.3776 58.4475 40.9906 59.0499C41.6037 59.6522 42.4267 59.9929 43.2861 60H56.7147C57.5741 59.9929 58.3971 59.6522 59.0101 59.0499C59.6231 58.4475 59.9782 57.6306 60.0004 56.7714ZM42.8575 56.7714V43.3429C42.8575 43.2292 42.9027 43.1202 42.983 43.0398C43.0634 42.9594 43.1724 42.9143 43.2861 42.9143H56.7147C56.8283 42.9143 56.9373 42.9594 57.0177 43.0398C57.0981 43.1202 57.1432 43.2292 57.1432 43.3429V56.7714C57.1432 56.8851 57.0981 56.9941 57.0177 57.0745C56.9373 57.1549 56.8283 57.2 56.7147 57.2H43.2861C43.2298 57.2 43.1741 57.1889 43.1221 57.1674C43.0701 57.1458 43.0228 57.1143 42.983 57.0745C42.9432 57.0347 42.9117 56.9874 42.8901 56.9354C42.8686 56.8834 42.8575 56.8277 42.8575 56.7714Z" fill="white"/>
<path d="M38.5714 51.4284V48.5713H33.5143C32.9611 48.5713 32.4306 48.791 32.0395 49.1822C31.6483 49.5733 31.4286 50.1038 31.4286 50.657V66.457C31.4285 67.0128 31.6474 67.5463 32.0377 67.942C32.4281 68.3377 32.9585 68.5638 33.5143 68.5713H49.3429C49.8987 68.5638 50.4291 68.3377 50.8195 67.942C51.2098 67.5463 51.4286 67.0128 51.4286 66.457V61.4856H48.5714V65.7141H34.2857V51.4284H38.5714Z" fill="white"/>
<path d="M61.4286 48.5716V51.4287H66.4857C67.0415 51.4212 67.5719 51.1951 67.9623 50.7994C68.3526 50.4037 68.5715 49.8702 68.5714 49.3144V33.5716C68.5714 33.0184 68.3517 32.4879 67.9605 32.0967C67.5694 31.7056 67.0389 31.4858 66.4857 31.4858H50.6571C50.104 31.4858 49.5734 31.7056 49.1823 32.0967C48.7912 32.4879 48.5714 33.0184 48.5714 33.5716V38.5716H51.4286V34.2858H65.7143V48.5716H61.4286Z" fill="white"/>
<path d="M21.0019 19.0227L18.9816 21.043L37.5482 39.6096L39.5685 37.5893L21.0019 19.0227Z" fill="white"/>
<path d="M62.4484 60.4514L60.4281 62.4717L78.9947 81.0383L81.015 79.018L62.4484 60.4514Z" fill="white"/>
<path d="M29.0086 69.0322L19.0081 79.0327L21.0284 81.053L31.0289 71.0525L29.0086 69.0322Z" fill="white"/>
<path d="M79.0086 19.0361L69.0081 29.0366L71.0284 31.0569L81.0289 21.0564L79.0086 19.0361Z" fill="white"/>
<path d="M85.7143 48.5712H82.8572C82.6005 42.1549 80.4645 35.9553 76.7143 30.7427L74.3715 32.4284C77.8053 37.133 79.7643 42.7515 80.0001 48.5712H77.1429V51.4284H80.0001C79.7406 57.2486 77.751 62.8592 74.2858 67.5427L76.6286 69.2284C80.4055 64.0343 82.5716 57.8442 82.8572 51.4284H85.7143V48.5712Z" fill="white"/>
<path d="M32.4286 25.7142C37.1306 22.2636 42.7457 20.2759 48.5715 19.9999V22.8571H51.4286V19.9999C57.2544 20.2759 62.8695 22.2636 67.5715 25.7142L69.2286 23.3999C64.0458 19.5976 57.8507 17.4199 51.4286 17.1428V14.2856H48.5715V17.1428C42.1615 17.3865 35.9674 19.5241 30.7715 23.2856L32.4286 25.7142Z" fill="white"/>
<path d="M67.5715 74.2856C62.8623 77.7228 57.2514 79.7089 51.4286 79.9999V77.1428H48.5715V79.9999C42.7487 79.7089 37.1378 77.7228 32.4286 74.2856L30.7715 76.5999C35.9567 80.3976 42.1504 82.5749 48.5715 82.8571V85.7142H51.4286V82.8571C57.8407 82.5999 64.0335 80.4528 69.2286 76.6856L67.5715 74.2856Z" fill="white"/>
<path d="M23.3429 69.2855L25.7143 67.5998C22.2384 62.9004 20.2483 57.2683 20.0001 51.4284H22.8572V48.5712H20.0001C20.2608 42.7425 22.25 37.1231 25.7143 32.4284L23.3715 30.7427C19.5908 35.9456 17.4247 42.146 17.1429 48.5712H14.2858V51.4284H17.1429C17.4091 57.8609 19.5656 64.0721 23.3429 69.2855Z" fill="white"/>
</g>
<defs>
<clipPath id="clip0_0_819">
<rect width="100" height="100" fill="white"/>
</clipPath>
</defs>
</svg>
