<svg width="100" height="100" viewBox="0 0 100 100" fill="none" xmlns="http://www.w3.org/2000/svg">
<g clip-path="url(#clip0_0_767)">
<path d="M100 0H0V100H100V0Z" fill="#6CAE3E"/>
<path d="M56.7142 50.5432H54.5999V48.5718C54.4938 47.0187 53.802 45.5638 52.6644 44.5013C51.5267 43.4387 50.0281 42.8477 48.4714 42.8477C46.9146 42.8477 45.416 43.4387 44.2783 44.5013C43.1407 45.5638 42.4489 47.0187 42.3428 48.5718V50.4861H40.2285C39.8496 50.4861 39.4863 50.6366 39.2183 50.9045C38.9504 51.1724 38.7999 51.5358 38.7999 51.9147V62.8575C38.7999 63.2364 38.9504 63.5998 39.2183 63.8677C39.4863 64.1356 39.8496 64.2861 40.2285 64.2861H56.7142C57.0931 64.2861 57.4565 64.1356 57.7244 63.8677C57.9923 63.5998 58.1428 63.2364 58.1428 62.8575V51.9718C58.1428 51.5929 57.9923 51.2296 57.7244 50.9617C57.4565 50.6938 57.0931 50.5432 56.7142 50.5432ZM45.2856 48.629C45.3619 47.8141 45.7395 47.057 46.3446 46.5059C46.9497 45.9548 47.7386 45.6493 48.5571 45.6493C49.3755 45.6493 50.1645 45.9548 50.7696 46.5059C51.3746 47.057 51.7523 47.8141 51.8285 48.629V50.5432H45.1999L45.2856 48.629ZM55.3714 61.2861H41.6571V53.4004H55.2856L55.3714 61.2861Z" fill="#232F3E"/>
<path d="M75.4857 45.971C75.4108 43.8806 74.7124 41.8603 73.4802 40.17C72.2481 38.4796 70.5386 37.1964 68.5714 36.4853C67.2218 36.094 65.7968 36.0404 64.4217 36.3294C63.0466 36.6184 61.7636 37.241 60.6857 38.1424C59.5741 35.6428 58.0152 33.3674 56.0857 31.4281C53.3282 28.5672 49.7588 26.6221 45.8599 25.8556C41.9611 25.0891 37.9209 25.5383 34.2857 27.1424C30.8741 28.7654 27.9818 31.3063 25.933 34.4805C23.8842 37.6546 22.7597 41.3366 22.6857 45.1138C22.6857 45.5424 22.6857 45.9424 22.6857 46.3424C19.7446 47.1723 17.1717 48.9744 15.3867 51.4548C13.6017 53.9351 12.71 56.9472 12.8571 59.9996C12.8571 60.371 12.8571 60.771 12.8571 61.1424C13.1534 64.7976 14.825 68.2043 17.5346 70.6753C20.2443 73.1463 23.7902 74.4976 27.4571 74.4567H73.8857C73.8857 74.4567 87.1428 73.3138 87.1428 59.9996C87.1968 56.654 86.0507 53.3998 83.9123 50.8264C81.7739 48.253 78.7845 46.5305 75.4857 45.971ZM73.8 71.6853H27.4857C24.5412 71.7313 21.6895 70.6557 19.5088 68.6766C17.3282 66.6976 15.9818 63.9632 15.7428 61.0281C15.7428 60.7138 15.7428 60.3996 15.7428 60.0853C15.597 57.4699 16.4016 54.8899 18.0083 52.8211C19.6151 50.7523 21.9156 49.3342 24.4857 48.8281C24.8202 48.7351 25.1106 48.5257 25.3044 48.2376C25.4982 47.9495 25.5828 47.6016 25.5428 47.2567C25.4994 46.5621 25.4994 45.8655 25.5428 45.171C25.631 41.958 26.5959 38.8302 28.3333 36.1259C30.0707 33.4217 32.5143 31.2439 35.4 29.8281C37.5611 28.8724 39.8942 28.3669 42.2571 28.3424C46.7713 28.4444 51.063 30.3233 54.2 33.571C56.3209 35.7472 57.9226 38.3746 58.8857 41.2567C58.9733 41.4989 59.1248 41.7128 59.3241 41.8759C59.5234 42.0391 59.7631 42.1453 60.0178 42.1833C60.2725 42.2214 60.5328 42.1899 60.7711 42.0922C61.0093 41.9944 61.2168 41.8341 61.3714 41.6281C62.0728 40.6172 63.0706 39.8489 64.2272 39.4293C65.3838 39.0096 66.6421 38.9593 67.8285 39.2853C69.3569 39.8999 70.6592 40.9698 71.5587 42.3498C72.4583 43.7298 72.9116 45.3532 72.8571 46.9996C72.7991 47.3629 72.8865 47.7345 73.1004 48.034C73.3143 48.3334 73.6374 48.5366 74 48.5996C76.8705 48.8852 79.5325 50.2276 81.4687 52.366C83.4049 54.5045 84.4771 57.2862 84.4771 60.171C84.4771 63.0557 83.4049 65.8375 81.4687 67.9759C79.5325 70.1144 76.8705 71.4568 74 71.7424L73.8 71.6853Z" fill="#232F3E"/>
</g>
<defs>
<clipPath id="clip0_0_767">
<rect width="100" height="100" fill="white"/>
</clipPath>
</defs>
</svg>
