<svg width="100" height="100" viewBox="0 0 100 100" fill="none" xmlns="http://www.w3.org/2000/svg">
<g clip-path="url(#clip0_0_832)">
<path d="M100 0H0V100H100V0Z" fill="#248814"/>
<path d="M56.7145 50.5432H54.6002V48.5718C54.4941 47.0187 53.8023 45.5638 52.6646 44.5013C51.527 43.4387 50.0283 42.8477 48.4716 42.8477C46.9149 42.8477 45.4162 43.4387 44.2786 44.5013C43.1409 45.5638 42.4491 47.0187 42.343 48.5718V50.4861H40.2287C39.8499 50.4861 39.4865 50.6366 39.2186 50.9045C38.9507 51.1724 38.8002 51.5358 38.8002 51.9147V62.8575C38.8002 63.2364 38.9507 63.5998 39.2186 63.8677C39.4865 64.1356 39.8499 64.2861 40.2287 64.2861H56.7145C57.0933 64.2861 57.4567 64.1356 57.7246 63.8677C57.9925 63.5998 58.143 63.2364 58.143 62.8575V51.9718C58.143 51.5929 57.9925 51.2296 57.7246 50.9617C57.4567 50.6938 57.0933 50.5432 56.7145 50.5432ZM45.2859 48.629C45.3621 47.8141 45.7397 47.057 46.3448 46.5059C46.9499 45.9548 47.7389 45.6493 48.5573 45.6493C49.3758 45.6493 50.1647 45.9548 50.7698 46.5059C51.3749 47.057 51.7525 47.8141 51.8287 48.629V50.5432H45.2002L45.2859 48.629ZM55.3716 61.2861H41.6573V53.4004H55.2859L55.3716 61.2861Z" fill="white"/>
<path d="M75.4859 45.971C75.411 43.8806 74.7126 41.8603 73.4805 40.17C72.2484 38.4796 70.5388 37.1964 68.5716 36.4853C67.2221 36.094 65.797 36.0404 64.4219 36.3294C63.0468 36.6184 61.7638 37.241 60.6859 38.1424C59.5743 35.6428 58.0154 33.3674 56.0859 31.4281C53.3285 28.5672 49.759 26.6221 45.8602 25.8556C41.9614 25.0891 37.9212 25.5383 34.2859 27.1424C30.8743 28.7654 27.9821 31.3063 25.9332 34.4805C23.8844 37.6546 22.76 41.3366 22.6859 45.1138C22.6859 45.5424 22.6859 45.9424 22.6859 46.3424C19.7449 47.1723 17.1719 48.9744 15.3869 51.4548C13.6019 53.9351 12.7102 56.9472 12.8574 59.9996C12.8574 60.371 12.8574 60.771 12.8574 61.1424C13.1537 64.7976 14.8253 68.2043 17.5349 70.6753C20.2445 73.1463 23.7905 74.4976 27.4574 74.4567H73.8859C73.8859 74.4567 87.1431 73.3138 87.1431 59.9996C87.197 56.654 86.051 53.3998 83.9126 50.8264C81.7741 48.253 78.7848 46.5305 75.4859 45.971ZM73.8002 71.6853H27.4859C24.5415 71.7313 21.6898 70.6557 19.5091 68.6766C17.3284 66.6976 15.9821 63.9632 15.7431 61.0281C15.7431 60.7138 15.7431 60.3996 15.7431 60.0853C15.5972 57.4699 16.4018 54.8899 18.0086 52.8211C19.6153 50.7523 21.9158 49.3342 24.4859 48.8281C24.8205 48.7351 25.1108 48.5257 25.3046 48.2376C25.4984 47.9495 25.583 47.6016 25.5431 47.2567C25.4997 46.5621 25.4997 45.8655 25.5431 45.171C25.6312 41.958 26.5962 38.8302 28.3335 36.1259C30.0709 33.4217 32.5146 31.2439 35.4002 29.8281C37.5613 28.8724 39.8945 28.3669 42.2574 28.3424C46.7715 28.4444 51.0632 30.3233 54.2002 33.571C56.3211 35.7472 57.9229 38.3746 58.8859 41.2567C58.9736 41.4989 59.1251 41.7128 59.3244 41.8759C59.5237 42.0391 59.7634 42.1453 60.0181 42.1833C60.2728 42.2214 60.5331 42.1899 60.7713 42.0922C61.0096 41.9944 61.217 41.8341 61.3716 41.6281C62.073 40.6172 63.0708 39.8489 64.2274 39.4293C65.384 39.0096 66.6424 38.9593 67.8288 39.2853C69.3571 39.8999 70.6594 40.9698 71.559 42.3498C72.4585 43.7298 72.9118 45.3532 72.8574 46.9996C72.7994 47.3629 72.8868 47.7345 73.1006 48.034C73.3145 48.3334 73.6377 48.5366 74.0002 48.5996C76.8708 48.8852 79.5327 50.2276 81.4689 52.366C83.4051 54.5045 84.4774 57.2862 84.4774 60.171C84.4774 63.0557 83.4051 65.8375 81.4689 67.9759C79.5327 70.1144 76.8708 71.4568 74.0002 71.7424L73.8002 71.6853Z" fill="white"/>
</g>
<defs>
<clipPath id="clip0_0_832">
<rect width="100" height="100" fill="white"/>
</clipPath>
</defs>
</svg>
