<svg width="100" height="100" viewBox="0 0 100 100" fill="none" xmlns="http://www.w3.org/2000/svg">
<g clip-path="url(#clip0_0_771)">
<path d="M100 0H0V100H100V0Z" fill="#19A2C7"/>
<path d="M50.0287 50.9425C48.3422 50.9319 46.712 51.5485 45.4545 52.6724C44.197 53.7963 43.4021 55.3474 43.224 57.0246C43.046 58.7017 43.4976 60.3851 44.491 61.748C45.4845 63.1109 46.949 64.0559 48.6002 64.3997V73.7997H51.4573V64.3997C53.1085 64.0559 54.573 63.1109 55.5664 61.748C56.5599 60.3851 57.0115 58.7017 56.8334 57.0246C56.6554 55.3474 55.8605 53.7963 54.603 52.6724C53.3455 51.5485 51.7153 50.9319 50.0287 50.9425ZM50.0287 61.6854C49.2489 61.6854 48.4866 61.4541 47.8382 61.0209C47.1898 60.5876 46.6844 59.9718 46.386 59.2514C46.0876 58.5309 46.0095 57.7381 46.1616 56.9733C46.3138 56.2085 46.6893 55.5059 47.2407 54.9545C47.7921 54.4031 48.4947 54.0276 49.2595 53.8754C50.0244 53.7233 50.8171 53.8014 51.5376 54.0998C52.2581 54.3982 52.8739 54.9036 53.3071 55.552C53.7404 56.2004 53.9716 56.9627 53.9716 57.7425C53.9716 58.2603 53.8696 58.773 53.6715 59.2514C53.4733 59.7298 53.1829 60.1644 52.8168 60.5305C52.4506 60.8967 52.016 61.1871 51.5376 61.3852C51.0592 61.5834 50.5465 61.6854 50.0287 61.6854Z" fill="#232F3E"/>
<path d="M64.9143 40.8573V33.2287C64.9143 29.2732 63.3429 25.4797 60.546 22.6827C57.749 19.8858 53.9555 18.3145 50 18.3145C46.0445 18.3145 42.2509 19.8858 39.454 22.6827C36.657 25.4797 35.0857 29.2732 35.0857 33.2287V40.8573H26.1143V81.6859H73.8857V40.8573H64.9143ZM37.9428 33.2287C37.9428 31.6454 38.2547 30.0775 38.8606 28.6147C39.4666 27.1518 40.3547 25.8227 41.4743 24.7031C42.5939 23.5834 43.9231 22.6953 45.3859 22.0894C46.8487 21.4835 48.4166 21.1716 50 21.1716C51.5833 21.1716 53.1512 21.4835 54.614 22.0894C56.0769 22.6953 57.406 23.5834 58.5257 24.7031C59.6453 25.8227 60.5334 27.1518 61.1393 28.6147C61.7452 30.0775 62.0571 31.6454 62.0571 33.2287V40.8573H37.9428V33.2287ZM71.0285 78.943H28.9714V43.7145H71.0285V78.943Z" fill="#232F3E"/>
</g>
<defs>
<clipPath id="clip0_0_771">
<rect width="100" height="100" fill="white"/>
</clipPath>
</defs>
</svg>
