<svg width="100" height="100" viewBox="0 0 100 100" fill="none" xmlns="http://www.w3.org/2000/svg">
<g clip-path="url(#clip0_0_840)">
<path d="M100 0H0V100H100V0Z" fill="#248814"/>
<path d="M50.0289 50.9425C48.3424 50.9319 46.7121 51.5485 45.4546 52.6724C44.1971 53.7963 43.4022 55.3474 43.2242 57.0246C43.0461 58.7017 43.4977 60.3851 44.4912 61.748C45.4846 63.1109 46.9491 64.0559 48.6003 64.3997V73.7997H51.4574V64.3997C53.1086 64.0559 54.5731 63.1109 55.5666 61.748C56.56 60.3851 57.0116 58.7017 56.8336 57.0246C56.6555 55.3474 55.8606 53.7963 54.6031 52.6724C53.3456 51.5485 51.7154 50.9319 50.0289 50.9425ZM50.0289 61.6854C49.249 61.6854 48.4867 61.4541 47.8383 61.0209C47.1899 60.5876 46.6846 59.9718 46.3861 59.2514C46.0877 58.5309 46.0096 57.7381 46.1618 56.9733C46.3139 56.2085 46.6894 55.5059 47.2408 54.9545C47.7923 54.4031 48.4948 54.0276 49.2597 53.8754C50.0245 53.7233 50.8173 53.8014 51.5377 54.0998C52.2582 54.3982 52.874 54.9036 53.3072 55.552C53.7405 56.2004 53.9717 56.9627 53.9717 57.7425C53.9717 58.2603 53.8697 58.773 53.6716 59.2514C53.4734 59.7298 53.183 60.1644 52.8169 60.5305C52.4508 60.8967 52.0161 61.1871 51.5377 61.3852C51.0594 61.5834 50.5466 61.6854 50.0289 61.6854Z" fill="white"/>
<path d="M64.9145 40.8573V33.2287C64.9145 29.2732 63.3432 25.4797 60.5462 22.6827C57.7492 19.8858 53.9557 18.3145 50.0002 18.3145C46.0447 18.3145 42.2512 19.8858 39.4542 22.6827C36.6573 25.4797 35.0859 29.2732 35.0859 33.2287V40.8573H26.1145V81.6859H73.8859V40.8573H64.9145ZM37.9431 33.2287C37.9431 31.6454 38.2549 30.0775 38.8609 28.6147C39.4668 27.1518 40.3549 25.8227 41.4745 24.7031C42.5941 23.5834 43.9233 22.6953 45.3861 22.0894C46.849 21.4835 48.4168 21.1716 50.0002 21.1716C51.5836 21.1716 53.1514 21.4835 54.6143 22.0894C56.0771 22.6953 57.4063 23.5834 58.5259 24.7031C59.6455 25.8227 60.5336 27.1518 61.1396 28.6147C61.7455 30.0775 62.0574 31.6454 62.0574 33.2287V40.8573H37.9431V33.2287ZM71.0288 78.943H28.9716V43.7145H71.0288V78.943Z" fill="white"/>
</g>
<defs>
<clipPath id="clip0_0_840">
<rect width="100" height="100" fill="white"/>
</clipPath>
</defs>
</svg>
