<svg width="100" height="100" viewBox="0 0 100 100" fill="none" xmlns="http://www.w3.org/2000/svg">
<g clip-path="url(#clip0_2385_6882)">
<path d="M100 0H0V100H100V0Z" fill="url(#paint0_linear_2385_6882)"/>
<path d="M64.6799 82.0002C64.3975 82.0012 64.122 81.9125 63.8932 81.7469C63.7209 81.6242 63.5803 81.4623 63.4829 81.2745C63.3855 81.0867 63.3342 80.8784 63.3333 80.6669V19.3335C63.3342 19.1057 63.3935 18.8819 63.5056 18.6835C63.6176 18.4851 63.7786 18.3187 63.9733 18.2002C64.17 18.0729 64.3969 17.9997 64.631 17.988C64.8651 17.9763 65.0981 18.0265 65.3066 18.1335L82.6399 26.6002C82.8623 26.7092 83.0499 26.8779 83.1818 27.0875C83.3137 27.2971 83.3846 27.5393 83.3866 27.7869V74.9069C83.4009 75.1993 83.3186 75.4883 83.1523 75.7293C82.986 75.9703 82.745 76.1498 82.4666 76.2402L65.1333 82.0002C64.9829 82.0219 64.8302 82.0219 64.6799 82.0002ZM66.0133 21.4802V78.8136L80.6799 73.9469V28.6135L66.0133 21.4802Z" fill="white"/>
<path d="M35.3333 82.0002C35.1917 82.0194 35.0482 82.0194 34.9066 82.0002L17.5733 76.2402C17.2973 76.1474 17.0593 75.9669 16.8956 75.7261C16.7318 75.4854 16.6514 75.1976 16.6666 74.9069V27.7869C16.6686 27.5393 16.7395 27.2971 16.8714 27.0875C17.0033 26.8779 17.1909 26.7092 17.4133 26.6002L34.7466 18.1335C34.9551 18.0265 35.1881 17.9763 35.4222 17.988C35.6563 17.9997 35.8832 18.0729 36.0799 18.2002C36.2721 18.3203 36.4305 18.4874 36.5401 18.6857C36.6498 18.884 36.7071 19.107 36.7066 19.3335V80.6669C36.7056 80.8784 36.6543 81.0867 36.557 81.2745C36.4596 81.4623 36.3189 81.6242 36.1466 81.7469C35.9134 81.9237 35.6256 82.0133 35.3333 82.0002ZM19.3333 74.0002L33.9999 78.8669V21.5335L19.3333 28.6935V74.0002Z" fill="white"/>
<path d="M63.3333 36.6667H59.3333V34H63.3333V36.6667ZM55.3333 36.6667H51.3333V34H55.3333V36.6667ZM47.3333 36.6667H43.3333V34H47.3333V36.6667ZM39.3333 36.6667H35.3333V34H39.3333V36.6667Z" fill="white"/>
<path d="M63.3333 66.0002H59.3333V63.3335H63.3333V66.0002ZM55.3333 66.0002H51.3333V63.3335H55.3333V66.0002ZM47.3333 66.0002H43.3333V63.3335H47.3333V66.0002ZM39.3333 66.0002H35.3333V63.3335H39.3333V66.0002Z" fill="white"/>
<path d="M44.1466 54.5867L39.1333 50.3067C38.9869 50.1815 38.8694 50.0261 38.7888 49.8512C38.7082 49.6762 38.6665 49.4859 38.6665 49.2933C38.6665 49.1007 38.7082 48.9104 38.7888 48.7355C38.8694 48.5606 38.9869 48.4052 39.1333 48.28L44.1333 44L45.8666 46.0267L42.0533 49.3333L45.8666 52.6L44.1466 54.5867Z" fill="white"/>
<path d="M55.8665 54.5867L54.1332 52.56L57.9465 49.3333L54.1199 46.08L55.8532 44L60.8665 48.2667C61.0129 48.3918 61.1304 48.5472 61.211 48.7222C61.2916 48.8971 61.3333 49.0874 61.3333 49.28C61.3333 49.4726 61.2916 49.6629 61.211 49.8378C61.1304 50.0128 61.0129 50.1682 60.8665 50.2933L55.8665 54.5867Z" fill="white"/>
<path d="M51.378 41.7234L46.0784 57.3984L48.6046 58.2525L53.9042 42.5775L51.378 41.7234Z" fill="white"/>
</g>
<defs>
<linearGradient id="paint0_linear_2385_6882" x1="-20.72" y1="120.72" x2="120.707" y2="-20.7067" gradientUnits="userSpaceOnUse">
<stop stop-color="#BD0816"/>
<stop offset="1" stop-color="#FF5252"/>
</linearGradient>
<clipPath id="clip0_2385_6882">
<rect width="100" height="100" fill="white"/>
</clipPath>
</defs>
</svg>
