<svg width="100" height="100" viewBox="0 0 100 100" fill="none" xmlns="http://www.w3.org/2000/svg">
<g clip-path="url(#clip0_2385_6881)">
<path d="M100 0H0V100H100V0Z" fill="url(#paint0_linear_2385_6881)"/>
<path d="M49.9999 81.9998C45.2478 81.9843 40.5589 80.9105 36.2736 78.8565C31.9883 76.8026 28.2143 73.82 25.2256 70.1254C22.237 66.4307 20.1087 62.1168 18.9953 57.497C17.882 52.8772 17.8116 48.0674 18.7892 43.4169C19.7668 38.7665 21.7679 34.3921 24.6471 30.6116C27.5263 26.8311 31.2114 23.7393 35.4347 21.5607C39.6581 19.3822 44.3136 18.1716 49.0631 18.017C53.8127 17.8623 58.5371 18.7674 62.8932 20.6665L61.8132 23.1065C56.0298 20.5619 49.5793 19.9527 43.4217 21.3697C37.2642 22.7866 31.7288 26.154 27.6392 30.9705C23.5497 35.7871 21.1248 41.7954 20.7253 48.1012C20.3258 54.407 21.9731 60.6733 25.422 65.9675C28.871 71.2616 33.9372 75.3006 39.8667 77.4834C45.7962 79.6661 52.2719 79.8759 58.3303 78.0815C64.3886 76.2871 69.7056 72.5845 73.49 67.5247C77.2743 62.4648 79.3238 56.3183 79.3332 49.9998C79.3498 45.9497 78.5092 41.9419 76.8666 38.2398L79.3066 37.1598C81.0877 41.2049 81.9964 45.58 81.9732 49.9998C81.9732 58.4821 78.6055 66.6174 72.6101 72.6178C66.6147 78.6182 58.4822 81.9928 49.9999 81.9998Z" fill="white"/>
<path d="M71.7331 20.5597C69.682 20.5667 67.717 21.3856 66.2679 22.8372C64.8188 24.2889 64.0033 26.2552 63.9998 28.3063C63.972 29.8848 64.4382 31.4325 65.3331 32.733L63.5731 34.533C59.5648 31.041 54.3558 29.2444 49.047 29.5229C43.7382 29.8015 38.7458 32.1334 35.125 36.0257C31.5042 39.9181 29.5388 45.0658 29.6442 50.3809C29.7496 55.6959 31.9176 60.7617 35.6899 64.5074C39.4621 68.2531 44.5431 70.3853 49.8588 70.4531C55.1744 70.5209 60.3081 68.5192 64.1748 64.871C68.0415 61.2228 70.338 56.214 70.5791 50.9034C70.8201 45.5928 68.9867 40.3965 65.4664 36.413L67.2664 34.6663C68.5805 35.5644 70.1418 36.0305 71.7331 35.9997C73.7877 35.9997 75.7581 35.1835 77.2108 33.7307C78.6636 32.278 79.4798 30.3076 79.4798 28.253C79.4798 26.1985 78.6636 24.2281 77.2108 22.7753C75.7581 21.3225 73.7877 20.5063 71.7331 20.5063V20.5597ZM67.9998 49.9997C68.0089 54.1017 66.6146 58.0834 64.0483 61.2836C61.4821 64.4838 57.8984 66.7099 53.8924 67.5922C49.8864 68.4745 45.699 67.96 42.0258 66.134C38.3526 64.308 35.4145 61.2805 33.6995 57.5542C31.9844 53.8279 31.5956 49.627 32.5976 45.6492C33.5996 41.6715 35.9321 38.1561 39.2078 35.687C42.4835 33.2178 46.5053 31.9435 50.6052 32.0756C54.7051 32.2076 58.6365 33.7382 61.7464 36.413L56.5464 41.5997C54.4026 39.9373 51.7058 39.1543 49.005 39.41C46.3042 39.6656 43.8023 40.9408 42.0085 42.9759C40.2146 45.011 39.2636 47.6532 39.3489 50.3647C39.4342 53.0762 40.5495 55.6534 42.4678 57.5716C44.3861 59.4899 46.9632 60.6052 49.6748 60.6906C52.3863 60.7759 55.0284 59.8249 57.0636 58.031C59.0987 56.2371 60.3738 53.7352 60.6295 51.0344C60.8851 48.3336 60.1021 45.6369 58.4398 43.493L63.6398 38.3063C66.4577 41.5496 68.0064 45.7032 67.9998 49.9997ZM58.0131 49.9997C58.0205 51.794 57.4245 53.5388 56.3208 54.9536C55.2171 56.3684 53.6698 57.371 51.9275 57.8004C50.1853 58.2298 48.3492 58.0609 46.7145 57.3211C45.0798 56.5812 43.7412 55.3132 42.914 53.7209C42.0868 52.1285 41.8189 50.3043 42.1534 48.5414C42.4879 46.7785 43.4054 45.1792 44.7584 44.0006C46.1114 42.822 47.8214 42.1324 49.6135 42.0428C51.4057 41.9531 53.1759 42.4686 54.6398 43.5063L49.0931 49.0397L50.9864 50.933L56.5331 45.3997C57.474 46.7473 57.9683 48.3562 57.9464 49.9997H58.0131ZM71.7331 33.333C70.7284 33.333 69.7462 33.0351 68.9108 32.4769C68.0754 31.9187 67.4243 31.1253 67.0398 30.197C66.6553 29.2688 66.5547 28.2474 66.7507 27.262C66.9467 26.2765 67.4306 25.3714 68.141 24.6609C68.8515 23.9505 69.7566 23.4666 70.7421 23.2706C71.7275 23.0746 72.7489 23.1752 73.6771 23.5597C74.6054 23.9442 75.3988 24.5953 75.957 25.4307C76.5152 26.2661 76.8131 27.2483 76.8131 28.253C76.8096 29.5992 76.2733 30.8893 75.3213 31.8412C74.3694 32.7931 73.0793 33.3295 71.7331 33.333Z" fill="white"/>
</g>
<defs>
<linearGradient id="paint0_linear_2385_6881" x1="-20.7067" y1="120.707" x2="120.707" y2="-20.7067" gradientUnits="userSpaceOnUse">
<stop stop-color="#BD0816"/>
<stop offset="1" stop-color="#FF5252"/>
</linearGradient>
<clipPath id="clip0_2385_6881">
<rect width="100" height="100" fill="white"/>
</clipPath>
</defs>
</svg>
