<svg width="100" height="100" viewBox="0 0 100 100" fill="none" xmlns="http://www.w3.org/2000/svg">
<g clip-path="url(#clip0_2385_6878)">
<path d="M100 0H0V100H100V0Z" fill="url(#paint0_linear_2385_6878)"/>
<path d="M50.1599 32.1733C49.171 32.1733 48.2043 31.8801 47.3821 31.3307C46.5598 30.7813 45.919 30.0004 45.5405 29.0868C45.1621 28.1731 45.0631 27.1678 45.256 26.1979C45.4489 25.228 45.9251 24.3371 46.6244 23.6378C47.3236 22.9385 48.2146 22.4623 49.1845 22.2694C50.1544 22.0765 51.1597 22.1755 52.0733 22.5539C52.987 22.9324 53.7679 23.5732 54.3173 24.3955C54.8667 25.2177 55.1599 26.1844 55.1599 27.1733C55.1599 28.4994 54.6331 29.7712 53.6954 30.7089C52.7578 31.6466 51.486 32.1733 50.1599 32.1733ZM50.1599 24.84C49.6984 24.84 49.2473 24.9769 48.8636 25.2332C48.4799 25.4896 48.1808 25.8541 48.0042 26.2804C47.8276 26.7068 47.7814 27.1759 47.8714 27.6286C47.9614 28.0812 48.1837 28.4969 48.51 28.8233C48.8363 29.1496 49.2521 29.3718 49.7047 29.4618C50.1573 29.5519 50.6265 29.5057 51.0528 29.3291C51.4792 29.1525 51.8436 28.8534 52.1 28.4697C52.3564 28.086 52.4932 27.6348 52.4932 27.1733C52.4932 26.5545 52.2474 25.961 51.8098 25.5234C51.3722 25.0858 50.7788 24.84 50.1599 24.84Z" fill="white"/>
<path d="M70.0667 66.6665C69.0777 66.6665 68.111 66.3733 67.2888 65.8239C66.4666 65.2744 65.8257 64.4936 65.4473 63.5799C65.0688 62.6663 64.9698 61.661 65.1627 60.6911C65.3557 59.7211 65.8319 58.8302 66.5311 58.131C67.2304 57.4317 68.1213 56.9555 69.0912 56.7626C70.0611 56.5697 71.0664 56.6687 71.9801 57.0471C72.8937 57.4255 73.6746 58.0664 74.224 58.8887C74.7734 59.7109 75.0667 60.6776 75.0667 61.6665C75.0667 62.9926 74.5399 64.2644 73.6022 65.202C72.6645 66.1397 71.3927 66.6665 70.0667 66.6665ZM70.0667 59.3332C69.6052 59.3332 69.154 59.47 68.7703 59.7264C68.3866 59.9828 68.0875 60.3472 67.9109 60.7736C67.7343 61.1999 67.6881 61.6691 67.7782 62.1217C67.8682 62.5743 68.0904 62.9901 68.4167 63.3164C68.7431 63.6427 69.1588 63.865 69.6114 63.955C70.0641 64.045 70.5332 63.9988 70.9596 63.8222C71.3859 63.6456 71.7504 63.3466 72.0068 62.9628C72.2631 62.5791 72.4 62.128 72.4 61.6665C72.4 61.0464 72.1546 60.4516 71.7174 60.0119C71.2802 59.5722 70.6867 59.3234 70.0667 59.3198V59.3332Z" fill="white"/>
<path d="M30.2532 66.6665C29.2643 66.6665 28.2976 66.3733 27.4753 65.8239C26.6531 65.2744 26.0122 64.4936 25.6338 63.5799C25.2553 62.6663 25.1563 61.661 25.3492 60.6911C25.5422 59.7211 26.0184 58.8302 26.7176 58.131C27.4169 57.4317 28.3078 56.9555 29.2777 56.7626C30.2476 56.5697 31.253 56.6687 32.1666 57.0471C33.0802 57.4255 33.8611 58.0664 34.4105 58.8887C34.9599 59.7109 35.2532 60.6776 35.2532 61.6665C35.2532 62.9926 34.7264 64.2644 33.7887 65.202C32.851 66.1397 31.5793 66.6665 30.2532 66.6665ZM30.2532 59.3332C29.7917 59.3332 29.3406 59.47 28.9568 59.7264C28.5731 59.9828 28.2741 60.3472 28.0975 60.7736C27.9209 61.1999 27.8746 61.6691 27.9647 62.1217C28.0547 62.5743 28.2769 62.9901 28.6033 63.3164C28.9296 63.6427 29.3453 63.865 29.798 63.955C30.2506 64.045 30.7197 63.9988 31.1461 63.8222C31.5725 63.6456 31.9369 63.3466 32.1933 62.9628C32.4497 62.5791 32.5865 62.128 32.5865 61.6665C32.5865 61.0464 32.3411 60.4516 31.9039 60.0119C31.4667 59.5722 30.8732 59.3234 30.2532 59.3198V59.3332Z" fill="white"/>
<path d="M79.9999 31.9066L50.6666 14.9599C50.4639 14.8429 50.234 14.7812 49.9999 14.7812C49.7659 14.7812 49.5359 14.8429 49.3333 14.9599L19.9999 31.9066C19.7984 32.0229 19.6308 32.1899 19.5139 32.3911C19.3969 32.5923 19.3347 32.8205 19.3333 33.0532V66.9332C19.3347 67.1659 19.3969 67.3942 19.5139 67.5953C19.6308 67.7965 19.7984 67.9635 19.9999 68.0799L49.3333 85.0132C49.5359 85.1302 49.7659 85.1918 49.9999 85.1918C50.234 85.1918 50.4639 85.1302 50.6666 85.0132L79.9999 68.0799C80.2014 67.9635 80.369 67.7965 80.4859 67.5953C80.6029 67.3942 80.6652 67.1659 80.6666 66.9332V33.0532C80.6652 32.8205 80.6029 32.5923 80.4859 32.3911C80.369 32.1899 80.2014 32.0229 79.9999 31.9066ZM77.9999 66.1599L49.9999 82.3199L21.9999 66.1599V33.8266L49.9999 17.6532L77.9999 33.8266V66.1599Z" fill="white"/>
<path d="M70.0667 33.6665C68.7406 33.6665 67.4688 34.1933 66.5311 35.131C65.5935 36.0686 65.0667 37.3404 65.0667 38.6665C65.0655 39.0167 65.1058 39.3658 65.1867 39.7065C65.3651 40.593 65.7903 41.4111 66.4133 42.0665C66.8779 42.5721 67.4426 42.9755 68.0716 43.251C68.7006 43.5265 69.38 43.668 70.0667 43.6665C71.3928 43.6665 72.6645 43.1397 73.6022 42.202C74.5399 41.2644 75.0667 39.9926 75.0667 38.6665C75.0667 37.3404 74.5399 36.0687 73.6022 35.131C72.6645 34.1933 71.3928 33.6665 70.0667 33.6665ZM70.0667 40.9998C69.6052 40.9998 69.1541 40.863 68.7703 40.6066C68.3866 40.3502 68.0876 39.9858 67.911 39.5594C67.7344 39.1331 67.6881 38.6639 67.7782 38.2113C67.8682 37.7587 68.0904 37.3429 68.4168 37.0166C68.7431 36.6903 69.1588 36.468 69.6115 36.378C70.0641 36.288 70.5332 36.3342 70.9596 36.5108C71.386 36.6874 71.7504 36.9865 72.0068 37.3702C72.2632 37.7539 72.4 38.205 72.4 38.6665C72.3965 39.2843 72.1495 39.8757 71.7127 40.3126C71.2759 40.7494 70.6844 40.9963 70.0667 40.9998Z" fill="white"/>
<path d="M55.1599 50.2C55.1594 49.6937 55.083 49.1903 54.9332 48.7067L66.4132 42.04C65.7902 41.3846 65.365 40.5665 65.1866 39.68L53.4799 46.4534C52.5805 45.6069 51.3949 45.1308 50.1599 45.12C48.8803 45.1049 47.644 45.5823 46.7066 46.4534L35.0932 39.7867C35.2004 39.3957 35.2543 38.9921 35.2532 38.5867C35.2555 37.4255 34.8546 36.2995 34.119 35.401C33.3835 34.5025 32.3588 33.8872 31.22 33.6602C30.0812 33.4332 28.8989 33.6086 27.875 34.1563C26.8511 34.7041 26.0491 35.5903 25.606 36.6636C25.1628 37.7369 25.106 38.9308 25.4452 40.0413C25.7844 41.1519 26.4986 42.1102 27.4659 42.7527C28.4331 43.3953 29.5934 43.6821 30.7486 43.5643C31.9038 43.4464 32.9823 42.9313 33.7999 42.1067L45.3466 48.7734C45.2227 49.207 45.1599 49.6557 45.1599 50.1067C45.1596 51.1721 45.4996 52.2098 46.1304 53.0685C46.7612 53.9271 47.6497 54.5618 48.6666 54.88V68.2134C47.5075 68.571 46.5173 69.3368 45.8798 70.3688C45.2422 71.4008 45.0004 72.6289 45.1993 73.8255C45.3981 75.0221 46.024 76.1061 46.9611 76.8764C47.8981 77.6468 49.0827 78.0513 50.2951 78.0149C51.5076 77.9785 52.6658 77.5037 53.555 76.6786C54.4441 75.8535 55.004 74.734 55.1307 73.5276C55.2574 72.3212 54.9425 71.1098 54.2442 70.1179C53.5459 69.126 52.5117 68.4209 51.3332 68.1334V55.0534C52.4239 54.7925 53.3948 54.1716 54.0891 53.291C54.7834 52.4104 55.1607 51.3214 55.1599 50.2ZM31.4266 40.6667C31.075 40.8868 30.668 41.0025 30.2532 41C29.7034 41.0041 29.1714 40.8047 28.7599 40.44C28.4974 40.225 28.2859 39.9544 28.1406 39.6477C27.9954 39.3411 27.92 39.006 27.9199 38.6667C27.9199 38.0478 28.1657 37.4544 28.6033 37.0168C29.0409 36.5792 29.6344 36.3334 30.2532 36.3334C30.4939 36.3332 30.7328 36.3738 30.9599 36.4534C31.4323 36.5977 31.845 36.8916 32.1359 37.2908C32.4269 37.6899 32.5803 38.1728 32.5732 38.6667C32.5795 38.6885 32.5795 38.7116 32.5732 38.7334C32.5628 39.1267 32.452 39.5108 32.2513 39.8491C32.0506 40.1875 31.7667 40.469 31.4266 40.6667ZM52.4932 73.1334C52.4932 73.5948 52.3564 74.046 52.1 74.4297C51.8436 74.8134 51.4792 75.1125 51.0528 75.2891C50.6265 75.4657 50.1573 75.5119 49.7047 75.4219C49.2521 75.3318 48.8363 75.1096 48.51 74.7833C48.1837 74.457 47.9614 74.0412 47.8714 73.5886C47.7814 73.1359 47.8276 72.6668 48.0042 72.2404C48.1808 71.8141 48.4798 71.4497 48.8636 71.1933C49.2473 70.9369 49.6984 70.8 50.1599 70.8C50.7787 70.8 51.3722 71.0459 51.8098 71.4834C52.2474 71.921 52.4932 72.5145 52.4932 73.1334ZM50.1599 52.5334C49.6984 52.5334 49.2473 52.3965 48.8636 52.1401C48.4798 51.8837 48.1808 51.5193 48.0042 51.0929C47.8276 50.6666 47.7814 50.1974 47.8714 49.7448C47.9614 49.2922 48.1837 48.8764 48.51 48.5501C48.8363 48.2238 49.2521 48.0016 49.7047 47.9115C50.1573 47.8215 50.6265 47.8677 51.0528 48.0443C51.4792 48.2209 51.8436 48.52 52.1 48.9037C52.3564 49.2874 52.4932 49.7385 52.4932 50.2C52.4897 50.8178 52.2428 51.4092 51.8059 51.8461C51.3691 52.2829 50.7776 52.5299 50.1599 52.5334Z" fill="white"/>
<path d="M31.3332 46.7866H28.6665V53.4533H31.3332V46.7866Z" fill="white"/>
<path d="M71.3332 46.7866H68.6665V53.4533H71.3332V46.7866Z" fill="white"/>
<path d="M42.0319 30.1438L36.7834 33.106L38.0941 35.4283L43.3426 32.4661L42.0319 30.1438Z" fill="white"/>
<path d="M58.061 30.0337L56.7136 32.335L61.9144 35.3801L63.2618 33.0789L58.061 30.0337Z" fill="white"/>
<path d="M38.0979 64.6796L36.7864 67.0015L42.0338 69.9655L43.3453 67.6436L38.0979 64.6796Z" fill="white"/>
<path d="M62.0225 64.2272L56.8396 67.3008L58.1996 69.5941L63.3825 66.5205L62.0225 64.2272Z" fill="white"/>
</g>
<defs>
<linearGradient id="paint0_linear_2385_6878" x1="-20.7162" y1="120.715" x2="120.705" y2="-20.7067" gradientUnits="userSpaceOnUse">
<stop stop-color="#BD0816"/>
<stop offset="1" stop-color="#FF5252"/>
</linearGradient>
<clipPath id="clip0_2385_6878">
<rect width="100" height="100" fill="white"/>
</clipPath>
</defs>
</svg>
