<svg width="100" height="100" viewBox="0 0 100 100" fill="none" xmlns="http://www.w3.org/2000/svg">
<g clip-path="url(#clip0_2385_6880)">
<path d="M100 0H0V100H100V0Z" fill="url(#paint0_linear_2385_6880)"/>
<path d="M53.8666 74.5064H19.0932C18.8607 74.506 18.6323 74.4448 18.4307 74.3288C18.2291 74.2128 18.0614 74.0462 17.9441 73.8454C17.8269 73.6445 17.7642 73.4165 17.7623 73.184C17.7603 72.9514 17.8193 72.7224 17.9332 72.5197L34.9732 42.0797C35.0856 41.8795 35.2477 41.7118 35.444 41.5927C35.6402 41.4735 35.8638 41.4071 36.0932 41.3997C36.3218 41.3918 36.5486 41.4429 36.7517 41.548C36.9549 41.653 37.1276 41.8086 37.2532 41.9997L42.0266 49.3331C42.1539 49.5298 42.2271 49.7567 42.2388 49.9908C42.2505 50.2249 42.2003 50.4579 42.0932 50.6664L35.1599 63.9997H49.9999C50.2498 63.9992 50.4948 64.069 50.707 64.201C50.9192 64.333 51.09 64.522 51.1999 64.7464L55.0666 72.7464C55.1717 72.956 55.2196 73.1897 55.2056 73.4238C55.1915 73.6579 55.116 73.8841 54.9866 74.0797C54.8461 74.2333 54.6717 74.3519 54.4772 74.426C54.2827 74.5001 54.0736 74.5276 53.8666 74.5064ZM21.3332 71.8397H51.7332L49.1599 66.5064H32.9599C32.7298 66.5077 32.5033 66.4495 32.3023 66.3373C32.1014 66.2252 31.9329 66.0629 31.8132 65.8664C31.6962 65.6637 31.6346 65.4338 31.6346 65.1997C31.6346 64.9657 31.6962 64.7357 31.8132 64.5331L39.4132 50.013L36.2266 45.3331L21.3332 71.8397Z" fill="white"/>
<path d="M67.2666 74.5064H58.8666C58.6281 74.5084 58.3934 74.4463 58.187 74.3267C57.9807 74.2071 57.8101 74.0343 57.6933 73.8264L38.3866 38.8264C38.295 38.642 38.2473 38.439 38.2473 38.2331C38.2473 38.0272 38.295 37.8241 38.3866 37.6397L41.5199 30.6664C41.6192 30.4444 41.7772 30.2538 41.977 30.1151C42.1767 29.9765 42.4106 29.8951 42.6533 29.8797C42.898 29.8653 43.142 29.9187 43.3585 30.034C43.5749 30.1492 43.7553 30.3219 43.8799 30.5331L68.4133 72.5731C68.53 72.7752 68.5916 73.0044 68.5919 73.2377C68.5923 73.4711 68.5314 73.7005 68.4153 73.9029C68.2992 74.1054 68.132 74.2738 67.9305 74.3914C67.7289 74.509 67.5 74.5717 67.2666 74.5731V74.5064ZM59.6533 71.8397H64.9866L42.8799 34.0397L41.0399 38.1197L59.6533 71.8397Z" fill="white"/>
<path d="M80.9066 74.5065H72.2666C72.0317 74.5074 71.8006 74.4463 71.5969 74.3292C71.3932 74.2121 71.2241 74.0433 71.1066 73.8398L44.5199 27.4932C44.4029 27.2905 44.3413 27.0605 44.3413 26.8265C44.3413 26.5924 44.4029 26.3625 44.5199 26.1598C44.6363 25.9583 44.8033 25.7907 45.0045 25.6738C45.2057 25.5568 45.4339 25.4946 45.6666 25.4932H53.8666C54.098 25.4932 54.3254 25.5535 54.5264 25.668C54.7275 25.7826 54.8953 25.9475 55.0133 26.1465L82.0533 72.5065C82.17 72.7086 82.2316 72.9378 82.2319 73.1712C82.2323 73.4045 82.1714 73.6339 82.0553 73.8364C81.9392 74.0388 81.772 74.2073 81.5705 74.3249C81.3689 74.4425 81.14 74.5051 80.9066 74.5065ZM73.0399 71.8398H78.5733L53.0933 28.1598H47.9999L73.0399 71.8398Z" fill="white"/>
</g>
<defs>
<linearGradient id="paint0_linear_2385_6880" x1="-20.7067" y1="120.711" x2="120.715" y2="-20.7107" gradientUnits="userSpaceOnUse">
<stop stop-color="#BD0816"/>
<stop offset="1" stop-color="#FF5252"/>
</linearGradient>
<clipPath id="clip0_2385_6880">
<rect width="100" height="100" fill="white"/>
</clipPath>
</defs>
</svg>
