<svg width="100" height="100" viewBox="0 0 100 100" fill="none" xmlns="http://www.w3.org/2000/svg">
<g clip-path="url(#clip0_2385_6877)">
<path d="M100 0H0V100H100V0Z" fill="url(#paint0_linear_2385_6877)"/>
<path d="M72.7101 36H61.0001V28.57C61.0054 27.6302 60.6378 26.7266 59.978 26.0574C59.3181 25.3882 58.4198 25.0079 57.4801 25H28.4801C27.5473 25.0184 26.6592 25.4032 26.0079 26.0713C25.3567 26.7394 24.9946 27.637 25.0001 28.57V67.43C24.9947 68.3698 25.3623 69.2734 26.0221 69.9426C26.682 70.6118 27.5803 70.9921 28.5201 71H51.0001V72.71C51.0027 73.3165 51.2448 73.8975 51.6737 74.3264C52.1026 74.7553 52.6835 74.9974 53.2901 75H72.7101C73.3166 74.9974 73.8975 74.7553 74.3264 74.3264C74.7553 73.8975 74.9974 73.3165 75.0001 72.71V38.29C74.9974 37.6835 74.7553 37.1025 74.3264 36.6736C73.8975 36.2447 73.3166 36.0026 72.7101 36ZM28.5201 69C28.3178 68.9974 28.1181 68.955 27.9322 68.8752C27.7464 68.7953 27.5781 68.6797 27.4369 68.5348C27.2958 68.39 27.1846 68.2187 27.1096 68.0309C27.0346 67.843 26.9974 67.6422 27.0001 67.44V28.57C26.9961 28.3678 27.032 28.1667 27.1057 27.9783C27.1795 27.79 27.2896 27.618 27.4298 27.4722C27.57 27.3264 27.7376 27.2096 27.923 27.1286C28.1083 27.0476 28.3078 27.0039 28.5101 27H57.5101C57.915 27.0131 58.2985 27.1852 58.5774 27.4791C58.8563 27.773 59.0082 28.1649 59.0001 28.57V36H56.0001V31C56.0001 30.7348 55.8947 30.4804 55.7072 30.2929C55.5196 30.1054 55.2653 30 55.0001 30H31.0001C30.7348 30 30.4805 30.1054 30.293 30.2929C30.1054 30.4804 30.0001 30.7348 30.0001 31V64C30.0001 64.2652 30.1054 64.5196 30.293 64.7071C30.4805 64.8946 30.7348 65 31.0001 65H51.0001V69H28.5201ZM51.0001 38.29V63H32.0001V32H54.0001V36H53.2601C52.6587 36.0105 52.0854 36.256 51.663 36.6841C51.2406 37.1121 51.0026 37.6886 51.0001 38.29ZM73.0001 72.71C73.0001 72.7869 72.9695 72.8607 72.9151 72.9151C72.8607 72.9694 72.787 73 72.7101 73H53.2901C53.2132 73 53.1394 72.9694 53.085 72.9151C53.0306 72.8607 53.0001 72.7869 53.0001 72.71V65H73.0001V72.71ZM73.0001 63H53.0001V38.29C53.0001 38.2131 53.0306 38.1393 53.085 38.0849C53.1394 38.0306 53.2132 38 53.2901 38H72.7101C72.787 38 72.8607 38.0306 72.9151 38.0849C72.9695 38.1393 73.0001 38.2131 73.0001 38.29V63Z" fill="white"/>
<path d="M65 68H61V70H65V68Z" fill="white"/>
</g>
<defs>
<linearGradient id="paint0_linear_2385_6877" x1="0" y1="100" x2="100" y2="0" gradientUnits="userSpaceOnUse">
<stop stop-color="#BD0816"/>
<stop offset="1" stop-color="#FF5252"/>
</linearGradient>
<clipPath id="clip0_2385_6877">
<rect width="100" height="100" fill="white"/>
</clipPath>
</defs>
</svg>
