<svg width="100" height="100" viewBox="0 0 100 100" fill="none" xmlns="http://www.w3.org/2000/svg">
<g clip-path="url(#clip0_0_3041)">
<path d="M85.6799 96.9999H14.4399C13.9095 96.9999 13.4008 96.7892 13.0257 96.4141C12.6507 96.039 12.4399 95.5303 12.4399 94.9999V29.3799C12.4399 28.8494 12.6507 28.3407 13.0257 27.9657C13.4008 27.5906 13.9095 27.3799 14.4399 27.3799H85.6799C86.2104 27.3799 86.7191 27.5906 87.0942 27.9657C87.4692 28.3407 87.6799 28.8494 87.6799 29.3799V94.9999C87.6799 95.5303 87.4692 96.039 87.0942 96.4141C86.7191 96.7892 86.2104 96.9999 85.6799 96.9999ZM16.4399 92.9999H83.6799V31.3799H16.4399V92.9999Z" fill="#3F8624"/>
<path d="M85.68 23.88H14.32C13.9452 23.8807 13.5777 23.7761 13.2594 23.5781C12.9411 23.3801 12.6849 23.0966 12.52 22.76C12.3739 22.4386 12.3154 22.0843 12.3505 21.7331C12.3856 21.3818 12.5131 21.0461 12.72 20.76L25.4 3.8C25.5863 3.55161 25.8279 3.35 26.1056 3.21115C26.3833 3.07229 26.6895 3 27 3H73C73.3105 3 73.6167 3.07229 73.8944 3.21115C74.1721 3.35 74.4137 3.55161 74.6 3.8L87.28 20.68C87.4869 20.9661 87.6144 21.3018 87.6495 21.6531C87.6846 22.0043 87.6261 22.3586 87.48 22.68C87.3266 23.0316 87.0754 23.3316 86.7562 23.5444C86.4371 23.7571 86.0635 23.8736 85.68 23.88ZM18.32 19.88H81.68L72 7H28L18.32 19.88Z" fill="#3F8624"/>
<path d="M162 -22H-446V856H162V-22Z" stroke="#6CAE3E" stroke-width="3" stroke-miterlimit="10"/>
</g>
<defs>
<clipPath id="clip0_0_3041">
<rect width="100" height="100" fill="white"/>
</clipPath>
</defs>
</svg>
