<svg width="100" height="100" viewBox="0 0 100 100" fill="none" xmlns="http://www.w3.org/2000/svg">
<g clip-path="url(#clip0_0_3159)">
<path d="M100 0H0V100H100V0Z" fill="#3F8624"/>
<path d="M81.9067 53.4131C81.52 51.3198 79.1467 49.8398 77.52 48.7864C77 48.4531 75.5733 47.9198 75.4533 47.4531C75.4451 47.1192 75.4901 46.7862 75.5867 46.4664L76.92 36.8798C77.3067 34.0664 77.68 31.2531 78.0667 28.4398C78.4133 25.8531 77.1733 24.1198 75.0667 22.6664C70.7733 19.6931 65.1733 18.4931 60.12 17.6664C53.7826 16.6318 47.3381 16.4211 40.9467 17.0398C35.1982 17.4616 29.5562 18.8124 24.24 21.0398C21.3867 22.3731 17.6533 24.4531 18.12 28.0931C19.4533 38.9198 21.0267 49.7198 22.48 60.5331C23.1467 65.4798 23.8133 70.4264 24.48 75.3731C24.5876 76.3364 24.9476 77.2542 25.5235 78.0338C26.0994 78.8134 26.8709 79.4272 27.76 79.8131C31.8933 82.0531 37.0133 82.6931 41.6267 83.1198C47.7599 83.6738 53.9397 83.4002 60 82.3064C63.84 81.5998 70.9867 80.4398 71.6 75.6398C72.36 69.6931 73.2 63.7464 74 57.8131L74.2933 55.9998C76.4667 56.5198 82.6667 57.6264 81.9067 53.4131ZM48.0667 19.3331C56.0667 19.3331 65.2267 20.2398 72.4 24.1864C73.5067 24.7998 76.08 26.1731 75.3067 27.7998C74.5333 29.4264 72.1333 30.2398 70.6667 30.8264C68.5724 31.6 66.4186 32.202 64.2267 32.6264C54.709 34.5118 44.9345 34.7149 35.3467 33.2264C31.0173 32.78 26.806 31.5464 22.92 29.5864C21.96 29.0398 20.3733 28.0531 20.8133 26.7464C21.1619 26.0444 21.709 25.4602 22.3867 25.0664C25.3153 23.183 28.5718 21.8669 31.9867 21.1864C37.2523 19.9224 42.6515 19.3001 48.0667 19.3331ZM68.9733 75.5331C68.7733 77.0931 66.2 77.8664 64.9733 78.3064C62.4267 79.1583 59.7997 79.748 57.1333 80.0664C51.2171 80.8531 45.2229 80.8531 39.3067 80.0664C35.6012 79.779 31.9828 78.7975 28.64 77.1731C28.1852 76.9754 27.7945 76.6548 27.5119 76.2474C27.2293 75.8399 27.0658 75.3617 27.04 74.8664C25.7067 64.2931 24.1867 53.7198 22.76 43.1464L21.2133 31.6798C24.2445 33.3529 27.5344 34.5066 30.9467 35.0931C34.6013 35.8369 38.3038 36.3225 42.0267 36.5464C49.3331 37.07 56.6764 36.6623 63.88 35.3331C67.7183 34.781 71.4261 33.5436 74.8267 31.6798L72 52.6131C65.2434 50.3871 58.6422 47.7145 52.24 44.6131C51.9591 44.5059 51.6871 44.3766 51.4267 44.2264C51.0667 43.9598 51.16 44.0931 50.9867 43.6798C50.6533 42.9198 50.5733 42.3464 49.8667 41.7198C49.4852 41.4142 49.0348 41.2065 48.5547 41.1147C48.0746 41.0229 47.5794 41.0498 47.112 41.1931C46.6447 41.3363 46.2195 41.5916 45.8733 41.9367C45.5271 42.2817 45.2705 42.7062 45.1258 43.173C44.9811 43.6399 44.9526 44.1351 45.0429 44.6154C45.1332 45.0958 45.3395 45.5468 45.6438 45.9293C45.9482 46.3118 46.3413 46.6141 46.7892 46.81C47.237 47.0058 47.7259 47.0893 48.2133 47.0531C48.6729 46.9768 49.121 46.8424 49.5467 46.6531C50.0667 46.4931 50.0667 46.5198 50.6133 46.7731C57.0978 49.9351 63.7782 52.6785 70.6133 54.9864C71.64 55.3198 71.6267 54.9864 71.6267 55.8398C71.5834 56.4889 71.4987 57.1347 71.3733 57.7731L70.52 64.1331L68.9733 75.5331ZM48.4 43.9998C48.4 44.3598 47.8933 44.3198 47.76 44.0931C47.6267 43.8664 48.4 43.4931 48.4 43.9998ZM74.6667 53.3331L75.0667 50.3864C76.4 51.1464 78.6667 52.2931 79.2667 53.8131C77.96 54.3464 75.8933 53.6398 74.6667 53.3331Z" fill="white"/>
</g>
<defs>
<clipPath id="clip0_0_3159">
<rect width="100" height="100" fill="white"/>
</clipPath>
</defs>
</svg>
