<svg width="100" height="100" viewBox="0 0 100 100" fill="none" xmlns="http://www.w3.org/2000/svg">
<g clip-path="url(#clip0_0_3091)">
<path d="M100 0H0V100H100V0Z" fill="url(#paint0_linear_0_3091)"/>
<path d="M82.4267 61.2266H80.5333C80.5333 55.8933 77.5067 50.56 70.7467 50.56C63.5333 50.56 60.96 56.08 60.96 61.2266H59.0667C59.0667 55.4266 62.1333 48.6533 70.7467 48.6533C78.7733 48.6533 82.4267 55.1733 82.4267 61.2266Z" fill="white"/>
<path d="M70.7468 61.3336H62.6667V60.3869C62.7206 58.2562 63.5902 56.2274 65.0961 54.719C66.602 53.2106 68.6294 52.3377 70.7601 52.2803C71.7162 52.2805 72.6645 52.4521 73.5601 52.7869L72.9068 54.5603C72.2201 54.3039 71.493 54.1729 70.7601 54.1736C69.2952 54.2317 67.8932 54.7838 66.782 55.7401C65.6708 56.6963 64.9159 58.0005 64.6401 59.4403H70.7601L70.7468 61.3336Z" fill="white"/>
<path d="M79.28 49.9468L70.0667 59.7734L71.44 60.8934L79.28 49.9468Z" fill="white"/>
<path d="M71.6134 62.2668L68.6801 59.8668L78.6001 49.2935L80.0534 50.4935L71.6134 62.2668Z" fill="white"/>
<path d="M70.7467 62.1732C70.3828 62.1732 70.0271 62.0652 69.7245 61.8631C69.4219 61.6609 69.1861 61.3735 69.0468 61.0373C68.9075 60.7011 68.8711 60.3311 68.9421 59.9742C69.0131 59.6173 69.1883 59.2894 69.4457 59.0321C69.703 58.7748 70.0308 58.5995 70.3878 58.5285C70.7447 58.4575 71.1147 58.494 71.4509 58.6332C71.7871 58.7725 72.0745 59.0083 72.2766 59.3109C72.4788 59.6135 72.5867 59.9692 72.5867 60.3332C72.5867 60.8212 72.3929 61.2892 72.0478 61.6342C71.7027 61.9793 71.2347 62.1732 70.7467 62.1732Z" fill="white"/>
<path d="M17.5734 60.9201V38.2534H30.28V40.0001H19.4934V48.6668H28.6134V50.4001H19.4934V60.9201H17.5734Z" fill="white"/>
<path d="M36.5467 49.4934C35.1455 49.0182 33.8789 48.2134 32.8534 47.1468C32.0564 46.2178 31.6376 45.0233 31.6801 43.8001C31.6544 42.9697 31.8161 42.1441 32.1531 41.3847C32.4901 40.6253 32.9937 39.9516 33.6267 39.4134C35.0644 38.2445 36.8825 37.6463 38.7334 37.7334C39.7512 37.7373 40.7658 37.849 41.7601 38.0668C42.7846 38.2944 43.7848 38.6204 44.7467 39.0401V40.7068C42.8583 39.9827 40.8616 39.5815 38.8401 39.5201C37.4642 39.4326 36.0997 39.8184 34.9734 40.6134C34.5246 40.9946 34.1706 41.4749 33.9392 42.0164C33.7078 42.5578 33.6054 43.1456 33.6401 43.7334C33.6082 44.3772 33.751 45.0176 34.0534 45.5868C34.376 46.1383 34.8351 46.5975 35.3867 46.9201C36.2339 47.4142 37.1269 47.825 38.0534 48.1468L41.5467 49.4801C42.8639 49.9169 44.0448 50.6889 44.9734 51.7201C45.7134 52.6598 46.0961 53.8315 46.0534 55.0268C46.0801 55.9233 45.9004 56.814 45.5282 57.6301C45.156 58.4462 44.6012 59.1658 43.9067 59.7334C42.3098 60.9927 40.3114 61.6321 38.2801 61.5334C36.0516 61.5812 33.8412 61.1254 31.8134 60.2001V58.4401C33.8281 59.215 35.962 59.6345 38.1201 59.6801C39.6703 59.7435 41.1953 59.2729 42.4401 58.3468C42.968 57.9435 43.3913 57.4194 43.6744 56.8184C43.9575 56.2174 44.092 55.5572 44.0667 54.8934C44.0779 54.042 43.7576 53.2196 43.1734 52.6001C42.3641 51.8319 41.394 51.2535 40.3334 50.9068L36.5467 49.4934Z" fill="white"/>
<path d="M54.32 47.9866L50.4666 42.48H47.72L52.9333 49.84L54.32 47.9866Z" fill="white"/>
<path d="M58.7734 54.1866L56.7067 51.24L62.9734 42.48H60.3867L55.4267 49.56L54.0934 51.4L57.8667 56.8133C58.0684 55.9062 58.3725 55.025 58.7734 54.1866Z" fill="white"/>
<path d="M54.16 54.64L49.7733 61.04H47.1333L52.9733 52.96L54.16 54.64Z" fill="white"/>
</g>
<defs>
<linearGradient id="paint0_linear_0_3091" x1="-20.7067" y1="120.707" x2="120.72" y2="-20.72" gradientUnits="userSpaceOnUse">
<stop stop-color="#1B660F"/>
<stop offset="1" stop-color="#6CAE3E"/>
</linearGradient>
<clipPath id="clip0_0_3091">
<rect width="100" height="100" fill="white"/>
</clipPath>
</defs>
</svg>
