<svg width="100" height="100" viewBox="0 0 100 100" fill="none" xmlns="http://www.w3.org/2000/svg">
<g clip-path="url(#clip0_0_3082)">
<path d="M100 0H0V100H100V0Z" fill="url(#paint0_linear_0_3082)"/>
<path d="M19.3333 21.2132L29.0533 30.9465L30.9466 29.0532L21.2133 19.3332H28.6666V16.6665H18C17.6463 16.6665 17.3072 16.807 17.0572 17.057C16.8071 17.3071 16.6666 17.6462 16.6666 17.9998V28.6665H19.3333V21.2132Z" fill="white"/>
<path d="M82 16.6665H71.3333V19.3332H78.7867L69.0533 29.0532L70.9467 30.9465L80.6667 21.2132V28.6665H83.3333V17.9998C83.3333 17.6462 83.1929 17.3071 82.9428 17.057C82.6928 16.807 82.3536 16.6665 82 16.6665Z" fill="white"/>
<path d="M29.0533 69.0532L19.3333 78.7865V71.3332H16.6666V81.9999C16.6666 82.3535 16.8071 82.6926 17.0572 82.9427C17.3072 83.1927 17.6463 83.3332 18 83.3332H28.6666V80.6665H21.2133L30.9466 70.9466L29.0533 69.0532Z" fill="white"/>
<path d="M80.6667 78.7865L70.9467 69.0532L69.0533 70.9466L78.7867 80.6665H71.3333V83.3332H82C82.3536 83.3332 82.6928 83.1927 82.9428 82.9427C83.1929 82.6926 83.3333 82.3535 83.3333 81.9999V71.3332H80.6667V78.7865Z" fill="white"/>
<path d="M39.4666 30.9867C41.825 29.9403 44.4487 29.6463 46.9802 30.145C49.5117 30.6437 51.8279 31.9107 53.6133 33.7734C55.2039 35.3895 56.4074 37.3452 57.1333 39.4934C57.2151 39.7194 57.3565 39.9191 57.5425 40.0713C57.7285 40.2236 57.9522 40.3227 58.1899 40.3582C58.4277 40.3938 58.6706 40.3644 58.893 40.2731C59.1154 40.1819 59.3089 40.0323 59.4533 39.84C59.8581 39.2751 60.3899 38.8131 61.006 38.4912C61.622 38.1693 62.305 37.9965 62.9999 37.9867C65.0533 37.9867 67.5333 39.5601 67.7866 43.9867C67.8043 44.2802 67.9185 44.5596 68.1114 44.7814C68.3043 45.0032 68.5651 45.1551 68.8533 45.2134C74.0399 46.3067 76.6666 49.2134 76.6666 53.7467C76.6666 58.04 74.7866 60.5867 70.9066 61.5334L71.5333 64.12C76.5599 62.9067 79.3333 59.2134 79.3333 53.7467C79.3333 48.2801 76.1599 44.4134 70.3599 42.8267C69.6799 37.6534 66.2533 35.3201 62.9999 35.3201C61.5143 35.3066 60.0643 35.7743 58.8666 36.6534C58.031 34.8608 56.8895 33.2275 55.4933 31.8267C53.3309 29.597 50.5394 28.0805 47.492 27.4801C44.4446 26.8797 41.2865 27.2239 38.4399 28.4667C35.7944 29.711 33.5475 31.6673 31.9509 34.1164C30.3542 36.5655 29.471 39.4107 29.3999 42.3334C29.3999 42.5734 29.3999 42.8134 29.3999 43.0667C27.178 43.7733 25.2489 45.1885 23.9076 47.0956C22.5664 49.0027 21.8869 51.2968 21.9733 53.6267C21.9733 53.88 21.9733 54.1334 21.9733 54.3867C22.1133 56.5841 22.9065 58.6896 24.2511 60.4333C25.5956 62.1769 27.4303 63.4793 29.5199 64.1734L30.3999 61.6534C28.8084 61.1337 27.4085 60.1504 26.3798 58.8295C25.3511 57.5086 24.7406 55.9104 24.6266 54.24C24.6266 54.04 24.6266 53.84 24.6266 53.6267C24.5234 51.6848 25.1311 49.7719 26.336 48.2455C27.5409 46.7191 29.2605 45.6839 31.1733 45.3334C31.4666 45.2578 31.7255 45.0846 31.9073 44.8422C32.089 44.5999 32.1828 44.3028 32.1733 44C32.1085 43.4825 32.0729 42.9616 32.0666 42.44C32.129 40.0354 32.8526 37.6945 34.1579 35.674C35.4633 33.6536 37.3001 32.0319 39.4666 30.9867Z" fill="white"/>
<path d="M71.2666 57.0932C71.3327 56.8927 71.3503 56.6793 71.3178 56.4707C71.2854 56.2621 71.2039 56.0641 71.08 55.8932C70.9573 55.7208 70.7953 55.5802 70.6076 55.4828C70.4198 55.3854 70.2115 55.3341 70 55.3332H66C65.8586 54.1845 65.3322 53.1176 64.5066 52.3065C64.188 51.9862 63.8071 51.7345 63.3874 51.5671C62.9678 51.3997 62.5183 51.3201 62.0666 51.3332H48.36C48.0133 50.2532 47.3466 48.8932 46.32 48.6665H46.0666H40.7333C39.5466 48.6665 38.76 50.1598 38.36 51.3332H36.7466C36.2833 51.3129 35.8208 51.3876 35.3874 51.5527C34.954 51.7177 34.559 51.9698 34.2266 52.2932C33.7335 52.7765 33.3416 53.3532 33.0738 53.9896C32.806 54.626 32.6675 55.3094 32.6666 55.9998V72.6665C32.6666 73.0201 32.8071 73.3593 33.0571 73.6093C33.3072 73.8594 33.6463 73.9998 34 73.9998H64.6666C64.9455 73.9968 65.2164 73.9065 65.4413 73.7414C65.6661 73.5764 65.8335 73.345 65.92 73.0798L71.2666 57.0932ZM68.1466 57.9998L66 64.4532V57.9998H68.1466ZM63.3333 71.3332H35.3333V55.9998C35.3191 55.3529 35.5584 54.7261 36 54.2532C36.077 54.1681 36.172 54.1012 36.2781 54.0574C36.3842 54.0136 36.4987 53.9939 36.6133 53.9998H39.28C39.6201 54.0004 39.9477 53.871 40.1956 53.638C40.4434 53.405 40.5929 53.0861 40.6133 52.7465C40.745 52.2534 40.9376 51.7787 41.1866 51.3332H45.4666C45.6794 51.7612 45.8535 52.2074 45.9866 52.6665C45.9866 53.0201 46.1271 53.3593 46.3772 53.6093C46.6272 53.8594 46.9663 53.9998 47.32 53.9998H62.0933C62.1928 54.0038 62.2903 54.0284 62.3799 54.072C62.4694 54.1156 62.5488 54.1773 62.6133 54.2532C63.0719 54.7192 63.3303 55.346 63.3333 55.9998V71.3332Z" fill="white"/>
</g>
<defs>
<linearGradient id="paint0_linear_0_3082" x1="-20.7107" y1="120.715" x2="120.711" y2="-20.7067" gradientUnits="userSpaceOnUse">
<stop stop-color="#1B660F"/>
<stop offset="1" stop-color="#6CAE3E"/>
</linearGradient>
<clipPath id="clip0_0_3082">
<rect width="100" height="100" fill="white"/>
</clipPath>
</defs>
</svg>
