<svg width="100" height="100" viewBox="0 0 100 100" fill="none" xmlns="http://www.w3.org/2000/svg">
<path d="M46.24 97.0002H14.38C13.8496 97.0002 13.3409 96.7895 12.9658 96.4145C12.5907 96.0394 12.38 95.5307 12.38 95.0002V31.2402C12.38 30.7098 12.5907 30.2011 12.9658 29.826C13.3409 29.4509 13.8496 29.2402 14.38 29.2402H46.24C46.7704 29.2402 47.2791 29.4509 47.6542 29.826C48.0293 30.2011 48.24 30.7098 48.24 31.2402V95.0002C48.24 95.5307 48.0293 96.0394 47.6542 96.4145C47.2791 96.7895 46.7704 97.0002 46.24 97.0002ZM16.38 93.0002H44.24V33.2402H16.38V93.0002Z" fill="#3F8624"/>
<path d="M85.62 97.0002H53.76C53.2296 97.0002 52.7209 96.7895 52.3458 96.4145C51.9707 96.0394 51.76 95.5307 51.76 95.0002V31.2402C51.76 30.7098 51.9707 30.2011 52.3458 29.826C52.7209 29.4509 53.2296 29.2402 53.76 29.2402H85.62C86.1504 29.2402 86.6591 29.4509 87.0342 29.826C87.4093 30.2011 87.62 30.7098 87.62 31.2402V95.0002C87.62 95.5307 87.4093 96.0394 87.0342 96.4145C86.6591 96.7895 86.1504 97.0002 85.62 97.0002ZM55.76 93.0002H83.62V33.2402H55.76V93.0002Z" fill="#3F8624"/>
<path d="M46.24 25.76H14.38C14.0226 25.7607 13.6716 25.6657 13.3634 25.4848C13.0553 25.3039 12.8012 25.0437 12.6277 24.7313C12.4541 24.4189 12.3674 24.0658 12.3766 23.7085C12.3858 23.3513 12.4906 23.003 12.68 22.7L24.26 4.00002C24.4362 3.69481 24.6899 3.44158 24.9955 3.26597C25.301 3.09037 25.6476 2.99862 26 3.00002H46.24C46.7704 3.00002 47.2791 3.21073 47.6542 3.5858C48.0293 3.96087 48.24 4.46958 48.24 5.00002V23.76C48.24 24.2904 48.0293 24.7992 47.6542 25.1742C47.2791 25.5493 46.7704 25.76 46.24 25.76ZM18 21.76H44.24V7.00002H27.08L18 21.76Z" fill="#3F8624"/>
<path d="M85.62 25.76H53.76C53.2296 25.76 52.7209 25.5493 52.3458 25.1742C51.9707 24.7991 51.76 24.2904 51.76 23.76V5C51.76 4.46957 51.9707 3.96086 52.3458 3.58579C52.7209 3.21072 53.2296 3 53.76 3H74C74.3399 2.99932 74.6744 3.08528 74.9718 3.24975C75.2692 3.41422 75.5199 3.65178 75.7 3.94L87.28 22.7C87.4694 23.003 87.5742 23.3513 87.5834 23.7085C87.5926 24.0657 87.5059 24.4189 87.3323 24.7313C87.1588 25.0437 86.9047 25.3039 86.5965 25.4848C86.2884 25.6657 85.9374 25.7607 85.58 25.76H85.62ZM55.76 21.76H82L72.92 7H55.76V21.76Z" fill="#3F8624"/>
</svg>
