<svg width="100" height="100" viewBox="0 0 100 100" fill="none" xmlns="http://www.w3.org/2000/svg">
<path d="M50 91.3801C41.8158 91.3801 33.8154 88.9532 27.0105 84.4063C20.2056 79.8595 14.9018 73.3968 11.7699 65.8356C8.63792 58.2744 7.81846 49.9542 9.41512 41.9273C11.0118 33.9004 14.9528 26.5272 20.7399 20.7401C26.527 14.953 33.9002 11.0119 41.9272 9.41524C49.9541 7.81858 58.2743 8.63805 65.8355 11.77C73.3967 14.902 79.8593 20.2057 84.4062 27.0106C88.9531 33.8155 91.38 41.8159 91.38 50.0001C91.3694 60.9715 87.0064 71.4906 79.2484 79.2485C71.4904 87.0065 60.9714 91.3695 50 91.3801ZM50 12.6201C42.6069 12.6201 35.3799 14.8124 29.2328 18.9198C23.0857 23.0272 18.2946 28.8651 15.4654 35.6954C12.6362 42.5257 11.8959 50.0416 13.3383 57.2926C14.7806 64.5436 18.3407 71.2041 23.5684 76.4318C28.796 81.6595 35.4565 85.2196 42.7075 86.6619C49.9585 88.1042 57.4744 87.364 64.3047 84.5348C71.135 81.7056 76.973 76.9145 81.0804 70.7673C85.1877 64.6202 87.38 57.3932 87.38 50.0001C87.3641 40.0912 83.4208 30.5927 76.4141 23.586C69.4075 16.5793 59.9089 12.636 50 12.6201Z" fill="#3F8624"/>
</svg>
