<svg width="100" height="100" viewBox="0 0 100 100" fill="none" xmlns="http://www.w3.org/2000/svg">
<g clip-path="url(#clip0_0_3104)">
<path d="M100 0H0V100H100V0Z" fill="#3F8624"/>
<path d="M66.6667 63.5598C66.0023 63.5573 65.3655 63.294 64.8934 62.8264C64.6595 62.5944 64.4742 62.3181 64.3483 62.0136C64.2224 61.7091 64.1584 61.3826 64.1601 61.0531V59.1064H82.6667V60.1998C82.6685 60.6404 82.5832 61.077 82.4158 61.4846C82.2484 61.8922 82.0022 62.2627 81.6912 62.5748C81.3803 62.887 81.0108 63.1347 80.6039 63.3038C80.197 63.4728 79.7607 63.5598 79.3201 63.5598H66.6667ZM66.0534 60.9998C66.0562 61.1586 66.118 61.3107 66.2267 61.4264C66.343 61.5443 66.5012 61.6115 66.6667 61.6131H79.3201C79.5119 61.6118 79.7015 61.5723 79.8778 61.4967C80.0541 61.4211 80.2135 61.3111 80.3467 61.1731C80.4161 61.1037 80.4786 61.0278 80.5334 60.9464L66.0534 60.9998Z" fill="white"/>
<path d="M66.9334 60.0531L66.9201 50.0131L79.8801 49.9998L79.8934 60.0398H81.7867L81.7734 48.1064L65.0267 48.1198L65.0401 60.0531H66.9334Z" fill="white"/>
<path d="M17.3334 62.0266H19.4534V50.4266H29.5067V48.5066H19.4534V38.9599H31.3467V37.0532H17.3334V62.0266Z" fill="white"/>
<path d="M43.7734 49.3331L39.9201 47.8665C38.9055 47.5078 37.9241 47.0617 36.9868 46.5331C36.3877 46.187 35.8802 45.7023 35.5068 45.1198C35.1817 44.4905 35.0255 43.7876 35.0534 43.0798C35.0182 42.4311 35.1335 41.7831 35.3902 41.1863C35.647 40.5896 36.0382 40.0603 36.5334 39.6398C37.7735 38.7678 39.2738 38.3446 40.7868 38.4398C43.0196 38.5147 45.2238 38.9655 47.3068 39.7731V37.8798C46.2425 37.419 45.1348 37.0661 44.0001 36.8265C42.906 36.5789 41.7885 36.4493 40.6668 36.4398C38.6233 36.3468 36.6167 37.0062 35.0268 38.2931C34.3276 38.8891 33.7716 39.6348 33.4 40.475C33.0284 41.3152 32.8507 42.2283 32.8801 43.1465C32.8492 44.5007 33.3247 45.8176 34.2134 46.8398C35.3403 48.0146 36.736 48.8977 38.2801 49.4131L42.4534 51.0398C43.6278 51.4208 44.7027 52.0585 45.6001 52.9065C46.2357 53.5896 46.5801 54.4936 46.5601 55.4265C46.5889 56.1592 46.4431 56.8883 46.1348 57.5536C45.8265 58.219 45.3644 58.8015 44.7868 59.2531C43.3964 60.2497 41.7083 60.7435 40.0001 60.6531C37.6201 60.6179 35.2646 60.1666 33.0401 59.3198V61.1598C35.2721 62.1989 37.7119 62.7142 40.1734 62.6665C42.4161 62.7731 44.622 62.0678 46.3868 60.6798C47.1509 60.0536 47.7611 59.2603 48.1702 58.3611C48.5794 57.4618 48.7766 56.4806 48.7468 55.4931C48.799 54.1729 48.3781 52.8774 47.5601 51.8398C46.5373 50.6892 45.2321 49.8253 43.7734 49.3331Z" fill="white"/>
<path d="M57.8668 47.7597L53.6134 41.6797H50.6001L56.3468 49.7997L57.8668 47.7597Z" fill="white"/>
<path d="M49.9467 62.1597H52.8533L57.6933 55.0931L56.3867 53.2397L49.9467 62.1597Z" fill="white"/>
<path d="M62.9334 54.813L60.4934 51.3463L67.4134 41.6797H64.56L59.08 49.493L57.6267 51.533L62.9334 59.133V55.2664V54.813Z" fill="white"/>
</g>
<defs>
<clipPath id="clip0_0_3104">
<rect width="100" height="100" fill="white"/>
</clipPath>
</defs>
</svg>
