<svg width="100" height="100" viewBox="0 0 100 100" fill="none" xmlns="http://www.w3.org/2000/svg">
<path d="M85.6799 96.9999H14.4399C13.9095 96.9999 13.4008 96.7892 13.0257 96.4141C12.6507 96.039 12.4399 95.5303 12.4399 94.9999V29.3799C12.4399 28.8494 12.6507 28.3407 13.0257 27.9657C13.4008 27.5906 13.9095 27.3799 14.4399 27.3799H85.6799C86.2104 27.3799 86.7191 27.5906 87.0942 27.9657C87.4692 28.3407 87.6799 28.8494 87.6799 29.3799V94.9999C87.6799 95.5303 87.4692 96.039 87.0942 96.4141C86.7191 96.7892 86.2104 96.9999 85.6799 96.9999ZM16.4399 92.9999H83.6799V31.3799H16.4399V92.9999Z" fill="#3F8624"/>
<path d="M85.68 23.88H14.32C13.9452 23.8807 13.5777 23.7761 13.2594 23.5781C12.9411 23.3801 12.6849 23.0966 12.52 22.76C12.3739 22.4386 12.3154 22.0843 12.3505 21.7331C12.3856 21.3818 12.5131 21.0461 12.72 20.76L25.4 3.8C25.5863 3.55161 25.8279 3.35 26.1056 3.21115C26.3833 3.07229 26.6895 3 27 3H73C73.3105 3 73.6167 3.07229 73.8944 3.21115C74.1721 3.35 74.4137 3.55161 74.6 3.8L87.28 20.68C87.4869 20.9661 87.6144 21.3018 87.6495 21.6531C87.6846 22.0043 87.6261 22.3586 87.48 22.68C87.3266 23.0316 87.0754 23.3316 86.7562 23.5444C86.4371 23.7571 86.0635 23.8736 85.68 23.88ZM18.32 19.88H81.68L72 7H28L18.32 19.88Z" fill="#3F8624"/>
<path d="M59.9999 48.4601C57.3406 45.8677 53.7738 44.4169 50.0599 44.4169C46.3461 44.4169 42.7793 45.8677 40.1199 48.4601L37.3199 45.6001C40.7294 42.2796 45.3007 40.4214 50.0599 40.4214C54.8192 40.4214 59.3904 42.2796 62.7999 45.6001L59.9999 48.4601Z" fill="#3F8624"/>
<path d="M45.44 76.3199C41.5265 75.3059 38.0602 73.0218 35.5845 69.8258C33.1087 66.6298 31.7636 62.7026 31.76 58.6599C31.7627 56.8699 32.0323 55.0903 32.56 53.3799L36.38 54.5599C35.8193 56.3902 35.6349 58.315 35.8381 60.2185C36.0413 62.1219 36.6277 63.9645 37.5621 65.6352C38.4965 67.3059 39.7595 68.7701 41.275 69.9396C42.7904 71.109 44.527 71.9596 46.38 72.4399L45.44 76.3199Z" fill="#3F8624"/>
<path d="M54.5601 76.3199L53.5601 72.4399C55.4131 71.9596 57.1496 71.109 58.6651 69.9396C60.1806 68.7701 61.4436 67.3059 62.378 65.6352C63.3123 63.9645 63.8988 62.1219 64.102 60.2185C64.3051 58.315 64.1208 56.3902 63.5601 54.5599L67.3801 53.3799C67.9078 55.0903 68.1774 56.8699 68.1801 58.6599C68.1799 62.6947 66.8434 66.6158 64.3794 69.8108C61.9153 73.0057 58.4624 75.2946 54.5601 76.3199Z" fill="#3F8624"/>
<path d="M52.0601 66.8799H48.0601V83.7599H52.0601V66.8799Z" fill="#3F8624"/>
<path d="M71.5126 43.534L55.8533 52.5713L57.8527 56.0357L73.512 46.9985L71.5126 43.534Z" fill="#3F8624"/>
<path d="M28.6613 43.3716L26.6613 46.8516L42.3909 55.8916L44.3909 52.4116L28.6613 43.3716Z" fill="#3F8624"/>
<path d="M50 68.78C47.9985 68.78 46.0419 68.1865 44.3776 67.0745C42.7134 65.9625 41.4163 64.382 40.6504 62.5328C39.8844 60.6836 39.684 58.6488 40.0745 56.6857C40.4649 54.7226 41.4288 52.9194 42.8441 51.5041C44.2594 50.0888 46.0626 49.125 48.0257 48.7345C49.9888 48.344 52.0236 48.5444 53.8728 49.3104C55.722 50.0763 57.3025 51.3734 58.4145 53.0377C59.5265 54.7019 60.12 56.6585 60.12 58.66C60.1147 61.3424 59.0468 63.9134 57.1501 65.8101C55.2534 67.7069 52.6824 68.7748 50 68.78ZM50 52.54C48.7896 52.54 47.6064 52.899 46.5999 53.5715C45.5935 54.2439 44.8091 55.1997 44.3459 56.318C43.8827 57.4363 43.7615 58.6668 43.9976 59.854C44.2337 61.0412 44.8166 62.1316 45.6725 62.9875C46.5284 63.8434 47.6189 64.4263 48.8061 64.6625C49.9932 64.8986 51.2238 64.7774 52.342 64.3142C53.4603 63.851 54.4161 63.0666 55.0886 62.0601C55.7611 61.0537 56.12 59.8705 56.12 58.66C56.12 57.8564 55.9617 57.0605 55.6542 56.318C55.3466 55.5755 54.8958 54.9008 54.3275 54.3326C53.7592 53.7643 53.0845 53.3135 52.342 53.0059C51.5995 52.6983 50.8037 52.54 50 52.54Z" fill="#3F8624"/>
</svg>
