<svg width="100" height="100" viewBox="0 0 100 100" fill="none" xmlns="http://www.w3.org/2000/svg">
<g clip-path="url(#clip0_0_3072)">
<path d="M100 0H0V100H100V0Z" fill="url(#paint0_linear_0_3072)"/>
<path d="M65.9599 34.5198C65.9327 34.3438 65.8926 34.17 65.8399 33.9998C64.6533 30.3732 57.2799 28.4932 49.9999 28.4932C42.7199 28.4932 35.3333 30.3732 34.1599 33.9998C34.1073 34.17 34.0672 34.3438 34.0399 34.5198C34.0267 34.6885 34.0267 34.8579 34.0399 35.0265V64.7998C34.0399 69.0932 42.0399 71.3332 50.0399 71.3332C58.0399 71.3332 66.0399 69.0932 66.0399 64.7998V35.0265C66.0267 34.8558 66 34.6863 65.9599 34.5198ZM49.9599 31.1598C57.5866 31.1598 62.1466 33.1598 63.1066 34.5198C62.1199 35.8532 57.5599 37.8665 49.9599 37.8665C42.3599 37.8665 37.7999 35.8932 36.8133 34.5198C37.8133 33.1598 42.3733 31.1598 49.9999 31.1598H49.9599ZM63.2933 64.7998C63.2933 66.1332 58.5866 68.6665 49.9599 68.6665C41.3333 68.6665 36.6266 66.1065 36.6266 64.7998V37.7865C39.6533 39.5998 44.8266 40.5332 49.9599 40.5332C55.0933 40.5332 60.2666 39.5998 63.2933 37.7865V64.7998Z" fill="white"/>
<path d="M34.1599 34C34.1073 34.1702 34.0672 34.344 34.0399 34.52C34.0267 34.3469 34.0267 34.1731 34.0399 34H34.1599Z" fill="white"/>
<path d="M66 34C66.0132 34.1731 66.0132 34.3469 66 34.52C65.9727 34.344 65.9326 34.1702 65.88 34H66Z" fill="white"/>
<path d="M30.9466 29.0532L29.0533 30.9465L19.3333 21.2265V28.6665H16.6666V17.9998C16.6666 17.6462 16.8071 17.3071 17.0572 17.057C17.3072 16.807 17.6463 16.6665 18 16.6665H28.6666V19.3332H21.2266L30.9466 29.0532Z" fill="white"/>
<path d="M83.3333 17.9998V28.6665H80.6667V21.2265L70.9467 30.9465L69.0533 29.0532L78.7733 19.3332H71.3333V16.6665H82C82.3536 16.6665 82.6928 16.807 82.9428 17.057C83.1929 17.3071 83.3333 17.6462 83.3333 17.9998Z" fill="white"/>
<path d="M21.2266 80.6665H28.6666V83.3332H18C17.6463 83.3332 17.3072 83.1927 17.0572 82.9427C16.8071 82.6926 16.6666 82.3535 16.6666 81.9999V71.3332H19.3333V78.7732L29.0533 69.0532L30.9466 70.9466L21.2266 80.6665Z" fill="white"/>
<path d="M83.3333 71.3332V81.9999C83.3333 82.3535 83.1929 82.6926 82.9428 82.9427C82.6928 83.1927 82.3536 83.3332 82 83.3332H71.3333V80.6665H78.7733L69.0533 70.9466L70.9467 69.0532L80.6667 78.7732V71.3332H83.3333Z" fill="white"/>
</g>
<defs>
<linearGradient id="paint0_linear_0_3072" x1="-20.7067" y1="120.707" x2="120.707" y2="-20.7067" gradientUnits="userSpaceOnUse">
<stop stop-color="#1B660F"/>
<stop offset="1" stop-color="#6CAE3E"/>
</linearGradient>
<clipPath id="clip0_0_3072">
<rect width="100" height="100" fill="white"/>
</clipPath>
</defs>
</svg>
