<svg width="100" height="100" viewBox="0 0 100 100" fill="none" xmlns="http://www.w3.org/2000/svg">
<g clip-path="url(#clip0_0_3064)">
<path d="M72.5 16.38H23.7599C23.3696 16.3814 22.9874 16.2685 22.6604 16.0553C22.3335 15.842 22.0761 15.5378 21.9199 15.18C21.7634 14.824 21.7141 14.43 21.7781 14.0464C21.842 13.6628 22.0164 13.3061 22.28 13.02L30.94 3.64005C31.1287 3.4365 31.3578 3.27447 31.6126 3.16429C31.8674 3.0541 32.1423 2.99817 32.4199 3.00005H63.84C64.1142 3.00093 64.3853 3.0582 64.6365 3.1683C64.8876 3.2784 65.1135 3.43897 65.3 3.64005L74 13.02C74.2668 13.3039 74.4449 13.6596 74.5124 14.0433C74.5799 14.427 74.5339 14.8221 74.38 15.18C74.2212 15.5441 73.9576 15.8527 73.6228 16.0664C73.2879 16.2802 72.8971 16.3893 72.5 16.38ZM28.32 12.38H68L62.96 7.00005H33.2999L28.32 12.38Z" fill="#3F8624"/>
<path d="M74.5 27.4999H70.5V23.8799H25.76V27.4999H21.76V21.8799C21.76 21.3495 21.9707 20.8407 22.3458 20.4657C22.7209 20.0906 23.2296 19.8799 23.76 19.8799H72.5C73.0304 19.8799 73.5391 20.0906 73.9142 20.4657C74.2893 20.8407 74.5 21.3495 74.5 21.8799V27.4999Z" fill="#3F8624"/>
<path d="M48.0001 96.9999C38.0001 96.9999 23.1401 94.7599 22.9001 88.6199L16.2201 38.9399C16.1166 38.4095 16.2281 37.8597 16.5301 37.4114C16.832 36.9632 17.2996 36.6533 17.8301 36.5499C18.3605 36.4465 18.9103 36.558 19.3585 36.8599C19.8067 37.1618 20.1166 37.6295 20.2201 38.1599C20.8201 40.7999 32.0001 44.6199 48.0001 44.6199C64.0001 44.6199 75.2001 40.7999 76.0001 38.1599C76.1035 37.6295 76.4134 37.1618 76.8616 36.8599C77.3098 36.558 77.8596 36.4465 78.3901 36.5499C78.9205 36.6533 79.3881 36.9632 79.69 37.4114C79.992 37.8597 80.1035 38.4095 80.0001 38.9399L73.1401 88.6199C73.1401 90.7999 71.1401 92.6199 67.6201 94.0399C66.0872 94.6134 64.5169 95.0811 62.9201 95.4399C58.0189 96.505 53.0155 97.0281 48.0001 96.9999ZM20.9201 43.9999L26.9201 88.2999C26.9201 88.2999 26.9201 88.4799 26.9201 88.5799C27.4201 89.9999 35.8401 92.9999 48.0001 92.9999C52.7062 93.0294 57.4013 92.5398 62.0001 91.5399C63.4007 91.2318 64.7775 90.824 66.1201 90.3199C68.8001 89.2599 69.1201 88.4199 69.1201 88.4199C69.1111 88.3468 69.1111 88.2729 69.1201 88.1999L75.1201 43.8799C68.5601 47.2799 56.6001 48.6199 48.0201 48.6199C39.4401 48.6199 27.5001 47.2799 20.9201 43.9999Z" fill="#3F8624"/>
<path d="M48 48.6199C36.24 48.6199 18 46.0999 16.26 39.1799C16.2509 39.1002 16.2509 39.0197 16.26 38.9399V38.3199C16.26 38.2199 16.26 38.1399 16.26 38.0599C16.26 31.1199 32.76 26.4399 48.26 26.4399C63.76 26.4399 80 31.1199 80 37.9999V38.2599V38.8799V39.1199C78 46.0999 59.8 48.6199 48 48.6199ZM20.16 38.2599C21.08 40.8799 32.16 44.6199 48.02 44.6199C63.88 44.6199 74.98 40.8799 75.88 38.2599L76 37.9999C75.72 35.6999 64.96 30.4799 48.1 30.4799C31.24 30.4799 20.4 35.6599 20.14 37.9999L20.16 38.2599Z" fill="#3F8624"/>
<path d="M79.48 69.0202C74.88 69.0202 65.48 66.3402 47.14 57.3202L48.9 53.7202C60.9 59.6202 75.14 65.2602 79.36 65.2602C77.8257 63.8743 76.1099 62.7036 74.26 61.7802L74 61.6602L76 58.1602L76.22 58.2802C81.18 61.0202 83.48 63.0802 83.86 65.1802C83.9473 65.6509 83.9298 66.1351 83.8088 66.5983C83.6878 67.0614 83.4663 67.4923 83.16 67.8602C82.6687 68.3108 82.0846 68.6482 81.4488 68.8486C80.8129 69.049 80.1409 69.1076 79.48 69.0202Z" fill="#3F8624"/>
<path d="M48 59.2598C47.2603 59.2598 46.5372 59.0404 45.9222 58.6295C45.3071 58.2185 44.8278 57.6344 44.5447 56.951C44.2616 56.2676 44.1876 55.5156 44.3319 54.7901C44.4762 54.0647 44.8324 53.3983 45.3554 52.8752C45.8785 52.3522 46.5449 51.996 47.2704 51.8517C47.9959 51.7073 48.7479 51.7814 49.4312 52.0645C50.1146 52.3475 50.6988 52.8269 51.1097 53.442C51.5207 54.057 51.74 54.7801 51.74 55.5198C51.74 56.5117 51.346 57.463 50.6446 58.1644C49.9432 58.8657 48.9919 59.2598 48 59.2598ZM48 55.2598C47.9311 55.2598 47.8649 55.2872 47.8162 55.3359C47.7674 55.3847 47.74 55.4508 47.74 55.5198C47.74 55.8198 48.28 55.8198 48.28 55.5198C48.2801 55.4839 48.2728 55.4484 48.2585 55.4154C48.2442 55.3825 48.2232 55.3529 48.1969 55.3285C48.1706 55.3041 48.1395 55.2854 48.1057 55.2735C48.0718 55.2617 48.0358 55.257 48 55.2598Z" fill="#3F8624"/>
<path d="M442 -22H-166V856H442V-22Z" stroke="#6CAE3E" stroke-width="3" stroke-miterlimit="10"/>
</g>
<defs>
<clipPath id="clip0_0_3064">
<rect width="100" height="100" fill="white"/>
</clipPath>
</defs>
</svg>
