<svg width="100" height="100" viewBox="0 0 100 100" fill="none" xmlns="http://www.w3.org/2000/svg">
<path d="M49.34 97.0001C36.56 97.0001 16.34 94.1001 16.08 86.3201L7.01998 19.1C6.91654 18.5696 7.02806 18.0198 7.32999 17.5716C7.63193 17.1234 8.09955 16.8135 8.62998 16.71C9.16041 16.6066 9.71021 16.7181 10.1584 17.0201C10.6066 17.322 10.9165 17.7896 11.02 18.32C12.02 22.18 27.12 27.58 49.42 27.58C71.72 27.58 86.8 22.18 87.8 18.32C87.9034 17.7896 88.2133 17.322 88.6615 17.0201C89.1097 16.7181 89.6595 16.6066 90.19 16.71C90.7204 16.8135 91.188 17.1234 91.49 17.5716C91.7919 18.0198 91.9034 18.5696 91.8 19.1L82.58 86.3201C82.58 88.9601 80.14 91.2201 75.56 93.0401C73.5273 93.8143 71.442 94.4426 69.32 94.9201C62.7556 96.3392 56.0559 97.0366 49.34 97.0001ZM11.8 24.54L20 86.0001C20 86.0001 20 86.1801 20 86.2601C20 88.6201 31.38 93.1001 49.26 93.1001C55.6741 93.1347 62.0725 92.464 68.34 91.1001C70.2662 90.6409 72.1576 90.0461 74 89.3201C77.7 87.8601 78.52 86.5401 78.52 86.1601C78.5109 86.0736 78.5109 85.9865 78.52 85.9001L86.78 24.54C79.06 29.14 63.5 31.58 49.24 31.58C34.98 31.58 19.5 29.14 11.8 24.54Z" fill="#3F8624"/>
<path d="M49.34 31.58C30.4 31.58 9.13995 27.28 7.07995 19.34C7.07281 19.2535 7.07281 19.1665 7.07995 19.08V18.26C7.07084 18.1736 7.07084 18.0864 7.07995 18C7.07995 9.16 29.44 3 49.52 3C69.6 3 91.78 9.16 91.78 18C91.78 18 91.78 18.16 91.78 18.26L91.66 19.08C91.6681 19.1665 91.6681 19.2535 91.66 19.34C89.52 27.28 68.26 31.58 49.34 31.58ZM10.96 18.42C12.2 22.28 27.24 27.58 49.34 27.58C71.44 27.58 86.46 22.28 87.7 18.42V17.88C87.4799 14 71.72 7 49.34 7C26.96 7 11.18 14 10.9 17.88L10.96 18.42Z" fill="#3F8624"/>
<path d="M91.86 59.2398C82.34 59.2398 61.5 49.8198 48.46 43.4198L50.22 39.8198C68.22 48.6798 89.42 56.8598 93.04 55.3198C92.76 54.7398 91.42 52.9398 85.04 49.4798L84.72 49.2798L86.72 45.7998L87.02 45.9798C93.44 49.5198 96.5 52.2398 97.02 54.7998C97.1222 55.3341 97.1035 55.8846 96.965 56.4106C96.8266 56.9367 96.572 57.4251 96.22 57.8398C95.635 58.3705 94.9434 58.7699 94.1914 59.0114C93.4394 59.2529 92.6445 59.3307 91.86 59.2398Z" fill="#3F8624"/>
<path d="M49.34 45.9998C48.4816 45.9998 47.6425 45.7453 46.9288 45.2684C46.2151 44.7915 45.6588 44.1137 45.3304 43.3207C45.0019 42.5276 44.9159 41.655 45.0834 40.8131C45.2509 39.9713 45.6642 39.1979 46.2712 38.591C46.8781 37.984 47.6514 37.5707 48.4933 37.4032C49.3352 37.2358 50.2078 37.3217 51.0008 37.6502C51.7939 37.9787 52.4717 38.5349 52.9486 39.2487C53.4255 39.9624 53.68 40.8015 53.68 41.6598C53.6747 42.8092 53.2158 43.9101 52.403 44.7229C51.5903 45.5356 50.4894 45.9946 49.34 45.9998ZM49.34 41.3198C49.2937 41.3171 49.2473 41.3239 49.2037 41.3397C49.1602 41.3556 49.1203 41.3802 49.0865 41.4121C49.0528 41.4439 49.026 41.4823 49.0077 41.5249C48.9893 41.5675 48.9799 41.6134 48.98 41.6598C48.98 42.0398 49.68 42.0398 49.68 41.6598C49.6857 41.6119 49.6811 41.5634 49.6666 41.5174C49.652 41.4714 49.6279 41.429 49.5957 41.3931C49.5636 41.3572 49.5242 41.3285 49.4801 41.3089C49.436 41.2894 49.3882 41.2795 49.34 41.2798V41.3198Z" fill="#3F8624"/>
</svg>
