<svg width="100" height="100" viewBox="0 0 100 100" fill="none" xmlns="http://www.w3.org/2000/svg">
<g clip-path="url(#clip0_0_3132)">
<path d="M100 0H0V100H100V0Z" fill="url(#paint0_linear_0_3132)"/>
<path d="M20.72 27.5063C20.7362 27.5937 20.7631 27.6788 20.8 27.7597C20.7676 27.6954 20.7408 27.6285 20.72 27.5597V27.5063Z" fill="white"/>
<path d="M21.84 28.9199C22.7595 29.5802 23.7585 30.1222 24.8133 30.5333C23.756 30.1276 22.7564 29.5852 21.84 28.9199Z" fill="white"/>
<path d="M65.6 32.3329C66.5733 32.1063 67.4933 31.8529 68.2666 31.5996C67.4933 31.8663 66.5733 32.1063 65.6 32.3329Z" fill="white"/>
<path d="M74.04 29.1333C73.2022 29.6734 72.308 30.1205 71.3733 30.4666C72.3057 30.1152 73.1994 29.6684 74.04 29.1333Z" fill="white"/>
<path d="M73.5599 53.0533L74.6666 53.3333L74.3066 55.9999L74.1999 56.7599L71.5333 56.4133L71.6799 55.2799L72.0399 52.6133L73.5599 53.0533Z" fill="white"/>
<path d="M74.84 47.1866L75.4533 47.5333L75.0666 50.3866C74.6133 50.1066 74.12 49.8266 73.56 49.5199L73.3333 49.4133L74.6666 47.0933L74.84 47.1866Z" fill="white"/>
<path d="M75.4533 27.5063C75.4324 27.5752 75.4056 27.6421 75.3733 27.7064C75.4065 27.6425 75.4333 27.5755 75.4533 27.5063Z" fill="white"/>
<path d="M81.3333 55.5062C80.944 55.905 80.4695 56.2105 79.9453 56.3999C79.4212 56.5892 78.8609 56.6575 78.3066 56.5996C76.9552 56.5588 75.6129 56.3619 74.3066 56.0129L72.8266 55.6129L71.7066 55.2929C64.2701 52.798 57.0018 49.8275 49.9466 46.3996L49.0133 45.9596L50.16 43.5596L51.0933 43.9996C57.913 47.2818 64.9208 50.1579 72.08 52.6129L73.56 53.0529L74.6666 53.3329C77.9333 54.1462 78.9866 53.9196 79.2666 53.7996C79.1333 53.4796 78.4933 52.4662 75.0533 50.3729C74.6 50.0929 74.1066 49.8129 73.5466 49.5062L73.3333 49.4129L74.6666 47.0929L74.84 47.1862L75.4533 47.5329C79.6133 49.8796 81.6 51.7062 81.9333 53.4129C81.9962 53.7845 81.9749 54.1654 81.8711 54.5277C81.7673 54.89 81.5835 55.2244 81.3333 55.5062Z" fill="white"/>
<path d="M48.0932 47.04C47.5016 47.04 46.9232 46.865 46.4308 46.5371C45.9383 46.2092 45.5538 45.743 45.3256 45.1971C45.0974 44.6513 45.0357 44.0501 45.1483 43.4693C45.2608 42.8885 45.5426 42.3539 45.9582 41.9328C46.3738 41.5117 46.9046 41.2229 47.4838 41.1026C48.0631 40.9824 48.665 41.0361 49.2138 41.2571C49.7627 41.478 50.2339 41.8563 50.5683 42.3444C50.9027 42.8324 51.0854 43.4085 51.0932 44C51.0985 44.3974 51.0249 44.7918 50.8765 45.1604C50.7281 45.529 50.5079 45.8644 50.2288 46.1473C49.9497 46.4301 49.6172 46.6547 49.2506 46.8079C48.884 46.9612 48.4906 47.0401 48.0932 47.04ZM48.0932 43.7067C48.0048 43.7067 47.9201 43.7418 47.8575 43.8043C47.795 43.8668 47.7599 43.9516 47.7599 44.04C47.7599 44.4 48.4266 44.4 48.4266 44.04C48.4266 43.9516 48.3915 43.8668 48.3289 43.8043C48.2664 43.7418 48.1816 43.7067 48.0932 43.7067Z" fill="white"/>
<path d="M76.8933 72.3197H71.5999L74.1999 76.8263L78.6666 78.0797L77.9466 80.653L74.32 79.6263L73.3333 83.333L70.7599 82.6397L71.9333 78.2263L69.2933 73.653L66.6933 78.1597L67.8399 82.653L65.2533 83.3197L64.3199 79.6663L60.6266 80.653L59.9333 78.0797L64.3466 76.893L66.9866 72.3197H61.7733L58.4533 75.5596L56.5999 73.653L59.2933 71.0263L56.5866 68.3063L58.4666 66.4263L61.6933 69.653H66.9866L64.3866 65.1463L59.9199 63.893L60.6399 61.3197L64.2666 62.3463L65.2533 58.6396L67.8266 59.333L66.6533 63.7463L69.2933 68.3197L71.8933 63.813L70.7466 59.3197L73.3333 58.653L74.2666 62.3063L77.9599 61.3197L78.6533 63.893L74.2399 65.0797L71.5999 69.653H76.8133L80.1333 66.413L81.9866 68.3197L79.2933 70.9463L81.9999 73.6663L80.1199 75.5463L76.8933 72.3197Z" fill="white"/>
</g>
<defs>
<linearGradient id="paint0_linear_0_3132" x1="-20.7067" y1="120.72" x2="120.72" y2="-20.7067" gradientUnits="userSpaceOnUse">
<stop stop-color="#1B660F"/>
<stop offset="1" stop-color="#6CAE3E"/>
</linearGradient>
<clipPath id="clip0_0_3132">
<rect width="100" height="100" fill="white"/>
</clipPath>
</defs>
</svg>
