<svg width="100" height="100" viewBox="0 0 100 100" fill="none" xmlns="http://www.w3.org/2000/svg">
<g clip-path="url(#clip0_0_3114)">
<path d="M100 0H0V100H100V0Z" fill="url(#paint0_linear_0_3114)"/>
<path d="M17.2134 66.1334V33.8667H35.3067V36.3334H20V48.68H32.9334V51.1467H20V66.1334H17.2134Z" fill="white"/>
<path d="M44.2534 49.8402C42.2574 49.1645 40.4517 48.0217 38.9868 46.5069C37.8663 45.1738 37.2776 43.474 37.3334 41.7335C37.2954 40.551 37.5237 39.375 38.0014 38.2926C38.4792 37.2102 39.1941 36.249 40.0934 35.4802C42.1467 33.8105 44.7432 32.9561 47.3868 33.0802C48.8359 33.0881 50.28 33.2536 51.6934 33.5735C53.1526 33.8731 54.5777 34.3198 55.9468 34.9069V37.3335C53.2523 36.3038 50.4035 35.7358 47.5201 35.6535C45.5639 35.525 43.6234 36.0761 42.0268 37.2135C41.3876 37.756 40.8828 38.4393 40.552 39.2096C40.2212 39.98 40.0733 40.8165 40.1201 41.6535C40.0759 42.5787 40.2784 43.499 40.7068 44.3202C41.2048 45.0631 41.8779 45.6721 42.6668 46.0935C43.8741 46.7881 45.1414 47.3726 46.4534 47.8402L51.4401 49.7469C53.3128 50.3738 54.9931 51.4711 56.3201 52.9335C57.3782 54.2742 57.9262 55.9467 57.8668 57.6535C57.8979 58.9237 57.6391 60.1843 57.11 61.3395C56.5809 62.4947 55.7955 63.5141 54.8134 64.3202C52.5422 66.1095 49.7014 67.0185 46.8134 66.8802C43.633 66.9386 40.4814 66.2681 37.6001 64.9202V62.5869C40.4652 63.6959 43.5019 64.296 46.5734 64.3602C48.7776 64.4763 50.9555 63.8366 52.7468 62.5469C53.4956 61.967 54.0954 61.217 54.4965 60.3591C54.8977 59.5012 55.0886 58.56 55.0534 57.6135C55.0758 56.4007 54.6209 55.2276 53.7868 54.3469C52.6481 53.2568 51.282 52.4325 49.7868 51.9335L44.2534 49.8402Z" fill="white"/>
<path d="M69.5733 47.7068L64.08 39.8535H60.1733L67.6133 50.3335L69.5733 47.7068Z" fill="white"/>
<path d="M78.8401 66.3069H82.7868L72.9734 52.3202L81.9201 39.8535H78.2134L71.1468 49.9468L69.2534 52.5735L78.8401 66.3069Z" fill="white"/>
<path d="M69.3467 57.1733L63.0933 66.3066H59.3467L67.6533 54.7866L69.3467 57.1733Z" fill="white"/>
</g>
<defs>
<linearGradient id="paint0_linear_0_3114" x1="-20.7067" y1="120.707" x2="120.707" y2="-20.7067" gradientUnits="userSpaceOnUse">
<stop stop-color="#1B660F"/>
<stop offset="1" stop-color="#6CAE3E"/>
</linearGradient>
<clipPath id="clip0_0_3114">
<rect width="100" height="100" fill="white"/>
</clipPath>
</defs>
</svg>
