<svg width="100" height="100" viewBox="0 0 100 100" fill="none" xmlns="http://www.w3.org/2000/svg">
<path d="M42.34 85.7598H27.52C26.9896 85.7598 26.4809 85.5491 26.1058 85.174C25.7307 84.7989 25.52 84.2902 25.52 83.7598V68.7598C25.52 68.2293 25.7307 67.7206 26.1058 67.3456C26.4809 66.9705 26.9896 66.7598 27.52 66.7598H42.34C42.8705 66.7598 43.3792 66.9705 43.7542 67.3456C44.1293 67.7206 44.34 68.2293 44.34 68.7598V83.7598C44.34 84.2902 44.1293 84.7989 43.7542 85.174C43.3792 85.5491 42.8705 85.7598 42.34 85.7598ZM29.52 81.7598H40.34V70.7598H29.52V81.7598Z" fill="#3F8624"/>
<path d="M62 78.3398C59.9256 78.3477 57.8954 77.7398 56.1668 76.5931C54.4381 75.4464 53.0886 73.8124 52.2893 71.8981C51.4899 69.9839 51.2767 67.8754 51.6765 65.8399C52.0763 63.8043 53.0713 61.9333 54.5354 60.4636C55.9994 58.9939 57.8667 57.9918 59.9007 57.5842C61.9347 57.1766 64.0439 57.3818 65.9612 58.1738C67.8785 58.9658 69.5176 60.309 70.671 62.0333C71.8243 63.7576 72.44 65.7854 72.44 67.8598C72.4426 69.2334 72.1747 70.5941 71.6514 71.8642C71.1282 73.1343 70.3599 74.2889 69.3905 75.262C68.421 76.2352 67.2694 77.0079 66.0013 77.5359C64.7333 78.064 63.3736 78.3372 62 78.3398ZM62 61.3798C60.7167 61.3719 59.4599 61.7452 58.3891 62.4524C57.3182 63.1596 56.4814 64.1688 55.9848 65.3522C55.4882 66.5355 55.3542 67.8397 55.5997 69.0993C55.8452 70.3589 56.4591 71.5173 57.3638 72.4275C58.2684 73.3378 59.4229 73.9589 60.681 74.2122C61.9391 74.4655 63.244 74.3395 64.4304 73.8503C65.6168 73.361 66.6313 72.5305 67.3451 71.464C68.0589 70.3976 68.44 69.1431 68.44 67.8598C68.4426 67.0115 68.2781 66.1709 67.9559 65.3862C67.6337 64.6014 67.1601 63.8878 66.562 63.286C65.964 62.6843 65.2534 62.2063 64.4706 61.8792C63.6878 61.5521 62.8483 61.3824 62 61.3798Z" fill="#3F8624"/>
<path d="M40.44 59.5002H21.7C21.3456 59.4996 20.9977 59.4048 20.692 59.2256C20.3862 59.0464 20.1336 58.7891 19.96 58.4802C19.7844 58.1761 19.692 57.8313 19.692 57.4802C19.692 57.1291 19.7844 56.7842 19.96 56.4802L29.34 40.8402C29.5182 40.5463 29.7692 40.3033 30.0688 40.1347C30.3683 39.966 30.7062 39.8774 31.05 39.8774C31.3937 39.8774 31.7316 39.966 32.0312 40.1347C32.3307 40.3033 32.5817 40.5463 32.76 40.8402L42.14 56.4802C42.3155 56.7842 42.4079 57.1291 42.4079 57.4802C42.4079 57.8313 42.3155 58.1761 42.14 58.4802C41.9697 58.7833 41.7234 59.0368 41.4252 59.2156C41.1271 59.3945 40.7875 59.4926 40.44 59.5002ZM25.22 55.5002H36.92L31.08 45.7602L25.22 55.5002Z" fill="#3F8624"/>
<path d="M47.34 97.0001C34.56 97.0001 14.34 94.1001 14.08 86.3201L5.01998 19.1C4.91654 18.5696 5.02806 18.0198 5.32999 17.5716C5.63193 17.1234 6.09955 16.8135 6.62998 16.71C7.16041 16.6066 7.71021 16.7181 8.15842 17.0201C8.60663 17.322 8.91654 17.7896 9.01998 18.32C10.02 22.18 25.12 27.58 47.42 27.58C69.72 27.58 84.8 22.18 85.8 18.32C85.9034 17.7896 86.2133 17.322 86.6615 17.0201C87.1097 16.7181 87.6595 16.6066 88.19 16.71C88.7204 16.8135 89.188 17.1234 89.49 17.5716C89.7919 18.0198 89.9034 18.5696 89.8 19.1L80.58 86.3201C80.58 88.9601 78.14 91.2201 73.56 93.0401C71.5273 93.8143 69.442 94.4426 67.32 94.9201C60.7559 96.3406 54.0559 97.0381 47.34 97.0001ZM9.79998 24.54L18 86.0001C18 86.0001 18 86.1801 18 86.2601C18 88.6201 29.38 93.1001 47.26 93.1001C53.6741 93.1347 60.0725 92.464 66.34 91.1001C68.2662 90.6409 70.1576 90.0461 72 89.3201C75.7 87.8601 76.52 86.5401 76.52 86.1601V86.0001L84.8 24.64C77.08 29.24 61.52 31.68 47.26 31.68C33 31.68 17.5 29.14 9.79998 24.54Z" fill="#3F8624"/>
<path d="M47.3401 31.58C28.4001 31.58 7.14006 27.28 5.06006 19.34C5.06006 19.24 5.06006 19.16 5.06006 19.08V18.26C5.05094 18.1736 5.05094 18.0864 5.06006 18C5.06006 9.16 27.4201 3 47.5001 3C67.5801 3 89.7601 9.16 89.7601 18V18.26L89.6401 19.08C89.6482 19.1665 89.6482 19.2535 89.6401 19.34C87.5201 27.28 66.2601 31.58 47.3401 31.58ZM8.96006 18.42C10.2001 22.28 25.2401 27.58 47.3401 27.58C69.4401 27.58 84.4601 22.28 85.7001 18.42V17.88C85.5001 14 69.7201 7 47.3401 7C24.9601 7 9.18006 14 8.90006 17.88L8.96006 18.42Z" fill="#3F8624"/>
<path d="M89.86 59.2398C80.34 59.2398 59.5 49.8198 46.46 43.4198L48.22 39.8198C66.22 48.6598 87.42 56.8598 91.04 55.3198C90.76 54.7398 89.42 52.9398 83.04 49.4798L82.72 49.2798L84.72 45.7998L85.02 45.9798C91.44 49.5198 94.5 52.2398 95.02 54.7998C95.1223 55.3341 95.1035 55.8846 94.965 56.4106C94.8266 56.9367 94.572 57.4251 94.22 57.8398C93.635 58.3705 92.9434 58.7699 92.1914 59.0114C91.4394 59.2529 90.6445 59.3307 89.86 59.2398Z" fill="#3F8624"/>
<path d="M47.34 45.9998C46.4816 45.9998 45.6425 45.7453 44.9288 45.2684C44.2151 44.7915 43.6588 44.1137 43.3304 43.3207C43.0019 42.5276 42.9159 41.655 43.0834 40.8131C43.2509 39.9713 43.6642 39.1979 44.2712 38.591C44.8781 37.984 45.6514 37.5707 46.4933 37.4032C47.3352 37.2358 48.2078 37.3217 49.0008 37.6502C49.7939 37.9787 50.4717 38.5349 50.9486 39.2487C51.4255 39.9624 51.68 40.8015 51.68 41.6598C51.6747 42.8092 51.2158 43.9101 50.403 44.7229C49.5903 45.5356 48.4894 45.9946 47.34 45.9998ZM47.34 41.3198C47.2937 41.3171 47.2473 41.3239 47.2037 41.3397C47.1602 41.3556 47.1203 41.3802 47.0865 41.4121C47.0528 41.4439 47.026 41.4823 47.0077 41.5249C46.9893 41.5675 46.9799 41.6134 46.98 41.6598C46.98 42.0398 47.68 42.0398 47.68 41.6598C47.6857 41.6119 47.6811 41.5634 47.6666 41.5174C47.652 41.4714 47.6279 41.429 47.5957 41.3931C47.5636 41.3572 47.5242 41.3285 47.4801 41.3089C47.436 41.2894 47.3882 41.2795 47.34 41.2798V41.3198Z" fill="#3F8624"/>
</svg>
