<svg width="100" height="100" viewBox="0 0 100 100" fill="none" xmlns="http://www.w3.org/2000/svg">
<g clip-path="url(#clip0_0_3207)">
<path d="M100 0H0V100H100V0Z" fill="url(#paint0_linear_0_3207)"/>
<path d="M49.2134 64.5335H25.4401C24.8839 64.5335 24.3332 64.4238 23.8195 64.2105C23.3058 63.9973 22.8393 63.6848 22.4466 63.2909C22.054 62.897 21.7429 62.4295 21.5313 61.9151C21.3197 61.4008 21.2116 60.8497 21.2134 60.2935V27.4402C21.2134 26.318 21.6583 25.2415 22.4505 24.4468C23.2428 23.652 24.3179 23.2037 25.4401 23.2002H38.5467C38.824 23.2023 39.0937 23.2907 39.3183 23.4532C39.543 23.6157 39.7114 23.8442 39.8001 24.1069L41.3334 28.5335H57.0934L58.6667 24.1069C58.7562 23.842 58.9266 23.612 59.1539 23.4493C59.3812 23.2866 59.6539 23.1995 59.9334 23.2002H73.0401C74.1612 23.2072 75.2342 23.6566 76.0257 24.4506C76.8172 25.2446 77.2632 26.3191 77.2667 27.4402V48.5335H74.6001V27.4402C74.5966 27.0263 74.4316 26.6301 74.1402 26.3362C73.8487 26.0422 73.4539 25.8738 73.0401 25.8669H60.8267L59.3067 30.3069C59.2158 30.5671 59.0464 30.7927 58.822 30.9526C58.5975 31.1126 58.329 31.1991 58.0534 31.2002H40.3734C40.0843 31.2163 39.7978 31.1378 39.5573 30.9766C39.3167 30.8154 39.1352 30.5804 39.0401 30.3069L37.5867 25.8669H25.4401C25.0262 25.8738 24.6314 26.0422 24.34 26.3362C24.0485 26.6301 23.8835 27.0263 23.8801 27.4402V60.2935C23.8835 60.7075 24.0485 61.1036 24.34 61.3976C24.6314 61.6915 25.0262 61.8599 25.4401 61.8669H49.2134V64.5335Z" fill="white"/>
<path d="M49.2 69.8667H23.04C21.1103 69.8351 19.2718 69.0399 17.9273 67.6554C16.5827 66.2709 15.8417 64.4098 15.8667 62.48V25.2534C15.8453 23.3246 16.5874 21.4656 17.9312 20.0818C19.275 18.698 21.1115 17.9018 23.04 17.8667H75.3734C77.3019 17.9018 79.1384 18.698 80.4822 20.0818C81.826 21.4656 82.5681 23.3246 82.5467 25.2534V52.5334H79.88V25.2534C79.9051 24.0307 79.4451 22.8479 78.6006 21.9635C77.7561 21.079 76.5958 20.5648 75.3734 20.5334H23.04C21.8176 20.5648 20.6573 21.079 19.8128 21.9635C18.9683 22.8479 18.5083 24.0307 18.5334 25.2534V62.48C18.5192 63.0859 18.6245 63.6886 18.8434 64.2538C19.0622 64.8189 19.3903 65.3354 19.8088 65.7737C20.2273 66.2121 20.7281 66.5636 21.2825 66.8084C21.8369 67.0531 22.4342 67.1862 23.04 67.2H49.2V69.8667Z" fill="white"/>
<path d="M53.2134 55.2002H31.8801C31.5265 55.2002 31.1873 55.0597 30.9373 54.8097C30.6872 54.5596 30.5468 54.2205 30.5468 53.8669V36.5335C30.5468 36.1799 30.6872 35.8408 30.9373 35.5907C31.1873 35.3407 31.5265 35.2002 31.8801 35.2002H67.8801C68.2337 35.2002 68.5729 35.3407 68.8229 35.5907C69.0729 35.8408 69.2134 36.1799 69.2134 36.5335V47.2002H66.5468V37.8669H33.2134V52.5335H53.2134V55.2002Z" fill="white"/>
<path d="M54.5334 23.2002H43.8667V25.8669H54.5334V23.2002Z" fill="white"/>
<path d="M67.64 52.5334L68.4666 52.6H69.3066H70.1333L71.3066 55.2667C72.4057 55.6173 73.4444 56.1344 74.3866 56.8L77.3333 56.2267L77.88 56.8534L78.4266 57.48L78.9733 58.1067L77.8666 60.88C78.4016 61.8901 78.7708 62.9795 78.96 64.1067L81.5333 65.64L81.4666 66.4667V67.2934V68.1334L78.5466 69.3334C78.208 70.424 77.6995 71.4544 77.04 72.3867L77.7733 75.2934L77.1466 75.84L76.52 76.3867L75.8933 76.9334L73.1066 75.8267C72.0975 76.3527 71.0138 76.7214 69.8933 76.92L68.36 79.4667L67.5333 79.4H66.7066H65.8666L64.6933 76.6534C63.5984 76.315 62.5636 75.8065 61.6266 75.1467L58.7333 75.88L58.1866 75.2534L57.64 74.6267L57.0933 74L58.1866 71.24C57.6562 70.2174 57.2832 69.1206 57.08 67.9867L54.5333 66.36L54.6 65.5334V64.6934V63.8667L57.2666 62.6934C57.6036 61.5913 58.1169 60.5512 58.7866 59.6134L58.0666 56.7334L58.6933 56.1867L59.32 55.64L59.9466 55.0934L62.6933 56.1867C63.7164 55.6465 64.8192 55.2729 65.96 55.08L67.48 52.5334H67.64ZM67.48 49.8667C67.0146 49.8695 66.5581 49.9941 66.1558 50.228C65.7534 50.4619 65.4193 50.797 65.1866 51.2L64.2666 52.7467C63.7064 52.9053 63.1546 53.0922 62.6133 53.3067L60.9333 52.64C60.6183 52.5191 60.2841 52.4559 59.9466 52.4534C59.3002 52.4506 58.6747 52.6828 58.1866 53.1067L57.56 53.6667L56.9333 54.2134L56.3066 54.76C55.9359 55.0847 55.6624 55.5058 55.5164 55.9765C55.3705 56.4473 55.3579 56.9492 55.48 57.4267L55.92 59.1867C55.6304 59.6903 55.3721 60.2113 55.1466 60.7467L53.4933 61.4667C53.0699 61.6729 52.7088 61.9876 52.4465 62.3787C52.1842 62.7698 52.0301 63.2234 52 63.6934V64.52V65.3334V66.16C51.9712 66.6544 52.0808 67.1471 52.3163 67.5828C52.5518 68.0184 52.9039 68.3799 53.3333 68.6267L54.8933 69.56C55.0399 70.1152 55.227 70.6589 55.4533 71.1867L54.6666 72.9067C54.4837 73.363 54.4304 73.8611 54.5128 74.3458C54.5951 74.8305 54.8099 75.2831 55.1333 75.6534L55.6933 76.28L56.24 76.9067L56.7866 77.5334C57.0365 77.8178 57.3441 78.0458 57.689 78.2021C58.0338 78.3584 58.408 78.4396 58.7866 78.44C59.0068 78.4398 59.2262 78.4129 59.44 78.36L61.2266 77.9067C61.6936 78.1841 62.1742 78.4377 62.6666 78.6667L63.3866 80.3467C63.5804 80.8001 63.896 81.1909 64.2985 81.4757C64.701 81.7606 65.1746 81.9282 65.6666 81.96H66.4933H67.3333H68.16H68.3333C68.7987 81.9572 69.2552 81.8327 69.6575 81.5988C70.0599 81.3649 70.394 81.0297 70.6266 80.6267L71.5733 79.04C72.118 78.9477 72.6567 78.823 73.1866 78.6667L74.9066 79.36C75.2217 79.4809 75.5559 79.5441 75.8933 79.5467C76.5398 79.5495 77.1652 79.3173 77.6533 78.8934L78.28 78.3334L78.9066 77.7867L79.5333 77.24C79.9041 76.9153 80.1776 76.4943 80.3235 76.0235C80.4694 75.5528 80.4821 75.0508 80.36 74.5734L79.9066 72.7734C80.1847 72.2861 80.434 71.783 80.6533 71.2667L82.3466 70.5334C82.7999 70.3496 83.1939 70.0446 83.4855 69.6519C83.7771 69.2591 83.9551 68.7938 84 68.3067V67.48V66.6534V65.8134C84.0287 65.319 83.9192 64.8263 83.6837 64.3906C83.4482 63.955 83.096 63.5935 82.6666 63.3467L81.0933 62.4134C80.9452 61.8646 80.7626 61.3258 80.5466 60.8L81.3333 59.0934C81.5163 58.637 81.5695 58.139 81.4872 57.6542C81.4048 57.1695 81.1901 56.717 80.8666 56.3467L80.3066 55.72L79.76 55.0934L79.2133 54.4667C78.9634 54.1822 78.6558 53.9543 78.311 53.7979C77.9661 53.6416 77.5919 53.5605 77.2133 53.56C76.9931 53.5603 76.7737 53.5871 76.56 53.64L74.7866 54.0934C74.3177 53.8114 73.8324 53.5576 73.3333 53.3334L72.6 51.6667C72.4073 51.2152 72.0937 50.8257 71.6937 50.541C71.2938 50.2563 70.823 50.0876 70.3333 50.0534H69.5066H68.68H67.84L67.48 49.8667Z" fill="white"/>
<path d="M68 72.2398C66.7659 72.2398 65.5594 71.8738 64.5333 71.1881C63.5071 70.5025 62.7073 69.5279 62.235 68.3877C61.7627 67.2475 61.6391 65.9929 61.8799 64.7824C62.1207 63.572 62.715 62.4601 63.5877 61.5874C64.4603 60.7147 65.5722 60.1204 66.7827 59.8797C67.9931 59.6389 69.2477 59.7625 70.388 60.2348C71.5282 60.7071 72.5027 61.5069 73.1884 62.533C73.874 63.5592 74.24 64.7656 74.24 65.9998C74.2365 67.6536 73.5779 69.2388 72.4085 70.4082C71.239 71.5777 69.6539 72.2362 68 72.2398ZM68 62.4264C67.2933 62.4264 66.6024 62.636 66.0148 63.0287C65.4271 63.4213 64.9691 63.9794 64.6987 64.6323C64.4282 65.2853 64.3575 66.0037 64.4953 66.6969C64.6332 67.3901 64.9735 68.0268 65.4733 68.5265C65.973 69.0262 66.6097 69.3666 67.3029 69.5044C67.996 69.6423 68.7145 69.5716 69.3675 69.3011C70.0204 69.0306 70.5785 68.5726 70.9711 67.985C71.3638 67.3974 71.5733 66.7065 71.5733 65.9998C71.5733 65.0521 71.1969 64.1432 70.5267 63.473C69.8566 62.8029 68.9477 62.4264 68 62.4264Z" fill="white"/>
</g>
<defs>
<linearGradient id="paint0_linear_0_3207" x1="-20.7107" y1="120.715" x2="120.711" y2="-20.7067" gradientUnits="userSpaceOnUse">
<stop stop-color="#1B660F"/>
<stop offset="1" stop-color="#6CAE3E"/>
</linearGradient>
<clipPath id="clip0_0_3207">
<rect width="100" height="100" fill="white"/>
</clipPath>
</defs>
</svg>
