<svg width="100" height="100" viewBox="0 0 100 100" fill="none" xmlns="http://www.w3.org/2000/svg">
<path d="M85.62 97H63.12C62.5896 97 62.0809 96.7893 61.7058 96.4142C61.3307 96.0391 61.12 95.5304 61.12 95V83.88H38.88V95C38.88 95.5304 38.6693 96.0391 38.2942 96.4142C37.9191 96.7893 37.4104 97 36.88 97H14.38C13.8496 97 13.3409 96.7893 12.9658 96.4142C12.5907 96.0391 12.38 95.5304 12.38 95V5C12.38 4.46957 12.5907 3.96086 12.9658 3.58579C13.3409 3.21071 13.8496 3 14.38 3H85.62C86.1504 3 86.6591 3.21071 87.0342 3.58579C87.4093 3.96086 87.62 4.46957 87.62 5V95C87.62 95.5304 87.4093 96.0391 87.0342 96.4142C86.6591 96.7893 86.1504 97 85.62 97ZM65.12 93H83.62V7H16.38V93H34.88V81.88C34.88 81.3496 35.0907 80.8409 35.4658 80.4658C35.8409 80.0907 36.3496 79.88 36.88 79.88H63.12C63.3826 79.88 63.6427 79.9317 63.8854 80.0322C64.128 80.1328 64.3485 80.2801 64.5342 80.4658C64.7199 80.6515 64.8673 80.872 64.9678 81.1146C65.0683 81.3573 65.12 81.6174 65.12 81.88V93Z" fill="#3F8624"/>
</svg>
