<svg width="100" height="100" viewBox="0 0 100 100" fill="none" xmlns="http://www.w3.org/2000/svg">
<g clip-path="url(#clip0_0_3200)">
<path d="M100 0H0V100H100V0Z" fill="#3F8624"/>
<path d="M73.76 70.6667H26.24C25.1166 70.6632 24.0401 70.2153 23.2458 69.4209C22.4514 68.6265 22.0035 67.5501 22 66.4267V33.5734C22.0035 32.4499 22.4514 31.3735 23.2458 30.5791C24.0401 29.7847 25.1166 29.3369 26.24 29.3334H39.3333C39.6129 29.3326 39.8855 29.4198 40.1128 29.5825C40.3401 29.7452 40.5106 29.9752 40.6 30.24L42.1067 34.6667H57.88L59.4 30.24C59.4928 29.964 59.6733 29.726 59.9141 29.5623C60.1549 29.3986 60.4426 29.3182 60.7333 29.3334H73.84C74.3951 29.3334 74.9447 29.4427 75.4575 29.6551C75.9703 29.8675 76.4362 30.1788 76.8287 30.5713C77.2212 30.9638 77.5325 31.4297 77.7449 31.9425C77.9573 32.4554 78.0667 33.005 78.0667 33.56V66.4267C78.0649 66.9886 77.9519 67.5447 77.734 68.0627C77.5162 68.5807 77.1978 69.0504 76.7974 69.4446C76.3969 69.8389 75.9223 70.1499 75.401 70.3596C74.8796 70.5694 74.3219 70.6737 73.76 70.6667ZM26.24 32C25.8227 32 25.4225 32.1658 25.1275 32.4608C24.8324 32.7559 24.6667 33.1561 24.6667 33.5734V66.4267C24.6667 66.844 24.8324 67.2441 25.1275 67.5392C25.4225 67.8343 25.8227 68 26.24 68H73.76C74.1773 68 74.5775 67.8343 74.8725 67.5392C75.1676 67.2441 75.3333 66.844 75.3333 66.4267V33.56C75.3299 33.1474 75.1644 32.7526 74.8726 32.4608C74.5808 32.169 74.186 32.0035 73.7733 32H61.6133L60.0933 36.4267C60.0046 36.6894 59.8362 36.9179 59.6116 37.0804C59.387 37.2429 59.1172 37.3313 58.84 37.3334H41.16C40.8805 37.3341 40.6078 37.2469 40.3805 37.0842C40.1532 36.9215 39.9828 36.6915 39.8933 36.4267L38.3867 32H26.24Z" fill="white"/>
<path d="M76.16 76H23.84C22.884 75.9861 21.94 75.784 21.0621 75.4052C20.1841 75.0265 19.3894 74.4785 18.7233 73.7925C18.0572 73.1066 17.5327 72.2962 17.1798 71.4075C16.8269 70.5189 16.6526 69.5694 16.6667 68.6133V31.3867C16.6526 30.4306 16.8269 29.4812 17.1798 28.5925C17.5327 27.7038 18.0572 26.8934 18.7233 26.2075C19.3894 25.5215 20.1841 24.9735 21.0621 24.5948C21.94 24.216 22.884 24.0139 23.84 24H76.16C77.1161 24.0139 78.06 24.216 78.938 24.5948C79.8159 24.9735 80.6106 25.5215 81.2768 26.2075C81.9429 26.8934 82.4674 27.7038 82.8202 28.5925C83.1731 29.4812 83.3475 30.4306 83.3334 31.3867V68.6133C83.3475 69.5694 83.1731 70.5189 82.8202 71.4075C82.4674 72.2962 81.9429 73.1066 81.2768 73.7925C80.6106 74.4785 79.8159 75.0265 78.938 75.4052C78.06 75.784 77.1161 75.9861 76.16 76ZM23.84 26.6667C22.6175 26.6981 21.4572 27.2123 20.6128 28.0968C19.7683 28.9812 19.3083 30.164 19.3334 31.3867V68.6133C19.3083 69.836 19.7683 71.0188 20.6128 71.9033C21.4572 72.7877 22.6175 73.3019 23.84 73.3333H76.16C77.3825 73.3019 78.5428 72.7877 79.3873 71.9033C80.2318 71.0188 80.6918 69.836 80.6667 68.6133V31.3867C80.6918 30.164 80.2318 28.9812 79.3873 28.0968C78.5428 27.2123 77.3825 26.6981 76.16 26.6667H23.84Z" fill="white"/>
<path d="M67.3334 61.3335H32.6667C32.3131 61.3335 31.9739 61.193 31.7239 60.943C31.4738 60.6929 31.3334 60.3538 31.3334 60.0002V42.6668C31.3334 42.3132 31.4738 41.9741 31.7239 41.724C31.9739 41.474 32.3131 41.3335 32.6667 41.3335H67.3334C67.687 41.3335 68.0261 41.474 68.2762 41.724C68.5262 41.9741 68.6667 42.3132 68.6667 42.6668V60.0002C68.6667 60.3538 68.5262 60.6929 68.2762 60.943C68.0261 61.193 67.687 61.3335 67.3334 61.3335ZM34 58.6668H66V44.0002H34V58.6668Z" fill="white"/>
<path d="M55.3334 29.3335H44.6667V32.0002H55.3334V29.3335Z" fill="white"/>
</g>
<defs>
<clipPath id="clip0_0_3200">
<rect width="100" height="100" fill="white"/>
</clipPath>
</defs>
</svg>
