<svg width="100" height="100" viewBox="0 0 100 100" fill="none" xmlns="http://www.w3.org/2000/svg">
<path d="M85.62 97H63.12C62.5896 97 62.0809 96.7893 61.7058 96.4142C61.3307 96.0391 61.12 95.5304 61.12 95V83.88H38.88V95C38.88 95.5304 38.6693 96.0391 38.2942 96.4142C37.9191 96.7893 37.4104 97 36.88 97H14.38C13.8496 97 13.3409 96.7893 12.9658 96.4142C12.5907 96.0391 12.38 95.5304 12.38 95V5C12.38 4.46957 12.5907 3.96086 12.9658 3.58579C13.3409 3.21071 13.8496 3 14.38 3H85.62C86.1504 3 86.6591 3.21071 87.0342 3.58579C87.4093 3.96086 87.62 4.46957 87.62 5V95C87.62 95.5304 87.4093 96.0391 87.0342 96.4142C86.6591 96.7893 86.1504 97 85.62 97ZM65.12 93H83.62V7H16.38V93H34.88V81.88C34.88 81.3496 35.0907 80.8409 35.4658 80.4658C35.8409 80.0907 36.3496 79.88 36.88 79.88H63.12C63.3826 79.88 63.6427 79.9317 63.8854 80.0322C64.128 80.1328 64.3485 80.2801 64.5342 80.4658C64.7199 80.6515 64.8673 80.872 64.9678 81.1146C65.0683 81.3573 65.12 81.6174 65.12 81.88V93Z" fill="#3F8624"/>
<path d="M32.4 28.8999C31.4123 29.3667 30.3324 29.6059 29.24 29.5999C25.24 29.5999 23.24 26.9332 23.24 21.5999C23.0896 19.4831 23.6376 17.3754 24.8 15.5999C25.3392 14.9198 26.0367 14.3821 26.8315 14.0335C27.6263 13.6848 28.4944 13.536 29.36 13.5999C30.3589 13.6054 31.3461 13.8164 32.26 14.2199V15.9999C31.4064 15.7213 30.5174 15.5663 29.62 15.5399C29.0288 15.49 28.4347 15.5904 27.8927 15.8317C27.3507 16.0729 26.8785 16.4473 26.52 16.9199C25.7573 18.2688 25.416 19.8152 25.54 21.3599V21.8999C25.426 23.4391 25.752 24.9789 26.48 26.3399C26.8288 26.8068 27.2912 27.1769 27.8232 27.4149C28.3553 27.6529 28.9393 27.751 29.52 27.6999C30.5141 27.6455 31.4963 27.4571 32.44 27.1399L32.4 28.8999Z" fill="#3F8624"/>
<path d="M42.42 29.3798L41.34 25.1598H36.64L35.58 29.3798H33.34L37.84 13.7798H40.22L44.72 29.3798H42.42ZM37.04 23.4998H40.9L38.9 15.8798L37.04 23.4998Z" fill="#3F8624"/>
<path d="M54.88 28.9001C53.8852 29.3667 52.7989 29.6058 51.7 29.6001C47.7 29.6001 45.7 26.9335 45.7 21.6001C45.5497 19.4833 46.0977 17.3756 47.26 15.6001C47.7981 14.9188 48.4954 14.38 49.2905 14.0313C50.0857 13.6825 50.9543 13.5345 51.82 13.6001C52.819 13.6056 53.8061 13.8167 54.72 14.2201V16.0001C53.8419 15.7071 52.9254 15.5453 52 15.5201C51.4119 15.4719 50.8212 15.5731 50.2827 15.8144C49.7442 16.0556 49.2755 16.4291 48.92 16.9001C48.1782 18.2555 47.8578 19.8015 48 21.3401V21.8801C47.8782 23.4198 48.2047 24.9619 48.94 26.3201C49.2876 26.7885 49.7497 27.1597 50.2821 27.3978C50.8145 27.636 51.3992 27.7332 51.98 27.6801C52.9741 27.6257 53.9563 27.4374 54.9 27.1201L54.88 28.9001Z" fill="#3F8624"/>
<path d="M65.16 29.3798V22.2798H59.4999V29.3798H57.3199V13.7798H59.4999V20.4998H65.16V13.7798H67.3399V29.3798H65.16Z" fill="#3F8624"/>
<path d="M70.72 29.3798V13.7798H78.72V15.5398H72.9V20.4398H77.62V22.1998H72.9V27.6198H78.62V29.3798H70.72Z" fill="#3F8624"/>
</svg>
