<svg width="100" height="100" viewBox="0 0 100 100" fill="none" xmlns="http://www.w3.org/2000/svg">
<path d="M13.4399 47.1799H9.43994V26.8999C9.43994 25.3086 10.0721 23.7824 11.1973 22.6572C12.3225 21.532 13.8486 20.8999 15.4399 20.8999H33.9999C34.4336 20.8758 34.8633 20.9935 35.2241 21.2352C35.585 21.477 35.8573 21.8296 35.9999 22.2399L37.9999 28.3999H59.9999L61.9999 22.1599C62.1375 21.7664 62.3946 21.4257 62.7352 21.1854C63.0759 20.9452 63.4831 20.8174 63.8999 20.8199H82.3199C83.9112 20.8199 85.4374 21.452 86.5626 22.5772C87.6878 23.7024 88.3199 25.2286 88.3199 26.8199V37.7399H84.3199V26.8999C84.3199 26.3694 84.1092 25.8607 83.7342 25.4856C83.3591 25.1106 82.8504 24.8999 82.3199 24.8999H65.3199L63.2199 31.0399C63.0858 31.4371 62.8301 31.7821 62.4892 32.0262C62.1483 32.2702 61.7392 32.4009 61.3199 32.3999H36.4999C36.0841 32.3968 35.6795 32.2641 35.3426 32.0204C35.0056 31.7766 34.753 31.4339 34.6199 31.0399L32.4999 24.8999H15.4999C14.9695 24.8999 14.4608 25.1106 14.0857 25.4856C13.7107 25.8607 13.4999 26.3694 13.4999 26.8999L13.4399 47.1799Z" fill="#3F8624"/>
<path d="M82.36 79.1799H15.5C13.9087 79.1799 12.3826 78.5478 11.2574 77.4226C10.1321 76.2974 9.5 74.7712 9.5 73.1799V58.4399H13.5V73.0999C13.5 73.6304 13.7107 74.1391 14.0858 74.5142C14.4609 74.8892 14.9696 75.0999 15.5 75.0999H82.36C82.8904 75.0999 83.3991 74.8892 83.7742 74.5142C84.1493 74.1391 84.36 73.6304 84.36 73.0999V67.8199H88.36V73.0999C88.3706 73.8946 88.2232 74.6834 87.9264 75.4206C87.6297 76.1578 87.1894 76.8287 86.6312 77.3944C86.073 77.96 85.4079 78.4092 84.6747 78.7157C83.9415 79.0222 83.1547 79.18 82.36 79.1799Z" fill="#3F8624"/>
<path d="M85.72 86.6798H12.16C9.42276 86.6272 6.81761 85.4933 4.91385 83.5258C3.01009 81.5584 1.96249 78.9173 2 76.1798V58.4398H6V76.1798C5.98141 77.0151 6.12757 77.8458 6.43013 78.6246C6.73269 79.4033 7.18572 80.1148 7.76334 80.7185C8.34096 81.3221 9.03185 81.806 9.79654 82.1425C10.5612 82.4791 11.3847 82.6616 12.22 82.6798H85.72C86.5604 82.6695 87.3903 82.4926 88.162 82.1596C88.9336 81.8265 89.6315 81.3438 90.2155 80.7394C90.7994 80.135 91.2578 79.4209 91.5641 78.6382C91.8704 77.8556 92.0186 77.02 92 76.1798V60.7198H96V76.1798C96.0185 77.5453 95.7668 78.9011 95.2595 80.169C94.7521 81.4369 93.9991 82.592 93.0437 83.5678C92.0883 84.5436 90.9494 85.3209 89.6926 85.855C88.4357 86.3891 87.0856 86.6694 85.72 86.6798ZM6 47.1798H2V23.8198C1.96249 21.0823 3.01009 18.4413 4.91385 16.4738C6.81761 14.5063 9.42276 13.3724 12.16 13.3198H85.72C87.0856 13.3302 88.4357 13.6106 89.6926 14.1446C90.9494 14.6787 92.0883 15.456 93.0437 16.4319C93.9991 17.4077 94.7521 18.5628 95.2595 19.8307C95.7668 21.0986 96.0185 22.4543 96 23.8198V44.8998H92V23.8198C92.0186 22.9846 91.8724 22.1538 91.5699 21.3751C91.2673 20.5963 90.8143 19.8848 90.2367 19.2812C89.659 18.6776 88.9681 18.1937 88.2035 17.8571C87.4388 17.5206 86.6153 17.338 85.78 17.3198H12.16C10.4836 17.3721 8.89576 18.0845 7.74207 19.3019C6.58838 20.5193 5.96226 22.1431 6 23.8198V47.1798Z" fill="#3F8624"/>
<path d="M77.1799 47.1802H73.1799V41.6802H48.9399V37.6802H75.1799C75.7104 37.6802 76.2191 37.8909 76.5942 38.266C76.9692 38.641 77.1799 39.1497 77.1799 39.6802V47.1802Z" fill="#3F8624"/>
<path d="M26.5601 47.1802H22.5601V39.6802C22.5601 39.1497 22.7708 38.641 23.1458 38.266C23.5209 37.8909 24.0296 37.6802 24.5601 37.6802H35.8201V41.6802H26.5601V47.1802Z" fill="#3F8624"/>
<path d="M35.8201 65.9999H24.5601C24.0296 65.9999 23.5209 65.7892 23.1458 65.4142C22.7708 65.0391 22.5601 64.5304 22.5601 63.9999V58.4399H26.5601V61.9999H35.8201V65.9999Z" fill="#3F8624"/>
<path d="M75.1799 65.9999H48.9399V61.9999H73.1799V58.4399H77.1799V63.9999C77.1799 64.5304 76.9692 65.0391 76.5942 65.4142C76.2191 65.7892 75.7104 65.9999 75.1799 65.9999Z" fill="#3F8624"/>
<path d="M56.4399 20.8198H41.4399V24.8198H56.4399V20.8198Z" fill="#3F8624"/>
<path d="M84.1 65.4802L81.26 62.6602L91.04 52.8202L81.26 42.9802L84.1 40.1602L95.28 51.4002C95.6525 51.7749 95.8616 52.2818 95.8616 52.8102C95.8616 53.3385 95.6525 53.8454 95.28 54.2202L84.1 65.4802Z" fill="#3F8624"/>
<path d="M93.8599 50.8198H56.4399V54.8198H93.8599V50.8198Z" fill="#3F8624"/>
<path d="M41.04 65.4802L38.2 62.6602L48 52.8202L38.2 42.9802L41.04 40.1602L52.24 51.4002C52.6125 51.7749 52.8215 52.2818 52.8215 52.8102C52.8215 53.3385 52.6125 53.8454 52.24 54.2202L41.04 65.4802Z" fill="#3F8624"/>
<path d="M50.7401 50.8198H2.06006V54.8198H50.7401V50.8198Z" fill="#3F8624"/>
</svg>
