<svg width="100" height="100" viewBox="0 0 100 100" fill="none" xmlns="http://www.w3.org/2000/svg">
<path d="M85.62 97H63.12C62.5896 97 62.0809 96.7893 61.7058 96.4142C61.3307 96.0391 61.12 95.5304 61.12 95V83.88H38.88V95C38.88 95.5304 38.6693 96.0391 38.2942 96.4142C37.9191 96.7893 37.4104 97 36.88 97H14.38C13.8496 97 13.3409 96.7893 12.9658 96.4142C12.5907 96.0391 12.38 95.5304 12.38 95V5C12.38 4.46957 12.5907 3.96086 12.9658 3.58579C13.3409 3.21071 13.8496 3 14.38 3H85.62C86.1504 3 86.6591 3.21071 87.0342 3.58579C87.4093 3.96086 87.62 4.46957 87.62 5V95C87.62 95.5304 87.4093 96.0391 87.0342 96.4142C86.6591 96.7893 86.1504 97 85.62 97ZM65.12 93H83.62V7H16.38V93H34.88V81.88C34.88 81.3496 35.0907 80.8409 35.4658 80.4658C35.8409 80.0907 36.3496 79.88 36.88 79.88H63.12C63.3826 79.88 63.6427 79.9317 63.8854 80.0322C64.128 80.1328 64.3485 80.2801 64.5342 80.4658C64.7199 80.6515 64.8673 80.872 64.9678 81.1146C65.0683 81.3573 65.12 81.6174 65.12 81.88V93Z" fill="#3F8624"/>
<path d="M38.1999 31.2399L33.3199 14.3599H35.9999L39.5599 28.6999L43.1599 14.3599H45.6599L40.7799 31.2399H38.1999Z" fill="#3F8624"/>
<path d="M50.82 31.2398V16.3398H46.62V14.3398H57.4V16.3398H53.18V31.2398H50.82Z" fill="#3F8624"/>
<path d="M59.5601 31.2399V14.3599H62.0001V29.2799H68.0001V31.2799L59.5601 31.2399Z" fill="#3F8624"/>
<path d="M34 70.7599C31.1907 70.7638 28.4433 69.9344 26.1055 68.3765C23.7677 66.8185 21.9445 64.6022 20.8667 62.0078C19.7889 59.4135 19.5048 56.5577 20.0505 53.8019C20.5961 51.046 21.9469 48.5139 23.932 46.526C25.9172 44.5381 28.4473 43.1837 31.2024 42.6342C33.9575 42.0847 36.8136 42.3647 39.4095 43.4389C42.0054 44.513 44.2243 46.3331 45.7855 48.6687C47.3467 51.0043 48.18 53.7505 48.18 56.5599C48.1748 60.3209 46.6797 63.9266 44.0222 66.5879C41.3646 69.2492 37.761 70.7493 34 70.7599ZM34 46.3799C31.981 46.3759 30.0061 46.9713 28.3257 48.0905C26.6453 49.2098 25.3348 50.8026 24.5603 52.6672C23.7858 54.5319 23.5821 56.5844 23.9751 58.5649C24.368 60.5453 25.3399 62.3646 26.7676 63.7923C28.1953 65.22 30.0146 66.1919 31.995 66.5848C33.9755 66.9778 36.028 66.7741 37.8927 65.9996C39.7573 65.2251 41.3501 63.9146 42.4694 62.2342C43.5886 60.5537 44.184 58.5789 44.18 56.5599C44.18 55.223 43.9167 53.8992 43.4051 52.6641C42.8935 51.429 42.1437 50.3068 41.1984 49.3615C40.2531 48.4162 39.1308 47.6664 37.8958 47.1548C36.6607 46.6432 35.3369 46.3799 34 46.3799Z" fill="#3F8624"/>
<path d="M66 70.7599C63.1907 70.7638 60.4433 69.9344 58.1055 68.3765C55.7677 66.8185 53.9445 64.6022 52.8667 62.0078C51.7889 59.4135 51.5048 56.5577 52.0505 53.8019C52.5961 51.046 53.9469 48.5139 55.932 46.526C57.9172 44.5381 60.4473 43.1837 63.2024 42.6342C65.9575 42.0847 68.8136 42.3647 71.4095 43.4389C74.0054 44.513 76.2243 46.3331 77.7855 48.6687C79.3467 51.0043 80.18 53.7505 80.18 56.5599C80.1748 60.3209 78.6797 63.9266 76.0222 66.5879C73.3646 69.2492 69.761 70.7493 66 70.7599ZM66 46.3799C63.981 46.3759 62.0061 46.9713 60.3257 48.0905C58.6453 49.2098 57.3348 50.8026 56.5603 52.6672C55.7858 54.5319 55.5821 56.5844 55.9751 58.5649C56.368 60.5453 57.3399 62.3646 58.7676 63.7923C60.1953 65.22 62.0146 66.1919 63.995 66.5848C65.9755 66.9778 68.028 66.7741 69.8926 65.9996C71.7573 65.2251 73.3501 63.9146 74.4694 62.2342C75.5886 60.5537 76.184 58.5789 76.18 56.5599C76.18 55.223 75.9167 53.8992 75.4051 52.6641C74.8935 51.429 74.1437 50.3068 73.1984 49.3615C72.2531 48.4162 71.1308 47.6664 69.8957 47.1548C68.6607 46.6432 67.3369 46.3799 66 46.3799Z" fill="#3F8624"/>
<path d="M66.88 66.7598H35V70.7598H66.88V66.7598Z" fill="#3F8624"/>
</svg>
