<svg width="100" height="100" viewBox="0 0 100 100" fill="none" xmlns="http://www.w3.org/2000/svg">
<g clip-path="url(#clip0_0_3246)">
<path d="M100 0H0V100H100V0Z" fill="url(#paint0_linear_0_3246)"/>
<path d="M72.8133 34.7601C72.28 30.6001 70.04 27.5735 66.6933 26.5468C65.4706 26.1686 64.1745 26.0924 62.916 26.3246C61.6574 26.5568 60.4738 27.0906 59.4666 27.8801C58.4976 25.747 57.1413 23.812 55.4666 22.1735C53.0417 19.7117 49.9457 18.0182 46.5647 17.3041C43.1837 16.5901 39.6673 16.8872 36.454 18.1583C33.2407 19.4294 30.4727 21.6183 28.4951 24.452C26.5175 27.2857 25.4179 30.6389 25.3333 34.0935V35.0668C22.7452 35.7932 20.4795 37.375 18.9056 39.5542C17.3317 41.7334 16.5425 44.3815 16.6666 47.0668V48.0001C16.8517 50.8033 18.0252 53.4499 19.9784 55.469C21.9316 57.4881 24.5378 58.7488 27.3333 59.0268V56.3601C25.2207 56.0608 23.2745 55.0467 21.8188 53.4867C20.3632 51.9267 19.4859 49.915 19.3333 47.7868V47.0535C19.3333 40.3868 24.1066 38.1735 27.0133 37.4268C27.3532 37.3709 27.6583 37.1855 27.8646 36.9096C28.0709 36.6337 28.1624 36.2887 28.12 35.9468C28.0367 35.3326 27.9966 34.7133 28 34.0935C28.0861 31.1647 29.0327 28.326 30.7216 25.9317C32.4106 23.5374 34.7672 21.6934 37.4974 20.6297C40.2276 19.5661 43.2106 19.3299 46.0742 19.9506C48.9378 20.5713 51.5552 22.0215 53.6 24.1201C55.4743 25.9981 56.8968 28.2779 57.76 30.7868C57.8208 30.9517 57.9136 31.103 58.0331 31.2319C58.1527 31.3608 58.2965 31.4648 58.4563 31.5379C58.6162 31.611 58.7889 31.6518 58.9646 31.6579C59.1403 31.664 59.3154 31.6353 59.48 31.5735C59.7128 31.4845 59.916 31.3321 60.0666 31.1335C60.7133 30.2178 61.632 29.5291 62.6923 29.1653C63.7527 28.8015 64.9007 28.781 65.9733 29.1068C68.5066 29.8801 70.08 32.3601 70.2933 35.9201C70.311 36.2136 70.4252 36.493 70.6181 36.7148C70.811 36.9367 71.0718 37.0885 71.36 37.1468C77.56 38.4001 80.6933 41.7468 80.6933 47.0935C80.6933 52.4401 78.0266 55.6268 72.6933 56.2535V58.9201C79.6 58.2268 83.36 54.0801 83.36 47.0801C83.3066 40.7868 79.5866 36.3868 72.8133 34.7601Z" fill="white"/>
<path d="M68.6399 83.0534H61.9733C61.6196 83.0534 61.2805 82.9129 61.0305 82.6629C60.7804 82.4128 60.6399 82.0737 60.6399 81.72V49.2134C57.4907 47.4897 53.9633 46.5734 50.3733 46.5467C46.4801 46.5741 42.663 47.6272 39.3066 49.6V81.72C39.3066 82.0737 39.1661 82.4128 38.9161 82.6629C38.666 82.9129 38.3269 83.0534 37.9733 83.0534H31.3066C30.953 83.0534 30.6138 82.9129 30.3638 82.6629C30.1137 82.4128 29.9733 82.0737 29.9733 81.72V45.4534C29.9775 45.2647 30.0199 45.0789 30.0978 44.9071C30.1757 44.7352 30.2876 44.5809 30.4266 44.4534C35.3333 40.12 42.6133 37.64 50.4266 37.64C57.2706 37.508 63.9657 39.6459 69.4666 43.72C69.6237 43.8442 69.7509 44.0022 69.8386 44.1822C69.9263 44.3623 69.9723 44.5598 69.9733 44.76V81.72C69.9733 81.8951 69.9388 82.0685 69.8718 82.2303C69.8048 82.3921 69.7066 82.539 69.5827 82.6629C69.4589 82.7867 69.3119 82.8849 69.1502 82.9519C68.9884 83.0189 68.815 83.0534 68.6399 83.0534ZM63.3066 80.3867H67.3066V45.4267C62.3496 41.9744 56.426 40.1819 50.3866 40.3067C43.9865 40.1413 37.723 42.1743 32.6399 46.0667V80.3867H36.6399V48.8134C36.6247 48.5807 36.6755 48.3484 36.7863 48.1432C36.8972 47.938 37.0636 47.7682 37.2666 47.6534C41.2131 45.2301 45.7425 43.9215 50.3733 43.8667C54.6526 43.9205 58.8456 45.0778 62.5466 47.2267C62.7675 47.3318 62.9552 47.4955 63.0893 47.7001C63.2233 47.9047 63.2985 48.1423 63.3066 48.3867V80.3867Z" fill="white"/>
</g>
<defs>
<linearGradient id="paint0_linear_0_3246" x1="-20.7067" y1="120.707" x2="120.707" y2="-20.7067" gradientUnits="userSpaceOnUse">
<stop stop-color="#1B660F"/>
<stop offset="1" stop-color="#6CAE3E"/>
</linearGradient>
<clipPath id="clip0_0_3246">
<rect width="100" height="100" fill="white"/>
</clipPath>
</defs>
</svg>
