<svg width="100" height="100" viewBox="0 0 100 100" fill="none" xmlns="http://www.w3.org/2000/svg">
<g clip-path="url(#clip0_0_3167)">
<path d="M100 0H0V100H100V0Z" fill="url(#paint0_linear_0_3167)"/>
<path d="M24.8536 46.5787L22.3303 47.355L30.4537 73.7604L32.977 72.9841L24.8536 46.5787Z" fill="white"/>
<path d="M45.1011 24.7403L24.776 38.8687L26.2808 41.0335L46.6059 26.9051L45.1011 24.7403Z" fill="white"/>
<path d="M54.8104 24.5447L53.2965 26.7075L73.603 40.921L75.1169 38.7582L54.8104 24.5447Z" fill="white"/>
<path d="M75.0462 45.9633L67.0344 72.4849L69.5688 73.2505L77.5806 46.7289L75.0462 45.9633Z" fill="white"/>
<path d="M62.1867 75.0801H37.8134V77.7201H62.1867V75.0801Z" fill="white"/>
<path d="M50 28.9733C48.9451 28.9733 47.914 28.6605 47.0369 28.0745C46.1599 27.4884 45.4763 26.6555 45.0726 25.681C44.6689 24.7064 44.5633 23.6341 44.7691 22.5995C44.9749 21.5649 45.4828 20.6146 46.2287 19.8687C46.9746 19.1229 47.9249 18.6149 48.9595 18.4091C49.994 18.2033 51.0664 18.309 52.0409 18.7126C53.0155 19.1163 53.8484 19.7999 54.4345 20.6769C55.0205 21.554 55.3333 22.5851 55.3333 23.64C55.3333 25.0545 54.7714 26.411 53.7712 27.4112C52.771 28.4114 51.4145 28.9733 50 28.9733ZM50 20.8533C49.4567 20.8533 48.9257 21.0144 48.474 21.3162C48.0223 21.618 47.6703 22.047 47.4624 22.5489C47.2545 23.0508 47.2001 23.603 47.3061 24.1358C47.4121 24.6686 47.6737 25.158 48.0578 25.5422C48.4419 25.9263 48.9313 26.1879 49.4641 26.2939C49.9969 26.3998 50.5492 26.3455 51.0511 26.1376C51.553 25.9297 51.9819 25.5776 52.2837 25.1259C52.5855 24.6743 52.7466 24.1432 52.7466 23.6C52.7466 22.8715 52.4573 22.1729 51.9422 21.6578C51.4271 21.1427 50.7284 20.8533 50 20.8533Z" fill="white"/>
<path d="M33.7467 81.7868C32.6918 81.7868 31.6607 81.474 30.7836 80.888C29.9066 80.3019 29.223 79.469 28.8193 78.4944C28.4156 77.5199 28.31 76.4475 28.5158 75.413C28.7216 74.3784 29.2296 73.4281 29.9754 72.6822C30.7213 71.9363 31.6716 71.4284 32.7062 71.2226C33.7408 71.0168 34.8131 71.1224 35.7876 71.5261C36.7622 71.9298 37.5951 72.6133 38.1812 73.4904C38.7672 74.3675 39.08 75.3986 39.08 76.4535C39.08 77.8679 38.5181 79.2245 37.5179 80.2247C36.5177 81.2249 35.1612 81.7868 33.7467 81.7868ZM33.7467 73.6668C33.2001 73.667 32.666 73.8303 32.2127 74.1358C31.7595 74.4413 31.4077 74.8751 31.2023 75.3817C30.997 75.8882 30.9475 76.4445 31.0601 76.9794C31.1727 77.5143 31.4424 78.0034 31.8346 78.3841C32.2267 78.7649 32.7236 79.02 33.2615 79.1167C33.7995 79.2135 34.3541 79.1476 34.8544 78.9274C35.3547 78.7071 35.7779 78.3427 36.0698 77.8806C36.3618 77.4185 36.5093 76.8798 36.4933 76.3335C36.4759 75.6178 36.1784 74.9376 35.6648 74.439C35.1512 73.9403 34.4625 73.6631 33.7467 73.6668Z" fill="white"/>
<path d="M66.2533 81.7868C65.1984 81.7868 64.1673 81.474 63.2902 80.888C62.4132 80.3019 61.7296 79.469 61.3259 78.4944C60.9222 77.5199 60.8166 76.4475 61.0224 75.413C61.2282 74.3784 61.7361 73.4281 62.482 72.6822C63.2279 71.9363 64.1782 71.4284 65.2128 71.2226C66.2473 71.0168 67.3197 71.1224 68.2942 71.5261C69.2688 71.9298 70.1017 72.6133 70.6878 73.4904C71.2738 74.3675 71.5866 75.3986 71.5866 76.4535C71.5866 77.8679 71.0247 79.2245 70.0245 80.2247C69.0243 81.2249 67.6677 81.7868 66.2533 81.7868ZM66.2533 73.6668C65.7061 73.6644 65.1707 73.8254 64.7157 74.1293C64.2606 74.4332 63.9068 74.866 63.6994 75.3724C63.492 75.8787 63.4405 76.4355 63.5517 76.9712C63.6628 77.507 63.9314 77.9973 64.323 78.3794C64.7147 78.7615 65.2115 79.018 65.7499 79.1158C66.2882 79.2137 66.8435 79.1485 67.3446 78.9287C67.8456 78.7089 68.2696 78.3444 68.5622 77.882C68.8547 77.4196 69.0025 76.8804 68.9866 76.3335C68.9692 75.6201 68.6736 74.9419 68.1628 74.4436C67.6521 73.9454 66.9668 73.6666 66.2533 73.6668Z" fill="white"/>
<path d="M22.5866 48.2799C21.5318 48.2799 20.5007 47.9672 19.6236 47.3811C18.7465 46.7951 18.0629 45.9621 17.6593 44.9876C17.2556 44.0131 17.15 42.9407 17.3558 41.9061C17.5616 40.8716 18.0695 39.9213 18.8154 39.1754C19.5613 38.4295 20.5116 37.9215 21.5461 37.7158C22.5807 37.51 23.6531 37.6156 24.6276 38.0193C25.6021 38.4229 26.4351 39.1065 27.0211 39.9836C27.6072 40.8606 27.92 41.8918 27.92 42.9466C27.92 44.3611 27.3581 45.7177 26.3579 46.7178C25.3577 47.718 24.0011 48.2799 22.5866 48.2799ZM22.5866 40.1466C22.0403 40.1307 21.5016 40.2782 21.0395 40.5701C20.5774 40.8621 20.2129 41.2853 19.9927 41.7856C19.7725 42.2858 19.7066 42.8404 19.8034 43.3784C19.9001 43.9164 20.1552 44.4132 20.536 44.8054C20.9167 45.1976 21.4058 45.4672 21.9407 45.5798C22.4755 45.6925 23.0319 45.643 23.5384 45.4376C24.045 45.2323 24.4788 44.8805 24.7843 44.4272C25.0898 43.974 25.2531 43.4399 25.2533 42.8933C25.2536 42.1785 24.9752 41.4917 24.4773 40.9788C23.9794 40.466 23.3011 40.1674 22.5866 40.1466Z" fill="white"/>
<path d="M77.4133 48.2799C76.3585 48.2799 75.3273 47.9672 74.4502 47.3811C73.5732 46.7951 72.8896 45.9621 72.4859 44.9876C72.0823 44.0131 71.9766 42.9407 72.1824 41.9061C72.3882 40.8716 72.8962 39.9213 73.6421 39.1754C74.3879 38.4295 75.3382 37.9215 76.3728 37.7158C77.4074 37.51 78.4797 37.6156 79.4543 38.0193C80.4288 38.4229 81.2618 39.1065 81.8478 39.9836C82.4338 40.8606 82.7466 41.8918 82.7466 42.9466C82.7466 44.3611 82.1847 45.7177 81.1845 46.7178C80.1843 47.718 78.8278 48.2799 77.4133 48.2799ZM77.4133 40.1466C76.8701 40.1466 76.339 40.3077 75.8873 40.6095C75.4356 40.9113 75.0836 41.3403 74.8757 41.8422C74.6678 42.3441 74.6134 42.8963 74.7194 43.4291C74.8254 43.9619 75.087 44.4513 75.4711 44.8355C75.8552 45.2196 76.3446 45.4812 76.8774 45.5872C77.4102 45.6932 77.9625 45.6388 78.4644 45.4309C78.9663 45.223 79.3952 44.8709 79.6971 44.4192C79.9989 43.9676 80.16 43.4365 80.16 42.8933C80.16 42.1648 79.8706 41.4662 79.3555 40.9511C78.8404 40.436 78.1418 40.1466 77.4133 40.1466Z" fill="white"/>
<path d="M51.3199 27.6533H48.6799V34.76H51.3199V27.6533Z" fill="white"/>
<path d="M27.1631 43.7026L26.1227 46.1289L33.2301 49.1766L34.2706 46.7503L27.1631 43.7026Z" fill="white"/>
<path d="M38.7352 66.5378L34.6748 72.6284L36.8714 74.0928L40.9318 68.0022L38.7352 66.5378Z" fill="white"/>
<path d="M61.2533 66.5385L59.0566 68.0029L63.117 74.0935L65.3137 72.6291L61.2533 66.5385Z" fill="white"/>
<path d="M72.8332 43.7028L65.7257 46.7505L66.7661 49.1768L73.8736 46.1291L72.8332 43.7028Z" fill="white"/>
<path d="M39.4399 46.9867C39.1062 46.988 38.784 46.8642 38.5371 46.6395C38.2903 46.4149 38.1366 46.1058 38.1066 45.7734L37.7333 40.7067L40.3999 40.52L40.6666 44.2534L44.3999 44L44.5999 46.6667L39.5333 47.04L39.4399 46.9867Z" fill="white"/>
<path d="M49.9867 66.0134C46.3842 66.017 42.9268 64.5939 40.3707 62.0553C37.8146 59.5167 36.3678 56.0692 36.3467 52.4667H39.0133C39.0122 54.1718 39.4123 55.8532 40.1813 57.375C40.9503 58.8968 42.0666 60.2162 43.44 61.2267C45.7817 62.968 48.7188 63.7087 51.6062 63.2862C54.4936 62.8638 57.0954 61.3126 58.84 58.9734C59.7039 57.8145 60.331 56.4967 60.6853 55.0954C61.0396 53.694 61.1143 52.2366 60.905 50.8064C60.6957 49.3762 60.2066 48.0012 59.4657 46.7601C58.7247 45.519 57.7464 44.4362 56.5867 43.5734C54.245 41.8321 51.3079 41.0914 48.4205 41.5139C45.533 41.9363 42.9313 43.4875 41.1867 45.8267L39.0667 44.24C40.4573 42.3697 42.3037 40.8865 44.4298 39.9317C46.5559 38.9769 48.891 38.5823 51.2129 38.7853C53.5347 38.9884 55.7658 39.7825 57.6939 41.0919C59.622 42.4013 61.1828 44.1825 62.2276 46.2659C63.2725 48.3492 63.7666 50.6653 63.663 52.9937C63.5594 55.3221 62.8615 57.5852 61.6357 59.5675C60.4099 61.5498 58.6971 63.1853 56.6603 64.3183C54.6236 65.4513 52.3307 66.044 50 66.04L49.9867 66.0134Z" fill="white"/>
</g>
<defs>
<linearGradient id="paint0_linear_0_3167" x1="-20.72" y1="120.72" x2="120.707" y2="-20.7067" gradientUnits="userSpaceOnUse">
<stop stop-color="#1B660F"/>
<stop offset="1" stop-color="#6CAE3E"/>
</linearGradient>
<clipPath id="clip0_0_3167">
<rect width="100" height="100" fill="white"/>
</clipPath>
</defs>
</svg>
