<svg width="100" height="100" viewBox="0 0 100 100" fill="none" xmlns="http://www.w3.org/2000/svg">
<g clip-path="url(#clip0_2385_6459)">
<path d="M100 0H0V100H100V0Z" fill="url(#paint0_linear_2385_6459)"/>
<path d="M36.72 67.334H18.0533C17.6997 67.334 17.3605 67.1935 17.1105 66.9435C16.8604 66.6934 16.72 66.3543 16.72 66.0007V55.334H19.3866V64.6673H36.72V67.334Z" fill="white"/>
<path d="M52.3333 30.387L39 17.0537C38.8754 16.9301 38.7276 16.8323 38.5652 16.766C38.4027 16.6996 38.2288 16.666 38.0533 16.667H18.0533C17.6997 16.667 17.3605 16.8075 17.1105 17.0575C16.8604 17.3076 16.72 17.6467 16.72 18.0003V48.667H19.3866V19.3337H36.72V31.3337C36.72 31.6873 36.8604 32.0264 37.1105 32.2765C37.3605 32.5265 37.6997 32.667 38.0533 32.667H50.0533V35.3337H52.72V31.3337C52.721 31.1582 52.6874 30.9843 52.621 30.8218C52.5546 30.6594 52.4569 30.5116 52.3333 30.387ZM39.3866 30.0003V21.2137L48.1733 30.0003H39.3866Z" fill="white"/>
<path d="M32.72 39.334H22.0533V42.0006H32.72V39.334Z" fill="white"/>
<path d="M81.5866 83.3341C81.3317 83.3371 81.0799 83.2776 80.8533 83.1608L69.7066 77.5874C66.7012 79.2771 63.3286 80.2072 59.8819 80.297C56.4352 80.3867 53.0187 79.6335 49.9294 78.1026C46.84 76.5717 44.1713 74.3096 42.155 71.5127C40.1388 68.7158 38.836 65.4689 38.36 62.0541L41.0267 61.6941C41.4486 64.7387 42.6221 67.6302 44.4414 70.1077C46.2606 72.5851 48.6683 74.5704 51.447 75.8843C54.2257 77.1983 57.2879 77.7994 60.3571 77.6335C63.4262 77.4676 66.4058 76.5399 69.0266 74.9341C69.2293 74.8171 69.4593 74.7555 69.6933 74.7555C69.9274 74.7555 70.1573 74.8171 70.36 74.9341L79.4666 79.4941L74.8933 70.5341C74.7763 70.3314 74.7147 70.1015 74.7147 69.8674C74.7147 69.6334 74.7763 69.4034 74.8933 69.2008C76.8318 66.237 77.8565 62.7688 77.84 59.2274C77.8568 56.0279 77.0432 52.8787 75.4786 50.0877C73.9141 47.2967 71.6523 44.9593 68.9141 43.3041C66.176 41.6488 63.0552 40.7323 59.8568 40.6441C56.6584 40.5558 53.4919 41.2989 50.6666 42.8007L49.4133 40.4541C52.6341 38.7492 56.2408 37.9055 59.8837 38.0049C63.5265 38.1044 67.0819 39.1435 70.2048 41.0216C73.3278 42.8997 75.9125 45.553 77.7081 48.7241C79.5037 51.8952 80.4493 55.4765 80.4533 59.1208C80.4622 62.9139 79.439 66.638 77.4933 69.8941L83.08 80.8408C83.241 81.1528 83.2993 81.5078 83.2466 81.855C83.194 82.2021 83.033 82.5238 82.7866 82.7741C82.635 82.9439 82.4504 83.081 82.2441 83.1773C82.0379 83.2736 81.8142 83.3269 81.5866 83.3341Z" fill="white"/>
<path d="M59.3866 54H56.72V64.6667H59.3866V54Z" fill="white"/>
<path d="M63.3866 52.667H60.72V66.0003H63.3866V52.667Z" fill="white"/>
<path d="M67.3866 51.334H64.72V67.334H67.3866V51.334Z" fill="white"/>
<path d="M71.3866 55.334H68.72V64.6673H71.3866V55.334Z" fill="white"/>
<path d="M51.3866 54H48.72V64.6667H51.3866V54Z" fill="white"/>
<path d="M47.3867 46H22.0533V48.6667H47.3867V46Z" fill="white"/>
<path d="M40.72 52.667H22.0533V55.3337H40.72V52.667Z" fill="white"/>
<path d="M40.7199 39.334H35.3866V42.0006H40.7199V39.334Z" fill="white"/>
<path d="M55.3866 56.667H52.72V62.0003H55.3866V56.667Z" fill="white"/>
<path d="M58.0533 46H50.0533V48.5333H58.0533V46Z" fill="white"/>
</g>
<defs>
<linearGradient id="paint0_linear_2385_6459" x1="-20.7107" y1="120.715" x2="120.711" y2="-20.7067" gradientUnits="userSpaceOnUse">
<stop stop-color="#055F4E"/>
<stop offset="1" stop-color="#56C0A7"/>
</linearGradient>
<clipPath id="clip0_2385_6459">
<rect width="100" height="100" fill="white"/>
</clipPath>
</defs>
</svg>
