<svg width="100" height="100" viewBox="0 0 100 100" fill="none" xmlns="http://www.w3.org/2000/svg">
<g clip-path="url(#clip0_2385_6463)">
<path d="M100 0H0V100H100V0Z" fill="url(#paint0_linear_2385_6463)"/>
<path d="M77.2799 79.3734H68.0399V76.7067H74.6132V34.7334H77.2799V79.3734Z" fill="white"/>
<path d="M68.04 79.3732H18.12V23.2266H66.0933V25.8932H20.7867V76.7066H68.04V79.3732Z" fill="white"/>
<path d="M36.2267 51.174H24.64V48.5074H35.3067L38.8934 39.054C38.9909 38.8013 39.163 38.5843 39.3869 38.4319C39.6108 38.2794 39.8758 38.1988 40.1467 38.2007H52.1467L56.6 30.2007C56.7158 29.9947 56.8842 29.8232 57.088 29.7038C57.2918 29.5843 57.5238 29.5211 57.76 29.5207H69.9467L78.5067 22.374L80.2134 24.4274L71.2934 31.8807C71.0535 32.0795 70.7516 32.188 70.44 32.1874H58.5067L54.0534 40.1874C53.9393 40.3958 53.7716 40.57 53.5677 40.6919C53.3638 40.8138 53.1309 40.879 52.8933 40.8807H41.0667L37.4667 50.334C37.3679 50.5821 37.1969 50.7948 36.9758 50.9446C36.7547 51.0943 36.4937 51.1743 36.2267 51.174Z" fill="white"/>
<path d="M81.88 27.8803H79.2133V23.2936H74.64V20.627H81.88V27.8803Z" fill="white"/>
<path d="M36.68 73.6402H24.9333V54.2002H36.68V73.6402ZM27.6 70.9735H34.0133V56.8669H27.6V70.9735Z" fill="white"/>
<path d="M53.3334 73.6405H41.5734V43.8672H53.3334V73.6405ZM44.2534 70.9738H50.6667V46.5339H44.24L44.2534 70.9738Z" fill="white"/>
<path d="M70.12 73.64H58.3733V35.3066H70.12V73.64ZM61.04 70.9733H67.4533V37.9733H61.04V70.9733Z" fill="white"/>
</g>
<defs>
<linearGradient id="paint0_linear_2385_6463" x1="-20.7147" y1="120.711" x2="120.707" y2="-20.7107" gradientUnits="userSpaceOnUse">
<stop stop-color="#055F4E"/>
<stop offset="1" stop-color="#56C0A7"/>
</linearGradient>
<clipPath id="clip0_2385_6463">
<rect width="100" height="100" fill="white"/>
</clipPath>
</defs>
</svg>
