<svg width="100" height="100" viewBox="0 0 100 100" fill="none" xmlns="http://www.w3.org/2000/svg">
<g clip-path="url(#clip0_2385_6452)">
<path d="M100 0H0V100H100V0Z" fill="url(#paint0_linear_2385_6452)"/>
<path d="M45.3333 62.0003H21.3333C20.9797 62.0003 20.6406 61.8598 20.3905 61.6098C20.1405 61.3597 20 61.0206 20 60.667V52.667H22.6667V59.3337H45.3333V62.0003ZM52 28.667V35.3337H49.3333V30.0003H40C39.6464 30.0003 39.3072 29.8598 39.0572 29.6098C38.8071 29.3598 38.6667 29.0206 38.6667 28.667V19.3337H22.6667V46.0003H20V18.0003C20 17.6467 20.1405 17.3076 20.3905 17.0575C20.6406 16.8075 20.9797 16.667 21.3333 16.667H40.12C40.4325 16.6839 40.7274 16.817 40.9467 17.0403L51.6133 27.707C51.7385 27.8332 51.8372 27.9831 51.9036 28.1479C51.97 28.3128 52.0028 28.4893 52 28.667ZM47.4533 27.3337L41.3333 21.2137V27.3337H47.4533ZM43.6 52.0003L36.7733 33.4803H33.84L27.0133 52.0003H29.8133L31.4667 47.0937H39.0667L40.7733 52.0003H43.6ZM35.2533 36.0003L38.3733 45.067H32.16L35.2533 36.0003ZM80 50.0003V82.0003C80 82.3539 79.8595 82.6931 79.6095 82.9431C79.3594 83.1932 79.0203 83.3336 78.6667 83.3336H49.3333C48.9797 83.3336 48.6406 83.1932 48.3905 82.9431C48.1405 82.6931 48 82.3539 48 82.0003V39.3337C48 38.98 48.1405 38.6409 48.3905 38.3908C48.6406 38.1408 48.9797 38.0003 49.3333 38.0003H68C68.066 37.9874 68.134 37.9874 68.2 38.0003C68.4828 38.0311 68.7464 38.1582 68.9467 38.3603L79.6133 49.027C79.7401 49.1547 79.8398 49.3068 79.9062 49.4741C79.9727 49.6414 80.0046 49.8204 80 50.0003ZM69.3333 48.667H75.4533L69.3333 42.547V48.667ZM77.3333 51.3337H68C67.6464 51.3337 67.3072 51.1932 67.0572 50.9431C66.8071 50.6931 66.6667 50.3539 66.6667 50.0003V40.667H50.6667V80.667H77.3333V51.3337ZM68 38.0003C68.066 37.9874 68.134 37.9874 68.2 38.0003H68ZM72.52 73.1203C72.7401 72.7125 73.0136 72.3358 73.3333 72.0003C73.419 71.9147 73.4802 71.8078 73.5107 71.6906C73.5411 71.5734 73.5398 71.4501 73.5067 71.3337C73.4714 71.2201 73.4074 71.1175 73.321 71.0358C73.2346 70.9541 73.1287 70.8959 73.0133 70.867C70.4846 70.3273 68.1018 69.2495 66.0267 67.707C67.7862 65.7196 69.1445 63.4105 70.0267 60.907C70.2347 60.847 70.4144 60.7146 70.5333 60.5337H72.6133C72.7901 60.5337 72.9597 60.4634 73.0847 60.3384C73.2098 60.2134 73.28 60.0438 73.28 59.867V58.667C73.28 58.4902 73.2098 58.3206 73.0847 58.1956C72.9597 58.0706 72.7901 58.0003 72.6133 58.0003H65.3333V56.2137C65.5276 56.0666 65.6606 55.8529 65.7067 55.6137C65.7199 55.5215 65.7136 55.4277 65.6884 55.3381C65.6631 55.2486 65.6194 55.1653 65.56 55.0937C65.4369 54.9548 65.2649 54.8688 65.08 54.8537L63.4267 54.747C63.3347 54.7376 63.2418 54.7482 63.1543 54.7781C63.0669 54.808 62.9869 54.8565 62.92 54.9203C62.8528 54.9837 62.7992 55.0602 62.7625 55.145C62.7258 55.2298 62.7068 55.3212 62.7067 55.4137V58.0136H55.52C55.3432 58.0136 55.1736 58.0839 55.0486 58.2089C54.9236 58.3339 54.8533 58.5035 54.8533 58.6803V59.907C54.8533 60.0838 54.9236 60.2534 55.0486 60.3784C55.1736 60.5034 55.3432 60.5737 55.52 60.5737H57.8133C58.7497 63.2214 60.1845 65.6654 62.04 67.7737C59.9724 69.2711 57.6437 70.3699 55.1733 71.0136C55.0678 71.0448 54.9714 71.1012 54.8925 71.1778C54.8135 71.2544 54.7543 71.3491 54.72 71.4537C54.686 71.5598 54.6792 71.6728 54.7002 71.7823C54.7211 71.8918 54.7692 71.9942 54.84 72.0803C55.095 72.3727 55.3061 72.7005 55.4667 73.0536C55.5318 73.2062 55.6504 73.3297 55.8001 73.4009C55.9499 73.4721 56.1206 73.4861 56.28 73.4403C59.068 72.6536 61.6857 71.3561 64 69.6137C66.2788 71.463 68.9447 72.7754 71.8 73.4537C71.8525 73.4666 71.9075 73.4666 71.96 73.4537C72.0741 73.4507 72.1855 73.4184 72.2835 73.3601C72.3816 73.3017 72.463 73.2192 72.52 73.1203ZM67.3333 60.5737C66.5688 62.5368 65.4528 64.3441 64.04 65.907C62.5856 64.3529 61.4287 62.5452 60.6267 60.5737H67.3333ZM41.3333 80.667C39.9188 80.667 38.5623 80.1051 37.5621 79.1049C36.5619 78.1047 36 76.7481 36 75.3336V69.2136L40.3867 73.6136L42.28 71.7203L35.6133 65.0537C35.4894 64.9287 35.3419 64.8295 35.1794 64.7618C35.017 64.6941 34.8427 64.6593 34.6667 64.6593C34.4907 64.6593 34.3164 64.6941 34.1539 64.7618C33.9914 64.8295 33.844 64.9287 33.72 65.0537L27.0533 71.7203L28.9467 73.6136L33.3333 69.2136V75.2803C33.3333 77.402 34.1762 79.4369 35.6765 80.9372C37.1768 82.4375 39.2116 83.2803 41.3333 83.2803H45.3333V80.6136L41.3333 80.667ZM71.0533 26.387L66.6667 30.787V24.7203C66.6667 22.5986 65.8238 20.5638 64.3235 19.0635C62.8232 17.5632 60.7884 16.7203 58.6667 16.7203H53.3333V19.387H58.6667C60.0812 19.387 61.4377 19.9489 62.4379 20.9491C63.4381 21.9493 64 23.3058 64 24.7203V30.787L59.6133 26.387L57.72 28.2803L64.3867 34.947C64.5106 35.072 64.6581 35.1712 64.8206 35.2388C64.983 35.3065 65.1573 35.3414 65.3333 35.3414C65.5093 35.3414 65.6836 35.3065 65.8461 35.2388C66.0086 35.1712 66.156 35.072 66.28 34.947L72.9467 28.2803L71.0533 26.387Z" fill="white"/>
</g>
<defs>
<linearGradient id="paint0_linear_2385_6452" x1="-20.7067" y1="120.711" x2="120.715" y2="-20.7107" gradientUnits="userSpaceOnUse">
<stop stop-color="#055F4E"/>
<stop offset="1" stop-color="#56C0A7"/>
</linearGradient>
<clipPath id="clip0_2385_6452">
<rect width="100" height="100" fill="white"/>
</clipPath>
</defs>
</svg>
