<svg width="100" height="100" viewBox="0 0 100 100" fill="none" xmlns="http://www.w3.org/2000/svg">
<g clip-path="url(#clip0_2385_6462)">
<path d="M100 0H0V100H100V0Z" fill="url(#paint0_linear_2385_6462)"/>
<path d="M57.8666 16.6797H19.4666C18.7228 16.6832 18.0106 16.9812 17.4859 17.5084C16.9612 18.0356 16.6666 18.7492 16.6666 19.493V44.533C16.6666 45.2769 16.9612 45.9904 17.4859 46.5176C18.0106 47.0449 18.7228 47.3428 19.4666 47.3464H24.5866L24.6666 47.493V54.6664C24.7007 55.062 24.8432 55.4405 25.0784 55.7604C25.3137 56.0803 25.6325 56.3292 26 56.4797C26.2422 56.5745 26.4998 56.6242 26.76 56.6264C27.2913 56.6245 27.8018 56.4193 28.1866 56.053L35.3066 49.1197V45.413L27.3066 53.213V47.5864C27.3446 47.2227 27.3074 46.8552 27.1973 46.5065C27.0872 46.1579 26.9065 45.8356 26.6666 45.5597C26.4067 45.2826 26.0928 45.0616 25.7442 44.9102C25.3957 44.7589 25.0199 44.6805 24.64 44.6797H19.4666C19.4301 44.6763 19.3961 44.6594 19.3714 44.6323C19.3467 44.6051 19.3331 44.5697 19.3333 44.533V19.493C19.3331 19.4563 19.3467 19.4209 19.3714 19.3938C19.3961 19.3666 19.4301 19.3497 19.4666 19.3464H57.8666C57.9032 19.3497 57.9371 19.3666 57.9618 19.3938C57.9865 19.4209 58.0001 19.4563 58 19.493V40.6797H60.6666V19.493C60.6666 18.7492 60.3721 18.0356 59.8473 17.5084C59.3226 16.9812 58.6105 16.6832 57.8666 16.6797ZM46 26.013H23.3333V23.3464H46V26.013ZM54 26.013H48.6666V23.3464H54V26.013ZM35.3333 32.6797H23.3333V30.013H35.3333V32.6797ZM54 32.6797H39.3333V30.013H54V32.6797ZM42 39.3464H23.3333V36.6797H42V39.3464ZM50 39.3464H44.6666V36.6797H50V39.3464ZM70.6666 83.3197C70.1702 83.307 69.6958 83.1124 69.3333 82.773L60.2666 73.9997H40.76C40.0182 73.959 39.3198 73.6371 38.807 73.0996C38.2942 72.562 38.0056 71.8492 38 71.1064V45.4664C37.9964 45.0164 38.0816 44.5701 38.2506 44.153C38.4195 43.7359 38.669 43.3562 38.9847 43.0355C39.3004 42.7148 39.6762 42.4595 40.0906 42.284C40.5051 42.1086 40.95 42.0165 41.4 42.013H80.7066C81.0743 42.012 81.4382 42.087 81.7755 42.2333C82.1128 42.3797 82.4162 42.5942 82.6666 42.8634C82.9171 43.1326 83.1091 43.4507 83.2307 43.7977C83.3523 44.1447 83.4009 44.513 83.3733 44.8797V71.173C83.3804 71.9134 83.094 72.6264 82.5768 73.1561C82.0596 73.6858 81.3536 73.9891 80.6133 73.9997H72.7733C72.7381 74.0168 72.7083 74.0433 72.6871 74.0762C72.6659 74.1091 72.6542 74.1472 72.6533 74.1864V81.2397C72.6689 81.6432 72.5627 82.042 72.3488 82.3844C72.1348 82.7267 71.8228 82.9969 71.4533 83.1597C71.2034 83.2617 70.9365 83.316 70.6666 83.3197ZM60.4 71.3464C61.0249 71.344 61.6267 71.5828 62.08 72.013L70.08 79.7864V74.1597C70.0799 73.4204 70.3708 72.7108 70.8898 72.1844C71.4088 71.6579 72.1141 71.3569 72.8533 71.3464H80.6533C80.6835 71.329 80.7082 71.3036 80.7247 71.273C80.7411 71.2424 80.7488 71.2077 80.7466 71.173V44.8797C80.7466 44.8231 80.7241 44.7688 80.6841 44.7288C80.6441 44.6888 80.5899 44.6664 80.5333 44.6664H41.2533C40.8533 44.6664 40.6666 44.8664 40.6666 45.3064V71.0397C40.6666 71.173 40.88 71.3464 40.9733 71.3464H60.4ZM61.5866 68.6797H59.8533C59.6125 68.6841 59.3751 68.6232 59.1661 68.5034C58.9572 68.3837 58.7846 68.2096 58.6666 67.9997L57.9733 66.6664C57.5176 66.5076 57.0723 66.3205 56.64 66.1064L55.2 66.573C54.9696 66.6454 54.7238 66.6539 54.489 66.5976C54.2542 66.5412 54.0391 66.4221 53.8666 66.253L52.64 65.013C52.4686 64.842 52.347 64.6275 52.2883 64.3926C52.2295 64.1577 52.2359 63.9113 52.3066 63.6797L52.7733 62.2664C52.5121 61.8079 52.3062 61.32 52.16 60.813L50.8266 60.1597C50.6072 60.046 50.4237 59.8736 50.2965 59.6617C50.1694 59.4498 50.1036 59.2068 50.1066 58.9597V57.2264C50.1061 56.9815 50.173 56.7413 50.3 56.5319C50.427 56.3226 50.6092 56.1523 50.8266 56.0397L52.16 55.3597C52.3197 54.8702 52.5158 54.3933 52.7466 53.933L52.2933 52.5064C52.2226 52.2748 52.2162 52.0283 52.2749 51.7934C52.3337 51.5585 52.4552 51.3441 52.6266 51.173L53.8533 49.9464C54.0243 49.775 54.2388 49.6534 54.4737 49.5947C54.7086 49.5359 54.9551 49.5423 55.1866 49.613L56.6 50.0797C57.0311 49.8 57.481 49.5505 57.9466 49.333L58.6666 47.9997C58.7774 47.7798 58.9469 47.5949 59.1564 47.4655C59.3659 47.336 59.6071 47.2671 59.8533 47.2664H61.5866C61.8328 47.2671 62.0741 47.336 62.2835 47.4655C62.493 47.5949 62.6625 47.7798 62.7733 47.9997L63.44 49.333C63.9371 49.4835 64.4192 49.6799 64.88 49.9197L66.2133 49.4664C66.4449 49.3956 66.6913 49.3893 66.9262 49.448C67.1611 49.5067 67.3756 49.6283 67.5466 49.7997L68.7733 51.0264C68.9424 51.1988 69.0615 51.4139 69.1178 51.6487C69.1742 51.8836 69.1657 52.1293 69.0933 52.3597L68.64 53.7864C68.9212 54.2499 69.1536 54.7414 69.3333 55.253L70.6666 55.9997C70.8865 56.1105 71.0714 56.28 71.2009 56.4895C71.3303 56.6989 71.3992 56.9401 71.4 57.1864V58.9197C71.3806 59.1475 71.3029 59.3664 71.1745 59.5556C71.0461 59.7447 70.8712 59.8976 70.6666 59.9997L69.3333 60.6664C69.1748 61.1583 68.9741 61.6357 68.7333 62.093L69.2 63.5197C69.2724 63.7501 69.2808 63.9958 69.2245 64.2306C69.1681 64.4655 69.049 64.6806 68.88 64.853L67.6533 66.093C67.4809 66.2621 67.2657 66.3812 67.0309 66.4376C66.7961 66.4939 66.5504 66.4854 66.32 66.413L64.8933 65.9464C64.4649 66.1727 64.019 66.3645 63.56 66.5197L62.88 67.853C62.7722 68.1093 62.587 68.3254 62.3503 68.4713C62.1137 68.6171 61.8373 68.6853 61.56 68.6664L61.5866 68.6797ZM60.6666 66.013H60.76L61.3333 64.8797C61.4209 64.7072 61.545 64.5558 61.6969 64.4361C61.8489 64.3164 62.0251 64.2312 62.2133 64.1864C62.8455 64.0297 63.4486 63.7731 64 63.4264C64.1656 63.3236 64.3517 63.2585 64.5452 63.2354C64.7387 63.2124 64.9349 63.232 65.12 63.293L66.32 63.693L66.3866 63.613L66 62.413C65.941 62.2299 65.9224 62.0361 65.9454 61.8451C65.9684 61.6541 66.0325 61.4703 66.1333 61.3064C66.469 60.7414 66.7205 60.1305 66.88 59.493C66.9248 59.3048 67.01 59.1286 67.1297 58.9767C67.2494 58.8247 67.4008 58.7006 67.5733 58.613L68.6933 58.0397V57.933L67.56 57.333C67.3889 57.2468 67.2385 57.1248 67.1188 56.9753C66.9992 56.8257 66.9132 56.6521 66.8666 56.4664C66.7186 55.8293 66.4663 55.2211 66.12 54.6664C66.0192 54.5024 65.9551 54.3187 65.9321 54.1276C65.9091 53.9366 65.9277 53.7428 65.9866 53.5597L66.3733 52.3597L66.3066 52.293L65.12 52.6664C64.9368 52.7253 64.743 52.7439 64.552 52.7209C64.361 52.6979 64.1772 52.6338 64.0133 52.533C63.4456 52.1902 62.8299 51.9341 62.1866 51.773C61.9996 51.7297 61.8242 51.6465 61.6723 51.5291C61.5205 51.4118 61.3957 51.263 61.3066 51.093L60.7466 49.973H60.64L60.0666 51.093C59.9833 51.2535 59.8683 51.3953 59.7285 51.5099C59.5886 51.6245 59.427 51.7095 59.2533 51.7597C58.5841 51.938 57.9393 52.1977 57.3333 52.533C57.1694 52.6338 56.9856 52.6979 56.7946 52.7209C56.6035 52.7439 56.4098 52.7253 56.2266 52.6664L55.04 52.293L54.96 52.3597L55.3466 53.5597C55.4056 53.7428 55.4242 53.9366 55.4011 54.1276C55.3781 54.3187 55.314 54.5024 55.2133 54.6664C54.8752 55.2348 54.6235 55.8505 54.4666 56.493C54.4201 56.6788 54.3341 56.8524 54.2144 57.0019C54.0948 57.1515 53.9443 57.2735 53.7733 57.3597L52.6666 57.933V58.0397L53.7866 58.613C53.9692 58.7059 54.128 58.8396 54.2505 59.0038C54.3731 59.168 54.4561 59.3582 54.4933 59.5597C54.6236 60.1986 54.8871 60.8028 55.2666 61.333C55.3674 61.4969 55.4315 61.6807 55.4545 61.8718C55.4775 62.0628 55.4589 62.2565 55.4 62.4397L55 63.6397L55.08 63.7197L56.28 63.3197C56.4631 63.2607 56.6569 63.2421 56.8479 63.2652C57.0389 63.2882 57.2227 63.3523 57.3866 63.453C57.9751 63.7825 58.6021 64.0378 59.2533 64.213C59.4282 64.2647 59.5905 64.3517 59.7304 64.4687C59.8703 64.5857 59.9848 64.7301 60.0666 64.893L60.6666 66.013ZM60.6666 62.013C59.8755 62.013 59.1021 61.7784 58.4443 61.3389C57.7865 60.8994 57.2739 60.2747 56.9711 59.5438C56.6684 58.8128 56.5891 58.0086 56.7435 57.2327C56.8978 56.4567 57.2788 55.744 57.8382 55.1846C58.3976 54.6252 59.1103 54.2442 59.8863 54.0899C60.6622 53.9355 61.4664 54.0148 62.1974 54.3175C62.9283 54.6203 63.553 55.1329 63.9925 55.7907C64.432 56.4485 64.6666 57.2219 64.6666 58.013C64.6631 59.067 64.2438 60.077 63.4998 60.8235C62.7558 61.57 61.7472 61.9927 60.6933 61.9997L60.6666 62.013ZM60.6666 56.3997C60.3464 56.3971 60.0327 56.4898 59.7653 56.666C59.498 56.8423 59.2891 57.0941 59.1654 57.3894C59.0416 57.6848 59.0085 58.0103 59.0704 58.3245C59.1322 58.6386 59.2861 58.9273 59.5125 59.1538C59.739 59.3802 60.0277 59.5341 60.3419 59.5959C60.656 59.6578 60.9815 59.6247 61.2769 59.5009C61.5722 59.3772 61.824 59.1683 62.0003 58.901C62.1765 58.6336 62.2693 58.3199 62.2666 57.9997C62.2702 57.5776 62.1068 57.1712 61.8122 56.8691C61.5175 56.5669 61.1153 56.3934 60.6933 56.3864L60.6666 56.3997Z" fill="white"/>
</g>
<defs>
<linearGradient id="paint0_linear_2385_6462" x1="-20.7067" y1="120.711" x2="120.715" y2="-20.7107" gradientUnits="userSpaceOnUse">
<stop stop-color="#055F4E"/>
<stop offset="1" stop-color="#56C0A7"/>
</linearGradient>
<clipPath id="clip0_2385_6462">
<rect width="100" height="100" fill="white"/>
</clipPath>
</defs>
</svg>
