<svg width="100" height="100" viewBox="0 0 100 100" fill="none" xmlns="http://www.w3.org/2000/svg">
<g clip-path="url(#clip0_2385_6460)">
<path d="M100 0H0V100H100V0Z" fill="url(#paint0_linear_2385_6460)"/>
<path d="M52.6667 24.6666C46.6551 24.6666 40.8898 27.0547 36.639 31.3055C32.3881 35.5564 30 41.3217 30 47.3333C30.0039 51.0237 30.9199 54.6559 32.6667 57.9066L18.6667 72C17.7039 73.2838 17.2364 74.8718 17.3502 76.4726C17.4639 78.0733 18.1513 79.5793 19.286 80.714C20.4207 81.8488 21.9267 82.5361 23.5275 82.6499C25.1282 82.7636 26.7162 82.2962 28 81.3333L30.6667 78.7466L41.9467 67.4266L42.0667 67.3066C45.1105 68.9299 48.4847 69.837 51.9322 69.9588C55.3796 70.0807 58.8094 69.4141 61.9602 68.0097C65.1111 66.6054 67.8998 64.5005 70.114 61.8553C72.3282 59.21 73.9094 56.0943 74.7372 52.7455C75.565 49.3967 75.6175 45.9031 74.8907 42.5309C74.164 39.1588 72.6771 35.9969 70.5434 33.2864C68.4097 30.5758 65.6855 28.388 62.5783 26.8896C59.4711 25.3912 56.0629 24.6218 52.6134 24.64L52.6667 24.6666ZM26.16 79.4933C25.4018 80.1999 24.3989 80.5845 23.3626 80.5662C22.3263 80.548 21.3376 80.1282 20.6047 79.3953C19.8719 78.6624 19.4521 77.6737 19.4338 76.6374C19.4155 75.6011 19.8002 74.5982 20.5067 73.84L34.08 60.2666C35.6164 62.4697 37.5303 64.3836 39.7334 65.92L26.16 79.4933ZM52.6667 67.3333C48.7111 67.3333 44.8443 66.1603 41.5553 63.9627C38.2663 61.7651 35.7029 58.6415 34.1891 54.987C32.6754 51.3324 32.2793 47.3111 33.051 43.4315C33.8227 39.5519 35.7275 35.9882 38.5246 33.1912C41.3216 30.3941 44.8853 28.4893 48.7649 27.7176C52.6445 26.9459 56.6659 27.342 60.3204 28.8557C63.9749 30.3695 67.0985 32.9329 69.2961 36.2219C71.4937 39.5109 72.6667 43.3777 72.6667 47.3333C72.6667 52.6376 70.5596 57.7247 66.8088 61.4754C63.0581 65.2262 57.971 67.3333 52.6667 67.3333Z" fill="white"/>
<path d="M52.6667 16.6671C48.2557 16.6581 43.8961 17.6138 39.8934 19.4671L41 21.8938C45.2806 19.9132 49.9921 19.0461 54.6973 19.3728C59.4025 19.6996 63.949 21.2096 67.9147 23.7628C71.8805 26.316 75.137 29.8296 77.3821 33.9775C79.6272 38.1255 80.7881 42.7733 80.757 47.4898C80.726 52.2062 79.504 56.8384 77.2046 60.9565C74.9051 65.0745 71.6026 68.5449 67.6037 71.0457C63.6047 73.5465 59.0387 74.9966 54.3296 75.2614C49.6205 75.5262 44.9208 74.5971 40.6667 72.5605L38.6667 74.5738C42.7949 76.7085 47.3544 77.8771 52.0005 77.9911C56.6466 78.1051 61.2579 77.1617 65.4858 75.232C69.7138 73.3023 73.4479 70.4369 76.4059 66.8523C79.364 63.2677 81.4686 59.0576 82.5607 54.5403C83.6529 50.0229 83.704 45.3164 82.7103 40.7764C81.7165 36.2363 79.7039 31.9815 76.8244 28.3335C73.9449 24.6855 70.274 21.7396 66.0889 19.7186C61.9039 17.6975 57.3142 16.6541 52.6667 16.6671ZM28.3067 33.5604L26 32.2271C23.4877 36.6471 22.1194 41.6246 22.0192 46.7077C21.9191 51.7908 23.0904 56.8183 25.4267 61.3338L27.4134 59.3071C25.4649 55.2597 24.5282 50.7997 24.6838 46.3104C24.8394 41.821 26.0826 37.4366 28.3067 33.5338V33.5604Z" fill="white"/>
<path d="M64.6667 59.3337H58V56.667H62V52.667H64.6667V59.3337Z" fill="white"/>
<path d="M64.6667 42.0007H62V38.0007H58V35.334H64.6667V42.0007Z" fill="white"/>
<path d="M43.3334 42.0007H40.6667V35.334H47.3334V38.0007H43.3334V42.0007Z" fill="white"/>
<path d="M47.3334 59.3337H40.6667V52.667H43.3334V56.667H47.3334V59.3337Z" fill="white"/>
<path d="M46 54.0004H50.2933L46 49.707V54.0004Z" fill="white"/>
<path d="M46 40.667V44.9603L50.2933 40.667H46Z" fill="white"/>
<path d="M59.3334 40.667H55.04L59.3334 44.9603V40.667Z" fill="white"/>
<path d="M59.3334 54.0004V49.707L55.04 54.0004H59.3334Z" fill="white"/>
</g>
<defs>
<linearGradient id="paint0_linear_2385_6460" x1="-20.7067" y1="120.72" x2="120.72" y2="-20.7067" gradientUnits="userSpaceOnUse">
<stop stop-color="#055F4E"/>
<stop offset="1" stop-color="#56C0A7"/>
</linearGradient>
<clipPath id="clip0_2385_6460">
<rect width="100" height="100" fill="white"/>
</clipPath>
</defs>
</svg>
