<svg width="100" height="100" viewBox="0 0 100 100" fill="none" xmlns="http://www.w3.org/2000/svg">
<path d="M95.7199 39.2404C95.7193 38.886 95.6245 38.5381 95.4453 38.2324C95.2661 37.9266 95.0088 37.674 94.6999 37.5004L84.6999 31.8804V18.8604C84.6985 18.5186 84.6095 18.1829 84.4414 17.8853C84.2734 17.5877 84.0318 17.3381 83.7399 17.1604L62.3999 4.10037C62.0959 3.92483 61.751 3.83242 61.3999 3.83242C61.0488 3.83242 60.7039 3.92483 60.3999 4.10037L49.9999 10.2804L39.6599 4.00037C39.3559 3.82483 39.011 3.73242 38.6599 3.73242C38.3088 3.73242 37.9639 3.82483 37.6599 4.00037L16.1599 17.1604C15.868 17.3381 15.6264 17.5877 15.4584 17.8853C15.2903 18.1829 15.2013 18.5186 15.1999 18.8604V31.8804L5.29991 37.5004C4.99097 37.674 4.73373 37.9266 4.55451 38.2324C4.37528 38.5381 4.28052 38.886 4.27991 39.2404V60.7604C4.28052 61.1148 4.37528 61.4626 4.55451 61.7684C4.73373 62.0741 4.99097 62.3267 5.29991 62.5004L15.1999 68.1204V81.1404C15.2013 81.4822 15.2903 81.8179 15.4584 82.1155C15.6264 82.4131 15.868 82.6626 16.1599 82.8404L37.5799 96.0004C37.8924 96.1941 38.2523 96.2979 38.6199 96.3004C38.9848 96.2972 39.3428 96.2008 39.6599 96.0204L49.9999 89.7204L60.3399 96.0004C60.657 96.1808 61.015 96.2772 61.3799 96.2804C61.7476 96.2779 62.1074 96.1741 62.4199 95.9804L83.8399 82.9204C84.1318 82.7426 84.3734 82.4931 84.5414 82.1955C84.7095 81.8979 84.7985 81.5622 84.7999 81.2204V68.2204L94.7999 62.5804C95.1088 62.4067 95.3661 62.1541 95.5453 61.8484C95.7245 61.5426 95.8193 61.1948 95.8199 60.8404V39.2404H95.7199ZM47.9999 86.2604L38.6399 91.8604L19.1999 80.0004V66.9604C19.2013 66.6079 19.1096 66.2614 18.934 65.9559C18.7583 65.6503 18.5051 65.3966 18.1999 65.2204L14.6399 63.2204H24.8399V78.3404C24.8399 78.8708 25.0506 79.3795 25.4257 79.7546C25.8008 80.1297 26.3095 80.3404 26.8399 80.3404H33.3999C33.8649 81.5066 34.7217 82.4743 35.823 83.0771C36.9243 83.68 38.2012 83.8802 39.4342 83.6435C40.6671 83.4068 41.779 82.7478 42.5787 81.7799C43.3784 80.8121 43.8159 79.5958 43.8159 78.3404C43.8159 77.0849 43.3784 75.8686 42.5787 74.9008C41.779 73.9329 40.6671 73.274 39.4342 73.0372C38.2012 72.8005 36.9243 73.0008 35.823 73.6036C34.7217 74.2064 33.8649 75.1742 33.3999 76.3404H28.8399V61.2204C28.8399 60.6899 28.6292 60.1812 28.2541 59.8062C27.879 59.4311 27.3703 59.2204 26.8399 59.2204H8.27991V40.4004L18.2799 34.7804C18.5851 34.6042 18.8383 34.3504 19.014 34.0449C19.1896 33.7393 19.2813 33.3928 19.2799 33.0404V28.2404H22.3199V38.6604C21.1537 39.1254 20.186 39.9822 19.5831 41.0835C18.9803 42.1847 18.78 43.4617 19.0168 44.6946C19.2535 45.9276 19.9125 47.0395 20.8803 47.8392C21.8482 48.6389 23.0644 49.0763 24.3199 49.0763C25.5754 49.0763 26.7916 48.6389 27.7595 47.8392C28.7273 47.0395 29.3863 45.9276 29.623 44.6946C29.8598 43.4617 29.6595 42.1847 29.0567 41.0835C28.4538 39.9822 27.4861 39.1254 26.3199 38.6604V28.2404H31.5799C32.0449 29.4066 32.9017 30.3743 34.003 30.9771C35.1043 31.58 36.3812 31.7802 37.6142 31.5435C38.8471 31.3068 39.959 30.6478 40.7587 29.6799C41.5584 28.7121 41.9959 27.4959 41.9959 26.2404C41.9959 24.9849 41.5584 23.7686 40.7587 22.8008C39.959 21.8329 38.8471 21.174 37.6142 20.9372C36.3812 20.7005 35.1043 20.9008 34.003 21.5036C32.9017 22.1064 32.0449 23.0742 31.5799 24.2404H19.1999V20.0004L38.6399 8.16037L47.9999 13.7404V37.7404H36.7599C36.2295 37.7404 35.7208 37.9511 35.3457 38.3262C34.9706 38.7012 34.7599 39.2099 34.7599 39.7404V53.8604C33.5937 54.3254 32.626 55.1822 32.0231 56.2835C31.4203 57.3847 31.22 58.6617 31.4568 59.8946C31.6935 61.1276 32.3525 62.2395 33.3203 63.0392C34.2882 63.8389 35.5044 64.2763 36.7599 64.2763C38.0154 64.2763 39.2316 63.8389 40.1995 63.0392C41.1673 62.2395 41.8263 61.1276 42.063 59.8946C42.2998 58.6617 42.0995 57.3847 41.4967 56.2835C40.8938 55.1822 39.9261 54.3254 38.7599 53.8604V41.7204H47.9999V50.1004V86.2604ZM37.0199 78.2604C36.9963 78.0638 37.0146 77.8645 37.0737 77.6756C37.1328 77.4867 37.2312 77.3124 37.3626 77.1643C37.4939 77.0162 37.6552 76.8977 37.8357 76.8165C38.0163 76.7353 38.212 76.6933 38.4099 76.6933C38.6079 76.6933 38.8036 76.7353 38.9841 76.8165C39.1646 76.8977 39.3259 77.0162 39.4572 77.1643C39.5886 77.3124 39.6871 77.4867 39.7461 77.6756C39.8052 77.8645 39.8235 78.0638 39.7999 78.2604C39.8235 78.4569 39.8052 78.6562 39.7461 78.8452C39.6871 79.0341 39.5886 79.2083 39.4572 79.3564C39.3259 79.5045 39.1646 79.6231 38.9841 79.7042C38.8036 79.7854 38.6079 79.8274 38.4099 79.8274C38.212 79.8274 38.0163 79.7854 37.8357 79.7042C37.6552 79.6231 37.4939 79.5045 37.3626 79.3564C37.2312 79.2083 37.1328 79.0341 37.0737 78.8452C37.0146 78.6562 36.9963 78.4569 37.0199 78.2604ZM25.6399 43.6604C25.6439 43.9381 25.5651 44.2107 25.4137 44.4435C25.2623 44.6764 25.0451 44.8589 24.7897 44.968C24.5342 45.077 24.2521 45.1076 23.9792 45.0559C23.7064 45.0041 23.455 44.8724 23.2572 44.6774C23.0594 44.4824 22.9241 44.233 22.8685 43.9609C22.8128 43.6888 22.8393 43.4063 22.9447 43.1493C23.05 42.8923 23.2294 42.6725 23.4601 42.5178C23.6907 42.363 23.9622 42.2804 24.2399 42.2804C24.6078 42.2803 24.9609 42.4251 25.2229 42.6833C25.4848 42.9416 25.6347 43.2925 25.6399 43.6604ZM35.1199 26.2404C35.0963 26.0438 35.1146 25.8445 35.1737 25.6556C35.2327 25.4667 35.3312 25.2924 35.4626 25.1443C35.5939 24.9962 35.7552 24.8777 35.9357 24.7965C36.1163 24.7153 36.312 24.6733 36.5099 24.6733C36.7079 24.6733 36.9036 24.7153 37.0841 24.7965C37.2646 24.8777 37.4259 24.9962 37.5573 25.1443C37.6886 25.2924 37.7871 25.4667 37.8461 25.6556C37.9052 25.8445 37.9235 26.0438 37.8999 26.2404C37.9235 26.4369 37.9052 26.6362 37.8461 26.8251C37.7871 27.0141 37.6886 27.1883 37.5573 27.3364C37.4259 27.4845 37.2646 27.6031 37.0841 27.6842C36.9036 27.7654 36.7079 27.8074 36.5099 27.8074C36.312 27.8074 36.1163 27.7654 35.9357 27.6842C35.7552 27.6031 35.5939 27.4845 35.4626 27.3364C35.3312 27.1883 35.2327 27.0141 35.1737 26.8251C35.1146 26.6362 35.0963 26.4369 35.1199 26.2404ZM38.1599 58.8604C38.1599 59.1373 38.0778 59.4079 37.924 59.6382C37.7701 59.8684 37.5515 60.0478 37.2957 60.1538C37.0398 60.2598 36.7584 60.2875 36.4868 60.2335C36.2152 60.1795 35.9657 60.0461 35.77 59.8503C35.5742 59.6545 35.4408 59.4051 35.3868 59.1335C35.3328 58.8619 35.3605 58.5804 35.4665 58.3246C35.5724 58.0688 35.7519 57.8501 35.9821 57.6963C36.2123 57.5425 36.483 57.4604 36.7599 57.4604C37.1312 57.4604 37.4873 57.6079 37.7499 57.8704C38.0124 58.133 38.1599 58.4891 38.1599 58.8604ZM81.7999 65.2204C81.4947 65.3966 81.2415 65.6503 81.0659 65.9559C80.8903 66.2614 80.7985 66.6079 80.7999 66.9604V80.0004L63.6799 90.4404V76.1604H67.4999C67.9649 77.3266 68.8217 78.2943 69.923 78.8971C71.0243 79.5 72.3012 79.7002 73.5341 79.4635C74.7671 79.2268 75.879 78.5678 76.6787 77.6C77.4784 76.6321 77.9159 75.4159 77.9159 74.1604C77.9159 72.9049 77.4784 71.6887 76.6787 70.7208C75.879 69.753 74.7671 69.094 73.5341 68.8572C72.3012 68.6205 71.0243 68.8208 69.923 69.4236C68.8217 70.0264 67.9649 70.9942 67.4999 72.1604H61.6799C61.1495 72.1604 60.6408 72.3711 60.2657 72.7462C59.8906 73.1212 59.6799 73.6299 59.6799 74.1604V90.8604L51.9999 86.2604V50.1004V33.0204H58.1399V37.6204C56.9737 38.0854 56.006 38.9422 55.4031 40.0435C54.8003 41.1447 54.6 42.4217 54.8368 43.6546C55.0735 44.8876 55.7325 45.9995 56.7003 46.7992C57.6682 47.5989 58.8844 48.0363 60.1399 48.0363C61.3954 48.0363 62.6116 47.5989 63.5795 46.7992C64.5473 45.9995 65.2063 44.8876 65.443 43.6546C65.6798 42.4217 65.4795 41.1447 64.8767 40.0435C64.2738 38.9422 63.3061 38.0854 62.1399 37.6204V33.0204H68.4599C68.9903 33.0204 69.499 32.8097 69.8741 32.4346C70.2492 32.0595 70.4599 31.5508 70.4599 31.0204V27.0204C71.6261 26.5554 72.5938 25.6986 73.1967 24.5973C73.7995 23.496 73.9998 22.2191 73.763 20.9861C73.5263 19.7532 72.8673 18.6412 71.8995 17.8415C70.9316 17.0419 69.7154 16.6044 68.4599 16.6044C67.2044 16.6044 65.9882 17.0419 65.0203 17.8415C64.0525 18.6412 63.3935 19.7532 63.1568 20.9861C62.92 22.2191 63.1203 23.496 63.7231 24.5973C64.326 25.6986 65.2937 26.5554 66.4599 27.0204V29.0204H51.9999V13.7404L61.3599 8.14037L80.7999 20.0004V33.0604C80.7985 33.4128 80.8903 33.7593 81.0659 34.0649C81.2415 34.3704 81.4947 34.6242 81.7999 34.8004L91.7999 40.4204V47.1604H72.5999C72.0695 47.1604 71.5608 47.3711 71.1857 47.7462C70.8106 48.1212 70.5999 48.6299 70.5999 49.1604V59.1604H65.6799C65.2878 58.1547 64.6001 57.2915 63.7075 56.6845C62.8149 56.0776 61.7593 55.7553 60.6799 55.7604C59.6983 55.7575 58.7345 56.0222 57.8921 56.526C57.0497 57.0299 56.3605 57.7539 55.8988 58.6201C55.437 59.4863 55.2201 60.462 55.2713 61.4422C55.3225 62.4225 55.64 63.3702 56.1896 64.1836C56.7391 64.9969 57.5 65.6451 58.3903 66.0584C59.2807 66.4717 60.2668 66.6345 61.2428 66.5292C62.2187 66.424 63.1475 66.0548 63.9293 65.4612C64.7111 64.8676 65.3163 64.0722 65.6799 63.1604H72.5199C73.0503 63.1604 73.559 62.9497 73.9341 62.5746C74.3092 62.1995 74.5199 61.6908 74.5199 61.1604V51.1604H91.7199V59.6004L81.7999 65.2204ZM71.0999 74.1604C71.0999 73.9765 71.1361 73.7945 71.2065 73.6246C71.2768 73.4548 71.38 73.3004 71.51 73.1704C71.64 73.0404 71.7943 72.9373 71.9641 72.8669C72.134 72.7966 72.3161 72.7604 72.4999 72.7604C72.6838 72.7604 72.8658 72.7966 73.0357 72.8669C73.2055 72.9373 73.3599 73.0404 73.4899 73.1704C73.6199 73.3004 73.723 73.4548 73.7933 73.6246C73.8637 73.7945 73.8999 73.9765 73.8999 74.1604C73.8999 74.5317 73.7524 74.8878 73.4899 75.1503C73.2273 75.4129 72.8712 75.5604 72.4999 75.5604C72.1286 75.5604 71.7725 75.4129 71.51 75.1503C71.2474 74.8878 71.0999 74.5317 71.0999 74.1604ZM61.5399 42.6404C61.5399 43.0117 61.3924 43.3678 61.1299 43.6303C60.8673 43.8929 60.5112 44.0404 60.1399 44.0404C59.7686 44.0404 59.4125 43.8929 59.15 43.6303C58.8874 43.3678 58.7399 43.0117 58.7399 42.6404C58.7399 42.2691 58.8874 41.913 59.15 41.6504C59.4125 41.3879 59.7686 41.2404 60.1399 41.2404C60.5112 41.2404 60.8673 41.3879 61.1299 41.6504C61.3924 41.913 61.5399 42.2691 61.5399 42.6404ZM67.0599 22.0004C67.0599 21.8165 67.0961 21.6345 67.1665 21.4646C67.2368 21.2948 67.34 21.1404 67.47 21.0104C67.6 20.8804 67.7543 20.7773 67.9241 20.7069C68.094 20.6366 68.2761 20.6004 68.4599 20.6004C68.6438 20.6004 68.8258 20.6366 68.9957 20.7069C69.1655 20.7773 69.3199 20.8804 69.4499 21.0104C69.5799 21.1404 69.683 21.2948 69.7533 21.4646C69.8237 21.6345 69.8599 21.8165 69.8599 22.0004C69.8599 22.1842 69.8237 22.3663 69.7533 22.5361C69.683 22.706 69.5799 22.8603 69.4499 22.9903C69.3199 23.1203 69.1655 23.2234 68.9957 23.2938C68.8258 23.3642 68.6438 23.4004 68.4599 23.4004C68.2761 23.4004 68.094 23.3642 67.9241 23.2938C67.7543 23.2234 67.6 23.1203 67.47 22.9903C67.34 22.8603 67.2368 22.706 67.1665 22.5361C67.0961 22.3663 67.0599 22.1842 67.0599 22.0004ZM61.9999 61.2204C61.9999 61.5917 61.8524 61.9478 61.5899 62.2103C61.3273 62.4729 60.9712 62.6204 60.5999 62.6204C60.2286 62.6204 59.8725 62.4729 59.61 62.2103C59.3474 61.9478 59.1999 61.5917 59.1999 61.2204C59.1999 61.0365 59.2361 60.8545 59.3065 60.6846C59.3768 60.5148 59.48 60.3604 59.61 60.2304C59.74 60.1004 59.8943 59.9973 60.0642 59.9269C60.234 59.8566 60.4161 59.8204 60.5999 59.8204C60.7838 59.8204 60.9658 59.8566 61.1357 59.9269C61.3055 59.9973 61.4599 60.1004 61.5899 60.2304C61.7199 60.3604 61.823 60.5148 61.8933 60.6846C61.9637 60.8545 61.9999 61.0365 61.9999 61.2204Z" fill="#1C7B68"/>
</svg>
