<svg width="100" height="100" viewBox="0 0 100 100" fill="none" xmlns="http://www.w3.org/2000/svg">
<g clip-path="url(#clip0_2385_6453)">
<path d="M100 0H0V100H100V0Z" fill="url(#paint0_linear_2385_6453)"/>
<path d="M18.3467 83.3334C18.0573 83.3326 17.7731 83.2571 17.5215 83.1142C17.2699 82.9713 17.0594 82.7658 16.9106 82.5177C16.7617 82.2696 16.6794 81.9872 16.6717 81.698C16.6641 81.4087 16.7312 81.1224 16.8667 80.8667L22.4667 69.96C20.5079 66.7082 19.4751 62.9829 19.48 59.1867C19.5053 55.2474 20.6242 51.3926 22.712 48.052C24.7998 44.7114 27.7745 42.0163 31.3043 40.2673C34.8341 38.5183 38.7803 37.7841 42.7029 38.1466C46.6256 38.509 50.3705 39.9539 53.52 42.32L51.92 44.4534C48.4605 41.7994 44.175 40.4522 39.8192 40.6492C35.4634 40.8463 31.3171 42.575 28.1113 45.5305C24.9056 48.4859 22.8463 52.4784 22.2966 56.8039C21.7469 61.1293 22.7421 65.51 25.1067 69.1734C25.234 69.3701 25.3072 69.597 25.3189 69.8311C25.3306 70.0652 25.2804 70.2982 25.1734 70.5067L20.5867 79.44L29.76 74.88C29.9685 74.773 30.2016 74.7228 30.4357 74.7345C30.6697 74.7462 30.8966 74.8194 31.0934 74.9467C35.2091 77.4421 40.1296 78.2513 44.8277 77.2053C49.5259 76.1594 53.6384 73.3391 56.3067 69.3334L58.52 70.8134C55.5403 75.2945 50.9771 78.4839 45.745 79.7425C40.5129 81.0011 34.9984 80.2358 30.3067 77.6L19.1067 83.16C18.8697 83.2743 18.6099 83.3336 18.3467 83.3334ZM52.6667 54.1734H50V62H52.6667V54.1734ZM48.6667 48.72H46V67.3867H48.6667V48.72ZM44.6667 52.72H42V63.3867H44.6667V52.72ZM40.6667 48.72H38V67.3867H40.6667V48.72ZM36.6667 51.3867H34V64.72H36.6667V51.3867ZM32.6667 50.0534H30V66.0534H32.6667V50.0534ZM28.6667 54.0534H26V63.3867H28.6667V54.0534ZM83.3334 68.72V47.3867H80.6667V67.3867H60.6667V70.0534H82C82.1797 70.0535 82.3576 70.0173 82.5229 69.947C82.6883 69.8767 82.8377 69.7737 82.9622 69.6442C83.0868 69.5147 83.1838 69.3613 83.2476 69.1933C83.3114 69.0254 83.3406 68.8462 83.3334 68.6667V68.72ZM82.9334 30.4L69.4934 17.0667C69.2741 16.8434 68.9792 16.7102 68.6667 16.6934H44.6667C44.3131 16.6934 43.9739 16.8338 43.7239 17.0839C43.4739 17.3339 43.3334 17.6731 43.3334 18.0267V35.36H46V19.36H67.3334V31.36C67.3119 31.5311 67.328 31.7049 67.3805 31.8691C67.4331 32.0334 67.5208 32.1842 67.6375 32.3112C67.7543 32.4381 67.8973 32.538 68.0566 32.604C68.2159 32.67 68.3877 32.7005 68.56 32.6934H80.6667V39.36H83.3334V31.36C83.3418 31.1725 83.3105 30.9853 83.2416 30.8106C83.1727 30.636 83.0676 30.4779 82.9334 30.3467V30.4ZM70 30.0534V21.1867L78.7467 30L70 30.0534ZM75.3334 35.3867H62V38.0534H75.3334V35.3867ZM74 40.72H56.6667V43.3867H74V40.72ZM62 27.3867H51.3334V30.0534H62V27.3867ZM59.3334 35.3867H51.3334V38.0534H59.3334V35.3867ZM56.6667 50.0534H54V66.0534H56.6667V50.0534ZM60.6667 52.72H58V63.3867H60.6667V52.72Z" fill="white"/>
</g>
<defs>
<linearGradient id="paint0_linear_2385_6453" x1="-20.7067" y1="120.707" x2="120.72" y2="-20.72" gradientUnits="userSpaceOnUse">
<stop stop-color="#055F4E"/>
<stop offset="1" stop-color="#56C0A7"/>
</linearGradient>
<clipPath id="clip0_2385_6453">
<rect width="100" height="100" fill="white"/>
</clipPath>
</defs>
</svg>
