<svg width="100" height="100" viewBox="0 0 100 100" fill="none" xmlns="http://www.w3.org/2000/svg">
<path d="M55.7399 73.1201H12.9399V77.1201H55.7399V73.1201Z" fill="#1C7B68"/>
<path d="M55.7399 61.2402H12.9399V65.2402H55.7399V61.2402Z" fill="#1C7B68"/>
<path d="M95.2199 63.1205L79.8399 47.7405C82.51 43.0713 83.5653 37.6516 82.8421 32.3217C82.1189 26.9918 79.6577 22.0493 75.8399 18.2605C72.2971 14.7031 67.7463 12.321 62.8041 11.4371C57.862 10.5532 52.7676 11.2102 48.2114 13.3191C43.6552 15.428 39.8577 18.8868 37.3334 23.2266C34.8092 27.5664 33.6803 32.5775 34.0999 37.5805H2.87988V88.9205H65.7999V59.0205C67.4972 58.4891 69.1331 57.7784 70.6799 56.9005L85.9999 72.2805C87.215 73.4944 88.8623 74.1764 90.5799 74.1764C92.2975 74.1764 93.9448 73.4944 95.1599 72.2805C95.7673 71.6841 96.2509 70.9736 96.5829 70.1897C96.9148 69.4059 97.0886 68.5642 97.0942 67.7129C97.0997 66.8617 96.937 66.0178 96.6154 65.2296C96.2937 64.4415 95.8195 63.7247 95.2199 63.1205ZM43.9999 21.1005C47.5951 17.512 52.3934 15.3846 57.4666 15.1297C62.5397 14.8749 67.5271 16.5108 71.4638 19.7208C75.4005 22.9309 78.0067 27.487 78.7781 32.5077C79.5495 37.5283 78.4313 42.6566 75.6399 46.9005C74.9055 48.0153 74.0612 49.0538 73.1199 50.0005C72.6358 50.4921 72.1215 50.953 71.5799 51.3805C71.2999 51.6205 70.9799 51.8405 70.6799 52.0605C68.4687 53.6659 65.9599 54.8149 63.2999 55.4405C61.667 55.8164 59.9954 55.9977 58.3199 55.9805H57.6799C57.1199 55.9805 56.5799 55.9805 56.0399 55.8405L55.0999 55.7005L53.7399 55.4205C53.4399 55.4205 53.1199 55.2805 52.8199 55.1805C52.1404 54.9854 51.4727 54.7517 50.8199 54.4805L49.9599 54.0805C49.5399 53.8805 49.0999 53.6805 48.6799 53.4405L47.8599 52.9605L46.5799 52.1005L45.9199 51.6005C45.287 51.1125 44.6858 50.5848 44.1199 50.0205C43.6737 49.578 43.253 49.1106 42.8599 48.6205L42.4999 48.1805C42.2199 47.8205 41.9599 47.4605 41.7199 47.1005C41.5952 46.9418 41.4816 46.7747 41.3799 46.6005C41.0999 46.1805 40.8399 45.7405 40.5999 45.3005C40.5388 45.2048 40.4853 45.1045 40.4399 45.0005C40.1599 44.4805 39.9399 43.9605 39.7199 43.4405C39.6199 43.2205 39.5399 42.9805 39.4399 42.7405C39.3399 42.5005 39.1999 42.1005 39.0999 41.7605L38.8599 40.9605C38.8599 40.6605 38.6999 40.3405 38.6399 40.0205C38.5799 39.7005 38.4999 39.4805 38.4599 39.2205C37.8607 35.9773 38.0513 32.6375 39.0156 29.4835C39.9799 26.3295 41.6895 23.4541 43.9999 21.1005ZM61.7999 60.0005V84.9205H6.87988V41.5805H34.8799C34.9041 41.6833 34.9376 41.7837 34.9799 41.8805C35.2151 42.8026 35.5022 43.7107 35.8399 44.6005V44.7605C36.2134 45.6782 36.6409 46.5731 37.1199 47.4405L37.5199 48.1205C37.7799 48.5405 38.0199 48.9605 38.2999 49.3605H12.9399V53.3605H41.6599C42.1799 53.8405 42.6799 54.3205 43.2199 54.7405L44.0199 55.3205C44.4488 55.6584 44.8961 55.9722 45.3599 56.2605L46.3999 56.8805L47.5999 57.5405L48.7999 58.1005L49.9399 58.5405L51.2399 59.0005L52.3999 59.3205L53.7199 59.6405L55.3799 59.9005L56.4599 60.0205C57.1599 60.0205 57.8399 60.0205 58.4599 60.0205H59.3399C60.0599 60.0205 60.7599 60.0205 61.4799 59.8605L61.7999 60.0005ZM92.3999 69.5605C91.9351 70.0233 91.3058 70.2832 90.6499 70.2832C89.9939 70.2832 89.3647 70.0233 88.8999 69.5605L73.9999 54.6205C74.5799 54.1405 75.1199 53.6605 75.6399 53.1405L75.8399 52.9405C76.4199 52.3805 76.9399 51.7805 77.4599 51.1805L92.3999 66.0005C92.8507 66.4635 93.103 67.0842 93.103 67.7305C93.103 68.3767 92.8507 68.9974 92.3999 69.4605V69.5605Z" fill="#1C7B68"/>
<path d="M71.5201 28.9401L68.6801 26.1201L54.0201 40.9601L48.3001 36.0601L45.7001 39.1001L54.2401 46.4201L71.5201 28.9401Z" fill="#1C7B68"/>
</svg>
