<svg width="100" height="100" viewBox="0 0 100 100" fill="none" xmlns="http://www.w3.org/2000/svg">
<g clip-path="url(#clip0_2385_6464)">
<path d="M100 0H0V100H100V0Z" fill="url(#paint0_linear_2385_6464)"/>
<path d="M82.6667 78.5073H80C80 74.8438 78.5447 71.3303 75.9542 68.7398C73.3637 66.1493 69.8502 64.694 66.1867 64.694C62.5231 64.694 59.0097 66.1493 56.4192 68.7398C53.8287 71.3303 52.3733 74.8438 52.3733 78.5073H49.7067C49.7067 74.1366 51.4429 69.9448 54.5335 66.8542C57.6241 63.7636 61.8159 62.0273 66.1867 62.0273C70.5574 62.0273 74.7492 63.7636 77.8398 66.8542C80.9304 69.9448 82.6667 74.1366 82.6667 78.5073Z" fill="white"/>
<path d="M66.1867 79.8407H54.76V78.5074C54.8342 75.499 56.0615 72.6341 58.1882 70.5049C60.3149 68.3758 63.1784 67.1451 66.1867 67.0674C69.2197 67.0709 72.1274 68.2773 74.2721 70.422C76.4167 72.5666 77.6231 75.4744 77.6267 78.5074H74.96C74.9565 76.1816 74.031 73.9522 72.3865 72.3076C70.7419 70.663 68.5124 69.7376 66.1867 69.7341C64.1169 69.8127 62.1351 70.5915 60.5655 71.9431C58.996 73.2946 57.9317 75.1389 57.5467 77.1741H66.1867V79.8407Z" fill="white"/>
<path d="M78.2267 63.8408L65.2267 77.7075L67.16 79.2942L78.2267 63.8408Z" fill="white"/>
<path d="M67.1601 80.6273C66.8486 80.628 66.5467 80.5195 66.3068 80.3207L64.3735 78.734C64.2322 78.6177 64.1165 78.4736 64.0333 78.3107C63.9502 78.1477 63.9015 77.9694 63.8902 77.7868C63.879 77.6042 63.9054 77.4212 63.9679 77.2493C64.0304 77.0773 64.1276 76.9201 64.2535 76.7873L77.3335 62.9207C77.5652 62.6729 77.8826 62.5228 78.2212 62.5008C78.5597 62.4789 78.8939 62.5869 79.1556 62.8027C79.4174 63.0186 79.587 63.3261 79.6299 63.6626C79.6729 63.9991 79.5859 64.3394 79.3868 64.614L68.2401 80.0673C68.1343 80.2155 67.9993 80.3405 67.8434 80.4345C67.6874 80.5285 67.5139 80.5896 67.3335 80.614L67.1601 80.6273Z" fill="white"/>
<path d="M66.1867 79.7736C66.8863 79.7736 67.4534 79.2065 67.4534 78.5069C67.4534 77.8073 66.8863 77.2402 66.1867 77.2402C65.4872 77.2402 64.92 77.8073 64.92 78.5069C64.92 79.2065 65.4872 79.7736 66.1867 79.7736Z" fill="white"/>
<path d="M66.1867 81.0937C65.675 81.0805 65.1785 80.9166 64.7595 80.6225C64.3405 80.3284 64.0177 79.9171 63.8315 79.4402C63.6453 78.9633 63.604 78.4421 63.7129 77.9419C63.8217 77.4417 64.0757 76.9847 64.4432 76.6283C64.8106 76.2718 65.2751 76.0318 65.7784 75.9383C66.2817 75.8448 66.8015 75.9019 67.2724 76.1025C67.7434 76.3032 68.1446 76.6384 68.4259 77.0661C68.7071 77.4938 68.8559 77.9951 68.8534 78.507C68.8536 78.8535 68.7841 79.1966 68.6491 79.5157C68.5142 79.8349 68.3165 80.1237 68.0677 80.3649C67.819 80.6062 67.5243 80.795 67.2012 80.9202C66.8781 81.0454 66.5331 81.1044 66.1867 81.0937ZM66.1867 78.427V78.5737H66.2667C66.2764 78.5684 66.2849 78.5613 66.2918 78.5528C66.2987 78.5443 66.3038 78.5344 66.3069 78.5239C66.31 78.5134 66.311 78.5024 66.3098 78.4915C66.3086 78.4805 66.3053 78.47 66.3001 78.4603C66.2948 78.4507 66.2877 78.4422 66.2792 78.4353C66.2706 78.4284 66.2608 78.4233 66.2503 78.4202C66.2398 78.4171 66.2288 78.4161 66.2179 78.4173C66.2069 78.4185 66.1964 78.4218 66.1867 78.427Z" fill="white"/>
<path d="M40.4267 81.027C40.1816 81.0253 39.9417 80.9561 39.7334 80.827L25.3334 72.0003C25.1387 71.8819 24.9777 71.7155 24.8657 71.5171C24.7537 71.3187 24.6943 71.0949 24.6934 70.867V62.147L18.0267 58.3603C17.8183 58.2463 17.6441 58.0786 17.5222 57.8747C17.4003 57.6707 17.3351 57.4379 17.3334 57.2003V42.667C17.3338 42.4307 17.397 42.1988 17.5164 41.995C17.6359 41.7912 17.8074 41.6228 18.0134 41.507L24.68 37.7203V29.027C24.6787 28.7969 24.7369 28.5704 24.8491 28.3694C24.9612 28.1685 25.1235 28 25.32 27.8803L39.7334 19.0937C39.9361 18.9766 40.166 18.915 40.4 18.915C40.6341 18.915 40.864 18.9766 41.0667 19.0937L48.04 23.2537L54.9867 19.0937C55.1894 18.9766 55.4193 18.915 55.6534 18.915C55.8874 18.915 56.1173 18.9766 56.32 19.0937L70.7334 27.8803C70.928 27.9988 71.089 28.1652 71.201 28.3636C71.3131 28.562 71.3724 28.7858 71.3734 29.0137V37.7737L78.04 41.547C78.248 41.6639 78.4207 41.8344 78.5404 42.0408C78.66 42.2471 78.722 42.4818 78.72 42.7203V57.2137C78.7196 57.4499 78.6565 57.6818 78.537 57.8857C78.4175 58.0895 78.246 58.2579 78.04 58.3737L70.7867 62.5337L69.4534 60.2137L74.72 57.227L70.4 54.8403C69.8679 55.2775 69.2219 55.5535 68.5381 55.6358C67.8544 55.7181 67.1613 55.6032 66.5406 55.3048C65.92 55.0064 65.3975 54.5368 65.0348 53.9513C64.6721 53.3659 64.4842 52.689 64.4934 52.0003C64.5494 51.0782 64.9551 50.2123 65.6279 49.5791C66.3006 48.946 67.1896 48.5935 68.1134 48.5935C69.0372 48.5935 69.9262 48.946 70.5989 49.5791C71.2716 50.2123 71.6774 51.0782 71.7334 52.0003C71.7334 52.1603 71.7334 52.3203 71.7334 52.467L76.1734 54.9203V43.507L69.5067 39.7203C69.3032 39.6029 69.1344 39.4337 69.0173 39.23C68.9003 39.0263 68.8391 38.7953 68.84 38.5603V35.2137H65.5734C65.263 35.9987 64.6886 36.6508 63.9491 37.0577C63.2095 37.4647 62.3512 37.6009 61.522 37.4429C60.6929 37.285 59.9447 36.8427 59.4066 36.1924C58.8685 35.5421 58.574 34.7244 58.574 33.8803C58.574 33.0362 58.8685 32.2186 59.4066 31.5683C59.9447 30.9179 60.6929 30.4757 61.522 30.3177C62.3512 30.1598 63.2095 30.296 63.9491 30.7029C64.6886 31.1099 65.263 31.762 65.5734 32.547H68.8V29.7737L55.7067 21.7737L49.4 25.547V38.8803L56.0667 42.747C56.6797 42.3039 57.417 42.0659 58.1734 42.067C58.888 42.067 59.5866 42.2789 60.1808 42.676C60.775 43.073 61.2382 43.6373 61.5117 44.2976C61.7851 44.9578 61.8567 45.6843 61.7173 46.3853C61.5779 47.0862 61.2337 47.73 60.7284 48.2353C60.2231 48.7407 59.5792 49.0848 58.8783 49.2242C58.1774 49.3637 57.4509 49.2921 56.7906 49.0186C56.1304 48.7451 55.566 48.282 55.169 47.6878C54.772 47.0936 54.56 46.395 54.56 45.6803C54.5617 45.4521 54.584 45.2245 54.6267 45.0003L47.3734 40.8003C47.1699 40.6829 47.0011 40.5137 46.884 40.31C46.7669 40.1063 46.7058 39.8753 46.7067 39.6403V25.5737L40.4 21.8003L34.6667 25.3337V33.9203H32V26.9203L27.3067 29.7737V37.7737L33.3334 41.187L39.3467 37.7737V31.587H42.0134V38.5603C42.013 38.7966 41.9498 39.0285 41.8303 39.2323C41.7108 39.4362 41.5393 39.6046 41.3334 39.7203L34.6667 43.507V49.2003L41.3334 53.587C41.5211 53.7075 41.6757 53.8731 41.7828 54.0688C41.89 54.2645 41.9463 54.4839 41.9467 54.707V58.667L46.6267 55.907V50.8003L40.2134 47.0137L41.5467 44.7203L48.6267 48.8803C48.8257 48.9983 48.9906 49.1661 49.1052 49.3672C49.2197 49.5682 49.28 49.7956 49.28 50.027V65.6137H52.8267V68.2803H49.4V75.1203C49.3991 75.3482 49.3398 75.572 49.2277 75.7704C49.1157 75.9688 48.9547 76.1352 48.76 76.2537L41.1067 80.8403C40.9009 80.9625 40.666 81.0269 40.4267 81.027ZM35.5067 75.1337L40.4267 78.1337L46.7334 74.3603V58.9603L33.2134 66.9603L31.88 64.667L39.4 60.2403V55.427L33.3334 51.427L26.52 55.2403L25.1867 52.9203L32 49.147V43.507L25.9734 40.0937L20 43.507V47.707L25.0667 44.7203L26.4 47.0137L20 50.8003V56.427L26 59.827L32.1467 56.2137L33.48 58.507L27.3467 62.1337V70.1337L32.8 73.4537L39.1334 69.7203V69.8403L39.44 69.667L40.7734 71.9603L35.5067 75.1337ZM68.1067 51.1337C67.9163 51.1337 67.7301 51.1903 67.572 51.2964C67.4139 51.4025 67.2908 51.5532 67.2186 51.7294C67.1463 51.9056 67.1281 52.0993 67.1662 52.2859C67.2044 52.4725 67.2971 52.6435 67.4327 52.7772C67.5683 52.9109 67.7406 53.0013 67.9277 53.0368C68.1148 53.0723 68.3082 53.0514 68.4834 52.9767C68.6586 52.902 68.8076 52.7769 68.9114 52.6173C69.0153 52.4577 69.0693 52.2708 69.0667 52.0803C69.0722 51.9516 69.0513 51.823 69.0053 51.7026C68.9593 51.5822 68.8893 51.4724 68.7994 51.3801C68.7095 51.2877 68.6017 51.2146 68.4826 51.1654C68.3635 51.1161 68.2356 51.0917 68.1067 51.0937V51.1337ZM58.2 44.827C58.0134 44.8296 57.8317 44.8874 57.6778 44.993C57.5239 45.0986 57.4046 45.2473 57.335 45.4205C57.2654 45.5937 57.2485 45.7836 57.2865 45.9664C57.3246 46.1491 57.4158 46.3166 57.5487 46.4476C57.6816 46.5787 57.8503 46.6675 58.0335 46.703C58.2168 46.7385 58.4065 46.719 58.5787 46.6469C58.7509 46.5749 58.8979 46.4536 59.0014 46.2982C59.1048 46.1428 59.16 45.9603 59.16 45.7737C59.1655 45.6449 59.1446 45.5164 59.0986 45.396C59.0527 45.2755 58.9826 45.1658 58.8927 45.0734C58.8028 44.981 58.695 44.908 58.5759 44.8587C58.4568 44.8095 58.3289 44.7851 58.2 44.787V44.827ZM62.2 32.9603C62.0096 32.9577 61.8227 33.0117 61.6631 33.1156C61.5035 33.2195 61.3784 33.3685 61.3037 33.5436C61.229 33.7188 61.208 33.9122 61.2436 34.0993C61.2791 34.2864 61.3694 34.4587 61.5032 34.5943C61.6369 34.7299 61.8079 34.8227 61.9945 34.8608C62.181 34.8989 62.3747 34.8807 62.5509 34.8085C62.7271 34.7362 62.8779 34.6132 62.9839 34.455C63.09 34.2969 63.1467 34.1108 63.1467 33.9203C63.1539 33.7927 63.1352 33.665 63.0917 33.5448C63.0482 33.4246 62.9808 33.3144 62.8936 33.221C62.8064 33.1276 62.7012 33.0527 62.5843 33.0011C62.4673 32.9494 62.3412 32.9219 62.2134 32.9203L62.2 32.9603Z" fill="white"/>
</g>
<defs>
<linearGradient id="paint0_linear_2385_6464" x1="-20.7107" y1="120.707" x2="120.711" y2="-20.7147" gradientUnits="userSpaceOnUse">
<stop stop-color="#055F4E"/>
<stop offset="1" stop-color="#56C0A7"/>
</linearGradient>
<clipPath id="clip0_2385_6464">
<rect width="100" height="100" fill="white"/>
</clipPath>
</defs>
</svg>
