<svg width="100" height="100" viewBox="0 0 100 100" fill="none" xmlns="http://www.w3.org/2000/svg">
<g clip-path="url(#clip0_2385_6465)">
<path d="M100 0H0V100H100V0Z" fill="url(#paint0_linear_2385_6465)"/>
<path d="M59.3333 45.6003V32.667C59.3343 32.4915 59.3007 32.3176 59.2343 32.1551C59.168 31.9927 59.0702 31.8449 58.9466 31.7204L44.28 17.0537C44.1554 16.9301 44.0076 16.8323 43.8452 16.766C43.6827 16.6996 43.5088 16.666 43.3333 16.667H18C17.6463 16.667 17.3072 16.8075 17.0572 17.0575C16.8071 17.3076 16.6666 17.6467 16.6666 18.0003V75.3337C16.6666 75.6873 16.8071 76.0264 17.0572 76.2765C17.3072 76.5265 17.6463 76.667 18 76.667H58C58.3536 76.667 58.6927 76.5265 58.9428 76.2765C59.1928 76.0264 59.3333 75.6873 59.3333 75.3337V69.4137C58.3156 68.511 57.4192 67.4802 56.6666 66.347V74.0003H19.3333V19.3337H42V32.667C42 33.0206 42.1404 33.3598 42.3905 33.6098C42.6405 33.8599 42.9797 34.0003 43.3333 34.0003H56.6666V48.667C57.4163 47.5316 58.3129 46.5004 59.3333 45.6003ZM44.6666 31.3337V21.2137L54.7866 31.3337H44.6666ZM31.3333 42.0003H23.3333V39.3337H31.3333V42.0003ZM52.6666 42.0003H34V39.3337H52.6666V42.0003ZM52.6666 50.0004H23.3333V47.3337H52.6666V50.0004ZM73.2533 83.3337H66.7466C66.4811 83.335 66.2213 83.257 66.0003 83.1098C65.7794 82.9625 65.6075 82.7526 65.5066 82.507L63.8933 78.507C63.8085 78.3044 63.7751 78.0839 63.796 77.8653C63.817 77.6466 63.8916 77.4365 64.0133 77.2537C64.1356 77.0727 64.3005 76.9246 64.4934 76.8223C64.6864 76.72 64.9016 76.6667 65.12 76.667H74.88C75.0984 76.6667 75.3135 76.72 75.5065 76.8223C75.6994 76.9246 75.8643 77.0727 75.9866 77.2537C76.1083 77.4365 76.1829 77.6466 76.2039 77.8653C76.2248 78.0839 76.1914 78.3044 76.1066 78.507L74.4933 82.507C74.3924 82.7526 74.2205 82.9625 73.9996 83.1098C73.7787 83.257 73.5188 83.335 73.2533 83.3337ZM67.64 80.667H72.36L72.8933 79.3337H67.1066L67.64 80.667ZM83.16 55.3337C82.6213 52.0256 80.8565 49.0418 78.2171 46.9762C75.5776 44.9107 72.257 43.915 68.9165 44.1873C65.5759 44.4597 62.4605 45.9801 60.1905 48.4459C57.9204 50.9118 56.6623 54.1421 56.6666 57.4937C56.6672 59.6409 57.1863 61.7563 58.1799 63.6598C59.1734 65.5634 60.612 67.1988 62.3733 68.427C62.7237 68.6498 63.046 68.9139 63.3333 69.2137V74.0003C63.3333 74.354 63.4738 74.6931 63.7238 74.9432C63.9739 75.1932 64.313 75.3337 64.6666 75.3337H75.3333C75.6869 75.3337 76.0261 75.1932 76.2761 74.9432C76.5261 74.6931 76.6666 74.354 76.6666 74.0003V69.2003C76.9546 68.9145 77.2719 68.6597 77.6133 68.4403C79.3836 67.2201 80.8297 65.5867 81.8264 63.6816C82.8231 61.7765 83.3403 59.6571 83.3333 57.507C83.3353 56.7702 83.2773 56.0344 83.16 55.307V55.3337ZM76.0666 66.267C75.2933 66.8004 74 67.6937 74 69.067V72.667H71.3333V63.3337H74V60.667H66V63.3337H68.6666V72.667H66V69.0937C66 67.7603 64.6666 66.787 63.8933 66.2403C62.6818 65.4036 61.6566 64.3252 60.8823 63.0728C60.108 61.8205 59.6014 60.4215 59.3943 58.9637C59.1872 57.506 59.2841 56.0212 59.679 54.6028C60.0738 53.1843 60.7581 51.863 61.6886 50.722C62.6192 49.581 63.7759 48.6449 65.0859 47.9729C66.3959 47.3008 67.8309 46.9072 69.3005 46.8168C70.7701 46.7265 72.2424 46.9414 73.6249 47.448C75.0074 47.9546 76.27 48.7419 77.3333 49.7603C79.0221 51.3424 80.1422 53.4373 80.52 55.7204C80.8568 57.7198 80.6168 59.7738 79.8281 61.6418C79.0394 63.5097 77.7346 65.1141 76.0666 66.267ZM38 34.0003H23.3333V31.3337H38V34.0003ZM39.3333 58.0004H23.3333V55.3337H39.3333V58.0004ZM52.6666 58.0004H42V55.3337H52.6666V58.0004ZM40.6666 66.0003H23.3333V63.3337H40.6666V66.0003Z" fill="white"/>
</g>
<defs>
<linearGradient id="paint0_linear_2385_6465" x1="-20.7067" y1="120.72" x2="120.72" y2="-20.7067" gradientUnits="userSpaceOnUse">
<stop stop-color="#055F4E"/>
<stop offset="1" stop-color="#56C0A7"/>
</linearGradient>
<clipPath id="clip0_2385_6465">
<rect width="100" height="100" fill="white"/>
</clipPath>
</defs>
</svg>
