<svg width="100" height="100" viewBox="0 0 100 100" fill="none" xmlns="http://www.w3.org/2000/svg">
<path d="M17.5 4.62012V15.4601H11.16V19.4601H17.5V26.3201H11.16V30.3201H17.5V37.1601H11.16V41.1601H17.5V48.0001H11.16V52.0001H17.5V58.8401H11.16V62.8401H17.5V69.6801H11.16V73.6801H17.5V80.5401H11.16V84.5401H17.5V95.3801H90.84V4.62012H17.5ZM86.84 91.3801H21.5V84.5401H27.84V80.5401H21.5V73.6801H27.84V69.6801H21.5V62.8401H27.84V58.8401H21.5V52.0001H27.84V48.0001H21.5V41.1601H27.84V37.1601H21.5V30.3201H27.84V26.3201H21.5V19.4601H27.84V15.4601H21.5V8.62012H86.84V91.3801Z" fill="#1C7B68"/>
<path d="M76.2799 28.5996H35.8799V32.5996H76.2799V28.5996Z" fill="#1C7B68"/>
<path d="M56.0799 54.8604H35.8799V58.8604H56.0799V54.8604Z" fill="#1C7B68"/>
<path d="M76.2799 15.46H35.8799V19.46H76.2799V15.46Z" fill="#1C7B68"/>
<path d="M76.2799 41.7402H35.8799V45.7402H76.2799V41.7402Z" fill="#1C7B68"/>
</svg>
