<svg width="100" height="100" viewBox="0 0 100 100" fill="none" xmlns="http://www.w3.org/2000/svg">
<g clip-path="url(#clip0_2385_6461)">
<path d="M100 0H0V100H100V0Z" fill="url(#paint0_linear_2385_6461)"/>
<path d="M50.0001 69.1729C46.208 69.1729 42.501 68.0484 39.348 65.9416C36.195 63.8348 33.7375 60.8403 32.2863 57.3368C30.8351 53.8334 30.4554 49.9782 31.1952 46.259C31.935 42.5397 33.7611 39.1234 36.4425 36.4419C39.124 33.7605 42.5403 31.9344 46.2596 31.1946C49.9789 30.4548 53.834 30.8345 57.3374 32.2857C60.8409 33.7368 63.8354 36.1943 65.9422 39.3474C68.049 42.5004 69.1735 46.2074 69.1735 49.9995C69.1664 55.0824 67.1441 59.9551 63.5499 63.5493C59.9558 67.1435 55.083 69.1658 50.0001 69.1729ZM50.0001 33.4928C46.7354 33.4928 43.544 34.4609 40.8295 36.2747C38.115 38.0885 35.9993 40.6665 34.75 43.6827C33.5006 46.6989 33.1737 50.0178 33.8106 53.2198C34.4475 56.4218 36.0196 59.363 38.3281 61.6715C40.6366 63.98 43.5779 65.5521 46.7798 66.189C49.9818 66.8259 53.3008 66.499 56.3169 65.2497C59.3331 64.0003 61.9111 61.8846 63.7249 59.1701C65.5387 56.4556 66.5068 53.2642 66.5068 49.9995C66.4997 45.6238 64.7584 41.4294 61.6643 38.3353C58.5702 35.2413 54.3758 33.4999 50.0001 33.4928Z" fill="white"/>
<path d="M25.4933 40.7862L23 39.8395C25.1005 34.3625 28.8083 29.6489 33.6365 26.3175C38.4646 22.9861 44.1874 21.1927 50.0533 21.1729C50.317 21.174 50.5745 21.2532 50.7931 21.4006C51.0118 21.5481 51.1818 21.757 51.2817 22.001C51.3816 22.2451 51.4069 22.5133 51.3544 22.7717C51.3019 23.0301 51.1739 23.2672 50.9867 23.4529L46.5333 27.9062L44.6533 26.0129L46.6667 24.0795C41.9615 24.7037 37.5117 26.5849 33.7856 29.525C30.0594 32.465 27.1948 36.3553 25.4933 40.7862Z" fill="white"/>
<path d="M77.64 51.4404C77.4645 51.4414 77.2906 51.4078 77.1281 51.3414C76.9657 51.275 76.8179 51.1773 76.6933 51.0537L72.2533 46.667L74.1333 44.7737L76.08 46.667C75.4442 41.9704 73.5564 37.5314 70.6147 33.8154C67.6729 30.0995 63.7854 27.2435 59.36 25.547L60.3067 23.0537C65.7836 25.1542 70.4973 28.862 73.8287 33.6902C77.1601 38.5183 78.9535 44.2411 78.9733 50.107C78.9733 50.4607 78.8328 50.7998 78.5828 51.0498C78.3327 51.2999 77.9936 51.4404 77.64 51.4404Z" fill="white"/>
<path d="M50.0534 79.0268C49.7913 79.0257 49.5353 78.9474 49.3175 78.8016C49.0996 78.6559 48.9296 78.4491 48.8286 78.2073C48.7276 77.9654 48.7001 77.6992 48.7496 77.4418C48.799 77.1844 48.9233 76.9473 49.1067 76.7601L53.5601 72.3068L55.4401 74.1868L53.4934 76.1334C58.1966 75.5037 62.6439 73.6205 66.3691 70.6812C70.0944 67.7418 72.9603 63.8545 74.6667 59.4268L77.1601 60.3734C75.0526 65.8553 71.3353 70.571 66.4971 73.9004C61.659 77.2297 55.9264 79.0169 50.0534 79.0268Z" fill="white"/>
<path d="M39.7867 77.16C34.3097 75.0595 29.596 71.3517 26.2646 66.5236C22.9332 61.6954 21.1399 55.9726 21.12 50.1067C21.1185 49.8419 21.1958 49.5826 21.3422 49.3619C21.4886 49.1412 21.6974 48.9691 21.942 48.8676C22.1866 48.766 22.4559 48.7396 22.7156 48.7917C22.9753 48.8438 23.2135 48.972 23.4 49.16L27.8533 53.6134L25.96 55.4934L24 53.56C24.6406 58.2553 26.5319 62.6919 29.4758 66.4052C32.4197 70.1186 36.308 72.972 40.7334 74.6667L39.7867 77.16Z" fill="white"/>
<path d="M21.2258 49.5359L17.884 54.9785L20.1565 56.3738L23.4983 50.9312L21.2258 49.5359Z" fill="white"/>
<path d="M79.8472 44.0765L76.5045 49.5186L78.7768 50.9143L82.1195 45.4722L79.8472 44.0765Z" fill="white"/>
<path d="M46.3057 16.939L44.4657 18.8691L49.0884 23.2759L50.9284 21.3458L46.3057 16.939Z" fill="white"/>
<path d="M50.9695 76.73L49.1295 78.6602L53.7523 83.067L55.5923 81.1368L50.9695 76.73Z" fill="white"/>
<path d="M49.9334 50.0132C48.6644 50.0158 47.4231 49.6419 46.3667 48.9388C45.3103 48.2357 44.4862 47.235 43.9987 46.0634C43.5113 44.8917 43.3824 43.6018 43.6283 42.3569C43.8743 41.1119 44.484 39.9679 45.3804 39.0697C46.2768 38.1714 47.4195 37.5593 48.664 37.3107C49.9084 37.0622 51.1986 37.1884 52.3712 37.6734C53.5439 38.1584 54.5463 38.9805 55.2516 40.0354C55.9569 41.0904 56.3334 42.3308 56.3334 43.5998C56.3299 45.2974 55.6549 46.9246 54.4558 48.1262C53.2567 49.3278 51.6309 50.0061 49.9334 50.0132ZM49.9334 39.8665C49.1912 39.8639 48.465 40.0817 47.8468 40.4924C47.2287 40.9031 46.7464 41.4881 46.4612 42.1732C46.1759 42.8584 46.1006 43.6128 46.2448 44.3408C46.3889 45.0689 46.746 45.7377 47.2708 46.2625C47.7956 46.7872 48.4644 47.1443 49.1924 47.2885C49.9204 47.4326 50.6749 47.3573 51.36 47.0721C52.0452 46.7868 52.6302 46.3046 53.0408 45.6864C53.4515 45.0682 53.6694 44.342 53.6667 43.5998C53.6632 42.6108 53.2687 41.6632 52.5694 40.9639C51.87 40.2645 50.9224 39.87 49.9334 39.8665Z" fill="white"/>
<path d="M58.8534 59.5599H41.0134C40.6598 59.5599 40.3206 59.4194 40.0706 59.1694C39.8205 58.9193 39.6801 58.5802 39.6801 58.2266C39.6713 56.4141 40.1246 54.6293 40.9971 53.0406C41.8696 51.4519 43.1325 50.1117 44.6667 49.1466C46.2659 48.1492 48.1154 47.6267 50.0001 47.6399C52.762 47.689 55.3919 48.8308 57.3138 50.8151C59.2356 52.7994 60.2926 55.4644 60.2534 58.2266C60.2536 58.4074 60.217 58.5864 60.1459 58.7527C60.0748 58.919 59.9706 59.069 59.8396 59.1937C59.7086 59.3185 59.5537 59.4152 59.3841 59.4782C59.2146 59.5411 59.034 59.5689 58.8534 59.5599ZM42.4534 56.8932H57.4134C57.1485 55.0874 56.2512 53.4342 54.8814 52.228C53.5117 51.0218 51.7582 50.3409 49.9334 50.3066C48.5668 50.3093 47.2279 50.6925 46.0667 51.4132C45.1112 52.0192 44.295 52.8209 43.6721 53.7656C43.0493 54.7102 42.6339 55.7762 42.4534 56.8932Z" fill="white"/>
</g>
<defs>
<linearGradient id="paint0_linear_2385_6461" x1="-20.7067" y1="120.711" x2="120.715" y2="-20.7107" gradientUnits="userSpaceOnUse">
<stop stop-color="#055F4E"/>
<stop offset="1" stop-color="#56C0A7"/>
</linearGradient>
<clipPath id="clip0_2385_6461">
<rect width="100" height="100" fill="white"/>
</clipPath>
</defs>
</svg>
