<svg width="100" height="100" viewBox="0 0 100 100" fill="none" xmlns="http://www.w3.org/2000/svg">
<g clip-path="url(#clip0_2385_6454)">
<path d="M100 0H0V100H100V0Z" fill="url(#paint0_linear_2385_6454)"/>
<path d="M81.92 75.4664H79.2533V73.4664H80.9467V31.4131L71.92 23.5597H44.9333V25.0931H42.9333V22.5597C42.9315 22.4279 42.9562 22.2971 43.0058 22.1749C43.0554 22.0528 43.129 21.9419 43.2222 21.8486C43.3154 21.7554 43.4264 21.6818 43.5485 21.6322C43.6707 21.5826 43.8015 21.5579 43.9333 21.5597H72.2667C72.5068 21.5552 72.7399 21.6408 72.92 21.7997L82.5867 30.1997C82.6917 30.2937 82.7757 30.4088 82.8331 30.5374C82.8906 30.6661 82.9202 30.8055 82.92 30.9464V74.4664C82.92 74.7316 82.8146 74.986 82.6271 75.1735C82.4396 75.361 82.1852 75.4664 81.92 75.4664Z" fill="white"/>
<path d="M77.6933 78.4395H40.9467C40.6814 78.4395 40.4271 78.3341 40.2396 78.1466C40.052 77.959 39.9467 77.7047 39.9467 77.4395V70.0661H41.9467V76.4395H76.6933V35.5995L68.88 27.7861H41.9467V35.6395H40V26.7861C40.0034 26.522 40.1099 26.2696 40.2967 26.0828C40.4835 25.8961 40.7358 25.7896 41 25.7861H69.3333C69.5985 25.7864 69.8526 25.8919 70.04 26.0795L78.44 34.4795C78.6276 34.6668 78.7331 34.921 78.7333 35.1861V77.4395C78.7334 77.5742 78.7063 77.7076 78.6536 77.8316C78.6008 77.9556 78.5236 78.0677 78.4264 78.1611C78.3293 78.2545 78.2143 78.3273 78.0883 78.3751C77.9623 78.423 77.828 78.4449 77.6933 78.4395Z" fill="white"/>
<path d="M77.6934 36.1861H69.3334C69.0692 36.1827 68.8169 36.0762 68.6301 35.8894C68.4433 35.7026 68.3368 35.4503 68.3334 35.1861V26.7861H70.3334V34.1861H77.7334L77.6934 36.1861Z" fill="white"/>
<path d="M53.5201 52.9863H43.8401V54.9863H53.5201V52.9863Z" fill="white"/>
<path d="M51.7333 58.04H41V60.04H51.7333V58.04Z" fill="white"/>
<path d="M72.84 53.0127H57.1733V55.0127H72.84V53.0127Z" fill="white"/>
<path d="M72.6134 59.1201H61.1467V61.1201H72.6134V59.1201Z" fill="white"/>
<path d="M72.6133 41.3193H53.3467V43.3193H72.6133V41.3193Z" fill="white"/>
<path d="M72.6133 46.6396H61.24V48.6396H72.6133V46.6396Z" fill="white"/>
<path d="M36.56 52.7197H31.0667V54.7197H36.56V52.7197Z" fill="white"/>
<path d="M26.1867 52.7197H18.6801V54.7197H26.1867V52.7197Z" fill="white"/>
<path d="M30.8667 48.5332H23.7467V50.5332H30.8667V48.5332Z" fill="white"/>
<path d="M32.1333 57.0127H22.24V59.0127H32.1333V57.0127Z" fill="white"/>
<path d="M42.04 65.2259C39.6033 65.2259 37.2214 64.5034 35.1953 63.1497C33.1693 61.7959 31.5903 59.8718 30.6578 57.6206C29.7253 55.3694 29.4813 52.8923 29.9567 50.5024C30.4321 48.1126 31.6054 45.9174 33.3284 44.1944C35.0514 42.4714 37.2466 41.298 39.6365 40.8227C42.0263 40.3473 44.5034 40.5913 46.7546 41.5237C49.0058 42.4562 50.9299 44.0353 52.2837 46.0613C53.6374 48.0873 54.36 50.4693 54.36 52.9059C54.36 54.5238 54.0413 56.1259 53.4222 57.6206C52.803 59.1153 51.8955 60.4735 50.7515 61.6175C49.6075 62.7615 48.2494 63.669 46.7546 64.2881C45.2599 64.9073 43.6579 65.2259 42.04 65.2259ZM42.04 42.5593C39.9989 42.5593 38.0036 43.1645 36.3065 44.2985C34.6094 45.4325 33.2866 47.0442 32.5055 48.93C31.7244 50.8157 31.5201 52.8907 31.9183 54.8926C32.3165 56.8945 33.2994 58.7333 34.7426 60.1766C36.1859 61.6199 38.0248 62.6028 40.0266 63.001C42.0285 63.3992 44.1035 63.1948 45.9893 62.4137C47.875 61.6326 49.4868 60.3099 50.6207 58.6128C51.7547 56.9156 52.36 54.9204 52.36 52.8793C52.3494 50.148 51.2579 47.5319 49.324 45.6031C47.3902 43.6742 44.7713 42.5894 42.04 42.5859V42.5593Z" fill="white"/>
<path d="M42.0401 69.16C38.8255 69.16 35.6831 68.2067 33.0102 66.4208C30.3374 64.6349 28.2541 62.0964 27.024 59.1265C25.7938 56.1566 25.4719 52.8886 26.0991 49.7358C26.7262 46.583 28.2742 43.6869 30.5472 41.4138C32.8203 39.1407 35.7164 37.5928 38.8692 36.9656C42.0221 36.3385 45.2901 36.6604 48.26 37.8905C51.2299 39.1207 53.7683 41.2039 55.5542 43.8768C57.3402 46.5496 58.2934 49.6921 58.2934 52.9067C58.2864 57.2151 56.5717 61.3451 53.5251 64.3917C50.4786 67.4383 46.3486 69.1529 42.0401 69.16ZM42.0401 38.6533C39.221 38.6533 36.4653 39.4893 34.1214 41.0554C31.7774 42.6216 29.9505 44.8477 28.8717 47.4521C27.7929 50.0566 27.5107 52.9225 28.0606 55.6873C28.6106 58.4522 29.9681 60.9919 31.9615 62.9853C33.9548 64.9787 36.4945 66.3361 39.2594 66.8861C42.0243 67.4361 44.8901 67.1538 47.4946 66.075C50.0991 64.9962 52.3251 63.1693 53.8913 60.8254C55.4575 58.4814 56.2934 55.7257 56.2934 52.9067C56.2864 49.1298 54.782 45.5099 52.1101 42.8405C49.4382 40.1712 45.8169 38.6702 42.0401 38.6667V38.6533Z" fill="white"/>
<path d="M42 48.1328H40V53.6662H42V48.1328Z" fill="white"/>
<path d="M45.3334 49.5333H43.3334V49H38.5734V49.5333H36.5734V48C36.5734 47.7348 36.6787 47.4804 36.8663 47.2929C37.0538 47.1054 37.3081 47 37.5734 47H44.3467C44.4774 47 44.6068 47.0259 44.7274 47.0764C44.848 47.1268 44.9573 47.2006 45.0491 47.2937C45.1409 47.3867 45.2133 47.4971 45.2621 47.6183C45.3109 47.7396 45.3351 47.8693 45.3334 48V49.5333Z" fill="white"/>
<path d="M42.5333 52.8936H39.2533V54.8936H42.5333V52.8936Z" fill="white"/>
<path d="M20 57.0793L17.3334 54.4127C17.2386 54.3196 17.1634 54.2086 17.112 54.0861C17.0606 53.9636 17.0342 53.8321 17.0342 53.6993C17.0342 53.5665 17.0606 53.435 17.112 53.3126C17.1634 53.1901 17.2386 53.0791 17.3334 52.986L20 50.3193L21.4134 51.7327L19.48 53.666L21.4134 55.6127L20 57.0793Z" fill="white"/>
</g>
<defs>
<linearGradient id="paint0_linear_2385_6454" x1="-20.7067" y1="120.697" x2="120.715" y2="-20.724" gradientUnits="userSpaceOnUse">
<stop stop-color="#055F4E"/>
<stop offset="1" stop-color="#56C0A7"/>
</linearGradient>
<clipPath id="clip0_2385_6454">
<rect width="100" height="100" fill="white"/>
</clipPath>
</defs>
</svg>
