<svg width="100" height="100" viewBox="0 0 100 100" fill="none" xmlns="http://www.w3.org/2000/svg">
<g clip-path="url(#clip0_2385_6455)">
<path d="M100 0H0V100H100V0Z" fill="url(#paint0_linear_2385_6455)"/>
<path d="M58.32 83.6801C58.0807 83.68 57.8458 83.6155 57.64 83.4934L50 78.9201L42.36 83.4934C42.1573 83.6104 41.9274 83.6721 41.6933 83.6721C41.4593 83.6721 41.2293 83.6104 41.0267 83.4934L25.3333 73.9201C25.1412 73.8 24.9828 73.6329 24.8731 73.4346C24.7635 73.2363 24.7062 73.0133 24.7067 72.7868V63.1868L17.3333 59.0401C17.1274 58.9243 16.9559 58.7559 16.8364 58.5521C16.7169 58.3483 16.6537 58.1164 16.6533 57.8801V42.1201C16.6537 41.8838 16.7169 41.6519 16.8364 41.4481C16.9559 41.2443 17.1274 41.0759 17.3333 40.9601L24.6667 36.8134V27.2134C24.6639 26.9846 24.7201 26.7589 24.8299 26.5581C24.9396 26.3572 25.0992 26.188 25.2933 26.0668L40.9733 16.5068C41.176 16.3897 41.4059 16.3281 41.64 16.3281C41.874 16.3281 42.104 16.3897 42.3067 16.5068L49.9467 21.0801L57.5867 16.5068C57.7893 16.3897 58.0193 16.3281 58.2533 16.3281C58.4874 16.3281 58.7173 16.3897 58.92 16.5068L74.6667 26.0801C74.8613 26.1986 75.0223 26.365 75.1343 26.5634C75.2464 26.7618 75.3057 26.9856 75.3067 27.2134V36.8134L82.6667 40.9601C82.8726 41.0759 83.0441 41.2443 83.1636 41.4481C83.2831 41.6519 83.3462 41.8838 83.3466 42.1201V57.8801C83.3462 58.1164 83.2831 58.3483 83.1636 58.5521C83.0441 58.7559 82.8726 58.9243 82.6667 59.0401L75.3333 63.1868V72.7868C75.3347 73.0169 75.2764 73.2434 75.1643 73.4443C75.0521 73.6453 74.8899 73.8138 74.6933 73.9334L59.0133 83.4934C58.8019 83.6137 58.5632 83.678 58.32 83.6801ZM51.32 76.6134L58.32 80.7868L72.6667 72.0001V62.4134C72.6671 62.1772 72.7302 61.9453 72.8497 61.7414C72.9692 61.5376 73.1407 61.3692 73.3466 61.2534L79.2533 57.8934L74.2933 55.1601C73.6309 55.7291 72.7937 56.0544 71.9208 56.082C71.048 56.1095 70.1919 55.8377 69.4949 55.3117C68.7978 54.7856 68.3016 54.037 68.0888 53.19C67.8759 52.3431 67.9591 51.4488 68.3246 50.6556C68.6901 49.8625 69.3159 49.2183 70.0981 48.8299C70.8802 48.4415 71.7717 48.3323 72.6245 48.5204C73.4773 48.7086 74.24 49.1828 74.7861 49.8642C75.3323 50.5457 75.6288 51.3935 75.6267 52.2668C75.6397 52.4532 75.6397 52.6403 75.6267 52.8268L80.72 55.6268V42.8934L73.3333 38.7468C73.1274 38.631 72.9559 38.4626 72.8364 38.2588C72.7169 38.0549 72.6537 37.823 72.6533 37.5868V34.0001H68.9733C68.6605 34.845 68.0605 35.553 67.2784 36.0002C66.4963 36.4475 65.5818 36.6055 64.6949 36.4466C63.8081 36.2876 63.0054 35.822 62.4272 35.131C61.849 34.44 61.5322 33.5677 61.5322 32.6668C61.5322 31.7658 61.849 30.8935 62.4272 30.2025C63.0054 29.5115 63.8081 29.0459 64.6949 28.887C65.5818 28.728 66.4963 28.886 67.2784 29.3333C68.0605 29.7805 68.6605 30.4885 68.9733 31.3334H72.6667V28.0001L58.3067 19.2134L51.3333 23.3868V38.0534L58.7467 42.3468C59.433 41.8301 60.2736 41.5604 61.1324 41.5812C61.9912 41.602 62.8178 41.9122 63.4782 42.4615C64.1387 43.0107 64.5944 43.7669 64.7714 44.6075C64.9485 45.4481 64.8365 46.3238 64.4537 47.0928C64.0709 47.8618 63.4396 48.4791 62.6622 48.8445C61.8848 49.2099 61.0067 49.3022 60.1703 49.1063C59.334 48.9104 58.5882 48.4378 58.0539 47.7651C57.5197 47.0925 57.2282 46.2591 57.2267 45.4001C57.2255 45.1314 57.2524 44.8633 57.3067 44.6001L49.3333 40.0001C49.1318 39.8837 48.9642 39.7167 48.8473 39.5155C48.7303 39.3144 48.6681 39.0861 48.6667 38.8534V23.3868L41.68 19.2134L35.32 23.0801V32.4934H32.6533V24.7068L27.3333 28.0001V36.8534L34 40.6268L40.6667 36.8534V30.0001H43.3333V37.5868C43.3329 37.823 43.2697 38.0549 43.1503 38.2588C43.0308 38.4626 42.8593 38.631 42.6533 38.7468L35.32 42.8934V49.2401L42.6667 54.0401C42.8544 54.1606 43.009 54.3262 43.1161 54.5219C43.2233 54.7176 43.2796 54.937 43.28 55.1601V59.6401L48.6133 56.4934V50.8401L41.6133 46.6668L42.9467 44.3734L50.6667 48.9201C50.8632 49.0397 51.0255 49.2082 51.1376 49.4092C51.2498 49.6101 51.308 49.8366 51.3067 50.0668V67.4001H57.4267C57.7389 66.5622 58.3356 65.8606 59.1126 65.4181C59.8896 64.9755 60.7974 64.82 61.6774 64.9789C62.5573 65.1377 63.3535 65.6007 63.9267 66.287C64.4999 66.9733 64.8138 67.8392 64.8133 68.7334C64.7577 69.5952 64.4151 70.4136 63.8403 71.0581C63.2655 71.7026 62.4914 72.1361 61.6415 72.2895C60.7917 72.4429 59.9149 72.3074 59.151 71.9045C58.3871 71.5017 57.7801 70.8547 57.4267 70.0668H51.2933L51.32 76.6134ZM36.1067 77.3334L41.68 80.7334L48.68 76.5601V59.5868L33.7733 68.3601L32.44 66.0534L40.6667 61.2001V55.8668L34 51.5068L26.5333 55.6934L25.2 53.3601L32.6933 49.1601V42.8934L26.0267 39.1201L19.36 42.8934V47.7468L25.0667 44.4001L26.4 46.6934L19.3333 50.8401V57.0934L26 60.8668L32.7467 56.8668L34.08 59.1601L27.3333 63.1601V72.0001L33.3333 75.7201L40.2933 71.6268L40.3733 71.7468L40.6933 71.5601L42.0267 73.8534L36.1067 77.3334ZM61.0267 67.4534C60.7967 67.4508 60.5711 67.5166 60.3786 67.6424C60.1861 67.7682 60.0353 67.9485 59.9455 68.1602C59.8557 68.3719 59.8308 68.6056 59.874 68.8314C59.9172 69.0573 60.0267 69.2653 60.1883 69.4288C60.35 69.5924 60.5567 69.7042 60.7821 69.7501C61.0074 69.7959 61.2414 69.7737 61.4541 69.6863C61.6668 69.5989 61.8488 69.4503 61.9769 69.2593C62.1049 69.0682 62.1733 68.8434 62.1733 68.6134C62.1629 68.3163 62.0376 68.0348 61.8237 67.8283C61.6097 67.6219 61.324 67.5066 61.0267 67.5068V67.4534ZM71.8 51.0534C71.5706 51.0534 71.3463 51.1215 71.1555 51.2489C70.9648 51.3764 70.8161 51.5575 70.7283 51.7695C70.6405 51.9815 70.6175 52.2147 70.6623 52.4397C70.707 52.6647 70.8175 52.8714 70.9797 53.0337C71.142 53.1959 71.3487 53.3064 71.5737 53.3511C71.7987 53.3959 72.0319 53.3729 72.2439 53.2851C72.4559 53.1973 72.637 53.0486 72.7645 52.8579C72.892 52.6671 72.96 52.4428 72.96 52.2134C72.9463 51.9151 72.818 51.6336 72.6019 51.4274C72.3859 51.2213 72.0986 51.1064 71.8 51.1068V51.0534ZM61.0267 44.1868C60.7967 44.1841 60.5711 44.2499 60.3786 44.3757C60.1861 44.5016 60.0353 44.6818 59.9455 44.8935C59.8557 45.1052 59.8308 45.3389 59.874 45.5648C59.9172 45.7907 60.0267 45.9986 60.1883 46.1622C60.35 46.3257 60.5567 46.4375 60.7821 46.4834C61.0074 46.5292 61.2414 46.5071 61.4541 46.4197C61.6668 46.3323 61.8488 46.1836 61.9769 45.9926C62.1049 45.8015 62.1733 45.5767 62.1733 45.3468C62.1629 45.0496 62.0376 44.7681 61.8237 44.5617C61.6097 44.3552 61.324 44.2399 61.0267 44.2401V44.1868ZM65.3333 31.5068C65.1039 31.5068 64.8796 31.5748 64.6889 31.7023C64.4981 31.8297 64.3494 32.0109 64.2616 32.2228C64.1738 32.4348 64.1508 32.668 64.1956 32.8931C64.2404 33.1181 64.3508 33.3248 64.5131 33.487C64.6753 33.6492 64.882 33.7597 65.107 33.8045C65.332 33.8492 65.5653 33.8263 65.7772 33.7385C65.9892 33.6507 66.1704 33.502 66.2978 33.3112C66.4253 33.1205 66.4933 32.8962 66.4933 32.6668C66.4951 32.5139 66.4663 32.3623 66.4087 32.2207C66.351 32.0792 66.2656 31.9506 66.1576 31.8425C66.0495 31.7345 65.9209 31.6491 65.7793 31.5914C65.6378 31.5338 65.4862 31.505 65.3333 31.5068Z" fill="white"/>
</g>
<defs>
<linearGradient id="paint0_linear_2385_6455" x1="-20.7067" y1="120.707" x2="120.707" y2="-20.7067" gradientUnits="userSpaceOnUse">
<stop stop-color="#055F4E"/>
<stop offset="1" stop-color="#56C0A7"/>
</linearGradient>
<clipPath id="clip0_2385_6455">
<rect width="100" height="100" fill="white"/>
</clipPath>
</defs>
</svg>
