<svg width="100" height="100" viewBox="0 0 100 100" fill="none" xmlns="http://www.w3.org/2000/svg">
<g clip-path="url(#clip0_2385_6451)">
<path d="M100 0H0V100H100V0Z" fill="url(#paint0_linear_2385_6451)"/>
<path d="M74.6667 32.1333C71.7992 28.2962 68.0769 25.1801 63.7952 23.0323C59.5135 20.8845 54.7902 19.7641 50 19.76C45.388 19.7431 40.8322 20.7723 36.6753 22.7699C32.5183 24.7676 28.8684 27.6817 26 31.2933L24 29.6266C27.1837 25.6405 31.2399 22.4382 35.8562 20.2666C40.4724 18.095 45.5255 17.0119 50.6263 17.1008C55.727 17.1896 60.7393 18.4481 65.2771 20.7792C69.8149 23.1104 73.7571 26.452 76.8 30.5466L74.6667 32.1333Z" fill="white"/>
<path d="M42.5734 82.9067C35.2331 81.1924 28.6844 77.055 23.9841 71.1621C19.2837 65.2692 16.706 57.9645 16.6667 50.4267C16.6604 47.9403 16.9422 45.4615 17.5067 43.04L20.0934 43.6534C19.581 45.8745 19.326 48.1472 19.3334 50.4267C19.3676 57.3607 21.7375 64.0808 26.0606 69.5022C30.3837 74.9236 36.4077 78.7299 43.1601 80.3067L42.5734 82.9067Z" fill="white"/>
<path d="M57.4268 82.9065L56.8401 80.2399C63.5814 78.6657 69.5971 74.8693 73.919 69.4615C78.2409 64.0537 80.6176 57.349 80.6667 50.4265C80.6703 48.5066 80.4872 46.591 80.1201 44.7065L82.7867 44.1865C83.1921 46.2416 83.3931 48.3318 83.3868 50.4265C83.3447 57.9715 80.7593 65.2819 76.0485 71.1758C71.3378 77.0697 64.777 81.2026 57.4268 82.9065Z" fill="white"/>
<path d="M69.3333 38.5731L50.6667 27.7997C50.464 27.6827 50.2341 27.6211 50 27.6211C49.766 27.6211 49.536 27.6827 49.3333 27.7997L30.6667 38.5731C30.4632 38.6905 30.2944 38.8597 30.1773 39.0634C30.0602 39.2671 29.9991 39.4981 30 39.7331V61.3331C29.9991 61.568 30.0602 61.799 30.1773 62.0027C30.2944 62.2064 30.4632 62.3756 30.6667 62.4931L49.3333 73.2664C49.536 73.3834 49.766 73.445 50 73.445C50.2341 73.445 50.464 73.3834 50.6667 73.2664L69.3333 62.4931C69.5368 62.3756 69.7056 62.2064 69.8227 62.0027C69.9398 61.799 70.0009 61.568 70 61.3331V39.7331C70.0009 39.4981 69.9398 39.2671 69.8227 39.0634C69.7056 38.8597 69.5368 38.6905 69.3333 38.5731ZM50 30.4931L66 39.7197L50 48.9731L34 39.7197L50 30.4931ZM32.6667 42.0397L48.6667 51.2797V69.7464L32.6667 60.5197V42.0397ZM67.3333 60.5197L51.3333 69.7464V51.2797L67.3333 42.0397V60.5197Z" fill="white"/>
</g>
<defs>
<linearGradient id="paint0_linear_2385_6451" x1="-20.7067" y1="120.707" x2="120.707" y2="-20.7067" gradientUnits="userSpaceOnUse">
<stop stop-color="#055F4E"/>
<stop offset="1" stop-color="#56C0A7"/>
</linearGradient>
<clipPath id="clip0_2385_6451">
<rect width="100" height="100" fill="white"/>
</clipPath>
</defs>
</svg>
