<svg width="100" height="100" viewBox="0 0 100 100" fill="none" xmlns="http://www.w3.org/2000/svg">
<g clip-path="url(#clip0_2385_6447)">
<path d="M100 0H0V100H100V0Z" fill="url(#paint0_linear_2385_6447)"/>
<path d="M66 83.3336H63.3333V64.947C63.2896 63.4982 63.0656 62.0605 62.6667 60.667H59.3333V58.0003H61.7067C61.1067 56.5203 60.3733 55.427 59.96 55.3337H56.6667V52.667H60C64.08 52.667 66.0267 62.5203 66.0267 64.947L66 83.3336ZM60.6667 83.3336H58V67.3337H60.6667V83.3336ZM42 83.3336H39.3333V72.667H42V83.3336ZM36.6667 71.3337H34V64.947C34 62.5203 36 52.667 40 52.667H43.3333V55.3337H40C39.52 55.427 38.8667 56.5203 38.2667 58.0003H52.5333V60.667H37.3333C36.9163 62.0582 36.6745 63.4959 36.6133 64.947L36.6667 71.3337ZM42 70.0003H39.3333V64.667H42V70.0003ZM58 60.667H55.2267V58.0003H58V60.667ZM55.3333 56.667H52.6667V54.0003H47.3333V56.667H44.6667V51.3337H38.3867C37.2243 51.3301 36.1106 50.8668 35.2887 50.0449C34.4668 49.223 34.0035 48.1093 34 46.947V21.0537C34.0035 19.8913 34.4668 18.7776 35.2887 17.9557C36.1106 17.1338 37.2243 16.6705 38.3867 16.667H50V19.3337H38.3867C38.1603 19.3319 37.9358 19.3752 37.7264 19.461C37.5169 19.5468 37.3266 19.6734 37.1665 19.8335C37.0064 19.9935 36.8798 20.1839 36.794 20.3933C36.7082 20.6028 36.6649 20.8273 36.6667 21.0537V46.947C36.6649 47.1734 36.7082 47.3978 36.794 47.6073C36.8798 47.8168 37.0064 48.0071 37.1665 48.1672C37.3266 48.3272 37.5169 48.4539 37.7264 48.5397C37.9358 48.6255 38.1603 48.6688 38.3867 48.667H61.6133C61.8397 48.6688 62.0642 48.6255 62.2736 48.5397C62.4831 48.4539 62.6734 48.3272 62.8335 48.1672C62.9936 48.0071 63.1202 47.8168 63.206 47.6073C63.2918 47.3978 63.3351 47.1734 63.3333 46.947V21.0537C63.3351 20.8273 63.2918 20.6028 63.206 20.3933C63.1202 20.1839 62.9936 19.9935 62.8335 19.8335C62.6734 19.6734 62.4831 19.5468 62.2736 19.461C62.0642 19.3752 61.8397 19.3319 61.6133 19.3337H58V16.667H61.6133C62.7757 16.6705 63.8894 17.1338 64.7113 17.9557C65.5332 18.7776 65.9965 19.8913 66 21.0537V46.947C65.9965 48.1093 65.5332 49.223 64.7113 50.0449C63.8894 50.8668 62.7757 51.3301 61.6133 51.3337H55.3333V56.667ZM50 42.0003C48.4178 42.0003 46.871 41.5311 45.5554 40.6521C44.2398 39.773 43.2145 38.5236 42.609 37.0618C42.0035 35.6 41.845 33.9914 42.1537 32.4396C42.4624 30.8878 43.2243 29.4623 44.3431 28.3435C45.462 27.2246 46.8874 26.4627 48.4393 26.154C49.9911 25.8454 51.5997 26.0038 53.0615 26.6093C54.5233 27.2148 55.7727 28.2402 56.6518 29.5558C57.5308 30.8714 58 32.4181 58 34.0003C58 36.1221 57.1571 38.1569 55.6569 39.6572C54.1566 41.1575 52.1217 42.0003 50 42.0003ZM50 28.667C48.9452 28.667 47.914 28.9798 47.037 29.5658C46.1599 30.1519 45.4763 30.9848 45.0726 31.9593C44.669 32.9339 44.5634 34.0062 44.7691 35.0408C44.9749 36.0754 45.4829 37.0257 46.2288 37.7716C46.9746 38.5174 47.925 39.0254 48.9595 39.2312C49.9941 39.437 51.0664 39.3313 52.041 38.9277C53.0155 38.524 53.8485 37.8404 54.4345 36.9634C55.0205 36.0863 55.3333 35.0552 55.3333 34.0003C55.3333 32.5858 54.7714 31.2293 53.7712 30.2291C52.771 29.2289 51.4145 28.667 50 28.667ZM55.3333 19.3337H52.6667V16.667H55.3333V19.3337ZM50 66.0003C49.6044 66.0003 49.2178 66.1176 48.8889 66.3374C48.56 66.5571 48.3036 66.8695 48.1522 67.235C48.0009 67.6004 47.9613 68.0025 48.0384 68.3905C48.1156 68.7785 48.3061 69.1348 48.5858 69.4145C48.8655 69.6942 49.2219 69.8847 49.6098 69.9619C49.9978 70.0391 50.3999 69.9995 50.7654 69.8481C51.1308 69.6967 51.4432 69.4404 51.6629 69.1115C51.8827 68.7826 52 68.3959 52 68.0003C52 67.4699 51.7893 66.9612 51.4142 66.5861C51.0391 66.211 50.5304 66.0003 50 66.0003ZM50 72.667C49.6044 72.667 49.2178 72.7843 48.8889 73.004C48.56 73.2238 48.3036 73.5362 48.1522 73.9016C48.0009 74.2671 47.9613 74.6692 48.0384 75.0572C48.1156 75.4451 48.3061 75.8015 48.5858 76.0812C48.8655 76.3609 49.2219 76.5514 49.6098 76.6286C49.9978 76.7057 50.3999 76.6661 50.7654 76.5147C51.1308 76.3634 51.4432 76.107 51.6629 75.7781C51.8827 75.4492 52 75.0625 52 74.667C52 74.1366 51.7893 73.6278 51.4142 73.2528C51.0391 72.8777 50.5304 72.667 50 72.667ZM50 79.3336C49.6044 79.3336 49.2178 79.4509 48.8889 79.6707C48.56 79.8905 48.3036 80.2028 48.1522 80.5683C48.0009 80.9337 47.9613 81.3359 48.0384 81.7238C48.1156 82.1118 48.3061 82.4682 48.5858 82.7479C48.8655 83.0276 49.2219 83.218 49.6098 83.2952C49.9978 83.3724 50.3999 83.3328 50.7654 83.1814C51.1308 83.03 51.4432 82.7737 51.6629 82.4448C51.8827 82.1159 52 81.7292 52 81.3336C52 80.8032 51.7893 80.2945 51.4142 79.9194C51.0391 79.5444 50.5304 79.3336 50 79.3336ZM50 32.0003C49.6044 32.0003 49.2178 32.1176 48.8889 32.3374C48.56 32.5571 48.3036 32.8695 48.1522 33.235C48.0009 33.6004 47.9613 34.0025 48.0384 34.3905C48.1156 34.7785 48.3061 35.1348 48.5858 35.4145C48.8655 35.6942 49.2219 35.8847 49.6098 35.9619C49.9978 36.0391 50.3999 35.9995 50.7654 35.8481C51.1308 35.6967 51.4432 35.4404 51.6629 35.1115C51.8827 34.7826 52 34.3959 52 34.0003C52 33.4699 51.7893 32.9612 51.4142 32.5861C51.0391 32.211 50.5304 32.0003 50 32.0003Z" fill="white"/>
</g>
<defs>
<linearGradient id="paint0_linear_2385_6447" x1="-20.7067" y1="120.711" x2="120.715" y2="-20.7107" gradientUnits="userSpaceOnUse">
<stop stop-color="#055F4E"/>
<stop offset="1" stop-color="#56C0A7"/>
</linearGradient>
<clipPath id="clip0_2385_6447">
<rect width="100" height="100" fill="white"/>
</clipPath>
</defs>
</svg>
