<svg width="100" height="100" viewBox="0 0 100 100" fill="none" xmlns="http://www.w3.org/2000/svg">
<g clip-path="url(#clip0_2385_6448)">
<path d="M100 0H0V100H100V0Z" fill="url(#paint0_linear_2385_6448)"/>
<path d="M72.6667 83.3336C71.1298 83.3339 69.64 82.8032 68.4495 81.8314C67.2589 80.8595 66.4407 79.5061 66.1333 78.0003H44.5334C44.2044 79.6205 43.2851 81.0606 41.954 82.0412C40.6229 83.0217 38.9749 83.4727 37.33 83.3066C35.6851 83.1404 34.1606 82.369 33.0525 81.1421C31.9444 79.9151 31.3317 78.3202 31.3334 76.6669C31.3584 74.9085 32.0773 73.2311 33.3334 72.0003L25.1867 56.4003C24.5848 56.5773 23.9607 56.6671 23.3334 56.6669C21.5652 56.6669 19.8696 55.9646 18.6193 54.7143C17.3691 53.4641 16.6667 51.7684 16.6667 50.0003C16.6667 48.2322 17.3691 46.5365 18.6193 45.2862C19.8696 44.036 21.5652 43.3336 23.3334 43.3336C23.9607 43.3334 24.5848 43.4232 25.1867 43.6003L33.3334 28.0669C32.3972 27.1385 31.7574 25.9533 31.4948 24.6612C31.2323 23.3691 31.3587 22.0281 31.8582 20.8079C32.3577 19.5877 33.2078 18.543 34.3011 17.8059C35.3943 17.0688 36.6815 16.6725 38 16.6669C39.5369 16.6666 41.0267 17.1973 42.2172 18.1692C43.4078 19.1411 44.226 20.4945 44.5334 22.0003H66.1333C66.434 20.5206 67.2281 19.1867 68.3857 18.2171C69.5432 17.2476 70.9956 16.6996 72.5051 16.6631C74.0146 16.6265 75.4919 17.1035 76.695 18.0159C77.8981 18.9284 78.7558 20.2222 79.1277 21.6856C79.4997 23.1491 79.3638 24.6954 78.7424 26.0716C78.1209 27.4477 77.0507 28.5722 75.7069 29.2608C74.3631 29.9494 72.8254 30.1615 71.3453 29.8622C69.8653 29.563 68.5307 28.7702 67.56 27.6136L53.3333 35.3336L54.5067 36.4936L52.6133 38.3869L50.8933 36.6536L39.3334 42.8669V46.0003H36.6667V44.3069L29.72 48.0669C29.72 48.2669 29.8267 48.4669 29.8667 48.6669H48.6667V51.3336H29.8667C29.8667 51.5336 29.7734 51.7336 29.72 51.9336L36.6667 55.6936V54.0003H39.3334V57.1336L50.7867 63.3203L52.52 61.5869L54.4133 63.4803L53.24 64.6536L67.56 72.3869C68.28 71.5271 69.2052 70.8628 70.2501 70.4555C71.2949 70.0482 72.4257 69.9111 73.5376 70.0568C74.6496 70.2025 75.7068 70.6264 76.6114 71.2892C77.516 71.9519 78.2389 72.8322 78.713 73.8485C79.1871 74.8648 79.3971 75.9843 79.3237 77.1033C79.2503 78.2224 78.8958 79.3048 78.293 80.2505C77.6902 81.1961 76.8586 81.9744 75.8751 82.5134C74.8916 83.0523 73.7881 83.3344 72.6667 83.3336ZM72.6667 72.6669C71.8756 72.6669 71.1022 72.9015 70.4444 73.3411C69.7866 73.7806 69.2739 74.4053 68.9712 75.1362C68.6684 75.8671 68.5892 76.6714 68.7435 77.4473C68.8979 78.2232 69.2788 78.936 69.8383 79.4954C70.3977 80.0548 71.1104 80.4357 71.8863 80.5901C72.6622 80.7444 73.4665 80.6652 74.1974 80.3625C74.9283 80.0597 75.553 79.547 75.9926 78.8892C76.4321 78.2314 76.6667 77.4581 76.6667 76.6669C76.6667 75.6061 76.2452 74.5887 75.4951 73.8385C74.745 73.0884 73.7275 72.6669 72.6667 72.6669ZM38 72.6669C37.2089 72.6669 36.4355 72.9015 35.7777 73.3411C35.1199 73.7806 34.6073 74.4053 34.3045 75.1362C34.0017 75.8671 33.9225 76.6714 34.0769 77.4473C34.2312 78.2232 34.6122 78.936 35.1716 79.4954C35.731 80.0548 36.4437 80.4357 37.2197 80.5901C37.9956 80.7444 38.7998 80.6652 39.5308 80.3625C40.2617 80.0597 40.8864 79.547 41.3259 78.8892C41.7654 78.2314 42 77.4581 42 76.6669C42 75.6061 41.5786 74.5887 40.8284 73.8385C40.0783 73.0884 39.0609 72.6669 38 72.6669ZM44.5334 75.3336H66.1333C66.1333 75.1336 66.2267 74.9336 66.28 74.7336L51.2667 66.6669L44 73.8403C44.2317 74.3171 44.4106 74.8179 44.5334 75.3336ZM39.3334 70.1336C40.4826 70.3681 41.5496 70.9016 42.4267 71.6803L48.8267 65.3336L39.3334 60.1603V70.1336ZM27.5467 55.1603L35.5467 70.4669C35.9045 70.3218 36.2749 70.2102 36.6534 70.1336V58.6669L28.4267 54.2269C28.1664 54.5676 27.8715 54.8804 27.5467 55.1603ZM23.3334 46.0003C22.5422 46.0003 21.7689 46.2349 21.1111 46.6744C20.4533 47.1139 19.9406 47.7386 19.6378 48.4695C19.3351 49.2005 19.2559 50.0047 19.4102 50.7806C19.5646 51.5566 19.9455 52.2693 20.5049 52.8287C21.0643 53.3881 21.7771 53.7691 22.553 53.9234C23.3289 54.0778 24.1332 53.9985 24.8641 53.6958C25.595 53.393 26.2197 52.8804 26.6592 52.2226C27.0988 51.5648 27.3334 50.7914 27.3334 50.0003C27.3334 48.9394 26.9119 47.922 26.1618 47.1719C25.4116 46.4217 24.3942 46.0003 23.3334 46.0003ZM27.5467 44.8403C27.8734 45.1027 28.1727 45.3975 28.44 45.7203L36.6667 41.3336V29.8669C36.2883 29.7903 35.9178 29.6787 35.56 29.5336L27.5467 44.8403ZM39.3334 29.8669V39.8403L48.8533 34.6669L42.44 28.2669C41.5678 29.0708 40.4943 29.6237 39.3334 29.8669ZM44 26.1336C46.08 28.2269 48.6267 30.7469 51.2533 33.3603L66.28 25.3336C66.28 25.1336 66.1733 24.9336 66.1333 24.7336H44.5334C44.4062 25.218 44.2274 25.6874 44 26.1336ZM72.6667 19.3336C71.8756 19.3336 71.1022 19.5682 70.4444 20.0077C69.7866 20.4473 69.2739 21.072 68.9712 21.8029C68.6684 22.5338 68.5892 23.3381 68.7435 24.114C68.8979 24.8899 69.2788 25.6026 69.8383 26.162C70.3977 26.7215 71.1104 27.1024 71.8863 27.2568C72.6622 27.4111 73.4665 27.3319 74.1974 27.0291C74.9283 26.7264 75.553 26.2137 75.9926 25.5559C76.4321 24.8981 76.6667 24.1247 76.6667 23.3336C76.6667 22.2727 76.2452 21.2553 75.4951 20.5052C74.745 19.755 73.7275 19.3336 72.6667 19.3336ZM38 19.3336C37.2089 19.3336 36.4355 19.5682 35.7777 20.0077C35.1199 20.4473 34.6073 21.072 34.3045 21.8029C34.0017 22.5338 33.9225 23.3381 34.0769 24.114C34.2312 24.8899 34.6122 25.6026 35.1716 26.162C35.731 26.7215 36.4437 27.1024 37.2197 27.2568C37.9956 27.4111 38.7998 27.3319 39.5308 27.0291C40.2617 26.7264 40.8864 26.2137 41.3259 25.5559C41.7654 24.8981 42 24.1247 42 23.3336C42 22.2727 41.5786 21.2553 40.8284 20.5052C40.0783 19.755 39.0609 19.3336 38 19.3336ZM70.3867 66.0003H64.28C63.9264 66.0003 63.5872 65.8598 63.3372 65.6098C63.0872 65.3597 62.9467 65.0206 62.9467 64.6669V62.1736C62.5648 62.0444 62.1909 61.8931 61.8267 61.7203L60.0667 63.4803C59.9427 63.6052 59.7953 63.7044 59.6328 63.7721C59.4703 63.8398 59.296 63.8747 59.12 63.8747C58.944 63.8747 58.7697 63.8398 58.6072 63.7721C58.4448 63.7044 58.2973 63.6052 58.1733 63.4803L53.8533 59.1603C53.7284 59.0363 53.6292 58.8889 53.5615 58.7264C53.4938 58.5639 53.459 58.3896 53.459 58.2136C53.459 58.0376 53.4938 57.8633 53.5615 57.7008C53.6292 57.5384 53.7284 57.3909 53.8533 57.2669L55.6133 55.5069C55.4405 55.1428 55.2892 54.7688 55.16 54.3869H52.6667C52.3131 54.3869 51.9739 54.2465 51.7239 53.9964C51.4738 53.7464 51.3333 53.4072 51.3333 53.0536V46.9469C51.3333 46.5933 51.4738 46.2542 51.7239 46.0041C51.9739 45.7541 52.3131 45.6136 52.6667 45.6136H55.16C55.2892 45.2318 55.4405 44.8578 55.6133 44.4936L53.8533 42.7336C53.7284 42.6097 53.6292 42.4622 53.5615 42.2997C53.4938 42.1372 53.459 41.963 53.459 41.7869C53.459 41.6109 53.4938 41.4367 53.5615 41.2742C53.6292 41.1117 53.7284 40.9642 53.8533 40.8403L58.1733 36.5203C58.2973 36.3953 58.4448 36.2961 58.6072 36.2284C58.7697 36.1607 58.944 36.1259 59.12 36.1259C59.296 36.1259 59.4703 36.1607 59.6328 36.2284C59.7953 36.2961 59.9427 36.3953 60.0667 36.5203L61.8267 38.2803C62.1909 38.1075 62.5648 37.9561 62.9467 37.8269V35.3336C62.9467 34.98 63.0872 34.6409 63.3372 34.3908C63.5872 34.1408 63.9264 34.0003 64.28 34.0003H70.3867C70.7403 34.0003 71.0794 34.1408 71.3295 34.3908C71.5795 34.6409 71.72 34.98 71.72 35.3336V37.8269C72.1019 37.9561 72.4758 38.1075 72.84 38.2803L74.6667 36.5203C74.7906 36.3953 74.9381 36.2961 75.1006 36.2284C75.2631 36.1607 75.4373 36.1259 75.6133 36.1259C75.7894 36.1259 75.9636 36.1607 76.1261 36.2284C76.2886 36.2961 76.4361 36.3953 76.56 36.5203L80.88 40.8403C81.005 40.9642 81.1042 41.1117 81.1719 41.2742C81.2396 41.4367 81.2744 41.6109 81.2744 41.7869C81.2744 41.963 81.2396 42.1372 81.1719 42.2997C81.1042 42.4622 81.005 42.6097 80.88 42.7336L79.12 44.4936C79.2928 44.8578 79.4442 45.2318 79.5733 45.6136H82C82.3536 45.6136 82.6928 45.7541 82.9428 46.0041C83.1929 46.2542 83.3333 46.5933 83.3333 46.9469V53.0536C83.3333 53.4072 83.1929 53.7464 82.9428 53.9964C82.6928 54.2465 82.3536 54.3869 82 54.3869H79.5067C79.3775 54.7688 79.2261 55.1428 79.0533 55.5069L80.8133 57.3336C80.9383 57.4576 81.0375 57.605 81.1052 57.7675C81.1729 57.93 81.2077 58.1043 81.2077 58.2803C81.2077 58.4563 81.1729 58.6306 81.1052 58.793C81.0375 58.9555 80.9383 59.103 80.8133 59.2269L76.4933 63.5469C76.3694 63.6719 76.2219 63.7711 76.0594 63.8388C75.897 63.9065 75.7227 63.9413 75.5467 63.9413C75.3707 63.9413 75.1964 63.9065 75.0339 63.8388C74.8714 63.7711 74.724 63.6719 74.6 63.5469L72.84 61.7869C72.4758 61.9597 72.1019 62.1111 71.72 62.2403V64.6669C71.72 65.0206 71.5795 65.3597 71.3295 65.6098C71.0794 65.8598 70.7403 66.0003 70.3867 66.0003ZM65.6133 63.3336H69.0533V61.2003C69.043 60.8993 69.1349 60.6036 69.3141 60.3615C69.4933 60.1194 69.7491 59.9451 70.04 59.8669C70.8753 59.6377 71.6775 59.3016 72.4267 58.8669C72.68 58.7227 72.9737 58.6655 73.2626 58.704C73.5516 58.7425 73.82 58.8747 74.0267 59.0803L75.5467 60.6003L77.9867 58.1603L76.4667 56.6403C76.2611 56.4336 76.1289 56.1652 76.0904 55.8762C76.0519 55.5873 76.1091 55.2936 76.2533 55.0403C76.688 54.2911 77.0241 53.4889 77.2533 52.6536C77.3315 52.3627 77.5058 52.1069 77.7479 51.9277C77.99 51.7485 78.2857 51.6566 78.5867 51.6669H80.72V48.2803H78.5333C78.2323 48.2906 77.9367 48.1987 77.6946 48.0195C77.4525 47.8404 77.2781 47.5845 77.2 47.2936C76.9707 46.4584 76.6346 45.6562 76.2 44.9069C76.0558 44.6536 75.9985 44.36 76.037 44.071C76.0756 43.782 76.2078 43.5136 76.4133 43.3069L77.9333 41.7869L75.4933 39.3469L73.9733 40.8669C73.7666 41.0725 73.4983 41.2047 73.2093 41.2432C72.9203 41.2818 72.6267 41.2245 72.3733 41.0803C71.6241 40.6457 70.8219 40.3095 69.9867 40.0803C69.6958 40.0021 69.4399 39.8278 69.2608 39.5857C69.0816 39.3436 68.9897 39.048 69 38.7469V36.6669H65.6133V38.8003C65.6237 39.1013 65.5317 39.3969 65.3526 39.639C65.1734 39.8812 64.9176 40.0555 64.6267 40.1336C63.7914 40.3629 62.9892 40.699 62.24 41.1336C61.9867 41.2779 61.693 41.3351 61.4041 41.2966C61.1151 41.258 60.8467 41.1259 60.64 40.9203L59.12 39.4003L56.68 41.8403L58.2 43.3603C58.4056 43.567 58.5378 43.8354 58.5763 44.1243C58.6148 44.4133 58.5576 44.7069 58.4133 44.9603C57.9787 45.7095 57.6426 46.5117 57.4133 47.3469C57.3352 47.6378 57.1609 47.8937 56.9188 48.0729C56.6767 48.252 56.381 48.3439 56.08 48.3336H54V51.7736H56.1333C56.4344 51.7633 56.73 51.8552 56.9721 52.0344C57.2142 52.2135 57.3885 52.4694 57.4667 52.7603C57.6959 53.5955 58.0321 54.3977 58.4667 55.1469C58.6109 55.4003 58.6682 55.6939 58.6296 55.9829C58.5911 56.2719 58.4589 56.5403 58.2533 56.7469L56.7333 58.2669L59.1733 60.7069L60.6933 59.1869C60.9 58.9814 61.1684 58.8492 61.4574 58.8107C61.7464 58.7721 62.04 58.8294 62.2934 58.9736C63.0426 59.4082 63.8447 59.7443 64.68 59.9736C64.9709 60.0517 65.2268 60.2261 65.4059 60.4682C65.5851 60.7103 65.677 61.0059 65.6667 61.3069L65.6133 63.3336ZM67.3333 56.8269C65.9832 56.8269 64.6633 56.4266 63.5407 55.6764C62.418 54.9263 61.543 53.8601 61.0263 52.6127C60.5096 51.3653 60.3744 49.9927 60.6379 48.6685C60.9013 47.3442 61.5514 46.1278 62.5062 45.1731C63.4609 44.2184 64.6773 43.5682 66.0015 43.3048C67.3258 43.0414 68.6984 43.1766 69.9458 43.6933C71.1932 44.21 72.2594 45.0849 73.0095 46.2076C73.7596 47.3302 74.16 48.6501 74.16 50.0003C74.16 51.8108 73.4408 53.5472 72.1605 54.8275C70.8803 56.1077 69.1439 56.8269 67.3333 56.8269ZM67.3333 45.8403C66.5106 45.8403 65.7063 46.0843 65.0222 46.5414C64.3381 46.9985 63.8049 47.6482 63.49 48.4083C63.1751 49.1685 63.0928 50.0049 63.2533 50.8119C63.4138 51.6188 63.81 52.3601 64.3918 52.9418C64.9736 53.5236 65.7148 53.9198 66.5218 54.0803C67.3287 54.2409 68.1652 54.1585 68.9253 53.8436C69.6855 53.5288 70.3352 52.9956 70.7923 52.3115C71.2494 51.6273 71.4933 50.8231 71.4933 50.0003C71.4933 48.897 71.0551 47.8389 70.2749 47.0587C69.4948 46.2786 68.4366 45.8403 67.3333 45.8403Z" fill="white"/>
</g>
<defs>
<linearGradient id="paint0_linear_2385_6448" x1="-20.7107" y1="120.715" x2="120.711" y2="-20.7067" gradientUnits="userSpaceOnUse">
<stop stop-color="#055F4E"/>
<stop offset="1" stop-color="#56C0A7"/>
</linearGradient>
<clipPath id="clip0_2385_6448">
<rect width="100" height="100" fill="white"/>
</clipPath>
</defs>
</svg>
