<svg width="100" height="100" viewBox="0 0 100 100" fill="none" xmlns="http://www.w3.org/2000/svg">
<g clip-path="url(#clip0_2385_6449)">
<path d="M100 0H0V100H100V0Z" fill="url(#paint0_linear_2385_6449)"/>
<path d="M22.0133 71.8929C21.4532 71.8975 20.8971 71.7981 20.3733 71.5995C17.7067 70.5595 16.5067 67.5995 16.9067 63.3729C16.9067 63.3729 16.9067 63.1329 17.08 61.4795C17.2413 60.4185 17.482 59.3712 17.8 58.3462L17.9067 58.0262H17.72C17.4924 57.9338 17.2948 57.7803 17.1489 57.5826C17.003 57.385 16.9146 57.1509 16.8933 56.9062C16.7989 55.4008 16.9066 53.8896 17.2133 52.4129V52.2395C17.3905 51.4322 17.6267 50.6389 17.92 49.8662C18.564 48.0923 19.7306 46.5553 21.266 45.458C22.8013 44.3607 24.6332 43.7545 26.52 43.7195C27.505 43.8152 28.4988 43.682 29.4239 43.3305C30.349 42.9789 31.1804 42.4185 31.8533 41.6929L34.04 37.8262C37.28 32.5729 45.9333 24.6262 67.68 29.8262C67.9405 29.8877 68.1764 30.0261 68.3571 30.2234C68.5379 30.4208 68.655 30.668 68.6933 30.9329H71.84H72.1067C73.4762 31.0107 74.8125 31.3848 76.0233 32.0294C77.2342 32.6739 78.2907 33.5736 79.12 34.6662C80.0048 35.7841 80.6566 37.068 81.0368 38.4421C81.4169 39.8161 81.5178 41.2525 81.3333 42.6662L80.16 51.7329C79.893 53.844 79.3921 55.919 78.6667 57.9195L77.8133 60.3195L76.5733 63.3195C76.4823 63.5475 76.33 63.7459 76.1333 63.8929V64.2795C76.2685 64.9052 76.262 65.5533 76.1144 66.1762C75.9667 66.799 75.6816 67.381 75.28 67.8795C74.8058 68.4423 74.2105 68.8905 73.5386 69.1907C72.8667 69.4909 72.1356 69.6352 71.4 69.6129H56.2C55.5443 69.6071 54.8976 69.46 54.304 69.1815C53.7103 68.9031 53.1837 68.5 52.76 67.9995C52.4025 67.6089 52.118 67.1573 51.92 66.6662C51.4987 67.4163 51.0028 68.1221 50.44 68.7729C49.6534 69.6662 46.84 72.5595 44 71.7195C40.3467 70.6395 39.0267 64.9329 40.9467 58.3862C42.8667 51.8395 47.04 47.7995 50.6933 48.8795C51.0766 48.9935 51.4407 49.1643 51.7733 49.3862L50.3333 51.6262C50.2128 51.5479 50.0829 51.4852 49.9467 51.4395C48.1333 50.9195 44.9867 54.1062 43.5067 59.1329C42.0267 64.1595 42.9333 68.5595 44.7467 69.0929C45.68 69.3595 47.3467 68.1862 48.44 66.9329C49.7452 65.3071 50.6864 63.4202 51.2 61.3995C51.8699 59.2449 52.0789 56.9735 51.8133 54.7329C51.781 54.5578 51.7834 54.378 51.8204 54.2038C51.8575 54.0297 51.9285 53.8645 52.0295 53.7178C52.1304 53.5711 52.2592 53.4457 52.4085 53.3487C52.5579 53.2518 52.7249 53.1853 52.9 53.1529C53.0751 53.1205 53.2549 53.1229 53.429 53.16C53.6032 53.197 53.7684 53.2681 53.9151 53.369C54.0618 53.4699 54.1872 53.5987 54.2841 53.7481C54.3811 53.8974 54.4476 54.0644 54.48 54.2395C54.7057 55.3241 54.8395 56.4258 54.88 57.5329L57.3333 56.7995C57.6933 58.1329 57.9867 59.3195 58.2267 60.3462C58.32 60.7595 58.4 61.1462 58.48 61.4795H61.3333C61.3271 61.4308 61.3271 61.3815 61.3333 61.3329C61.7357 60.5948 62.3293 59.9788 63.0519 59.5495C63.7745 59.1201 64.5995 58.8933 65.44 58.8929H71.0667C71.5213 58.896 71.9667 59.0215 72.3561 59.2561C72.7455 59.4907 73.0647 59.8258 73.28 60.2262C73.515 60.6313 73.6392 61.0912 73.64 61.5595H74.3867L75.2533 59.4395L76.0933 57.1062C76.7436 55.2626 77.1907 53.3535 77.4267 51.4129L78.6667 42.2662C78.8096 41.2081 78.7394 40.1322 78.46 39.1017C78.1806 38.0713 77.6978 37.1071 77.04 36.2662C76.431 35.4706 75.654 34.8192 74.7644 34.3582C73.8748 33.8973 72.8945 33.6383 71.8933 33.5995H71.6667H67.6667C66.6004 33.57 65.5425 33.7967 64.582 34.2607C63.6215 34.7248 62.7863 35.4125 62.1467 36.2662C61.9744 36.4884 61.7364 36.6505 61.4665 36.7293C61.1966 36.8081 60.9087 36.7995 60.644 36.7049C60.3792 36.6102 60.1512 36.4343 59.9924 36.2022C59.8337 35.9702 59.7523 35.6939 59.76 35.4129C59.8733 34.609 60.1537 33.8378 60.5831 33.1488C61.0125 32.4599 61.5815 31.8685 62.2533 31.4129C45.6667 28.7462 38.9333 34.9195 36.3333 39.1329L34.1067 43.1329C34.0683 43.2034 34.0237 43.2703 33.9733 43.3329C33.0714 44.366 31.9422 45.1758 30.6743 45.6987C29.4065 46.2216 28.0347 46.4432 26.6667 46.3462C25.3124 46.3742 23.9987 46.814 22.9006 47.6072C21.8026 48.4004 20.9722 49.5093 20.52 50.7862C20.2882 51.3997 20.0966 52.0277 19.9467 52.6662C19.9328 52.793 19.906 52.9181 19.8667 53.0395C19.8667 53.2929 19.7734 53.5329 19.7467 53.7729L20.36 53.2529C20.605 53.0413 20.9185 52.926 21.2422 52.9285C21.5659 52.9311 21.8776 53.0513 22.1191 53.2668C22.3607 53.4822 22.5156 53.7782 22.5551 54.0995C22.5945 54.4208 22.5157 54.7454 22.3333 55.0129C21.5085 56.3017 20.8626 57.6967 20.4133 59.1595C20.1381 60.0306 19.933 60.9224 19.8 61.8262L19.6267 63.6129C19.4667 65.3462 19.48 68.3595 21.4133 69.1062C22.68 69.5995 24.3333 68.5329 25.4133 67.3729C26.9644 65.6378 28.0998 63.5722 28.7333 61.3329C29.8133 57.9195 29.7867 54.4795 28.7333 52.5862L31.04 51.2529C32.52 53.7995 32.6267 57.9195 31.32 62.1329C30.5362 64.7558 29.1687 67.1672 27.32 69.1862C26.6603 69.968 25.8511 70.6102 24.9398 71.075C24.0285 71.5398 23.0336 71.8179 22.0133 71.8929ZM54.84 57.8929C54.8685 60.196 54.7035 62.4974 54.3467 64.7729C54.2997 65.0399 54.3137 65.3141 54.3876 65.575C54.4615 65.8359 54.5933 66.0767 54.7733 66.2795C54.9488 66.4872 55.1672 66.6543 55.4135 66.7694C55.6598 66.8845 55.9282 66.9448 56.2 66.9462H71.3867C71.7243 66.9652 72.062 66.9093 72.3755 66.7825C72.6889 66.6558 72.9705 66.4612 73.2 66.2129C73.3567 66.0013 73.4643 65.7576 73.515 65.4993C73.5658 65.241 73.5583 64.9746 73.4933 64.7195C73.4869 64.6486 73.4869 64.5772 73.4933 64.5062V64.1462H72C71.793 64.1528 71.5872 64.1111 71.3991 64.0243C71.211 63.9376 71.0457 63.8082 70.9163 63.6465C70.7869 63.4847 70.697 63.295 70.6537 63.0925C70.6103 62.8899 70.6148 62.6801 70.6667 62.4795L70.8667 61.7062C70.861 61.653 70.861 61.5994 70.8667 61.5462H65.48C65.1421 61.5472 64.8099 61.6332 64.514 61.7963C64.218 61.9594 63.9679 62.1944 63.7867 62.4795L63.6 63.1595C63.5219 63.4504 63.3476 63.7063 63.1054 63.8854C62.8633 64.0646 62.5677 64.1565 62.2667 64.1462H57.7067C57.388 64.2078 57.0578 64.1511 56.778 63.9866C56.4981 63.8222 56.2879 63.5613 56.1867 63.2529C56.0133 62.7195 55.8267 61.9195 55.6 60.9595C55.3733 59.9995 55.1467 58.9995 54.84 57.8929ZM22.3333 68.2395C20.7333 66.6395 20.3333 63.5462 21.3467 60.3329C22.5467 56.4929 25.3467 53.9062 27.8933 54.1729L27.6133 56.8395C26.5333 56.7195 24.7333 58.4662 23.8933 61.1462C23.1333 63.5729 23.4933 65.6395 24.2133 66.3462L22.3333 68.2395ZM45.56 67.0795C44.0533 65.4929 43.6933 62.4129 44.6267 59.2262C45.76 55.3729 48.3733 52.7595 50.88 53.0395L50.5867 55.7062C49.7467 55.5995 48 57.1862 47.1867 59.9995C46.4667 62.4529 46.8133 64.5462 47.4933 65.3329L45.56 67.0795ZM69.08 53.7462C68.3767 53.7507 67.6802 53.6084 67.035 53.3283C66.3898 53.0482 65.8103 52.6365 65.3333 52.1195C64.8506 51.5819 64.4908 50.9456 64.2789 50.2548C64.0671 49.564 64.0083 48.8353 64.1067 48.1195L65.0667 40.5462C65.1444 39.8981 65.3497 39.2717 65.6707 38.7033C65.9916 38.1349 66.4219 37.6356 66.9367 37.2342C67.4515 36.8329 68.0407 36.5374 68.6703 36.3648C69.2998 36.1922 69.9573 36.1459 70.6048 36.2286C71.2523 36.3113 71.8771 36.5214 72.443 36.8467C73.009 37.1719 73.505 37.606 73.9024 38.1239C74.2998 38.6417 74.5908 39.2331 74.7586 39.864C74.9264 40.4948 74.9676 41.1527 74.88 41.7995L73.92 49.3729C73.7705 50.5463 73.2054 51.6273 72.3272 52.4199C71.4491 53.2125 70.3159 53.6641 69.1333 53.6929L69.08 53.7462ZM69.9467 38.9462H69.88C69.3351 38.9553 68.8119 39.1616 68.4074 39.5268C68.0028 39.8921 67.7444 40.3916 67.68 40.9329L66.6667 48.5062C66.6276 48.8339 66.6585 49.1662 66.7574 49.481C66.8562 49.7959 67.0207 50.0862 67.24 50.3329C67.5295 50.6714 67.9118 50.9177 68.3398 51.0414C68.7677 51.1651 69.2225 51.1608 69.648 51.0289C70.0734 50.897 70.451 50.6433 70.7339 50.2993C71.0168 49.9552 71.1928 49.5358 71.24 49.0929L72.2133 41.5062C72.2513 41.1806 72.2198 40.8506 72.121 40.5381C72.0222 40.2255 71.8583 39.9375 71.64 39.6929C71.4272 39.4549 71.1661 39.2652 70.8741 39.1365C70.582 39.0077 70.2658 38.9428 69.9467 38.9462Z" fill="white"/>
<path d="M72.88 71.773C71.7866 71.773 70.92 71.773 70.92 71.773C70.6468 71.7661 70.3823 71.6754 70.1623 71.5131C69.9424 71.3509 69.7776 71.125 69.6903 70.866C69.603 70.607 69.5974 70.3275 69.6743 70.0652C69.7511 69.8029 69.9067 69.5706 70.12 69.3997L71.0133 68.693L71.36 69.1197H73.44C75.92 69.1197 77.44 68.2397 78.24 66.453C79.36 63.7864 78.48 59.7864 77.1333 56.813L79.5466 55.6797C81.1066 59.0264 82.2133 63.8797 80.7066 67.493C79.88 69.4264 77.96 71.7464 73.4666 71.773H72.88Z" fill="white"/>
<path d="M38.9334 53.7198L36.6267 52.3864C40.2934 46.0931 44.08 42.8398 47.8534 42.7598C49.1211 42.7893 50.3632 43.1233 51.4747 43.7336C52.5863 44.3439 53.5347 45.2126 54.24 46.2664L52 47.7064C51.5254 47.0466 50.9115 46.4992 50.2018 46.1029C49.4922 45.7066 48.7041 45.4711 47.8934 45.4131C45.1467 45.4931 42.0534 48.3598 38.9334 53.7198Z" fill="white"/>
<path d="M36.48 64.4531H28.2534V67.1198H36.48V64.4531Z" fill="white"/>
<path d="M68.5867 48.7063C67.8524 48.7089 67.134 48.4934 66.5224 48.0872C65.9108 47.6809 65.4336 47.1021 65.1514 46.4243C64.8692 45.7464 64.7947 45 64.9373 44.2798C65.0799 43.5595 65.4332 42.8978 65.9524 42.3786C66.4715 41.8594 67.1332 41.5061 67.8535 41.3635C68.5738 41.2209 69.3201 41.2955 69.998 41.5777C70.6758 41.8599 71.2546 42.337 71.6609 42.9486C72.0672 43.5602 72.2826 44.2787 72.28 45.0129C72.28 45.9925 71.8909 46.9319 71.1983 47.6245C70.5056 48.3172 69.5662 48.7063 68.5867 48.7063ZM68.5867 43.9729C68.3108 43.9729 68.0463 44.0825 67.8513 44.2776C67.6562 44.4726 67.5467 44.7371 67.5467 45.0129C67.5467 45.1489 67.5737 45.2835 67.6261 45.4089C67.6785 45.5344 67.7553 45.6482 67.8521 45.7437C67.9488 45.8392 68.0636 45.9145 68.1897 45.9653C68.3158 46.0161 68.4507 46.0414 68.5867 46.0396C68.722 46.0414 68.8563 46.0161 68.9817 45.9651C69.107 45.9142 69.2209 45.8386 69.3166 45.7429C69.4123 45.6472 69.4879 45.5333 69.5388 45.4079C69.5898 45.2826 69.6151 45.1483 69.6133 45.0129C69.6098 44.743 69.5001 44.4853 69.308 44.2956C69.1158 44.1059 68.8567 43.9996 68.5867 43.9996V43.9729Z" fill="white"/>
<path d="M42.3467 30.5596H22.3867V33.2262H42.3467V30.5596Z" fill="white"/>
<path d="M36.7734 35.3594H28.3334V38.026H36.7734V35.3594Z" fill="white"/>
<path d="M33.5067 39.5732H18.6133V42.2399H33.5067V39.5732Z" fill="white"/>
</g>
<defs>
<linearGradient id="paint0_linear_2385_6449" x1="-20.72" y1="120.72" x2="120.707" y2="-20.7067" gradientUnits="userSpaceOnUse">
<stop stop-color="#055F4E"/>
<stop offset="1" stop-color="#56C0A7"/>
</linearGradient>
<clipPath id="clip0_2385_6449">
<rect width="100" height="100" fill="white"/>
</clipPath>
</defs>
</svg>
