<svg width="100" height="100" viewBox="0 0 100 100" fill="none" xmlns="http://www.w3.org/2000/svg">
<g clip-path="url(#clip0_2385_6450)">
<path d="M100 0H0V100H100V0Z" fill="url(#paint0_linear_2385_6450)"/>
<path d="M80.9877 54.9319C80.8462 54.7543 80.6553 54.6227 80.4389 54.5538L76.7804 53.3953C77.0123 51.1489 76.9508 48.8819 76.5975 46.6514L80.1706 45.2977C80.3261 45.2391 80.4679 45.1494 80.5874 45.0341C80.707 44.9188 80.8017 44.7802 80.8657 44.627C80.9312 44.4748 80.9649 44.3109 80.9649 44.1453C80.9649 43.9796 80.9312 43.8157 80.8657 43.6636L76.1096 33.127C76.0482 32.9786 75.9582 32.8439 75.8445 32.7305C75.7309 32.617 75.5961 32.5271 75.4476 32.4659C75.2992 32.4048 75.1402 32.3735 74.9796 32.3739C74.8191 32.3743 74.6602 32.4065 74.5121 32.4684H74.4267L71.0365 34.2245C69.6181 32.4786 67.9782 30.9249 66.1584 29.6026L67.7316 26.1148C67.7966 25.9683 67.832 25.8104 67.8359 25.6501C67.8398 25.4899 67.8121 25.3305 67.7543 25.181C67.6965 25.0315 67.6099 24.8948 67.4993 24.7788C67.3886 24.6628 67.2563 24.5698 67.1096 24.505L56.7438 20.6514H54.9999C54.81 20.794 54.6659 20.989 54.5853 21.2123L53.3657 24.8709H52.8901V27.3099C53.3006 27.2817 53.7129 27.3229 54.1096 27.4319C54.3987 27.4773 54.6945 27.4173 54.943 27.2629C55.1915 27.1084 55.3762 26.8697 55.4633 26.5904L56.5365 23.2001L64.9389 26.4562L63.4755 29.6514C63.371 29.9088 63.3576 30.1942 63.4374 30.4604C63.5173 30.7265 63.6856 30.9574 63.9145 31.1148C66.1443 32.5855 68.1039 34.4296 69.7072 36.566C69.8788 36.8023 70.1295 36.9692 70.4137 37.0364C70.6979 37.1035 70.9968 37.0664 71.256 36.9319L74.4633 35.2855L78.1218 43.4562L74.8048 44.6758C74.5365 44.7794 74.3134 44.9746 74.1751 45.2267C74.0367 45.4789 73.992 45.7718 74.0487 46.0538C74.5727 48.6684 74.6469 51.3533 74.2682 53.9928C74.2195 54.2838 74.278 54.5825 74.4327 54.8336C74.5874 55.0847 74.8279 55.2713 75.1097 55.3587L78.4877 56.4197L75.2804 64.7977L72.0243 63.3953C71.761 63.2779 71.4647 63.2576 71.1878 63.338C70.911 63.4184 70.6716 63.5942 70.5121 63.8343C69.0212 66.0563 67.1659 68.0106 65.0243 69.6148C64.788 69.7864 64.6211 70.0371 64.5539 70.3213C64.4868 70.6055 64.5239 70.9044 64.6584 71.1636L66.3536 74.3099L58.1462 77.9684L56.9267 74.688C56.8146 74.4085 56.6031 74.1805 56.333 74.0476C56.0628 73.9148 55.753 73.8866 55.4633 73.9684C54.6284 74.1265 53.7858 74.2404 52.9389 74.3099V76.7489C53.5987 76.7259 54.2554 76.6484 54.9023 76.5172L56.256 80.0538C56.316 80.207 56.4063 80.3465 56.5216 80.4638C56.6368 80.5812 56.7746 80.674 56.9267 80.7367C57.0823 80.8056 57.2505 80.8412 57.4206 80.8412C57.5907 80.8412 57.759 80.8056 57.9145 80.7367L68.4755 76.0294C68.6332 75.9623 68.775 75.8626 68.8916 75.737C69.0082 75.6114 69.097 75.4626 69.1522 75.3004C69.2074 75.1381 69.2278 74.9661 69.2121 74.7954C69.1964 74.6247 69.1448 74.4593 69.0609 74.3099L67.317 70.944C69.0715 69.5272 70.6335 67.8874 71.9633 66.066L75.4389 67.6148C75.5879 67.6875 75.7501 67.7291 75.9157 67.737C76.0813 67.7449 76.2468 67.7189 76.402 67.6607C76.5573 67.6025 76.699 67.5132 76.8186 67.3984C76.9381 67.2836 77.033 67.1456 77.0975 66.9928L80.9877 56.7977V54.9319Z" fill="white"/>
<path d="M63.9146 50.4928C63.9031 47.3964 62.794 44.4043 60.7844 42.0486C58.7748 39.6929 55.9949 38.1262 52.939 37.627V40.066C55.3668 40.523 57.5587 41.8139 59.1358 43.7156C60.7129 45.6172 61.576 48.0101 61.576 50.4806C61.576 52.9511 60.7129 55.344 59.1358 57.2456C57.5587 59.1473 55.3668 60.4382 52.939 60.8952V63.3343C55.995 62.845 58.7772 61.2844 60.7881 58.9318C62.7989 56.5791 63.9072 53.5877 63.9146 50.4928Z" fill="white"/>
<path d="M51.1464 24.6634L43.8293 20.1634C43.644 20.0563 43.4337 20 43.2196 20C43.0055 20 42.7952 20.0563 42.6098 20.1634L27.9757 28.8219C27.784 28.921 27.6221 29.0692 27.5064 29.2513C27.3907 29.4334 27.3254 29.6429 27.3172 29.8585V38.517L20.683 42.0048C20.4778 42.1054 20.3049 42.2616 20.1842 42.4557C20.0634 42.6498 19.9996 42.8738 20.0001 43.1024V57.7366C19.9978 57.9384 20.0456 58.1376 20.1392 58.3164C20.2329 58.4952 20.3694 58.6479 20.5367 58.7609L27.3293 63.1878V71.1512C27.3268 71.3605 27.3783 71.5669 27.4786 71.7506C27.579 71.9343 27.725 72.089 27.9025 72.2L42.5367 80.639C42.7247 80.7818 42.9482 80.8704 43.183 80.8951C43.4019 80.895 43.6167 80.8361 43.805 80.7244L51.122 76.4317C51.3063 76.3253 51.4596 76.1725 51.5666 75.9885C51.6735 75.8045 51.7305 75.5957 51.7318 75.3829V25.7122C51.733 25.5017 51.6797 25.2945 51.5772 25.1107C51.4746 24.9269 51.3262 24.7728 51.1464 24.6634ZM49.2806 74.6634L43.183 78.2366L37.7074 75.078L44.5611 70.9683L43.3415 68.8829L35.3294 73.6878L29.7684 70.4927V63.2609L36.3294 59.4805L35.1098 57.3707L28.5489 61.1146L22.4513 57.017V51.2244L28.8659 47.5658L27.6464 45.4561L22.4513 48.4073V43.8219L28.5489 40.6634L34.6464 44.078V49.7731L27.7928 53.6878L29.0123 55.7731L35.8659 51.7853L41.9635 54.7975V61.7487L34.1708 66.2244L35.3903 68.3585L49.2806 60.1512V74.6634ZM44.4025 60.3219V53.578C44.4064 53.3533 44.3481 53.1318 44.234 52.9381C44.12 52.7445 43.9546 52.5861 43.7562 52.4805L37.0854 49.1268V43.5902L43.7806 39.8219C43.9689 39.716 44.1258 39.562 44.2351 39.3756C44.3444 39.1891 44.4021 38.977 44.4025 38.7609V29.1878H41.9635V38.017L35.8659 41.3829L29.7684 37.9683V30.0414L34.6464 27.1024V34.0658H37.0854V25.6634L43.183 22.1024L49.2806 25.8707V47.1024L45.0489 44.6634L43.8293 46.7731L49.2806 49.9195V57.5536L44.4025 60.3219Z" fill="white"/>
</g>
<defs>
<linearGradient id="paint0_linear_2385_6450" x1="0" y1="100" x2="100" y2="0" gradientUnits="userSpaceOnUse">
<stop stop-color="#055F4E"/>
<stop offset="1" stop-color="#56C0A7"/>
</linearGradient>
<clipPath id="clip0_2385_6450">
<rect width="100" height="100" fill="white"/>
</clipPath>
</defs>
</svg>
