<svg width="100" height="100" viewBox="0 0 100 100" fill="none" xmlns="http://www.w3.org/2000/svg">
<g clip-path="url(#clip0_2385_2205)">
<path d="M100 0H0V100H100V0Z" fill="url(#paint0_linear_2385_2205)"/>
<path d="M71.1068 78.2667C69.6176 78.2607 68.1765 77.7388 67.0288 76.7899C65.8811 75.8409 65.0977 74.5235 64.8121 73.062C64.5264 71.6005 64.7562 70.0851 65.4621 68.7738C66.1681 67.4626 67.3066 66.4366 68.684 65.8704C70.0613 65.3041 71.5924 65.2328 73.0164 65.6684C74.4405 66.1041 75.6695 67.0198 76.4944 68.2597C77.3192 69.4996 77.6889 70.987 77.5404 72.4688C77.392 73.9505 76.7345 75.3351 75.6801 76.3867C75.0792 76.9859 74.3659 77.4604 73.581 77.7831C72.7962 78.1057 71.9553 78.2701 71.1068 78.2667ZM71.1068 68.0133C70.0989 68.0133 69.1324 68.4137 68.4198 69.1263C67.7071 69.839 67.3068 70.8055 67.3068 71.8133C67.3082 72.3098 67.4079 72.801 67.6001 73.2587C67.7923 73.7164 68.0733 74.1315 68.4268 74.48C69.1377 75.1803 70.0955 75.5728 71.0934 75.5728C72.0913 75.5728 73.0492 75.1803 73.7601 74.48C74.4572 73.7674 74.8475 72.8102 74.8475 71.8133C74.8475 70.8165 74.4572 69.8592 73.7601 69.1467C73.0587 68.4335 72.1068 68.0221 71.1068 68V68.0133Z" fill="white"/>
<path d="M80.2001 56.5467C78.7038 56.5433 77.2549 56.0211 76.1005 55.0691C74.9461 54.1171 74.1576 52.7942 73.8693 51.3259C73.5811 49.8576 73.8109 48.3348 74.5196 47.017C75.2284 45.6992 76.3722 44.668 77.7562 44.099C79.1401 43.5301 80.6785 43.4588 82.1092 43.8971C83.5399 44.3354 84.7743 45.2563 85.602 46.5029C86.4297 47.7494 86.7995 49.2444 86.6485 50.7331C86.4974 52.2217 85.8347 53.6119 84.7734 54.6667C83.5566 55.872 81.9128 56.5477 80.2001 56.5467ZM80.2001 46.2801C79.5749 46.2778 78.9589 46.4297 78.4066 46.7225C77.8542 47.0152 77.3826 47.4397 77.0336 47.9583C76.6846 48.4769 76.4689 49.0736 76.4056 49.6955C76.3423 50.3174 76.4335 50.9453 76.671 51.5236C76.9085 52.1019 77.2849 52.6126 77.767 53.0106C78.2491 53.4085 78.8219 53.6814 79.4347 53.805C80.0475 53.9286 80.6813 53.8991 81.28 53.7192C81.8786 53.5392 82.4237 53.2144 82.8667 52.7734C83.577 52.0669 83.9795 51.1085 83.9867 50.1067C83.9797 49.1011 83.5771 48.1386 82.866 47.4274C82.1549 46.7163 81.1924 46.3137 80.1867 46.3067L80.2001 46.2801Z" fill="white"/>
<path d="M71.1067 33.3334C69.6107 33.333 68.161 32.814 67.0047 31.8646C65.8484 30.9153 65.0571 29.5944 64.7655 28.127C64.4739 26.6596 64.7002 25.1365 65.4057 23.8172C66.1112 22.4979 67.2523 21.4641 68.6346 20.8918C70.0169 20.3195 71.5549 20.2443 72.9864 20.6788C74.418 21.1134 75.6546 22.0308 76.4856 23.2749C77.3166 24.519 77.6905 26.0127 77.5436 27.5016C77.3967 28.9904 76.7381 30.3823 75.6801 31.44C75.0803 32.0417 74.3675 32.5187 73.5826 32.8436C72.7977 33.1686 71.9562 33.335 71.1067 33.3334ZM71.1067 23.0667C70.3556 23.0695 69.6221 23.2948 68.999 23.7142C68.3758 24.1336 67.8909 24.7283 67.6056 25.4231C67.3202 26.1179 67.2472 26.8817 67.3957 27.6181C67.5443 28.3544 67.9077 29.0301 68.4401 29.56C68.9706 30.0879 69.6453 30.4473 70.3793 30.5932C71.1134 30.7391 71.8742 30.665 72.5663 30.3802C73.2584 30.0954 73.851 29.6125 74.2697 28.9922C74.6885 28.3719 74.9147 27.6418 74.9201 26.8934C74.9219 26.3977 74.825 25.9066 74.635 25.4487C74.4449 24.9909 74.1657 24.5755 73.8134 24.2267C73.4588 23.8702 73.0369 23.5877 72.5723 23.3954C72.1077 23.2032 71.6096 23.105 71.1067 23.1067V23.0667Z" fill="white"/>
<path d="M37.1734 49.0667L32.64 44.5334L30.76 46.4134L33.0134 48.6801H26.0934C25.8425 47.5507 25.2926 46.5096 24.5014 45.6656C23.7101 44.8217 22.7065 44.2059 21.5956 43.8829C20.4847 43.5599 19.3074 43.5414 18.187 43.8294C17.0665 44.1174 16.0441 44.7014 15.2267 45.5201C14.0176 46.7323 13.3386 48.3746 13.3386 50.0867C13.3386 51.7989 14.0176 53.4412 15.2267 54.6534C16.0547 55.4792 17.0911 56.0649 18.2256 56.3484C19.3601 56.6318 20.5502 56.6023 21.6693 56.2631C22.7884 55.9238 23.7945 55.2874 24.5806 54.4217C25.3667 53.5559 25.9033 52.4933 26.1334 51.3467H33.0134L30.76 53.6001L32.6534 55.4801L37.1734 50.9467C37.4217 50.6969 37.5611 50.359 37.5611 50.0067C37.5611 49.6545 37.4217 49.3166 37.1734 49.0667ZM22.5067 52.7734C22.1756 53.198 21.7581 53.5474 21.2818 53.7984C20.8055 54.0495 20.2812 54.1964 19.7438 54.2295C19.2064 54.2626 18.6681 54.1812 18.1646 53.9906C17.6611 53.7999 17.2038 53.5045 16.8231 53.1237C16.4423 52.743 16.1469 52.2857 15.9562 51.7822C15.7656 51.2786 15.6841 50.7403 15.7173 50.2029C15.7504 49.6656 15.8973 49.1413 16.1484 48.665C16.3994 48.1887 16.7488 47.7712 17.1734 47.4401C17.886 46.743 18.8432 46.3526 19.84 46.3526C20.8369 46.3526 21.7941 46.743 22.5067 47.4401C23.2034 48.1545 23.5912 49.1143 23.5862 50.1122C23.5812 51.1101 23.1839 52.066 22.4801 52.7734H22.5067Z" fill="white"/>
<path d="M70.4 49.0666L70 48.68L65.8667 44.5333L64 46.4133L66.2533 48.68H58.2533C58.3948 45.0886 59.8132 41.6655 62.2533 39.0266C62.5017 38.7768 62.6411 38.4389 62.6411 38.0866C62.6411 37.7344 62.5017 37.3965 62.2533 37.1466C62.0035 36.8983 61.6656 36.7589 61.3133 36.7589C60.9611 36.7589 60.6232 36.8983 60.3733 37.1466C54.92 42.6 43.8133 42.5866 38.36 37.1466C38.1102 36.8983 37.7723 36.7589 37.42 36.7589C37.0678 36.7589 36.7298 36.8983 36.48 37.1466C36.2317 37.3965 36.0923 37.7344 36.0923 38.0866C36.0923 38.4389 36.2317 38.7768 36.48 39.0266C41.9333 44.48 41.9333 55.5866 36.48 61.04C36.2337 61.2883 36.0948 61.6235 36.0933 61.9733C36.0923 62.1488 36.126 62.3227 36.1923 62.4852C36.2587 62.6476 36.3564 62.7954 36.48 62.92C36.7298 63.1683 37.0678 63.3077 37.42 63.3077C37.7723 63.3077 38.1102 63.1683 38.36 62.92C43.8133 57.4666 54.92 57.4666 60.3733 62.92C60.6232 63.1683 60.9611 63.3077 61.3133 63.3077C61.6656 63.3077 62.0035 63.1683 62.2533 62.92C62.3769 62.7954 62.4747 62.6476 62.541 62.4852C62.6074 62.3227 62.641 62.1488 62.64 61.9733C62.6385 61.6235 62.4997 61.2883 62.2533 61.04C59.8114 58.3863 58.3935 54.9502 58.2533 51.3466H66.2533L64 53.6L65.88 55.48L70.4133 50.9466C70.6599 50.6951 70.7969 50.3561 70.7944 50.0039C70.7919 49.6516 70.6501 49.3147 70.4 49.0666ZM56.8667 57.5733C52.0074 55.6891 46.6193 55.6891 41.76 57.5733C43.6528 52.7248 43.6528 47.3418 41.76 42.4933C46.6176 44.3865 52.0091 44.3865 56.8667 42.4933C55 47.3513 55 52.7287 56.8667 57.5866V57.5733Z" fill="white"/>
<path d="M62.6667 23.8934C58.706 21.8723 54.3387 20.7754 49.8931 20.6854C45.4475 20.5953 41.0393 21.5143 37 23.3734L35.88 20.96C40.0944 19.004 44.6872 17.998 49.3333 18.0134C54.3867 18.0183 59.3671 19.22 63.8667 21.52L62.6667 23.8934Z" fill="white"/>
<path d="M21.12 41.4134L18.5734 40.6267C19.3797 37.9802 20.5319 35.4517 22 33.1067L24.2534 34.52C22.9125 36.6712 21.8591 38.9887 21.12 41.4134Z" fill="white"/>
<path d="M77.1467 40.4C76.5282 38.58 75.724 36.8285 74.7467 35.1733L77.04 33.84C78.1224 35.6456 79.016 37.5579 79.7067 39.5466L77.1467 40.4Z" fill="white"/>
<path d="M77.4133 65.16L75.12 63.8266C76.0861 62.1656 76.8898 60.4153 77.52 58.6L80.04 59.4666C79.3613 61.4492 78.4811 63.3569 77.4133 65.16Z" fill="white"/>
<path d="M49.3333 81.9867C44.401 82.0078 39.5326 80.8706 35.12 78.6667L36.3067 76.28C40.428 78.3086 44.9668 79.3447 49.5602 79.3053C54.1536 79.2659 58.674 78.1523 62.76 76.0533L64 78.44C59.4596 80.7634 54.4336 81.9788 49.3333 81.9867Z" fill="white"/>
<path d="M21.48 66.04C20.2593 63.9363 19.284 61.6994 18.5734 59.3733L21.12 58.5867C21.7758 60.7205 22.6704 62.7735 23.7867 64.7067L21.48 66.04Z" fill="white"/>
<path d="M28.8801 78.2667C27.3909 78.2607 25.9498 77.7388 24.8021 76.7899C23.6544 75.8409 22.8711 74.5236 22.5854 73.062C22.2998 71.6005 22.5295 70.0851 23.2354 68.7739C23.9414 67.4626 25.0799 66.4366 26.4573 65.8704C27.8347 65.3041 29.3657 65.2328 30.7897 65.6684C32.2138 66.1041 33.4429 67.0198 34.2677 68.2597C35.0926 69.4996 35.4622 70.987 35.3137 72.4688C35.1653 73.9506 34.5079 75.3351 33.4534 76.3867C32.2374 77.5932 30.5931 78.2691 28.8801 78.2667ZM28.8801 68.0133C27.9999 68.0101 27.146 68.3125 26.464 68.8688C25.782 69.4252 25.3143 70.201 25.1407 71.0638C24.9671 71.9267 25.0984 72.823 25.5122 73.5998C25.926 74.3766 26.5966 74.9857 27.4095 75.3231C28.2224 75.6604 29.1272 75.7052 29.9694 75.4496C30.8117 75.194 31.539 74.654 32.0274 73.9218C32.5158 73.1896 32.7348 72.3106 32.6472 71.4348C32.5595 70.5591 32.1706 69.7409 31.5467 69.12C30.8411 68.4085 29.8821 68.0058 28.8801 68V68.0133Z" fill="white"/>
<path d="M28.8801 33.3334C27.1655 33.3308 25.5214 32.6502 24.3067 31.44C23.2487 30.3823 22.5901 28.9904 22.4432 27.5016C22.2964 26.0127 22.6702 24.519 23.5012 23.2749C24.3322 22.0308 25.5688 21.1134 27.0004 20.6788C28.432 20.2443 29.9699 20.3195 31.3522 20.8918C32.7345 21.4641 33.8757 22.4979 34.5812 23.8172C35.2867 25.1365 35.5129 26.6596 35.2213 28.127C34.9298 29.5944 34.1384 30.9153 32.9821 31.8646C31.8258 32.814 30.3762 33.333 28.8801 33.3334ZM26.2134 29.56C26.744 30.0879 27.4186 30.4473 28.1527 30.5932C28.8867 30.7391 29.6475 30.665 30.3396 30.3802C31.0317 30.0954 31.6243 29.6125 32.0431 28.9922C32.4618 28.3719 32.6881 27.6418 32.6934 26.8934C32.6881 26.145 32.4618 25.4148 32.0431 24.7945C31.6243 24.1742 31.0317 23.6913 30.3396 23.4065C29.6475 23.1217 28.8867 23.0476 28.1527 23.1935C27.4186 23.3394 26.744 23.6988 26.2134 24.2267C25.5131 24.9376 25.1206 25.8955 25.1206 26.8934C25.1206 27.8913 25.5131 28.8491 26.2134 29.56Z" fill="white"/>
</g>
<defs>
<linearGradient id="paint0_linear_2385_2205" x1="-20.724" y1="120.707" x2="120.697" y2="-20.7147" gradientUnits="userSpaceOnUse">
<stop stop-color="#B0084D"/>
<stop offset="1" stop-color="#FF4F8B"/>
</linearGradient>
<clipPath id="clip0_2385_2205">
<rect width="100" height="100" fill="white"/>
</clipPath>
</defs>
</svg>
