<svg width="100" height="100" viewBox="0 0 100 100" fill="none" xmlns="http://www.w3.org/2000/svg">
<g clip-path="url(#clip0_2385_2197)">
<path d="M100 0H0V100H100V0Z" fill="url(#paint0_linear_2385_2197)"/>
<path d="M28.92 29.3334C32.4587 25.8011 36.8353 23.2238 41.6406 21.8423C46.4459 20.4607 51.523 20.3201 56.3974 21.4335C61.2719 22.5469 65.7844 24.8779 69.5133 28.2088C73.2422 31.5397 76.0657 35.7616 77.72 40.48L80.24 39.6C78.0332 33.2885 73.9186 27.8193 68.4661 23.9495C63.0136 20.0798 56.4928 18.001 49.8066 18.001C43.1204 18.001 36.5997 20.0798 31.1471 23.9495C25.6946 27.8193 21.5801 33.2885 19.3733 39.6L21.8933 40.48C23.3531 36.2764 25.7568 32.4632 28.92 29.3334Z" fill="white"/>
<path d="M70.6666 70.6666C65.1192 76.2065 57.5999 79.3181 49.76 79.3181C41.9201 79.3181 34.4007 76.2065 28.8533 70.6666C25.6858 67.509 23.2824 63.669 21.8266 59.44L19.3066 60.32C21.0986 65.4772 24.1708 70.0948 28.2353 73.74C32.2998 77.3851 37.2234 79.9384 42.5445 81.1604C47.8656 82.3824 53.4099 82.2331 58.6575 80.7265C63.9052 79.2199 68.6842 76.4053 72.5466 72.5466C76.0322 69.0848 78.6698 64.8637 80.2533 60.2133L77.7333 59.36C76.2769 63.6214 73.8589 67.4902 70.6666 70.6666Z" fill="white"/>
<path d="M26.8667 49.9466C26.8694 48.1446 26.2471 46.3974 25.1058 45.0029C23.9644 43.6083 22.3747 42.6529 20.6077 42.2993C18.8407 41.9457 17.0058 42.216 15.4157 43.064C13.8257 43.912 12.579 45.2853 11.8882 46.9497C11.1974 48.6141 11.1053 50.4665 11.6275 52.1912C12.1497 53.9159 13.254 55.4061 14.752 56.4077C16.2501 57.4093 18.0492 57.8603 19.8425 57.6839C21.6359 57.5074 23.3126 56.7144 24.5867 55.44C25.3117 54.721 25.8865 53.8652 26.278 52.9221C26.6694 51.9791 26.8695 50.9677 26.8667 49.9466ZM22.6667 53.56C21.6931 54.4837 20.4021 54.9987 19.06 54.9987C17.7179 54.9987 16.4269 54.4837 15.4533 53.56C14.7435 52.8459 14.2607 51.9379 14.0654 50.9502C13.8702 49.9625 13.9713 48.9391 14.356 48.0087C14.7407 47.0782 15.3919 46.2823 16.2276 45.7209C17.0634 45.1594 18.0465 44.8576 19.0533 44.8533C20.4073 44.8564 21.7055 45.3929 22.6667 46.3466C23.6217 47.304 24.1581 48.601 24.1581 49.9533C24.1581 51.3056 23.6217 52.6026 22.6667 53.56Z" fill="white"/>
<path d="M86.4 44.5467C85.3148 43.4613 83.9321 42.7221 82.4267 42.4225C80.9214 42.123 79.3611 42.2766 77.943 42.8639C76.525 43.4512 75.313 44.4458 74.4602 45.7219C73.6075 46.9981 73.1523 48.4985 73.1523 50.0333C73.1523 51.5682 73.6075 53.0685 74.4602 54.3447C75.313 55.6208 76.525 56.6155 77.943 57.2028C79.3611 57.79 80.9214 57.9436 82.4267 57.6441C83.9321 57.3446 85.3148 56.6054 86.4 55.52C87.855 54.0647 88.6723 52.0912 88.6723 50.0333C88.6723 47.9755 87.855 46.0019 86.4 44.5467ZM84.5066 53.6267C83.5516 54.5809 82.2567 55.1169 80.9066 55.1169C79.5566 55.1169 78.2617 54.5809 77.3066 53.6267C76.8325 53.1546 76.4564 52.5936 76.1997 51.9758C75.943 51.3581 75.8108 50.6956 75.8108 50.0267C75.8108 49.3577 75.943 48.6952 76.1997 48.0775C76.4564 47.4597 76.8325 46.8987 77.3066 46.4267C77.7742 45.931 78.3364 45.5342 78.9601 45.2598C79.5837 44.9853 80.2561 44.8388 80.9374 44.8289C81.6187 44.8189 82.295 44.9458 82.9264 45.202C83.5578 45.4581 84.1314 45.8383 84.6132 46.3201C85.0949 46.8019 85.4752 47.3755 85.7313 48.0069C85.9875 48.6383 86.1143 49.3146 86.1044 49.9959C86.0945 50.6772 85.948 51.3496 85.6735 51.9732C85.3991 52.5969 85.0023 53.1591 84.5066 53.6267Z" fill="white"/>
<path d="M38.9066 62.9067C44.3733 57.44 55.5066 57.44 60.9733 62.9067C61.2217 63.153 61.5569 63.2918 61.9066 63.2933C62.2603 63.2933 62.5994 63.1528 62.8494 62.9028C63.0995 62.6527 63.24 62.3136 63.24 61.96C63.241 61.7845 63.2074 61.6106 63.141 61.4481C63.0746 61.2857 62.9769 61.1379 62.8533 61.0133C60.1313 58.001 58.6957 54.0435 58.8533 49.9867C58.6971 45.93 60.1326 41.973 62.8533 38.96C63.1016 38.7102 63.241 38.3722 63.241 38.02C63.241 37.6677 63.1016 37.3298 62.8533 37.08C62.6035 36.8316 62.2656 36.6923 61.9133 36.6923C61.5611 36.6923 61.2231 36.8316 60.9733 37.08C55.5066 42.5333 44.3733 42.5333 38.9066 37.08C38.6568 36.8316 38.3189 36.6923 37.9666 36.6923C37.6144 36.6923 37.2765 36.8316 37.0266 37.08C36.7783 37.3298 36.6389 37.6677 36.6389 38.02C36.6389 38.3722 36.7783 38.7102 37.0266 38.96C39.7715 41.9626 41.2313 45.9208 41.0933 49.9867C41.2328 54.0527 39.7728 58.0115 37.0266 61.0133C36.9031 61.1379 36.8053 61.2857 36.7389 61.4481C36.6726 61.6106 36.639 61.7845 36.64 61.96C36.639 62.1355 36.6726 62.3094 36.7389 62.4719C36.8053 62.6343 36.9031 62.7821 37.0266 62.9067C37.2765 63.155 37.6144 63.2944 37.9666 63.2944C38.3189 63.2944 38.6568 63.155 38.9066 62.9067ZM42.36 42.4267C47.2334 44.3338 52.6466 44.3338 57.52 42.4267C55.6532 47.2984 55.6532 52.6882 57.52 57.56C52.6466 55.6529 47.2334 55.6529 42.36 57.56C44.2268 52.6882 44.2268 47.2984 42.36 42.4267Z" fill="white"/>
<path d="M66.1734 55.4534L70.6667 50.9067C70.9151 50.6569 71.0544 50.319 71.0544 49.9667C71.0544 49.6145 70.9151 49.2765 70.6667 49.0267L66.1467 44.5067L64.2534 46.3867L66.5334 48.6534H60.5067V51.32H66.5334L64.28 53.5734L66.1734 55.4534Z" fill="white"/>
<path d="M33.9467 55.48L38.4934 50.9334C38.7417 50.6836 38.8811 50.3456 38.8811 49.9934C38.8811 49.6411 38.7417 49.3032 38.4934 49.0534L33.9467 44.5067L32.0667 46.3867L34.3334 48.6534H28.5067V51.32H34.3334L32.0667 53.6L33.9467 55.48Z" fill="white"/>
</g>
<defs>
<linearGradient id="paint0_linear_2385_2197" x1="-24.2125" y1="116.817" x2="124.214" y2="-16.8263" gradientUnits="userSpaceOnUse">
<stop stop-color="#B0084D"/>
<stop offset="1" stop-color="#FF4F8B"/>
</linearGradient>
<clipPath id="clip0_2385_2197">
<rect width="100" height="100" fill="white"/>
</clipPath>
</defs>
</svg>
