<svg width="100" height="100" viewBox="0 0 100 100" fill="none" xmlns="http://www.w3.org/2000/svg">
<path d="M95 40.76H5C4.46957 40.76 3.96086 40.5493 3.58579 40.1742C3.21071 39.7991 3 39.2904 3 38.76V29.38H7V36.76H93V20.12H33.12V16.12H95C95.5304 16.12 96.0391 16.3307 96.4142 16.7058C96.7893 17.0809 97 17.5896 97 18.12V38.76C97 39.2904 96.7893 39.7991 96.4142 40.1742C96.0391 40.5493 95.5304 40.76 95 40.76Z" fill="#CD2264"/>
<path d="M95 68.88H91V64.88H93V62.88H97V66.88C97 67.4104 96.7893 67.9191 96.4142 68.2942C96.0391 68.6693 95.5304 68.88 95 68.88Z" fill="#CD2264"/>
<path d="M87.28 68.88H79.82V64.88H87.28V68.88ZM76.1 68.88H68.64V64.88H76.1V68.88ZM64.92 68.88H57.46V64.88H64.92V68.88ZM53.72 68.88H46.28V64.88H53.72V68.88ZM42.54 68.88H35.1V64.88H42.54V68.88ZM31.36 68.88H24V64.88H31.44L31.36 68.88ZM20.18 68.88H12.72V64.88H20.18V68.88Z" fill="#CD2264"/>
<path d="M9 68.88H5C4.46957 68.88 3.96086 68.6693 3.58579 68.2942C3.21071 67.9191 3 67.4104 3 66.88V62.88H7V64.88H9V68.88Z" fill="#CD2264"/>
<path d="M7 53.4H3V59.72H7V53.4Z" fill="#CD2264"/>
<path d="M7 50.26H3V46.26C3 45.7296 3.21071 45.2209 3.58579 44.8458C3.96086 44.4707 4.46957 44.26 5 44.26H9V48.26H7V50.26Z" fill="#CD2264"/>
<path d="M87.28 48.26H79.82V44.26H87.28V48.26ZM76.08 48.26H68.64V44.26H76L76.08 48.26ZM64.9 48.26H57.46V44.26H64.9V48.26ZM53.72 48.26H46.28V44.26H53.72V48.26ZM42.54 48.26H35.08V44.26H42.54V48.26ZM31.36 48.26H24V44.26H31.46L31.36 48.26ZM20.18 48.26H12.72V44.26H20.18V48.26Z" fill="#CD2264"/>
<path d="M97 50.26H93V48.26H91V44.26H95C95.5304 44.26 96.0391 44.4707 96.4142 44.8458C96.7893 45.2209 97 45.7296 97 46.26V50.26Z" fill="#CD2264"/>
<path d="M97 53.4H93V59.72H97V53.4Z" fill="#CD2264"/>
<path d="M95 97H91V93H93V91H97V95C97 95.5304 96.7893 96.0391 96.4142 96.4142C96.0391 96.7893 95.5304 97 95 97Z" fill="#CD2264"/>
<path d="M87.28 97H79.82V93H87.28V97ZM76.1 97H68.64V93H76.1V97ZM64.92 97H57.46V93H64.92V97ZM53.72 97H46.28V93H53.72V97ZM42.54 97H35.1V93H42.54V97ZM31.36 97H24V93H31.44L31.36 97ZM20.18 97H12.72V93H20.18V97Z" fill="#CD2264"/>
<path d="M9 97H5C4.46957 97 3.96086 96.7893 3.58579 96.4142C3.21071 96.0391 3 95.5304 3 95V91H7V93H9V97Z" fill="#CD2264"/>
<path d="M7 81.54H3V87.86H7V81.54Z" fill="#CD2264"/>
<path d="M7 78.38H3V74.38C3 73.8496 3.21071 73.3409 3.58579 72.9658C3.96086 72.5907 4.46957 72.38 5 72.38H9V76.38H7V78.38Z" fill="#CD2264"/>
<path d="M87.28 76.38H79.82V72.38H87.28V76.38ZM76.08 76.38H68.64V72.38H76L76.08 76.38ZM64.9 76.38H57.46V72.38H64.9V76.38ZM53.72 76.38H46.28V72.38H53.72V76.38ZM42.54 76.38H35.08V72.38H42.54V76.38ZM31.36 76.38H24V72.38H31.46L31.36 76.38ZM20.18 76.38H12.72V72.38H20.18V76.38Z" fill="#CD2264"/>
<path d="M97 78.38H93V76.38H91V72.38H95C95.5304 72.38 96.0391 72.5907 96.4142 72.9658C96.7893 73.3409 97 73.8496 97 74.38V78.38Z" fill="#CD2264"/>
<path d="M97 81.54H93V87.86H97V81.54Z" fill="#CD2264"/>
<path d="M35.64 35.1799V22.2H43.64V23.7399H37.56V27.7399H42.72V29.28H37.56V33.6799H43.72V35.1999L35.64 35.1799Z" fill="#CD2264"/>
<path d="M57 35.18V24.9599L53.34 31.86H51.6L48 24.9599V35.18H46.24V22.2H48.38L52.58 30.2L56.76 22.2H58.76V35.18H57Z" fill="#CD2264"/>
<path d="M70.2 35.18L69 31.74H63.64L62.48 35.18H60.48L65.28 22.2H67.28L72.08 35.18H70.2ZM64.2 30.3H68.56L66.32 24L64.2 30.3Z" fill="#CD2264"/>
<path d="M74 35.18V22.2H76V35.18H74Z" fill="#CD2264"/>
<path d="M79.16 35.18V22.2H81.16V33.62H87.2V35.18H79.16Z" fill="#CD2264"/>
<path d="M16.26 29.5C13.6357 29.5039 11.0692 28.7291 8.88559 27.2736C6.70193 25.8181 4.99927 23.7474 3.99317 21.3236C2.98708 18.8998 2.7228 16.232 3.2338 13.658C3.7448 11.0839 5.0081 8.7194 6.86375 6.86375C8.7194 5.0081 11.0839 3.7448 13.658 3.2338C16.232 2.7228 18.8998 2.98708 21.3236 3.99317C23.7474 4.99927 25.8181 6.70193 27.2736 8.88559C28.7291 11.0692 29.5039 13.6357 29.5 16.26C29.4947 19.7698 28.0981 23.1344 25.6162 25.6162C23.1344 28.0981 19.7698 29.4947 16.26 29.5ZM16.26 6.99997C14.4277 6.99601 12.6354 7.53574 11.11 8.55083C9.58452 9.56592 8.39454 11.0108 7.6906 12.7024C6.98666 14.3941 6.80043 16.2566 7.15547 18.0542C7.51051 19.8518 8.39085 21.5036 9.68509 22.8007C10.9793 24.0977 12.6293 24.9816 14.4261 25.3406C16.2229 25.6995 18.0858 25.5173 19.779 24.817C21.4722 24.1167 22.9196 22.9299 23.938 21.4066C24.9564 19.8834 25.5 18.0923 25.5 16.26C25.5 13.8075 24.5271 11.4552 22.7949 9.71922C21.0626 7.98321 18.7124 7.00527 16.26 6.99997Z" fill="#CD2264"/>
</svg>
