<svg width="100" height="100" viewBox="0 0 100 100" fill="none" xmlns="http://www.w3.org/2000/svg">
<path d="M95 34.1801H5C4.46957 34.1801 3.96086 33.9693 3.58579 33.5943C3.21071 33.2192 3 32.7105 3 32.1801V11.5601C3 11.0296 3.21071 10.5209 3.58579 10.1458C3.96086 9.77077 4.46957 9.56006 5 9.56006H95C95.5304 9.56006 96.0391 9.77077 96.4142 10.1458C96.7893 10.5209 97 11.0296 97 11.5601V32.1801C97 32.7105 96.7893 33.2192 96.4142 33.5943C96.0391 33.9693 95.5304 34.1801 95 34.1801ZM7 30.1801H93V13.5601H7V30.1801Z" fill="#CD2264"/>
<path d="M95 62.3199H91V58.3199H93V56.3199H97V60.3199C97 60.8504 96.7893 61.3591 96.4142 61.7342C96.0391 62.1092 95.5304 62.3199 95 62.3199Z" fill="#CD2264"/>
<path d="M87.28 62.3201H79.82V58.3201H87.28V62.3201ZM76.1 62.3201H68.64V58.3201H76.1V62.3201ZM64.92 62.3201H57.46V58.3201H64.92V62.3201ZM53.72 62.3201H46.28V58.3201H53.72V62.3201ZM42.54 62.3201H35.1V58.3201H42.54V62.3201ZM31.36 62.3201H24V58.3201H31.44L31.36 62.3201ZM20.18 62.3201H12.72V58.3201H20.18V62.3201Z" fill="#CD2264"/>
<path d="M9 62.3199H5C4.46957 62.3199 3.96086 62.1092 3.58579 61.7342C3.21071 61.3591 3 60.8504 3 60.3199V56.3199H7V58.3199H9V62.3199Z" fill="#CD2264"/>
<path d="M7 46.84H3V53.16H7V46.84Z" fill="#CD2264"/>
<path d="M7 43.6801H3V39.6801C3 39.1496 3.21071 38.6409 3.58579 38.2658C3.96086 37.8908 4.46957 37.6801 5 37.6801H9V41.6801H7V43.6801Z" fill="#CD2264"/>
<path d="M87.28 41.6801H79.82V37.6801H87.28V41.6801ZM76.08 41.6801H68.64V37.6801H76L76.08 41.6801ZM64.9 41.6801H57.46V37.6801H64.9V41.6801ZM53.72 41.6801H46.28V37.6801H53.72V41.6801ZM42.54 41.6801H35.08V37.6801H42.54V41.6801ZM31.36 41.6801H24V37.6801H31.46L31.36 41.6801ZM20.18 41.6801H12.72V37.6801H20.18V41.6801Z" fill="#CD2264"/>
<path d="M97 43.6801H93V41.6801H91V37.6801H95C95.5304 37.6801 96.0391 37.8908 96.4142 38.2658C96.7893 38.6409 97 39.1496 97 39.6801V43.6801Z" fill="#CD2264"/>
<path d="M97 46.84H93V53.16H97V46.84Z" fill="#CD2264"/>
<path d="M95 90.4399H91V86.4399H93V84.4399H97V88.4399C97 88.9704 96.7893 89.4791 96.4142 89.8541C96.0391 90.2292 95.5304 90.4399 95 90.4399Z" fill="#CD2264"/>
<path d="M87.28 90.4399H79.82V86.4399H87.28V90.4399ZM76.1 90.4399H68.64V86.4399H76.1V90.4399ZM64.92 90.4399H57.46V86.4399H64.92V90.4399ZM53.72 90.4399H46.28V86.4399H53.72V90.4399ZM42.54 90.4399H35.1V86.4399H42.54V90.4399ZM31.36 90.4399H24V86.4399H31.44L31.36 90.4399ZM20.18 90.4399H12.72V86.4399H20.18V90.4399Z" fill="#CD2264"/>
<path d="M9 90.4399H5C4.46957 90.4399 3.96086 90.2292 3.58579 89.8541C3.21071 89.4791 3 88.9704 3 88.4399V84.4399H7V86.4399H9V90.4399Z" fill="#CD2264"/>
<path d="M7 74.96H3V81.28H7V74.96Z" fill="#CD2264"/>
<path d="M7 71.8201H3V67.8201C3 67.2896 3.21071 66.7809 3.58579 66.4059C3.96086 66.0308 4.46957 65.8201 5 65.8201H9V69.8201H7V71.8201Z" fill="#CD2264"/>
<path d="M87.28 69.8201H79.82V65.8201H87.28V69.8201ZM76.08 69.8201H68.64V65.8201H76L76.08 69.8201ZM64.9 69.8201H57.46V65.8201H64.9V69.8201ZM53.72 69.8201H46.28V65.8201H53.72V69.8201ZM42.54 69.8201H35.08V65.8201H42.54V69.8201ZM31.36 69.8201H24V65.8201H31.46L31.36 69.8201ZM20.18 69.8201H12.72V65.8201H20.18V69.8201Z" fill="#CD2264"/>
<path d="M97 71.8201H93V69.8201H91V65.8201H95C95.5304 65.8201 96.0391 66.0308 96.4142 66.4059C96.7893 66.7809 97 67.2896 97 67.8201V71.8201Z" fill="#CD2264"/>
<path d="M97 74.96H93V81.28H97V74.96Z" fill="#CD2264"/>
</svg>
