<svg width="100" height="100" viewBox="0 0 100 100" fill="none" xmlns="http://www.w3.org/2000/svg">
<path d="M95 80.26H5C4.46957 80.26 3.96086 80.0493 3.58579 79.6742C3.21071 79.2991 3 78.7904 3 78.26V25.76C3 25.2296 3.21071 24.7209 3.58579 24.3458C3.96086 23.9707 4.46957 23.76 5 23.76H95C95.5304 23.76 96.0391 23.9707 96.4142 24.3458C96.7893 24.7209 97 25.2296 97 25.76V78.26C97 78.7904 96.7893 79.2991 96.4142 79.6742C96.0391 80.0493 95.5304 80.26 95 80.26ZM7 76.26H93V27.76H7V76.26Z" fill="#CD2264"/>
<path d="M40.76 31.38H36.76V72.62H40.76V31.38Z" fill="#CD2264"/>
<path d="M52 31.38H48V72.62H52V31.38Z" fill="#CD2264"/>
<path d="M63.26 31.38H59.26V72.62H63.26V31.38Z" fill="#CD2264"/>
<path d="M20 61.7599C19.7103 61.7615 19.4237 61.7001 19.16 61.5799C18.8128 61.4193 18.519 61.1624 18.3134 60.8398C18.1078 60.5173 17.9991 60.1425 18 59.7599V44.2399C17.9994 43.8596 18.1072 43.4869 18.3109 43.1657C18.5146 42.8445 18.8057 42.588 19.15 42.4263C19.4943 42.2647 19.8776 42.2045 20.2548 42.253C20.6321 42.3015 20.9877 42.4565 21.28 42.6999L30.6 50.4599C30.8265 50.6476 31.0088 50.8829 31.1339 51.1491C31.259 51.4153 31.3239 51.7058 31.3239 51.9999C31.3239 52.2941 31.259 52.5846 31.1339 52.8508C31.0088 53.117 30.8265 53.3523 30.6 53.5399L21.28 61.2999C20.9202 61.5981 20.4673 61.7609 20 61.7599ZM22 48.5199V55.4799L26.18 51.9999L22 48.5199Z" fill="#CD2264"/>
<path d="M79.9999 61.7599C79.5326 61.7609 79.0798 61.5981 78.7199 61.2999L69.3999 53.5399C69.1735 53.3523 68.9912 53.117 68.866 52.8508C68.7409 52.5846 68.676 52.2941 68.676 51.9999C68.676 51.7058 68.7409 51.4153 68.866 51.1491C68.9912 50.8829 69.1735 50.6476 69.3999 50.4599L78.7199 42.6999C79.0122 42.4565 79.3678 42.3015 79.7451 42.253C80.1224 42.2045 80.5056 42.2647 80.8499 42.4263C81.1942 42.588 81.4853 42.8445 81.689 43.1657C81.8927 43.4869 82.0006 43.8596 81.9999 44.2399V59.7599C82.0009 60.1425 81.8921 60.5173 81.6865 60.8398C81.4809 61.1624 81.1871 61.4193 80.8399 61.5799C80.5763 61.7001 80.2897 61.7615 79.9999 61.7599ZM73.8199 51.9999L77.9999 55.4799V48.5199L73.8199 51.9999Z" fill="#CD2264"/>
</svg>
