<svg width="100" height="100" viewBox="0 0 100 100" fill="none" xmlns="http://www.w3.org/2000/svg">
<g clip-path="url(#clip0_2385_2202)">
<path d="M100 0H0V100H100V0Z" fill="#CC2264"/>
<path d="M72.7733 67.8933V69C72.7733 68.8667 72.7733 68.7333 72.7733 68.6C72.7465 68.3652 72.7465 68.1281 72.7733 67.8933Z" fill="white"/>
<path d="M55.2668 41.3333L55.1334 41.5866C55.1868 41.5044 55.2273 41.4144 55.2534 41.3199L55.2668 41.3333Z" fill="white"/>
<path d="M43.7067 36.7066C42.52 36.7066 32.04 36.6133 32.04 40.5733C32.0354 40.8241 32.0807 41.0734 32.1733 41.3066C32.2123 41.4024 32.2568 41.4959 32.3067 41.5866L39.56 57.5866V65.8666C39.56 66.7066 39.9067 67.1999 40.64 67.1999H40.9867C42.6629 66.7612 44.2205 65.9551 45.5467 64.8399L46.44 64.2133C46.6302 64.0944 46.7874 63.9294 46.8969 63.7336C47.0065 63.5379 47.0649 63.3176 47.0667 63.0933V57.6266L55.1333 41.6266C55.1867 41.5444 55.2272 41.4544 55.2533 41.3599C55.3459 41.1267 55.3912 40.8775 55.3867 40.6266C55.3867 36.6133 44.9067 36.7066 43.7067 36.7066ZM43.7067 39.1599C48.4133 39.1599 51.44 39.9866 52.4533 40.5733C51.44 41.1599 48.4533 41.9866 43.7067 41.9866C38.96 41.9866 35.9867 41.1599 34.9733 40.5733C36 39.9999 39 39.1599 43.7067 39.1599ZM44.68 56.4933C44.68 56.6799 44.68 57.0133 44.68 57.3599V62.5733L44.16 62.8933C43.4 63.3333 42.7333 63.6399 41.9733 64.0399V57.3333C41.9701 57.1505 41.934 56.9699 41.8667 56.7999L36.1867 43.8133C38.6555 44.3633 41.1773 44.6405 43.7067 44.6399C46.1625 44.6381 48.6115 44.3789 51.0133 43.8666L44.68 56.4933Z" fill="white"/>
<path d="M68 73.56C62.7808 77.3376 56.4962 79.3593 50.0534 79.3333C35.5467 79.3333 23.1734 69.9067 20.2667 56C21.5759 55.9377 22.8288 55.4494 23.8349 54.6094C24.841 53.7694 25.5451 52.6237 25.84 51.3467H32.64V48.8267H25.8667C25.6095 47.5156 24.9212 46.3282 23.9112 45.4536C22.9012 44.5789 21.6277 44.0673 20.2934 44C21.482 39.1794 23.8234 34.7194 27.1162 31.0034C30.4091 27.2874 34.5549 24.4265 39.1975 22.6665C43.8402 20.9065 48.8407 20.3 53.7694 20.8993C58.6982 21.4985 63.4077 23.2855 67.4934 26.1067L69.0134 24C64.4911 20.8753 59.2662 18.9174 53.8041 18.3008C48.342 17.6841 42.8122 18.4278 37.7071 20.4656C32.6019 22.5035 28.08 25.7721 24.544 29.9806C21.0079 34.1891 18.5675 39.2067 17.44 44.5867C16.406 45.0657 15.5306 45.8305 14.917 46.7909C14.3035 47.7512 13.9775 48.8671 13.9775 50.0067C13.9775 51.1463 14.3035 52.2621 14.917 53.2225C15.5306 54.1828 16.406 54.9476 17.44 55.4267C18.9939 62.9296 23.0852 69.6681 29.0252 74.508C34.9652 79.3479 42.3912 81.9937 50.0534 82C57.0342 82.0138 63.8399 79.8153 69.4934 75.72L68 73.56ZM16.6667 50C16.6608 49.1811 16.9565 48.3886 17.4976 47.7738C18.0386 47.159 18.787 46.7649 19.6 46.6667H20C20.6599 46.664 21.3056 46.8573 21.8556 47.2219C22.4055 47.5866 22.8348 48.1063 23.0891 48.7151C23.3435 49.324 23.4114 49.9946 23.2843 50.6421C23.1572 51.2896 22.8407 51.8848 22.3751 52.3523C21.9095 52.8198 21.3156 53.1386 20.6686 53.2683C20.0216 53.398 19.3507 53.3327 18.7409 53.0809C18.131 52.829 17.6096 52.4017 17.2427 51.8533C16.8759 51.3048 16.68 50.6598 16.68 50H16.6667Z" fill="white"/>
<path d="M80 56.0001C81.1337 56.0008 82.2444 55.6803 83.2035 55.0757C84.1625 54.4711 84.9307 53.6072 85.4189 52.584C85.9071 51.5608 86.0955 50.4202 85.9622 49.2944C85.8288 48.1685 85.3792 47.1035 84.6655 46.2227C83.9517 45.3418 83.003 44.6812 81.9293 44.3174C80.8555 43.9536 79.7007 43.9014 78.5985 44.167C77.4963 44.4325 76.4919 45.0049 75.7017 45.8178C74.9114 46.6307 74.3676 47.6508 74.1333 48.7601H67.2V32.2667H70.8C70.9948 33.7519 71.7381 35.1105 72.8838 36.0755C74.0295 37.0404 75.4946 37.5419 76.9913 37.4815C78.488 37.421 79.9079 36.8028 80.972 35.7486C82.0361 34.6943 82.6673 33.2802 82.7416 31.7841C82.816 30.2881 82.328 28.8183 81.3737 27.6637C80.4194 26.5092 79.0678 25.7534 77.5844 25.5448C76.1011 25.3362 74.5935 25.69 73.3578 26.5367C72.1221 27.3833 71.2478 28.6615 70.9067 30.1201L66 30.0534C65.8312 30.0175 65.6564 30.0215 65.4894 30.0652C65.3225 30.1089 65.168 30.191 65.0385 30.305C64.9089 30.419 64.8078 30.5617 64.7433 30.7218C64.6787 30.8818 64.6525 31.0547 64.6667 31.2267V48.7201H54.4133V51.1867H64.6667V68.6267C64.6667 68.9804 64.8071 69.3195 65.0572 69.5695C65.3072 69.8196 65.6464 69.9601 66 69.9601H70.1867C70.4794 71.4196 71.3043 72.7183 72.5011 73.6036C73.6979 74.489 75.181 74.8978 76.6624 74.7507C78.1437 74.6036 79.5175 73.9111 80.5168 72.8076C81.5161 71.7042 82.0695 70.2687 82.0695 68.7801C82.0695 67.2914 81.5161 65.8559 80.5168 64.7525C79.5175 63.6491 78.1437 62.9565 76.6624 62.8094C75.181 62.6623 73.6979 63.0712 72.5011 63.9565C71.3043 64.8419 70.4794 66.1405 70.1867 67.6001H67.28L67.2133 51.1734H74.1333C74.4064 52.5302 75.1392 53.7512 76.2079 54.6305C77.2767 55.5098 78.616 55.9935 80 56.0001ZM80 46.6667C80.6593 46.6667 81.3037 46.8622 81.8519 47.2285C82.4001 47.5948 82.8273 48.1154 83.0796 48.7245C83.3319 49.3335 83.3979 50.0038 83.2693 50.6504C83.1407 51.297 82.8232 51.8909 82.357 52.3571C81.8908 52.8233 81.2969 53.1407 80.6503 53.2693C80.0037 53.398 79.3335 53.332 78.7244 53.0797C78.1153 52.8274 77.5947 52.4001 77.2284 51.852C76.8622 51.3038 76.6667 50.6593 76.6667 50.0001C76.6667 49.116 77.0178 48.2682 77.643 47.643C78.2681 47.0179 79.1159 46.6667 80 46.6667ZM76.6667 28.1201C77.3239 28.1227 77.9655 28.3204 78.5102 28.688C79.055 29.0556 79.4784 29.5766 79.7269 30.185C79.9753 30.7934 80.0376 31.4619 79.9058 32.1058C79.774 32.7496 79.4541 33.3399 78.9866 33.8018C78.5191 34.2636 77.925 34.5764 77.2796 34.7004C76.6342 34.8244 75.9666 34.7541 75.3612 34.4983C74.7558 34.2425 74.2399 33.8129 73.8789 33.2637C73.5179 32.7145 73.3281 32.0706 73.3333 31.4134C73.3333 30.9752 73.4201 30.5412 73.5886 30.1367C73.7571 29.7321 74.004 29.365 74.3151 29.0563C74.6263 28.7477 74.9954 28.5037 75.4013 28.3384C75.8072 28.1731 76.2418 28.0899 76.68 28.0934L76.6667 28.1201ZM76 65.3334C76.6422 65.3306 77.2716 65.5135 77.8124 65.8599C78.3532 66.2064 78.7823 66.7017 79.0483 67.2863C79.3143 67.8708 79.4057 68.5198 79.3116 69.1551C79.2175 69.7904 78.9419 70.385 78.5179 70.8674C78.0939 71.3498 77.5395 71.6994 76.9215 71.8742C76.3035 72.049 75.6482 72.0415 75.0344 71.8527C74.4205 71.6639 73.8742 71.3018 73.4613 70.8099C73.0484 70.3181 72.7863 69.7174 72.7067 69.0801C72.7067 68.9467 72.7067 68.8134 72.7067 68.6801C72.7062 68.4422 72.733 68.2051 72.7867 67.9734C72.946 67.2354 73.3501 66.573 73.9335 66.0937C74.5168 65.6144 75.2451 65.3465 76 65.3334Z" fill="white"/>
</g>
<defs>
<clipPath id="clip0_2385_2202">
<rect width="100" height="100" fill="white"/>
</clipPath>
</defs>
</svg>
