<svg width="100" height="100" viewBox="0 0 100 100" fill="none" xmlns="http://www.w3.org/2000/svg">
<path d="M30.32 97H6C5.46957 97 4.96086 96.7893 4.58579 96.4142C4.21071 96.0391 4 95.5304 4 95V5C4 4.46957 4.21071 3.96086 4.58579 3.58579C4.96086 3.21071 5.46957 3 6 3H30.32C30.8504 3 31.3591 3.21071 31.7342 3.58579C32.1093 3.96086 32.32 4.46957 32.32 5V95C32.32 95.5304 32.1093 96.0391 31.7342 96.4142C31.3591 96.7893 30.8504 97 30.32 97ZM8 93H28.32V7H8V93Z" fill="#CD2264"/>
<path d="M64.18 9H60.1801V7H58.1801V3H62.1801C62.7105 3 63.2192 3.21071 63.5943 3.58579C63.9693 3.96086 64.18 4.46957 64.18 5V9Z" fill="#CD2264"/>
<path d="M64.1799 87.28H60.1799V79.82H64.1799V87.28ZM64.1799 76.1H60.1799V68.64H64.1799V76.1ZM64.1799 64.9H60.1799V57.46H64.1799V64.9ZM64.1799 53.72H60.1799V46.28H64.1799V53.72ZM64.1799 42.54H60.1799V35.1H64.1799V42.54ZM64.1799 31.36H60.1799V24H64.1799V31.36ZM64.1799 20.18H60.1799V12.72H64.1799V20.18Z" fill="#CD2264"/>
<path d="M62.1801 97H58.1801V93H60.1801V91H64.18V95C64.18 95.2626 64.1283 95.5227 64.0278 95.7654C63.9273 96.008 63.78 96.2285 63.5943 96.4142C63.4085 96.5999 63.1881 96.7472 62.9454 96.8478C62.7028 96.9483 62.4427 97 62.1801 97Z" fill="#CD2264"/>
<path d="M54.08 93H45.9V97H54.08V93Z" fill="#CD2264"/>
<path d="M41.8199 97H37.8199C37.2895 97 36.7808 96.7893 36.4057 96.4142C36.0307 96.0391 35.8199 95.5304 35.8199 95V91H39.8199V93H41.8199V97Z" fill="#CD2264"/>
<path d="M39.8199 87.28H35.8199V79.82H39.8199V87.28ZM39.8199 76.1H35.8199V68.64H39.8199V76.1ZM39.8199 64.9H35.8199V57.46H39.8199V64.9ZM39.8199 53.72H35.8199V46.28H39.8199V53.72ZM39.8199 42.54H35.8199V35.1H39.8199V42.54ZM39.8199 31.36H35.8199V24H39.8199V31.36ZM39.8199 20.18H35.8199V12.72H39.8199V20.18Z" fill="#CD2264"/>
<path d="M39.8199 9H35.8199V5C35.8199 4.46957 36.0307 3.96086 36.4057 3.58579C36.7808 3.21071 37.2895 3 37.8199 3H41.8199V7H39.8199V9Z" fill="#CD2264"/>
<path d="M54.08 3H45.9V7H54.08V3Z" fill="#CD2264"/>
<path d="M96 9H92V7H90V3H94C94.5304 3 95.0391 3.21071 95.4142 3.58579C95.7893 3.96086 96 4.46957 96 5V9Z" fill="#CD2264"/>
<path d="M96 87.28H92V79.82H96V87.28ZM96 76.1H92V68.64H96V76.1ZM96 64.9H92V57.46H96V64.9ZM96 53.72H92V46.28H96V53.72ZM96 42.54H92V35.1H96V42.54ZM96 31.36H92V24H96V31.36ZM96 20.18H92V12.72H96V20.18Z" fill="#CD2264"/>
<path d="M94 97H90V93H92V91H96V95C96 95.5304 95.7893 96.0391 95.4142 96.4142C95.0391 96.7893 94.5304 97 94 97Z" fill="#CD2264"/>
<path d="M85.96 93H77.78V97H85.96V93Z" fill="#CD2264"/>
<path d="M73.6799 97H69.6799C69.1495 97 68.6408 96.7893 68.2657 96.4142C67.8906 96.0391 67.6799 95.5304 67.6799 95V91H71.6799V93H73.6799V97Z" fill="#CD2264"/>
<path d="M71.6799 87.28H67.6799V79.82H71.6799V87.28ZM71.6799 76.1H67.6799V68.64H71.6799V76.1ZM71.6799 64.9H67.6799V57.46H71.6799V64.9ZM71.6799 53.72H67.6799V46.28H71.6799V53.72ZM71.6799 42.54H67.6799V35.1H71.6799V42.54ZM71.6799 31.36H67.6799V24H71.6799V31.36ZM71.6799 20.18H67.6799V12.72H71.6799V20.18Z" fill="#CD2264"/>
<path d="M71.6799 9H67.6799V5C67.6799 4.46957 67.8906 3.96086 68.2657 3.58579C68.6408 3.21071 69.1495 3 69.6799 3H73.6799V7H71.6799V9Z" fill="#CD2264"/>
<path d="M85.96 3H77.78V7H85.96V3Z" fill="#CD2264"/>
</svg>
