<svg width="100" height="100" viewBox="0 0 100 100" fill="none" xmlns="http://www.w3.org/2000/svg">
<path d="M95 40.76H5C4.46957 40.76 3.96086 40.5493 3.58579 40.1742C3.21071 39.7991 3 39.2904 3 38.76V29.38H7V36.76H93V20.12H33.12V16.12H95C95.5304 16.12 96.0391 16.3307 96.4142 16.7058C96.7893 17.0809 97 17.5896 97 18.12V38.76C97 39.2904 96.7893 39.7991 96.4142 40.1742C96.0391 40.5493 95.5304 40.76 95 40.76Z" fill="#CD2264"/>
<path d="M95 68.88H91V64.88H93V62.88H97V66.88C97 67.4104 96.7893 67.9191 96.4142 68.2942C96.0391 68.6693 95.5304 68.88 95 68.88Z" fill="#CD2264"/>
<path d="M87.28 68.88H79.82V64.88H87.28V68.88ZM76.1 68.88H68.64V64.88H76.1V68.88ZM64.9 68.88H57.46V64.88H64.9V68.88ZM53.72 68.88H46.28V64.88H53.72V68.88ZM42.54 68.88H35.1V64.88H42.54V68.88ZM31.36 68.88H24V64.88H31.46L31.36 68.88ZM20.18 68.88H12.72V64.88H20.18V68.88Z" fill="#CD2264"/>
<path d="M9 68.88H5C4.46957 68.88 3.96086 68.6693 3.58579 68.2942C3.21071 67.9191 3 67.4104 3 66.88V62.88H7V64.88H9V68.88Z" fill="#CD2264"/>
<path d="M7 53.4H3V59.72H7V53.4Z" fill="#CD2264"/>
<path d="M7 50.26H3V46.26C3 45.7296 3.21071 45.2209 3.58579 44.8458C3.96086 44.4707 4.46957 44.26 5 44.26H9V48.26H7V50.26Z" fill="#CD2264"/>
<path d="M87.28 48.26H79.82V44.26H87.28V48.26ZM76.1 48.26H68.64V44.26H76.1V48.26ZM64.9 48.26H57.46V44.26H64.9V48.26ZM53.72 48.26H46.28V44.26H53.72V48.26ZM42.54 48.26H35.1V44.26H42.54V48.26ZM31.36 48.26H24V44.26H31.46L31.36 48.26ZM20.18 48.26H12.72V44.26H20.18V48.26Z" fill="#CD2264"/>
<path d="M97 50.26H93V48.26H91V44.26H95C95.5304 44.26 96.0391 44.4707 96.4142 44.8458C96.7893 45.2209 97 45.7296 97 46.26V50.26Z" fill="#CD2264"/>
<path d="M97 53.4H93V59.72H97V53.4Z" fill="#CD2264"/>
<path d="M95 97H91V93H93V91H97V95C97 95.5304 96.7893 96.0391 96.4142 96.4142C96.0391 96.7893 95.5304 97 95 97Z" fill="#CD2264"/>
<path d="M87.28 97H79.82V93H87.28V97ZM76.1 97H68.64V93H76.1V97ZM64.9 97H57.46V93H64.9V97ZM53.72 97H46.28V93H53.72V97ZM42.54 97H35.1V93H42.54V97ZM31.36 97H24V93H31.46L31.36 97ZM20.18 97H12.72V93H20.18V97Z" fill="#CD2264"/>
<path d="M9 97H5C4.46957 97 3.96086 96.7893 3.58579 96.4142C3.21071 96.0391 3 95.5304 3 95V91H7V93H9V97Z" fill="#CD2264"/>
<path d="M7 81.54H3V87.86H7V81.54Z" fill="#CD2264"/>
<path d="M7 78.38H3V74.38C3 73.8496 3.21071 73.3409 3.58579 72.9658C3.96086 72.5907 4.46957 72.38 5 72.38H9V76.38H7V78.38Z" fill="#CD2264"/>
<path d="M87.28 76.38H79.82V72.38H87.28V76.38ZM76.1 76.38H68.64V72.38H76.1V76.38ZM64.9 76.38H57.46V72.38H64.9V76.38ZM53.72 76.38H46.28V72.38H53.72V76.38ZM42.54 76.38H35.1V72.38H42.54V76.38ZM31.36 76.38H24V72.38H31.46L31.36 76.38ZM20.18 76.38H12.72V72.38H20.18V76.38Z" fill="#CD2264"/>
<path d="M97 78.38H93V76.38H91V72.38H95C95.5304 72.38 96.0391 72.5907 96.4142 72.9658C96.7893 73.3409 97 73.8496 97 74.38V78.38Z" fill="#CD2264"/>
<path d="M97 81.54H93V87.86H97V81.54Z" fill="#CD2264"/>
<path d="M46 35.18V29.32H39.42V35.18H37.52V22.2H39.42V27.78H46V22.2H47.9V35.18H46Z" fill="#CD2264"/>
<path d="M53.8201 35.18V23.76H49.6801V22.2H59.8801V23.76H55.7401V35.18H53.8201Z" fill="#CD2264"/>
<path d="M65.16 35.18V23.76H61V22.2H71.2V23.76H67.06V35.18H65.16Z" fill="#CD2264"/>
<path d="M74.9201 30.16V35.18H73.0601V22.2H77.7601C78.3099 22.1712 78.8599 22.2519 79.3783 22.4373C79.8967 22.6227 80.3732 22.9091 80.7801 23.28C81.1787 23.6483 81.4938 24.0976 81.7043 24.5978C81.9147 25.0981 82.0156 25.6376 82.0001 26.18C82.0258 26.7165 81.9375 27.2524 81.741 27.7522C81.5445 28.2521 81.2442 28.7047 80.8601 29.08C80.4532 29.4509 79.9767 29.7374 79.4583 29.9228C78.9399 30.1082 78.3899 30.1888 77.8401 30.16H74.9201ZM74.9201 28.64H77.6001C77.9234 28.6645 78.2484 28.6221 78.5546 28.5154C78.8609 28.4088 79.1419 28.2401 79.3801 28.02C79.8112 27.5078 80.0264 26.848 79.9801 26.18C80.0323 25.8521 80.0075 25.5165 79.9077 25.1998C79.8078 24.8831 79.6356 24.594 79.4047 24.3554C79.1738 24.1167 78.8906 23.9351 78.5773 23.8248C78.2641 23.7145 77.9295 23.6786 77.6001 23.72H74.9201V28.64Z" fill="#CD2264"/>
<path d="M16.24 29.5C13.6165 29.5 11.0521 28.7218 8.87104 27.2639C6.69001 25.806 4.99045 23.7339 3.98743 21.3097C2.9844 18.8856 2.72298 16.2185 3.23624 13.6457C3.7495 11.073 5.01438 8.71032 6.87083 6.85668C8.72728 5.00303 11.0919 3.74172 13.6654 3.23234C16.2389 2.72296 18.9056 2.98841 21.3282 3.99509C23.7508 5.00178 25.8204 6.70446 27.275 8.88768C28.7296 11.0709 29.5039 13.6366 29.5 16.26C29.4947 19.7733 28.0953 23.1409 25.6091 25.6233C23.123 28.1057 19.7533 29.5 16.24 29.5ZM16.24 6.99999C14.4085 6.99999 12.6182 7.54308 11.0954 8.56058C9.57259 9.57808 8.38572 11.0243 7.68485 12.7163C6.98398 14.4084 6.8006 16.2703 7.1579 18.0665C7.5152 19.8628 8.39713 21.5128 9.69216 22.8078C10.9872 24.1028 12.6372 24.9848 14.4334 25.3421C16.2297 25.6994 18.0916 25.516 19.7836 24.8151C21.4757 24.1142 22.9219 22.9274 23.9394 21.4046C24.9569 19.8818 25.5 18.0914 25.5 16.26C25.5026 15.0432 25.2649 13.8379 24.8005 12.7132C24.336 11.5886 23.6541 10.5667 22.7937 9.7063C21.9333 8.8459 20.9114 8.16392 19.7867 7.69949C18.6621 7.23507 17.4568 6.99735 16.24 6.99999Z" fill="#CD2264"/>
</svg>
