<svg width="100" height="100" viewBox="0 0 100 100" fill="none" xmlns="http://www.w3.org/2000/svg">
<g clip-path="url(#clip0_2385_2196)">
<path d="M100 0H0V100H100V0Z" fill="url(#paint0_linear_2385_2196)"/>
<path d="M50.1467 80.3067C45.0637 80.3047 40.0639 79.0157 35.6134 76.56L36.9467 74.2267C42.2855 77.1487 48.4406 78.2232 54.4536 77.2828C60.4666 76.3425 65.9999 73.4401 70.1917 69.0277C74.3835 64.6153 76.9985 58.9406 77.6294 52.8873C78.2603 46.834 76.8718 40.742 73.68 35.56L72.3467 42.2267L69.68 41.7067L71.6134 32C71.6811 31.6538 71.8834 31.3485 72.1758 31.151C72.4682 30.9536 72.8269 30.8801 73.1734 30.9467L82.9601 32.88L82.44 35.5467L75.9067 34.2133C78.71 38.7991 80.2428 44.0481 80.3478 49.4218C80.4527 54.7954 79.1261 60.1003 76.5041 64.792C73.882 69.4838 70.059 73.3934 65.4271 76.1199C60.7952 78.8463 55.5214 80.2913 50.1467 80.3067ZM27.04 68.68C26.9293 68.693 26.8174 68.693 26.7067 68.68L17.04 66.2533L17.6934 63.6667L23.9067 65.2267C20.5741 59.5154 19.2045 52.8696 20.0074 46.306C20.8103 39.7425 23.7415 33.6227 28.3525 28.8832C32.9635 24.1436 39.0004 21.0453 45.5394 20.0623C52.0783 19.0793 58.7593 20.2657 64.56 23.44L63.2267 25.7733C57.9083 22.8949 51.7914 21.8439 45.8172 22.7819C39.8431 23.7199 34.3426 26.5949 30.1622 30.9647C25.9818 35.3345 23.3531 40.9569 22.6806 46.9667C22.0081 52.9766 23.329 59.0409 26.44 64.2267L28.1734 57.3333L30.76 57.9733L28.3334 67.64C28.2671 67.934 28.1031 68.1969 27.8682 68.3857C27.6334 68.5746 27.3414 68.6783 27.04 68.68ZM60.6934 62.9333C59.5117 62.9324 58.3637 62.5391 57.4298 61.8152C56.4959 61.0912 55.8288 60.0775 55.5334 58.9333H44.5334C44.2841 59.8988 43.7692 60.775 43.047 61.4626C42.3249 62.1501 41.4244 62.6215 40.4479 62.8231C39.4714 63.0248 38.4579 62.9486 37.5225 62.6033C36.5871 62.258 35.7672 61.6574 35.1559 60.8697C34.5446 60.0819 34.1664 59.1386 34.0642 58.1467C33.9619 57.1549 34.1398 56.1542 34.5776 55.2583C35.0154 54.3625 35.6956 53.6073 36.5409 53.0785C37.3863 52.5497 38.3629 52.2684 39.36 52.2667C39.8461 52.2661 40.3302 52.3289 40.8 52.4533L46.3734 42.8C45.5983 42.0663 45.0613 41.1169 44.8316 40.0746C44.602 39.0323 44.6903 37.9451 45.0852 36.9536C45.4801 35.9621 46.1634 35.1119 47.0467 34.5129C47.9301 33.9139 48.9728 33.5937 50.04 33.5937C51.1073 33.5937 52.15 33.9139 53.0333 34.5129C53.9167 35.1119 54.6 35.9621 54.9949 36.9536C55.3898 37.9451 55.4781 39.0323 55.2485 40.0746C55.0188 41.1169 54.4817 42.0663 53.7067 42.8L59.28 52.4533C59.7412 52.3307 60.2162 52.268 60.6934 52.2667C62.1079 52.2667 63.4644 52.8286 64.4646 53.8288C65.4648 54.829 66.0267 56.1855 66.0267 57.6C66.0267 59.0145 65.4648 60.371 64.4646 61.3712C63.4644 62.3714 62.1079 62.9333 60.6934 62.9333ZM60.6934 54.9333C60.166 54.9333 59.6504 55.0897 59.2119 55.3827C58.7733 55.6758 58.4315 56.0922 58.2297 56.5795C58.0279 57.0668 57.9751 57.603 58.078 58.1202C58.1808 58.6375 58.4348 59.1127 58.8078 59.4856C59.1807 59.8586 59.6559 60.1125 60.1731 60.2154C60.6904 60.3183 61.2266 60.2655 61.7139 60.0637C62.2011 59.8618 62.6176 59.5201 62.9106 59.0815C63.2036 58.643 63.36 58.1274 63.36 57.6C63.36 56.8928 63.0791 56.2145 62.579 55.7144C62.0789 55.2143 61.4006 54.9333 60.6934 54.9333ZM39.36 54.9333C38.8326 54.9333 38.3171 55.0897 37.8785 55.3827C37.44 55.6758 37.0982 56.0922 36.8964 56.5795C36.6945 57.0668 36.6417 57.603 36.7446 58.1202C36.8475 58.6375 37.1015 59.1127 37.4744 59.4856C37.8474 59.8586 38.3225 60.1125 38.8398 60.2154C39.3571 60.3183 39.8933 60.2655 40.3805 60.0637C40.8678 59.8618 41.2843 59.5201 41.5773 59.0815C41.8703 58.643 42.0267 58.1274 42.0267 57.6C42.0267 57.2498 41.9577 56.903 41.8237 56.5795C41.6897 56.256 41.4933 55.962 41.2457 55.7144C40.998 55.4668 40.7041 55.2703 40.3805 55.1363C40.057 55.0023 39.7102 54.9333 39.36 54.9333ZM44.5334 56.2667H55.5334C55.7757 55.3193 56.2739 54.4567 56.9734 53.7733L51.3734 44.08C50.4988 44.3058 49.5813 44.3058 48.7067 44.08L43.12 53.7867C43.8098 54.4733 44.2986 55.3355 44.5334 56.28V56.2667ZM50.0267 36.2667C49.4993 36.2667 48.9837 36.4231 48.5452 36.7161C48.1067 37.0091 47.7649 37.4256 47.563 37.9128C47.3612 38.4001 47.3084 38.9363 47.4113 39.4536C47.5142 39.9709 47.7682 40.446 48.1411 40.819C48.514 41.1919 48.9892 41.4459 49.5065 41.5488C50.0238 41.6517 50.5599 41.5988 51.0472 41.397C51.5345 41.1952 51.9509 40.8534 52.244 40.4149C52.537 39.9763 52.6934 39.4608 52.6934 38.9333C52.6934 38.2261 52.4124 37.5478 51.9123 37.0477C51.4122 36.5476 50.734 36.2667 50.0267 36.2667Z" fill="white"/>
</g>
<defs>
<linearGradient id="paint0_linear_2385_2196" x1="-20.7067" y1="120.707" x2="120.707" y2="-20.7067" gradientUnits="userSpaceOnUse">
<stop stop-color="#B0084D"/>
<stop offset="1" stop-color="#FF4F8B"/>
</linearGradient>
<clipPath id="clip0_2385_2196">
<rect width="100" height="100" fill="white"/>
</clipPath>
</defs>
</svg>
