<svg width="100" height="100" viewBox="0 0 100 100" fill="none" xmlns="http://www.w3.org/2000/svg">
<g clip-path="url(#clip0_2385_2195)">
<path d="M100 0H0V100H100V0Z" fill="url(#paint0_linear_2385_2195)"/>
<path d="M71.3333 41.9999V33.9999C71.3333 33.6463 71.1928 33.3072 70.9428 33.0571C70.6927 32.8071 70.3536 32.6666 70 32.6666H51.3333V29.8666C52.952 29.5362 54.3904 28.6165 55.3696 27.2858C56.3487 25.9552 56.7989 24.3083 56.6329 22.6646C56.4668 21.0208 55.6963 19.4973 54.4708 18.3894C53.2453 17.2814 51.6521 16.668 50 16.668C48.3479 16.668 46.7546 17.2814 45.5291 18.3894C44.3036 19.4973 43.5331 21.0208 43.367 22.6646C43.201 24.3083 43.6512 25.9552 44.6304 27.2858C45.6095 28.6165 47.0479 29.5362 48.6666 29.8666V32.6666H30C29.6463 32.6666 29.3072 32.8071 29.0571 33.0571C28.8071 33.3072 28.6666 33.6463 28.6666 33.9999V39.3333H18C17.6463 39.3333 17.3072 39.4738 17.0572 39.7238C16.8071 39.9738 16.6666 40.313 16.6666 40.6666V47.3333C16.6666 47.6869 16.8071 48.026 17.0572 48.2761C17.3072 48.5261 17.6463 48.6666 18 48.6666H28.6666V51.3333H18C17.6463 51.3333 17.3072 51.4738 17.0572 51.7238C16.8071 51.9738 16.6666 52.313 16.6666 52.6666V59.3333C16.6666 59.6869 16.8071 60.026 17.0572 60.2761C17.3072 60.5261 17.6463 60.6666 18 60.6666H28.6666V65.9999C28.6666 66.3536 28.8071 66.6927 29.0571 66.9427C29.3072 67.1928 29.6463 67.3333 30 67.3333H48.6666V70.1333C47.0479 70.4637 45.6095 71.3834 44.6304 72.7141C43.6512 74.0447 43.201 75.6916 43.367 77.3353C43.5331 78.979 44.3036 80.5026 45.5291 81.6105C46.7546 82.7185 48.3479 83.3319 50 83.3319C51.6521 83.3319 53.2453 82.7185 54.4708 81.6105C55.6963 80.5026 56.4668 78.979 56.6329 77.3353C56.7989 75.6916 56.3487 74.0447 55.3696 72.7141C54.3904 71.3834 52.952 70.4637 51.3333 70.1333V67.3333H70C70.3536 67.3333 70.6927 67.1928 70.9428 66.9427C71.1928 66.6927 71.3333 66.3536 71.3333 65.9999V59.3333H68.6666V64.6666H31.3333V60.6666H42C42.3536 60.6666 42.6927 60.5261 42.9428 60.2761C43.1928 60.026 43.3333 59.6869 43.3333 59.3333V52.6666C43.3333 52.313 43.1928 51.9738 42.9428 51.7238C42.6927 51.4738 42.3536 51.3333 42 51.3333H31.3333V48.6666H42C42.3536 48.6666 42.6927 48.5261 42.9428 48.2761C43.1928 48.026 43.3333 47.6869 43.3333 47.3333V40.6666C43.3333 40.313 43.1928 39.9738 42.9428 39.7238C42.6927 39.4738 42.3536 39.3333 42 39.3333H31.3333V35.3333H68.6666V41.9999H71.3333ZM54 76.6666C54 77.4577 53.7654 78.2311 53.3258 78.8889C52.8863 79.5467 52.2616 80.0594 51.5307 80.3621C50.7998 80.6649 49.9955 80.7441 49.2196 80.5898C48.4437 80.4354 47.7309 80.0544 47.1715 79.495C46.6121 78.9356 46.2312 78.2229 46.0768 77.447C45.9225 76.671 46.0017 75.8668 46.3044 75.1359C46.6072 74.405 47.1199 73.7803 47.7777 73.3407C48.4355 72.9012 49.2088 72.6666 50 72.6666C51.0608 72.6666 52.0782 73.088 52.8284 73.8382C53.5785 74.5883 54 75.6057 54 76.6666ZM40.6666 53.9999V57.9999H19.3333V53.9999H40.6666ZM40.6666 41.9999V45.9999H19.3333V41.9999H40.6666ZM46 23.3333C46 22.5421 46.2346 21.7688 46.6741 21.111C47.1136 20.4532 47.7383 19.9405 48.4692 19.6378C49.2001 19.335 50.0044 19.2558 50.7803 19.4101C51.5562 19.5645 52.269 19.9454 52.8284 20.5048C53.3878 21.0643 53.7688 21.777 53.9231 22.5529C54.0774 23.3288 53.9982 24.1331 53.6955 24.864C53.3927 25.5949 52.88 26.2196 52.2222 26.6592C51.5644 27.0987 50.7911 27.3333 50 27.3333C48.9391 27.3333 47.9217 26.9118 47.1715 26.1617C46.4214 25.4116 46 24.3941 46 23.3333Z" fill="white"/>
<path d="M82 44.6666H55.3333C54.9797 44.6666 54.6406 44.8071 54.3905 45.0571C54.1405 45.3072 54 45.6463 54 46V55.3333C54 55.6869 54.1405 56.0261 54.3905 56.2761C54.6406 56.5262 54.9797 56.6666 55.3333 56.6666H82C82.3536 56.6666 82.6928 56.5262 82.9428 56.2761C83.1928 56.0261 83.3333 55.6869 83.3333 55.3333V46C83.3333 45.6463 83.1928 45.3072 82.9428 45.0571C82.6928 44.8071 82.3536 44.6666 82 44.6666ZM80.6667 54H56.6667V47.3333H80.6667V54Z" fill="white"/>
</g>
<defs>
<linearGradient id="paint0_linear_2385_2195" x1="-20.7067" y1="120.707" x2="120.707" y2="-20.7067" gradientUnits="userSpaceOnUse">
<stop stop-color="#B0084D"/>
<stop offset="1" stop-color="#FF4F8B"/>
</linearGradient>
<clipPath id="clip0_2385_2195">
<rect width="100" height="100" fill="white"/>
</clipPath>
</defs>
</svg>
