<svg width="100" height="100" viewBox="0 0 100 100" fill="none" xmlns="http://www.w3.org/2000/svg">
<g clip-path="url(#clip0_0_178)">
<path d="M100 0H0V100H100V0Z" fill="#693CC5"/>
<path d="M64.68 82.0002C64.3976 82.0012 64.1221 81.9125 63.8934 81.7469C63.721 81.6242 63.5804 81.4623 63.483 81.2745C63.3856 81.0867 63.3344 80.8784 63.3334 80.6669V19.3335C63.3343 19.1057 63.3937 18.8819 63.5057 18.6835C63.6177 18.4851 63.7787 18.3187 63.9734 18.2002C64.1702 18.0729 64.397 17.9997 64.6311 17.988C64.8652 17.9763 65.0982 18.0265 65.3067 18.1335L82.64 26.6002C82.8624 26.7092 83.0501 26.8779 83.1819 27.0875C83.3138 27.2971 83.3847 27.5393 83.3867 27.7869V74.9069C83.401 75.1993 83.3187 75.4883 83.1524 75.7293C82.9861 75.9703 82.7452 76.1498 82.4667 76.2402L65.1334 82.0002C64.983 82.0219 64.8304 82.0219 64.68 82.0002ZM66.0134 21.4802V78.8136L80.68 73.9469V28.6135L66.0134 21.4802Z" fill="white"/>
<path d="M35.3334 82.0002C35.1918 82.0194 35.0483 82.0194 34.9067 82.0002L17.5734 76.2402C17.2974 76.1474 17.0594 75.9669 16.8957 75.7261C16.732 75.4854 16.6516 75.1976 16.6667 74.9069V27.7869C16.6687 27.5393 16.7396 27.2971 16.8715 27.0875C17.0034 26.8779 17.191 26.7092 17.4134 26.6002L34.7467 18.1335C34.9552 18.0265 35.1883 17.9763 35.4223 17.988C35.6564 17.9997 35.8833 18.0729 36.0801 18.2002C36.2722 18.3203 36.4306 18.4874 36.5402 18.6857C36.6499 18.884 36.7072 19.107 36.7067 19.3335V80.6669C36.7057 80.8784 36.6545 81.0867 36.5571 81.2745C36.4597 81.4623 36.319 81.6242 36.1467 81.7469C35.9135 81.9237 35.6258 82.0133 35.3334 82.0002ZM19.3334 74.0002L34.0001 78.8669V21.5335L19.3334 28.6935V74.0002Z" fill="white"/>
<path d="M63.3334 36.6667H59.3334V34H63.3334V36.6667ZM55.3334 36.6667H51.3334V34H55.3334V36.6667ZM47.3334 36.6667H43.3334V34H47.3334V36.6667ZM39.3334 36.6667H35.3334V34H39.3334V36.6667Z" fill="white"/>
<path d="M63.3334 66.0002H59.3334V63.3335H63.3334V66.0002ZM55.3334 66.0002H51.3334V63.3335H55.3334V66.0002ZM47.3334 66.0002H43.3334V63.3335H47.3334V66.0002ZM39.3334 66.0002H35.3334V63.3335H39.3334V66.0002Z" fill="white"/>
<path d="M44.1467 54.5867L39.1334 50.3067C38.987 50.1815 38.8695 50.0261 38.7889 49.8512C38.7084 49.6762 38.6666 49.4859 38.6666 49.2933C38.6666 49.1007 38.7084 48.9104 38.7889 48.7355C38.8695 48.5606 38.987 48.4052 39.1334 48.28L44.1334 44L45.8667 46.0267L42.0534 49.3333L45.8667 52.6L44.1467 54.5867Z" fill="white"/>
<path d="M55.8668 54.5867L54.1334 52.56L57.9468 49.3333L54.1201 46.08L55.8535 44L60.8668 48.2667C61.0132 48.3918 61.1307 48.5472 61.2113 48.7222C61.2918 48.8971 61.3336 49.0874 61.3336 49.28C61.3336 49.4726 61.2918 49.6629 61.2113 49.8378C61.1307 50.0128 61.0132 50.1682 60.8668 50.2933L55.8668 54.5867Z" fill="white"/>
<path d="M51.3782 41.7234L46.0786 57.3984L48.6048 58.2525L53.9044 42.5775L51.3782 41.7234Z" fill="white"/>
</g>
<defs>
<clipPath id="clip0_0_178">
<rect width="100" height="100" fill="white"/>
</clipPath>
</defs>
</svg>
