<svg width="100" height="100" viewBox="0 0 100 100" fill="none" xmlns="http://www.w3.org/2000/svg">
<path d="M50 97C40.7043 97 31.6173 94.2435 23.8882 89.0791C16.1591 83.9147 10.135 76.5743 6.57768 67.9861C3.02036 59.398 2.08961 49.9479 3.90311 40.8308C5.71662 31.7137 10.1929 23.3391 16.766 16.766C23.3391 10.1929 31.7137 5.71662 40.8308 3.90311C49.9479 2.08961 59.398 3.02036 67.9861 6.57768C76.5743 10.135 83.9147 16.1591 89.0791 23.8882C94.2435 31.6173 97 40.7043 97 50C96.9894 62.4619 92.0343 74.4104 83.2223 83.2223C74.4104 92.0343 62.4619 96.9894 50 97ZM50 7.00002C41.4954 7.00002 33.1818 9.52193 26.1105 14.2468C19.0392 18.9717 13.5278 25.6874 10.2732 33.5446C7.01863 41.4019 6.16709 50.0477 7.82625 58.3889C9.48542 66.7301 13.5808 74.392 19.5944 80.4056C25.6081 86.4193 33.27 90.5146 41.6111 92.1738C49.9523 93.833 58.5982 92.9814 66.4554 89.7268C74.3126 86.4723 81.0283 80.9609 85.7532 73.8895C90.4781 66.8182 93 58.5046 93 50C92.9894 38.599 88.4557 27.6679 80.3939 19.6061C72.3322 11.5444 61.4011 7.01061 50 7.00002Z" fill="#693CC5"/>
<path d="M27.5 74.5002H20.74V70.5002H25.5V33.2402H20.74V29.2402H27.5C28.0304 29.2402 28.5391 29.4509 28.9142 29.826C29.2893 30.2011 29.5 30.7098 29.5 31.2402V72.5002C29.5 73.0307 29.2893 73.5394 28.9142 73.9145C28.5391 74.2895 28.0304 74.5002 27.5 74.5002Z" fill="#693CC5"/>
<path d="M74.38 70.76H65C64.4696 70.76 63.9609 70.5493 63.5858 70.1742C63.2107 69.7991 63 69.2904 63 68.76V65.12H59.5V68.76C59.5 69.2904 59.2893 69.7991 58.9142 70.1742C58.5391 70.5493 58.0304 70.76 57.5 70.76H38.74C38.2096 70.76 37.7009 70.5493 37.3258 70.1742C36.9507 69.7991 36.74 69.2904 36.74 68.76V65.12H35C34.4696 65.12 33.9609 64.9093 33.5858 64.5342C33.2107 64.1591 33 63.6504 33 63.12V35C33 34.4696 33.2107 33.9609 33.5858 33.5858C33.9609 33.2107 34.4696 33 35 33H81.88C82.4104 33 82.9191 33.2107 83.2942 33.5858C83.6693 33.9609 83.88 34.4696 83.88 35V63.12C83.88 63.3826 83.8283 63.6427 83.7278 63.8854C83.6273 64.128 83.4799 64.3485 83.2942 64.5342C83.1085 64.7199 82.888 64.8672 82.6454 64.9678C82.4027 65.0683 82.1426 65.12 81.88 65.12H76.38V68.76C76.38 69.2904 76.1693 69.7991 75.7942 70.1742C75.4191 70.5493 74.9104 70.76 74.38 70.76ZM67 66.76H72.38V63.12C72.38 62.5896 72.5907 62.0809 72.9658 61.7058C73.3409 61.3307 73.8496 61.12 74.38 61.12H79.88V37H37V61.12H38.74C39.2704 61.12 39.7791 61.3307 40.1542 61.7058C40.5293 62.0809 40.74 62.5896 40.74 63.12V66.76H55.5V63.12C55.5 62.5896 55.7107 62.0809 56.0858 61.7058C56.4609 61.3307 56.9696 61.12 57.5 61.12H65C65.5304 61.12 66.0391 61.3307 66.4142 61.7058C66.7893 62.0809 67 62.5896 67 63.12V66.76Z" fill="#693CC5"/>
<path d="M70.6199 57.62H44.3799C43.8494 57.62 43.3407 57.4093 42.9657 57.0342C42.5906 56.6591 42.3799 56.1504 42.3799 55.62V42.5C42.3799 41.9696 42.5906 41.4609 42.9657 41.0858C43.3407 40.7107 43.8494 40.5 44.3799 40.5H70.6199C71.1503 40.5 71.659 40.7107 72.0341 41.0858C72.4092 41.4609 72.6199 41.9696 72.6199 42.5V55.62C72.6199 56.1504 72.4092 56.6591 72.0341 57.0342C71.659 57.4093 71.1503 57.62 70.6199 57.62ZM46.3799 53.62H68.6199V44.5H46.3799V53.62Z" fill="#693CC5"/>
<path d="M59.5 42.5H55.5V55.62H59.5V42.5Z" fill="#693CC5"/>
</svg>
