<svg width="100" height="100" viewBox="0 0 100 100" fill="none" xmlns="http://www.w3.org/2000/svg">
<g clip-path="url(#clip0_0_467)">
<path d="M100 0H0V100H100V0Z" fill="url(#paint0_linear_0_467)"/>
<path d="M61.52 80.8932L59.1467 79.6665C60.4114 77.2613 61.4256 74.7324 62.1734 72.1198L64.7334 72.8665C63.9374 75.6442 62.8607 78.3336 61.52 80.8932ZM64 56.4798C63.5387 49.0139 61.1149 41.8021 56.9734 35.5732L59.2 34.1198C63.6014 40.7327 66.1772 48.3912 66.6667 56.3198L64 56.4798ZM46.4134 24.3065C44.4782 22.8614 42.4165 21.594 40.2534 20.5198L41.4667 18.1465C43.7694 19.2794 45.965 20.6182 48.0267 22.1465L46.4134 24.3065Z" fill="white"/>
<path d="M57.3333 59.8667C53.1248 55.6867 48.0368 52.4981 42.44 50.5333L43.2667 48C49.2274 50.0921 54.6475 53.4854 59.1333 57.9333L57.3333 59.8667Z" fill="white"/>
<path d="M68.32 75.7865C67.8267 74.4531 67.2667 73.2265 66.6533 71.9865L69.04 70.7998C69.6977 72.1026 70.2895 73.4376 70.8133 74.7998L68.32 75.7865Z" fill="white"/>
<path d="M60.76 81.5329L59.9067 79.0129C63.1008 77.9365 66.0897 76.3271 68.7467 74.2529L70.3867 76.3596C67.493 78.6154 64.2381 80.3646 60.76 81.5329Z" fill="white"/>
<path d="M18.3733 49.3329L17.76 46.7462C20.7165 46.0222 23.7435 45.6242 26.7867 45.5596L26.8533 48.2262C23.9948 48.2848 21.1512 48.6559 18.3733 49.3329Z" fill="white"/>
<path d="M40.24 40.8534L38 39.4C39.9572 36.2212 42.3695 33.3463 45.16 30.8667L46.92 32.88C44.3141 35.1956 42.0633 37.8822 40.24 40.8534Z" fill="white"/>
<path d="M60.0667 25.0396L59.16 22.5329C61.1669 21.7806 63.2314 21.192 65.3334 20.7729L65.8267 23.4396C63.8655 23.8117 61.9388 24.3469 60.0667 25.0396Z" fill="white"/>
<path d="M33.6667 78.6664C31.4876 73.609 30.3233 68.1727 30.2401 62.6664C30.2842 60.5447 30.5614 58.4343 31.0667 56.3731C31.16 55.9064 31.2667 55.4264 31.3601 54.9331L34.0267 55.4531C33.9334 55.9598 33.8267 56.4398 33.7334 56.9198C33.2675 58.8015 33.0082 60.7285 32.9601 62.6664C33.0205 67.8394 34.0988 72.9499 36.1334 77.7064L33.6667 78.6664Z" fill="white"/>
<path d="M50 83.3331C41.1595 83.3331 32.681 79.8212 26.4298 73.57C20.1786 67.3188 16.6667 58.8403 16.6667 49.9998C16.6667 49.3198 16.6667 48.6665 16.7334 47.9865C17.1454 41.1644 19.6446 34.6339 23.8922 29.2797C28.1398 23.9255 33.9306 20.0063 40.48 18.0531C44.7564 16.7812 49.2447 16.3808 53.6787 16.8755C58.1128 17.3702 62.4024 18.75 66.2934 20.9331C71.096 23.626 75.1568 27.4666 78.1129 32.1119C81.069 36.7571 82.8284 42.0623 83.2338 47.5535C83.6392 53.0446 82.6781 58.5507 80.4363 63.5797C78.1945 68.6087 74.7418 73.0041 70.3867 76.3731C64.5392 80.8677 57.3753 83.3135 50 83.3331ZM50 19.3331C47.0302 19.3427 44.0782 19.792 41.24 20.6665C35.2207 22.4627 29.8982 26.064 25.9921 30.9835C22.0861 35.903 19.785 41.9033 19.4 48.1731C19.4 48.7998 19.3334 49.3998 19.3334 49.9998C19.3334 58.1331 22.5643 65.9333 28.3154 71.6844C34.0665 77.4355 41.8667 80.6665 50 80.6665C53.367 80.6717 56.711 80.1128 59.8934 79.0131C63.093 77.9399 66.0868 76.3303 68.7467 74.2531C73.8044 70.3394 77.5121 64.9424 79.3509 58.8172C81.1897 52.6921 81.0675 46.1454 79.0016 40.0931C76.9357 34.0408 73.0294 28.7858 67.8292 25.0634C62.629 21.341 56.3952 19.3375 50 19.3331Z" fill="white"/>
<path d="M53.24 34.5731C52.0712 34.5731 50.9287 34.2263 49.9571 33.5767C48.9854 32.9271 48.2284 32.0038 47.7817 30.9237C47.335 29.8436 47.2189 28.6553 47.4479 27.5092C47.6768 26.363 48.2407 25.3106 49.0681 24.4851C49.8955 23.6595 50.9492 23.098 52.0959 22.8716C53.2425 22.6452 54.4306 22.7641 55.5097 23.2132C56.5887 23.6623 57.5103 24.4215 58.1577 25.3946C58.8052 26.3677 59.1493 27.511 59.1467 28.6798C59.1467 29.4548 58.9938 30.2223 58.6968 30.9381C58.3998 31.654 57.9645 32.3043 57.4159 32.8517C56.8672 33.3991 56.216 33.8329 55.4994 34.1283C54.7828 34.4237 54.0151 34.5749 53.24 34.5731ZM53.24 25.4398C52.5992 25.4398 51.9728 25.6298 51.44 25.9858C50.9072 26.3418 50.4919 26.8478 50.2467 27.4399C50.0014 28.0319 49.9373 28.6834 50.0623 29.3119C50.1873 29.9404 50.4959 30.5177 50.949 30.9708C51.4021 31.4239 51.9794 31.7325 52.6079 31.8575C53.2364 31.9825 53.8879 31.9184 54.4799 31.6731C55.072 31.4279 55.578 31.0126 55.934 30.4798C56.29 29.947 56.48 29.3206 56.48 28.6798C56.48 27.8205 56.1387 26.9964 55.5311 26.3887C54.9234 25.7811 54.0993 25.4398 53.24 25.4398Z" fill="white"/>
<path d="M35.0533 53.1732C33.8851 53.1732 32.7431 52.8268 31.7718 52.1777C30.8004 51.5287 30.0433 50.6062 29.5963 49.5269C29.1492 48.4476 29.0323 47.26 29.2602 46.1142C29.4881 44.9684 30.0506 43.9159 30.8767 43.0899C31.7028 42.2638 32.7552 41.7013 33.901 41.4734C35.0468 41.2455 36.2344 41.3624 37.3137 41.8095C38.393 42.2565 39.3155 43.0136 39.9645 43.985C40.6136 44.9563 40.96 46.0983 40.96 47.2665C40.9565 48.832 40.333 50.3323 39.2261 51.4393C38.1191 52.5462 36.6188 53.1697 35.0533 53.1732ZM35.0533 44.0265C34.4125 44.0265 33.7861 44.2166 33.2533 44.5726C32.7205 44.9286 32.3052 45.4346 32.06 46.0266C31.8147 46.6187 31.7506 47.2701 31.8756 47.8986C32.0006 48.5271 32.3092 49.1044 32.7623 49.5576C33.2154 50.0107 33.7927 50.3193 34.4212 50.4443C35.0497 50.5693 35.7012 50.5051 36.2932 50.2599C36.8853 50.0147 37.3913 49.5994 37.7473 49.0666C38.1033 48.5338 38.2933 47.9073 38.2933 47.2665C38.2969 46.8388 38.2156 46.4146 38.0544 46.0184C37.8932 45.6223 37.6551 45.2619 37.3538 44.9582C37.0526 44.6546 36.6943 44.4135 36.2994 44.249C35.9046 44.0845 35.4811 43.9999 35.0533 43.9999V44.0265Z" fill="white"/>
<path d="M64.3734 70.2664C63.204 70.2691 62.0602 69.9246 61.0868 69.2765C60.1134 68.6285 59.3543 67.7062 58.9055 66.6263C58.4568 65.5465 58.3387 64.3577 58.5662 63.2107C58.7937 62.0637 59.3565 61.01 60.1834 60.1832C61.0103 59.3563 62.064 58.7935 63.211 58.566C64.358 58.3385 65.5467 58.4566 66.6266 58.9053C67.7064 59.354 68.6288 60.1132 69.2768 61.0865C69.9248 62.0599 70.2693 63.2038 70.2667 64.3731C70.2667 65.9361 69.6458 67.4351 68.5406 68.5403C67.4354 69.6455 65.9364 70.2664 64.3734 70.2664ZM64.3734 61.1331C63.732 61.1305 63.1043 61.3182 62.5697 61.6727C62.0351 62.0271 61.6178 62.5322 61.3705 63.124C61.1232 63.7157 61.0572 64.3676 61.1807 64.997C61.3042 65.6264 61.6117 66.2049 62.0643 66.6594C62.5169 67.1138 63.0942 67.4237 63.723 67.5498C64.3519 67.6759 65.004 67.6126 65.5968 67.3677C66.1896 67.1229 66.6964 66.7076 67.0531 66.1745C67.4097 65.6414 67.6 65.0145 67.6 64.3731C67.6 63.5161 67.2605 62.694 66.6558 62.0868C66.051 61.4796 65.2304 61.1366 64.3734 61.1331Z" fill="white"/>
</g>
<defs>
<linearGradient id="paint0_linear_0_467" x1="-20.7147" y1="120.711" x2="120.707" y2="-20.7107" gradientUnits="userSpaceOnUse">
<stop stop-color="#4D27A8"/>
<stop offset="1" stop-color="#A166FF"/>
</linearGradient>
<clipPath id="clip0_0_467">
<rect width="100" height="100" fill="white"/>
</clipPath>
</defs>
</svg>
