<svg width="100" height="100" viewBox="0 0 100 100" fill="none" xmlns="http://www.w3.org/2000/svg">
<path d="M80.5601 97.0001H20.5601C20.0296 97.0001 19.5209 96.7894 19.1458 96.4143C18.7708 96.0393 18.5601 95.5306 18.5601 95.0001V48.1201C18.5623 47.5954 18.7706 47.0926 19.1401 46.7201C19.3253 46.5311 19.5462 46.3808 19.7899 46.2778C20.0337 46.1748 20.2954 46.1212 20.5601 46.1201H80.5601C81.0905 46.1201 81.5992 46.3308 81.9743 46.7059C82.3493 47.081 82.5601 47.5897 82.5601 48.1201V95.0001C82.5601 95.5306 82.3493 96.0393 81.9743 96.4143C81.5992 96.7894 81.0905 97.0001 80.5601 97.0001ZM22.5601 93.0001H78.5601V50.1401H22.5601V93.0001Z" fill="#693CC5"/>
<path d="M50.5801 71.5C48.6699 71.4957 46.8203 70.8295 45.3461 69.6148C43.8719 68.4001 42.8642 66.7121 42.4947 64.838C42.1251 62.9639 42.4165 61.0197 43.3193 59.3363C44.222 57.653 45.6803 56.3345 47.4458 55.6054C49.2113 54.8763 51.175 54.7816 53.0024 55.3375C54.8299 55.8934 56.4082 57.0655 57.4687 58.6542C58.5292 60.2429 59.0063 62.1501 58.8187 64.051C58.6312 65.952 57.7906 67.7291 56.4401 69.08C54.8839 70.6303 52.7767 71.5005 50.5801 71.5ZM50.5801 58.94C49.4466 58.9452 48.361 59.3978 47.5595 60.1994C46.7579 61.0009 46.3053 62.0865 46.3001 63.22C46.3001 64.3551 46.751 65.4437 47.5536 66.2464C48.3563 67.049 49.4449 67.5 50.5801 67.5C51.1429 67.5026 51.7006 67.3937 52.2211 67.1796C52.7415 66.9654 53.2144 66.6502 53.6124 66.2523C54.0103 65.8543 54.3255 65.3814 54.5397 64.861C54.7538 64.3405 54.8627 63.7828 54.8601 63.22C54.864 62.6577 54.7544 62.1005 54.5379 61.5815C54.3214 61.0626 54.0024 60.5927 53.6001 60.2C53.2046 59.8012 52.7342 59.4847 52.2159 59.2684C51.6976 59.0522 51.1417 58.9406 50.5801 58.94Z" fill="#693CC5"/>
<path d="M52.5801 69.7402H48.5801V82.3802H52.5801V69.7402Z" fill="#693CC5"/>
<path d="M33.96 36.8799H29.96V48.1399H33.96V36.8799Z" fill="#693CC5"/>
<path d="M71.3999 36.8799H67.3999V48.1399H71.3999V36.8799Z" fill="#693CC5"/>
<path d="M71.4 25.54H67.4V24.9C67.4 15.06 59.98 7.04 50.78 7C46.2124 7.14644 41.8873 9.0901 38.745 12.4084C35.6028 15.7266 33.8975 20.1512 34 24.72V25.54H30V24.7C29.9029 19.0841 32.0238 13.6563 35.9027 9.59396C39.7816 5.53164 45.1056 3.16235 50.72 3C53.5237 3.08273 56.2834 3.71787 58.8412 4.86903C61.399 6.02019 63.7044 7.66474 65.6255 9.70844C67.5466 11.7521 69.0455 14.1548 70.0364 16.7788C71.0273 19.4029 71.4907 22.1966 71.4 25V25.54Z" fill="#693CC5"/>
<path d="M82.1199 42L79.2799 39.18L87.2799 31.18L79.1599 23.36L81.9399 20.48L91.5199 29.7C91.9 30.077 92.1218 30.5849 92.1399 31.12C92.1441 31.3865 92.0949 31.6513 91.9953 31.8986C91.8957 32.1458 91.7477 32.3707 91.5599 32.56L82.1199 42Z" fill="#693CC5"/>
<path d="M90.4599 29.2998H9.87988V33.2998H90.4599V29.2998Z" fill="#693CC5"/>
<path d="M17.5999 42L8.11992 32.64C7.93246 32.454 7.78367 32.2328 7.68213 31.9891C7.5806 31.7454 7.52832 31.484 7.52832 31.22C7.52832 30.9559 7.5806 30.6945 7.68213 30.4508C7.78367 30.2071 7.93246 29.9859 8.11992 29.8L17.5999 20.46L20.3999 23.3L12.3999 31.3L20.3999 39.3L17.5999 42Z" fill="#693CC5"/>
</svg>
