<svg width="100" height="100" viewBox="0 0 100 100" fill="none" xmlns="http://www.w3.org/2000/svg">
<path d="M50 97C40.7043 97 31.6173 94.2435 23.8882 89.0791C16.1591 83.9147 10.135 76.5743 6.57768 67.9861C3.02036 59.398 2.08961 49.9479 3.90311 40.8308C5.71662 31.7137 10.1929 23.3391 16.766 16.766C23.3391 10.1929 31.7137 5.71662 40.8308 3.90311C49.9479 2.08961 59.398 3.02036 67.9861 6.57768C76.5743 10.135 83.9147 16.1591 89.0791 23.8882C94.2435 31.6173 97 40.7043 97 50C96.9894 62.4619 92.0343 74.4104 83.2223 83.2223C74.4104 92.0343 62.4619 96.9894 50 97ZM50 7.00002C41.4954 7.00002 33.1818 9.52193 26.1105 14.2468C19.0392 18.9717 13.5278 25.6874 10.2732 33.5446C7.01863 41.4019 6.16709 50.0477 7.82625 58.3889C9.48542 66.7301 13.5808 74.392 19.5944 80.4056C25.6081 86.4193 33.27 90.5146 41.6111 92.1738C49.9523 93.833 58.5982 92.9814 66.4554 89.7268C74.3126 86.4723 81.0283 80.9609 85.7532 73.8895C90.4781 66.8182 93 58.5046 93 50C92.9894 38.599 88.4557 27.6679 80.3939 19.6061C72.3322 11.5444 61.4011 7.01061 50 7.00002Z" fill="#693CC5"/>
<path d="M52 18.1201H48V22.1201H52V18.1201Z" fill="#693CC5"/>
<path d="M52 68.4H48V60.68H52V68.4ZM52 56.82H48V49.12H52V56.82ZM52 45.26H48V37.54H52V45.26ZM52 33.7H48V26H52V33.7Z" fill="#693CC5"/>
<path d="M52 72.2598H48V76.2598H52V72.2598Z" fill="#693CC5"/>
<path d="M67.3345 57.9528L64.5061 60.7812L67.3345 63.6097L70.163 60.7812L67.3345 57.9528Z" fill="#693CC5"/>
<path d="M61.2412 64.0718L54.6934 70.6196L57.5218 73.4481L64.0696 66.9002L61.2412 64.0718Z" fill="#693CC5"/>
<path d="M50 80.1199C49.7368 80.1214 49.4759 80.071 49.2322 79.9714C48.9885 79.8719 48.7669 79.7252 48.58 79.5399L45.76 76.7199L48.58 73.8799L50 75.2999L51.42 73.8799L54.24 76.7199L51.42 79.5399C51.2331 79.7252 51.0115 79.8719 50.7678 79.9714C50.5242 80.071 50.2632 80.1214 50 80.1199Z" fill="#693CC5"/>
<path d="M38.7566 64.0627L35.9282 66.8911L42.476 73.4389L45.3045 70.6105L38.7566 64.0627Z" fill="#693CC5"/>
<path d="M32.652 57.9553L29.8236 60.7837L32.652 63.6121L35.4805 60.7837L32.652 57.9553Z" fill="#693CC5"/>
</svg>
