<svg width="100" height="100" viewBox="0 0 100 100" fill="none" xmlns="http://www.w3.org/2000/svg">
<g clip-path="url(#clip0_0_204)">
<path d="M100 0H0V100H100V0Z" fill="#693CC5"/>
<path d="M61.52 80.8932L59.1466 79.6665C60.4114 77.2613 61.4256 74.7324 62.1733 72.1198L64.7333 72.8665C63.9373 75.6442 62.8607 78.3336 61.52 80.8932ZM64 56.4798C63.5387 49.0139 61.1148 41.8021 56.9733 35.5732L59.2 34.1198C63.6014 40.7327 66.1772 48.3912 66.6666 56.3198L64 56.4798ZM46.4133 24.3065C44.4782 22.8614 42.4165 21.594 40.2533 20.5198L41.4666 18.1465C43.7694 19.2794 45.965 20.6182 48.0266 22.1465L46.4133 24.3065Z" fill="white"/>
<path d="M57.3333 59.8667C53.1247 55.6867 48.0367 52.4981 42.4399 50.5333L43.2666 48C49.2274 50.0921 54.6474 53.4854 59.1333 57.9333L57.3333 59.8667Z" fill="white"/>
<path d="M68.32 75.7865C67.8267 74.4531 67.2667 73.2265 66.6533 71.9865L69.04 70.7998C69.6977 72.1026 70.2895 73.4376 70.8133 74.7998L68.32 75.7865Z" fill="white"/>
<path d="M60.7599 81.5329L59.9066 79.0129C63.1008 77.9365 66.0897 76.3271 68.7466 74.2529L70.3866 76.3596C67.493 78.6154 64.238 80.3646 60.7599 81.5329Z" fill="white"/>
<path d="M18.3732 49.3329L17.7599 46.7462C20.7164 46.0222 23.7434 45.6242 26.7866 45.5596L26.8532 48.2262C23.9947 48.2848 21.1511 48.6559 18.3732 49.3329Z" fill="white"/>
<path d="M40.24 40.8534L38 39.4C39.9572 36.2212 42.3695 33.3463 45.16 30.8667L46.92 32.88C44.3141 35.1956 42.0633 37.8822 40.24 40.8534Z" fill="white"/>
<path d="M60.0666 25.0396L59.1599 22.5329C61.1668 21.7806 63.2313 21.192 65.3332 20.7729L65.8266 23.4396C63.8654 23.8117 61.9387 24.3469 60.0666 25.0396Z" fill="white"/>
<path d="M33.6667 78.6664C31.4875 73.609 30.3232 68.1727 30.24 62.6664C30.2841 60.5447 30.5613 58.4343 31.0667 56.3731C31.16 55.9064 31.2667 55.4264 31.36 54.9331L34.0267 55.4531C33.9333 55.9598 33.8267 56.4398 33.7333 56.9198C33.2674 58.8015 33.0081 60.7285 32.96 62.6664C33.0204 67.8394 34.0987 72.9499 36.1333 77.7064L33.6667 78.6664Z" fill="white"/>
<path d="M50 83.3331C41.1594 83.3331 32.6809 79.8212 26.4297 73.57C20.1785 67.3188 16.6666 58.8403 16.6666 49.9998C16.6666 49.3198 16.6666 48.6665 16.7333 47.9865C17.1454 41.1644 19.6445 34.6339 23.8921 29.2797C28.1397 23.9255 33.9305 20.0063 40.48 18.0531C44.7564 16.7812 49.2446 16.3808 53.6787 16.8755C58.1127 17.3702 62.4024 18.75 66.2933 20.9331C71.0959 23.626 75.1567 27.4666 78.1128 32.1119C81.0689 36.7571 82.8283 42.0623 83.2337 47.5535C83.6392 53.0446 82.678 58.5507 80.4362 63.5797C78.1944 68.6087 74.7417 73.0041 70.3866 76.3731C64.5391 80.8677 57.3752 83.3135 50 83.3331ZM50 19.3331C47.0302 19.3427 44.0781 19.792 41.24 20.6665C35.2206 22.4627 29.8981 26.064 25.9921 30.9835C22.086 35.903 19.785 41.9033 19.4 48.1731C19.4 48.7998 19.3333 49.3998 19.3333 49.9998C19.3333 58.1331 22.5642 65.9333 28.3154 71.6844C34.0665 77.4355 41.8667 80.6665 50 80.6665C53.3669 80.6717 56.711 80.1128 59.8933 79.0131C63.093 77.9399 66.0868 76.3303 68.7466 74.2531C73.8044 70.3394 77.512 64.9424 79.3508 58.8172C81.1896 52.6921 81.0675 46.1454 79.0016 40.0931C76.9356 34.0408 73.0293 28.7858 67.8291 25.0634C62.6289 21.341 56.3951 19.3375 50 19.3331Z" fill="white"/>
<path d="M53.2399 34.5731C52.0711 34.5731 50.9286 34.2263 49.957 33.5767C48.9853 32.9271 48.2283 32.0038 47.7816 30.9237C47.3349 29.8436 47.2187 28.6553 47.4477 27.5092C47.6767 26.363 48.2406 25.3106 49.068 24.4851C49.8954 23.6595 50.9491 23.098 52.0958 22.8716C53.2424 22.6452 54.4305 22.7641 55.5095 23.2132C56.5886 23.6623 57.5102 24.4215 58.1576 25.3946C58.805 26.3677 59.1492 27.511 59.1466 28.6798C59.1466 29.4548 58.9937 30.2223 58.6967 30.9381C58.3997 31.654 57.9644 32.3043 57.4157 32.8517C56.8671 33.3991 56.2158 33.8329 55.4993 34.1283C54.7827 34.4237 54.0149 34.5749 53.2399 34.5731ZM53.2399 25.4398C52.5991 25.4398 51.9727 25.6298 51.4399 25.9858C50.907 26.3418 50.4918 26.8478 50.2465 27.4399C50.0013 28.0319 49.9371 28.6834 50.0622 29.3119C50.1872 29.9404 50.4958 30.5177 50.9489 30.9708C51.402 31.4239 51.9793 31.7325 52.6078 31.8575C53.2363 31.9825 53.8878 31.9184 54.4798 31.6731C55.0718 31.4279 55.5778 31.0126 55.9339 30.4798C56.2899 29.947 56.4799 29.3206 56.4799 28.6798C56.4799 27.8205 56.1385 26.9964 55.5309 26.3887C54.9233 25.7811 54.0992 25.4398 53.2399 25.4398Z" fill="white"/>
<path d="M35.0533 53.1732C33.885 53.1732 32.7431 52.8268 31.7717 52.1777C30.8004 51.5287 30.0433 50.6062 29.5962 49.5269C29.1492 48.4476 29.0322 47.26 29.2601 46.1142C29.488 44.9684 30.0506 43.9159 30.8766 43.0899C31.7027 42.2638 32.7552 41.7013 33.9009 41.4734C35.0467 41.2455 36.2344 41.3624 37.3137 41.8095C38.393 42.2565 39.3155 43.0136 39.9645 43.985C40.6135 44.9563 40.9599 46.0983 40.9599 47.2665C40.9564 48.832 40.333 50.3323 39.226 51.4393C38.1191 52.5462 36.6187 53.1697 35.0533 53.1732ZM35.0533 44.0265C34.4125 44.0265 33.786 44.2166 33.2532 44.5726C32.7204 44.9286 32.3051 45.4346 32.0599 46.0266C31.8147 46.6187 31.7505 47.2701 31.8755 47.8986C32.0005 48.5271 32.3091 49.1044 32.7622 49.5576C33.2154 50.0107 33.7927 50.3193 34.4212 50.4443C35.0497 50.5693 35.7011 50.5051 36.2932 50.2599C36.8852 50.0147 37.3912 49.5994 37.7472 49.0666C38.1032 48.5338 38.2933 47.9073 38.2933 47.2665C38.2968 46.8388 38.2156 46.4146 38.0543 46.0184C37.8931 45.6223 37.655 45.2619 37.3538 44.9582C37.0526 44.6546 36.6942 44.4135 36.2994 44.249C35.9045 44.0845 35.481 43.9999 35.0533 43.9999V44.0265Z" fill="white"/>
<path d="M64.3732 70.2664C63.2039 70.2691 62.0601 69.9246 61.0867 69.2765C60.1133 68.6285 59.3541 67.7062 58.9054 66.6263C58.4567 65.5465 58.3386 64.3577 58.5661 63.2107C58.7936 62.0637 59.3564 61.01 60.1833 60.1832C61.0101 59.3563 62.0638 58.7935 63.2109 58.566C64.3579 58.3385 65.5466 58.4566 66.6265 58.9053C67.7063 59.354 68.6287 60.1132 69.2767 61.0865C69.9247 62.0599 70.2692 63.2038 70.2666 64.3731C70.2666 65.9361 69.6457 67.4351 68.5405 68.5403C67.4352 69.6455 65.9363 70.2664 64.3732 70.2664ZM64.3732 61.1331C63.7319 61.1305 63.1041 61.3182 62.5696 61.6727C62.035 62.0271 61.6177 62.5322 61.3704 63.124C61.1231 63.7157 61.057 64.3676 61.1805 64.997C61.3041 65.6264 61.6116 66.2049 62.0642 66.6594C62.5167 67.1138 63.094 67.4237 63.7229 67.5498C64.3518 67.6759 65.0039 67.6126 65.5967 67.3677C66.1895 67.1229 66.6963 66.7076 67.0529 66.1745C67.4095 65.6414 67.5999 65.0145 67.5999 64.3731C67.5999 63.5161 67.2604 62.694 66.6557 62.0868C66.0509 61.4796 65.2302 61.1366 64.3732 61.1331Z" fill="white"/>
</g>
<defs>
<clipPath id="clip0_0_204">
<rect width="100" height="100" fill="white"/>
</clipPath>
</defs>
</svg>
