<svg width="100" height="100" viewBox="0 0 100 100" fill="none" xmlns="http://www.w3.org/2000/svg">
<path d="M50 97C40.7043 97 31.6173 94.2435 23.8882 89.0791C16.1591 83.9147 10.135 76.5743 6.57768 67.9861C3.02036 59.398 2.08961 49.9479 3.90311 40.8308C5.71662 31.7137 10.1929 23.3391 16.766 16.766C23.3391 10.1929 31.7137 5.71662 40.8308 3.90311C49.9479 2.08961 59.398 3.02036 67.9861 6.57768C76.5743 10.135 83.9147 16.1591 89.0791 23.8882C94.2435 31.6173 97 40.7043 97 50C96.9894 62.4619 92.0343 74.4104 83.2223 83.2223C74.4104 92.0343 62.4619 96.9894 50 97ZM50 7.00002C41.4954 7.00002 33.1818 9.52193 26.1105 14.2468C19.0392 18.9717 13.5278 25.6874 10.2732 33.5446C7.01863 41.4019 6.16709 50.0477 7.82625 58.3889C9.48542 66.7301 13.5808 74.392 19.5944 80.4056C25.6081 86.4193 33.27 90.5146 41.6111 92.1738C49.9523 93.833 58.5982 92.9814 66.4554 89.7268C74.3126 86.4723 81.0283 80.9609 85.7532 73.8895C90.4781 66.8182 93 58.5046 93 50C92.9894 38.599 88.4557 27.6679 80.3939 19.6061C72.3322 11.5444 61.4011 7.01061 50 7.00002Z" fill="#693CC5"/>
<path d="M57.9999 23.2799L49.9999 15.2799L41.9999 23.2799L39.1799 20.4599L48.5399 11.0799C48.7259 10.8924 48.9471 10.7436 49.1908 10.6421C49.4345 10.5406 49.6959 10.4883 49.9599 10.4883C50.224 10.4883 50.4854 10.5406 50.7291 10.6421C50.9728 10.7436 51.194 10.8924 51.3799 11.0799L60.7399 20.4599L57.9999 23.2799Z" fill="#693CC5"/>
<path d="M52 14H48V86H52V14Z" fill="#693CC5"/>
<path d="M50 89.5002C49.7368 89.5017 49.4758 89.4513 49.2322 89.3518C48.9885 89.2522 48.7669 89.1056 48.58 88.9202L39.22 79.5402L42 76.7202L50 84.7202L58 76.7202L60.82 79.5402L51.46 88.9202C51.2684 89.1104 51.0402 89.2599 50.7893 89.3596C50.5384 89.4592 50.2699 89.5071 50 89.5002Z" fill="#693CC5"/>
<path d="M79.54 60.7802L76.72 58.0002L84.72 50.0002L76.72 42.0002L79.54 39.1802L88.92 48.5402C89.1074 48.7261 89.2562 48.9473 89.3577 49.191C89.4593 49.4347 89.5116 49.6962 89.5116 49.9602C89.5116 50.2242 89.4593 50.4856 89.3577 50.7293C89.2562 50.973 89.1074 51.1943 88.92 51.3802L79.54 60.7802Z" fill="#693CC5"/>
<path d="M86 48H14V52H86V48Z" fill="#693CC5"/>
<path d="M20.4599 60.7802L11.0799 51.4202C10.8924 51.2343 10.7436 51.0131 10.6421 50.7694C10.5406 50.5256 10.4883 50.2642 10.4883 50.0002C10.4883 49.7362 10.5406 49.4748 10.6421 49.2311C10.7436 48.9873 10.8924 48.7661 11.0799 48.5802L20.4599 39.2202L23.2999 42.0002L15.2999 50.0002L23.2999 58.0002L20.4599 60.7802Z" fill="#693CC5"/>
</svg>
