<svg width="100" height="100" viewBox="0 0 100 100" fill="none" xmlns="http://www.w3.org/2000/svg">
<path d="M58 23.4802L50 15.5802L42.1 23.5802L39.28 20.7602L48.58 11.4402C48.766 11.2528 48.9872 11.104 49.2309 11.0024C49.4746 10.9009 49.736 10.8486 50 10.8486C50.2641 10.8486 50.5255 10.9009 50.7692 11.0024C51.0129 11.104 51.2341 11.2528 51.42 11.4402L60.72 20.7602L58 23.4802Z" fill="#693CC5"/>
<path d="M52 64.9399H48V85.7599H52V64.9399Z" fill="#693CC5"/>
<path d="M52 14.2402H48V33.4402H52V14.2402Z" fill="#693CC5"/>
<path d="M50 89.24C49.7368 89.2415 49.4759 89.1911 49.2322 89.0916C48.9885 88.992 48.7669 88.8454 48.58 88.66L39.28 79.34L42.1 76.52L50 84.52L57.9 76.52L60.72 79.34L51.42 88.66C51.2331 88.8454 51.0115 88.992 50.7678 89.0916C50.5242 89.1911 50.2632 89.2415 50 89.24Z" fill="#693CC5"/>
<path d="M79.34 60.7199L76.52 57.9999L84.52 50.0999L76.52 42.1999L79.34 39.3799L88.66 48.6799C88.8475 48.8658 88.9963 49.087 89.0978 49.3307C89.1993 49.5744 89.2516 49.8359 89.2516 50.0999C89.2516 50.3639 89.1993 50.6253 89.0978 50.869C88.9963 51.1128 88.8475 51.334 88.66 51.5199L79.34 60.7199Z" fill="#693CC5"/>
<path d="M28.54 48H14.24V52H28.54V48Z" fill="#693CC5"/>
<path d="M85.7599 48H71.3999V52H85.7599V48Z" fill="#693CC5"/>
<path d="M20.6599 60.7198L11.3399 51.4198C11.1524 51.2339 11.0036 51.0127 10.9021 50.7689C10.8006 50.5252 10.7483 50.2638 10.7483 49.9998C10.7483 49.7358 10.8006 49.4744 10.9021 49.2306C11.0036 48.9869 11.1524 48.7657 11.3399 48.5798L20.6599 39.2798L23.4799 42.0998L15.5799 49.9998L23.5799 57.8998L20.6599 60.7198Z" fill="#693CC5"/>
<path d="M50 97C40.7043 97 31.6173 94.2435 23.8882 89.0791C16.1591 83.9147 10.135 76.5743 6.57768 67.9861C3.02036 59.398 2.08961 49.9479 3.90311 40.8308C5.71662 31.7137 10.1929 23.3391 16.766 16.766C23.3391 10.1929 31.7137 5.71662 40.8308 3.90311C49.9479 2.08961 59.398 3.02036 67.9861 6.57768C76.5743 10.135 83.9147 16.1591 89.0791 23.8882C94.2435 31.6173 97 40.7043 97 50C96.9894 62.4619 92.0343 74.4104 83.2223 83.2223C74.4104 92.0343 62.4619 96.9894 50 97ZM50 7.00002C41.4954 7.00002 33.1818 9.52193 26.1105 14.2468C19.0392 18.9717 13.5278 25.6874 10.2732 33.5446C7.01863 41.4019 6.16709 50.0477 7.82625 58.3889C9.48542 66.7301 13.5808 74.392 19.5944 80.4056C25.6081 86.4193 33.27 90.5146 41.6111 92.1738C49.9523 93.833 58.5982 92.9814 66.4554 89.7268C74.3126 86.4723 81.0283 80.9609 85.7532 73.8895C90.4781 66.8182 93 58.5046 93 50C92.9894 38.599 88.4557 27.6679 80.3939 19.6061C72.3322 11.5444 61.4011 7.01061 50 7.00002Z" fill="#693CC5"/>
<path d="M60.56 61.3201H40.22C38.1525 61.3531 36.1448 60.6259 34.5779 59.2766C33.0111 57.9272 31.9941 56.0497 31.72 54.0001C31.72 53.8201 31.72 53.6601 31.72 53.4801C31.6633 51.9906 32.0565 50.5185 32.8484 49.2556C33.6404 47.9928 34.7944 46.9977 36.16 46.4001C36.2826 44.4976 36.9133 42.6629 37.9861 41.0869C39.059 39.511 40.5349 38.2517 42.26 37.4401C44.1763 36.6049 46.3018 36.3738 48.3529 36.7776C50.404 37.1814 52.2832 38.2009 53.74 39.7001C54.3709 40.293 54.9222 40.9653 55.38 41.7001C56.148 41.4111 56.9707 41.2963 57.7885 41.3641C58.6063 41.4318 59.3989 41.6804 60.1089 42.0919C60.8189 42.5034 61.4287 43.0674 61.8941 43.7433C62.3594 44.4192 62.6689 45.1901 62.8 46.0001C64.415 46.4428 65.8348 47.4146 66.832 48.7599C67.8292 50.1052 68.3461 51.7462 68.3 53.4201C68.3687 54.4485 68.2194 55.4799 67.8619 56.4466C67.5044 57.4133 66.9468 58.2937 66.2256 59.03C65.5044 59.7663 64.6358 60.342 63.6767 60.7194C62.7176 61.0969 61.6896 61.2675 60.66 61.2201L60.56 61.3201ZM46.4 40.5801C45.4992 40.5816 44.608 40.7653 43.78 41.1201C42.7178 41.6426 41.8168 42.4427 41.1725 43.4356C40.5281 44.4285 40.1644 45.5773 40.12 46.7601C40.12 47.0201 40.12 47.2801 40.12 47.5401C40.1793 48.0211 40.0619 48.5073 39.7897 48.9083C39.5175 49.3093 39.1089 49.5978 38.64 49.7201C37.7656 49.8581 36.9746 50.3186 36.423 51.0109C35.8714 51.7032 35.5992 52.577 35.66 53.4601V53.7601C35.8676 54.79 36.4337 55.7129 37.2577 56.3647C38.0816 57.0165 39.11 57.3551 40.16 57.3201H60.34C64.34 57.3201 64.34 54.4401 64.34 53.5001C64.34 52.5601 64.34 50.3801 60.64 49.6201C60.2077 49.5327 59.8165 49.3049 59.5271 48.9722C59.2378 48.6394 59.0665 48.2203 59.04 47.7801C59.04 46.3001 58.32 45.3601 57.4 45.3601C57.1725 45.37 56.9502 45.4309 56.7494 45.5382C56.5487 45.6455 56.3746 45.7965 56.24 45.9801C56.0235 46.2685 55.7331 46.4929 55.3995 46.6298C55.0659 46.7666 54.7016 46.8107 54.345 46.7574C53.9884 46.7041 53.6528 46.5554 53.3738 46.3271C53.0948 46.0987 52.8827 45.7992 52.76 45.4601C52.3808 44.361 51.7665 43.3577 50.96 42.5201C49.7509 41.3039 48.1147 40.6079 46.4 40.5801Z" fill="#693CC5"/>
</svg>
