<svg width="100" height="100" viewBox="0 0 100 100" fill="none" xmlns="http://www.w3.org/2000/svg">
<path d="M97 97H3V3H97V97ZM7 93H93V7H7V93Z" fill="#693CC5"/>
<path d="M67 67H33V33H67V67ZM37 63H63V37H37V63Z" fill="#693CC5"/>
<path d="M93.9999 61.3998C84.866 56.3717 74.934 52.9551 64.6399 51.2998L65.2799 47.2998C76.0524 49.0323 86.445 52.6116 95.9999 57.8798L93.9999 61.3998Z" fill="#693CC5"/>
<path d="M6 61.3998L4 57.8798C13.5328 52.6342 23.8975 49.0688 34.64 47.3398L35.28 51.3398C25.0159 52.9915 15.1118 56.3943 6 61.3998Z" fill="#693CC5"/>
</svg>
