<svg width="100" height="100" viewBox="0 0 100 100" fill="none" xmlns="http://www.w3.org/2000/svg">
<path d="M61.24 65.1199H38.74C38.2096 65.1199 37.7008 64.9092 37.3258 64.5341C36.9507 64.159 36.74 63.6503 36.74 63.1199V44.3799C36.74 43.8494 36.9507 43.3407 37.3258 42.9657C37.7008 42.5906 38.2096 42.3799 38.74 42.3799H61.26C61.7904 42.3799 62.2991 42.5906 62.6742 42.9657C63.0493 43.3407 63.26 43.8494 63.26 44.3799V63.1199C63.26 63.6503 63.0493 64.159 62.6742 64.5341C62.2991 64.9092 61.7904 65.1199 61.26 65.1199H61.24ZM40.76 61.1199H59.24V46.3799H40.76V61.1199Z" fill="#693CC5"/>
<path d="M57.62 44.38H53.62V39.44C53.6386 38.2647 53.234 37.1219 52.48 36.22C52.1788 35.8566 51.8036 35.5616 51.3794 35.3547C50.9552 35.1478 50.4918 35.0337 50.02 35.02C49.4921 35.0651 48.9784 35.2147 48.5087 35.46C48.0391 35.7053 47.6228 36.0414 47.2842 36.4489C46.9455 36.8564 46.6912 37.3271 46.536 37.8337C46.3808 38.3404 46.3278 38.8728 46.38 39.4V44.36H42.38V39.38C42.2823 37.261 43.0301 35.19 44.4591 33.6223C45.888 32.0545 47.8811 31.1185 50 31.02C51.0422 31.0317 52.0695 31.2683 53.0119 31.7136C53.9542 32.1588 54.7893 32.8023 55.46 33.6C56.853 35.2322 57.6063 37.3144 57.58 39.46L57.62 44.38Z" fill="#693CC5"/>
<path d="M50 97C40.7043 97 31.6173 94.2435 23.8882 89.0791C16.1591 83.9147 10.135 76.5743 6.57768 67.9861C3.02036 59.398 2.08961 49.9479 3.90311 40.8308C5.71662 31.7137 10.1929 23.3391 16.766 16.766C23.3391 10.1929 31.7137 5.71662 40.8308 3.90311C49.9479 2.08961 59.398 3.02036 67.9861 6.57768C76.5743 10.135 83.9147 16.1591 89.0791 23.8882C94.2435 31.6173 97 40.7043 97 50C96.9894 62.4619 92.0343 74.4104 83.2223 83.2223C74.4104 92.0343 62.4619 96.9894 50 97ZM50 7.00002C41.4954 7.00002 33.1818 9.52193 26.1105 14.2468C19.0392 18.9717 13.5278 25.6874 10.2732 33.5446C7.01863 41.4019 6.16709 50.0477 7.82625 58.3889C9.48542 66.7301 13.5808 74.392 19.5944 80.4056C25.6081 86.4193 33.27 90.5146 41.6111 92.1738C49.9523 93.833 58.5982 92.9814 66.4554 89.7268C74.3126 86.4723 81.0283 80.9609 85.7532 73.8895C90.4781 66.8182 93 58.5046 93 50C92.9894 38.599 88.4557 27.6679 80.3939 19.6061C72.3322 11.5444 61.4011 7.01061 50 7.00002Z" fill="#693CC5"/>
<path d="M14.3799 59.7598C14.0815 59.7623 13.7867 59.6938 13.5199 59.5598C13.1796 59.3977 12.892 59.1427 12.6903 58.8242C12.4886 58.5058 12.381 58.1368 12.3799 57.7598V42.2398C12.381 41.8628 12.4886 41.4938 12.6903 41.1753C12.892 40.8569 13.1796 40.6019 13.5199 40.4398C13.8642 40.2742 14.2487 40.2107 14.628 40.2568C15.0072 40.3029 15.3653 40.4566 15.6599 40.6998L24.9599 48.4598C25.1864 48.6475 25.3687 48.8828 25.4939 49.149C25.619 49.4151 25.6839 49.7057 25.6839 49.9998C25.6839 50.2939 25.619 50.5844 25.4939 50.8506C25.3687 51.1168 25.1864 51.3521 24.9599 51.5398L15.6599 59.2998C15.3001 59.598 14.8472 59.7607 14.3799 59.7598ZM16.3799 46.5198V53.4798L20.5599 49.9998L16.3799 46.5198Z" fill="#693CC5"/>
<path d="M85.62 59.7598C85.1527 59.7607 84.6998 59.598 84.34 59.2998L75.04 51.5398C74.8135 51.3521 74.6312 51.1168 74.5061 50.8506C74.381 50.5844 74.3161 50.2939 74.3161 49.9998C74.3161 49.7057 74.381 49.4151 74.5061 49.149C74.6312 48.8828 74.8135 48.6475 75.04 48.4598L84.34 40.6998C84.6346 40.4566 84.9927 40.3029 85.372 40.2568C85.7512 40.2107 86.1357 40.2742 86.48 40.4398C86.8204 40.6019 87.108 40.8569 87.3097 41.1753C87.5114 41.4938 87.619 41.8628 87.62 42.2398V57.7598C87.619 58.1368 87.5114 58.5058 87.3097 58.8242C87.108 59.1427 86.8204 59.3977 86.48 59.5598C86.2133 59.6938 85.9185 59.7623 85.62 59.7598ZM79.44 49.9998L83.62 53.4798V46.5198L79.44 49.9998Z" fill="#693CC5"/>
<path d="M31.3799 25.6201H27.3799V74.3801H31.3799V25.6201Z" fill="#693CC5"/>
<path d="M72.6201 25.6201H68.6201V74.3801H72.6201V25.6201Z" fill="#693CC5"/>
</svg>
