<svg width="100" height="100" viewBox="0 0 100 100" fill="none" xmlns="http://www.w3.org/2000/svg">
<path d="M61.3399 97.0001C61.1342 97.0289 60.9256 97.0289 60.7199 97.0001C60.3022 96.8645 59.9408 96.5952 59.6913 96.2337C59.4419 95.8723 59.3184 95.4388 59.3399 95.0001V80.1201H8.0999C6.73295 80.1255 5.41929 79.5903 4.44525 78.6313C3.4712 77.6722 2.91573 76.367 2.8999 75.0001L3.0999 25.0001C3.11047 23.6351 3.66152 22.3299 4.63239 21.3702C5.60326 20.4106 6.91483 19.8748 8.2799 19.8801H59.5199L59.3399 5.02014C59.3357 4.59866 59.4647 4.18661 59.7086 3.84283C59.9524 3.49905 60.2987 3.2411 60.6979 3.10581C61.0971 2.97053 61.5288 2.96483 61.9314 3.08952C62.3341 3.21421 62.687 3.46291 62.9399 3.80014L96.6999 48.8001C96.9595 49.1463 97.0999 49.5674 97.0999 50.0001C97.0999 50.4329 96.9595 50.8539 96.6999 51.2001L62.9399 96.2001C62.7536 96.4485 62.512 96.6501 62.2343 96.789C61.9566 96.9278 61.6504 97.0001 61.3399 97.0001ZM8.2799 23.8801C8.12853 23.8748 7.97762 23.8997 7.83597 23.9533C7.69433 24.007 7.56479 24.0883 7.45493 24.1926C7.34508 24.2969 7.2571 24.422 7.19614 24.5606C7.13518 24.6993 7.10247 24.8487 7.0999 25.0001L6.8999 75.0001C6.90507 75.1525 6.94021 75.3023 7.00333 75.4411C7.06645 75.5799 7.1563 75.7049 7.26775 75.8089C7.3792 75.9129 7.51006 75.9939 7.65284 76.0473C7.79563 76.1007 7.94755 76.1255 8.0999 76.1201H61.3399C61.8703 76.1201 62.379 76.3308 62.7541 76.7059C63.1292 77.081 63.3399 77.5897 63.3399 78.1201V89.0001L92.5999 50.0001L63.4199 11.1001L63.5399 21.8601C63.5399 22.3906 63.3292 22.8993 62.9541 23.2743C62.579 23.6494 62.0703 23.8601 61.5399 23.8601L8.2799 23.8801Z" fill="#693CC5"/>
<path d="M16.3401 72.6199H9.6001V68.6199H14.3401V31.3799H9.6001V27.3799H16.3401C16.8705 27.3799 17.3792 27.5906 17.7543 27.9657C18.1294 28.3407 18.3401 28.8494 18.3401 29.3799V70.6199C18.3401 71.1503 18.1294 71.659 17.7543 72.0341C17.3792 72.4092 16.8705 72.6199 16.3401 72.6199Z" fill="#693CC5"/>
<path d="M63.2201 68.8801H53.8401C53.3097 68.8801 52.8009 68.6694 52.4259 68.2943C52.0508 67.9193 51.8401 67.4105 51.8401 66.8801V63.2401H48.3401V66.8801C48.3401 67.4105 48.1294 67.9193 47.7543 68.2943C47.3792 68.6694 46.8705 68.8801 46.3401 68.8801H27.6001C27.0697 68.8801 26.5609 68.6694 26.1859 68.2943C25.8108 67.9193 25.6001 67.4105 25.6001 66.8801V63.2401H23.8401C23.3097 63.2401 22.8009 63.0294 22.4259 62.6543C22.0508 62.2793 21.8401 61.7705 21.8401 61.2401V33.1201C21.8401 32.5897 22.0508 32.081 22.4259 31.7059C22.8009 31.3308 23.3097 31.1201 23.8401 31.1201H70.7201C71.2505 31.1201 71.7592 31.3308 72.1343 31.7059C72.5094 32.081 72.7201 32.5897 72.7201 33.1201V61.2401C72.7201 61.7705 72.5094 62.2793 72.1343 62.6543C71.7592 63.0294 71.2505 63.2401 70.7201 63.2401H65.2201V66.8801C65.2201 67.4105 65.0094 67.9193 64.6343 68.2943C64.2592 68.6694 63.7505 68.8801 63.2201 68.8801ZM55.8401 64.8801H61.2201V61.2401C61.2201 60.7097 61.4308 60.201 61.8059 59.8259C62.181 59.4508 62.6897 59.2401 63.2201 59.2401H68.7201V35.1201H25.8401V59.2401H27.6001C28.1305 59.2401 28.6392 59.4508 29.0143 59.8259C29.3894 60.201 29.6001 60.7097 29.6001 61.2401V64.8801H44.3401V61.2401C44.3401 60.7097 44.5508 60.201 44.9259 59.8259C45.3009 59.4508 45.8097 59.2401 46.3401 59.2401H53.8401C54.3705 59.2401 54.8792 59.4508 55.2543 59.8259C55.6294 60.201 55.8401 60.7097 55.8401 61.2401V64.8801Z" fill="#693CC5"/>
<path d="M59.48 55.7601H33.22C32.6895 55.7601 32.1808 55.5494 31.8058 55.1743C31.4307 54.7993 31.22 54.2905 31.22 53.7601V40.6201C31.22 40.0897 31.4307 39.581 31.8058 39.2059C32.1808 38.8308 32.6895 38.6201 33.22 38.6201H59.48C60.0104 38.6201 60.5191 38.8308 60.8942 39.2059C61.2693 39.581 61.48 40.0897 61.48 40.6201V53.7601C61.48 54.2905 61.2693 54.7993 60.8942 55.1743C60.5191 55.5494 60.0104 55.7601 59.48 55.7601ZM35.22 51.7601H57.48V42.6201H35.22V51.7601Z" fill="#693CC5"/>
<path d="M48.3401 40.6201H44.3401V53.7401H48.3401V40.6201Z" fill="#693CC5"/>
</svg>
