<svg width="100" height="100" viewBox="0 0 100 100" fill="none" xmlns="http://www.w3.org/2000/svg">
<g clip-path="url(#clip0_0_460)">
<path d="M100 0H0V100H100V0Z" fill="#693CC5"/>
<path d="M36.3867 57.2531C38.0678 57.8489 39.8308 58.1818 41.6134 58.2398C42.7586 58.333 43.8991 58.0112 44.8267 57.3331C45.1948 56.9965 45.4847 56.5833 45.6759 56.1225C45.8671 55.6618 45.955 55.1648 45.9334 54.6664C45.9818 54.1475 45.9136 53.6244 45.7337 53.1353C45.5537 52.6462 45.2666 52.2035 44.8934 51.8398C43.8882 51.1681 42.6847 50.8578 41.48 50.9598C40.0541 50.9727 38.6298 51.0617 37.2134 51.2264V49.3331L37.7334 41.1064H47.7734V43.3331H40L39.64 48.9198C40.5191 48.7506 41.4116 48.6614 42.3067 48.6531C44.001 48.5528 45.6685 49.1118 46.96 50.2131C47.5277 50.7742 47.9698 51.4495 48.2571 52.1942C48.5444 52.9389 48.6704 53.7361 48.6267 54.5331C48.6562 55.3602 48.4961 56.183 48.1587 56.9387C47.8213 57.6944 47.3155 58.3629 46.68 58.8931C45.2234 60.0545 43.3943 60.6468 41.5334 60.5598C39.7234 60.5692 37.9323 60.1919 36.28 59.4531L36.3867 57.2531Z" fill="white"/>
<path d="M58.1734 49.2534H58.4533H58.6667C60.2522 49.1427 61.8192 49.6491 63.04 50.6667C63.582 51.1766 64.0061 51.7988 64.2825 52.4898C64.5589 53.1807 64.6809 53.9237 64.64 54.6667C64.661 55.4837 64.4939 56.2945 64.1518 57.0365C63.8096 57.7786 63.3015 58.4322 62.6667 58.9467C61.1717 60.0789 59.3265 60.65 57.4533 60.5601C55.6928 60.5497 53.9536 60.1728 52.3467 59.4534V57.2534C53.9862 57.8497 55.7097 58.1827 57.4533 58.2401C58.6051 58.3171 59.7472 57.9867 60.68 57.3067C61.0597 56.9787 61.3584 56.5673 61.5527 56.1047C61.7469 55.6421 61.8316 55.1408 61.8 54.6401C61.8 52.4267 60.4 51.3201 57.6 51.3201C56.7093 51.3153 55.8191 51.3598 54.9333 51.4534V49.6401L60.7067 43.3334H52.64V41.0801H63.84V43.2534L58.1734 49.2534Z" fill="white"/>
<path d="M50 75.3332C49.7652 75.3308 49.5352 75.2664 49.3333 75.1465C45.0121 72.5884 40.2868 70.7848 35.36 69.8132C32.5467 69.3065 23.36 67.1465 23.36 60.4799C23.36 57.4665 24.52 55.4665 26.0267 52.9332C28.2344 49.6957 29.4866 45.9022 29.64 41.9865C29.6262 38.2295 28.5239 34.5569 26.4667 31.4132C26.3161 31.1764 26.244 30.8982 26.2608 30.6181C26.2776 30.338 26.3823 30.0703 26.56 29.8532L28.6933 27.1865C28.8921 26.9414 29.1713 26.7748 29.4813 26.7162C29.7914 26.6576 30.1122 26.7109 30.3867 26.8665C33.1222 28.4547 36.2236 29.3047 39.3867 29.3332C42.9136 29.3844 46.3634 28.2999 49.2266 26.2399C49.4525 26.0791 49.7228 25.9927 50 25.9927C50.2772 25.9927 50.5475 26.0791 50.7733 26.2399C53.6365 28.2999 57.0864 29.3844 60.6133 29.3332C63.7866 29.3052 66.8978 28.4505 69.64 26.8532C69.9145 26.6975 70.2352 26.6443 70.5453 26.7029C70.8553 26.7615 71.1346 26.9281 71.3333 27.1732L73.4666 29.8399C73.6444 30.057 73.7491 30.3247 73.7658 30.6047C73.7826 30.8848 73.7105 31.1631 73.56 31.3999C71.5013 34.543 70.3989 38.2159 70.3866 41.9732C70.3866 46.7065 72.3066 49.9732 73.9866 52.9199C75.4666 55.4532 76.6533 57.4532 76.6533 60.4665C76.6533 67.1332 67.48 69.3332 64.6533 69.7999C59.7265 70.7715 55.0012 72.575 50.68 75.1332C50.4755 75.26 50.2405 75.3291 50 75.3332ZM29.2 30.6665C31.2105 34.0472 32.2744 37.9065 32.28 41.8399C32.28 47.2932 30.08 51.0799 28.28 54.1199C26.9466 56.4799 26.0133 58.0399 26.0133 60.3332C26.0133 65.0799 34.16 66.7865 35.8 67.0799C40.7841 68.0713 45.572 69.873 49.9733 72.4132C54.3746 69.873 59.1625 68.0713 64.1466 67.0799C65.7866 66.7865 73.9333 65.0799 73.9333 60.3332C73.9333 58.0399 73.0266 56.4799 71.6666 54.1199C69.8933 51.0799 67.6666 47.2932 67.6666 41.8399C67.6884 37.9016 68.7707 34.0419 70.8 30.6665L69.96 29.6265C67.0734 31.1166 63.8751 31.9025 60.6266 31.9199C56.847 31.9676 53.1371 30.901 49.96 28.8532C46.7829 30.901 43.0729 31.9676 39.2933 31.9199C36.0448 31.9025 32.8466 31.1166 29.96 29.6265L29.2 30.6665Z" fill="white"/>
<path d="M50 83.3333C49.6947 83.3346 49.3981 83.2311 49.16 83.04C44.6746 79.8047 39.5671 77.5347 34.16 76.3733C23.2 74.4 16.6533 68.3733 16.6533 60.3733C16.761 56.4701 17.9874 52.6798 20.1867 49.4533C21.64 46.96 22.8533 44.8 22.8533 41.88C22.7723 39.9446 22.3006 38.0456 21.4666 36.2972C20.6325 34.5489 19.4533 32.9874 18 31.7067C17.8499 31.5953 17.7249 31.4536 17.6331 31.2907C17.5413 31.1279 17.4848 30.9476 17.4672 30.7616C17.4496 30.5755 17.4713 30.3878 17.531 30.2106C17.5906 30.0335 17.6868 29.8709 17.8133 29.7333C17.8133 29.64 25.64 20.2533 27.4133 17.8133C27.532 17.6464 27.6876 17.509 27.8679 17.4119C28.0483 17.3148 28.2486 17.2605 28.4533 17.2533C28.656 17.2363 28.86 17.2659 29.0495 17.3399C29.239 17.4138 29.409 17.5302 29.5467 17.68C30.7603 19.1195 32.256 20.2951 33.9415 21.1344C35.627 21.9737 37.4665 22.4589 39.3467 22.56C43.0667 22.56 46.0133 20.9067 48.8533 17.2267C48.9885 17.0643 49.1576 16.9337 49.3489 16.8441C49.5401 16.7545 49.7488 16.708 49.96 16.708C50.1712 16.708 50.3798 16.7545 50.5711 16.8441C50.7623 16.9337 50.9315 17.0643 51.0667 17.2267C53.92 20.96 56.8533 22.56 60.5733 22.56C62.4535 22.4589 64.293 21.9737 65.9785 21.1344C67.6639 20.2951 69.1596 19.1195 70.3733 17.68C70.5109 17.5302 70.681 17.4138 70.8705 17.3399C71.06 17.2659 71.2639 17.2363 71.4667 17.2533C71.6714 17.2605 71.8717 17.3148 72.0521 17.4119C72.2324 17.509 72.388 17.6464 72.5067 17.8133C74.28 20.2533 82.04 29.64 82.1067 29.7333C82.2284 29.8729 82.3197 30.0362 82.3747 30.213C82.4298 30.3897 82.4475 30.576 82.4267 30.76C82.3848 31.1287 82.2035 31.4673 81.92 31.7067C80.4667 32.9874 79.2875 34.5489 78.4534 36.2972C77.6194 38.0456 77.1476 39.9446 77.0667 41.88C77.0667 44.8 78.32 46.96 79.7333 49.4533C81.9326 52.6798 83.159 56.4701 83.2667 60.3733C83.2667 68.3733 76.72 74.4 65.76 76.3733C60.354 77.5256 55.2491 79.7965 50.7733 83.04C50.5532 83.2173 50.2823 83.32 50 83.3333ZM20.8133 30.52C23.8285 33.5493 25.5658 37.6204 25.6667 41.8933C25.6667 45.56 24.1067 48.2533 22.6 50.8533C20.9733 53.6667 19.4267 56.3067 19.4267 60.3867C19.4267 70.1467 31.08 73 34.6533 73.64C40.16 74.7805 45.3798 77.0208 50 80.2267C54.6162 77.0224 59.8313 74.7822 65.3333 73.64C68.9067 73 80.56 70.1467 80.56 60.3867C80.56 56.3067 79.0133 53.72 77.3867 50.8533C75.88 48.1867 74.32 45.52 74.32 41.8933C74.4209 37.6204 76.1581 33.5493 79.1733 30.52C77.4267 28.4 73.3867 23.48 71.2667 20.7467C68.421 23.5759 64.6104 25.2239 60.6 25.36C58.5484 25.3659 56.5222 24.9056 54.6744 24.0141C52.8266 23.1225 51.2055 21.8229 49.9333 20.2133C48.6612 21.8229 47.04 23.1225 45.1922 24.0141C43.3444 24.9056 41.3183 25.3659 39.2667 25.36C35.2562 25.2239 31.4457 23.5759 28.6 20.7467C26.6667 23.48 22.56 28.4 20.8133 30.52Z" fill="white"/>
</g>
<defs>
<clipPath id="clip0_0_460">
<rect width="100" height="100" fill="white"/>
</clipPath>
</defs>
</svg>
