<svg width="100" height="100" viewBox="0 0 100 100" fill="none" xmlns="http://www.w3.org/2000/svg">
<path d="M70.62 76.38H29.3799C28.8495 76.38 28.3408 76.1693 27.9657 75.7942C27.5907 75.4191 27.3799 74.9104 27.3799 74.38V42.5C27.3799 41.9696 27.5907 41.4609 27.9657 41.0858C28.3408 40.7107 28.8495 40.5 29.3799 40.5H70.62C71.1504 40.5 71.6591 40.7107 72.0342 41.0858C72.4092 41.4609 72.62 41.9696 72.62 42.5V74.38C72.62 74.9104 72.4092 75.4191 72.0342 75.7942C71.6591 76.1693 71.1504 76.38 70.62 76.38ZM31.3799 72.38H68.62V44.52H31.3799V72.38Z" fill="#693CC5"/>
<path d="M52 58.54H48V68.62H52V58.54Z" fill="#693CC5"/>
<path d="M63.22 42.1001H59.22V33.1801C59.2215 30.6399 58.2561 28.1944 56.52 26.3401C55.6834 25.4512 54.6728 24.7439 53.5512 24.2622C52.4295 23.7805 51.2207 23.5347 50 23.5401C47.5121 23.5822 45.1419 24.6069 43.407 26.3906C41.672 28.1743 40.7133 30.5719 40.74 33.0601V42.0801H36.74V33.0601C36.7081 29.5095 38.0865 26.0915 40.5727 23.5565C43.0589 21.0216 46.4496 19.577 50 19.5401C51.7499 19.5371 53.4821 19.8902 55.0913 20.5778C56.7004 21.2655 58.1528 22.2733 59.36 23.5401C61.8212 26.1278 63.1833 29.5689 63.16 33.1401L63.22 42.1001Z" fill="#693CC5"/>
<path d="M50 97C40.7043 97 31.6173 94.2435 23.8882 89.0791C16.1591 83.9147 10.135 76.5743 6.57768 67.9861C3.02036 59.398 2.08961 49.9479 3.90311 40.8308C5.71662 31.7137 10.1929 23.3391 16.766 16.766C23.3391 10.1929 31.7137 5.71662 40.8308 3.90311C49.9479 2.08961 59.398 3.02036 67.9861 6.57768C76.5743 10.135 83.9147 16.1591 89.0791 23.8882C94.2435 31.6173 97 40.7043 97 50C96.9894 62.4619 92.0343 74.4104 83.2223 83.2223C74.4104 92.0343 62.4619 96.9894 50 97ZM50 7.00002C41.4954 7.00002 33.1818 9.52193 26.1105 14.2468C19.0392 18.9717 13.5278 25.6874 10.2732 33.5446C7.01863 41.4019 6.16709 50.0477 7.82625 58.3889C9.48542 66.7301 13.5808 74.392 19.5944 80.4056C25.6081 86.4193 33.27 90.5146 41.6111 92.1738C49.9523 93.833 58.5982 92.9814 66.4554 89.7268C74.3126 86.4723 81.0283 80.9609 85.7532 73.8895C90.4781 66.8182 93 58.5046 93 50C92.9894 38.599 88.4557 27.6679 80.3939 19.6061C72.3322 11.5444 61.4011 7.01061 50 7.00002Z" fill="#693CC5"/>
<path d="M50 62.3199C48.6741 62.3239 47.3767 61.9343 46.2723 61.2005C45.1678 60.4667 44.306 59.4217 43.7958 58.1978C43.2856 56.9739 43.1501 55.6261 43.4063 54.3251C43.6626 53.0241 44.2991 51.8284 45.2353 50.8894C46.1716 49.9504 47.3653 49.3103 48.6656 49.0501C49.9658 48.79 51.3139 48.9215 52.5394 49.428C53.7648 49.9345 54.8124 50.7933 55.5495 51.8955C56.2866 52.9977 56.68 54.2939 56.68 55.6199C56.68 57.3934 55.9769 59.0945 54.7247 60.3505C53.4726 61.6064 51.7735 62.3146 50 62.3199ZM50 52.9399C49.4643 52.9359 48.9396 53.0914 48.4925 53.3866C48.0454 53.6817 47.6963 54.1032 47.4895 54.5974C47.2826 55.0915 47.2275 55.6361 47.331 56.1617C47.4346 56.6873 47.6921 57.1702 48.0709 57.549C48.4497 57.9278 48.9326 58.1854 49.4582 58.2889C49.9839 58.3924 50.5284 58.3373 51.0225 58.1305C51.5167 57.9236 51.9382 57.5745 52.2333 57.1274C52.5285 56.6803 52.684 56.1556 52.68 55.6199C52.68 54.9091 52.3977 54.2274 51.8951 53.7248C51.3925 53.2222 50.7108 52.9399 50 52.9399Z" fill="#693CC5"/>
</svg>
