<svg width="100" height="100" viewBox="0 0 100 100" fill="none" xmlns="http://www.w3.org/2000/svg">
<path d="M50 97C40.7043 97 31.6173 94.2435 23.8882 89.0791C16.1591 83.9147 10.135 76.5743 6.57768 67.9861C3.02036 59.398 2.08961 49.9479 3.90311 40.8308C5.71662 31.7137 10.1929 23.3391 16.766 16.766C23.3391 10.1929 31.7137 5.71662 40.8308 3.90311C49.9479 2.08961 59.398 3.02036 67.9861 6.57768C76.5743 10.135 83.9147 16.1591 89.0791 23.8882C94.2435 31.6173 97 40.7043 97 50C96.9894 62.4619 92.0343 74.4104 83.2223 83.2223C74.4104 92.0343 62.4619 96.9894 50 97ZM50 7.00002C41.4954 7.00002 33.1818 9.52193 26.1105 14.2468C19.0392 18.9717 13.5278 25.6874 10.2732 33.5446C7.01863 41.4019 6.16709 50.0477 7.82625 58.3889C9.48542 66.7301 13.5808 74.392 19.5944 80.4056C25.6081 86.4193 33.27 90.5146 41.6111 92.1738C49.9523 93.833 58.5982 92.9814 66.4554 89.7268C74.3126 86.4723 81.0283 80.9609 85.7532 73.8895C90.4781 66.8182 93 58.5046 93 50C92.9894 38.599 88.4557 27.6679 80.3939 19.6061C72.3322 11.5444 61.4011 7.01061 50 7.00002Z" fill="#693CC5"/>
<path d="M57.7999 24.9199L49.9999 15.8399L42.1999 24.9199L39.1799 22.3199L48.4799 11.4599C48.6677 11.2404 48.9008 11.0641 49.1632 10.9432C49.4256 10.8224 49.711 10.7598 49.9999 10.7598C50.2888 10.7598 50.5743 10.8224 50.8367 10.9432C51.0991 11.0641 51.3322 11.2404 51.5199 11.4599L60.8199 22.3199L57.7999 24.9199Z" fill="#693CC5"/>
<path d="M52 14.2402H48V85.7402H52V14.2402Z" fill="#693CC5"/>
<path d="M50 89.24C49.7368 89.2415 49.4759 89.1911 49.2322 89.0916C48.9885 88.992 48.7669 88.8454 48.58 88.66L39.28 79.34L42.1 76.52L50 84.52L57.9 76.52L60.72 79.34L51.42 88.66C51.2331 88.8454 51.0115 88.992 50.7678 89.0916C50.5242 89.1911 50.2632 89.2415 50 89.24Z" fill="#693CC5"/>
<path d="M36.0001 60.7198L33.0601 57.9998L40.9601 49.9998L33.0601 42.0998L36.0001 39.2798L45.3001 48.5798C45.4875 48.7657 45.6363 48.9869 45.7378 49.2306C45.8394 49.4744 45.8917 49.7358 45.8917 49.9998C45.8917 50.2638 45.8394 50.5252 45.7378 50.7689C45.6363 51.0127 45.4875 51.2339 45.3001 51.4198L36.0001 60.7198Z" fill="#693CC5"/>
<path d="M64.1001 60.7198L54.8001 51.4198C54.6126 51.2339 54.4638 51.0127 54.3623 50.7689C54.2608 50.5252 54.2085 50.2638 54.2085 49.9998C54.2085 49.7358 54.2608 49.4744 54.3623 49.2306C54.4638 48.9869 54.6126 48.7657 54.8001 48.5798L64.1001 39.2798L66.9401 42.0998L59.0401 49.9998L66.9401 57.9998L64.1001 60.7198Z" fill="#693CC5"/>
<path d="M90.34 48H56.2V52H90.34V48Z" fill="#693CC5"/>
<path d="M43.7999 48H9.65991V52H43.7999V48Z" fill="#693CC5"/>
</svg>
