<svg width="100" height="100" viewBox="0 0 100 100" fill="none" xmlns="http://www.w3.org/2000/svg">
<path d="M50 97.5202L48.78 96.5802C42.4774 92.0298 35.2996 88.8359 27.7 87.2002C12.24 84.4402 3 76.0002 3 64.6402C3.15411 59.1334 4.88986 53.7873 8 49.2402C10 45.7402 11.78 42.7202 11.78 38.6202C11.6796 35.8993 11.0247 33.2275 9.85547 30.7686C8.68619 28.3097 7.02715 26.1154 4.98 24.3202L3.4 23.0402L4.7 21.4802C4.7 21.3402 15.72 8.12023 18.22 4.70023L19.64 2.70023L21.3 4.46023C23.0035 6.4828 25.1032 8.13494 27.4698 9.31478C29.8364 10.4946 32.4195 11.1771 35.06 11.3202C40.28 11.3202 44.4 8.98023 48.42 3.74023L50 1.74023L51.58 3.74023C55.58 8.98023 59.72 11.3202 64.94 11.3202C67.5805 11.1771 70.1636 10.4946 72.5302 9.31478C74.8968 8.13494 76.9965 6.4828 78.7 4.46023L80.36 2.70023L81.78 4.70023C84.28 8.12023 95.2 21.3402 95.3 21.4802L96.6 23.0402L95.02 24.3202C92.9827 26.1237 91.3304 28.3198 90.162 30.7769C88.9936 33.2341 88.333 35.9018 88.22 38.6202C88.22 42.7202 89.98 45.7402 92 49.2402C95.1101 53.7873 96.8459 59.1334 97 64.6402C97 76.0002 87.76 84.4402 72.3 87.2002C64.7004 88.8359 57.5226 92.0298 51.22 96.5802L50 97.5202ZM8.96 22.5802C13.1925 26.8474 15.6326 32.5718 15.78 38.5802C15.5485 43.1081 14.0519 47.4803 11.46 51.2002C9.16 55.2002 7 58.8802 7 64.6002C7 78.3202 23.38 82.3202 28.4 83.2402C36.154 84.8504 43.5016 88.014 50 92.5402C56.5016 88.0281 63.8491 84.8783 71.6 83.2802C76.62 82.3602 93 78.3602 93 64.6402C93 58.9202 90.84 55.2002 88.54 51.2402C85.9481 47.5203 84.4515 43.1481 84.22 38.6202C84.3674 32.6118 86.8075 26.8874 91.04 22.6202C88.58 19.6002 82.94 12.7402 80 8.90023C75.985 12.8675 70.6213 15.1744 64.98 15.3602C62.1003 15.3639 59.2571 14.7163 56.663 13.4661C54.0689 12.2158 51.7911 10.3951 50 8.14023C48.2131 10.3898 45.9417 12.2073 43.355 13.4574C40.7683 14.7074 37.9329 15.3579 35.06 15.3602C29.4047 15.1844 24.025 12.8767 20 8.90023C17.06 12.7402 11.42 19.6002 8.96 22.5802Z" fill="#693CC5"/>
</svg>
