<svg width="100" height="100" viewBox="0 0 100 100" fill="none" xmlns="http://www.w3.org/2000/svg">
<path d="M50 97C40.7043 97 31.6173 94.2435 23.8882 89.0791C16.1591 83.9147 10.135 76.5743 6.57768 67.9861C3.02036 59.398 2.08961 49.9479 3.90311 40.8308C5.71662 31.7137 10.1929 23.3391 16.766 16.766C23.3391 10.1929 31.7137 5.71662 40.8308 3.90311C49.9479 2.08961 59.398 3.02036 67.9861 6.57768C76.5743 10.135 83.9147 16.1591 89.0791 23.8882C94.2435 31.6173 97 40.7043 97 50C96.9894 62.4619 92.0343 74.4104 83.2223 83.2223C74.4104 92.0343 62.4619 96.9894 50 97ZM50 7.00002C41.4954 7.00002 33.1818 9.52193 26.1105 14.2468C19.0392 18.9717 13.5278 25.6874 10.2732 33.5446C7.01863 41.4019 6.16709 50.0477 7.82625 58.3889C9.48542 66.7301 13.5808 74.392 19.5944 80.4056C25.6081 86.4193 33.27 90.5146 41.6111 92.1738C49.9523 93.833 58.5982 92.9814 66.4554 89.7268C74.3126 86.4723 81.0283 80.9609 85.7532 73.8895C90.4781 66.8182 93 58.5046 93 50C92.9894 38.599 88.4557 27.6679 80.3939 19.6061C72.3322 11.5444 61.4011 7.01061 50 7.00002Z" fill="#693CC5"/>
<path d="M72.5 78.24H64.98C64.4496 78.24 63.9409 78.0293 63.5658 77.6542C63.1907 77.2791 62.98 76.7704 62.98 76.24V37.44C59.1082 35.4489 54.8329 34.3681 50.48 34.28C45.7422 34.369 41.0964 35.6042 36.94 37.88V76.24C36.94 76.7704 36.7293 77.2791 36.3542 77.6542C35.9791 78.0293 35.4704 78.24 34.94 78.24H27.5C26.9696 78.24 26.4609 78.0293 26.0858 77.6542C25.7107 77.2791 25.5 76.7704 25.5 76.24V32.6C25.5004 32.316 25.5612 32.0354 25.6784 31.7767C25.7957 31.5181 25.9667 31.2874 26.18 31.1C33.0274 25.4991 41.6565 22.5399 50.5 22.76C58.8516 22.6118 67.0194 25.2196 73.74 30.18C73.9784 30.3683 74.1707 30.6085 74.3024 30.8823C74.434 31.156 74.5016 31.4562 74.5 31.76V76.24C74.5 76.7704 74.2893 77.2791 73.9142 77.6542C73.5391 78.0293 73.0304 78.24 72.5 78.24ZM66.98 74.24H70.5V32.74C64.6172 28.7137 57.6277 26.6168 50.5 26.74C42.9371 26.5545 35.5345 28.9374 29.5 33.5V74.24H32.94V36.64C32.9374 36.2672 33.039 35.9012 33.2334 35.5832C33.4278 35.2651 33.7071 35.0077 34.04 34.84C39.0616 31.991 44.7084 30.4248 50.48 30.28C55.7679 30.4259 60.9501 31.795 65.62 34.28H65.82C66.1672 34.4406 66.461 34.6975 66.6666 35.0201C66.8722 35.3427 66.9809 35.7174 66.98 36.1V74.24Z" fill="#693CC5"/>
</svg>
