<svg width="100" height="100" viewBox="0 0 100 100" fill="none" xmlns="http://www.w3.org/2000/svg">
<g clip-path="url(#clip0_0_369)">
<path d="M100 0H0V100H100V0Z" fill="url(#paint0_linear_0_369)"/>
<path d="M61.6533 63.8532H55.3333V61.1866H61.0133C62.0612 61.2249 63.0979 60.9611 64 60.4266C64.7559 59.9574 65.3825 59.3067 65.8226 58.5335C66.2628 57.7604 66.5025 56.8894 66.52 55.9999C66.5188 54.5969 65.9808 53.2475 65.0163 52.2285C64.0519 51.2096 62.7342 50.5982 61.3333 50.5199H51.8933C51.3608 50.5279 50.83 50.5814 50.3067 50.6799C49.3138 50.9875 48.4139 51.5392 47.6894 52.2846C46.965 53.03 46.4391 53.9453 46.16 54.9466C46.0134 55.4489 45.9415 55.97 45.9467 56.4932C45.9442 57.3844 46.1449 58.2645 46.5333 59.0666L43.8667 60.3999C43.2763 59.1876 42.975 57.8549 42.9867 56.5066C42.9841 55.7273 43.0872 54.9514 43.2933 54.1999C43.6403 52.6671 44.4392 51.2737 45.5867 50.1999C46.2676 49.5878 47.0418 49.0882 47.88 48.7199C48.8812 48.3197 49.9229 48.0291 50.9867 47.8532C51.68 47.8532 51.4933 47.8532 61.8133 47.8532C63.8276 47.9135 65.7428 48.7406 67.1677 50.1655C68.5927 51.5904 69.4197 53.5057 69.48 55.5199C69.48 58.6266 68.5467 61.3599 65.5867 62.9599C64.3706 63.5811 63.0184 63.8882 61.6533 63.8532ZM50.5333 65.3332C51.0638 65.0074 51.5558 64.6227 52 64.1866C52.7447 63.4428 53.3353 62.5594 53.738 61.5871C54.1406 60.6147 54.3475 59.5724 54.3467 58.5199C54.3606 58.2623 54.3606 58.0042 54.3467 57.7466C54.24 56.6719 53.9168 55.63 53.3966 54.6836C52.8764 53.7372 52.1701 52.906 51.32 52.2399L49.6 54.3466C50.1694 54.7908 50.6426 55.346 50.9909 55.9786C51.3393 56.6112 51.5556 57.3079 51.6267 58.0266C51.6267 58.1866 51.6267 58.3466 51.6267 58.5332C51.6255 59.2348 51.4859 59.9291 51.2159 60.5766C50.9459 61.2241 50.5509 61.812 50.0533 62.3066C49.7666 62.5955 49.4439 62.8464 49.0933 63.0532C48.2654 63.5817 47.3022 63.8596 46.32 63.8532H36.3067C34.8922 63.8532 33.5356 63.2913 32.5354 62.2911C31.5352 61.2909 30.9733 59.9344 30.9733 58.5199C30.9733 57.1054 31.5352 55.7489 32.5354 54.7487C33.5356 53.7485 34.8922 53.1866 36.3067 53.1866H42V50.5199H36.3067C34.1849 50.5199 32.1501 51.3628 30.6498 52.863C29.1495 54.3633 28.3067 56.3982 28.3067 58.5199C28.3067 60.6416 29.1495 62.6765 30.6498 64.1768C32.1501 65.677 34.1849 66.5199 36.3067 66.5199H46.3467C47.8262 66.5273 49.2777 66.1159 50.5333 65.3332ZM84.6667 59.4666C84.6667 52.9066 80.8 48.3999 73.7467 46.6666C73.2 42.3332 70.88 39.1866 67.4 38.1199C66.1221 37.7313 64.7685 37.6618 63.4575 37.9175C62.1465 38.1732 60.9182 38.7463 59.88 39.5866C58.8507 37.3478 57.4231 35.3148 55.6667 33.5866C53.1582 31.0146 49.946 29.2407 46.4332 28.4875C42.9204 27.7342 39.2633 28.0351 35.9208 29.3524C32.5784 30.6698 29.6994 32.9448 27.645 35.8922C25.5907 38.8396 24.4525 42.3281 24.3733 45.9199C24.3733 46.2799 24.3733 46.6266 24.3733 46.9866C21.6857 47.7201 19.326 49.3428 17.6794 51.59C16.0327 53.8372 15.1963 56.5762 15.3067 59.3599C15.3067 59.6799 15.3067 59.9732 15.3067 60.2799C15.68 66.9466 21.28 71.8666 28.64 71.8666H71.3067C80 71.8532 84.6667 67.4532 84.6667 59.4532V59.4666ZM27.1467 47.7866C27.0775 47.1623 27.0419 46.5347 27.04 45.9066C27.1192 42.8382 28.1034 39.8617 29.8689 37.351C31.6343 34.8402 34.1024 32.9071 36.963 31.7945C39.8235 30.6818 42.9491 30.4394 45.9471 31.0974C48.9451 31.7555 51.6817 33.2848 53.8133 35.4932C55.7676 37.4306 57.2542 39.7881 58.16 42.3866C58.2413 42.6125 58.382 42.8123 58.5674 42.9648C58.7528 43.1173 58.976 43.217 59.2133 43.2532C59.4484 43.2882 59.6886 43.2596 59.909 43.1705C60.1293 43.0814 60.3219 42.9351 60.4667 42.7466C61.1555 41.7978 62.1222 41.0867 63.233 40.7117C64.3438 40.3366 65.5437 40.3162 66.6667 40.6532C69.3333 41.4666 70.9867 44.1332 71.2133 47.8132C71.231 48.1067 71.3452 48.3861 71.5381 48.6079C71.731 48.8298 71.9918 48.9816 72.28 49.0399C78.76 50.3732 82.04 53.8532 82.04 59.4532C82.04 65.9199 78.4533 69.1866 71.3733 69.1866H28.7067C22.84 69.1866 18.36 65.3732 18.04 60.1199C18.04 59.8666 18.04 59.6132 18.04 59.3466C18.04 52.3866 23.04 50.0132 26.04 49.2666C26.3799 49.2106 26.685 49.0253 26.8913 48.7494C27.0976 48.4735 27.1891 48.1284 27.1467 47.7866Z" fill="white"/>
</g>
<defs>
<linearGradient id="paint0_linear_0_369" x1="-20.7107" y1="120.707" x2="120.711" y2="-20.7147" gradientUnits="userSpaceOnUse">
<stop stop-color="#4D27A8"/>
<stop offset="1" stop-color="#A166FF"/>
</linearGradient>
<clipPath id="clip0_0_369">
<rect width="100" height="100" fill="white"/>
</clipPath>
</defs>
</svg>
