<svg width="100" height="100" viewBox="0 0 100 100" fill="none" xmlns="http://www.w3.org/2000/svg">
<path d="M13.6001 25.1402V14.0002L10.6201 15.4002V14.0002L13.7601 12.2202H15.4801V25.2202L13.6001 25.1402Z" fill="#693CC5"/>
<path d="M20.9399 25.1401L25.1599 13.7001H19.4399V12.1401H27.0599V13.5401L22.8999 25.1401H20.9399Z" fill="#693CC5"/>
<path d="M29.6999 13.12C30.2313 12.7291 30.8177 12.4191 31.4399 12.2C31.9973 12.0342 32.5793 11.9666 33.1599 12C33.5996 11.9717 34.0401 12.0394 34.4511 12.1982C34.8621 12.3571 35.2336 12.6034 35.5399 12.92C35.8432 13.2661 36.0752 13.6685 36.2228 14.1044C36.3704 14.5402 36.4306 15.0009 36.3999 15.46C36.3905 16.0705 36.2684 16.6739 36.0399 17.24C35.6831 18.0452 35.2405 18.8096 34.7199 19.52C34.0799 20.42 32.9999 21.82 31.4599 23.68H36.8799V25.24H29.3999V23.84C30.7399 22.18 31.7599 20.86 32.4799 19.84C33.0649 19.0499 33.5739 18.2061 33.9999 17.32C34.2973 16.7448 34.4549 16.1076 34.4599 15.46C34.4599 14.16 33.9199 13.46 32.8599 13.46C31.7236 13.5673 30.6381 13.9821 29.7199 14.66L29.6999 13.12Z" fill="#693CC5"/>
<path d="M40.14 25.3198C39.9823 25.329 39.8245 25.3052 39.6764 25.2502C39.5284 25.1951 39.3934 25.1098 39.28 24.9998C39.1659 24.8844 39.0768 24.7467 39.0183 24.5953C38.9598 24.4438 38.9331 24.282 38.94 24.1198C38.9344 23.9607 38.9617 23.8022 39.02 23.6541C39.0783 23.5059 39.1665 23.3714 39.2791 23.2588C39.3916 23.1463 39.5262 23.0581 39.6743 22.9998C39.8224 22.9414 39.9809 22.9142 40.14 22.9198C40.2993 22.912 40.4585 22.9383 40.6068 22.9969C40.7551 23.0555 40.8892 23.1452 41 23.2598C41.1126 23.3722 41.2009 23.5065 41.2594 23.6545C41.3179 23.8024 41.3454 23.9608 41.34 24.1198C41.3469 24.282 41.3203 24.4438 41.2618 24.5953C41.2033 24.7467 41.1142 24.8844 41 24.9998C40.8874 25.1108 40.7525 25.1968 40.6043 25.2519C40.4561 25.3071 40.2978 25.3302 40.14 25.3198Z" fill="#693CC5"/>
<path d="M47.1399 25.1402V14.0002L44.1599 15.4002V14.0002L47.2999 12.2202H49.0199V25.2202L47.1399 25.1402Z" fill="#693CC5"/>
<path d="M57.8201 13.3802C57.4015 13.3598 56.9853 13.4532 56.6155 13.6504C56.2458 13.8476 55.9364 14.1412 55.7201 14.5002C55.1725 15.5843 54.8979 16.7858 54.9201 18.0002C55.7078 17.5127 56.6138 17.2499 57.5401 17.2402C58.009 17.2229 58.4754 17.3152 58.9024 17.5096C59.3294 17.704 59.7052 17.9952 60.0001 18.3602C60.6471 19.1373 60.9758 20.1305 60.9201 21.1402C60.9744 22.2674 60.6032 23.3738 59.8801 24.2402C59.524 24.6218 59.0891 24.9215 58.6056 25.1183C58.1221 25.3152 57.6016 25.4045 57.0801 25.3802C56.4753 25.4274 55.869 25.309 55.3263 25.0377C54.7837 24.7664 54.3252 24.3524 54.0001 23.8402C53.2355 22.3684 52.8896 20.715 53.0001 19.0602C52.8881 17.2154 53.3043 15.3768 54.2001 13.7602C54.554 13.1908 55.0545 12.727 55.6491 12.4174C56.2438 12.1078 56.9107 11.9637 57.5801 12.0002C58.0459 12.0008 58.5097 12.0613 58.9601 12.1802C59.3783 12.2713 59.7821 12.4193 60.1601 12.6202V14.0002C59.7941 13.8348 59.4121 13.7074 59.0201 13.6202C58.6285 13.5027 58.2267 13.4224 57.8201 13.3802ZM57.0201 18.7402C56.2808 18.7509 55.5545 18.9359 54.9001 19.2802V19.4202C54.8359 20.5773 55.013 21.7351 55.4201 22.8202C55.56 23.1476 55.7949 23.4255 56.0944 23.618C56.3938 23.8105 56.7442 23.9088 57.1001 23.9002C58.3601 23.9002 58.9801 23.0202 58.9801 21.2602C59.0302 20.6013 58.8538 19.9451 58.4801 19.4002C58.3097 19.1786 58.0874 19.0025 57.8327 18.8874C57.5781 18.7723 57.299 18.7217 57.0201 18.7402Z" fill="#693CC5"/>
<path d="M63.9999 25.3199C63.8422 25.3291 63.6843 25.3054 63.5363 25.2503C63.3882 25.1952 63.2533 25.1099 63.1399 24.9999C63.0257 24.8845 62.9366 24.7468 62.8781 24.5954C62.8196 24.444 62.793 24.2821 62.7999 24.1199C62.7999 23.8017 62.9263 23.4964 63.1514 23.2714C63.3764 23.0463 63.6816 22.9199 63.9999 22.9199C64.3182 22.9199 64.6234 23.0463 64.8484 23.2714C65.0735 23.4964 65.1999 23.8017 65.1999 24.1199C65.2068 24.2821 65.1802 24.444 65.1217 24.5954C65.0632 24.7468 64.974 24.8845 64.8599 24.9999C64.7465 25.1099 64.6116 25.1952 64.4635 25.2503C64.3155 25.3054 64.1576 25.3291 63.9999 25.3199Z" fill="#693CC5"/>
<path d="M71.1 25.3802C70.4739 25.4134 69.8512 25.2696 69.303 24.9655C68.7548 24.6613 68.3032 24.209 68 23.6602C67.2034 22.112 66.8374 20.3783 66.94 18.6402C66.8374 16.9021 67.2034 15.1684 68 13.6202C68.3198 13.0931 68.7777 12.6636 69.3242 12.378C69.8706 12.0925 70.4847 11.9618 71.1 12.0002C71.7161 11.9784 72.3262 12.1276 72.8628 12.4312C73.3993 12.7347 73.8414 13.1809 74.14 13.7202C74.9366 15.2684 75.3026 17.0021 75.2 18.7402C75.3026 20.4783 74.9366 22.212 74.14 23.7602C73.8316 24.284 73.3846 24.7125 72.8482 24.9983C72.3117 25.2842 71.7068 25.4163 71.1 25.3802ZM71.1 23.8602C71.4704 23.8577 71.8302 23.7356 72.1257 23.5122C72.4212 23.2888 72.6366 22.9759 72.74 22.6202C73.1649 21.3318 73.3413 19.9744 73.26 18.6202C73.3394 17.2661 73.163 15.9091 72.74 14.6202C72.6351 14.2639 72.4177 13.9511 72.1203 13.7286C71.8229 13.5061 71.4614 13.3859 71.09 13.3859C70.7186 13.3859 70.3571 13.5061 70.0597 13.7286C69.7623 13.9511 69.5449 14.2639 69.44 14.6202C69.0269 15.9113 68.8507 17.2664 68.92 18.6202C68.8489 19.9741 69.0252 21.3295 69.44 22.6202C69.5443 22.9792 69.7628 23.2945 70.0623 23.5182C70.3619 23.742 70.7261 23.862 71.1 23.8602Z" fill="#693CC5"/>
<path d="M78.1801 25.3199C78.0224 25.3291 77.8645 25.3054 77.7165 25.2503C77.5684 25.1952 77.4334 25.1099 77.3201 24.9999C77.2059 24.8845 77.1168 24.7468 77.0583 24.5954C76.9998 24.444 76.9732 24.2821 76.9801 24.1199C76.9801 23.8017 77.1065 23.4964 77.3315 23.2714C77.5566 23.0463 77.8618 22.9199 78.1801 22.9199C78.4983 22.9199 78.8035 23.0463 79.0286 23.2714C79.2536 23.4964 79.3801 23.8017 79.3801 24.1199C79.387 24.2821 79.3603 24.444 79.3018 24.5954C79.2433 24.7468 79.1542 24.8845 79.0401 24.9999C78.9267 25.1099 78.7917 25.1952 78.6437 25.2503C78.4956 25.3054 78.3378 25.3291 78.1801 25.3199Z" fill="#693CC5"/>
<path d="M85.28 25.38C84.6605 25.4055 84.0462 25.2582 83.5058 24.9544C82.9654 24.6506 82.5201 24.2024 82.22 23.66C81.4234 22.1118 81.0573 20.378 81.16 18.64C81.0573 16.9019 81.4234 15.1682 82.22 13.62C82.5366 13.0991 82.9881 12.6736 83.5268 12.3884C84.0655 12.1032 84.6712 11.969 85.28 12C85.8961 11.9782 86.5062 12.1273 87.0427 12.4309C87.5793 12.7345 88.0213 13.1806 88.32 13.72C89.1165 15.2682 89.4826 17.0019 89.38 18.74C89.4826 20.478 89.1165 22.2118 88.32 23.76C88.0116 24.2838 87.5646 24.7122 87.0281 24.9981C86.4917 25.284 85.8867 25.4161 85.28 25.38ZM85.28 23.86C85.6504 23.8575 86.0102 23.7354 86.3056 23.512C86.6011 23.2886 86.8166 22.9757 86.92 22.62C87.3449 21.3316 87.5213 19.9742 87.44 18.62C87.5194 17.2658 87.343 15.9088 86.92 14.62C86.8151 14.2637 86.5977 13.9509 86.3003 13.7284C86.0028 13.5059 85.6414 13.3857 85.27 13.3857C84.8985 13.3857 84.5371 13.5059 84.2397 13.7284C83.9423 13.9509 83.7249 14.2637 83.62 14.62C83.2069 15.911 83.0307 17.2662 83.1 18.62C83.0289 19.9738 83.2051 21.3293 83.62 22.62C83.7243 22.979 83.9428 23.2942 84.2423 23.518C84.5418 23.7417 84.9061 23.8618 85.28 23.86Z" fill="#693CC5"/>
<path d="M13.6001 55.8599V44.7799L10.6201 46.1999V44.6599L13.7601 42.8799H15.4801V55.8599H13.6001Z" fill="#693CC5"/>
<path d="M20.9399 55.8599L25.1599 44.4399H19.4399V42.8799H27.0599V44.2599L22.8999 55.8599H20.9399Z" fill="#693CC5"/>
<path d="M29.6999 43.8401C30.2361 43.4569 30.8213 43.1475 31.4399 42.9201C31.9924 42.7268 32.5746 42.632 33.1599 42.6401C33.5977 42.6132 34.0362 42.6795 34.4465 42.8347C34.8568 42.9898 35.2294 43.2303 35.5399 43.5401C36.1307 44.2199 36.4385 45.1003 36.3999 46.0001C36.3923 46.6107 36.2702 47.2145 36.0399 47.7801C35.692 48.5898 35.2489 49.3552 34.7199 50.0601C34.0799 50.9601 32.9999 52.3601 31.4599 54.2401H36.8799V55.7801H29.3999V54.3801C30.7399 52.7201 31.7599 51.4001 32.4799 50.3801C33.0575 49.6344 33.5662 48.8378 33.9999 48.0001C34.2985 47.4325 34.4563 46.8015 34.4599 46.1601C34.4599 44.8601 33.9199 44.1601 32.8599 44.1601C31.7236 44.2674 30.6381 44.6822 29.7199 45.3601L29.6999 43.8401Z" fill="#693CC5"/>
<path d="M40.14 56.0001C39.9809 56.0057 39.8223 55.9785 39.6742 55.9201C39.5261 55.8618 39.3916 55.7736 39.279 55.661C39.1664 55.5485 39.0782 55.414 39.0199 55.2658C38.9616 55.1177 38.9344 54.9592 38.94 54.8001C38.9342 54.638 38.9614 54.4765 39.0199 54.3253C39.0783 54.174 39.1668 54.0362 39.28 53.9201C39.3933 53.8101 39.5283 53.7248 39.6763 53.6697C39.8244 53.6146 39.9823 53.5909 40.14 53.6001C40.2978 53.5897 40.456 53.6128 40.6042 53.668C40.7525 53.7231 40.8873 53.809 41 53.9201C41.1131 54.0362 41.2016 54.174 41.2601 54.3253C41.3185 54.4765 41.3457 54.638 41.34 54.8001C41.3453 54.9591 41.3179 55.1175 41.2594 55.2654C41.2009 55.4134 41.1126 55.5477 41 55.6601C40.8891 55.7747 40.755 55.8644 40.6067 55.923C40.4584 55.9816 40.2992 56.0079 40.14 56.0001Z" fill="#693CC5"/>
<path d="M47.1399 55.8599V44.7799L44.1599 46.1999V44.6599L47.2999 42.8799H49.0199V55.8599H47.1399Z" fill="#693CC5"/>
<path d="M57.82 44.1202C57.4031 44.0956 56.9873 44.185 56.6173 44.3788C56.2474 44.5726 55.9372 44.8634 55.72 45.2202C55.1682 46.3243 54.8936 47.5461 54.92 48.7802C55.7052 48.2847 56.6116 48.0149 57.54 48.0002C57.9959 47.978 58.4509 48.0601 58.8702 48.2404C59.2896 48.4206 59.6623 48.6941 59.96 49.0402C60.6119 49.8224 60.9409 50.8238 60.88 51.8402C60.9352 52.9614 60.5636 54.0619 59.84 54.9202C59.4874 55.3076 59.0536 55.6125 58.5696 55.813C58.0856 56.0135 57.5633 56.1048 57.04 56.0802C56.4433 56.1242 55.8459 56.0062 55.3107 55.7387C54.7756 55.4711 54.3227 55.0639 54 54.5602C53.2351 53.0957 52.8891 51.4486 53 49.8002C52.8852 47.9487 53.3016 46.103 54.2 44.4802C54.5405 43.8976 55.0331 43.4185 55.6249 43.0944C56.2168 42.7703 56.8857 42.6133 57.56 42.6402C58.0249 42.6341 58.4888 42.6879 58.94 42.8002C59.3555 42.9004 59.7582 43.048 60.14 43.2402V44.6202C59.7766 44.4527 59.3936 44.3318 59 44.2602C58.6134 44.1682 58.2174 44.1212 57.82 44.1202ZM57.02 49.4802C56.2834 49.4932 55.559 49.6709 54.9 50.0002V50.1602C54.8375 51.3172 55.0146 52.4747 55.42 53.5602C55.5599 53.8876 55.7948 54.1655 56.0942 54.358C56.3937 54.5505 56.7441 54.6488 57.1 54.6402C58.36 54.6402 58.98 53.7602 58.98 51.9802C59.0238 51.3219 58.8479 50.6677 58.48 50.1202C58.3052 49.9049 58.0816 49.7345 57.8276 49.6231C57.5736 49.5118 57.2967 49.4628 57.02 49.4802Z" fill="#693CC5"/>
<path d="M64.0001 56.0002C63.841 56.0057 63.6824 55.9785 63.5343 55.9202C63.3862 55.8619 63.2517 55.7737 63.1391 55.6611C63.0265 55.5486 62.9384 55.414 62.88 55.2659C62.8217 55.1178 62.7945 54.9593 62.8001 54.8002C62.7943 54.6381 62.8215 54.4766 62.88 54.3254C62.9384 54.1741 63.0269 54.0363 63.1401 53.9202C63.3794 53.7146 63.6845 53.6016 64.0001 53.6016C64.3156 53.6016 64.6207 53.7146 64.8601 53.9202C64.9732 54.0363 65.0617 54.1741 65.1202 54.3254C65.1786 54.4766 65.2058 54.6381 65.2001 54.8002C65.2056 54.9593 65.1784 55.1178 65.1201 55.2659C65.0618 55.414 64.9736 55.5486 64.861 55.6611C64.7485 55.7737 64.6139 55.8619 64.4658 55.9202C64.3177 55.9785 64.1592 56.0057 64.0001 56.0002Z" fill="#693CC5"/>
<path d="M71 55.8599V44.7799L68 46.1999V44.6599L71.14 42.8799H72.86V55.8599H71Z" fill="#693CC5"/>
<path d="M78.18 56.0002C78.0209 56.0057 77.8624 55.9785 77.7142 55.9202C77.5661 55.8619 77.4316 55.7737 77.319 55.6611C77.2065 55.5486 77.1183 55.414 77.06 55.2659C77.0016 55.1178 76.9744 54.9593 76.98 54.8002C76.9743 54.6381 77.0015 54.4766 77.0599 54.3254C77.1183 54.1741 77.2068 54.0363 77.32 53.9202C77.5594 53.7146 77.8645 53.6016 78.18 53.6016C78.4955 53.6016 78.8006 53.7146 79.04 53.9202C79.1532 54.0363 79.2417 54.1741 79.3001 54.3254C79.3585 54.4766 79.3857 54.6381 79.38 54.8002C79.3856 54.9593 79.3584 55.1178 79.3 55.2659C79.2417 55.414 79.1535 55.5486 79.041 55.6611C78.9284 55.7737 78.7939 55.8619 78.6457 55.9202C78.4976 55.9785 78.3391 56.0057 78.18 56.0002Z" fill="#693CC5"/>
<path d="M85.28 56.1202C84.6589 56.1415 84.0441 55.9902 83.5039 55.683C82.9637 55.3758 82.5192 54.9248 82.22 54.3802C81.4234 52.832 81.0573 51.0983 81.16 49.3602C81.0593 47.6223 81.4253 45.889 82.22 44.3402C82.5246 43.803 82.9713 43.3601 83.5111 43.0602C84.0509 42.7603 84.663 42.615 85.28 42.6402C85.8944 42.6142 86.504 42.7593 87.0408 43.0595C87.5776 43.3597 88.0204 43.8031 88.32 44.3402C89.1147 45.889 89.4807 47.6223 89.38 49.3602C89.4853 51.1049 89.1191 52.8457 88.32 54.4002C88.0213 54.9395 87.5793 55.3857 87.0427 55.6892C86.5062 55.9928 85.8961 56.142 85.28 56.1202ZM85.28 54.6002C85.6496 54.5945 86.0078 54.4713 86.3027 54.2483C86.5976 54.0254 86.8138 53.7143 86.92 53.3602C87.342 52.0711 87.5184 50.7143 87.44 49.3602C87.518 48.0061 87.3416 46.6493 86.92 45.3602C86.8151 45.0039 86.5977 44.6911 86.3003 44.4686C86.0028 44.2461 85.6414 44.1259 85.27 44.1259C84.8985 44.1259 84.5371 44.2461 84.2397 44.4686C83.9423 44.6911 83.7249 45.0039 83.62 45.3602C83.2086 46.6516 83.0324 48.0065 83.1 49.3602C83.032 50.7139 83.2081 52.0688 83.62 53.3602C83.7272 53.7175 83.9464 54.0309 84.2453 54.2542C84.5442 54.4775 84.9069 54.5988 85.28 54.6002Z" fill="#693CC5"/>
<path d="M13.6001 88.4399V77.3599L10.6201 78.7599V77.2199L13.7601 75.4399H15.4801V88.4399H13.6001Z" fill="#693CC5"/>
<path d="M20.9399 88.4399L25.1599 76.9999H19.4399V75.4399H27.0599V76.8399L22.8999 88.4399H20.9399Z" fill="#693CC5"/>
<path d="M29.6999 76.4202C30.2313 76.0293 30.8177 75.7192 31.4399 75.5002C31.9913 75.3005 32.5734 75.1989 33.1599 75.2002C33.5977 75.1733 34.0362 75.2396 34.4465 75.3947C34.8568 75.5499 35.2294 75.7903 35.5399 76.1002C36.1467 76.8024 36.4553 77.7138 36.3999 78.6402C36.3925 79.2573 36.2704 79.8677 36.0399 80.4402C35.6866 81.2409 35.2438 81.9991 34.7199 82.7002C34.0799 83.6202 32.9999 85.0002 31.4599 86.8802H36.8799V88.4402H29.3999V87.0402C30.7399 85.3602 31.7599 84.0402 32.4799 83.0402C33.0554 82.2788 33.5639 81.4691 33.9999 80.6202C34.2931 80.0434 34.4505 79.4072 34.4599 78.7602C34.4599 77.4602 33.9199 76.7602 32.8599 76.7602C31.7236 76.8674 30.6381 77.2823 29.7199 77.9602L29.6999 76.4202Z" fill="#693CC5"/>
<path d="M40.14 88.6201C39.9823 88.6293 39.8244 88.6055 39.6763 88.5504C39.5283 88.4954 39.3933 88.4101 39.28 88.3001C39.1668 88.184 39.0783 88.0462 39.0199 87.8949C38.9614 87.7437 38.9342 87.5821 38.94 87.4201C38.9344 87.261 38.9616 87.1025 39.0199 86.9544C39.0782 86.8062 39.1664 86.6717 39.279 86.5591C39.3916 86.4466 39.5261 86.3584 39.6742 86.3001C39.8223 86.2417 39.9809 86.2145 40.14 86.2201C40.2992 86.2123 40.4584 86.2386 40.6067 86.2972C40.755 86.3558 40.8891 86.4455 41 86.5601C41.1126 86.6725 41.2009 86.8068 41.2594 86.9547C41.3179 87.1027 41.3453 87.2611 41.34 87.4201C41.3457 87.5821 41.3185 87.7437 41.2601 87.8949C41.2016 88.0462 41.1131 88.184 41 88.3001C40.8873 88.4111 40.7525 88.4971 40.6042 88.5522C40.456 88.6074 40.2978 88.6305 40.14 88.6201Z" fill="#693CC5"/>
<path d="M47.1399 88.4399V77.3599L44.1599 78.7599V77.2199L47.2999 75.4399H49.0199V88.4399H47.1399Z" fill="#693CC5"/>
<path d="M57.8201 76.6799C57.4015 76.6595 56.9853 76.7529 56.6155 76.9501C56.2458 77.1473 55.9364 77.4409 55.7201 77.7999C55.1629 78.902 54.888 80.1253 54.9201 81.3599C55.7078 80.8724 56.6138 80.6096 57.5401 80.5999C57.9953 80.5835 58.4484 80.6683 58.8669 80.8481C59.2853 81.028 59.6587 81.2984 59.9601 81.6399C60.6015 82.4278 60.9292 83.425 60.8801 84.4399C60.9344 85.567 60.5632 86.6735 59.8401 87.5399C59.4839 87.9215 59.0491 88.2212 58.5656 88.418C58.0821 88.6149 57.5616 88.7042 57.0401 88.6799C56.4418 88.7197 55.8438 88.5977 55.3089 88.3267C54.774 88.0558 54.3219 87.6458 54.0001 87.1399C53.2355 85.6681 52.8896 84.0147 53.0001 82.3599C52.8909 80.5089 53.3069 78.6647 54.2001 77.0399C54.5439 76.4602 55.0371 75.9836 55.6282 75.6599C56.2193 75.3362 56.8865 75.1773 57.5601 75.1999C58.0245 75.2037 58.4871 75.2574 58.9401 75.3599C59.3565 75.4663 59.7592 75.6207 60.1401 75.8199V77.1799C59.7701 77.0304 59.3889 76.91 59.0001 76.8199C58.6135 76.7279 58.2175 76.6809 57.8201 76.6799ZM57.0201 81.9999C56.2835 82.0129 55.5592 82.1906 54.9001 82.5199V82.6799C54.8376 83.8369 55.0147 84.9944 55.4201 86.0799C55.56 86.4073 55.7949 86.6852 56.0944 86.8777C56.3938 87.0702 56.7442 87.1685 57.1001 87.1599C58.3601 87.1599 58.9801 86.2799 58.9801 84.5199C59.0302 83.861 58.8538 83.2048 58.4801 82.6599C58.3097 82.4383 58.0874 82.2622 57.8327 82.1471C57.5781 82.032 57.299 81.9814 57.0201 81.9999Z" fill="#693CC5"/>
<path d="M64.0001 88.6202C63.8424 88.6294 63.6845 88.6056 63.5364 88.5506C63.3884 88.4955 63.2534 88.4102 63.1401 88.3002C63.0269 88.1841 62.9384 88.0463 62.88 87.895C62.8215 87.7438 62.7943 87.5823 62.8001 87.4202C62.8001 87.102 62.9265 86.7967 63.1515 86.5717C63.3766 86.3466 63.6818 86.2202 64.0001 86.2202C64.3183 86.2202 64.6235 86.3466 64.8486 86.5717C65.0736 86.7967 65.2001 87.102 65.2001 87.4202C65.2058 87.5823 65.1786 87.7438 65.1202 87.895C65.0617 88.0463 64.9732 88.1841 64.8601 88.3002C64.7467 88.4102 64.6117 88.4955 64.4637 88.5506C64.3156 88.6056 64.1578 88.6294 64.0001 88.6202Z" fill="#693CC5"/>
<path d="M67.7399 76.4202C68.2713 76.0293 68.8577 75.7192 69.4799 75.5002C70.0314 75.3005 70.6135 75.1989 71.1999 75.2002C71.6377 75.1733 72.0763 75.2396 72.4865 75.3947C72.8968 75.5499 73.2695 75.7903 73.5799 76.1002C74.1867 76.8024 74.4953 77.7138 74.4399 78.6402C74.4325 79.2573 74.3104 79.8677 74.0799 80.4402C73.7266 81.2409 73.2838 81.9991 72.7599 82.7002C72.1199 83.6202 71.0399 85.0002 69.4999 86.8802H74.9199V88.4402H67.4399V87.0402C68.7799 85.3602 69.7999 84.0402 70.5199 83.0402C71.0816 82.2773 71.5767 81.4677 71.9999 80.6202C72.2932 80.0434 72.4505 79.4072 72.4599 78.7602C72.4599 77.4602 71.9199 76.7602 70.8599 76.7602C69.7237 76.8674 68.6381 77.2823 67.7199 77.9602L67.7399 76.4202Z" fill="#693CC5"/>
<path d="M78.18 88.6202C78.0223 88.6294 77.8644 88.6056 77.7164 88.5506C77.5683 88.4955 77.4333 88.4102 77.32 88.3002C77.2068 88.1841 77.1183 88.0463 77.0599 87.895C77.0015 87.7438 76.9743 87.5823 76.98 87.4202C76.98 87.102 77.1064 86.7967 77.3315 86.5717C77.5565 86.3466 77.8617 86.2202 78.18 86.2202C78.4983 86.2202 78.8035 86.3466 79.0285 86.5717C79.2536 86.7967 79.38 87.102 79.38 87.4202C79.3857 87.5823 79.3585 87.7438 79.3001 87.895C79.2417 88.0463 79.1532 88.1841 79.04 88.3002C78.9266 88.4102 78.7917 88.4955 78.6436 88.5506C78.4956 88.6056 78.3377 88.6294 78.18 88.6202Z" fill="#693CC5"/>
<path d="M85.28 88.6799C84.6613 88.7009 84.0488 88.5516 83.5092 88.2483C82.9696 87.945 82.5236 87.4993 82.22 86.9599C81.4357 85.4289 81.07 83.7178 81.16 81.9999C81.0573 80.2618 81.4234 78.5281 82.22 76.9799C82.5236 76.4405 82.9696 75.9948 83.5092 75.6915C84.0488 75.3882 84.6613 75.2389 85.28 75.2599C85.8961 75.2381 86.5062 75.3873 87.0427 75.6908C87.5793 75.9944 88.0213 76.4406 88.32 76.9799C89.1165 78.5281 89.4826 80.2618 89.38 81.9999C89.4826 83.738 89.1165 85.4717 88.32 87.0199C88.0134 87.5481 87.568 87.9821 87.032 88.2748C86.496 88.5674 85.89 88.7076 85.28 88.6799ZM85.28 87.1599C85.6504 87.1574 86.0102 87.0353 86.3056 86.8119C86.6011 86.5885 86.8166 86.2756 86.92 85.9199C87.343 84.6311 87.5194 83.2741 87.44 81.9199C87.5213 80.5657 87.3449 79.2083 86.92 77.9199C86.8151 77.5636 86.5977 77.2508 86.3003 77.0283C86.0028 76.8058 85.6414 76.6856 85.27 76.6856C84.8985 76.6856 84.5371 76.8058 84.2397 77.0283C83.9423 77.2508 83.7249 77.5636 83.62 77.9199C83.2051 79.2106 83.0289 80.566 83.1 81.9199C83.0307 83.2737 83.2069 84.6288 83.62 85.9199C83.7243 86.2789 83.9428 86.5942 84.2423 86.8179C84.5418 87.0417 84.9061 87.1617 85.28 87.1599Z" fill="#693CC5"/>
<path d="M95 32.32H5C4.46957 32.32 3.96086 32.1093 3.58579 31.7342C3.21071 31.3591 3 30.8504 3 30.32V6C3 5.46957 3.21071 4.96086 3.58579 4.58579C3.96086 4.21071 4.46957 4 5 4H95C95.5304 4 96.0391 4.21071 96.4142 4.58579C96.7893 4.96086 97 5.46957 97 6V30.32C97 30.8504 96.7893 31.3591 96.4142 31.7342C96.0391 32.1093 95.5304 32.32 95 32.32ZM7 28.32H93V8H7V28.32Z" fill="#693CC5"/>
<path d="M95 64.1798H5C4.46957 64.1798 3.96086 63.9691 3.58579 63.594C3.21071 63.219 3 62.7103 3 62.1798V37.8198C3 37.2894 3.21071 36.7807 3.58579 36.4056C3.96086 36.0305 4.46957 35.8198 5 35.8198H95C95.5304 35.8198 96.0391 36.0305 96.4142 36.4056C96.7893 36.7807 97 37.2894 97 37.8198V62.1798C97 62.4425 96.9483 62.7025 96.8478 62.9452C96.7472 63.1878 96.5999 63.4083 96.4142 63.594C96.2285 63.7798 96.008 63.9271 95.7654 64.0276C95.5227 64.1281 95.2626 64.1798 95 64.1798ZM7 60.1798H93V39.8198H7V60.1798Z" fill="#693CC5"/>
<path d="M95 96.0002H5C4.46957 96.0002 3.96086 95.7895 3.58579 95.4144C3.21071 95.0393 3 94.5306 3 94.0002V69.6802C3 69.1497 3.21071 68.641 3.58579 68.266C3.96086 67.8909 4.46957 67.6802 5 67.6802H95C95.5304 67.6802 96.0391 67.8909 96.4142 68.266C96.7893 68.641 97 69.1497 97 69.6802V94.0002C97 94.5306 96.7893 95.0393 96.4142 95.4144C96.0391 95.7895 95.5304 96.0002 95 96.0002ZM7 92.0002H93V71.6802H7V92.0002Z" fill="#693CC5"/>
</svg>
