<svg width="100" height="100" viewBox="0 0 100 100" fill="none" xmlns="http://www.w3.org/2000/svg">
<path d="M50 83.8801C40 83.8801 32.48 78.6601 28.46 68.8001C26.8145 64.6327 25.8359 60.2321 25.56 55.7601L29.56 55.5001C29.8111 59.5378 30.6882 63.5119 32.16 67.2801C35.56 75.6401 41.56 79.8801 50 79.8801C70.2 79.8801 70.5 56.8401 70.5 55.8801V28.5401L50 20.2801L29.5 28.5401V44.3801H25.5V27.1801C25.4996 26.7795 25.6195 26.3881 25.8442 26.0565C26.0688 25.7248 26.3879 25.4683 26.76 25.3201L49.26 16.2601C49.7352 16.0709 50.2648 16.0709 50.74 16.2601L73.24 25.3201C73.6121 25.4683 73.9312 25.7248 74.1558 26.0565C74.3805 26.3881 74.5004 26.7795 74.5 27.1801V55.8601C74.5 56.1401 74.22 83.8801 50 83.8801Z" fill="#693CC5"/>
<path d="M50 75.24C36.48 75.24 33.16 57.7 33.04 56.96C33.0302 56.8402 33.0302 56.7198 33.04 56.6V55.62H37.04V56.4C37.38 58.02 40.44 71.24 50.04 71.24C59.64 71.24 62.66 58 63 56.4V35.28L50 30L37 35.22V44.32H33V34C32.9996 33.5994 33.1195 33.208 33.3442 32.8764C33.5688 32.5447 33.8879 32.2882 34.26 32.14L49.26 26.14C49.7352 25.9507 50.2648 25.9507 50.74 26.14L65.74 32.14C66.1121 32.2882 66.4312 32.5447 66.6558 32.8764C66.8805 33.208 67.0004 33.5994 67 34V56.6C67.0098 56.7198 67.0098 56.8402 67 56.96C66.84 57.7 63.52 75.24 50 75.24Z" fill="#693CC5"/>
<path d="M50 97C40.7043 97 31.6173 94.2435 23.8882 89.0791C16.1591 83.9147 10.135 76.5743 6.57768 67.9861C3.02036 59.398 2.08961 49.9479 3.90311 40.8308C5.71662 31.7137 10.1929 23.3391 16.766 16.766C23.3391 10.1929 31.7137 5.71662 40.8308 3.90311C49.9479 2.08961 59.398 3.02036 67.9861 6.57768C76.5743 10.135 83.9147 16.1591 89.0791 23.8882C94.2435 31.6173 97 40.7043 97 50C96.9894 62.4619 92.0343 74.4104 83.2223 83.2223C74.4104 92.0343 62.4619 96.9894 50 97ZM50 7.00002C41.4954 7.00002 33.1818 9.52193 26.1105 14.2468C19.0392 18.9717 13.5278 25.6874 10.2732 33.5446C7.01863 41.4019 6.16709 50.0477 7.82625 58.3889C9.48542 66.7301 13.5808 74.392 19.5944 80.4056C25.6081 86.4193 33.27 90.5146 41.6111 92.1738C49.9523 93.833 58.5982 92.9814 66.4554 89.7268C74.3126 86.4723 81.0283 80.9609 85.7532 73.8895C90.4781 66.8182 93 58.5046 93 50C92.9894 38.599 88.4557 27.6679 80.3939 19.6061C72.3322 11.5444 61.4011 7.01061 50 7.00002Z" fill="#693CC5"/>
<path d="M45.78 60.7802L42.96 58.0002L50.96 50.0002L42.96 42.0002L45.78 39.1802L55.16 48.5402C55.3474 48.7261 55.4962 48.9473 55.5977 49.191C55.6993 49.4347 55.7516 49.6962 55.7516 49.9602C55.7516 50.2242 55.6993 50.4856 55.5977 50.7293C55.4962 50.973 55.3474 51.1943 55.16 51.3802L45.78 60.7802Z" fill="#693CC5"/>
<path d="M53.76 48H12.5V52H53.76V48Z" fill="#693CC5"/>
</svg>
