<svg width="100" height="100" viewBox="0 0 100 100" fill="none" xmlns="http://www.w3.org/2000/svg">
<g clip-path="url(#clip0_0_357)">
<path d="M100 0H0V100H100V0Z" fill="url(#paint0_linear_0_357)"/>
<path d="M48.5866 62.0266H29.92C22.6133 62.0266 17.0266 57.1466 16.6533 50.4399C16.6533 50.1599 16.6533 49.8399 16.6533 49.5199C16.5398 46.7374 17.3733 43.9987 19.0178 41.7512C20.6622 39.5037 23.0203 37.8804 25.7066 37.1466C25.7066 36.7866 25.7066 36.4399 25.7066 36.0799C25.7739 32.4903 26.9021 29.001 28.949 26.0515C30.996 23.102 33.8701 20.8243 37.2093 19.5054C40.5485 18.1866 44.2033 17.8856 47.7133 18.6403C51.2233 19.395 54.4314 21.1717 56.9333 23.7466C58.6782 25.4736 60.0965 27.5017 61.12 29.7332C62.5828 28.558 64.4035 27.9182 66.28 27.9199C70.1466 27.9199 74.28 30.6799 74.96 36.8266C78.2457 37.4766 81.21 39.2316 83.36 41.7999L81.2666 43.4399C79.2702 41.1557 76.5224 39.6612 73.52 39.2266C73.2199 39.1784 72.9453 39.0293 72.7416 38.8038C72.5379 38.5783 72.4174 38.2899 72.4 37.9866C72.0933 32.8799 69.1066 30.5866 66.28 30.5866C65.3923 30.5948 64.5187 30.8086 63.7275 31.2111C62.9364 31.6136 62.2492 32.194 61.72 32.9066C61.5767 33.0975 61.3849 33.2465 61.1644 33.3379C60.9439 33.4294 60.703 33.46 60.4666 33.4266C60.2293 33.3903 60.0061 33.2907 59.8208 33.1381C59.6354 32.9856 59.4946 32.7858 59.4133 32.5599C58.5005 29.9679 57.02 27.6128 55.08 25.6666C52.9501 23.4753 50.2212 21.9608 47.2349 21.3129C44.2485 20.6649 41.1374 20.9122 38.2909 22.0237C35.4444 23.1353 32.989 25.0617 31.232 27.562C29.475 30.0622 28.4946 33.0251 28.4133 36.0799C28.4152 36.7169 28.4508 37.3533 28.52 37.9866C28.5521 38.3048 28.4688 38.6239 28.2852 38.8858C28.1016 39.1477 27.83 39.3349 27.52 39.4132C24.4933 40.1599 19.3866 42.4799 19.3866 49.5199C19.3733 49.7597 19.3733 50.0001 19.3866 50.2399C19.68 55.5732 24.1466 59.3599 30.0533 59.3599H48.72L48.5866 62.0266Z" fill="white"/>
<path d="M67.2533 81.68C51.44 81.68 51.2533 63.9067 51.2533 63.7333V47.5067C51.2524 47.2342 51.335 46.9681 51.49 46.744C51.6449 46.5199 51.8648 46.3487 52.12 46.2533L66.7866 40.8266C67.0886 40.7199 67.418 40.7199 67.72 40.8266L82.3866 46.2533C82.6418 46.3487 82.8617 46.5199 83.0167 46.744C83.1716 46.9681 83.2542 47.2342 83.2533 47.5067V64.7333C83.2533 64.9067 83.0666 81.68 67.2533 81.68ZM53.92 48.44V63.7333C53.92 64.36 54.1066 79.0133 67.2533 79.0133C80.4 79.0133 80.5866 65.32 80.5866 64.7333V48.44L67.2533 43.4933L53.92 48.44Z" fill="white"/>
<path d="M67.2533 76.6934C58.7733 76.6934 56.6933 65.9334 56.5867 65.4801C56.5735 65.4006 56.5735 65.3195 56.5867 65.2401V51.4267C56.5864 51.1597 56.6663 50.8987 56.8161 50.6776C56.9659 50.4566 57.1786 50.2855 57.4267 50.1867L66.76 46.5067C67.0768 46.3806 67.4299 46.3806 67.7467 46.5067L77.08 50.1867C77.3281 50.2855 77.5408 50.4566 77.6906 50.6776C77.8403 50.8987 77.9203 51.1597 77.92 51.4267V65.2401C77.9266 65.3199 77.9266 65.4002 77.92 65.4801C77.8133 65.9334 75.7333 76.6934 67.2533 76.6934ZM59.2533 65.1067C59.4667 66.1201 61.3733 74.0267 67.2533 74.0267C73.1333 74.0267 75.04 66.1334 75.2533 65.1067V52.3334L67.2533 49.1867L59.2533 52.3334V65.1067Z" fill="white"/>
</g>
<defs>
<linearGradient id="paint0_linear_0_357" x1="-20.7067" y1="120.707" x2="120.707" y2="-20.7067" gradientUnits="userSpaceOnUse">
<stop stop-color="#4D27A8"/>
<stop offset="1" stop-color="#A166FF"/>
</linearGradient>
<clipPath id="clip0_0_357">
<rect width="100" height="100" fill="white"/>
</clipPath>
</defs>
</svg>
