<svg width="100" height="100" viewBox="0 0 100 100" fill="none" xmlns="http://www.w3.org/2000/svg">
<path d="M50 97C40.7043 97 31.6173 94.2435 23.8882 89.0791C16.1591 83.9147 10.135 76.5743 6.57768 67.9861C3.02036 59.398 2.08961 49.9479 3.90311 40.8308C5.71662 31.7137 10.1929 23.3391 16.766 16.766C23.3391 10.1929 31.7137 5.71662 40.8308 3.90311C49.9479 2.08961 59.398 3.02036 67.9861 6.57768C76.5743 10.135 83.9147 16.1591 89.0791 23.8882C94.2435 31.6173 97 40.7043 97 50C96.9894 62.4619 92.0343 74.4104 83.2223 83.2223C74.4104 92.0343 62.4619 96.9894 50 97ZM50 7.00002C41.4954 7.00002 33.1818 9.52193 26.1105 14.2468C19.0392 18.9717 13.5278 25.6874 10.2732 33.5446C7.01863 41.4019 6.16709 50.0477 7.82625 58.3889C9.48542 66.7301 13.5808 74.392 19.5944 80.4056C25.6081 86.4193 33.27 90.5146 41.6111 92.1738C49.9523 93.833 58.5982 92.9814 66.4554 89.7268C74.3126 86.4723 81.0283 80.9609 85.7532 73.8895C90.4781 66.8182 93 58.5046 93 50C92.9894 38.599 88.4557 27.6679 80.3939 19.6061C72.3322 11.5444 61.4011 7.01061 50 7.00002Z" fill="#693CC5"/>
<path d="M70.7399 44.3799H66.7399V23.8799H31.3799V44.3799H27.3799V21.8799C27.3799 21.3494 27.5906 20.8407 27.9657 20.4657C28.3407 20.0906 28.8494 19.8799 29.3799 19.8799H68.7399C69.2703 19.8799 69.779 20.0906 70.1541 20.4657C70.5292 20.8407 70.7399 21.3494 70.7399 21.8799V44.3799Z" fill="#693CC5"/>
<path d="M68.7399 80.1201H29.3799C28.8494 80.1201 28.3407 79.9094 27.9657 79.5343C27.5906 79.1593 27.3799 78.6506 27.3799 78.1201V55.6201H31.3799V76.1201H66.7399V55.6201H70.7399V78.1201C70.7399 78.6506 70.5292 79.1593 70.1541 79.5343C69.779 79.9094 69.2703 80.1201 68.7399 80.1201Z" fill="#693CC5"/>
<path d="M63.12 29.2598H35V33.2598H63.12V29.2598Z" fill="#693CC5"/>
<path d="M63.12 38.6201H35V42.6201H63.12V38.6201Z" fill="#693CC5"/>
<path d="M63.12 57.3799H35V61.3799H63.12V57.3799Z" fill="#693CC5"/>
<path d="M63.12 66.7598H35V70.7598H63.12V66.7598Z" fill="#693CC5"/>
<path d="M87.4999 48H14.3799V52H87.4999V48Z" fill="#693CC5"/>
<path d="M79.54 60.7802L76.72 58.0002L84.72 50.0002L76.72 42.0002L79.54 39.1802L88.92 48.5402C89.1074 48.7261 89.2562 48.9473 89.3577 49.191C89.4593 49.4347 89.5116 49.6962 89.5116 49.9602C89.5116 50.2242 89.4593 50.4856 89.3577 50.7293C89.2562 50.973 89.1074 51.1943 88.92 51.3802L79.54 60.7802Z" fill="#693CC5"/>
</svg>
