<svg width="100" height="100" viewBox="0 0 100 100" fill="none" xmlns="http://www.w3.org/2000/svg">
<path d="M50 97C40.7043 97 31.6173 94.2435 23.8882 89.0791C16.1591 83.9147 10.135 76.5743 6.57768 67.9861C3.02036 59.398 2.08961 49.9479 3.90311 40.8308C5.71662 31.7137 10.1929 23.3391 16.766 16.766C23.3391 10.1929 31.7137 5.71662 40.8308 3.90311C49.9479 2.08961 59.398 3.02036 67.9861 6.57768C76.5743 10.135 83.9147 16.1591 89.0791 23.8882C94.2435 31.6173 97 40.7043 97 50C96.9894 62.4619 92.0343 74.4104 83.2223 83.2223C74.4104 92.0343 62.4619 96.9894 50 97ZM50 7.00002C41.4954 7.00002 33.1818 9.52193 26.1105 14.2468C19.0392 18.9717 13.5278 25.6874 10.2732 33.5446C7.01863 41.4019 6.16709 50.0477 7.82625 58.3889C9.48542 66.7301 13.5808 74.392 19.5944 80.4056C25.6081 86.4193 33.27 90.5146 41.6111 92.1738C49.9523 93.833 58.5982 92.9814 66.4554 89.7268C74.3126 86.4723 81.0283 80.9609 85.7532 73.8895C90.4781 66.8182 93 58.5046 93 50C92.9894 38.599 88.4557 27.6679 80.3939 19.6061C72.3322 11.5444 61.4011 7.01061 50 7.00002Z" fill="#693CC5"/>
<path d="M55.6199 76.3799H39.1399V72.3799H53.6199V31.3799H39.1399V27.3799H55.6199C56.1503 27.3799 56.659 27.5906 57.0341 27.9657C57.4092 28.3407 57.6199 28.8494 57.6199 29.3799V74.3799C57.6199 74.6425 57.5682 74.9026 57.4677 75.1453C57.3671 75.3879 57.2198 75.6084 57.0341 75.7941C56.8484 75.9798 56.6279 76.1271 56.3853 76.2277C56.1426 76.3282 55.8825 76.3799 55.6199 76.3799Z" fill="#693CC5"/>
<path d="M74.36 49.8799H38.74V53.8799H74.36V49.8799Z" fill="#693CC5"/>
<path d="M25.6201 38.8799C25.3221 38.8781 25.0283 38.8098 24.7601 38.6799C24.4198 38.5178 24.1322 38.2628 23.9305 37.9443C23.7288 37.6258 23.6212 37.2568 23.6201 36.8799V21.8799C23.6212 21.5029 23.7288 21.1339 23.9305 20.8154C24.1322 20.4969 24.4198 20.242 24.7601 20.0799C25.1001 19.9157 25.4796 19.8511 25.8548 19.8936C26.23 19.936 26.5854 20.0838 26.8801 20.3199L36.2401 27.8199C36.4758 28.0061 36.6665 28.2431 36.7981 28.5131C36.9297 28.7832 36.9987 29.0794 37.0001 29.3799C36.9987 29.6803 36.9297 29.9765 36.7981 30.2466C36.6665 30.5166 36.4758 30.7536 36.2401 30.9399L26.8801 38.4399C26.5229 38.7265 26.0781 38.8818 25.6201 38.8799ZM27.6201 26.0399V32.7199L31.8001 29.3799L27.6201 26.0399Z" fill="#693CC5"/>
<path d="M25.6201 61.3799C25.3221 61.3781 25.0283 61.3098 24.7601 61.1799C24.4198 61.0178 24.1322 60.7628 23.9305 60.4443C23.7288 60.1258 23.6212 59.7568 23.6201 59.3799V44.3799C23.6212 44.0029 23.7288 43.6339 23.9305 43.3154C24.1322 42.9969 24.4198 42.742 24.7601 42.5799C25.1001 42.4157 25.4796 42.3511 25.8548 42.3936C26.23 42.436 26.5854 42.5838 26.8801 42.8199L36.2401 50.3199C36.4758 50.5061 36.6665 50.7431 36.7981 51.0131C36.9297 51.2832 36.9987 51.5794 37.0001 51.8799C36.9987 52.1803 36.9297 52.4765 36.7981 52.7466C36.6665 53.0166 36.4758 53.2536 36.2401 53.4399L26.8801 60.9399C26.5229 61.2265 26.0781 61.3818 25.6201 61.3799ZM27.6201 48.5399V55.2199L31.8001 51.8799L27.6201 48.5399Z" fill="#693CC5"/>
<path d="M76.24 63.2399C75.9803 63.2402 75.7226 63.1927 75.48 63.0999C75.1116 62.9486 74.7968 62.6907 74.5759 62.3593C74.355 62.028 74.238 61.6382 74.24 61.2399V42.4999C74.2377 42.1027 74.3538 41.7137 74.5734 41.3827C74.793 41.0516 75.1062 40.7935 75.4731 40.6412C75.84 40.4888 76.2439 40.4492 76.6334 40.5274C77.0229 40.6055 77.3803 40.7979 77.66 41.0799L87.04 50.4599C87.4125 50.8346 87.6216 51.3415 87.6216 51.8699C87.6216 52.3983 87.4125 52.9052 87.04 53.2799L77.66 62.6599C77.4732 62.8453 77.2515 62.9919 77.0078 63.0915C76.7642 63.191 76.5032 63.2414 76.24 63.2399ZM78.24 47.2399V56.3399L82.8 51.7999L78.24 47.2399Z" fill="#693CC5"/>
<path d="M25.6199 82C25.3219 81.9982 25.0281 81.9299 24.7599 81.8C24.4195 81.6379 24.1319 81.3829 23.9302 81.0644C23.7285 80.746 23.621 80.377 23.6199 80V65C23.6186 64.6215 23.7247 64.2504 23.9259 63.9299C24.1271 63.6093 24.4152 63.3525 24.7566 63.1891C25.098 63.0257 25.4787 62.9626 25.8546 63.007C26.2304 63.0514 26.586 63.2015 26.8799 63.44L36.2399 70.94C36.4735 71.1274 36.662 71.3649 36.7915 71.6349C36.9211 71.9049 36.9883 72.2005 36.9883 72.5C36.9883 72.7995 36.9211 73.0951 36.7915 73.3651C36.662 73.6351 36.4735 73.8726 36.2399 74.06L26.8799 81.56C26.5227 81.8466 26.0779 82.0019 25.6199 82ZM27.6199 69.16V75.84L31.7999 72.5L27.6199 69.16Z" fill="#693CC5"/>
</svg>
