<svg width="100" height="100" viewBox="0 0 100 100" fill="none" xmlns="http://www.w3.org/2000/svg">
<g clip-path="url(#clip0_0_439)">
<path d="M100 0H0V100H100V0Z" fill="url(#paint0_linear_0_439)"/>
<path d="M50 32.3468C48.7468 32.3468 47.5218 31.9751 46.48 31.2786C45.4382 30.582 44.6265 29.5921 44.1475 28.4341C43.6685 27.276 43.5439 26.0019 43.7894 24.773C44.0348 23.5441 44.6393 22.4157 45.5264 21.5305C46.4135 20.6453 47.5432 20.0431 48.7726 19.8003C50.0021 19.5574 51.2759 19.6847 52.4329 20.1661C53.59 20.6475 54.5782 21.4613 55.2725 22.5046C55.9668 23.5479 56.336 24.7737 56.3333 26.0268C56.3298 27.7042 55.661 29.3117 54.4736 30.4966C53.2863 31.6814 51.6774 32.3469 50 32.3468ZM50 22.3602C49.2748 22.3602 48.5659 22.5752 47.9629 22.9781C47.3599 23.381 46.89 23.9537 46.6125 24.6237C46.3349 25.2937 46.2623 26.0309 46.4038 26.7422C46.5453 27.4534 46.8945 28.1068 47.4073 28.6196C47.9201 29.1324 48.5734 29.4816 49.2847 29.6231C49.9959 29.7645 50.7332 29.6919 51.4032 29.4144C52.0732 29.1369 52.6458 28.6669 53.0487 28.0639C53.4516 27.461 53.6667 26.752 53.6667 26.0268C53.6667 25.0544 53.2804 24.1218 52.5927 23.4341C51.9051 22.7465 50.9725 22.3602 50 22.3602Z" fill="white"/>
<path d="M73.9733 56.3332C72.7207 56.3332 71.4962 55.9617 70.4547 55.2658C69.4132 54.5699 68.6015 53.5808 68.1221 52.4235C67.6428 51.2662 67.5173 49.9928 67.7617 48.7643C68.0061 47.5357 68.6093 46.4072 69.495 45.5215C70.3807 44.6358 71.5092 44.0326 72.7378 43.7882C73.9663 43.5438 75.2397 43.6692 76.397 44.1486C77.5543 44.628 78.5434 45.4397 79.2393 46.4812C79.9352 47.5227 80.3067 48.7472 80.3067 49.9998C80.3067 51.6795 79.6394 53.2904 78.4517 54.4782C77.264 55.6659 75.6531 56.3332 73.9733 56.3332ZM73.9733 46.3332C73.2481 46.3332 72.5392 46.5482 71.9363 46.9511C71.3333 47.354 70.8633 47.9267 70.5858 48.5967C70.3083 49.2667 70.2357 50.0039 70.3771 50.7152C70.5186 51.4264 70.8678 52.0798 71.3806 52.5926C71.8934 53.1054 72.5468 53.4546 73.258 53.596C73.9693 53.7375 74.7065 53.6649 75.3765 53.3874C76.0465 53.1099 76.6192 52.6399 77.0221 52.0369C77.425 51.4339 77.64 50.725 77.64 49.9998C77.64 49.0274 77.2537 48.0947 76.5661 47.4071C75.8784 46.7195 74.9458 46.3332 73.9733 46.3332Z" fill="white"/>
<path d="M50 80.3068C48.7474 80.3068 47.5229 79.9354 46.4814 79.2394C45.4399 78.5435 44.6281 77.5544 44.1488 76.3971C43.6694 75.2399 43.544 73.9664 43.7884 72.7379C44.0328 71.5094 44.6359 70.3809 45.5217 69.4951C46.4074 68.6094 47.5359 68.0062 48.7645 67.7618C49.993 67.5175 51.2664 67.6429 52.4237 68.1222C53.5809 68.6016 54.5701 69.4133 55.266 70.4549C55.9619 71.4964 56.3334 72.7209 56.3334 73.9735C56.3334 75.6532 55.6661 77.2641 54.4784 78.4518C53.2906 79.6395 51.6797 80.3068 50 80.3068ZM50 70.3201C49.2743 70.3201 48.5648 70.5355 47.9616 70.939C47.3583 71.3425 46.8883 71.916 46.6112 72.5867C46.3341 73.2575 46.2623 73.9954 46.4048 74.7071C46.5474 75.4187 46.8979 76.072 47.4121 76.5842C47.9262 77.0965 48.5808 77.4447 49.2929 77.5846C50.005 77.7246 50.7427 77.6501 51.4125 77.3705C52.0822 77.091 52.6539 76.6189 53.0552 76.0142C53.4565 75.4094 53.6693 74.6992 53.6667 73.9735C53.6632 73.0033 53.2753 72.0741 52.588 71.3894C51.9008 70.7046 50.9702 70.3201 50 70.3201Z" fill="white"/>
<path d="M26.0267 56.3332C24.7735 56.3358 23.5478 55.9666 22.5045 55.2723C21.4612 54.578 20.6474 53.5898 20.166 52.4327C19.6846 51.2757 19.5573 50.0019 19.8001 48.7725C20.043 47.543 20.6451 46.4133 21.5303 45.5262C22.4155 44.6392 23.544 44.0346 24.7729 43.7892C26.0018 43.5437 27.2759 43.6684 28.434 44.1473C29.592 44.6263 30.5819 45.438 31.2784 46.4798C31.9749 47.5216 32.3467 48.7466 32.3467 49.9998C32.3467 51.6772 31.6813 53.2861 30.4965 54.4735C29.3116 55.6608 27.7041 56.3296 26.0267 56.3332ZM26.0267 46.3332C25.301 46.3305 24.5907 46.5433 23.986 46.9446C23.3813 47.3459 22.9092 47.9176 22.6297 48.5874C22.3501 49.2572 22.2756 49.9948 22.4156 50.707C22.5555 51.4191 22.9037 52.0737 23.4159 52.5878C23.9282 53.1019 24.5815 53.4525 25.2931 53.595C26.0048 53.7376 26.7427 53.6658 27.4135 53.3886C28.0842 53.1115 28.6577 52.6416 29.0612 52.0383C29.4647 51.435 29.6801 50.7256 29.6801 49.9998C29.6801 49.0297 29.2956 48.0991 28.6108 47.4118C27.9261 46.7246 26.9969 46.3367 26.0267 46.3332Z" fill="white"/>
<path d="M50 82.3067C43.6104 82.3067 37.3642 80.412 32.0514 76.8621C26.7386 73.3121 22.5978 68.2665 20.1526 62.3633C17.7074 56.46 17.0676 49.9642 18.3141 43.6973C19.5607 37.4304 22.6376 31.6739 27.1558 27.1558C31.6739 22.6376 37.4304 19.5607 43.6973 18.3141C49.9642 17.0676 56.46 17.7074 62.3633 20.1526C68.2665 22.5978 73.3121 26.7386 76.8621 32.0514C80.412 37.3642 82.3067 43.6104 82.3067 50C82.2961 58.5651 78.889 66.7762 72.8326 72.8326C66.7762 78.889 58.5651 82.2961 50 82.3067ZM50 20.36C44.1378 20.36 38.4072 22.0984 33.5329 25.3553C28.6587 28.6122 24.8596 33.2413 22.6163 38.6573C20.3729 44.0733 19.7859 50.0329 20.9296 55.7825C22.0732 61.5321 24.8962 66.8135 29.0414 70.9587C33.1866 75.1039 38.468 77.9269 44.2176 79.0705C49.9672 80.2142 55.9268 79.6272 61.3428 77.3838C66.7588 75.1404 71.3879 71.3414 74.6448 66.4671C77.9017 61.5929 79.64 55.8623 79.64 50C79.6295 42.1423 76.5033 34.6094 70.947 29.0531C65.3907 23.4968 57.8578 20.3706 50 20.36Z" fill="white"/>
<path d="M50.0001 59.2403C48.1726 59.2403 46.3861 58.6983 44.8666 57.683C43.3471 56.6677 42.1628 55.2246 41.4634 53.5363C40.7641 51.8479 40.5811 49.99 40.9376 48.1976C41.2941 46.4052 42.1742 44.7588 43.4664 43.4666C44.7586 42.1744 46.4051 41.2943 48.1974 40.9378C49.9898 40.5813 51.8477 40.7643 53.5361 41.4636C55.2245 42.163 56.6676 43.3473 57.6829 44.8668C58.6982 46.3863 59.2401 48.1728 59.2401 50.0003C59.2366 52.4498 58.2619 54.798 56.5298 56.53C54.7978 58.2621 52.4496 59.2367 50.0001 59.2403ZM50.0001 43.4269C48.7 43.4269 47.4291 43.8124 46.3481 44.5347C45.2671 45.257 44.4246 46.2836 43.9271 47.4848C43.4296 48.6859 43.2994 50.0076 43.553 51.2827C43.8067 52.5578 44.4327 53.729 45.352 54.6483C46.2713 55.5676 47.4426 56.1937 48.7177 56.4473C49.9928 56.7009 51.3145 56.5707 52.5156 56.0732C53.7167 55.5757 54.7433 54.7332 55.4656 53.6522C56.1879 52.5712 56.5734 51.3003 56.5734 50.0003C56.5734 49.137 56.4034 48.2823 56.073 47.4848C55.7427 46.6872 55.2585 45.9626 54.6481 45.3522C54.0377 44.7418 53.3131 44.2576 52.5156 43.9273C51.7181 43.597 50.8633 43.4269 50.0001 43.4269Z" fill="white"/>
<path d="M42.08 48.6665H31.0134V51.3332H42.08V48.6665Z" fill="white"/>
<path d="M68.9734 48.6665H57.9067V51.3332H68.9734V48.6665Z" fill="white"/>
<path d="M51.3334 57.9067H48.6667V68.9734H51.3334V57.9067Z" fill="white"/>
<path d="M51.3334 31.0132H48.6667V42.0798H51.3334V31.0132Z" fill="white"/>
</g>
<defs>
<linearGradient id="paint0_linear_0_439" x1="-20.7107" y1="120.715" x2="120.711" y2="-20.7067" gradientUnits="userSpaceOnUse">
<stop stop-color="#4D27A8"/>
<stop offset="1" stop-color="#A166FF"/>
</linearGradient>
<clipPath id="clip0_0_439">
<rect width="100" height="100" fill="white"/>
</clipPath>
</defs>
</svg>
