<svg width="100" height="100" viewBox="0 0 100 100" fill="none" xmlns="http://www.w3.org/2000/svg">
<g clip-path="url(#clip0_0_402)">
<path d="M100 0H0V100H100V0Z" fill="url(#paint0_linear_0_402)"/>
<path d="M64.4132 53.1463C64.2085 53.1443 64.007 53.0951 63.8243 53.0026C63.6417 52.9101 63.4827 52.7768 63.3599 52.613C62.5999 51.5597 55.9066 42.2663 55.9066 37.9463C55.8612 36.8 56.0478 35.6563 56.4552 34.5839C56.8626 33.5114 57.4824 32.5323 58.2774 31.7051C59.0724 30.878 60.0262 30.22 61.0817 29.7705C62.1373 29.321 63.2727 29.0894 64.4199 29.0894C65.5671 29.0894 66.7026 29.321 67.7581 29.7705C68.8136 30.22 69.7674 30.878 70.5624 31.7051C71.3575 32.5323 71.9772 33.5114 72.3846 34.5839C72.792 35.6563 72.9786 36.8 72.9332 37.9463C72.9332 42.2397 66.2666 51.533 65.4799 52.613C65.3557 52.7786 65.1947 52.913 65.0095 53.0056C64.8244 53.0981 64.6202 53.1463 64.4132 53.1463ZM64.4132 32.0663C62.849 32.0699 61.35 32.6937 60.2452 33.8011C59.1404 34.9084 58.5199 36.4088 58.5199 37.973C58.5199 40.2397 61.7999 45.7597 64.4132 49.573C67.0799 45.7597 70.3199 40.2397 70.3199 37.973C70.3199 36.4065 69.6976 34.9041 68.5899 33.7964C67.4822 32.6886 65.9798 32.0663 64.4132 32.0663Z" fill="white"/>
<path d="M64.4133 42.5331C63.5108 42.5331 62.6287 42.2653 61.8785 41.7636C61.1283 41.262 60.5438 40.549 60.1991 39.715C59.8544 38.881 59.7648 37.9635 59.9419 37.0786C60.1189 36.1936 60.5545 35.3812 61.1936 34.744C61.8327 34.1068 62.6464 33.6735 63.5318 33.4991C64.4173 33.3246 65.3346 33.4169 66.1676 33.764C67.0005 34.1112 67.7118 34.6978 68.2112 35.4494C68.7107 36.201 68.9759 37.084 68.9733 37.9864C68.9733 38.5846 68.8552 39.1769 68.6259 39.7294C68.3966 40.2819 68.0605 40.7837 67.6369 41.2061C67.2132 41.6285 66.7105 41.9631 66.1573 42.1908C65.6041 42.4185 65.0115 42.5348 64.4133 42.5331ZM64.4133 36.0398C64.0282 36.0398 63.6519 36.1539 63.3317 36.3678C63.0116 36.5817 62.7621 36.8858 62.6148 37.2415C62.4674 37.5972 62.4289 37.9886 62.504 38.3662C62.5791 38.7438 62.7645 39.0907 63.0368 39.3629C63.309 39.6352 63.6559 39.8206 64.0335 39.8957C64.4111 39.9708 64.8025 39.9322 65.1582 39.7849C65.5139 39.6376 65.8179 39.3881 66.0318 39.0679C66.2458 38.7478 66.3599 38.3714 66.3599 37.9864C66.3652 37.7274 66.3188 37.47 66.2234 37.2292C66.1279 36.9884 65.9854 36.769 65.8041 36.584C65.6228 36.399 65.4064 36.252 65.1676 36.1517C64.9287 36.0513 64.6723 35.9997 64.4133 35.9998V36.0398Z" fill="white"/>
<path d="M71.0666 71.6665H30.16C26.9153 71.7038 23.7777 70.5073 21.3816 68.3192C18.9856 66.131 17.51 63.1146 17.2533 59.8799C17.2533 59.5465 17.2533 59.2132 17.2533 58.8665C17.1206 56.1835 17.8921 53.5336 19.444 51.341C20.996 49.1484 23.2388 47.54 25.8133 46.7732C25.8133 46.4265 25.8133 46.0799 25.8133 45.7332C25.8735 42.3955 26.8572 39.1398 28.6554 36.3272C30.4535 33.5147 32.9957 31.2553 36 29.7999C39.2377 28.3656 42.8397 27.9672 46.3126 28.6594C49.7855 29.3516 52.9595 31.1005 55.4 33.6665L53.5466 35.5065C51.4749 33.3116 48.7718 31.8154 45.8118 31.2253C42.8519 30.6353 39.7816 30.9805 37.0266 32.2132C34.4914 33.4578 32.3443 35.3712 30.8169 37.7469C29.2896 40.1225 28.44 42.8701 28.36 45.6932C28.3596 46.3085 28.3997 46.9232 28.48 47.5332C28.5124 47.8648 28.4195 48.1964 28.2196 48.463C28.0197 48.7295 27.7273 48.9115 27.4 48.9732C25.1704 49.4413 23.1821 50.6924 21.7953 52.4999C20.4085 54.3074 19.7149 56.5518 19.84 58.8265C19.84 59.1065 19.84 59.3999 19.84 59.6665C20.0527 62.2374 21.234 64.6314 23.1451 66.3642C25.0561 68.097 27.554 69.0391 30.1333 68.9999H70.9333C71.2133 68.9999 80.1333 68.0932 80.1333 58.8665C80.1333 51.1199 73.7466 49.1865 71 48.7199L71.44 46.1465C74.1066 46.5999 82.7466 48.8132 82.7466 58.8665C82.7733 70.5732 71.1866 71.6532 71.0666 71.6665Z" fill="white"/>
<path d="M40 42.6668H27.76V40.0001H38.6667V29.6001H41.3333V41.3334C41.3333 41.687 41.1929 42.0262 40.9428 42.2762C40.6928 42.5263 40.3536 42.6668 40 42.6668Z" fill="white"/>
<path d="M23.7066 67.453L21.9199 65.5464L38.2399 50.253V48.693H27.2533V46.0264H39.5466C39.9002 46.0264 40.2394 46.1668 40.4894 46.4169C40.7394 46.6669 40.8799 47.0061 40.8799 47.3597V50.7864C40.8792 50.966 40.8423 51.1436 40.7712 51.3086C40.7002 51.4735 40.5966 51.6224 40.4666 51.7464L23.7066 67.453Z" fill="white"/>
<path d="M27.3199 70.6666L25.5199 68.7732L39.0532 55.7999C39.2423 55.6334 39.4747 55.5239 39.7234 55.4841C39.9721 55.4442 40.2271 55.4756 40.4587 55.5747C40.6903 55.6738 40.8891 55.8364 41.0321 56.0438C41.175 56.2512 41.2564 56.4949 41.2666 56.7466V70.3599H38.6666V59.7866L27.3199 70.6666Z" fill="white"/>
<path d="M54.0799 51.3068H45.8399C45.4863 51.3068 45.1472 51.1663 44.8971 50.9162C44.6471 50.6662 44.5066 50.327 44.5066 49.9734V29.6001H47.1733V48.6934H52.7999V38.6668H55.4666V50.0001C55.4632 50.1775 55.4244 50.3525 55.3525 50.5147C55.2806 50.6769 55.177 50.8232 55.0479 50.9449C54.9188 51.0666 54.7666 51.1613 54.6004 51.2234C54.4342 51.2856 54.2572 51.3139 54.0799 51.3068Z" fill="white"/>
<path d="M54.0799 63.0398H45.8399C45.4863 63.0398 45.1472 62.8994 44.8971 62.6493C44.6471 62.3993 44.5066 62.0601 44.5066 61.7065V53.9998C44.5066 53.6462 44.6471 53.3071 44.8971 53.057C45.1472 52.807 45.4863 52.6665 45.8399 52.6665H54.0799C54.4335 52.6665 54.7727 52.807 55.0227 53.057C55.2728 53.3071 55.4133 53.6462 55.4133 53.9998V61.7332C55.4063 62.0822 55.2627 62.4145 55.0134 62.6588C54.7641 62.9031 54.429 63.0399 54.0799 63.0398ZM47.1466 60.3732H52.7733V55.3065H47.1466V60.3732Z" fill="white"/>
<path d="M54.16 71.6664H45.92C45.5664 71.6664 45.2272 71.5259 44.9772 71.2759C44.7271 71.0258 44.5867 70.6867 44.5867 70.333V65.7064C44.5867 65.3528 44.7271 65.0136 44.9772 64.7636C45.2272 64.5135 45.5664 64.373 45.92 64.373H54.16C54.5136 64.373 54.8528 64.5135 55.1028 64.7636C55.3529 65.0136 55.4933 65.3528 55.4933 65.7064V70.3597C55.4864 70.7087 55.3428 71.041 55.0935 71.2853C54.8442 71.5296 54.509 71.6665 54.16 71.6664ZM47.2267 68.9997H52.8533V67.013H47.2267V68.9997Z" fill="white"/>
<path d="M61.4933 70.8H58.8267V56.2933C58.8267 55.9397 58.9671 55.6005 59.2172 55.3505C59.4672 55.1004 59.8064 54.96 60.16 54.96H81.4933V57.6266H61.4933V70.8Z" fill="white"/>
</g>
<defs>
<linearGradient id="paint0_linear_0_402" x1="-20.7067" y1="120.711" x2="120.715" y2="-20.7107" gradientUnits="userSpaceOnUse">
<stop stop-color="#4D27A8"/>
<stop offset="1" stop-color="#A166FF"/>
</linearGradient>
<clipPath id="clip0_0_402">
<rect width="100" height="100" fill="white"/>
</clipPath>
</defs>
</svg>
