<svg width="100" height="100" viewBox="0 0 100 100" fill="none" xmlns="http://www.w3.org/2000/svg">
<g clip-path="url(#clip0_0_373)">
<path d="M100 0H0V100H100V0Z" fill="url(#paint0_linear_0_373)"/>
<path d="M28.3067 34.9736L26.9734 32.627L34.8001 28.3736L36.1334 30.7203L28.3067 34.9736ZM40.8134 28.1603L39.4801 25.8136L46.4934 21.9736L47.8267 24.3203L40.8134 28.1603Z" fill="white"/>
<path d="M48 47.4536L40.9334 43.7602L42.16 41.4002L49.2534 45.0936L48 47.4536ZM36.2 41.3336L29.1067 37.6002L30.3334 35.2402L37.4267 38.9336L36.2 41.3336Z" fill="white"/>
<path d="M53.2267 47.2937L52 44.8937L59.24 41.3337L60.4133 43.7203L53.2267 47.2937ZM65.2267 41.4137L64 39.027L71.1733 35.4937L72.3467 37.8937L65.2267 41.4137Z" fill="white"/>
<path d="M47.2133 78.8803L39.2133 74.6537L40.4533 72.2937L48.4533 76.5203L47.2133 78.8803ZM35.2133 72.667L28.1733 68.8804L29.44 66.5337L36.48 70.3204L35.2133 72.667Z" fill="white"/>
<path d="M28.0533 38.4536H25.3866V48.7203H28.0533V38.4536Z" fill="white"/>
<path d="M51.4667 65.0537H48.8V75.5604H51.4667V65.0537Z" fill="white"/>
<path d="M26.6667 39.5204C25.7106 39.5169 24.795 39.1346 24.1203 38.4574C23.4455 37.7801 23.0666 36.8631 23.0667 35.9071C23.069 35.4258 23.1683 34.95 23.3584 34.5079C23.5485 34.0658 23.8256 33.6665 24.1733 33.3338C24.8632 32.6602 25.7892 32.2832 26.7533 32.2832C27.7175 32.2832 28.6434 32.6602 29.3333 33.3338C29.6711 33.6663 29.9394 34.0627 30.1226 34.4999C30.3057 34.9371 30.4 35.4064 30.4 35.8804C30.4 36.3544 30.3057 36.8237 30.1226 37.2609C29.9394 37.6982 29.6711 38.0946 29.3333 38.4271C28.9906 38.7865 28.576 39.0696 28.1165 39.258C27.657 39.4464 27.163 39.5358 26.6667 39.5204ZM26.6667 34.9738C26.5431 34.9701 26.4201 34.9917 26.3052 35.0373C26.1903 35.0829 26.0859 35.1515 25.9985 35.2389C25.9111 35.3263 25.8424 35.4307 25.7968 35.5456C25.7512 35.6605 25.7296 35.7835 25.7333 35.9071C25.7316 36.0303 25.7542 36.1527 25.8 36.2671C25.8457 36.3815 25.9137 36.4857 26 36.5738C26.1324 36.7051 26.3005 36.7943 26.4835 36.8304C26.6664 36.8665 26.8559 36.8478 27.0282 36.7766C27.2005 36.7054 27.348 36.5849 27.4521 36.4302C27.5561 36.2755 27.6122 36.0935 27.6133 35.9071C27.6064 35.6577 27.5065 35.4199 27.3333 35.2404C27.1525 35.071 26.9145 34.9758 26.6667 34.9738Z" fill="white"/>
<path d="M26.6658 69.3337C25.9536 69.3304 25.2582 69.1167 24.667 68.7195C24.0759 68.3222 23.6153 67.7591 23.3432 67.1009C23.0711 66.4427 22.9996 65.7187 23.1376 65.02C23.2757 64.3213 23.6171 63.6789 24.1191 63.1737C24.8058 62.5199 25.7177 62.1553 26.6658 62.1553C27.6139 62.1553 28.5258 62.5199 29.2125 63.1737C29.5507 63.5073 29.8193 63.9049 30.0026 64.3432C30.1859 64.7815 30.2803 65.2519 30.2803 65.727C30.2803 66.2021 30.1859 66.6725 30.0026 67.1108C29.8193 67.5492 29.5507 67.9467 29.2125 68.2803C28.8793 68.6164 28.4825 68.8826 28.0452 69.0634C27.6079 69.2443 27.139 69.3362 26.6658 69.3337ZM26.6658 64.787C26.5421 64.787 26.4196 64.8116 26.3055 64.8593C26.1914 64.9071 26.0879 64.977 26.0011 65.0651C25.9142 65.1532 25.8458 65.2576 25.7996 65.3724C25.7535 65.4872 25.7307 65.61 25.7325 65.7337C25.7324 65.9191 25.7876 66.1003 25.891 66.2542C25.9944 66.4082 26.1413 66.5278 26.313 66.5979C26.4846 66.668 26.6733 66.6854 26.8549 66.6478C27.0364 66.6102 27.2027 66.5195 27.3325 66.387C27.4228 66.3011 27.4948 66.1977 27.5439 66.0831C27.5931 65.9685 27.6185 65.8451 27.6185 65.7204C27.6185 65.5956 27.5931 65.4722 27.5439 65.3576C27.4948 65.243 27.4228 65.1396 27.3325 65.0537C27.1463 64.8988 26.9073 64.8223 26.6658 64.8404V64.787Z" fill="white"/>
<path d="M50.1334 81.3333C49.5415 81.3329 48.9588 81.1867 48.437 80.9074C47.9151 80.6282 47.4702 80.2246 47.1415 79.7323C46.8129 79.2401 46.6107 78.6744 46.5528 78.0854C46.4949 77.4964 46.5831 76.9021 46.8097 76.3553C47.0362 75.8086 47.3941 75.326 47.8516 74.9506C48.3091 74.5751 48.8521 74.3182 49.4326 74.2026C50.0131 74.087 50.6131 74.1164 51.1795 74.288C51.746 74.4596 52.2613 74.7683 52.68 75.1866C53.1839 75.6901 53.5271 76.3318 53.6662 77.0304C53.8053 77.729 53.734 78.4532 53.4614 79.1113C53.1887 79.7693 52.727 80.3317 52.1345 80.7273C51.5421 81.1228 50.8457 81.3337 50.1334 81.3333ZM50.1334 76.8C49.8855 76.802 49.6475 76.8972 49.4667 77.0666C49.3335 77.1987 49.2426 77.3674 49.2054 77.5512C49.1683 77.7351 49.1866 77.9258 49.258 78.0992C49.3294 78.2727 49.4508 78.421 49.6066 78.5253C49.7625 78.6297 49.9458 78.6854 50.1334 78.6854C50.3209 78.6854 50.5043 78.6297 50.6601 78.5253C50.8159 78.421 50.9373 78.2727 51.0087 78.0992C51.0801 77.9258 51.0984 77.7351 51.0613 77.5512C51.0241 77.3674 50.9332 77.1987 50.8 77.0666C50.6212 76.8923 50.383 76.7922 50.1334 76.7866V76.8Z" fill="white"/>
<path d="M50.1333 51.4269C49.2969 51.4276 48.4861 51.1382 47.8392 50.608C47.1924 50.0777 46.7495 49.3395 46.5862 48.5192C46.4228 47.6989 46.5491 46.8473 46.9435 46.1097C47.3379 45.3721 47.976 44.7942 48.7489 44.4745C49.5218 44.1549 50.3817 44.1132 51.1818 44.3567C51.982 44.6002 52.673 45.1138 53.1368 45.8098C53.6006 46.5058 53.8086 47.3412 53.7253 48.1734C53.642 49.0057 53.2725 49.7833 52.68 50.3735C52.0036 51.0473 51.088 51.426 50.1333 51.4269ZM50.1333 46.8802C49.9495 46.8837 49.7708 46.9407 49.6189 47.0441C49.4669 47.1475 49.3484 47.2929 49.2777 47.4626C49.207 47.6322 49.1872 47.8188 49.2208 47.9995C49.2543 48.1802 49.3397 48.3472 49.4666 48.4802C49.6456 48.6529 49.8846 48.7494 50.1333 48.7494C50.382 48.7494 50.621 48.6529 50.8 48.4802C50.9268 48.3472 51.0123 48.1802 51.0458 47.9995C51.0794 47.8188 51.0596 47.6322 50.9889 47.4626C50.9182 47.2929 50.7997 47.1475 50.6477 47.0441C50.4958 46.9407 50.317 46.8837 50.1333 46.8802Z" fill="white"/>
<path d="M73.3333 69.3337C72.8599 69.3377 72.3906 69.2465 71.9531 69.0655C71.5156 68.8846 71.1189 68.6176 70.7867 68.2803C70.4501 67.9458 70.1829 67.5479 70.0006 67.1097C69.8183 66.6715 69.7245 66.2016 69.7245 65.727C69.7245 65.2524 69.8183 64.7825 70.0006 64.3443C70.1829 63.9061 70.4501 63.5083 70.7867 63.1737C71.4734 62.5199 72.3852 62.1553 73.3333 62.1553C74.2815 62.1553 75.1933 62.5199 75.88 63.1737C76.382 63.6789 76.7235 64.3213 76.8615 65.02C76.9996 65.7187 76.9281 66.4427 76.6559 67.1009C76.3838 67.7591 75.9233 68.3222 75.3321 68.7195C74.7409 69.1167 74.0456 69.3304 73.3333 69.3337ZM73.3333 64.787C73.1143 64.7858 72.9015 64.8605 72.7314 64.9986C72.5613 65.1366 72.4443 65.3294 72.4004 65.544C72.3565 65.7587 72.3884 65.9819 72.4907 66.1756C72.593 66.3694 72.7593 66.5216 72.9613 66.6065C73.1633 66.6913 73.3885 66.7035 73.5984 66.6409C73.8084 66.5783 73.9901 66.4448 74.1126 66.2632C74.2352 66.0815 74.2909 65.8631 74.2704 65.6449C74.2498 65.4268 74.1543 65.2226 74 65.067C73.8159 64.9073 73.5766 64.826 73.3333 64.8404V64.787Z" fill="white"/>
<path d="M73.3333 39.5202C72.859 39.5225 72.389 39.4292 71.9515 39.2459C71.5139 39.0627 71.1178 38.7932 70.7867 38.4535C70.4504 38.1201 70.1836 37.7234 70.0015 37.2863C69.8194 36.8492 69.7256 36.3804 69.7256 35.9069C69.7256 35.4334 69.8194 34.9645 70.0015 34.5274C70.1836 34.0903 70.4504 33.6936 70.7867 33.3602C71.4733 32.7064 72.3852 32.3418 73.3333 32.3418C74.2815 32.3418 75.1933 32.7064 75.88 33.3602C76.5525 34.0372 76.93 34.9526 76.93 35.9069C76.93 36.8611 76.5525 37.7766 75.88 38.4535C75.5488 38.7932 75.1527 39.0627 74.7151 39.2459C74.2776 39.4292 73.8077 39.5225 73.3333 39.5202ZM73.3333 34.9735C73.0855 34.9755 72.8475 35.0707 72.6666 35.2402C72.4939 35.4192 72.3974 35.6582 72.3974 35.9069C72.3974 36.1556 72.4939 36.3946 72.6666 36.5735C72.844 36.7494 73.0836 36.8481 73.3333 36.8481C73.5831 36.8481 73.8227 36.7494 74 36.5735C74.1727 36.3946 74.2692 36.1556 74.2692 35.9069C74.2692 35.6582 74.1727 35.4192 74 35.2402C73.8191 35.0707 73.5811 34.9755 73.3333 34.9735Z" fill="white"/>
<path d="M50.1334 25.8802C49.5415 25.8798 48.9588 25.7335 48.437 25.4543C47.9151 25.175 47.4702 24.7714 47.1415 24.2792C46.8129 23.787 46.6107 23.2213 46.5528 22.6323C46.4949 22.0432 46.5831 21.449 46.8097 20.9022C47.0362 20.3554 47.3941 19.8729 47.8516 19.4974C48.3091 19.1219 48.8521 18.865 49.4326 18.7495C50.0131 18.6339 50.6131 18.6632 51.1795 18.8349C51.746 19.0065 52.2613 19.3152 52.68 19.7335C53.1839 20.237 53.5271 20.8786 53.6662 21.5773C53.8053 22.2759 53.734 23 53.4614 23.6581C53.1887 24.3162 52.727 24.8786 52.1345 25.2742C51.5421 25.6697 50.8457 25.8806 50.1334 25.8802ZM50.1334 21.3468C49.8855 21.3488 49.6475 21.444 49.4667 21.6135C49.3335 21.7456 49.2426 21.9143 49.2054 22.0981C49.1683 22.2819 49.1866 22.4727 49.258 22.6461C49.3294 22.8195 49.4508 22.9678 49.6066 23.0722C49.7625 23.1766 49.9458 23.2323 50.1334 23.2323C50.3209 23.2323 50.5043 23.1766 50.6601 23.0722C50.8159 22.9678 50.9373 22.8195 51.0087 22.6461C51.0801 22.4727 51.0984 22.2819 51.0613 22.0981C51.0241 21.9143 50.9332 21.7456 50.8 21.6135C50.6212 21.4392 50.383 21.3391 50.1334 21.3335V21.3468Z" fill="white"/>
<path d="M28.0533 51.3867H25.3866V62.92H28.0533V51.3867Z" fill="white"/>
<path d="M74.4667 38.4536H71.8V48.7203H74.4667V38.4536Z" fill="white"/>
<path d="M74.4667 51.3867H71.8V62.92H74.4667V51.3867Z" fill="white"/>
<path d="M64.2 30.6669L65.5333 28.3336L73.1867 32.4136L71.8533 34.7602L64.2 30.6669ZM51.4133 23.7469L52.7467 21.4136L60.8533 25.7736L59.52 28.1069L51.4133 23.7469Z" fill="white"/>
<path d="M51.4667 50.3335H48.8V60.8802H51.4667V50.3335Z" fill="white"/>
<path d="M51.88 76.5335L59.5867 72.5335L60.8267 74.9069L53.12 78.9069L51.88 76.5335ZM63.5333 70.5469L71.16 66.5469L72.4933 68.8935L64.8667 72.8935L63.5333 70.5469Z" fill="white"/>
</g>
<defs>
<linearGradient id="paint0_linear_0_373" x1="-20.7162" y1="120.715" x2="120.705" y2="-20.7067" gradientUnits="userSpaceOnUse">
<stop stop-color="#4D27A8"/>
<stop offset="1" stop-color="#A166FF"/>
</linearGradient>
<clipPath id="clip0_0_373">
<rect width="100" height="100" fill="white"/>
</clipPath>
</defs>
</svg>
