<svg width="100" height="100" viewBox="0 0 100 100" fill="none" xmlns="http://www.w3.org/2000/svg">
<g clip-path="url(#clip0_0_423)">
<path d="M100 0H0V100H100V0Z" fill="url(#paint0_linear_0_423)"/>
<path d="M50.1867 67.9996C45.7743 68.0022 41.4602 66.6962 37.7902 64.2467C34.1201 61.7972 31.2589 58.3143 29.5685 54.2385C27.8781 50.1628 27.4345 45.6772 28.2937 41.3493C29.1529 37.0213 31.2764 33.0454 34.3955 29.9244C37.5146 26.8035 41.4892 24.6776 45.8167 23.8158C50.1441 22.954 54.6299 23.395 58.7067 25.083C62.7835 26.7709 66.2681 29.63 68.7198 33.2986C71.1714 36.9672 72.48 41.2805 72.48 45.6929C72.4765 51.6056 70.1271 57.2753 65.9474 61.4575C61.7677 65.6397 56.0994 67.9925 50.1867 67.9996ZM50.1867 26.0662C46.3011 26.0636 42.5021 27.2136 39.2703 29.3706C36.0385 31.5277 33.5191 34.5949 32.0309 38.1842C30.5428 41.7735 30.1527 45.7235 30.9101 49.5345C31.6675 53.3456 33.5383 56.8463 36.2858 59.5938C39.0333 62.3413 42.534 64.2121 46.3451 64.9695C50.1561 65.7269 54.1062 65.3368 57.6954 63.8487C61.2847 62.3605 64.3519 59.8411 66.509 56.6093C68.6661 53.3775 69.816 49.5785 69.8134 45.6929C69.8063 40.4885 67.7367 35.4991 64.0579 31.8178C60.3791 28.1365 55.3911 26.0635 50.1867 26.0529V26.0662Z" fill="white"/>
<path d="M50.1867 36.9865C44.4207 37.1453 38.7034 35.891 33.5333 33.3332L34.8667 31.0132C39.6417 33.3502 44.9124 34.494 50.2267 34.3465C55.5366 34.494 60.803 33.3501 65.5733 31.0132L66.9067 33.3332C61.7169 35.9027 55.9752 37.1573 50.1867 36.9865Z" fill="white"/>
<path d="M65.5333 59.8797C60.7622 57.53 55.4894 56.3811 50.1733 56.5331C44.8617 56.3844 39.594 57.5331 34.8266 59.8797L33.4933 57.5464C38.6686 54.974 44.396 53.7104 50.1733 53.8664C55.9409 53.7224 61.6567 54.9854 66.8266 57.5464L65.5333 59.8797Z" fill="white"/>
<path d="M50.1866 67.9999C43.8666 67.9999 38.9199 58.2132 38.9199 45.7066C38.9199 33.1999 43.8666 23.3999 50.1866 23.3999C56.5066 23.3999 61.4399 33.1999 61.4399 45.7066C61.4399 58.2132 56.4933 67.9999 50.1866 67.9999ZM50.1866 26.0666C46.0266 26.0666 41.5866 33.9599 41.5866 45.7066C41.5866 57.4532 46.0266 65.3332 50.1866 65.3332C54.3466 65.3332 58.7733 57.4532 58.7733 45.7066C58.7733 33.9599 54.3333 26.0532 50.1866 26.0532V26.0666Z" fill="white"/>
<path d="M51.44 49.6797H48.7733V75.6397H51.44V49.6797Z" fill="white"/>
<path d="M37.7066 79.3998C36.8385 79.4024 35.9891 79.1474 35.2659 78.667C34.5428 78.1866 33.9785 77.5024 33.6444 76.7011C33.3103 75.8998 33.2216 75.0173 33.3893 74.1655C33.5571 73.3137 33.9738 72.5308 34.5868 71.916C35.1997 71.3012 35.9813 70.8821 36.8326 70.7117C37.6839 70.5414 38.5666 70.6275 39.3689 70.9591C40.1713 71.2907 40.8571 71.853 41.3398 72.5746C41.8224 73.2963 42.08 74.1449 42.08 75.0131C42.0765 76.1731 41.615 77.2849 40.796 78.1064C39.977 78.9279 38.8667 79.3927 37.7066 79.3998ZM37.7066 73.3064C37.3653 73.3038 37.031 73.4028 36.7461 73.5908C36.4612 73.7787 36.2387 74.0472 36.1068 74.362C35.975 74.6769 35.9398 75.0238 36.0058 75.3587C36.0717 75.6936 36.2358 76.0013 36.4771 76.2426C36.7185 76.484 37.0262 76.648 37.3611 76.714C37.6959 76.7799 38.0429 76.7447 38.3577 76.6129C38.6725 76.4811 38.941 76.2586 39.129 75.9737C39.317 75.6888 39.4159 75.3544 39.4133 75.0131C39.4029 74.5662 39.219 74.1409 38.9004 73.8273C38.5818 73.5137 38.1537 73.3365 37.7066 73.3331V73.3064Z" fill="white"/>
<path d="M50.08 83.0663C49.213 83.0663 48.3654 82.8094 47.6443 82.3279C46.9232 81.8465 46.361 81.1622 46.0285 80.3614C45.6961 79.5606 45.6085 78.6793 45.7767 77.8287C45.9449 76.9782 46.3613 76.1965 46.9735 75.5825C47.5856 74.9685 48.366 74.5497 49.2161 74.3789C50.0661 74.2081 50.9477 74.2931 51.7495 74.6231C52.5513 74.953 53.2373 75.5132 53.7209 76.2328C54.2045 76.9525 54.464 77.7993 54.4667 78.6663C54.4667 79.831 54.0049 80.9481 53.1827 81.7729C52.3604 82.5977 51.2446 83.0628 50.08 83.0663ZM50.08 76.973C49.7387 76.973 49.4051 77.0746 49.1217 77.2648C48.8383 77.455 48.6179 77.7252 48.4885 78.0411C48.3592 78.3569 48.3267 78.7041 48.3953 79.0385C48.4638 79.3728 48.6303 79.6792 48.8735 79.9187C49.1167 80.1581 49.4257 80.3198 49.7611 80.3831C50.0965 80.4464 50.4431 80.4085 50.7569 80.2743C51.0707 80.14 51.3374 79.9154 51.5232 79.629C51.7089 79.3427 51.8053 79.0076 51.8 78.6663C51.793 78.2148 51.6087 77.7841 51.2869 77.4673C50.9651 77.1505 50.5316 76.9729 50.08 76.973Z" fill="white"/>
<path d="M62.5067 79.3998C61.6385 79.4024 60.7891 79.1474 60.066 78.667C59.3428 78.1866 58.7785 77.5024 58.4444 76.7011C58.1104 75.8998 58.0216 75.0173 58.1894 74.1655C58.3571 73.3137 58.7738 72.5308 59.3868 71.916C59.9998 71.3012 60.7814 70.8821 61.6326 70.7117C62.4839 70.5414 63.3666 70.6275 64.169 70.9591C64.9713 71.2907 65.6572 71.853 66.1398 72.5746C66.6224 73.2963 66.88 74.1449 66.88 75.0131C66.88 76.1742 66.4197 77.288 65.5999 78.1102C64.7801 78.9325 63.6678 79.3962 62.5067 79.3998ZM62.5067 73.3064C62.1654 73.3038 61.831 73.4028 61.5461 73.5908C61.2612 73.7787 61.0387 74.0472 60.9069 74.362C60.7751 74.6769 60.7399 75.0238 60.8058 75.3587C60.8718 75.6936 61.0358 76.0013 61.2772 76.2426C61.5185 76.484 61.8262 76.648 62.1611 76.714C62.496 76.7799 62.8429 76.7447 63.1578 76.6129C63.4726 76.4811 63.7411 76.2586 63.9291 75.9737C64.117 75.6888 64.216 75.3544 64.2134 75.0131C64.203 74.5662 64.019 74.1409 63.7004 73.8273C63.3819 73.5137 62.9537 73.3365 62.5067 73.3331V73.3064Z" fill="white"/>
<path d="M63.84 71.7599H61.1734V70.5866H50.1067V67.9199H61.1467C62.76 67.9199 63.8134 68.6666 63.8134 69.7733L63.84 71.7599Z" fill="white"/>
<path d="M39.04 71.7599H36.3733V69.7733C36.3733 68.6666 37.4533 67.9199 39.04 67.9199H50.08V70.5866H39.0133L39.04 71.7599Z" fill="white"/>
<path d="M47.5733 53.3733L45.6799 51.4933L50.1866 47L54.6799 51.4933L52.7866 53.3733L50.1866 50.7733L47.5733 53.3733Z" fill="white"/>
<path d="M70.4133 66.1998L68.52 64.3065C72.1813 60.6438 74.6745 55.9778 75.6841 50.8983C76.6938 45.8189 76.1747 40.5541 74.1924 35.7696C72.2102 30.9852 68.8537 26.8959 64.5476 24.0189C60.2414 21.1419 55.1788 19.6063 50 19.6063C44.8211 19.6063 39.7586 21.1419 35.4524 24.0189C31.1462 26.8959 27.7898 30.9852 25.8075 35.7696C23.8253 40.5541 23.3061 45.8189 24.3158 50.8983C25.3255 55.9778 27.8186 60.6438 31.48 64.3065L29.5866 66.1998C25.55 62.1626 22.8011 57.019 21.6877 51.4195C20.5742 45.8201 21.1461 40.0162 23.3311 34.7417C25.516 29.4673 29.216 24.9592 33.963 21.7875C38.71 18.6157 44.2909 16.9229 50 16.9229C55.7091 16.9229 61.29 18.6157 66.037 21.7875C70.784 24.9592 74.4839 29.4673 76.6689 34.7417C78.8539 40.0162 79.4258 45.8201 78.3123 51.4195C77.1988 57.019 74.45 62.1626 70.4133 66.1998Z" fill="white"/>
<path d="M71.1467 43.1064H29.2134V45.7731H71.1467V43.1064Z" fill="white"/>
</g>
<defs>
<linearGradient id="paint0_linear_0_423" x1="-20.7147" y1="120.711" x2="120.707" y2="-20.7107" gradientUnits="userSpaceOnUse">
<stop stop-color="#4D27A8"/>
<stop offset="1" stop-color="#A166FF"/>
</linearGradient>
<clipPath id="clip0_0_423">
<rect width="100" height="100" fill="white"/>
</clipPath>
</defs>
</svg>
