<svg width="100" height="100" viewBox="0 0 100 100" fill="none" xmlns="http://www.w3.org/2000/svg">
<g clip-path="url(#clip0_0_415)">
<path d="M100 0H0V100H100V0Z" fill="url(#paint0_linear_0_415)"/>
<path d="M70 59.3199H60.6667V56.6532H70C73.2134 56.6532 80.6667 55.6932 80.6667 46.7866C80.6667 41.4532 77.5334 38.1066 71.3334 36.8532C71.0452 36.795 70.7844 36.6431 70.5915 36.4213C70.3986 36.1994 70.2844 35.92 70.2667 35.6266C69.96 30.4266 66.9334 28.5732 64.44 28.5732C63.5938 28.5815 62.761 28.7856 62.0069 29.1696C61.2527 29.5536 60.5978 30.1071 60.0934 30.7866C59.9483 30.9753 59.7554 31.1218 59.5346 31.2108C59.3139 31.2998 59.0733 31.3281 58.8379 31.2927C58.6025 31.2574 58.3809 31.1596 58.196 31.0096C58.0112 30.8597 57.8698 30.6629 57.7867 30.4399C56.9248 27.9272 55.4969 25.6463 53.6134 23.7732C51.572 21.6552 48.9492 20.1892 46.0757 19.5599C43.2023 18.9307 40.2068 19.1665 37.4671 20.2375C34.7275 21.3086 32.3663 23.1669 30.6815 25.5782C28.9967 27.9895 28.0636 30.8457 28 33.7866C28.0016 34.3881 28.0372 34.9891 28.1067 35.5866C28.1491 35.9112 28.0707 36.24 27.8863 36.5105C27.7018 36.781 27.4244 36.9742 27.1067 37.0532C24.2134 37.7599 19.3334 39.9999 19.3334 46.6666C19.3334 46.9199 19.3334 47.1599 19.3334 47.3999C19.57 49.9787 20.7823 52.3698 22.7227 54.0846C24.6631 55.7995 27.1851 56.7088 29.7734 56.6266H36.6667V59.2932H29.8C26.5293 59.3762 23.3506 58.2062 20.9141 56.0225C18.4777 53.8389 16.9678 50.8068 16.6934 47.5466C16.6934 47.2532 16.6934 46.9599 16.6934 46.6666C16.5851 44.0011 17.3791 41.377 18.947 39.2188C20.5149 37.0605 22.765 35.4942 25.3334 34.7732C25.3334 34.4532 25.3334 34.1199 25.3334 33.7866C25.4097 30.3278 26.5059 26.9687 28.4845 24.1308C30.4631 21.2929 33.2359 19.1027 36.4548 17.8351C39.6738 16.5674 43.1954 16.2789 46.5778 17.0056C49.9602 17.7323 53.0525 19.4419 55.4667 21.9199C57.1356 23.5634 58.4911 25.4972 59.4667 27.6266C60.8759 26.5145 62.6182 25.9087 64.4134 25.9066C68.1467 25.9066 72.08 28.5732 72.8134 34.4666C79.5867 36.1332 83.3067 40.4799 83.3067 46.7866C83.3334 55.9999 76.44 59.3199 70 59.3199Z" fill="white"/>
<path d="M62.4133 75.32H62V68.3467C61.9515 67.3293 61.5049 66.3717 60.7565 65.6807C60.0081 64.9897 59.018 64.6207 58 64.6534H39.3733C38.3552 64.6207 37.3652 64.9897 36.6168 65.6807C35.8684 66.3717 35.4218 67.3293 35.3733 68.3467V75.32H34.96C33.935 75.4019 32.9836 75.8845 32.3121 76.6633C31.6407 77.4421 31.3034 78.4542 31.3733 79.48V83.32H34.04V79.48C34.04 78.6267 34.5333 77.9867 34.96 77.9867H62.4133C62.84 77.9867 63.3333 78.6267 63.3333 79.48V83.32H66V79.48C66.0699 78.4542 65.7326 77.4421 65.0611 76.6633C64.3897 75.8845 63.4383 75.4019 62.4133 75.32ZM38 68.3467C38 67.7867 38.6266 67.32 39.3333 67.32H57.96C58.7066 67.32 59.2933 67.7867 59.2933 68.3467V75.32H37.96L38 68.3467Z" fill="white"/>
<path d="M40.6667 40.6533C39.3713 40.657 38.1215 41.1321 37.1507 41.9898C36.1799 42.8475 35.5545 44.0293 35.3912 45.3144C35.2279 46.5995 35.5379 47.9001 36.2634 48.9733C36.9888 50.0466 38.0801 50.8191 39.3334 51.1467V63.32H42.0001V51.1467C43.2534 50.8191 44.3447 50.0466 45.0701 48.9733C45.7956 47.9001 46.1056 46.5995 45.9423 45.3144C45.779 44.0293 45.1536 42.8475 44.1828 41.9898C43.212 41.1321 41.9622 40.657 40.6667 40.6533ZM40.6667 48.6533C40.1393 48.6533 39.6238 48.4969 39.1852 48.2039C38.7467 47.9109 38.4049 47.4944 38.2031 47.0071C38.0012 46.5199 37.9484 45.9837 38.0513 45.4664C38.1542 44.9491 38.4082 44.474 38.7811 44.101C39.1541 43.7281 39.6292 43.4741 40.1465 43.3712C40.6638 43.2683 41.2 43.3211 41.6872 43.523C42.1745 43.7248 42.591 44.0666 42.884 44.5051C43.177 44.9437 43.3334 45.4592 43.3334 45.9867C43.3334 46.6939 43.0525 47.3722 42.5524 47.8723C42.0523 48.3724 41.374 48.6533 40.6667 48.6533Z" fill="white"/>
<path d="M48.5867 31.3198C47.289 31.3302 46.0396 31.8133 45.0725 32.6788C44.1055 33.5443 43.4872 34.7326 43.3335 36.0213C43.1797 37.3099 43.5011 38.6103 44.2375 39.679C44.9738 40.7477 46.0745 41.5112 47.3334 41.8265V63.3198H50V41.7865C51.237 41.4379 52.3065 40.6544 53.0119 39.5801C53.7172 38.5058 54.0109 37.213 53.8389 35.9394C53.6669 34.6658 53.0409 33.4971 52.0759 32.6483C51.1109 31.7996 49.8718 31.3278 48.5867 31.3198ZM48.5867 39.3198C48.0593 39.3198 47.5437 39.1634 47.1052 38.8704C46.6666 38.5774 46.3248 38.1609 46.123 37.6736C45.9212 37.1864 45.8684 36.6502 45.9713 36.1329C46.0742 35.6156 46.3281 35.1405 46.7011 34.7675C47.074 34.3946 47.5492 34.1406 48.0665 34.0377C48.5837 33.9348 49.1199 33.9876 49.6072 34.1895C50.0945 34.3913 50.5109 34.7331 50.8039 35.1716C51.097 35.6102 51.2534 36.1257 51.2534 36.6532C51.2534 37.3604 50.9724 38.0387 50.4723 38.5388C49.9722 39.0389 49.2939 39.3198 48.5867 39.3198Z" fill="white"/>
<path d="M56.6667 40.6533C55.3713 40.657 54.1215 41.1321 53.1507 41.9898C52.1799 42.8475 51.5545 44.0293 51.3912 45.3144C51.2279 46.5995 51.5379 47.9001 52.2634 48.9733C52.9888 50.0466 54.0801 50.8191 55.3334 51.1467V63.32H58.0001V51.1467C59.2534 50.8191 60.3447 50.0466 61.0701 48.9733C61.7956 47.9001 62.1056 46.5995 61.9423 45.3144C61.779 44.0293 61.1536 42.8475 60.1828 41.9898C59.212 41.1321 57.9622 40.657 56.6667 40.6533ZM56.6667 48.6533C56.1393 48.6533 55.6238 48.4969 55.1852 48.2039C54.7467 47.9109 54.4049 47.4944 54.2031 47.0071C54.0012 46.5199 53.9484 45.9837 54.0513 45.4664C54.1542 44.9491 54.4082 44.474 54.7811 44.101C55.1541 43.7281 55.6292 43.4741 56.1465 43.3712C56.6638 43.2683 57.2 43.3211 57.6872 43.523C58.1745 43.7248 58.591 44.0666 58.884 44.5051C59.177 44.9437 59.3334 45.4592 59.3334 45.9867C59.3334 46.6939 59.0525 47.3722 58.5524 47.8723C58.0523 48.3724 57.374 48.6533 56.6667 48.6533Z" fill="white"/>
</g>
<defs>
<linearGradient id="paint0_linear_0_415" x1="-20.7067" y1="120.707" x2="120.707" y2="-20.7067" gradientUnits="userSpaceOnUse">
<stop stop-color="#4D27A8"/>
<stop offset="1" stop-color="#A166FF"/>
</linearGradient>
<clipPath id="clip0_0_415">
<rect width="100" height="100" fill="white"/>
</clipPath>
</defs>
</svg>
