<svg width="100" height="100" viewBox="0 0 100 100" fill="none" xmlns="http://www.w3.org/2000/svg">
<g clip-path="url(#clip0_0_395)">
<path d="M100 0H0V100H100V0Z" fill="url(#paint0_linear_0_395)"/>
<path d="M60.6667 77.9066H39.3334C38.2725 77.9066 37.2551 77.4852 36.5049 76.735C35.7548 75.9849 35.3334 74.9675 35.3334 73.9066V57.6133C35.3334 56.5524 35.7548 55.535 36.5049 54.7849C37.2551 54.0347 38.2725 53.6133 39.3334 53.6133H60.6667C61.7276 53.6133 62.745 54.0347 63.4951 54.7849C64.2453 55.535 64.6667 56.5524 64.6667 57.6133V73.8933C64.6685 74.4197 64.5663 74.9413 64.3661 75.4281C64.1658 75.915 63.8715 76.3575 63.4999 76.7303C63.1282 77.1032 62.6867 77.399 62.2005 77.6009C61.7144 77.8027 61.1931 77.9066 60.6667 77.9066ZM39.3334 56.2666C38.9798 56.2666 38.6406 56.4071 38.3906 56.6571C38.1405 56.9072 38 57.2463 38 57.6V73.8933C38 74.2469 38.1405 74.586 38.3906 74.8361C38.6406 75.0861 38.9798 75.2266 39.3334 75.2266H60.6667C61.0203 75.2266 61.3595 75.0861 61.6095 74.8361C61.8596 74.586 62 74.2469 62 73.8933V57.6133C62 57.2597 61.8596 56.9205 61.6095 56.6705C61.3595 56.4204 61.0203 56.2799 60.6667 56.2799L39.3334 56.2666Z" fill="white"/>
<path d="M59.8534 51.9997H57.1868V48.9064C57.1868 47.8455 56.7654 46.8281 56.0152 46.078C55.2651 45.3278 54.2476 44.9064 53.1868 44.9064H46.7868C45.7259 44.9064 44.7085 45.3278 43.9584 46.078C43.2082 46.8281 42.7868 47.8455 42.7868 48.9064V51.9997H40.1201V48.9064C40.1201 47.1383 40.8225 45.4426 42.0727 44.1924C43.323 42.9421 45.0187 42.2397 46.7868 42.2397H53.1868C54.9549 42.2397 56.6506 42.9421 57.9008 44.1924C59.1511 45.4426 59.8534 47.1383 59.8534 48.9064V51.9997Z" fill="white"/>
<path d="M50.0401 73.3332C48.958 73.3269 47.9069 72.9706 47.044 72.3176C46.1811 71.6645 45.5527 70.7498 45.2526 69.7101C44.9525 68.6704 44.997 67.5615 45.3792 66.5491C45.7615 65.5367 46.4611 64.6751 47.3734 64.0932V60.9199C47.3734 60.2003 47.6593 59.5101 48.1681 59.0013C48.677 58.4924 49.3671 58.2065 50.0868 58.2065C50.8064 58.2065 51.4965 58.4924 52.0054 59.0013C52.5142 59.5101 52.8001 60.2003 52.8001 60.9199V64.0665C53.7033 64.654 54.3939 65.516 54.77 66.5257C55.1461 67.5353 55.1879 68.6391 54.8891 69.6742C54.5904 70.7094 53.9669 71.6212 53.1107 72.2752C52.2544 72.9291 51.2107 73.2907 50.1334 73.3065L50.0401 73.3332ZM50.0401 60.9065V64.9065C50.0377 65.1713 49.9565 65.4294 49.8069 65.6478C49.6573 65.8663 49.4461 66.0353 49.2001 66.1332C48.6953 66.3374 48.2772 66.7109 48.0175 67.1896C47.7577 67.6682 47.6726 68.2223 47.7766 68.7569C47.8807 69.2914 48.1674 69.7732 48.5876 70.1195C49.0079 70.4659 49.5355 70.6553 50.0801 70.6553C50.6247 70.6553 51.1523 70.4659 51.5726 70.1195C51.9928 69.7732 52.2795 69.2914 52.3836 68.7569C52.4876 68.2223 52.4024 67.6682 52.1427 67.1896C51.883 66.7109 51.4649 66.3374 50.9601 66.1332C50.7166 66.0332 50.5082 65.8633 50.3611 65.645C50.2139 65.4267 50.1347 65.1698 50.1334 64.9065V60.9065H50.0401Z" fill="white"/>
<path d="M70.9201 65.1731H65.9734V62.5064H70.8134C71.0667 62.5064 79.9067 61.5998 79.9067 52.4797C79.9067 44.8264 73.5867 42.9197 70.8667 42.4531C70.5213 42.3942 70.213 42.2017 70.0084 41.9173C69.8038 41.6328 69.7194 41.2793 69.7734 40.9331C69.7734 40.9331 69.7734 40.7597 69.7734 40.7464C70.0119 39.5886 69.8303 38.3837 69.261 37.3478C68.6917 36.3118 67.772 35.5125 66.6667 35.0931C64.4534 34.1064 61.3334 34.2131 59.8534 36.2931C59.7052 36.4999 59.5009 36.6601 59.2647 36.7546C59.0284 36.8491 58.77 36.874 58.5201 36.8264C58.2788 36.7913 58.0518 36.6907 57.8637 36.5355C57.6757 36.3803 57.5338 36.1766 57.4534 35.9464C56.6316 33.4547 55.2652 31.1774 53.4534 29.2797C51.4008 27.1033 48.7218 25.6196 45.7879 25.0342C42.854 24.4489 39.8108 24.791 37.0801 26.0131C34.5729 27.2448 32.4494 29.1375 30.9386 31.4871C29.4278 33.8367 28.587 36.5541 28.5067 39.3464C28.509 39.9524 28.5446 40.5577 28.6134 41.1597C28.6656 41.4943 28.5885 41.8362 28.3978 42.116C28.2072 42.3958 27.9172 42.5926 27.5867 42.6664C25.3792 43.1228 23.4088 44.3562 22.0337 46.1424C20.6586 47.9286 19.9701 50.1489 20.0934 52.3997C20.0934 52.6931 20.0934 52.9731 20.0934 53.2397C20.3089 55.7823 21.4795 58.1489 23.3694 59.8632C25.2594 61.5776 27.7286 62.5125 30.2801 62.4798H34.0001V65.1464H30.3067C27.0785 65.1803 23.9577 63.9879 21.5745 61.8101C19.1913 59.6323 17.7232 56.6313 17.4667 53.4131C17.4667 53.0798 17.4667 52.7464 17.4667 52.3997C17.3326 49.737 18.097 47.1064 19.6372 44.9303C21.1775 42.7541 23.4042 41.1585 25.9601 40.3997C25.9601 40.0531 25.9601 39.7197 25.9601 39.3864C26.0293 36.0663 27.0198 32.8308 28.8209 30.0408C30.622 27.2509 33.1629 25.0163 36.1601 23.5864C39.3778 22.1559 42.9593 21.7558 46.4134 22.4409C49.8676 23.126 53.0252 24.8627 55.4534 27.4131C57.1241 29.0855 58.4792 31.0458 59.4534 33.1997C60.7101 32.4159 62.1425 31.9579 63.6209 31.8671C65.0992 31.7763 66.5769 32.0556 67.9201 32.6797C69.4018 33.2549 70.6632 34.2847 71.5232 35.6214C72.3832 36.9581 72.7975 38.5329 72.7067 40.1197C76.1334 40.9864 82.7067 43.8131 82.7067 52.5064C82.5734 61.7731 74.9467 64.8398 70.9201 65.1731Z" fill="white"/>
</g>
<defs>
<linearGradient id="paint0_linear_0_395" x1="-20.7067" y1="120.707" x2="120.707" y2="-20.7067" gradientUnits="userSpaceOnUse">
<stop stop-color="#4D27A8"/>
<stop offset="1" stop-color="#A166FF"/>
</linearGradient>
<clipPath id="clip0_0_395">
<rect width="100" height="100" fill="white"/>
</clipPath>
</defs>
</svg>
