<svg width="100" height="100" viewBox="0 0 100 100" fill="none" xmlns="http://www.w3.org/2000/svg">
<g clip-path="url(#clip0_0_452)">
<rect x="0.960022" y="1.91992" width="97.2" height="97.2"/>
<path d="M90.5 8.5H8.5V90.5H90.5V8.5Z" fill="url(#paint0_linear_0_452)"/>
<path d="M89 10V89H10V10H89ZM92 7H7V92H92V7Z" fill="white"/>
<path d="M66.16 54C70.74 54 73.47 50.77 73.47 45.36C73.47 42.01 71.18 38.44 64.85 38.04C64.939 36.867 64.753 35.6894 64.3068 34.6009C63.8607 33.5124 63.1666 32.5431 62.28 31.77C61.7515 31.2752 61.1142 30.9116 60.4194 30.7083C59.7246 30.5051 58.9918 30.468 58.28 30.6C56.81 26.22 53.5 24 48.43 24C48.33 24 37.86 24.15 37.35 36.76C28.59 37.31 28.49 45.28 28.49 45.36C28.4584 46.5015 28.6596 47.6375 29.0813 48.6987C29.5031 49.7599 30.1366 50.7242 30.9431 51.5326C31.7496 52.341 32.7124 52.9767 33.7726 53.4009C34.8329 53.8251 35.9684 54.029 37.11 54H47L39.78 60.22C38.9848 59.6663 38.039 59.3697 37.07 59.37C36.1222 59.368 35.1951 59.6473 34.4061 60.1724C33.6171 60.6975 33.0015 61.4449 32.6375 62.32C32.2734 63.1951 32.1771 64.1585 32.3608 65.0883C32.5445 66.0182 32.9999 66.8726 33.6694 67.5435C34.3389 68.2144 35.1924 68.6716 36.1218 68.8572C37.0513 69.0429 38.0149 68.9486 38.8907 68.5863C39.7666 68.2241 40.5152 67.6101 41.042 66.8222C41.5688 66.0343 41.85 65.1078 41.85 64.16C41.8514 63.283 41.6053 62.4234 41.14 61.68L50 54.1V64.53C48.8427 64.777 47.8179 65.4437 47.1229 66.4015C46.428 67.3593 46.1122 68.5404 46.2364 69.7172C46.3606 70.894 46.9161 71.9832 47.7956 72.7748C48.6752 73.5664 49.8166 74.0045 51 74.0045C52.1833 74.0045 53.3248 73.5664 54.2043 72.7748C55.0839 71.9832 55.6393 70.894 55.7635 69.7172C55.8877 68.5404 55.5719 67.3593 54.877 66.4015C54.1821 65.4437 53.1572 64.777 52 64.53V54.1L60.82 61.68C60.3547 62.4234 60.1086 63.283 60.11 64.16C60.11 65.1078 60.3912 66.0343 60.9179 66.8222C61.4447 67.6101 62.1934 68.2241 63.0692 68.5863C63.9451 68.9486 64.9087 69.0429 65.8381 68.8572C66.7676 68.6716 67.6211 68.2144 68.2906 67.5435C68.9601 66.8726 69.4155 66.0182 69.5992 65.0883C69.7828 64.1585 69.6866 63.1951 69.3225 62.32C68.9584 61.4449 68.3429 60.6975 67.5539 60.1724C66.7649 59.6473 65.8378 59.368 64.89 59.37C63.921 59.3697 62.9752 59.6663 62.18 60.22L55 54H66.16ZM30.53 45.37C30.53 45.1 30.67 38.73 38.37 38.73C38.6352 38.73 38.8895 38.6246 39.0771 38.4371C39.2646 38.2496 39.37 37.9952 39.37 37.73C39.37 26.19 48.11 26 48.47 26C53 26 55.63 28 56.69 32.13C56.7272 32.276 56.797 32.4116 56.894 32.5268C56.9911 32.6421 57.1129 32.7339 57.2504 32.7954C57.3879 32.8569 57.5375 32.8866 57.6881 32.8822C57.8387 32.8778 57.9863 32.8395 58.12 32.77C58.5947 32.5556 59.1234 32.4906 59.6359 32.5834C60.1484 32.6763 60.6207 32.9227 60.99 33.29C61.7399 33.9485 62.2942 34.8006 62.5923 35.753C62.8904 36.7054 62.9207 37.7215 62.68 38.69C62.6295 38.8442 62.6173 39.0083 62.6443 39.1682C62.6714 39.3281 62.737 39.4791 62.8354 39.608C62.9339 39.7369 63.0622 39.84 63.2093 39.9083C63.3564 39.9766 63.518 40.0081 63.68 40C68.59 40 71.52 42 71.52 45.36C71.52 47.84 70.83 52 66.21 52H37.21C36.3284 52.0318 35.4497 51.8825 34.6282 51.5612C33.8067 51.2399 33.0598 50.7535 32.4337 50.1321C31.8076 49.5107 31.3156 48.7675 30.9882 47.9484C30.6607 47.1293 30.5048 46.2518 30.53 45.37ZM37.11 67C36.5577 67.002 36.0173 66.84 35.5572 66.5347C35.0971 66.2293 34.7379 65.7943 34.5252 65.2846C34.3125 64.775 34.2559 64.2137 34.3624 63.6719C34.4689 63.13 34.7338 62.6319 35.1236 62.2407C35.5134 61.8495 36.0105 61.5828 36.552 61.4744C37.0935 61.3659 37.655 61.4206 38.1653 61.6314C38.6757 61.8423 39.1121 62.1999 39.4191 62.6589C39.7261 63.118 39.89 63.6578 39.89 64.21C39.89 64.9482 39.5974 65.6564 39.0763 66.1793C38.5553 66.7022 37.8482 66.9974 37.11 67ZM53.79 69.26C53.7801 69.8096 53.6082 70.344 53.2957 70.7962C52.9832 71.2484 52.5441 71.5982 52.0335 71.8017C51.5229 72.0052 50.9635 72.0534 50.4257 71.9402C49.8878 71.8269 49.3954 71.5573 49.0102 71.1652C48.625 70.7731 48.3642 70.276 48.2605 69.7362C48.1568 69.1964 48.2149 68.638 48.4275 68.1311C48.64 67.6242 48.9976 67.1914 49.4553 66.8869C49.9129 66.5825 50.4503 66.4201 51 66.42C51.7399 66.42 52.4496 66.7139 52.9728 67.2372C53.496 67.7604 53.79 68.47 53.79 69.21V69.26ZM64.89 61.42C65.4422 61.418 65.9826 61.58 66.4427 61.8853C66.9029 62.1907 67.262 62.6257 67.4747 63.1354C67.6874 63.645 67.7441 64.2063 67.6376 64.7481C67.5311 65.29 67.2661 65.7881 66.8763 66.1793C66.4866 66.5705 65.9894 66.8372 65.448 66.9456C64.9065 67.0541 64.345 66.9994 63.8346 66.7886C63.3242 66.5777 62.8879 66.2201 62.5809 65.7611C62.2739 65.3021 62.11 64.7622 62.11 64.21C62.1033 63.8403 62.1703 63.4729 62.3069 63.1293C62.4435 62.7856 62.6471 62.4726 62.9058 62.2083C63.1644 61.9441 63.4731 61.7339 63.8137 61.59C64.1543 61.446 64.5202 61.3713 64.89 61.37V61.42Z" fill="white"/>
</g>
<defs>
<linearGradient id="paint0_linear_0_452" x1="8.5" y1="90.5" x2="90.5" y2="8.5" gradientUnits="userSpaceOnUse">
<stop stop-color="#4D27A8"/>
<stop offset="1" stop-color="#A166FF"/>
</linearGradient>
<clipPath id="clip0_0_452">
<rect width="100" height="100" fill="white"/>
</clipPath>
</defs>
</svg>
