<svg width="100" height="100" viewBox="0 0 100 100" fill="none" xmlns="http://www.w3.org/2000/svg">
<g clip-path="url(#clip0_2385_3774)">
<path d="M100 0H0V100H100V0Z" fill="url(#paint0_linear_2385_3774)"/>
<path d="M38.0801 36.7467C26.2801 36.7467 17.3867 33.0134 17.3867 28.0667C17.3867 23.1201 26.2801 19.3867 38.0801 19.3867C49.8801 19.3867 58.7867 23.1201 58.7867 28.0667C58.7867 33.0134 49.8801 36.7467 38.0801 36.7467ZM38.0801 21.4134C27.0801 21.4134 19.4134 24.9201 19.4134 28.0801C19.4134 31.2401 27.0801 34.7467 38.0801 34.7467C49.0801 34.7467 56.7467 31.2401 56.7467 28.0801C56.7467 24.9201 49.0934 21.4134 38.0801 21.4134Z" fill="white"/>
<path d="M58.7867 28.0667H56.76V42.8533H58.7867V28.0667Z" fill="white"/>
<path d="M38.0799 80.6133C26.2799 80.6133 17.3333 76.88 17.3333 72V28.0667H19.3599V72C19.3599 75.1466 27.0266 78.6666 38.0266 78.6666C49.0266 78.6666 56.6933 75.16 56.6933 72V62.6666H58.7199V72C58.7866 76.88 49.8799 80.6133 38.0799 80.6133Z" fill="white"/>
<path d="M29.5066 51.3335C21.9733 49.9202 17.5066 46.9602 17.5066 43.3335H19.5333C19.5333 45.7335 23.7066 48.1068 29.8933 49.2668L29.5066 51.3335Z" fill="white"/>
<path d="M38.1333 67.16C26.36 67.16 17.48 63.4266 17.48 58.48H19.5066C19.5066 61.6266 27.16 65.1466 38.1733 65.1466C47 65.1466 51.6533 63.0666 51.7066 63.0533L52.5466 64.8933C52.3066 64.9733 47.44 67.16 38.1333 67.16Z" fill="white"/>
<path d="M42.3599 57.3333H37.8533C37.2261 57.3298 36.6259 57.0782 36.1837 56.6335C35.7415 56.1888 35.4932 55.5871 35.4933 54.96V50.4133C35.488 50.0994 35.545 49.7876 35.6611 49.4959C35.7771 49.2042 35.9499 48.9384 36.1694 48.714C36.3889 48.4895 36.6508 48.3108 36.9398 48.1883C37.2288 48.0657 37.5393 48.0017 37.8533 48H42.3599C42.9894 48 43.593 48.25 44.0381 48.6951C44.4832 49.1402 44.7333 49.7439 44.7333 50.3733V54.8667C44.7458 55.1861 44.6937 55.5048 44.5801 55.8036C44.4665 56.1024 44.2937 56.3752 44.072 56.6055C43.8504 56.8359 43.5845 57.0191 43.2903 57.1442C42.996 57.2692 42.6796 57.3336 42.3599 57.3333ZM37.8533 50.12C37.7636 50.1234 37.6789 50.1615 37.6167 50.2261C37.5545 50.2908 37.5199 50.377 37.5199 50.4667V54.96C37.5199 55.0484 37.555 55.1332 37.6176 55.1957C37.6801 55.2582 37.7649 55.2933 37.8533 55.2933H42.3599C42.4483 55.2933 42.5331 55.2582 42.5956 55.1957C42.6581 55.1332 42.6933 55.0484 42.6933 54.96V50.4133C42.6933 50.3237 42.6586 50.2374 42.5965 50.1728C42.5343 50.1082 42.4495 50.0701 42.3599 50.0667L37.8533 50.12Z" fill="white"/>
<path d="M59.5599 57.3333H55.0532C54.4261 57.3298 53.8258 57.0782 53.3836 56.6335C52.9414 56.1888 52.6932 55.5871 52.6932 54.96V50.4133C52.6879 50.0994 52.7449 49.7876 52.861 49.4959C52.9771 49.2042 53.1499 48.9384 53.3694 48.714C53.5889 48.4895 53.8507 48.3108 54.1397 48.1883C54.4288 48.0657 54.7393 48.0017 55.0532 48H59.5599C60.187 48.0035 60.7873 48.2551 61.2295 48.6998C61.6717 49.1445 61.9199 49.7462 61.9199 50.3733V54.8667C61.9324 55.185 61.8807 55.5026 61.7679 55.8005C61.6551 56.0984 61.4835 56.3706 61.2633 56.6007C61.043 56.8309 60.7787 57.0144 60.4861 57.1403C60.1934 57.2661 59.8784 57.3318 59.5599 57.3333ZM55.0532 50.12C54.9636 50.1234 54.8788 50.1615 54.8167 50.2261C54.7545 50.2908 54.7198 50.377 54.7199 50.4667V54.96C54.7199 55.0484 54.755 55.1332 54.8175 55.1957C54.88 55.2582 54.9648 55.2933 55.0532 55.2933H59.5599C59.6483 55.2933 59.7331 55.2582 59.7956 55.1957C59.8581 55.1332 59.8932 55.0484 59.8932 54.96V50.4133C59.8933 50.3237 59.8586 50.2374 59.7964 50.1728C59.7343 50.1082 59.6495 50.0701 59.5599 50.0667L55.0532 50.12Z" fill="white"/>
<path d="M76.7466 57.3333H72.2533C71.6239 57.3333 71.0202 57.0833 70.5751 56.6382C70.13 56.1931 69.88 55.5894 69.88 54.96V50.4133C69.8747 50.0983 69.9321 49.7854 70.049 49.4928C70.1659 49.2002 70.3399 48.9339 70.5608 48.7092C70.7817 48.4846 71.0452 48.3062 71.3357 48.1844C71.6263 48.0626 71.9382 48 72.2533 48H76.7466C77.3761 48 77.9798 48.25 78.4248 48.6951C78.8699 49.1402 79.12 49.7439 79.12 50.3733V54.8667C79.1325 55.1861 79.0805 55.5048 78.9668 55.8036C78.8532 56.1024 78.6804 56.3752 78.4587 56.6055C78.2371 56.8359 77.9712 57.0191 77.677 57.1442C77.3828 57.2692 77.0663 57.3336 76.7466 57.3333ZM72.2533 50.12C72.1614 50.12 72.0732 50.1565 72.0082 50.2215C71.9432 50.2865 71.9066 50.3747 71.9066 50.4667V54.96C71.9101 55.0496 71.9481 55.1344 72.0128 55.1966C72.0774 55.2587 72.1636 55.2934 72.2533 55.2933H76.7466C76.8363 55.2934 76.9225 55.2587 76.9872 55.1966C77.0518 55.1344 77.0899 55.0496 77.0933 54.96V50.4133C77.0933 50.3214 77.0568 50.2332 76.9918 50.1682C76.9268 50.1032 76.8386 50.0667 76.7466 50.0667L72.2533 50.12Z" fill="white"/>
<path d="M80.5733 60.7467H68.48C68.2092 60.7449 67.9415 60.6897 67.6921 60.584C67.4428 60.4784 67.2168 60.3245 67.0272 60.1311C66.8376 59.9378 66.6881 59.7089 66.5873 59.4576C66.4865 59.2062 66.4365 58.9374 66.44 58.6667V55.4667H65.4133V58.6667C65.4133 58.9346 65.3606 59.1998 65.258 59.4473C65.1555 59.6948 65.0053 59.9197 64.8158 60.1092C64.6264 60.2986 64.4015 60.4489 64.154 60.5514C63.9065 60.6539 63.6412 60.7067 63.3733 60.7067H51.28C50.74 60.7032 50.2232 60.4871 49.8414 60.1053C49.4595 59.7235 49.2435 59.2066 49.24 58.6667V55.4933H48.16V58.6667C48.1565 59.2066 47.9405 59.7235 47.5586 60.1053C47.1768 60.4871 46.66 60.7032 46.12 60.7067H34.0267C33.489 60.6997 32.9756 60.4821 32.5966 60.1007C32.2177 59.7192 32.0034 59.2043 32 58.6667V46.6667C32.0035 46.1267 32.2195 45.6099 32.6014 45.228C32.9832 44.8462 33.5 44.6302 34.04 44.6267H46.1333C46.671 44.6336 47.1844 44.8512 47.5634 45.2327C47.9423 45.6141 48.1566 46.129 48.16 46.6667V50.6667H49.24V46.6667C49.2435 46.1267 49.4595 45.6099 49.8414 45.228C50.2232 44.8462 50.74 44.6302 51.28 44.6267H63.3733C63.9144 44.6267 64.4333 44.8416 64.8158 45.2242C65.1984 45.6067 65.4133 46.1256 65.4133 46.6667V50.6667H66.44V46.6667C66.4435 46.1267 66.6595 45.6099 67.0414 45.228C67.4232 44.8462 67.94 44.6302 68.48 44.6267H80.5733C80.8457 44.6196 81.1167 44.6671 81.3704 44.7664C81.6241 44.8657 81.8553 45.0148 82.0504 45.205C82.2455 45.3951 82.4006 45.6224 82.5064 45.8735C82.6123 46.1245 82.6668 46.3942 82.6667 46.6667V58.6667C82.6722 58.9425 82.6217 59.2165 82.5183 59.4722C82.4148 59.728 82.2606 59.96 82.065 60.1545C81.8693 60.3489 81.6362 60.5016 81.3798 60.6034C81.1234 60.7052 80.8491 60.7539 80.5733 60.7467ZM68.48 53.48V58.6667H80.5867V46.6667H68.48V52.6933H63.3867V46.6667H51.28V52.6933H46.1333V46.6667H34.0267V58.6667H46.1333V53.48H51.28V58.8133H63.3733V53.4933L68.48 53.48Z" fill="white"/>
</g>
<defs>
<linearGradient id="paint0_linear_2385_3774" x1="-20.7067" y1="120.711" x2="120.715" y2="-20.7107" gradientUnits="userSpaceOnUse">
<stop stop-color="#C8511B"/>
<stop offset="1" stop-color="#FF9900"/>
</linearGradient>
<clipPath id="clip0_2385_3774">
<rect width="100" height="100" fill="white"/>
</clipPath>
</defs>
</svg>
