<svg width="100" height="100" viewBox="0 0 100 100" fill="none" xmlns="http://www.w3.org/2000/svg">
<g clip-path="url(#clip0_2385_3775)">
<path d="M100 0H0V100H100V0Z" fill="url(#paint0_linear_2385_3775)"/>
<path d="M27.8 54.6666H23.16C22.5422 54.6631 21.9508 54.4161 21.5139 53.9793C21.0771 53.5425 20.8302 52.951 20.8267 52.3333V47.6399C20.8371 47.0268 21.0871 46.4421 21.5232 46.011C21.9593 45.5799 22.5468 45.3366 23.16 45.3333H27.8C28.4188 45.3333 29.0123 45.5791 29.4499 46.0167C29.8875 46.4543 30.1333 47.0477 30.1333 47.6666V52.3066C30.1369 52.6152 30.0791 52.9215 29.9634 53.2077C29.8477 53.4939 29.6764 53.7543 29.4594 53.9738C29.2424 54.1933 28.984 54.3675 28.6991 54.4865C28.4143 54.6054 28.1087 54.6666 27.8 54.6666ZM23.16 47.3599C23.0716 47.3599 22.9868 47.395 22.9243 47.4575C22.8618 47.5201 22.8267 47.6048 22.8267 47.6933V52.3333C22.8267 52.4217 22.8618 52.5064 22.9243 52.569C22.9868 52.6315 23.0716 52.6666 23.16 52.6666H27.8C27.8884 52.6666 27.9732 52.6315 28.0357 52.569C28.0982 52.5064 28.1333 52.4217 28.1333 52.3333V47.6399C28.1333 47.5515 28.0982 47.4667 28.0357 47.4042C27.9732 47.3417 27.8884 47.3066 27.8 47.3066L23.16 47.3599Z" fill="white"/>
<path d="M45.4533 54.6666H40.8133C40.1956 54.6631 39.6041 54.4161 39.1673 53.9793C38.7304 53.5425 38.4835 52.951 38.48 52.3333V47.6399C38.4904 47.0268 38.7404 46.4421 39.1765 46.011C39.6126 45.5799 40.2001 45.3366 40.8133 45.3333H45.4533C46.0722 45.3333 46.6656 45.5791 47.1032 46.0167C47.5408 46.4543 47.7866 47.0477 47.7866 47.6666V52.3066C47.7902 52.6152 47.7324 52.9215 47.6167 53.2077C47.5011 53.4939 47.3298 53.7543 47.1127 53.9738C46.8957 54.1933 46.6373 54.3675 46.3524 54.4865C46.0676 54.6054 45.762 54.6666 45.4533 54.6666ZM40.8133 47.3599C40.7249 47.3599 40.6401 47.395 40.5776 47.4575C40.5151 47.5201 40.48 47.6048 40.48 47.6933V52.3333C40.48 52.4217 40.5151 52.5064 40.5776 52.569C40.6401 52.6315 40.7249 52.6666 40.8133 52.6666H45.4533C45.5417 52.6666 45.6265 52.6315 45.689 52.569C45.7515 52.5064 45.7866 52.4217 45.7866 52.3333V47.6399C45.7866 47.5515 45.7515 47.4667 45.689 47.4042C45.6265 47.3417 45.5417 47.3066 45.4533 47.3066L40.8133 47.3599Z" fill="white"/>
<path d="M63.12 54.6666H58.48C57.8611 54.6666 57.2676 54.4208 56.8301 53.9832C56.3925 53.5456 56.1466 52.9521 56.1466 52.3333V47.6933C56.1431 47.3846 56.2009 47.0784 56.3165 46.7922C56.4322 46.506 56.6035 46.2456 56.8206 46.0261C57.0376 45.8066 57.296 45.6323 57.5808 45.5134C57.8657 45.3945 58.1713 45.3333 58.48 45.3333H63.12C63.4258 45.3315 63.7289 45.3902 64.0119 45.5061C64.2949 45.6219 64.5522 45.7925 64.7691 46.0081C64.9859 46.2237 65.158 46.48 65.2754 46.7624C65.3929 47.0447 65.4533 47.3475 65.4533 47.6533V52.2933C65.4586 52.6031 65.4022 52.9108 65.2873 53.1985C65.1724 53.4862 65.0014 53.7482 64.7842 53.9691C64.567 54.1901 64.308 54.3655 64.0222 54.4853C63.7365 54.605 63.4298 54.6667 63.12 54.6666ZM58.48 47.3733C58.3938 47.3732 58.311 47.4065 58.2489 47.4662C58.1867 47.5258 58.1501 47.6072 58.1466 47.6933V52.3333C58.1466 52.4217 58.1818 52.5065 58.2443 52.569C58.3068 52.6315 58.3916 52.6666 58.48 52.6666H63.12C63.2084 52.6666 63.2932 52.6315 63.3557 52.569C63.4182 52.5065 63.4533 52.4217 63.4533 52.3333V47.6933C63.4499 47.6072 63.4132 47.5258 63.3511 47.4662C63.2889 47.4065 63.2061 47.3732 63.12 47.3733H58.48Z" fill="white"/>
<path d="M66.9867 58.24H54.5867C54.0456 58.24 53.5267 58.025 53.1442 57.6425C52.7616 57.2599 52.5467 56.741 52.5467 56.2V53.3333H51.4133V56.2533C51.3993 56.792 51.1728 57.3034 50.783 57.6756C50.3933 58.0478 49.8721 58.2507 49.3333 58.24H36.9733C36.7043 58.2417 36.4376 58.1902 36.1886 58.0885C35.9395 57.9868 35.713 57.8368 35.5222 57.6472C35.3314 57.4576 35.1799 57.2321 35.0765 56.9837C34.9732 56.7353 34.92 56.469 34.92 56.2V53.24H33.72V56.1866C33.7218 56.455 33.6702 56.7211 33.5683 56.9694C33.4664 57.2177 33.3162 57.4433 33.1264 57.6331C32.9367 57.8229 32.7111 57.9731 32.4628 58.0749C32.2145 58.1768 31.9484 58.2284 31.68 58.2266H19.28C18.7389 58.2266 18.2201 58.0117 17.8375 57.6291C17.4549 57.2465 17.24 56.7277 17.24 56.1866V43.7866C17.24 43.2456 17.4549 42.7267 17.8375 42.3441C18.2201 41.9616 18.7389 41.7466 19.28 41.7466H31.68C31.9484 41.7449 32.2145 41.7964 32.4628 41.8983C32.7111 42.0002 32.9367 42.1504 33.1264 42.3402C33.3162 42.53 33.4664 42.7556 33.5683 43.0039C33.6702 43.2522 33.7218 43.5182 33.72 43.7866V47.36H34.92V43.8C34.92 43.5309 34.9732 43.2646 35.0765 43.0162C35.1799 42.7678 35.3314 42.5423 35.5222 42.3527C35.713 42.1631 35.9395 42.0131 36.1886 41.9114C36.4376 41.8097 36.7043 41.7582 36.9733 41.76H49.3333C49.6023 41.7582 49.8691 41.8097 50.1181 41.9114C50.3671 42.0131 50.5936 42.1631 50.7845 42.3527C50.9753 42.5423 51.1268 42.7678 51.2301 43.0162C51.3335 43.2646 51.3867 43.5309 51.3867 43.8V47.3733H52.52V43.8C52.52 43.2589 52.7349 42.74 53.1175 42.3575C53.5001 41.9749 54.019 41.76 54.56 41.76H66.96C67.229 41.7582 67.4957 41.8097 67.7448 41.9114C67.9938 42.0131 68.2203 42.1631 68.4111 42.3527C68.602 42.5423 68.7534 42.7678 68.8568 43.0162C68.9601 43.2646 69.0133 43.5309 69.0133 43.8V46.04H75.16V48H67.04V43.8H54.5867V49.4133H49.4133V43.8H36.9733V49.4133H31.7733V43.8H19.3333V56.24H31.7733V51.2666H36.9733V56.24H49.4133V51.28H54.5467V56.2133H66.9867V51.6H81.0267V53.6H69.0267V56.1733C69.0302 56.4434 68.98 56.7116 68.8791 56.9622C68.7782 57.2127 68.6285 57.4408 68.4387 57.6331C68.2489 57.8253 68.0228 57.978 67.7735 58.0822C67.5243 58.1863 67.2568 58.24 66.9867 58.24Z" fill="white"/>
<path d="M73.7601 50.7066L72.3467 49.2932L74.4534 47.1866L72.1467 44.8932L73.5601 43.4666L77.2801 47.1866L73.7601 50.7066Z" fill="white"/>
<path d="M79.2535 56.24L77.8268 54.8267L79.9335 52.72L77.6401 50.4133L79.0401 49L82.7601 52.72L79.2535 56.24Z" fill="white"/>
<path d="M43.2399 71.1066C39.6406 71.1143 36.1005 70.1915 32.963 68.4277C29.8255 66.6639 27.1972 64.119 25.3333 61.0399L27.0133 59.9999C28.7314 62.8123 31.1511 65.1298 34.0349 66.725C36.9188 68.3203 40.1678 69.1385 43.4632 69.0995C46.7586 69.0605 49.9874 68.1656 52.8326 66.5026C55.6779 64.8396 58.0421 62.4655 59.6933 59.6133L61.4266 60.6133C59.5754 63.7981 56.9224 66.4426 53.7317 68.2836C50.5409 70.1246 46.9237 71.0979 43.2399 71.1066Z" fill="white"/>
<path d="M27.0266 40.3866L25.3333 39.3866C27.1844 36.2017 29.8374 33.5572 33.0282 31.7162C36.2189 29.8752 39.8362 28.9019 43.5199 28.8932C47.1242 28.8783 50.6708 29.7978 53.8138 31.5621C56.9568 33.3264 59.5889 35.8752 61.4533 38.9599L59.7066 39.9999C58.0196 37.209 55.6379 34.903 52.794 33.307C49.9501 31.7109 46.7411 30.8793 43.4799 30.8932C40.1469 30.8995 36.8738 31.7793 33.9868 33.4451C31.0999 35.1108 28.7001 37.5042 27.0266 40.3866Z" fill="white"/>
</g>
<defs>
<linearGradient id="paint0_linear_2385_3775" x1="-20.7107" y1="120.707" x2="120.711" y2="-20.7147" gradientUnits="userSpaceOnUse">
<stop stop-color="#C8511B"/>
<stop offset="1" stop-color="#FF9900"/>
</linearGradient>
<clipPath id="clip0_2385_3775">
<rect width="100" height="100" fill="white"/>
</clipPath>
</defs>
</svg>
