<svg width="100" height="100" viewBox="0 0 100 100" fill="none" xmlns="http://www.w3.org/2000/svg">
<path d="M100 0H0V100H100V0Z" fill="url(#paint0_linear_2385_3776)"/>
<path d="M34.7561 53.2071C34.7561 53.8119 34.5158 54.3919 34.0882 54.8196C33.6605 55.2473 33.0804 55.4875 32.4756 55.4875H27.2805C26.6757 55.4875 26.0956 55.2473 25.6679 54.8196C25.2403 54.3919 25 53.8119 25 53.2071V48.0119C25 47.4071 25.2403 46.8271 25.6679 46.3994C26.0956 45.9717 26.6757 45.7314 27.2805 45.7314H32.4756C33.0804 45.7314 33.6605 45.9717 34.0882 46.3994C34.5158 46.8271 34.7561 47.4071 34.7561 48.0119V53.2071ZM27.439 53.0485H32.3171V48.1705H27.439V53.0485Z" fill="white"/>
<path d="M55.4878 53.2071C55.4878 53.8119 55.2475 54.3919 54.8198 54.8196C54.3922 55.2473 53.8121 55.4875 53.2073 55.4875H48.0244C47.7249 55.4891 47.428 55.4318 47.1507 55.3186C46.8734 55.2055 46.6211 55.0389 46.4082 54.8282C46.1953 54.6176 46.026 54.3671 45.9099 54.091C45.7939 53.815 45.7333 53.5187 45.7317 53.2192V47.9997C45.7349 47.397 45.9766 46.8201 46.4039 46.3951C46.8313 45.97 47.4095 45.7314 48.0122 45.7314H53.2073C53.8121 45.7314 54.3922 45.9717 54.8198 46.3994C55.2475 46.8271 55.4878 47.4071 55.4878 48.0119V53.2071ZM48.1707 53.0485H53.0488V48.1705H48.1707V53.0485Z" fill="white"/>
<path d="M73.939 55.4875H68.7439C68.139 55.4875 67.559 55.2473 67.1313 54.8196C66.7036 54.3919 66.4634 53.8119 66.4634 53.2071V48.0119C66.4634 47.4071 66.7036 46.8271 67.1313 46.3994C67.559 45.9717 68.139 45.7314 68.7439 45.7314H73.939C74.5438 45.7314 75.1239 45.9717 75.5515 46.3994C75.9792 46.8271 76.2195 47.4071 76.2195 48.0119V53.2071C76.2195 53.8119 75.9792 54.3919 75.5515 54.8196C75.1239 55.2473 74.5438 55.4875 73.939 55.4875ZM68.9024 53.0485H73.7805V48.1705H68.9024V53.0485Z" fill="white"/>
<path d="M78.6587 60.3657H64.0245C63.3776 60.3657 62.7573 60.1087 62.2999 59.6513C61.8425 59.1939 61.5855 58.5736 61.5855 57.9267V54.2681H60.366V57.9267C60.366 58.5736 60.109 59.1939 59.6516 59.6513C59.1942 60.1087 58.5738 60.3657 57.9269 60.3657H43.366C43.0456 60.3755 42.7265 60.322 42.4269 60.2083C42.1272 60.0947 41.8529 59.9231 41.6196 59.7034C41.3863 59.4837 41.1986 59.2201 41.0672 58.9278C40.9357 58.6355 40.8632 58.3202 40.8538 57.9999V54.2681H39.6343V57.9267C39.6343 58.5736 39.3773 59.1939 38.9199 59.6513C38.4625 60.1087 37.8421 60.3657 37.1952 60.3657H22.5611C21.9142 60.3657 21.2939 60.1087 20.8364 59.6513C20.379 59.1939 20.1221 58.5736 20.1221 57.9267V43.2925C20.1221 42.6457 20.379 42.0253 20.8364 41.5679C21.2939 41.1105 21.9142 40.8535 22.5611 40.8535H37.1952C37.8421 40.8535 38.4625 41.1105 38.9199 41.5679C39.3773 42.0253 39.6343 42.6457 39.6343 43.2925V46.9511H40.8538V43.2925C40.8538 42.6457 41.1107 42.0253 41.5681 41.5679C42.0256 41.1105 42.6459 40.8535 43.2928 40.8535H57.9269C58.5738 40.8535 59.1942 41.1105 59.6516 41.5679C60.109 42.0253 60.366 42.6457 60.366 43.2925V46.9511H61.5855V43.2925C61.6068 42.6524 61.8706 42.0444 62.3235 41.5915C62.7763 41.1386 63.3844 40.8748 64.0245 40.8535H78.6587C79.3055 40.8535 79.9259 41.1105 80.3833 41.5679C80.8407 42.0253 81.0977 42.6457 81.0977 43.2925V57.9267C81.0977 58.5736 80.8407 59.1939 80.3833 59.6513C79.9259 60.1087 79.3055 60.3657 78.6587 60.3657ZM64.0245 51.8291V57.9267H78.6587V43.2925H64.0245V49.3901H57.9269V43.2925H43.2928V49.3901H37.1952V43.2925H22.5611V57.9267H37.1952V51.8291H43.2928V57.9267H57.9269V51.8291H64.0245Z" fill="white"/>
<defs>
<linearGradient id="paint0_linear_2385_3776" x1="0" y1="100" x2="100" y2="0" gradientUnits="userSpaceOnUse">
<stop stop-color="#C8511B"/>
<stop offset="1" stop-color="#FF9900"/>
</linearGradient>
</defs>
</svg>
