<svg width="100" height="100" viewBox="0 0 100 100" fill="none" xmlns="http://www.w3.org/2000/svg">
<path d="M29.38 89.5002H10.62C10.0896 89.5002 9.58085 89.2895 9.20578 88.9144C8.83071 88.5394 8.62 88.0307 8.62 87.5002V46.2402C8.62 45.7098 8.83071 45.2011 9.20578 44.826C9.58085 44.4509 10.0896 44.2402 10.62 44.2402H29.38C29.9104 44.2402 30.4191 44.4509 30.7942 44.826C31.1693 45.2011 31.38 45.7098 31.38 46.2402V87.5002C31.38 87.7629 31.3283 88.0229 31.2278 88.2656C31.1272 88.5082 30.9799 88.7287 30.7942 88.9144C30.6085 89.1002 30.388 89.2475 30.1454 89.348C29.9027 89.4485 29.6426 89.5002 29.38 89.5002ZM12.62 85.5002H27.38V48.2402H12.62V85.5002Z" fill="#CD2264"/>
<path d="M59.38 89.4991H40.62C40.0896 89.4991 39.5809 89.2884 39.2058 88.9134C38.8307 88.5383 38.62 88.0296 38.62 87.4991V55.6191C38.62 55.0887 38.8307 54.58 39.2058 54.2049C39.5809 53.8299 40.0896 53.6191 40.62 53.6191H59.38C59.9104 53.6191 60.4191 53.8299 60.7942 54.2049C61.1693 54.58 61.38 55.0887 61.38 55.6191V87.4991C61.38 88.0296 61.1693 88.5383 60.7942 88.9134C60.4191 89.2884 59.9104 89.4991 59.38 89.4991ZM42.62 85.4991H57.38V57.6191H42.62V85.4991Z" fill="#CD2264"/>
<path d="M96.86 93H3.12V97H96.86V93Z" fill="#CD2264"/>
<path d="M90.3001 33.24H69.7C69.0671 33.24 68.4403 33.1153 67.8555 32.8731C67.2707 32.6309 66.7394 32.2758 66.2918 31.8283C65.8442 31.3807 65.4892 30.8493 65.247 30.2645C65.0047 29.6797 64.88 29.053 64.88 28.42V7.84C64.8774 7.20535 65.0001 6.57642 65.2412 5.98932C65.4822 5.40222 65.8369 4.86851 66.2847 4.41881C66.7325 3.96911 67.2648 3.61228 67.8509 3.3688C68.437 3.12533 69.0654 2.99999 69.7 3H90.3001C90.9347 2.99999 91.5631 3.12533 92.1492 3.3688C92.7353 3.61228 93.2676 3.96911 93.7154 4.41881C94.1632 4.86851 94.5179 5.40222 94.7589 5.98932C95 6.57642 95.1227 7.20535 95.1201 7.84V28.42C95.1201 29.053 94.9954 29.6797 94.7531 30.2645C94.5109 30.8493 94.1559 31.3807 93.7083 31.8283C93.2607 32.2758 92.7294 32.6309 92.1446 32.8731C91.5598 33.1153 90.933 33.24 90.3001 33.24ZM69.7 7C69.5907 6.99997 69.4824 7.02182 69.3816 7.06428C69.2807 7.10673 69.1894 7.16892 69.113 7.2472C69.0366 7.32548 68.9766 7.41825 68.9366 7.52005C68.8966 7.62186 68.8774 7.73065 68.88 7.84V28.42C68.88 28.6375 68.9664 28.846 69.1202 28.9998C69.274 29.1536 69.4826 29.24 69.7 29.24H90.3001C90.5175 29.24 90.7261 29.1536 90.8799 28.9998C91.0337 28.846 91.1201 28.6375 91.1201 28.42V7.84C91.1201 7.62064 91.0344 7.40996 90.8811 7.25299C90.7279 7.09602 90.5194 7.00522 90.3001 7H69.7Z" fill="#CD2264"/>
<path d="M89.38 89.4998H70.62C70.0896 89.4998 69.5809 89.2891 69.2058 88.914C68.8307 88.5389 68.62 88.0302 68.62 87.4998V38.7598C68.62 38.2293 68.8307 37.7206 69.2058 37.3456C69.5809 36.9705 70.0896 36.7598 70.62 36.7598H89.38C89.9104 36.7598 90.4191 36.9705 90.7942 37.3456C91.1693 37.7206 91.38 38.2293 91.38 38.7598V87.4998C91.38 88.0302 91.1693 88.5389 90.7942 88.914C90.4191 89.2891 89.9104 89.4998 89.38 89.4998ZM72.62 85.4998H87.38V40.7598H72.62V85.4998Z" fill="#CD2264"/>
</svg>
