<svg width="100" height="100" viewBox="0 0 100 100" fill="none" xmlns="http://www.w3.org/2000/svg">
<path d="M32.34 36.1L26.62 30.46H2.97998L3.15998 4H28.28L34 9.54H97V36L32.34 36.1ZM6.99998 26.42H28.26L34 32.1L93.02 32V13.54H32.32L26.64 8H7.13998L6.99998 26.42Z" fill="#CD2264"/>
<path d="M32.32 66L26.62 60.38H2.97998V34H28.4L34 39.58H96.98V66H32.32ZM6.97998 56.44H28.28L34 62H93V43.6H32.26L26.72 38H6.97998V56.44Z" fill="#CD2264"/>
<path d="M97 96H32.38L26.68 90.46H2.97998V64H28.14L34 69.56H97V96ZM34 92H93V73.56H32.34L26.5 68H6.97998V86.54H28.3L34 92Z" fill="#CD2264"/>
<path d="M74.28 59.3607L69.2 54.2607L72.04 51.4407L74.52 53.9407L84.34 45.7207L86.9 48.7807L74.28 59.3607Z" fill="#CD2264"/>
<path d="M73.78 89.2391L68.7 84.1591L71.52 81.3391L74.02 83.8191L83.84 75.6191L86.4 78.6791L73.78 89.2391Z" fill="#CD2264"/>
<path d="M75.7871 15.8152L72.9537 18.6387L84.1206 29.8446L86.954 27.0211L75.7871 15.8152Z" fill="#CD2264"/>
<path d="M84.1142 15.8292L72.9277 27.0156L75.7562 29.8441L86.9426 18.6576L84.1142 15.8292Z" fill="#CD2264"/>
</svg>
