<svg width="100" height="100" viewBox="0 0 100 100" fill="none" xmlns="http://www.w3.org/2000/svg">
<path d="M29.38 89.5002H10.62C10.0896 89.5002 9.58085 89.2895 9.20578 88.9144C8.83071 88.5394 8.62 88.0307 8.62 87.5002V46.2402C8.62 45.7098 8.83071 45.2011 9.20578 44.826C9.58085 44.4509 10.0896 44.2402 10.62 44.2402H29.38C29.9104 44.2402 30.4191 44.4509 30.7942 44.826C31.1693 45.2011 31.38 45.7098 31.38 46.2402V87.5002C31.38 87.7629 31.3283 88.0229 31.2278 88.2656C31.1272 88.5082 30.9799 88.7287 30.7942 88.9144C30.6085 89.1002 30.388 89.2475 30.1454 89.348C29.9027 89.4485 29.6426 89.5002 29.38 89.5002ZM12.62 85.5002H27.38V48.2402H12.62V85.5002Z" fill="#CD2264"/>
<path d="M59.38 89.4991H40.62C40.0896 89.4991 39.5809 89.2884 39.2058 88.9134C38.8307 88.5383 38.62 88.0296 38.62 87.4991V55.6191C38.62 55.0887 38.8307 54.58 39.2058 54.2049C39.5809 53.8299 40.0896 53.6191 40.62 53.6191H59.38C59.9104 53.6191 60.4191 53.8299 60.7942 54.2049C61.1693 54.58 61.38 55.0887 61.38 55.6191V87.4991C61.38 88.0296 61.1693 88.5383 60.7942 88.9134C60.4191 89.2884 59.9104 89.4991 59.38 89.4991ZM42.62 85.4991H57.38V57.6191H42.62V85.4991Z" fill="#CD2264"/>
<path d="M96.86 93H3.12V97H96.86V93Z" fill="#CD2264"/>
<path d="M80 33.24C77.0096 33.24 74.0863 32.3532 71.5998 30.6918C69.1133 29.0304 67.1754 26.669 66.031 23.9062C64.8866 21.1434 64.5871 18.1032 65.1705 15.1702C65.7539 12.2372 67.194 9.54312 69.3086 7.42855C71.4231 5.31398 74.1173 3.87394 77.0502 3.29053C79.9832 2.70712 83.0234 3.00655 85.7862 4.15095C88.549 5.29535 90.9104 7.23331 92.5718 9.71978C94.2332 12.2063 95.12 15.1296 95.12 18.12C95.1147 22.1285 93.52 25.9712 90.6856 28.8056C87.8512 31.64 84.0085 33.2347 80 33.24ZM80 7.00001C77.8007 7.00001 75.6507 7.65218 73.8221 8.87406C71.9934 10.0959 70.5681 11.8327 69.7265 13.8646C68.8848 15.8965 68.6646 18.1323 69.0937 20.2894C69.5227 22.4465 70.5818 24.4279 72.137 25.983C73.6921 27.5382 75.6735 28.5973 77.8306 29.0263C79.9877 29.4554 82.2235 29.2352 84.2554 28.3935C86.2874 27.5519 88.0241 26.1266 89.2459 24.2979C90.4678 22.4693 91.12 20.3193 91.12 18.12C91.1147 15.1724 89.9415 12.3471 87.8572 10.2628C85.7729 8.17856 82.9476 7.00529 80 7.00001Z" fill="#CD2264"/>
<path d="M89.38 89.5006H70.62C70.0896 89.5006 69.5809 89.2899 69.2058 88.9148C68.8307 88.5397 68.62 88.031 68.62 87.5006V37.7806C68.6193 37.4407 68.7053 37.1063 68.8697 36.8088C69.0342 36.5114 69.2718 36.2607 69.56 36.0806C69.8552 35.8896 70.1955 35.7798 70.5466 35.7623C70.8977 35.7447 71.2472 35.82 71.56 35.9806C74.225 37.2355 77.1343 37.8861 80.08 37.8861C83.0257 37.8861 85.935 37.2355 88.6 35.9806C88.9127 35.82 89.2623 35.7447 89.6134 35.7623C89.9645 35.7798 90.3048 35.8896 90.6 36.0806C90.8882 36.2607 91.1258 36.5114 91.2903 36.8088C91.4547 37.1063 91.5407 37.4407 91.54 37.7806V87.5006C91.5409 87.7773 91.4844 88.0511 91.374 88.3048C91.2636 88.5585 91.1018 88.7866 90.8988 88.9745C90.6958 89.1625 90.456 89.3063 90.1946 89.3969C89.9332 89.4874 89.6558 89.5227 89.38 89.5006ZM72.62 85.5006H87.38V40.7206C82.5837 42.2806 77.4163 42.2806 72.62 40.7206V85.5006Z" fill="#CD2264"/>
</svg>
