<svg width="100" height="100" viewBox="0 0 100 100" fill="none" xmlns="http://www.w3.org/2000/svg">
<g clip-path="url(#clip0_2385_8436)">
<path d="M100 0H0V100H100V0Z" fill="url(#paint0_linear_2385_8436)"/>
<path d="M42 64.0002H27.3334C25.8497 63.9715 24.4021 63.5381 23.1467 62.7469C21.1258 61.5088 19.4642 59.7632 18.3273 57.6836C17.1905 55.604 16.618 53.263 16.6667 50.8935C16.5311 48.1789 17.3119 45.4975 18.8837 43.2801C20.4555 41.0626 22.727 39.4379 25.3334 38.6669C25.3334 38.3202 25.3334 37.9735 25.3334 37.6269C25.4065 34.2392 26.4203 30.9387 28.2617 28.0943C30.103 25.2499 32.6992 22.9737 35.76 21.5202C39.0499 20.0647 42.7084 19.6588 46.2373 20.3579C49.7661 21.057 52.9936 22.827 55.48 25.4269C57.1515 27.1291 58.506 29.1157 59.48 31.2935C60.8695 30.1721 62.6011 29.5603 64.3867 29.5602C68.0134 29.5602 72.0934 32.3069 72.84 38.3335C76.2667 39.1469 83.3067 41.9468 83.3067 51.0135C83.4232 53.2841 82.8922 55.541 81.7757 57.5215C80.6592 59.502 79.003 61.1245 77 62.2002L75.6667 59.8669C77.2457 59.0129 78.5485 57.7265 79.4222 56.1584C80.296 54.5903 80.7046 52.8056 80.6 51.0135C80.6 43.1735 74.1067 41.2269 71.2667 40.7469C71.0923 40.7158 70.9258 40.6502 70.777 40.5541C70.6282 40.4579 70.5 40.3331 70.4 40.1869C70.2045 39.9076 70.1234 39.5641 70.1734 39.2269C69.7867 34.3869 66.96 32.2269 64.3067 32.2269C63.4617 32.2344 62.6305 32.4426 61.8818 32.8344C61.133 33.2262 60.488 33.7903 60 34.4802C59.8572 34.6757 59.6639 34.8287 59.4407 34.9226C59.2176 35.0166 58.973 35.048 58.7334 35.0135C58.4945 34.9761 58.2703 34.8745 58.0848 34.7195C57.8992 34.5645 57.7593 34.3619 57.68 34.1335C56.8107 31.5744 55.3802 29.242 53.4934 27.3069C51.3838 25.1177 48.6544 23.6273 45.6722 23.0361C42.6901 22.445 39.5985 22.7814 36.8134 24.0002C34.245 25.2495 32.0667 27.1765 30.5135 29.5733C28.9603 31.9701 28.0912 34.7456 28 37.6002C28.0012 38.215 28.0368 38.8293 28.1067 39.4402C28.1499 39.7782 28.062 40.1198 27.8612 40.3951C27.6603 40.6703 27.3617 40.8582 27.0267 40.9202C24.7603 41.3834 22.7355 42.6451 21.3211 44.4755C19.9066 46.306 19.1965 48.5835 19.32 50.8935C19.2641 52.8145 19.7198 54.7159 20.6406 56.4028C21.5613 58.0897 22.914 59.5015 24.56 60.4935C25.3892 61.0241 26.3491 61.3148 27.3334 61.3335H42V64.0002Z" fill="white"/>
<path d="M81.8534 72.0001L72.3867 62.4934C73.7442 59.4444 73.98 56.0137 73.0524 52.8076C72.1247 49.6016 70.0935 46.8267 67.3176 44.9736C64.5418 43.1206 61.2001 42.3086 57.8834 42.6813C54.5668 43.0539 51.4887 44.5873 49.1933 47.0102C46.8979 49.4331 45.5331 52.5895 45.3401 55.9215C45.1471 59.2534 46.1384 62.5463 48.1387 65.218C50.139 67.8898 53.0195 69.7682 56.271 70.5213C59.5224 71.2744 62.9355 70.8536 65.9067 69.3334L75.24 78.6668C76.1305 79.5354 77.3295 80.015 78.5734 80.0001C79.1875 80.0086 79.7971 79.8952 80.3671 79.6663C80.937 79.4374 81.4558 79.0977 81.8934 78.6668C82.331 78.2278 82.6773 77.7065 82.9124 77.1329C83.1474 76.5594 83.2665 75.9449 83.2628 75.3251C83.2591 74.7053 83.1326 74.0923 82.8907 73.5216C82.6488 72.9509 82.2962 72.4338 81.8534 72.0001ZM59.4667 68.2268C57.2015 68.2268 54.9871 67.555 53.1036 66.2965C51.2201 65.038 49.7521 63.2493 48.8852 61.1564C48.0183 59.0636 47.7915 56.7607 48.2334 54.539C48.6754 52.3173 49.7662 50.2765 51.368 48.6747C52.9698 47.0729 55.0106 45.9821 57.2323 45.5402C59.454 45.0982 61.7569 45.3251 63.8497 46.1919C65.9425 47.0588 67.7313 48.5268 68.9898 50.4103C70.2483 52.2938 70.92 54.5082 70.92 56.7734C70.92 59.811 69.7134 62.7242 67.5654 64.8722C65.4175 67.0201 62.5043 68.2268 59.4667 68.2268ZM80 76.7334C79.6112 77.102 79.0958 77.3074 78.56 77.3074C78.0243 77.3074 77.5089 77.102 77.12 76.7334L68.24 67.8534C69.3244 67.0027 70.2769 65.9963 71.0667 64.8668L80 73.8534C80.3779 74.2375 80.5896 74.7547 80.5896 75.2934C80.5896 75.8322 80.3779 76.3494 80 76.7334Z" fill="white"/>
<path d="M63.1334 50.5739L61.5467 52.7205C60.833 52.1918 59.9786 51.8864 59.0914 51.843C58.2042 51.7996 57.3241 52.0201 56.5622 52.4767C55.8003 52.9333 55.1908 53.6054 54.8107 54.4082C54.4306 55.211 54.297 56.1085 54.4267 56.9872C54.5007 57.584 54.6962 58.1593 55.0012 58.6776C55.3062 59.1959 55.7142 59.6461 56.2 60.0005L54.6667 62.0805C53.1795 60.9366 52.2007 59.2546 51.9409 57.3964C51.6812 55.5383 52.1612 53.6523 53.2777 52.1444C54.3942 50.6365 56.058 49.6271 57.9111 49.3334C59.7643 49.0397 61.6586 49.4851 63.1867 50.5739H63.1334Z" fill="white"/>
</g>
<defs>
<linearGradient id="paint0_linear_2385_8436" x1="-20.7067" y1="120.707" x2="120.707" y2="-20.7067" gradientUnits="userSpaceOnUse">
<stop stop-color="#B0084D"/>
<stop offset="1" stop-color="#FF4F8B"/>
</linearGradient>
<clipPath id="clip0_2385_8436">
<rect width="100" height="100" fill="white"/>
</clipPath>
</defs>
</svg>
