<svg width="100" height="100" viewBox="0 0 100 100" fill="none" xmlns="http://www.w3.org/2000/svg">
<path d="M29.38 89.5002H10.62C10.0896 89.5002 9.58085 89.2895 9.20578 88.9144C8.83071 88.5394 8.62 88.0307 8.62 87.5002V46.2402C8.62 45.7098 8.83071 45.2011 9.20578 44.826C9.58085 44.4509 10.0896 44.2402 10.62 44.2402H29.38C29.9104 44.2402 30.4191 44.4509 30.7942 44.826C31.1693 45.2011 31.38 45.7098 31.38 46.2402V87.5002C31.38 87.7629 31.3283 88.0229 31.2278 88.2656C31.1272 88.5082 30.9799 88.7287 30.7942 88.9144C30.6085 89.1002 30.388 89.2475 30.1454 89.348C29.9027 89.4485 29.6426 89.5002 29.38 89.5002ZM12.62 85.5002H27.38V48.2402H12.62V85.5002Z" fill="#CD2264"/>
<path d="M59.38 89.4991H40.62C40.0896 89.4991 39.5809 89.2884 39.2058 88.9134C38.8307 88.5383 38.62 88.0296 38.62 87.4991V55.6191C38.62 55.0887 38.8307 54.58 39.2058 54.2049C39.5809 53.8299 40.0896 53.6191 40.62 53.6191H59.38C59.9104 53.6191 60.4191 53.8299 60.7942 54.2049C61.1693 54.58 61.38 55.0887 61.38 55.6191V87.4991C61.38 88.0296 61.1693 88.5383 60.7942 88.9134C60.4191 89.2884 59.9104 89.4991 59.38 89.4991ZM42.62 85.4991H57.38V57.6191H42.62V85.4991Z" fill="#CD2264"/>
<path d="M96.86 93H3.12V97H96.86V93Z" fill="#CD2264"/>
<path d="M89.38 89.5008H70.62C70.0896 89.5008 69.5809 89.2901 69.2058 88.915C68.8307 88.54 68.62 88.0313 68.62 87.5008V40.6208C68.6207 40.2872 68.7048 39.9591 68.8647 39.6664C69.0246 39.3736 69.2552 39.1255 69.5355 38.9446C69.8157 38.7637 70.1368 38.6558 70.4695 38.6307C70.8021 38.6056 71.1357 38.6641 71.44 38.8008C74.1352 39.9971 77.0512 40.6152 80 40.6152C82.9488 40.6152 85.8648 39.9971 88.56 38.8008C88.8642 38.6641 89.1979 38.6056 89.5305 38.6307C89.8632 38.6558 90.1842 38.7637 90.4645 38.9446C90.7448 39.1255 90.9754 39.3736 91.1353 39.6664C91.2952 39.9591 91.3793 40.2872 91.38 40.6208V87.5008C91.38 88.0313 91.1693 88.54 90.7942 88.915C90.4191 89.2901 89.9104 89.5008 89.38 89.5008ZM72.62 85.5008H87.38V43.5008C82.5683 44.9607 77.4317 44.9607 72.62 43.5008V85.5008Z" fill="#CD2264"/>
<path d="M80 37C76.6377 37 73.3509 36.003 70.5553 34.135C67.7597 32.267 65.5807 29.612 64.2941 26.5056C63.0074 23.3993 62.6707 19.9811 63.3267 16.6835C63.9826 13.3858 65.6017 10.3567 67.9792 7.97919C70.3567 5.6017 73.3858 3.98261 76.6835 3.32666C79.9811 2.67071 83.3993 3.00737 86.5056 4.29406C89.612 5.58075 92.267 7.75968 94.135 10.5553C96.003 13.351 97 16.6377 97 20C96.9947 24.5071 95.2019 28.828 92.015 32.015C88.828 35.202 84.5071 36.9947 80 37ZM80 7.00001C77.4289 7.00001 74.9154 7.76244 72.7776 9.1909C70.6398 10.6194 68.9735 12.6497 67.9896 15.0251C67.0056 17.4006 66.7482 20.0144 67.2498 22.5362C67.7514 25.0579 68.9895 27.3743 70.8076 29.1924C72.6257 31.0105 74.9421 32.2486 77.4638 32.7502C79.9856 33.2518 82.5995 32.9944 84.9749 32.0104C87.3503 31.0265 89.3807 29.3603 90.8091 27.2224C92.2376 25.0846 93 22.5712 93 20C92.9947 16.5538 91.6234 13.2503 89.1866 10.8135C86.7497 8.37664 83.4462 7.0053 80 7.00001Z" fill="#CD2264"/>
<path d="M82 23.8391H70.66V19.8391H78V10.6191H82V23.8391Z" fill="#CD2264"/>
</svg>
