<svg width="100" height="100" viewBox="0 0 100 100" fill="none" xmlns="http://www.w3.org/2000/svg">
<g clip-path="url(#clip0_2385_8412)">
<path d="M100 0H0V100H100V0Z" fill="url(#paint0_linear_2385_8412)"/>
<path d="M45.5466 52.2804C45.3807 51.9504 45.122 51.6761 44.8021 51.4913C44.4823 51.3065 44.1154 51.2193 43.7466 51.2404H28.4266C28.137 51.2306 27.8505 51.303 27.6004 51.4493C27.3502 51.5956 27.1467 51.8098 27.0133 52.0671L26.7866 52.4404L24.8666 55.7737C23.2 58.6671 21.32 61.9337 19.4533 65.1071C19.2114 65.4704 19.0823 65.8972 19.0823 66.3337C19.0823 66.7703 19.2114 67.197 19.4533 67.5604C22.12 72.0671 24.48 76.2004 26.7733 80.2271C26.957 80.6146 27.2512 80.9391 27.619 81.1598C27.9867 81.3804 28.4116 81.4874 28.84 81.4671C30.56 81.4671 32.2533 81.4671 34 81.4671H38.4C40.08 81.4671 41.8133 81.4671 43.5066 81.4671H43.5866C44.0102 81.4888 44.4308 81.3853 44.7959 81.1695C45.1611 80.9537 45.4546 80.6352 45.64 80.2537C48.3066 75.6804 50.9733 71.0137 53.0933 67.4671C53.3123 67.1371 53.4291 66.7498 53.4291 66.3537C53.4291 65.9577 53.3123 65.5704 53.0933 65.2404C50.4266 60.7071 47.8 56.1737 45.5466 52.2804ZM43.3733 78.8271H34.04C32.4 78.8271 30.7066 78.8271 29.0133 78.8271C26.8266 75.0004 24.4666 70.9204 21.8133 66.3604C23.6666 63.1871 25.5333 59.9471 27.1466 57.0271L28.9333 53.9071H43.3333C45.6533 57.9071 48.1466 62.2137 50.5866 66.3737C48.7733 69.4537 46.0666 74.0404 43.36 78.7604V78.6671L43.3733 78.8271Z" fill="white"/>
<path d="M47.2266 64.3738C46.08 62.4538 44.72 60.2004 43.4133 57.9338C43.0786 57.3275 42.5824 56.8259 41.9799 56.4847C41.3774 56.1434 40.692 55.9758 40 56.0004H39.8533C39.0133 56.0004 38.16 56.0004 37.3333 56.0004H32.2666C31.6255 55.9894 30.9936 56.1537 30.439 56.4757C29.8844 56.7976 29.4284 57.2649 29.12 57.8271C27.88 60.0004 26.56 62.2671 25.2133 64.5604C24.8694 65.1248 24.6875 65.7729 24.6875 66.4338C24.6875 67.0946 24.8694 67.7427 25.2133 68.3071C26.4666 70.4404 27.7466 72.6538 29.0133 74.8804C29.3413 75.4854 29.8297 75.9884 30.4247 76.3341C31.0198 76.6799 31.6986 76.8551 32.3866 76.8404C34.9333 76.8404 37.44 76.8404 40.04 76.8404C40.7211 76.8549 41.3929 76.6808 41.9812 76.3372C42.5695 75.9937 43.0513 75.4941 43.3733 74.8938C44.6 72.7738 45.8933 70.6004 47.2 68.4404C47.6003 67.8389 47.8161 67.1336 47.8208 66.4111C47.8255 65.6886 47.619 64.9804 47.2266 64.3738ZM44.9066 67.0404C43.5733 69.2138 42.3066 71.4004 41.0666 73.5471C40.9718 73.7423 40.821 73.9049 40.6334 74.0142C40.4458 74.1234 40.2299 74.1743 40.0133 74.1604H32.36C32.1465 74.1763 31.9334 74.1259 31.7497 74.0161C31.5659 73.9063 31.4205 73.7425 31.3333 73.5471C30 71.2804 28.76 69.0538 27.52 66.8804C27.4128 66.7232 27.3554 66.5374 27.3554 66.3471C27.3554 66.1568 27.4128 65.971 27.52 65.8138C28.8533 63.5738 30.1866 61.3071 31.4266 59.0804C31.5136 58.9395 31.6385 58.8259 31.7871 58.7528C31.9357 58.6797 32.1019 58.65 32.2666 58.6671H37.3333C38.2133 58.6671 39.08 58.6671 40 58.6671C40.228 58.6462 40.4569 58.6965 40.6551 58.8111C40.8533 58.9258 41.0111 59.099 41.1066 59.3071C42.44 61.6004 43.7733 63.7871 44.9466 65.8138C45.0583 65.9933 45.1141 66.2019 45.107 66.4132C45.0999 66.6244 45.0302 66.8289 44.9066 67.0004V67.0404Z" fill="white"/>
<path d="M48.7334 47.0397L48.6534 47.1731C48.5763 47.2963 48.5094 47.4256 48.4534 47.5597C48.3722 47.7353 48.3301 47.9263 48.3301 48.1197C48.3301 48.3131 48.3722 48.5042 48.4534 48.6797C48.5497 48.8453 48.6805 48.9881 48.837 49.0986C48.9934 49.209 49.1718 49.2844 49.36 49.3197C49.5239 49.3391 49.6895 49.3391 49.8534 49.3197H51.56C52.5334 49.3197 53.5467 49.3197 54.5467 49.3197H54.6667C55.0488 49.3396 55.428 49.2448 55.7559 49.0477C56.0837 48.8505 56.3452 48.5599 56.5067 48.2131C57.36 46.6664 58.2667 45.1197 59.1734 43.6131L60.1467 41.9197H60.3067H60.9467H68.3734C68.6087 41.8951 68.8458 41.9465 69.0498 42.0665C69.2538 42.1865 69.4139 42.3687 69.5067 42.5864C70.1334 43.7064 70.84 44.8531 71.44 45.9464V46.0131L72.7734 48.3864C72.9065 48.6775 73.1207 48.924 73.3902 49.0966C73.6598 49.2692 73.9733 49.3606 74.2934 49.3597H79.4267C79.6846 49.3992 79.9484 49.3621 80.1854 49.253C80.4224 49.144 80.6222 48.9679 80.76 48.7464C80.8786 48.5117 80.9324 48.2495 80.916 47.9871C80.8996 47.7246 80.8135 47.4712 80.6667 47.2531L80.5067 46.9864L78.8267 44.0664C77.2267 41.2931 75.56 38.4264 73.9467 35.5997C73.7897 35.2789 73.5415 35.0116 73.2331 34.8313C72.9247 34.651 72.57 34.5658 72.2134 34.5864H57.08C56.7249 34.5646 56.3712 34.6478 56.0629 34.8257C55.7547 35.0035 55.5056 35.268 55.3467 35.5864C53.5867 38.6797 51.7734 41.7997 50.0134 44.8264L48.7334 47.0397ZM52 46.6664L52.2667 46.2264C54.0267 43.1731 55.76 40.1864 57.4534 37.2264H71.8267C73.3334 39.8931 74.8934 42.5597 76.3867 45.1464L77.3334 46.6664H74.9467L73.92 44.8931L73.7467 44.5864C73.12 43.5064 72.4134 42.3864 71.84 41.2664C71.5045 40.6298 70.9962 40.1007 70.3736 39.7399C69.751 39.379 69.0392 39.2011 68.32 39.2264H60.9067H60.12L58.5467 39.3197L56.7734 42.3864C55.9734 43.7197 55.1467 45.1864 54.36 46.6131H52V46.6664Z" fill="white"/>
<path d="M20.52 33.1871C20.7818 33.278 21.0562 33.3275 21.3333 33.3338H26.04C26.389 33.3507 26.7351 33.2634 27.0343 33.083C27.3334 32.9025 27.5722 32.6371 27.72 32.3205L29.3333 29.5338L29.4133 29.4138C29.9733 28.4538 30.5466 27.4671 31.0933 26.4805C31.1796 26.2815 31.3268 26.115 31.5136 26.0048C31.7005 25.8946 31.9174 25.8464 32.1333 25.8671H36.0266C37.2666 25.8671 38.36 25.8671 39.3733 25.8671H39.4933C39.795 25.8366 40.0981 25.9097 40.3526 26.0745C40.6071 26.2394 40.7978 26.486 40.8933 26.7738C40.9194 26.8299 40.9506 26.8835 40.9866 26.9338L41.8 28.2671C42.56 29.6005 43.3333 30.9338 44.0933 32.2671C44.2318 32.5691 44.4561 32.8237 44.7382 32.9991C45.0204 33.1746 45.3479 33.2631 45.68 33.2538H45.7866C46.2933 33.2538 46.8133 33.2538 47.3866 33.2538H50.8C51.039 33.2646 51.2766 33.2109 51.4877 33.0983C51.6988 32.9857 51.8758 32.8184 52 32.6138C52.1203 32.4001 52.1835 32.159 52.1835 31.9138C52.1835 31.6686 52.1203 31.4275 52 31.2138L51.84 30.9471L50.08 28.0005C48.4266 25.1471 46.7866 22.2938 45.16 19.4405C45.0029 19.133 44.7582 18.8789 44.4568 18.7104C44.1554 18.5419 43.8109 18.4666 43.4666 18.4938H28.36C27.9899 18.4653 27.6197 18.5477 27.2967 18.7306C26.9737 18.9134 26.7126 19.1885 26.5466 19.5205C25.2133 21.9471 23.7733 24.3605 22.3733 26.7738L20.6266 29.8138L20.44 30.1205C20.2133 30.5205 19.9466 30.9605 19.7333 31.4538C19.6541 31.6181 19.613 31.7981 19.613 31.9805C19.613 32.1628 19.6541 32.3429 19.7333 32.5071C19.8122 32.6674 19.9225 32.8102 20.0576 32.927C20.1927 33.0438 20.35 33.1323 20.52 33.1871ZM36 23.2405C34.6666 23.2405 33.4266 23.2405 32.1466 23.2405H32.0533C31.3605 23.2175 30.6754 23.392 30.0781 23.7438C29.4807 24.0956 28.9958 24.6101 28.68 25.2271C28.1333 26.2138 27.56 27.2005 27.04 28.0805L26.92 28.2938C26.4666 29.0805 26.0133 29.8538 25.5866 30.6538H23.2533L24.88 27.8405C26.1466 25.6405 27.4133 23.4538 28.6933 21.1738H43.0666C44.6311 23.8938 46.1955 26.6138 47.76 29.3338L48.5066 30.6671H46.1866C45.5066 29.4671 44.8533 28.2938 44.1333 27.1071L43.32 25.7071C43.007 24.9513 42.4698 24.3096 41.7808 23.8685C41.0918 23.4274 40.2841 23.2082 39.4666 23.2405H39.28C38.2933 23.2271 37.2266 23.2405 36 23.2405Z" fill="white"/>
<path d="M79.6134 50.1064H77.8267C76.7334 50.1064 75.5867 50.1064 74.48 50.1064C74.1442 50.0956 73.8128 50.1849 73.5279 50.3629C73.2429 50.541 73.0174 50.7998 72.88 51.1064C72.3867 51.9731 71.88 52.8398 71.3734 53.7731C70.8667 54.7064 70.2 55.7864 69.6134 56.8264C69.4965 57.075 69.3057 57.2815 69.067 57.4175C68.8284 57.5535 68.5535 57.6125 68.28 57.5864H64.3467C63.2 57.5864 62.1867 57.5864 61.2534 57.5864H61.1734C60.8432 57.6141 60.5126 57.5377 60.228 57.3679C59.9435 57.1981 59.7192 56.9435 59.5867 56.6398C59.0134 55.5998 58.4001 54.5464 57.8667 53.6131C57.3334 52.6798 56.9467 52.0398 56.5334 51.2398C56.3849 50.8738 56.1243 50.5644 55.7889 50.3559C55.4534 50.1475 55.0606 50.0508 54.6667 50.0798C54.0934 50.0798 53.4934 50.0798 52.76 50.0798H49.8534C49.5979 50.0544 49.3406 50.1033 49.1122 50.2206C48.8839 50.3379 48.6942 50.5187 48.5661 50.7411C48.438 50.9636 48.3768 51.2183 48.3899 51.4747C48.403 51.7311 48.4899 51.9782 48.64 52.1864L51.2 56.6664L51.3867 56.9864C52.72 59.2798 54.0534 61.5731 55.3867 63.8664C55.5427 64.1787 55.7887 64.437 56.0929 64.6081C56.3971 64.7792 56.7456 64.8553 57.0934 64.8264C58.9067 64.8264 60.7734 64.8264 62.56 64.8264H68.7867C70.0134 64.8264 71.0267 64.8264 71.9601 64.8264H72C72.4303 64.8476 72.8573 64.7413 73.2274 64.5207C73.5974 64.3 73.8941 63.975 74.0801 63.5864C75.4134 61.1064 76.9334 58.6131 78.3334 56.1864L78.56 55.7998L80.4401 52.5331L80.5201 52.3998C80.6133 52.2514 80.6936 52.0953 80.76 51.9331C80.8562 51.7382 80.9005 51.5218 80.8888 51.3047C80.8771 51.0877 80.8098 50.8773 80.6933 50.6939C80.5768 50.5104 80.415 50.36 80.2235 50.2571C80.0321 50.1542 79.8174 50.1023 79.6 50.1064H79.6134ZM64.3467 60.1598H68.2134C68.9631 60.1838 69.7045 59.9964 70.3528 59.6192C71.0012 59.242 71.5304 58.6901 71.88 58.0264C72.44 57.0398 73.0134 56.0398 73.6134 55.0264L73.7201 54.8398C74.1201 54.1464 74.5334 53.5064 74.9334 52.7464H77.24L76.3201 54.3464C74.9201 56.7598 73.3334 59.4798 71.84 62.1331C70.9334 62.1331 69.9467 62.1331 68.7467 62.1331H57.4401L53.4401 55.1598L52.1067 52.7598H54.4L55.6 54.8398L55.6934 54.9998C56.2 55.8798 56.7867 56.8798 57.3201 57.8531C57.6779 58.5794 58.2386 59.1864 58.9343 59.6006C59.6301 60.0147 60.431 60.2182 61.24 60.1864H61.3334C62.2667 60.1598 63.2534 60.1598 64.3467 60.1598Z" fill="white"/>
<path d="M20 36.3201L20.1467 36.2401L20 36.3201L20.08 36.4535L21.3067 38.5868L22.5067 40.6535C23.84 43.0402 25.2534 45.4135 26.6134 47.8001C26.725 48.0668 26.909 48.2968 27.1447 48.4641C27.3804 48.6314 27.6582 48.7294 27.9467 48.7468H33.28C33.475 48.754 33.6692 48.7184 33.8489 48.6424C34.0286 48.5663 34.1894 48.4518 34.32 48.3068C34.4312 48.1911 34.5152 48.0521 34.566 47.8999C34.6167 47.7477 34.6329 47.5861 34.6134 47.4268C34.5686 47.1249 34.4644 46.8348 34.3067 46.5735L32.7867 43.9068L30.9467 40.7335C29.84 38.8135 28.6934 36.8401 27.5867 34.8801C27.4537 34.6062 27.2447 34.3763 26.9847 34.2179C26.7246 34.0595 26.4244 33.9793 26.12 33.9868H25.9867C25.4267 33.9868 24.8534 33.9868 24.3067 33.9868H22.4534C21.9067 33.9868 21.3467 33.9868 20.8 33.9868C20.597 33.9859 20.397 34.0353 20.2178 34.1307C20.0386 34.2261 19.8859 34.3645 19.7734 34.5335C19.6691 34.7116 19.6076 34.9115 19.5937 35.1174C19.5798 35.3233 19.6139 35.5297 19.6934 35.7201C19.7867 36.0001 19.88 36.1468 20 36.3201ZM23.2934 36.6935H25.5867L28.5467 41.8135L30.52 45.3335L30.9867 46.1468H28.6934L24.8 39.3201L23.2934 36.6935Z" fill="white"/>
<path d="M45.3333 46.267C45.5566 46.2616 45.775 46.2001 45.9684 46.0883C46.1617 45.9765 46.3239 45.8178 46.44 45.627C46.64 45.307 46.8267 44.987 46.9733 44.707L47.56 43.587C47.8667 43.0003 48.1867 42.4003 48.52 41.8137C49.0533 40.907 49.6 40.0137 50.1467 39.147L51.92 36.0003C52.0494 35.8048 52.1249 35.5785 52.139 35.3444C52.153 35.1103 52.1051 34.8767 52 34.667C51.8621 34.46 51.6729 34.2923 51.451 34.1801C51.229 34.068 50.9817 34.0152 50.7333 34.027H45.64C45.306 34.0168 44.9763 34.1048 44.6919 34.2802C44.4075 34.4556 44.1808 34.7106 44.04 35.0137C43.3333 36.347 42.5467 37.6803 41.5733 39.307C41.3876 39.5853 41.2885 39.9124 41.2885 40.247C41.2885 40.5816 41.3876 40.9087 41.5733 41.187L41.96 41.8403L43.04 43.6937L43.5867 44.6537L43.7733 44.987L43.8533 45.1337C43.9467 45.2937 44.0533 45.4537 44.16 45.6137C44.2803 45.8166 44.4523 45.9841 44.6584 46.0989C44.8645 46.2136 45.0974 46.2717 45.3333 46.267ZM45.3333 42.1737C45.0133 41.6003 44.68 41.027 44.3466 40.4537L44.2133 40.2403C44.9867 38.907 45.64 37.827 46.2533 36.707H48.52L47.8933 37.747C47.3467 38.6537 46.8 39.5737 46.2667 40.4937C45.8267 41.0403 45.52 41.6137 45.2266 42.1737H45.3333Z" fill="white"/>
<path d="M43.1466 45.493L42.56 44.493C42.12 43.7464 41.68 42.9864 41.2266 42.2264C41.0906 41.9643 40.88 41.7484 40.6213 41.606C40.3626 41.4636 40.0675 41.4011 39.7733 41.4264C39.2533 41.4264 38.7066 41.4264 38.1866 41.4264H34.6666C34.4361 41.4109 34.2056 41.4557 33.9975 41.5562C33.7895 41.6567 33.6112 41.8095 33.48 41.9997C33.3703 42.2048 33.3129 42.4338 33.3129 42.6664C33.3129 42.899 33.3703 43.128 33.48 43.333L33.56 43.4797L34.4 44.9464V45.0264C34.9466 45.9597 35.48 46.9064 36.0133 47.8397C36.1515 48.1162 36.3682 48.3459 36.6361 48.5C36.9041 48.6541 37.2115 48.7259 37.52 48.7064H42.4666C42.7353 48.7286 43.0051 48.6814 43.2503 48.5693C43.4954 48.4572 43.7077 48.2841 43.8666 48.0664C43.9616 47.8414 44.0015 47.597 43.983 47.3535C43.9644 47.1099 43.888 46.8744 43.76 46.6664L43.1466 45.493ZM40.4 46.0797H38.1066L36.96 44.1064H39.2533L40.2533 45.8397L40.4 46.0797Z" fill="white"/>
</g>
<defs>
<linearGradient id="paint0_linear_2385_8412" x1="-20.7107" y1="120.715" x2="120.711" y2="-20.7067" gradientUnits="userSpaceOnUse">
<stop stop-color="#B0084D"/>
<stop offset="1" stop-color="#FF4F8B"/>
</linearGradient>
<clipPath id="clip0_2385_8412">
<rect width="100" height="100" fill="white"/>
</clipPath>
</defs>
</svg>
