<svg width="100" height="100" viewBox="0 0 100 100" fill="none" xmlns="http://www.w3.org/2000/svg">
<path d="M58.94 96.9995H41.06C40.7872 97.0012 40.517 96.947 40.2659 96.8404C40.0148 96.7338 39.7882 96.5769 39.6 96.3795C39.4119 96.1798 39.267 95.9437 39.1741 95.6856C39.0812 95.4276 39.0423 95.1532 39.06 94.8795L39.4 89.0995C36.0641 88.1735 32.8587 86.8295 29.86 85.0995L26 89.4795C25.8175 89.6818 25.5957 89.8446 25.3481 89.9581C25.1005 90.0716 24.8323 90.1333 24.56 90.1395C24.0127 90.1318 23.4868 89.9257 23.08 89.5595L10.44 76.9195C10.2473 76.7255 10.0964 76.4941 9.99663 76.2396C9.89687 75.985 9.85036 75.7127 9.85998 75.4395C9.86613 75.1672 9.92785 74.899 10.0413 74.6514C10.1548 74.4037 10.3177 74.1819 10.52 73.9995L14.86 70.1395C13.1211 67.1451 11.7767 63.9386 10.86 60.5995L5.05998 60.9395C4.78629 60.9571 4.51189 60.9183 4.25385 60.8254C3.9958 60.7325 3.75962 60.5875 3.55998 60.3995C3.36253 60.2113 3.20568 59.9847 3.09905 59.7336C2.99243 59.4825 2.9383 59.2123 2.93998 58.9395V41.0595C2.93949 40.7864 2.99491 40.5162 3.10284 40.2654C3.21077 40.0145 3.36892 39.7885 3.56754 39.6011C3.76615 39.4137 4.00104 39.269 4.25771 39.1759C4.51439 39.0827 4.78742 39.0431 5.05998 39.0595L10.88 39.3995C11.7964 36.0667 13.1409 32.8667 14.88 29.8795L10.52 25.9995C10.3177 25.8171 10.1548 25.5952 10.0413 25.3476C9.92785 25.1 9.86613 24.8318 9.85998 24.5595C9.85036 24.2863 9.89687 24.0139 9.99663 23.7594C10.0964 23.5048 10.2473 23.2734 10.44 23.0795L23.08 10.4395C23.4817 10.0651 24.0109 9.85767 24.56 9.85949C24.8323 9.86564 25.1005 9.92736 25.3481 10.0409C25.5957 10.1543 25.8175 10.3172 26 10.5195L29.88 14.8795C32.8672 13.1404 36.0672 11.7959 39.4 10.8795L39.06 5.05949C39.0423 4.7858 39.0812 4.51141 39.1741 4.25336C39.267 3.99531 39.4119 3.75913 39.6 3.55949C39.7882 3.36204 40.0148 3.20519 40.2659 3.09856C40.517 2.99194 40.7872 2.93781 41.06 2.93949H58.94C59.2128 2.93781 59.483 2.99194 59.7341 3.09856C59.9852 3.20519 60.2118 3.36204 60.4 3.55949C60.588 3.75913 60.733 3.99531 60.8259 4.25336C60.9188 4.51141 60.9576 4.7858 60.94 5.05949L60.6 10.9395C63.9215 11.8703 67.1131 13.2141 70.1 14.9395L74.1 10.5795C74.2871 10.3797 74.5132 10.2204 74.7643 10.1115C75.0154 10.0026 75.2862 9.94639 75.56 9.94639C75.8337 9.94639 76.1045 10.0026 76.3557 10.1115C76.6068 10.2204 76.8329 10.3797 77.02 10.5795L89.66 23.2195C89.8527 23.4134 90.0036 23.6448 90.1033 23.8994C90.2031 24.1539 90.2496 24.4263 90.24 24.6995C90.2338 24.9718 90.1721 25.24 90.0586 25.4876C89.9451 25.7352 89.7822 25.9571 89.58 26.1395L85.22 30.0195C86.9498 33.0113 88.2938 36.2101 89.22 39.5395L95.02 39.1995C95.5709 39.1796 96.1082 39.373 96.52 39.7395C96.7174 39.9277 96.8743 40.1543 96.9809 40.4054C97.0875 40.6565 97.1417 40.9267 97.14 41.1995V59.0795C97.1417 59.3523 97.0875 59.6225 96.9809 59.8736C96.8743 60.1247 96.7174 60.3513 96.52 60.5395C96.3203 60.7275 96.0842 60.8725 95.8261 60.9654C95.5681 61.0583 95.2937 61.0971 95.02 61.0795L89.22 60.7395C88.2997 64.0773 86.9554 67.2834 85.22 70.2795L89.48 73.9995C89.6823 74.1819 89.8451 74.4037 89.9586 74.6514C90.0721 74.899 90.1338 75.1672 90.14 75.4395C90.1496 75.7127 90.1031 75.985 90.0033 76.2396C89.9036 76.4941 89.7527 76.7255 89.56 76.9195L76.92 89.5595C76.5183 89.9339 75.9891 90.1413 75.44 90.1395C75.1677 90.1333 74.8995 90.0716 74.6518 89.9581C74.4042 89.8446 74.1824 89.6818 74 89.4795L70.14 85.1395C67.1495 86.8861 63.9419 88.231 60.6 89.1395L60.94 94.9195C60.9576 95.1932 60.9188 95.4676 60.8259 95.7256C60.733 95.9837 60.588 96.2198 60.4 96.4195C60.2084 96.6097 59.9802 96.7592 59.7293 96.8588C59.4784 96.9585 59.2099 97.0064 58.94 96.9995ZM43.18 92.9995H56.82L56.52 87.6595C56.5087 87.1972 56.658 86.7452 56.9424 86.3806C57.2268 86.0159 57.6288 85.7611 58.08 85.6595C62.1179 84.7568 65.9685 83.1597 69.46 80.9395C69.8603 80.6868 70.3372 80.5844 70.806 80.6503C71.2747 80.7162 71.7049 80.9462 72.02 81.2995L75.58 85.2995L85.24 75.6395L81.24 72.0795C80.8867 71.7644 80.6567 71.3342 80.5908 70.8655C80.5248 70.3967 80.6273 69.9198 80.88 69.5195C83.0969 65.978 84.6868 62.081 85.58 57.9995C85.6816 57.5483 85.9364 57.1463 86.301 56.8619C86.6657 56.5775 87.1177 56.4282 87.58 56.4395L92.94 56.7395V43.1795L87.58 43.4795C87.1177 43.4908 86.6657 43.3415 86.301 43.0571C85.9364 42.7727 85.6816 42.3707 85.58 41.9195C84.6701 37.8901 83.0734 34.0473 80.86 30.5595C80.6073 30.1592 80.5048 29.6823 80.5708 29.2135C80.6367 28.7448 80.8667 28.3146 81.22 27.9995L85.22 24.4195L75.58 14.7595L72 18.7795C71.6849 19.1327 71.2547 19.3628 70.786 19.4287C70.3172 19.4946 69.8403 19.3921 69.44 19.1395C65.918 16.9407 62.0505 15.3518 58 14.4395C57.5488 14.3379 57.1468 14.0831 56.8624 13.7184C56.578 13.3538 56.4287 12.9018 56.44 12.4395L56.74 7.05949H43.18L43.48 12.4395C43.4913 12.9018 43.342 13.3538 43.0576 13.7184C42.7732 14.0831 42.3711 14.3379 41.92 14.4395C37.8894 15.3355 34.0454 16.9259 30.56 19.1395C30.1597 19.3921 29.6827 19.4946 29.214 19.4287C28.7452 19.3628 28.3151 19.1327 28 18.7795L24.42 14.7795L14.76 24.4195L18.76 27.9995C19.1132 28.3146 19.3433 28.7448 19.4092 29.2135C19.4751 29.6823 19.3726 30.1592 19.12 30.5595C16.9136 34.0775 15.3241 37.9464 14.42 41.9995C14.3184 42.4507 14.0636 42.8527 13.6989 43.1371C13.3343 43.4215 12.8823 43.5708 12.42 43.5595L6.99998 43.1795V56.8195L12.34 56.5195C12.8023 56.5082 13.2543 56.6575 13.6189 56.9419C13.9836 57.2263 14.2384 57.6283 14.34 58.0795C15.2392 62.1153 16.8293 65.9653 19.04 69.4595C19.297 69.849 19.4097 70.3162 19.3585 70.78C19.3074 71.2439 19.0957 71.6753 18.76 71.9995L14.76 75.5595L24.42 85.2195L27.98 81.2195C28.2951 80.8662 28.7252 80.6362 29.194 80.5703C29.6627 80.5044 30.1397 80.6068 30.54 80.8595C34.0607 83.0834 37.937 84.6867 42 85.5995C42.4511 85.7011 42.8532 85.9559 43.1376 86.3206C43.422 86.6852 43.5713 87.1372 43.56 87.5995L43.18 92.9995Z" fill="#CD2264"/>
<path d="M50 78.2398C44.4147 78.2398 38.9548 76.5835 34.3107 73.4805C29.6667 70.3774 26.0471 65.9669 23.9097 60.8068C21.7722 55.6466 21.213 49.9685 22.3026 44.4904C23.3923 39.0124 26.0819 33.9805 30.0313 30.0311C33.9808 26.0816 39.0126 23.392 44.4907 22.3024C49.9687 21.2128 55.6468 21.772 60.807 23.9094C65.9672 26.0468 70.3777 29.6664 73.4807 34.3105C76.5838 38.9545 78.24 44.4144 78.24 49.9998C78.2347 57.4879 75.2577 64.6677 69.9629 69.9626C64.668 75.2575 57.4881 78.2345 50 78.2398ZM50 25.7598C45.2058 25.7598 40.5192 27.1814 36.533 29.845C32.5468 32.5085 29.4398 36.2943 27.6052 40.7235C25.7705 45.1528 25.2905 50.0267 26.2258 54.7288C27.1611 59.4309 29.4697 63.75 32.8598 67.14C36.2498 70.5301 40.5689 72.8387 45.271 73.774C49.9731 74.7093 54.847 74.2293 59.2763 72.3946C63.7055 70.5599 67.4913 67.453 70.1548 63.4668C72.8184 59.4806 74.24 54.794 74.24 49.9998C74.24 43.5709 71.6862 37.4054 67.1403 32.8595C62.5944 28.3136 56.4289 25.7598 50 25.7598Z" fill="#CD2264"/>
<path d="M66.88 53.8809H50C49.4696 53.8809 48.9609 53.6701 48.5858 53.2951C48.2107 52.92 48 52.4113 48 51.8809V29.3809H52V49.8809H66.88V53.8809Z" fill="#CD2264"/>
</svg>
