<svg width="100" height="100" viewBox="0 0 100 100" fill="none" xmlns="http://www.w3.org/2000/svg">
<g clip-path="url(#clip0_2385_8446)">
<path d="M100 0H0V100H100V0Z" fill="url(#paint0_linear_2385_8446)"/>
<path d="M50 28.8264L44.1067 22.9197L50 17.0264L55.8933 22.9197L50 28.8264ZM47.88 22.9197L50 25.053L52.12 22.9197L50 20.7997L47.88 22.9197Z" fill="white"/>
<path d="M77.08 55.8931L71.1733 49.9998L77.08 44.1064L82.9733 49.9998L77.08 55.8931ZM74.9467 49.9998L77.08 52.1198L79.2 49.9998L77.08 47.8798L74.9467 49.9998Z" fill="white"/>
<path d="M22.9201 55.8931L17.0267 49.9998L22.9201 44.1064L28.8267 49.9998L22.9201 55.8931ZM20.8001 49.9998L22.9201 52.1198L25.0534 49.9998L22.9201 47.8798L20.8001 49.9998Z" fill="white"/>
<path d="M50 82.9729L44.1067 77.0795L50 71.1729L55.8933 77.0795L50 82.9729ZM47.88 77.0795L50 79.1995L52.12 77.0795L50 74.9462L47.88 77.0795Z" fill="white"/>
<path d="M67.0401 48.667H32.9468V51.3337H67.0401V48.667Z" fill="white"/>
<path d="M51.3334 32.96H48.6667V67.0533H51.3334V32.96Z" fill="white"/>
<path d="M36.5201 55.4526L31.0668 49.9992L36.5201 44.5459L38.4134 46.4259L34.8401 49.9992L38.4134 53.5726L36.5201 55.4526Z" fill="white"/>
<path d="M53.5734 38.4131L50.0001 34.8397L46.4268 38.4131L44.5468 36.5197L50.0001 31.0664L55.4534 36.5197L53.5734 38.4131Z" fill="white"/>
<path d="M50.0001 68.9326L44.5468 63.4793L46.4268 61.5859L50.0001 65.1593L53.5734 61.5859L55.4534 63.4793L50.0001 68.9326Z" fill="white"/>
<path d="M63.48 55.4526L61.5867 53.5726L65.16 49.9992L61.5867 46.4259L63.48 44.5459L68.9333 49.9992L63.48 55.4526Z" fill="white"/>
<path d="M50 58.7725C47.9666 58.7755 45.9951 58.0732 44.4216 56.7852C42.8481 55.4972 41.77 53.7034 41.3712 51.7095C40.9723 49.7156 41.2773 47.6451 42.2342 45.8509C43.1911 44.0567 44.7407 42.65 46.6188 41.8705C48.4969 41.091 50.5871 40.987 52.5333 41.5762C54.4795 42.1655 56.161 43.4115 57.2913 45.1018C58.4216 46.7921 58.9306 48.8221 58.7316 50.8458C58.5326 52.8694 57.6379 54.7614 56.2 56.1992C55.3887 57.0177 54.4228 57.6667 53.3584 58.1085C52.294 58.5502 51.1524 58.776 50 58.7725ZM50 43.8925C48.3804 43.8925 46.8272 44.5359 45.682 45.6811C44.5367 46.8264 43.8934 48.3796 43.8934 49.9992C43.8892 50.8019 44.045 51.5973 44.3518 52.3391C44.6586 53.0808 45.1101 53.754 45.68 54.3192C46.2471 54.8869 46.9206 55.3372 47.6618 55.6444C48.4031 55.9516 49.1976 56.1097 50 56.1097C50.8024 56.1097 51.597 55.9516 52.3382 55.6444C53.0795 55.3372 53.7529 54.8869 54.32 54.3192C55.4632 53.1721 56.105 51.6187 56.105 49.9992C56.105 48.3798 55.4632 46.8263 54.32 45.6792C53.7526 45.1123 53.079 44.6627 52.3378 44.3561C51.5965 44.0496 50.8021 43.892 50 43.8925Z" fill="white"/>
<path d="M28.2401 46.9328L26.3601 45.0394L30.1334 41.3328L32.0001 43.1594L28.2401 46.9328ZM35.7868 39.3861L33.9068 37.5061L37.6668 33.7328L39.5601 35.6128L35.7868 39.3861ZM43.3334 31.8528L41.4401 29.9594L44.6668 26.7461L46.5468 28.6261L43.3334 31.8528Z" fill="white"/>
<path d="M55.4534 73.5063L53.5734 71.613L57.3334 67.853L59.2134 69.733L55.4534 73.5063ZM63 65.9597L61.1067 64.0797L64.88 60.3063L66.7734 62.1863L63 65.9597ZM70.5334 58.413L68.6534 56.533L71.88 53.333L73.76 55.213L70.5334 58.413Z" fill="white"/>
<path d="M71.88 45.9201L68.1067 42.1601L69.9867 40.2667L73.76 44.0001L71.88 45.9201ZM64.3334 38.3867L60.56 34.6667L62.44 32.7734L66.2134 36.5467L64.3334 38.3867ZM56.7867 30.8401L53.5734 27.6267L55.4534 25.7334L58.6667 28.9601L56.7867 30.8401Z" fill="white"/>
<path d="M44.6668 73.8797L40.8934 70.1064L42.7734 68.213L46.5468 71.9997L44.6668 73.8797ZM37.1201 66.333L33.3334 62.5597L35.2268 60.6797L38.9868 64.4397L37.1201 66.333ZM29.5734 58.7864L26.3601 55.573L28.2401 53.6797L31.4668 56.9064L29.5734 58.7864Z" fill="white"/>
</g>
<defs>
<linearGradient id="paint0_linear_2385_8446" x1="-20.7052" y1="120.707" x2="120.716" y2="-20.7147" gradientUnits="userSpaceOnUse">
<stop stop-color="#B0084D"/>
<stop offset="1" stop-color="#FF4F8B"/>
</linearGradient>
<clipPath id="clip0_2385_8446">
<rect width="100" height="100" fill="white"/>
</clipPath>
</defs>
</svg>
