<svg width="100" height="100" viewBox="0 0 100 100" fill="none" xmlns="http://www.w3.org/2000/svg">
<g clip-path="url(#clip0_2385_8419)">
<path d="M100 0H0V100H100V0Z" fill="url(#paint0_linear_2385_8419)"/>
<path d="M58 67.3335H74V70.0001H58V71.3335H55.3333V70.0001H51.3333V67.3335H55.3333V66.0001H58V67.3335ZM63.3333 59.3335H60.6667V60.6668H51.3333V63.3335H60.6667V64.6668H63.3333V63.3335H74V60.6668H63.3333V59.3335ZM24.5733 57.1601C22.9272 56.1649 21.5748 54.7506 20.6542 53.0616C19.7335 51.3727 19.2777 49.4696 19.3333 47.5468C19.2107 45.2229 19.9329 42.9332 21.3665 41.1001C22.8001 39.267 24.8484 38.0144 27.1333 37.5735C27.4267 37.4979 27.6856 37.3247 27.8673 37.0823C28.0491 36.84 28.1429 36.5429 28.1333 36.2401L28 34.2535C28.0807 31.3946 28.9438 28.6126 30.4953 26.2101C32.0469 23.8076 34.2275 21.8764 36.8 20.6268C39.6058 19.385 42.7272 19.0426 45.7355 19.6467C48.7437 20.2507 51.4911 21.7715 53.6 24.0001C55.4883 25.9341 56.919 28.2669 57.7867 30.8268C57.868 31.0527 58.0087 31.2525 58.1941 31.405C58.3795 31.5576 58.6027 31.6572 58.84 31.6935C59.0784 31.7294 59.3221 31.7001 59.5452 31.6085C59.7682 31.5169 59.9623 31.3666 60.1067 31.1735C60.7941 30.2283 61.7618 29.5238 62.8724 29.16C63.983 28.7962 65.18 28.7916 66.2933 29.1468C68.8 29.9735 70.2933 32.4135 70.2933 35.8135C70.2576 35.9872 70.2569 36.1663 70.2912 36.3403C70.3256 36.5143 70.3943 36.6797 70.4933 36.8268C70.5949 36.9745 70.7251 37.1002 70.8763 37.1964C71.0275 37.2926 71.1965 37.3574 71.3733 37.3868C74.1733 37.8801 80.7067 39.8401 80.7067 47.6668C80.7067 47.9868 80.7067 48.2801 80.7067 48.5735L83.3733 48.6801C83.3733 48.3601 83.3733 48.0268 83.3733 47.6668C83.3733 38.6668 76.4133 35.8401 72.9733 35.0001C72.6933 30.8135 70.56 27.7068 67.1733 26.5868C65.8906 26.1637 64.5232 26.0641 63.1927 26.2967C61.8622 26.5293 60.6098 27.087 59.5467 27.9201C58.5753 25.7369 57.2206 23.7454 55.5467 22.0401C53.0602 19.4403 49.8327 17.6703 46.3039 16.9712C42.7751 16.2721 39.1165 16.678 35.8267 18.1335C32.7404 19.5858 30.122 21.8728 28.2676 24.7356C26.4132 27.5985 25.3968 30.9231 25.3333 34.3335V35.2935C22.7124 36.0574 20.4253 37.6819 18.8408 39.905C17.2564 42.1281 16.467 44.8201 16.6 47.5468C16.5503 49.9183 17.1222 52.2616 18.2591 54.3434C19.3959 56.4253 21.058 58.1733 23.08 59.4135C24.2375 60.2127 25.6068 60.649 27.0133 60.6668H37.8267V58.0001H27.08C26.1781 57.9837 25.303 57.6905 24.5733 57.1601ZM68.6667 52.6668H66V54.0001H51.3333V56.6668H66V58.0001H68.6667V56.6668H74V54.0001H68.6667V52.6668ZM82.92 57.0535C83.05 57.1774 83.1536 57.3263 83.2247 57.4913C83.2957 57.6562 83.3327 57.8339 83.3333 58.0135V66.0135C83.3327 66.1931 83.2957 66.3707 83.2247 66.5357C83.1536 66.7006 83.05 66.8495 82.92 66.9735C82.788 67.1012 82.6311 67.2003 82.459 67.2646C82.2869 67.3288 82.1034 67.3568 81.92 67.3468L79.6933 67.2135C79.3209 68.4914 78.8112 69.7252 78.1733 70.8935L79.84 72.3735C79.9788 72.4918 80.0901 72.6391 80.1661 72.8049C80.2421 72.9707 80.2809 73.1511 80.28 73.3335C80.2846 73.5134 80.2527 73.6924 80.1862 73.8597C80.1198 74.027 80.0201 74.1791 79.8933 74.3068L74.28 79.9335C74.0088 80.1776 73.6582 80.315 73.2933 80.3201C73.1118 80.316 72.933 80.2749 72.7679 80.1992C72.6028 80.1236 72.455 80.015 72.3333 79.8801L70.8533 78.2135C69.6866 78.858 68.4525 79.3722 67.1733 79.7468L67.3067 81.9601C67.3166 82.1404 67.2898 82.3208 67.2279 82.4904C67.166 82.66 67.0704 82.8153 66.9467 82.9468C66.8224 83.0809 66.6718 83.1879 66.5044 83.2613C66.3369 83.3347 66.1562 83.3729 65.9733 83.3735H57.9733C57.7905 83.3729 57.6098 83.3347 57.4423 83.2613C57.2749 83.1879 57.1243 83.0809 57 82.9468C56.8763 82.8153 56.7806 82.66 56.7188 82.4904C56.6569 82.3208 56.6301 82.1404 56.64 81.9601L56.7733 79.7468C55.4942 79.3722 54.2601 78.858 53.0933 78.2135L51.6133 79.8801C51.4917 80.015 51.3438 80.1236 51.1788 80.1992C51.0137 80.2749 50.8349 80.316 50.6533 80.3201C50.2875 80.32 49.9352 80.1819 49.6667 79.9335L44.1067 74.2668C43.9799 74.1391 43.8802 73.987 43.8138 73.8197C43.7473 73.6524 43.7154 73.4734 43.72 73.2935C43.7191 73.1111 43.758 72.9307 43.834 72.7649C43.91 72.5991 44.0212 72.4518 44.16 72.3335L45.8133 70.8535C45.1754 69.6852 44.6658 68.4514 44.2933 67.1735L42.08 67.3068C41.713 67.3187 41.3552 67.1899 41.08 66.9468C40.9484 66.8213 40.8438 66.6702 40.7727 66.5029C40.7016 66.3355 40.6656 66.1553 40.6667 65.9735V57.9735C40.6663 57.7914 40.7033 57.6113 40.7752 57.444C40.8472 57.2768 40.9526 57.1261 41.085 57.0012C41.2175 56.8763 41.374 56.7798 41.5452 56.7177C41.7163 56.6556 41.8983 56.6292 42.08 56.6401L44.3067 56.7601C44.6816 55.4874 45.1911 54.2582 45.8267 53.0935L44.16 51.6001C44.0229 51.4832 43.9127 51.3382 43.8368 51.1748C43.7608 51.0114 43.721 50.8336 43.72 50.6535C43.7136 50.4713 43.7446 50.2898 43.8111 50.1201C43.8776 49.9504 43.9782 49.7961 44.1067 49.6668L49.72 44.0401C49.9878 43.7905 50.3406 43.6523 50.7067 43.6535C50.8892 43.6593 51.0686 43.7025 51.2337 43.7805C51.3989 43.8584 51.5462 43.9695 51.6667 44.1068L53.16 45.7735C54.3225 45.1334 55.5522 44.6236 56.8267 44.2535L56.6933 42.0135C56.6834 41.8332 56.7102 41.6528 56.7721 41.4832C56.834 41.3136 56.9297 41.1583 57.0533 41.0268C57.1788 40.8952 57.3299 40.7906 57.4973 40.7195C57.6647 40.6484 57.8448 40.6123 58.0267 40.6135H66.0267C66.2085 40.6123 66.3887 40.6484 66.5561 40.7195C66.7235 40.7906 66.8745 40.8952 67 41.0268C67.1237 41.1583 67.2194 41.3136 67.2813 41.4832C67.3431 41.6528 67.3699 41.8332 67.36 42.0135L67.2267 44.2535C68.5011 44.6236 69.7308 45.1334 70.8933 45.7735L72.3867 44.1068C72.5071 43.9695 72.6545 43.8584 72.8196 43.7805C72.9847 43.7025 73.1641 43.6593 73.3467 43.6535C73.7128 43.6523 74.0656 43.7905 74.3333 44.0401L79.9467 49.6668C80.0751 49.7961 80.1757 49.9504 80.2422 50.1201C80.3087 50.2898 80.3398 50.4713 80.3333 50.6535C80.3323 50.8336 80.2925 51.0114 80.2166 51.1748C80.1407 51.3382 80.0304 51.4832 79.8933 51.6001L78.2267 53.0935C78.8668 54.256 79.3765 55.4857 79.7467 56.7601L81.9733 56.6401C82.1507 56.6426 82.3258 56.6804 82.4883 56.7514C82.6509 56.8224 82.7976 56.9251 82.92 57.0535ZM80.6667 59.4268L78.76 59.5468C78.4518 59.5543 78.1505 59.4548 77.9074 59.2652C77.6643 59.0756 77.4944 58.8076 77.4267 58.5068C77.0354 56.7636 76.35 55.0998 75.4 53.5868C75.2316 53.3199 75.1633 53.002 75.2072 52.6895C75.2511 52.377 75.4045 52.0902 75.64 51.8801L77.0133 50.6668L73.3333 46.9868L72 48.4135C71.7899 48.649 71.5032 48.8023 71.1907 48.8463C70.8782 48.8902 70.5602 48.8219 70.2933 48.6535C68.8162 47.7265 67.1935 47.0549 65.4933 46.6668C65.1926 46.5991 64.9246 46.4292 64.7349 46.1861C64.5453 45.943 64.4458 45.6417 64.4533 45.3335L64.56 43.4135H59.44L59.5467 45.3201C59.5542 45.6284 59.4547 45.9297 59.2651 46.1728C59.0755 46.4159 58.8074 46.5857 58.5067 46.6535C56.7669 47.0425 55.1071 47.728 53.6 48.6801C53.3331 48.8486 53.0152 48.9169 52.7027 48.8729C52.3902 48.829 52.1034 48.6756 51.8933 48.4401L50.56 47.0135L46.9867 50.6668L48.4267 52.0001C48.6622 52.2102 48.8155 52.497 48.8595 52.8095C48.9034 53.122 48.8351 53.4399 48.6667 53.7068C47.7304 55.1807 47.0539 56.8042 46.6667 58.5068C46.5989 58.8076 46.4291 59.0756 46.186 59.2652C45.9429 59.4548 45.6416 59.5543 45.3333 59.5468L43.4267 59.4268V64.5601L45.3333 64.4535C45.6416 64.4459 45.9429 64.5455 46.186 64.7351C46.4291 64.9247 46.5989 65.1927 46.6667 65.4935C47.0603 67.2339 47.7504 68.8937 48.7067 70.4001C48.8751 70.667 48.9434 70.985 48.8995 71.2975C48.8555 71.61 48.7022 71.8967 48.4667 72.1068L47.04 73.4401L50.6667 77.0001L51.9333 75.5868C52.1434 75.3513 52.4302 75.1979 52.7427 75.154C53.0552 75.1101 53.3731 75.1784 53.64 75.3468C55.1396 76.2768 56.7847 76.9484 58.5067 77.3335C58.8074 77.4012 59.0755 77.5711 59.2651 77.8142C59.4547 78.0573 59.5542 78.3586 59.5467 78.6668L59.44 80.5735H64.56L64.4533 78.6668C64.4458 78.3586 64.5453 78.0573 64.7349 77.8142C64.9246 77.5711 65.1926 77.4012 65.4933 77.3335C67.2372 76.9375 68.901 76.2477 70.4133 75.2935C70.6802 75.125 70.9982 75.0567 71.3107 75.1007C71.6232 75.1446 71.9099 75.298 72.12 75.5335L73.3333 77.0001L77.0133 73.3335L75.5867 72.0001C75.3512 71.7901 75.1978 71.5033 75.1539 71.1908C75.1099 70.8783 75.1782 70.5603 75.3467 70.2935C76.271 68.815 76.9424 67.1927 77.3333 65.4935C77.4011 65.1927 77.5709 64.9247 77.8141 64.7351C78.0572 64.5455 78.3585 64.4459 78.6667 64.4535L80.5733 64.5601L80.6667 59.4268Z" fill="white"/>
</g>
<defs>
<linearGradient id="paint0_linear_2385_8419" x1="-20.7067" y1="120.711" x2="120.715" y2="-20.7107" gradientUnits="userSpaceOnUse">
<stop stop-color="#B0084D"/>
<stop offset="1" stop-color="#FF4F8B"/>
</linearGradient>
<clipPath id="clip0_2385_8419">
<rect width="100" height="100" fill="white"/>
</clipPath>
</defs>
</svg>
