<svg width="100" height="100" viewBox="0 0 100 100" fill="none" xmlns="http://www.w3.org/2000/svg">
<g clip-path="url(#clip0_2385_8444)">
<path d="M100 0H0V100H100V0Z" fill="#CC2264"/>
<path d="M49.9999 28.8264L44.1066 22.9197L49.9999 17.0264L55.8932 22.9197L49.9999 28.8264ZM47.8799 22.9197L49.9999 25.053L52.1199 22.9197L49.9999 20.7997L47.8799 22.9197Z" fill="white"/>
<path d="M77.0799 55.8931L71.1733 49.9998L77.0799 44.1064L82.9733 49.9998L77.0799 55.8931ZM74.9466 49.9998L77.0799 52.1198L79.1999 49.9998L77.0799 47.8798L74.9466 49.9998Z" fill="white"/>
<path d="M22.9199 55.8931L17.0266 49.9998L22.9199 44.1064L28.8266 49.9998L22.9199 55.8931ZM20.7999 49.9998L22.9199 52.1198L25.0533 49.9998L22.9199 47.8798L20.7999 49.9998Z" fill="white"/>
<path d="M49.9999 82.9729L44.1066 77.0795L49.9999 71.1729L55.8932 77.0795L49.9999 82.9729ZM47.8799 77.0795L49.9999 79.1995L52.1199 77.0795L49.9999 74.9462L47.8799 77.0795Z" fill="white"/>
<path d="M67.04 48.667H32.9467V51.3337H67.04V48.667Z" fill="white"/>
<path d="M51.3333 32.96H48.6666V67.0533H51.3333V32.96Z" fill="white"/>
<path d="M36.52 55.4526L31.0667 49.9992L36.52 44.5459L38.4133 46.4259L34.84 49.9992L38.4133 53.5726L36.52 55.4526Z" fill="white"/>
<path d="M53.5733 38.4131L50 34.8397L46.4266 38.4131L44.5466 36.5197L50 31.0664L55.4533 36.5197L53.5733 38.4131Z" fill="white"/>
<path d="M50 68.9326L44.5466 63.4793L46.4266 61.5859L50 65.1593L53.5733 61.5859L55.4533 63.4793L50 68.9326Z" fill="white"/>
<path d="M63.48 55.4526L61.5867 53.5726L65.16 49.9992L61.5867 46.4259L63.48 44.5459L68.9333 49.9992L63.48 55.4526Z" fill="white"/>
<path d="M49.9999 58.7725C47.9665 58.7755 45.995 58.0732 44.4215 56.7852C42.848 55.4972 41.7699 53.7034 41.371 51.7095C40.9722 49.7156 41.2772 47.6451 42.2341 45.8509C43.191 44.0567 44.7406 42.65 46.6187 41.8705C48.4967 41.091 50.587 40.987 52.5332 41.5762C54.4793 42.1655 56.1609 43.4115 57.2912 45.1018C58.4215 46.7921 58.9305 48.8221 58.7315 50.8458C58.5325 52.8694 57.6378 54.7614 56.1999 56.1992C55.3886 57.0177 54.4227 57.6667 53.3583 58.1085C52.2939 58.5502 51.1523 58.776 49.9999 58.7725ZM49.9999 43.8925C48.3803 43.8925 46.8271 44.5359 45.6818 45.6811C44.5366 46.8264 43.8932 48.3796 43.8932 49.9992C43.889 50.8019 44.0449 51.5973 44.3517 52.3391C44.6584 53.0808 45.11 53.754 45.6799 54.3192C46.247 54.8869 46.9205 55.3372 47.6617 55.6444C48.403 55.9516 49.1975 56.1097 49.9999 56.1097C50.8023 56.1097 51.5968 55.9516 52.3381 55.6444C53.0793 55.3372 53.7528 54.8869 54.3199 54.3192C55.463 53.1721 56.1049 51.6187 56.1049 49.9992C56.1049 48.3798 55.463 46.8263 54.3199 45.6792C53.7525 45.1123 53.0789 44.6627 52.3376 44.3561C51.5964 44.0496 50.802 43.892 49.9999 43.8925Z" fill="white"/>
<path d="M28.24 46.9328L26.36 45.0394L30.1333 41.3328L32 43.1594L28.24 46.9328ZM35.7867 39.3861L33.9067 37.5061L37.6667 33.7328L39.56 35.6128L35.7867 39.3861ZM43.3333 31.8528L41.44 29.9594L44.6667 26.7461L46.5467 28.6261L43.3333 31.8528Z" fill="white"/>
<path d="M55.4532 73.5063L53.5732 71.613L57.3332 67.853L59.2132 69.733L55.4532 73.5063ZM62.9999 65.9597L61.1066 64.0797L64.8799 60.3063L66.7732 62.1863L62.9999 65.9597ZM70.5332 58.413L68.6532 56.533L71.8799 53.333L73.7599 55.213L70.5332 58.413Z" fill="white"/>
<path d="M71.8799 45.9201L68.1066 42.1601L69.9866 40.2667L73.7599 44.0001L71.8799 45.9201ZM64.3332 38.3867L60.5599 34.6667L62.4399 32.7734L66.2132 36.5467L64.3332 38.3867ZM56.7866 30.8401L53.5732 27.6267L55.4532 25.7334L58.6666 28.9601L56.7866 30.8401Z" fill="white"/>
<path d="M44.6667 73.8797L40.8933 70.1064L42.7733 68.213L46.5467 71.9997L44.6667 73.8797ZM37.12 66.333L33.3333 62.5597L35.2267 60.6797L38.9867 64.4397L37.12 66.333ZM29.5733 58.7864L26.36 55.573L28.24 53.6797L31.4667 56.9064L29.5733 58.7864Z" fill="white"/>
</g>
<defs>
<clipPath id="clip0_2385_8444">
<rect width="100" height="100" fill="white"/>
</clipPath>
</defs>
</svg>
