<svg width="100" height="100" viewBox="0 0 100 100" fill="none" xmlns="http://www.w3.org/2000/svg">
<path d="M95 97H5C4.46957 97 3.96086 96.7893 3.58579 96.4142C3.21071 96.0391 3 95.5304 3 95V35C3 34.4696 3.21071 33.9609 3.58579 33.5858C3.96086 33.2107 4.46957 33 5 33H95C95.5304 33 96.0391 33.2107 96.4142 33.5858C96.7893 33.9609 97 34.4696 97 35V95C97 95.5304 96.7893 96.0391 96.4142 96.4142C96.0391 96.7893 95.5304 97 95 97ZM7 93H93V37H7V93Z" fill="#CD2264"/>
<path d="M97 29.38H93V7H7V29.38H3V5C3 4.46957 3.21071 3.96086 3.58579 3.58579C3.96086 3.21071 4.46957 3 5 3H95C95.5304 3 96.0391 3.21071 96.4142 3.58579C96.7893 3.96086 97 4.46957 97 5V29.38Z" fill="#CD2264"/>
</svg>
