<svg width="100" height="100" viewBox="0 0 100 100" fill="none" xmlns="http://www.w3.org/2000/svg">
<path d="M86.56 97H36C35.4696 97 34.9609 96.7893 34.5858 96.4142C34.2107 96.0391 34 95.5304 34 95V20C34 19.4696 34.2107 18.9609 34.5858 18.5858C34.9609 18.2107 35.4696 18 36 18H67.82C68.3447 18.0022 68.8475 18.2105 69.22 18.58L88 37.34C88.1854 37.5269 88.332 37.7485 88.4315 37.9922C88.5311 38.2359 88.5815 38.4968 88.58 38.76V95C88.58 95.2643 88.5276 95.526 88.4259 95.77C88.3241 96.014 88.175 96.2354 87.9872 96.4213C87.7993 96.6073 87.5765 96.7542 87.3315 96.8535C87.0865 96.9529 86.8243 97.0026 86.56 97ZM38 93H84.56V39.58L66.98 22H38V93Z" fill="#CD2264"/>
<path d="M30.3201 89.5H24.6801C24.1496 89.5 23.6409 89.2893 23.2658 88.9142C22.8908 88.5391 22.6801 88.0304 22.6801 87.5V12.5C22.6801 11.9696 22.8908 11.4609 23.2658 11.0858C23.6409 10.7107 24.1496 10.5 24.6801 10.5H58.4401V14.5H26.6801V85.5H30.3201V89.5Z" fill="#CD2264"/>
<path d="M17.1799 82H13.4399C12.9095 82 12.4008 81.7893 12.0257 81.4142C11.6507 81.0391 11.4399 80.5304 11.4399 80V5C11.4399 4.46957 11.6507 3.96086 12.0257 3.58579C12.4008 3.21071 12.9095 3 13.4399 3H49.0599V7H15.4399V78H17.1799V82Z" fill="#CD2264"/>
<path d="M86.5601 40.76H67.8201C67.2896 40.76 66.7809 40.5493 66.4059 40.1742C66.0308 39.7991 65.8201 39.2904 65.8201 38.76V20H69.8201V36.76H86.5601V40.76Z" fill="#CD2264"/>
<path d="M58.4401 34.8809H41.5601V38.8809H58.4401V34.8809Z" fill="#CD2264"/>
<path d="M80.9401 48H41.5601V52H80.9401V48Z" fill="#CD2264"/>
<path d="M73.4401 61.1191H41.5601V65.1191H73.4401V61.1191Z" fill="#CD2264"/>
</svg>
