<svg width="100" height="100" viewBox="0 0 100 100" fill="none" xmlns="http://www.w3.org/2000/svg">
<g clip-path="url(#clip0_2385_8447)">
<path d="M100 0H0V100H100V0Z" fill="url(#paint0_linear_2385_8447)"/>
<path d="M71.8267 28.0931H63.5067C63.1531 28.0931 62.8139 27.9527 62.5639 27.7026C62.3138 27.4526 62.1733 27.1134 62.1733 26.7598V18.4531H64.84V25.4265H71.8267V28.0931Z" fill="white"/>
<path d="M71.8267 75.9068H59.36V73.2401H70.4934V27.3201L62.96 19.7868H29.5067V73.2401H40.64V75.9068H28.1734C27.8197 75.9068 27.4806 75.7663 27.2306 75.5163C26.9805 75.2662 26.84 74.9271 26.84 74.5735V18.4535C26.84 18.0999 26.9805 17.7607 27.2306 17.5107C27.4806 17.2606 27.8197 17.1201 28.1734 17.1201H63.5067C63.6822 17.1191 63.8561 17.1528 64.0186 17.2191C64.181 17.2855 64.3288 17.3832 64.4534 17.5068L72.7734 25.8268C73.0197 26.0752 73.1585 26.4104 73.16 26.7601V74.5735C73.16 74.9271 73.0195 75.2662 72.7695 75.5163C72.5194 75.7663 72.1803 75.9068 71.8267 75.9068Z" fill="white"/>
<path d="M56.24 82.8798C55.9285 82.8804 55.6266 82.7719 55.3867 82.5731L50.0533 78.0931L44.72 82.5731C44.5262 82.7348 44.2906 82.8381 44.0404 82.8712C43.7902 82.9042 43.5358 82.8656 43.3067 82.7598C43.0752 82.6526 42.8794 82.4814 42.7423 82.2664C42.6052 82.0513 42.5327 81.8014 42.5333 81.5464V70.4131H45.2V78.6664L49.2 75.2931C49.4396 75.0935 49.7415 74.9843 50.0533 74.9843C50.3651 74.9843 50.6671 75.0935 50.9067 75.2931L54.9067 78.6664V70.4131H57.5733V81.5464C57.5733 81.9 57.4329 82.2392 57.1828 82.4892C56.9328 82.7393 56.5936 82.8798 56.24 82.8798Z" fill="white"/>
<path d="M50 71.7473C49.1159 71.7447 48.2525 71.4797 47.5191 70.986C46.7856 70.4923 46.2152 69.7921 45.88 68.974C45.3467 68.7894 44.8257 68.5712 44.32 68.3206C43.8106 68.5222 43.2679 68.6262 42.72 68.6273C41.5412 68.6238 40.4119 68.153 39.5797 67.3182C38.7474 66.4835 38.28 65.3528 38.28 64.174C38.2767 63.6313 38.3762 63.0929 38.5734 62.5873C38.327 62.0814 38.1133 61.5604 37.9334 61.0273C37.1162 60.692 36.4171 60.1212 35.9252 59.3876C35.4332 58.654 35.1705 57.7906 35.1705 56.9073C35.1705 56.024 35.4332 55.1606 35.9252 54.427C36.4171 53.6934 37.1162 53.1226 37.9334 52.7873C38.1085 52.2524 38.3224 51.7311 38.5734 51.2273C38.2549 50.4241 38.1784 49.5452 38.3534 48.699C38.5284 47.8529 38.9472 47.0764 39.5582 46.4655C40.1692 45.8545 40.9456 45.4357 41.7918 45.2607C42.6379 45.0857 43.5168 45.1621 44.32 45.4806C44.8257 45.2301 45.3467 45.0118 45.88 44.8273C46.2153 44.0101 46.7861 43.3111 47.5197 42.8191C48.2534 42.3271 49.1167 42.0645 50 42.0645C50.8833 42.0645 51.7467 42.3271 52.4803 42.8191C53.214 43.3111 53.7847 44.0101 54.12 44.8273C54.6533 45.0118 55.1744 45.2301 55.68 45.4806C56.1894 45.2791 56.7322 45.1751 57.28 45.174C58.001 45.1786 58.7101 45.3577 59.3468 45.6959C59.9835 46.0341 60.5289 46.5214 60.9364 47.1162C61.3438 47.711 61.6012 48.3956 61.6866 49.1115C61.772 49.8274 61.6828 50.5533 61.4267 51.2273C61.6776 51.7311 61.8915 52.2524 62.0667 52.7873C62.8839 53.1226 63.5829 53.6934 64.0749 54.427C64.5668 55.1606 64.8295 56.024 64.8295 56.9073C64.8295 57.7906 64.5668 58.654 64.0749 59.3876C63.5829 60.1212 62.8839 60.692 62.0667 61.0273C61.8868 61.5604 61.673 62.0814 61.4267 62.5873C61.6239 63.0929 61.7234 63.6313 61.72 64.174C61.7202 65.3436 61.2601 66.4663 60.4393 67.2996C59.6185 68.1329 58.5029 68.6098 57.3334 68.6273C56.7855 68.6262 56.2428 68.5222 55.7334 68.3206C55.2277 68.5712 54.7067 68.7894 54.1734 68.974C53.8348 69.8005 53.2562 70.5066 52.5122 71.001C51.7683 71.4953 50.8932 71.7553 50 71.7473ZM44.3467 65.494C44.5754 65.4975 44.7997 65.557 45 65.6673C45.7224 66.0797 46.4926 66.4021 47.2934 66.6273C47.5331 66.692 47.75 66.8225 47.9196 67.0039C48.0893 67.1852 48.2048 67.4104 48.2534 67.654C48.3393 68.0534 48.5596 68.4112 48.8774 68.668C49.1953 68.9247 49.5915 69.0647 50 69.0647C50.4086 69.0647 50.8048 68.9247 51.1226 68.668C51.4405 68.4112 51.6607 68.0534 51.7467 67.654C51.7952 67.4104 51.9108 67.1852 52.0804 67.0039C52.25 66.8225 52.4669 66.692 52.7067 66.6273C53.5075 66.4021 54.2777 66.0797 55 65.6673C55.2027 65.5503 55.4326 65.4887 55.6667 65.4887C55.9007 65.4887 56.1307 65.5503 56.3334 65.6673C56.602 65.8239 56.907 65.9072 57.218 65.9087C57.5289 65.9103 57.8348 65.83 58.1049 65.6761C58.375 65.5221 58.5999 65.2998 58.757 65.0315C58.9142 64.7631 58.9979 64.4582 59 64.1473C59.0031 63.8211 58.9104 63.5013 58.7334 63.2273C58.6163 63.0246 58.5547 62.7947 58.5547 62.5606C58.5547 62.3266 58.6163 62.0966 58.7334 61.894C59.1383 61.1695 59.456 60.3997 59.68 59.6006C59.7469 59.3633 59.8783 59.1493 60.0595 58.9821C60.2408 58.815 60.4648 58.7014 60.7067 58.654C61.1079 58.5689 61.468 58.3494 61.7275 58.0318C61.9869 57.7141 62.1301 57.3174 62.1334 56.9073C62.1351 56.4959 61.9937 56.0966 61.7335 55.7779C61.4732 55.4593 61.1102 55.2411 60.7067 55.1606C60.4631 55.1121 60.238 54.9965 60.0566 54.8269C59.8752 54.6573 59.7448 54.4404 59.68 54.2006C59.4537 53.4023 59.1361 52.6328 58.7334 51.9073C58.6163 51.7046 58.5547 51.4747 58.5547 51.2406C58.5547 51.0066 58.6163 50.7767 58.7334 50.574C58.9104 50.3 59.0031 49.9801 59 49.654C59.0079 49.1956 58.8393 48.7517 58.5291 48.4142C58.2188 48.0767 57.7908 47.8713 57.3334 47.8406C57.004 47.8444 56.6817 47.9365 56.4 48.1073C56.1973 48.2243 55.9674 48.2859 55.7334 48.2859C55.4993 48.2859 55.2694 48.2243 55.0667 48.1073C54.3466 47.6935 53.5757 47.3752 52.7734 47.1606C52.5336 47.0959 52.3167 46.9655 52.1471 46.7841C51.9775 46.6027 51.8619 46.3775 51.8134 46.134C51.7413 45.723 51.5266 45.3507 51.2072 45.0824C50.8877 44.8141 50.4839 44.667 50.0667 44.667C49.6495 44.667 49.2457 44.8141 48.9262 45.0824C48.6068 45.3507 48.3921 45.723 48.32 46.134C48.2715 46.3775 48.1559 46.6027 47.9863 46.7841C47.8167 46.9655 47.5998 47.0959 47.36 47.1606C46.5577 47.3752 45.7868 47.6935 45.0667 48.1073C44.864 48.2243 44.6341 48.2859 44.4 48.2859C44.166 48.2859 43.9361 48.2243 43.7334 48.1073C43.4517 47.9365 43.1294 47.8444 42.8 47.8406C42.3285 47.8441 41.8775 48.0339 41.5453 48.3686C41.2131 48.7033 41.0267 49.1557 41.0267 49.6273C41.0237 49.9534 41.1164 50.2733 41.2934 50.5473C41.4104 50.75 41.472 50.9799 41.472 51.214C41.472 51.448 41.4104 51.6779 41.2934 51.8806C40.8885 52.6051 40.5707 53.3749 40.3467 54.174C40.282 54.4137 40.1515 54.6306 39.9701 54.8002C39.7887 54.9698 39.5636 55.0854 39.32 55.134C38.9165 55.2144 38.5535 55.4326 38.2933 55.7513C38.033 56.0699 37.8916 56.4692 37.8934 56.8806C37.884 57.2885 38.0135 57.6874 38.2606 58.012C38.5077 58.3366 38.8578 58.5677 39.2534 58.6673C39.4953 58.7147 39.7193 58.8283 39.9006 58.9955C40.0818 59.1626 40.2132 59.3767 40.28 59.614C40.5016 60.4139 40.8195 61.184 41.2267 61.9073C41.3437 62.11 41.4053 62.3399 41.4053 62.574C41.4053 62.808 41.3437 63.0379 41.2267 63.2406C41.0497 63.5146 40.957 63.8345 40.96 64.1606C40.9621 64.4716 41.0459 64.7765 41.203 65.0448C41.3601 65.3131 41.585 65.5354 41.8552 65.6894C42.1253 65.8434 42.4312 65.9236 42.7421 65.9221C43.053 65.9205 43.3581 65.8373 43.6267 65.6806C43.8441 65.5514 44.0939 65.4866 44.3467 65.494Z" fill="white"/>
<path d="M45.84 23.0264H33.3734V25.693H45.84V23.0264Z" fill="white"/>
<path d="M66.6267 29.5869H33.3734V32.2536H66.6267V29.5869Z" fill="white"/>
<path d="M66.6267 33.7471H33.3734V36.4137H66.6267V33.7471Z" fill="white"/>
<path d="M66.6267 37.9072H33.3734V40.5739H66.6267V37.9072Z" fill="white"/>
<path d="M48.8534 60.4398C48.6779 60.4408 48.5039 60.4072 48.3415 60.3408C48.179 60.2745 48.0313 60.1767 47.9067 60.0531L45.6667 57.8131L47.56 55.9998L48.8934 57.3331L52.4267 53.7998L54.3067 55.6798L49.8 59.9998C49.6799 60.133 49.5342 60.2407 49.3715 60.3163C49.2089 60.3919 49.0326 60.4339 48.8534 60.4398Z" fill="white"/>
<path d="M49.9734 66.04C48.1585 66.0427 46.3836 65.5069 44.8733 64.5005C43.363 63.4941 42.1852 62.0624 41.4888 60.3864C40.7924 58.7104 40.6089 56.8656 40.9613 55.0852C41.3138 53.3049 42.1864 51.6691 43.4688 50.3849C44.7512 49.1006 46.3857 48.2256 48.1655 47.8706C49.9453 47.5156 51.7904 47.6965 53.4674 48.3904C55.1444 49.0843 56.5779 50.26 57.5864 51.7689C58.595 53.2777 59.1333 55.0518 59.1334 56.8667C59.1334 59.2973 58.1687 61.6286 56.4513 63.3485C54.7338 65.0685 52.404 66.0365 49.9734 66.04ZM49.9734 50.3734C48.6853 50.3707 47.4255 50.7504 46.3534 51.4644C45.2814 52.1783 44.4453 53.1944 43.9512 54.3839C43.4571 55.5733 43.3271 56.8827 43.5777 58.1461C43.8284 59.4095 44.4483 60.5701 45.3591 61.4809C46.2699 62.3917 47.4305 63.0117 48.6939 63.2623C49.9573 63.5129 51.2667 63.383 52.4562 62.8888C53.6457 62.3947 54.6617 61.5587 55.3757 60.4866C56.0896 59.4146 56.4693 58.1547 56.4667 56.8667C56.4632 55.1456 55.7779 53.4961 54.5609 52.2791C53.344 51.0621 51.6944 50.3769 49.9734 50.3734Z" fill="white"/>
</g>
<defs>
<linearGradient id="paint0_linear_2385_8447" x1="-20.7107" y1="120.707" x2="120.711" y2="-20.7147" gradientUnits="userSpaceOnUse">
<stop stop-color="#B0084D"/>
<stop offset="1" stop-color="#FF4F8B"/>
</linearGradient>
<clipPath id="clip0_2385_8447">
<rect width="100" height="100" fill="white"/>
</clipPath>
</defs>
</svg>
