<svg width="100" height="100" viewBox="0 0 100 100" fill="none" xmlns="http://www.w3.org/2000/svg">
<path d="M58 96H40C39.7273 96.0017 39.457 95.9476 39.2059 95.841C38.9549 95.7343 38.7282 95.5775 38.54 95.38C38.352 95.1804 38.207 94.9442 38.1141 94.6862C38.0212 94.4281 37.9824 94.1537 38 93.88L38.34 88.1C35.0042 87.174 31.7988 85.83 28.8 84.1L25 88.48C24.8176 88.6823 24.5958 88.8452 24.3482 88.9587C24.1005 89.0722 23.8324 89.1339 23.56 89.14C23.0102 89.146 22.4795 88.938 22.08 88.56L9.44004 76C9.24733 75.8061 9.09644 75.5747 8.99669 75.3201C8.89693 75.0656 8.85042 74.7933 8.86004 74.52C8.86619 74.2477 8.92791 73.9795 9.0414 73.7319C9.15489 73.4843 9.31777 73.2625 9.52004 73.08L13.86 69.22C12.1634 66.1935 10.8659 62.9599 10 59.6L4.12004 60C3.84748 60.0164 3.57445 59.9768 3.31777 59.8837C3.06109 59.7905 2.82621 59.6458 2.62759 59.4584C2.42898 59.2711 2.27083 59.045 2.1629 58.7942C2.05497 58.5434 1.99955 58.2731 2.00004 58V40C1.99835 39.7273 2.05249 39.457 2.15911 39.2059C2.26573 38.9549 2.42259 38.7283 2.62004 38.54C2.81968 38.352 3.05586 38.207 3.31391 38.1141C3.57195 38.0212 3.84635 37.9824 4.12004 38L10 38.4C10.9164 35.0672 12.261 31.8672 14 28.88L9.52004 25C9.31777 24.8176 9.15489 24.5958 9.0414 24.3482C8.92791 24.1005 8.86619 23.8324 8.86004 23.56C8.83904 23.2736 8.87998 22.986 8.98006 22.7168C9.08014 22.4477 9.23702 22.2032 9.44004 22L22 9.44004C22.3995 9.06207 22.9302 8.8541 23.48 8.86004C23.7524 8.86619 24.0205 8.92791 24.2682 9.0414C24.5158 9.15489 24.7376 9.31777 24.92 9.52004L28.8 13.88C31.8184 12.1762 35.0454 10.872 38.4 10L38 4.12004C37.9824 3.84635 38.0212 3.57195 38.1141 3.31391C38.207 3.05586 38.352 2.81968 38.54 2.62004C38.7282 2.42259 38.9549 2.26573 39.2059 2.15911C39.457 2.05249 39.7273 1.99835 40 2.00004H58C58.2728 1.99835 58.543 2.05249 58.7941 2.15911C59.0452 2.26573 59.2718 2.42259 59.46 2.62004C59.6481 2.81968 59.7931 3.05586 59.886 3.31391C59.9788 3.57195 60.0177 3.84635 60 4.12004L59.6 10C62.9215 10.9308 66.1131 12.2746 69.1 14L73.1 9.64004C73.2871 9.44022 73.5132 9.28092 73.7644 9.17202C74.0155 9.06312 74.2863 9.00693 74.56 9.00693C74.8338 9.00693 75.1046 9.06312 75.3557 9.17202C75.6068 9.28092 75.833 9.44022 76.02 9.64004L88.56 22C88.7527 22.194 88.9036 22.4254 89.0034 22.6799C89.1031 22.9345 89.1497 23.2068 89.14 23.48C89.1339 23.7524 89.0722 24.0205 88.9587 24.2682C88.8452 24.5158 88.6823 24.7376 88.48 24.92L84.12 28.8C85.8498 31.7918 87.1939 34.9906 88.12 38.32L93.92 37.98C94.1937 37.9624 94.4681 38.0012 94.7262 38.0941C94.9842 38.187 95.2204 38.332 95.42 38.52C95.6127 38.714 95.7636 38.9454 95.8634 39.1999C95.9631 39.4545 96.0097 39.7268 96 40V58C96.0017 58.2728 95.9476 58.5431 95.841 58.7941C95.7343 59.0452 95.5775 59.2718 95.38 59.46C95.1804 59.6481 94.9442 59.7931 94.6862 59.886C94.4281 59.9789 94.1537 60.0177 93.88 60L88 59.6C87.0798 62.9379 85.7355 66.144 84 69.14L88.34 73C88.5423 73.1825 88.7052 73.4043 88.8187 73.6519C88.9322 73.8995 88.9939 74.1677 89 74.44C89.0097 74.7133 88.9631 74.9856 88.8634 75.2401C88.7636 75.4947 88.6127 75.7261 88.42 75.92L76 88.56C75.5932 88.9262 75.0673 89.1323 74.52 89.14C74.2477 89.1339 73.9795 89.0722 73.7319 88.9587C73.4843 88.8452 73.2625 88.6823 73.08 88.48L69.22 84.14C66.2295 85.8866 63.0219 87.2316 59.68 88.14L60 93.88C60.0177 94.1537 59.9788 94.4281 59.886 94.6862C59.7931 94.9442 59.6481 95.1804 59.46 95.38C59.2718 95.5775 59.0452 95.7343 58.7941 95.841C58.543 95.9476 58.2728 96.0017 58 96ZM42.24 92H55.88L55.58 86.66C55.5687 86.1977 55.718 85.7458 56.0024 85.3811C56.2869 85.0165 56.6889 84.7616 57.14 84.66C61.178 83.7573 65.0285 82.1602 68.52 79.94C68.9203 79.6874 69.3973 79.5849 69.866 79.6508C70.3348 79.7167 70.7649 79.9468 71.08 80.3L74.64 84.3L84.3 74.64L80.3 71.08C79.9468 70.7649 79.7167 70.3348 79.6508 69.866C79.5849 69.3973 79.6874 68.9203 79.94 68.52C82.1422 65.0215 83.7317 61.173 84.64 57.14C84.7416 56.6889 84.9965 56.2869 85.3611 56.0024C85.7258 55.718 86.1777 55.5687 86.64 55.58L92 55.88V42.18L86.64 42.48C86.1777 42.4913 85.7258 42.3421 85.3611 42.0576C84.9965 41.7732 84.7416 41.3712 84.64 40.92C83.7301 36.8906 82.1335 33.0479 79.92 29.56C79.6674 29.1597 79.5649 28.6828 79.6308 28.2141C79.6967 27.7453 79.9268 27.3151 80.28 27L84.28 23.42L74.58 13.76L71 17.76C70.6839 18.1184 70.2499 18.3516 69.7767 18.4177C69.3034 18.4837 68.8222 18.3781 68.42 18.12C64.9314 15.9265 61.0976 14.3375 57.08 13.42C56.6289 13.3184 56.2269 13.0636 55.9424 12.699C55.658 12.3343 55.5087 11.8824 55.52 11.42L55.82 6.00004H42.18L42.48 11.38C42.4913 11.8424 42.3421 12.2943 42.0576 12.659C41.7732 13.0236 41.3712 13.2784 40.92 13.38C36.8895 14.2761 33.0455 15.8664 29.56 18.08C29.1597 18.3327 28.6828 18.4352 28.2141 18.3692C27.7453 18.3033 27.3151 18.0733 27 17.72L23.42 13.72L13.76 23.42L17.76 27C18.1133 27.3151 18.3433 27.7453 18.4092 28.2141C18.4752 28.6828 18.3727 29.1597 18.12 29.56C15.915 33.0522 14.319 36.8935 13.4 40.92C13.2984 41.3712 13.0436 41.7732 12.679 42.0576C12.3143 42.3421 11.8624 42.4913 11.4 42.48L6.00004 42.18V55.82L11.34 55.52C11.8024 55.5087 12.2543 55.658 12.619 55.9424C12.9836 56.2269 13.2384 56.6289 13.34 57.08C14.2358 61.1169 15.8261 64.9675 18.04 68.46C18.2927 68.8603 18.3952 69.3373 18.3292 69.806C18.2633 70.2748 18.0333 70.7049 17.68 71.02L13.68 74.58L23.34 84.24L26.9 80.24C27.2151 79.8868 27.6453 79.6567 28.1141 79.5908C28.5828 79.5249 29.0597 79.6274 29.46 79.88C32.9576 82.0886 36.8061 83.6847 40.84 84.6C41.2912 84.7016 41.6932 84.9565 41.9776 85.3211C42.2621 85.6858 42.4113 86.1377 42.4 86.6L42.24 92Z" fill="#CD2264"/>
<path d="M49.14 72.56C43.8496 72.5835 38.7067 70.8182 34.546 67.5506C30.3853 64.2831 27.4512 59.7051 26.22 54.56L30.22 53.64C31.2594 57.9661 33.7425 61.8085 37.2598 64.5333C40.777 67.2581 45.118 68.7023 49.5666 68.6278C54.0151 68.5532 58.3053 66.9643 61.7292 64.1231C65.1532 61.282 67.5062 57.3585 68.4 53L72.4 53.8C71.2796 59.129 68.3524 63.9072 64.1137 67.3258C59.8751 70.7444 54.5854 72.5935 49.14 72.56Z" fill="#CD2264"/>
<path d="M30 45.0802L26 44.2802C27.0622 39.1275 29.8171 34.478 33.8264 31.0714C37.8356 27.6649 42.869 25.697 48.1256 25.4809C53.3823 25.2647 58.5602 26.8127 62.8356 29.8786C67.111 32.9445 70.2383 37.3521 71.72 42.4002L68 43.5202C66.7823 39.3115 64.1883 35.6328 60.6328 33.0726C57.0773 30.5124 52.7659 29.2187 48.3882 29.3984C44.0106 29.5781 39.8197 31.2209 36.4861 34.0639C33.1524 36.9069 30.8686 40.7859 30 45.0802Z" fill="#CD2264"/>
<path d="M61.46 40.2409L62.22 38.7809L69.42 42.4209L72.54 34.9609L74.06 35.6009L70.26 44.6809L61.46 40.2409Z" fill="#CD2264"/>
<path d="M26.66 68.0992L22.66 67.2792L25.54 53.5192C25.6551 53.0109 25.9641 52.5676 26.4012 52.2837C26.8382 51.9998 27.3688 51.8977 27.88 51.9992L42.26 54.2592L41.64 58.2592L29.14 56.2592L26.66 68.0992Z" fill="#CD2264"/>
<path d="M70.68 46.6797C70.4051 46.6819 70.1328 46.6274 69.88 46.5197L56.58 40.5197L58.22 36.8597L69.76 41.9997L75.28 31.1797L78.84 32.9997L72.48 45.5997C72.3095 45.9288 72.0509 46.2041 71.733 46.3948C71.4152 46.5855 71.0506 46.6842 70.68 46.6797Z" fill="#CD2264"/>
</svg>
