<svg width="100" height="100" viewBox="0 0 100 100" fill="none" xmlns="http://www.w3.org/2000/svg">
<path d="M48.12 76.38H5C4.46957 76.38 3.96086 76.1693 3.58579 75.7942C3.21071 75.4191 3 74.9104 3 74.38V5C3 4.46957 3.21071 3.96086 3.58579 3.58579C3.96086 3.21071 4.46957 3 5 3H61.24C61.7704 3 62.2791 3.21071 62.6542 3.58579C63.0293 3.96086 63.24 4.46957 63.24 5V42.5H59.24V7H7V72.38H48.12V76.38Z" fill="#CD2264"/>
<path d="M55.62 18H31.24V22H55.62V18Z" fill="#CD2264"/>
<path d="M55.62 38.6191H31.24V42.6191H55.62V38.6191Z" fill="#CD2264"/>
<path d="M42.5 57.3809H31.24V61.3809H42.5V57.3809Z" fill="#CD2264"/>
<path d="M16.62 25.1997C16.0953 25.1975 15.5925 24.9892 15.22 24.6197L9.21997 18.6197L12 15.8397L16.38 20.1797L24 10.1797L27.18 12.5997L18.18 24.4797C18.0064 24.7064 17.7863 24.8933 17.5345 25.0278C17.2826 25.1624 17.0049 25.2414 16.72 25.2597L16.62 25.1997Z" fill="#CD2264"/>
<path d="M16.62 45.1997C16.0953 45.1975 15.5925 44.9892 15.22 44.6197L9.21997 38.6197L12 35.8397L16.38 40.1797L24 30.1797L27.18 32.5997L18.18 44.4797C18.0064 44.7064 17.7863 44.8933 17.5345 45.0278C17.2826 45.1624 17.0049 45.2414 16.72 45.2597L16.62 45.1997Z" fill="#CD2264"/>
<path d="M16.62 65.1997C16.0953 65.1975 15.5925 64.9892 15.22 64.6197L9.21997 58.6197L12 55.8397L16.38 60.1797L24 50.1797L27.18 52.5997L18.18 64.4797C18.0064 64.7064 17.7863 64.8933 17.5345 65.0278C17.2826 65.1624 17.0049 65.2414 16.72 65.2597L16.62 65.1997Z" fill="#CD2264"/>
<path d="M76.24 96.9991C75.7153 96.9969 75.2125 96.7886 74.84 96.4191L46.72 68.2791C46.3432 67.9099 46.1275 67.4067 46.12 66.8791V48.1191C46.12 47.5887 46.3307 47.08 46.7058 46.7049C47.0809 46.3299 47.5896 46.1191 48.12 46.1191H66.88C67.4075 46.1267 67.9107 46.3423 68.28 46.7191L96.42 74.8391C96.7925 75.2139 97.0016 75.7208 97.0016 76.2491C97.0016 76.7775 96.7925 77.2844 96.42 77.6591L77.66 96.4191C77.4731 96.6045 77.2515 96.7512 77.0078 96.8507C76.7641 96.9502 76.5032 97.0007 76.24 96.9991ZM50.12 65.9991L76.24 92.1791L92.24 76.1791L66 50.1191H50L50.12 65.9991Z" fill="#CD2264"/>
<path d="M56.56 61.3597C55.4563 61.3368 54.3945 60.9324 53.5551 60.2154C52.7156 59.4984 52.1502 58.513 51.9549 57.4264C51.7596 56.3398 51.9465 55.2191 52.4837 54.2547C53.0209 53.2902 53.8754 52.5415 54.9021 52.1356C55.9288 51.7297 57.0643 51.6917 58.1158 52.028C59.1673 52.3644 60.07 53.0543 60.6705 53.9807C61.271 54.9071 61.5324 56.0127 61.4101 57.1099C61.2879 58.2071 60.7897 59.2282 60 59.9997C59.0787 60.8907 57.8416 61.3798 56.56 61.3597ZM56.56 55.7397C56.4018 55.7434 56.248 55.7927 56.1172 55.8818C55.9864 55.9709 55.8842 56.0959 55.8229 56.2418C55.7616 56.3877 55.7438 56.5482 55.7717 56.704C55.7996 56.8598 55.8719 57.0042 55.98 57.1197C56.4 57.5397 56.72 57.5397 57.12 57.1197C57.1975 57.0488 57.259 56.9621 57.3004 56.8656C57.3417 56.769 57.3621 56.6648 57.36 56.5597C57.365 56.4514 57.3461 56.3433 57.3046 56.243C57.2631 56.1428 57.2001 56.0529 57.12 55.9797C57.0476 55.9042 56.9607 55.844 56.8644 55.8028C56.7682 55.7616 56.6647 55.7401 56.56 55.7397Z" fill="#CD2264"/>
</svg>
