<svg width="100" height="100" viewBox="0 0 100 100" fill="none" xmlns="http://www.w3.org/2000/svg">
<g clip-path="url(#clip0_2385_8437)">
<path d="M100 0H0V100H100V0Z" fill="url(#paint0_linear_2385_8437)"/>
<path d="M48.6666 21.3334V33.9334H51.3332V21.3334L57.5466 27.5334L59.4266 25.6534L50.9466 17.16C50.8226 17.0351 50.6752 16.9359 50.5127 16.8682C50.3502 16.8005 50.1759 16.7656 49.9999 16.7656C49.8239 16.7656 49.6496 16.8005 49.4871 16.8682C49.3247 16.9359 49.1772 17.0351 49.0532 17.16L40.5732 25.6534L42.4532 27.5334L48.6666 21.3334Z" fill="white"/>
<path d="M51.3332 78.6662V65.9062H48.6666V78.6662L42.4532 72.4529L40.5732 74.3462L49.0532 82.8262C49.1772 82.9512 49.3247 83.0504 49.4871 83.1181C49.6496 83.1858 49.8239 83.2206 49.9999 83.2206C50.1759 83.2206 50.3502 83.1858 50.5127 83.1181C50.6752 83.0504 50.8226 82.9512 50.9466 82.8262L59.4266 74.3462L57.5466 72.4529L51.3332 78.6662Z" fill="white"/>
<path d="M25.0266 40.5596L23.1466 42.4529L29.3333 48.5729H16.6666V51.2396H29.4533L23.1466 57.5329L25.0266 59.4129L33.52 50.9329C33.7683 50.6831 33.9077 50.3451 33.9077 49.9929C33.9077 49.6407 33.7683 49.3027 33.52 49.0529L25.0266 40.5596Z" fill="white"/>
<path d="M83.3333 48.5729H70.7333L76.8533 42.4529L74.96 40.5596L66.48 49.0529C66.2317 49.3027 66.0923 49.6407 66.0923 49.9929C66.0923 50.3451 66.2317 50.6831 66.48 50.9329L74.96 59.4129L76.8533 57.5329L70.5467 51.2396H83.3333V48.5729Z" fill="white"/>
<path d="M61.3332 42.7333L50.6666 36.7333C50.4639 36.6163 50.234 36.5547 49.9999 36.5547C49.7659 36.5547 49.5359 36.6163 49.3332 36.7333L38.6666 42.7333C38.4606 42.8491 38.2891 43.0175 38.1696 43.2213C38.0502 43.4251 37.987 43.6571 37.9866 43.8933V55.8933C37.987 56.1296 38.0502 56.3615 38.1696 56.5653C38.2891 56.7691 38.4606 56.9376 38.6666 57.0533L49.3332 63.04C49.5271 63.1542 49.7482 63.214 49.9732 63.2133C50.1985 63.2161 50.4201 63.1561 50.6132 63.04L61.2799 57.0533C61.4859 56.9376 61.6574 56.7691 61.7768 56.5653C61.8963 56.3615 61.9595 56.1296 61.9599 55.8933V43.8933C61.965 43.6622 61.9098 43.4338 61.8 43.2304C61.6901 43.0271 61.5293 42.8558 61.3332 42.7333ZM49.9999 39.4533L57.9999 43.96L49.9999 48.6L41.9999 43.96L49.9999 39.4533ZM40.6666 46.28L48.6666 50.9067V59.5733L40.6666 55.08V46.28ZM51.3332 59.6133V50.92L59.3332 46.28V55.08L51.3332 59.6133Z" fill="white"/>
</g>
<defs>
<linearGradient id="paint0_linear_2385_8437" x1="-20.7107" y1="120.715" x2="120.711" y2="-20.7067" gradientUnits="userSpaceOnUse">
<stop stop-color="#B0084D"/>
<stop offset="1" stop-color="#FF4F8B"/>
</linearGradient>
<clipPath id="clip0_2385_8437">
<rect width="100" height="100" fill="white"/>
</clipPath>
</defs>
</svg>
