<svg width="100" height="100" viewBox="0 0 100 100" fill="none" xmlns="http://www.w3.org/2000/svg">
<path d="M27.5 29.5H5C4.46957 29.5 3.96086 29.2893 3.58579 28.9142C3.21071 28.5391 3 28.0304 3 27.5V5C3 4.46957 3.21071 3.96086 3.58579 3.58579C3.96086 3.21071 4.46957 3 5 3H27.5C28.0304 3 28.5391 3.21071 28.9142 3.58579C29.2893 3.96086 29.5 4.46957 29.5 5V27.5C29.5 28.0304 29.2893 28.5391 28.9142 28.9142C28.5391 29.2893 28.0304 29.5 27.5 29.5ZM7 25.5H25.5V7H7V25.5Z" fill="#CD2264"/>
<path d="M95 29.5H72.5C71.9696 29.5 71.4609 29.2893 71.0858 28.9142C70.7107 28.5391 70.5 28.0304 70.5 27.5V5C70.5 4.46957 70.7107 3.96086 71.0858 3.58579C71.4609 3.21071 71.9696 3 72.5 3H95C95.5304 3 96.0391 3.21071 96.4142 3.58579C96.7893 3.96086 97 4.46957 97 5V27.5C97 28.0304 96.7893 28.5391 96.4142 28.9142C96.0391 29.2893 95.5304 29.5 95 29.5ZM74.5 25.5H93V7H74.5V25.5Z" fill="#CD2264"/>
<path d="M61.24 29.5H38.74C38.2096 29.5 37.7008 29.2893 37.3258 28.9142C36.9507 28.5391 36.74 28.0304 36.74 27.5V5C36.74 4.46957 36.9507 3.96086 37.3258 3.58579C37.7008 3.21071 38.2096 3 38.74 3H61.24C61.7704 3 62.2791 3.21071 62.6542 3.58579C63.0293 3.96086 63.24 4.46957 63.24 5V27.5C63.24 28.0304 63.0293 28.5391 62.6542 28.9142C62.2791 29.2893 61.7704 29.5 61.24 29.5ZM40.74 25.5H59.24V7H40.74V25.5Z" fill="#CD2264"/>
<path d="M27.5 63.2398H5C4.46957 63.2398 3.96086 63.0291 3.58579 62.654C3.21071 62.2789 3 61.7702 3 61.2398V38.7598C3 38.2293 3.21071 37.7206 3.58579 37.3456C3.96086 36.9705 4.46957 36.7598 5 36.7598H27.5C28.0304 36.7598 28.5391 36.9705 28.9142 37.3456C29.2893 37.7206 29.5 38.2293 29.5 38.7598V61.2398C29.5 61.7702 29.2893 62.2789 28.9142 62.654C28.5391 63.0291 28.0304 63.2398 27.5 63.2398ZM7 59.2398H25.5V40.7598H7V59.2398Z" fill="#CD2264"/>
<path d="M95 63.2398H72.5C71.9696 63.2398 71.4609 63.0291 71.0858 62.654C70.7107 62.2789 70.5 61.7702 70.5 61.2398V38.7598C70.5 38.2293 70.7107 37.7206 71.0858 37.3456C71.4609 36.9705 71.9696 36.7598 72.5 36.7598H95C95.5304 36.7598 96.0391 36.9705 96.4142 37.3456C96.7893 37.7206 97 38.2293 97 38.7598V61.2398C97 61.7702 96.7893 62.2789 96.4142 62.654C96.0391 63.0291 95.5304 63.2398 95 63.2398ZM74.5 59.2398H93V40.7598H74.5V59.2398Z" fill="#CD2264"/>
<path d="M61.24 63.2398H38.74C38.2096 63.2398 37.7008 63.0291 37.3258 62.654C36.9507 62.2789 36.74 61.7702 36.74 61.2398V38.7598C36.74 38.2293 36.9507 37.7206 37.3258 37.3456C37.7008 36.9705 38.2096 36.7598 38.74 36.7598H61.24C61.7704 36.7598 62.2791 36.9705 62.6542 37.3456C63.0293 37.7206 63.24 38.2293 63.24 38.7598V61.2398C63.24 61.7702 63.0293 62.2789 62.6542 62.654C62.2791 63.0291 61.7704 63.2398 61.24 63.2398ZM40.74 59.2398H59.24V40.7598H40.74V59.2398Z" fill="#CD2264"/>
<path d="M27.5 97H5C4.46957 97 3.96086 96.7893 3.58579 96.4142C3.21071 96.0391 3 95.5304 3 95V72.5C3 71.9696 3.21071 71.4609 3.58579 71.0858C3.96086 70.7107 4.46957 70.5 5 70.5H27.5C28.0304 70.5 28.5391 70.7107 28.9142 71.0858C29.2893 71.4609 29.5 71.9696 29.5 72.5V95C29.5 95.5304 29.2893 96.0391 28.9142 96.4142C28.5391 96.7893 28.0304 97 27.5 97ZM7 93H25.5V74.5H7V93Z" fill="#CD2264"/>
<path d="M95 97H72.5C71.9696 97 71.4609 96.7893 71.0858 96.4142C70.7107 96.0391 70.5 95.5304 70.5 95V72.5C70.5 71.9696 70.7107 71.4609 71.0858 71.0858C71.4609 70.7107 71.9696 70.5 72.5 70.5H95C95.5304 70.5 96.0391 70.7107 96.4142 71.0858C96.7893 71.4609 97 71.9696 97 72.5V95C97 95.5304 96.7893 96.0391 96.4142 96.4142C96.0391 96.7893 95.5304 97 95 97ZM74.5 93H93V74.5H74.5V93Z" fill="#CD2264"/>
<path d="M61.24 97H38.74C38.2096 97 37.7008 96.7893 37.3258 96.4142C36.9507 96.0391 36.74 95.5304 36.74 95V72.5C36.74 71.9696 36.9507 71.4609 37.3258 71.0858C37.7008 70.7107 38.2096 70.5 38.74 70.5H61.24C61.7704 70.5 62.2791 70.7107 62.6542 71.0858C63.0293 71.4609 63.24 71.9696 63.24 72.5V95C63.24 95.5304 63.0293 96.0391 62.6542 96.4142C62.2791 96.7893 61.7704 97 61.24 97ZM40.74 93H59.24V74.5H40.74V93Z" fill="#CD2264"/>
</svg>
