<svg width="100" height="100" viewBox="0 0 100 100" fill="none" xmlns="http://www.w3.org/2000/svg">
<g clip-path="url(#clip0_2385_8443)">
<path d="M100 0H0V100H100V0Z" fill="url(#paint0_linear_2385_8443)"/>
<path d="M81.9999 82H72.6666V79.3333H80.6666V20.6667H19.3333V79.3333H56.6666V82H18C17.6463 82 17.3072 81.8595 17.0572 81.6095C16.8071 81.3594 16.6666 81.0203 16.6666 80.6667V19.3333C16.6666 18.9797 16.8071 18.6406 17.0572 18.3905C17.3072 18.1405 17.6463 18 18 18H81.9999C82.3536 18 82.6927 18.1405 82.9428 18.3905C83.1928 18.6406 83.3333 18.9797 83.3333 19.3333V80.6667C83.3333 81.0203 83.1928 81.3594 82.9428 81.6095C82.6927 81.8595 82.3536 82 81.9999 82Z" fill="white"/>
<path d="M82 28.667H18V31.3337H82V28.667Z" fill="white"/>
<path d="M24.6667 23.333H22V25.9997H24.6667V23.333Z" fill="white"/>
<path d="M29.9999 23.333H27.3333V25.9997H29.9999V23.333Z" fill="white"/>
<path d="M35.3333 23.333H32.6666V25.9997H35.3333V23.333Z" fill="white"/>
<path d="M32 67.7466L30.12 65.8533L41.9733 54.0133L30.12 42.1599L32 40.2666L44.8 53.0666C44.9236 53.1912 45.0213 53.3389 45.0877 53.5014C45.154 53.6638 45.1877 53.8378 45.1867 54.0133C45.1852 54.3631 45.0463 54.6983 44.8 54.9466L32 67.7466Z" fill="white"/>
<path d="M67.3333 60.667H47.3333V63.3337H67.3333V60.667Z" fill="white"/>
</g>
<defs>
<linearGradient id="paint0_linear_2385_8443" x1="-20.7067" y1="120.707" x2="120.707" y2="-20.7067" gradientUnits="userSpaceOnUse">
<stop stop-color="#B0084D"/>
<stop offset="1" stop-color="#FF4F8B"/>
</linearGradient>
<clipPath id="clip0_2385_8443">
<rect width="100" height="100" fill="white"/>
</clipPath>
</defs>
</svg>
