<svg width="100" height="100" viewBox="0 0 100 100" fill="none" xmlns="http://www.w3.org/2000/svg">
<g clip-path="url(#clip0_2385_8413)">
<path d="M100 0H0V100H100V0Z" fill="url(#paint0_linear_2385_8413)"/>
<path d="M78 65.1329C77.0602 65.1504 76.1411 65.4123 75.3333 65.8929L71.0666 60.7729C75.3563 57.4861 78.8212 53.2451 81.1866 48.3862L78.7866 47.2129C76.152 52.5874 72.0628 57.1153 66.9836 60.2821C61.9044 63.4489 56.0389 65.1276 50.0533 65.1276C44.0678 65.1276 38.2022 63.4489 33.123 60.2821C28.0438 57.1153 23.9546 52.5874 21.32 47.2129L18.92 48.3862C21.2328 53.1425 24.6033 57.3065 28.7733 60.5596L24.48 65.7196C23.7277 65.3381 22.8968 65.1372 22.0533 65.1329C20.9985 65.1329 19.9673 65.4457 19.0903 66.0317C18.2132 66.6178 17.5296 67.4507 17.1259 68.4253C16.7223 69.3998 16.6167 70.4722 16.8225 71.5067C17.0282 72.5413 17.5362 73.4916 18.2821 74.2375C19.028 74.9834 19.9783 75.4913 21.0128 75.6971C22.0474 75.9029 23.1197 75.7973 24.0943 75.3936C25.0688 74.9899 25.9018 74.3063 26.4878 73.4293C27.0738 72.5522 27.3866 71.5211 27.3866 70.4662C27.3887 69.413 27.0676 68.3845 26.4666 67.5196L30.9466 62.1862C36.158 65.5803 42.1864 67.5099 48.4 67.7729V74.6662C47.1611 75.0535 46.106 75.8792 45.4324 76.9886C44.7587 78.0981 44.5128 79.4151 44.7407 80.6929C44.9685 81.9707 45.6545 83.1216 46.6701 83.9298C47.6857 84.738 48.9612 85.1482 50.2575 85.0834C51.5538 85.0185 52.782 84.4832 53.7119 83.5777C54.6418 82.6722 55.2096 81.4587 55.3089 80.1645C55.4081 78.8704 55.032 77.5844 54.2511 76.5477C53.4701 75.511 52.3379 74.7946 51.0666 74.5329V67.7329C57.3747 67.5681 63.5153 65.6674 68.8133 62.2396L73.3333 67.7996C72.8633 68.6098 72.615 69.5295 72.6133 70.4662C72.6133 71.5211 72.9261 72.5522 73.5121 73.4293C74.0982 74.3063 74.9311 74.9899 75.9057 75.3936C76.8802 75.7973 77.9526 75.9029 78.9871 75.6971C80.0217 75.4913 80.972 74.9834 81.7179 74.2375C82.4638 73.4916 82.9717 72.5413 83.1775 71.5067C83.3833 70.4722 83.2777 69.3998 82.874 68.4253C82.4703 67.4507 81.7867 66.6178 80.9097 66.0317C80.0326 65.4457 79.0015 65.1329 77.9466 65.1329H78ZM22 73.1329C21.4726 73.1329 20.957 72.9765 20.5185 72.6835C20.0799 72.3905 19.7381 71.974 19.5363 71.4867C19.3345 70.9995 19.2817 70.4633 19.3845 69.946C19.4874 69.4287 19.7414 68.9536 20.1144 68.5806C20.4873 68.2077 20.9625 67.9537 21.4797 67.8508C21.997 67.7479 22.5332 67.8007 23.0205 68.0026C23.5077 68.2044 23.9242 68.5462 24.2172 68.9847C24.5102 69.4233 24.6666 69.9388 24.6666 70.4662C24.6666 71.1735 24.3857 71.8518 23.8856 72.3519C23.3855 72.852 22.7072 73.1329 22 73.1329ZM52.6666 79.7996C52.6666 80.327 52.5102 80.8426 52.2172 81.2811C51.9242 81.7196 51.5077 82.0614 51.0205 82.2633C50.5332 82.4651 49.997 82.5179 49.4797 82.415C48.9624 82.3121 48.4873 82.0581 48.1144 81.6852C47.7414 81.3123 47.4874 80.8371 47.3845 80.3198C47.2817 79.8025 47.3345 79.2664 47.5363 78.7791C47.7381 78.2918 48.0799 77.8753 48.5185 77.5823C48.957 77.2893 49.4726 77.1329 50 77.1329C50.7072 77.1329 51.3855 77.4139 51.8856 77.914C52.3857 78.4141 52.6666 79.0923 52.6666 79.7996ZM78 73.1329C77.4726 73.1329 76.957 72.9765 76.5184 72.6835C76.0799 72.3905 75.7381 71.974 75.5363 71.4867C75.3345 70.9995 75.2817 70.4633 75.3845 69.946C75.4874 69.4287 75.7414 68.9536 76.1143 68.5806C76.4873 68.2077 76.9624 67.9537 77.4797 67.8508C77.997 67.7479 78.5332 67.8007 79.0205 68.0026C79.5077 68.2044 79.9242 68.5462 80.2172 68.9847C80.5102 69.4233 80.6666 69.9388 80.6666 70.4662C80.6666 71.1735 80.3857 71.8518 79.8856 72.3519C79.3855 72.852 78.7072 73.1329 78 73.1329ZM67.8 21.3329L50.4666 14.9062C50.1647 14.7995 49.8353 14.7995 49.5333 14.9062L32.2 21.3329C31.9448 21.4283 31.7249 21.5995 31.57 21.8236C31.415 22.0476 31.3324 22.3138 31.3333 22.5862V41.7996C31.4366 45.3611 32.2101 48.8712 33.6133 52.1462C34.895 55.4084 37.1626 58.1893 40.1 60.1014C43.0374 62.0134 46.4982 62.9613 50 62.8129C68.4533 62.8129 68.6666 43.2262 68.6666 43.0129V22.6662C68.6845 22.3804 68.6099 22.0964 68.4538 21.8562C68.2977 21.6161 68.0685 21.4326 67.8 21.3329ZM66 42.9729C65.9042 45.9602 65.2248 48.8999 64 51.6262C61.3333 57.2529 56.6666 60.1062 50.04 60.1062C34.2666 60.1062 34.04 42.5462 34.04 41.7996V23.5462L50.04 17.6262L66.04 23.5462L66 42.9729ZM62.48 24.9329L50.48 20.2262C50.1689 20.1196 49.8311 20.1196 49.52 20.2262L37.52 24.9329C37.2694 25.0296 37.0539 25.1997 36.9016 25.421C36.7493 25.6422 36.6674 25.9043 36.6666 26.1729V43.7729C36.6601 43.8528 36.6601 43.933 36.6666 44.0129C36.7733 44.5862 39.3333 58.0129 50 58.0129C60.6666 58.0129 63.2 44.5862 63.3333 44.0129C63.3399 43.933 63.3399 43.8528 63.3333 43.7729V26.1729C63.3325 25.9043 63.2506 25.6422 63.0984 25.421C62.9461 25.1997 62.7306 25.0296 62.48 24.9329ZM48.6666 55.2262C41.7866 54.1462 39.5733 44.7729 39.3333 43.6262V27.0929L48.6666 23.4396V55.2262ZM60.6666 43.6262C60.4266 44.7729 58.24 54.1462 51.3333 55.2262V23.4396L60.6666 27.0929V43.6262Z" fill="white"/>
</g>
<defs>
<linearGradient id="paint0_linear_2385_8413" x1="-20.7067" y1="120.707" x2="120.707" y2="-20.7067" gradientUnits="userSpaceOnUse">
<stop stop-color="#B0084D"/>
<stop offset="1" stop-color="#FF4F8B"/>
</linearGradient>
<clipPath id="clip0_2385_8413">
<rect width="100" height="100" fill="white"/>
</clipPath>
</defs>
</svg>
