<svg width="100" height="100" viewBox="0 0 100 100" fill="none" xmlns="http://www.w3.org/2000/svg">
<path d="M80 95.9997H20C19.4696 95.9997 18.9609 95.789 18.5858 95.4139C18.2107 95.0388 18 94.5301 18 93.9997V47.1797C18.0022 46.655 18.2105 46.1522 18.58 45.7797C18.7652 45.5907 18.9861 45.4404 19.2299 45.3374C19.4736 45.2344 19.7354 45.1808 20 45.1797H80C80.5304 45.1797 81.0391 45.3904 81.4142 45.7655C81.7893 46.1405 82 46.6493 82 47.1797V93.9997C82 94.5301 81.7893 95.0388 81.4142 95.4139C81.0391 95.789 80.5304 95.9997 80 95.9997ZM22 91.9997H78V49.2197H22V91.9997Z" fill="#CD2264"/>
<path d="M50 71.3402C48.8931 71.395 47.7866 71.2243 46.7477 70.8384C45.7088 70.4526 44.7591 69.8596 43.9563 69.0956C43.1535 68.3316 42.5143 67.4124 42.0776 66.3938C41.6409 65.3752 41.4156 64.2785 41.4156 63.1702C41.4156 62.062 41.6409 60.9653 42.0776 59.9467C42.5143 58.9281 43.1535 58.0089 43.9563 57.2449C44.7591 56.4808 45.7088 55.8879 46.7477 55.502C47.7866 55.1162 48.8931 54.9455 50 55.0002C51.0733 54.9976 52.1365 55.2067 53.1288 55.6156C54.1212 56.0245 55.0231 56.6252 55.7829 57.3832C56.5428 58.1412 57.1456 59.0416 57.5569 60.0329C57.9683 61.0242 58.18 62.087 58.18 63.1602C58.1734 65.328 57.3108 67.4054 55.78 68.9402C55.0226 69.7019 54.1219 70.306 53.1299 70.7179C52.1379 71.1298 51.0741 71.3413 50 71.3402ZM50 59.0002C49.4549 58.9958 48.9144 59.0996 48.4097 59.3056C47.9051 59.5116 47.4463 59.8157 47.06 60.2002C46.4749 60.7836 46.0758 61.5274 45.9132 62.3375C45.7505 63.1476 45.8316 63.9877 46.1462 64.7518C46.4608 65.5158 46.9948 66.1695 47.6807 66.6302C48.3667 67.0909 49.1737 67.338 50 67.3402C51.0991 67.3206 52.1499 66.8846 52.94 66.1202C53.3333 65.7342 53.6456 65.2736 53.8585 64.7653C54.0714 64.257 54.1807 63.7113 54.18 63.1602C54.18 62.6123 54.0717 62.0697 53.8614 61.5636C53.6511 61.0576 53.3429 60.5981 52.9545 60.2116C52.5661 59.825 52.1051 59.519 51.5981 59.3111C51.0911 59.1033 50.548 58.9976 50 59.0002Z" fill="#CD2264"/>
<path d="M52 69.5605H48V81.9806H52V69.5605Z" fill="#CD2264"/>
<path d="M70.6199 46.28H66.6199V24.56C66.6147 20.1766 64.8738 15.9736 61.778 12.8703C58.6821 9.76697 54.4834 8.0159 50.0999 8.00004C45.7145 7.98398 41.501 9.70392 38.3795 12.7842C35.258 15.8645 33.4822 20.0548 33.4399 24.44V46.3H29.4399V24.44C29.4821 19.0113 31.6656 13.8186 35.5156 9.99103C39.3657 6.16345 44.571 4.01042 49.9999 4.00004C52.7042 3.99478 55.383 4.52256 57.8832 5.55319C60.3834 6.58383 62.656 8.09712 64.571 10.0066C66.486 11.916 68.0059 14.1841 69.0438 16.6813C70.0817 19.1785 70.6173 21.8557 70.6199 24.56V46.28Z" fill="#CD2264"/>
</svg>
