<svg width="100" height="100" viewBox="0 0 100 100" fill="none" xmlns="http://www.w3.org/2000/svg">
<g clip-path="url(#clip0_2385_8442)">
<path d="M100 0H0V100H100V0Z" fill="url(#paint0_linear_2385_8442)"/>
<path d="M73.9734 46.6664C73.9614 45.0439 73.4563 43.4633 72.5252 42.1345C71.5941 40.8058 70.281 39.7915 68.76 39.2264C67.61 38.8451 66.3848 38.7478 65.1891 38.9428C63.9933 39.1378 62.8626 39.6194 61.8934 40.3464C61.0239 38.4509 59.8228 36.726 58.3467 35.253C56.0866 32.9301 53.1715 31.3522 49.9907 30.7304C46.81 30.1085 43.5152 30.4723 40.5467 31.773C37.7813 33.0623 35.4332 35.1015 33.7691 37.6588C32.1051 40.2162 31.1919 43.1891 31.1334 46.2397V46.9597C29.5123 47.4487 28.0256 48.3044 26.7886 49.4605C25.5516 50.6166 24.5974 52.042 24 53.6264H26.9067C27.5183 52.5006 28.3666 51.5207 29.3931 50.7543C30.4197 49.9878 31.6002 49.4529 32.8533 49.1864C33.1467 49.1108 33.4056 48.9375 33.5874 48.6952C33.7691 48.4528 33.8629 48.1558 33.8533 47.853L33.7467 46.1597C33.8291 43.6504 34.5972 41.2116 35.9675 39.1079C37.3378 37.0042 39.2581 35.316 41.52 34.2264C44.0095 33.1365 46.7726 32.8334 49.4392 33.3577C52.1057 33.882 54.5484 35.2085 56.44 37.1597C58.1047 38.8453 59.3632 40.8881 60.12 43.133C60.2024 43.3607 60.3452 43.5617 60.5331 43.7144C60.721 43.8671 60.947 43.9657 61.1867 43.9997C61.423 44.0331 61.664 44.0025 61.8844 43.911C62.1049 43.8196 62.2968 43.6706 62.44 43.4797C63.0482 42.658 63.9002 42.0494 64.8747 41.7405C65.8492 41.4316 66.8963 41.4384 67.8667 41.7597C70.0667 42.493 71.32 44.6397 71.32 47.5464C71.266 47.8925 71.3504 48.2461 71.555 48.5306C71.7596 48.815 72.068 49.0075 72.4134 49.0664C74.8667 49.493 80.6 51.1997 80.6 57.9997C80.6 66.1197 72.6 66.973 72.36 66.9997H44.6934V69.6664H72.5334C76.2667 69.333 83.3067 66.4664 83.3067 57.9997C83.3067 51.2397 78.6667 47.7597 73.9734 46.6664ZM19.3067 69.6664H16.64V66.9997H19.3067V69.6664ZM31.3067 69.6664H21.9733V66.9997H31.3067V69.6664ZM41.9734 69.6664H33.9734V66.9997H41.9734V69.6664ZM29.9733 64.333H17.9733V61.6664H29.9733V64.333ZM55.3067 64.333H39.3067V61.6664H55.3067V64.333ZM41.9734 58.9997H33.9734V56.333H41.9734V58.9997ZM31.3067 58.9997H20.64V56.333H31.3067V58.9997ZM36.64 64.333H32.64V61.6664H36.64V64.333Z" fill="white"/>
</g>
<defs>
<linearGradient id="paint0_linear_2385_8442" x1="-20.7067" y1="120.707" x2="120.707" y2="-20.7067" gradientUnits="userSpaceOnUse">
<stop stop-color="#B0084D"/>
<stop offset="1" stop-color="#FF4F8B"/>
</linearGradient>
<clipPath id="clip0_2385_8442">
<rect width="100" height="100" fill="white"/>
</clipPath>
</defs>
</svg>
