<svg width="100" height="100" viewBox="0 0 100 100" fill="none" xmlns="http://www.w3.org/2000/svg">
<path d="M84.1 97.0004H16C14.2976 97.0136 12.6094 96.6897 11.0327 96.0473C9.45603 95.4049 8.02212 94.4568 6.81363 93.2576C5.60515 92.0584 4.64599 90.6319 3.99146 89.0602C3.33693 87.4886 2.99997 85.8029 3.00002 84.1004V16.0004C2.98671 14.2895 3.31387 12.593 3.96247 11.0098C4.61106 9.42655 5.56813 7.98815 6.77796 6.77832C7.98778 5.5685 9.42618 4.61143 11.0094 3.96284C12.5927 3.31424 14.2891 2.98708 16 3.00039H84.2C85.8941 3.01347 87.569 3.36011 89.1291 4.02051C90.6892 4.68091 92.1039 5.64214 93.2925 6.84931C94.4811 8.05648 95.4203 9.48596 96.0564 11.0561C96.6926 12.6263 97.0132 14.3063 97 16.0004V84.2004C96.9736 87.6043 95.6029 90.8599 93.1865 93.2575C90.7702 95.6551 87.5041 97.0005 84.1 97.0004ZM16 7.00039C14.8152 6.98972 13.64 7.21522 12.5433 7.66373C11.4465 8.11224 10.4501 8.77477 9.61227 9.61264C8.77441 10.4505 8.11188 11.4469 7.66336 12.5437C7.21485 13.6404 6.98935 14.8155 7.00002 16.0004V84.2004C7.03166 86.5592 7.99639 88.8094 9.68309 90.4586C11.3698 92.1078 13.6411 93.0218 16 93.0004H84.2C86.5588 92.9951 88.8195 92.0557 90.4874 90.3878C92.1554 88.7199 93.0947 86.4592 93.1 84.1004V16.0004C93.1107 14.8155 92.8852 13.6404 92.4367 12.5437C91.9882 11.4469 91.3256 10.4505 90.4878 9.61264C89.6499 8.77477 88.6535 8.11224 87.5568 7.66373C86.46 7.21522 85.2849 6.98972 84.1 7.00039H16Z" fill="#CD2264"/>
<path d="M82.82 25.7593C81.494 25.7633 80.1967 25.3737 79.0922 24.6399C77.9878 23.9061 77.1259 22.8611 76.6157 21.6372C76.1056 20.4133 75.97 19.0655 76.2263 17.7645C76.4825 16.4636 77.1191 15.2679 78.0553 14.3288C78.9915 13.3898 80.1853 12.7497 81.4855 12.4896C82.7857 12.2294 84.1339 12.361 85.3593 12.8675C86.5847 13.374 87.6323 14.2327 88.3694 15.335C89.1065 16.4372 89.5 17.7334 89.5 19.0593C89.5 20.8328 88.7968 22.534 87.5447 23.7899C86.2925 25.0458 84.5935 25.7541 82.82 25.7593ZM82.82 16.3793C82.2843 16.3754 81.7595 16.5309 81.3125 16.826C80.8654 17.1212 80.5162 17.5427 80.3094 18.0368C80.1026 18.531 80.0474 19.0755 80.151 19.6011C80.2545 20.1267 80.5121 20.6097 80.8909 20.9885C81.2697 21.3673 81.7526 21.6248 82.2782 21.7284C82.8038 21.8319 83.3483 21.7768 83.8425 21.5699C84.3367 21.3631 84.7581 21.0139 85.0533 20.5669C85.3484 20.1198 85.5039 19.595 85.5 19.0593C85.4947 18.3502 85.2107 17.6716 84.7092 17.1701C84.2078 16.6686 83.5291 16.3846 82.82 16.3793Z" fill="#CD2264"/>
<path d="M66 25.7593C64.6741 25.7633 63.3767 25.3737 62.2723 24.6399C61.1678 23.9061 60.306 22.8611 59.7958 21.6372C59.2856 20.4133 59.1501 19.0655 59.4063 17.7645C59.6626 16.4636 60.2991 15.2679 61.2353 14.3288C62.1716 13.3898 63.3653 12.7497 64.6656 12.4896C65.9658 12.2294 67.3139 12.361 68.5394 12.8675C69.7648 13.374 70.8124 14.2327 71.5495 15.335C72.2866 16.4372 72.68 17.7334 72.68 19.0593C72.68 20.8328 71.9769 22.534 70.7247 23.7899C69.4726 25.0458 67.7735 25.7541 66 25.7593ZM66 16.3793C65.4643 16.3754 64.9396 16.5309 64.4925 16.826C64.0455 17.1212 63.6963 17.5427 63.4895 18.0368C63.2826 18.531 63.2275 19.0755 63.331 19.6011C63.4346 20.1267 63.6921 20.6097 64.0709 20.9885C64.4497 21.3673 64.9326 21.6248 65.4582 21.7284C65.9839 21.8319 66.5284 21.7768 67.0225 21.5699C67.5167 21.3631 67.9382 21.0139 68.2333 20.5669C68.5285 20.1198 68.684 19.595 68.68 19.0593C68.6748 18.3502 68.3908 17.6716 67.8893 17.1701C67.3878 16.6686 66.7092 16.3846 66 16.3793Z" fill="#CD2264"/>
<path d="M53.76 25.7602H14.38C13.8496 25.7602 13.3409 25.5495 12.9658 25.1744C12.5907 24.7994 12.38 24.2907 12.38 23.7602V16.2402C12.38 15.7098 12.5907 15.2011 12.9658 14.826C13.3409 14.4509 13.8496 14.2402 14.38 14.2402H53.76C54.2904 14.2402 54.7991 14.4509 55.1742 14.826C55.5493 15.2011 55.76 15.7098 55.76 16.2402V23.7602C55.76 24.2907 55.5493 24.7994 55.1742 25.1744C54.7991 25.5495 54.2904 25.7602 53.76 25.7602ZM16.38 21.7602H51.76V18.2402H16.38V21.7602Z" fill="#CD2264"/>
<path d="M33.12 87.6202H10.62C10.0896 87.6202 9.58085 87.4095 9.20578 87.0344C8.83071 86.6594 8.62 86.1507 8.62 85.6202V61.2402C8.62 60.7098 8.83071 60.2011 9.20578 59.826C9.58085 59.4509 10.0896 59.2402 10.62 59.2402H33.12C33.6504 59.2402 34.1591 59.4509 34.5342 59.826C34.9093 60.2011 35.12 60.7098 35.12 61.2402V85.6202C35.12 86.1507 34.9093 86.6594 34.5342 87.0344C34.1591 87.4095 33.6504 87.6202 33.12 87.6202ZM12.62 83.6202H31.12V63.2402H12.62V83.6202Z" fill="#CD2264"/>
<path d="M61.24 87.6198H38.76C38.2296 87.6198 37.7209 87.4091 37.3458 87.034C36.9707 86.6589 36.76 86.1502 36.76 85.6198V38.7598C36.76 38.2293 36.9707 37.7206 37.3458 37.3456C37.7209 36.9705 38.2296 36.7598 38.76 36.7598H61.24C61.7704 36.7598 62.2792 36.9705 62.6542 37.3456C63.0293 37.7206 63.24 38.2293 63.24 38.7598V85.6198C63.24 86.1502 63.0293 86.6589 62.6542 87.034C62.2792 87.4091 61.7704 87.6198 61.24 87.6198ZM40.76 83.6198H59.24V40.7598H40.76V83.6198Z" fill="#CD2264"/>
<path d="M89.38 87.6202H66.88C66.3496 87.6202 65.8409 87.4095 65.4658 87.0344C65.0907 86.6594 64.88 86.1507 64.88 85.6202V46.2402C64.88 45.7098 65.0907 45.2011 65.4658 44.826C65.8409 44.4509 66.3496 44.2402 66.88 44.2402H89.38C89.9104 44.2402 90.4191 44.4509 90.7942 44.826C91.1693 45.2011 91.38 45.7098 91.38 46.2402V85.6202C91.38 86.1507 91.1693 86.6594 90.7942 87.0344C90.4191 87.4095 89.9104 87.6202 89.38 87.6202ZM68.88 83.6202H87.38V48.2402H68.88V83.6202Z" fill="#CD2264"/>
<path d="M21.88 80.1198C20.5588 80.1198 19.2673 79.728 18.1687 78.994C17.0702 78.26 16.214 77.2167 15.7084 75.9961C15.2028 74.7755 15.0706 73.4324 15.3283 72.1366C15.5861 70.8408 16.2223 69.6505 17.1565 68.7163C18.0907 67.7821 19.281 67.1459 20.5768 66.8881C21.8725 66.6304 23.2157 66.7627 24.4363 67.2683C25.6569 67.7739 26.7002 68.63 27.4342 69.7286C28.1682 70.8271 28.56 72.1186 28.56 73.4398C28.5547 75.2098 27.8492 76.9058 26.5976 78.1574C25.346 79.409 23.65 80.1145 21.88 80.1198ZM21.88 70.7598C21.3499 70.7598 20.8318 70.917 20.391 71.2114C19.9503 71.5059 19.6068 71.9245 19.404 72.4142C19.2011 72.9039 19.148 73.4427 19.2515 73.9626C19.3549 74.4825 19.6101 74.96 19.9849 75.3348C20.3597 75.7096 20.8372 75.9649 21.3571 76.0683C21.877 76.1717 22.4158 76.1186 22.9055 75.9158C23.3953 75.7129 23.8138 75.3694 24.1083 74.9287C24.4028 74.488 24.56 73.9698 24.56 73.4398C24.5547 72.7306 24.2707 72.052 23.7692 71.5505C23.2677 71.049 22.5891 70.765 21.88 70.7598Z" fill="#CD2264"/>
<path d="M55.62 80.1197H44.38C44.027 80.1196 43.6803 80.0261 43.3751 79.8487C43.07 79.6712 42.8172 79.4162 42.6425 79.1094C42.4678 78.8027 42.3774 78.4552 42.3804 78.1022C42.3835 77.7492 42.48 77.4033 42.66 77.0996L48.28 67.7197C48.4571 67.4212 48.7088 67.174 49.0104 67.0023C49.3119 66.8305 49.653 66.7402 50 66.7402C50.3471 66.7402 50.6881 66.8305 50.9897 67.0023C51.2912 67.174 51.5429 67.4212 51.72 67.7197L57.34 77.0996C57.5201 77.4033 57.6165 77.7492 57.6196 78.1022C57.6227 78.4552 57.5323 78.8027 57.3576 79.1094C57.1829 79.4162 56.9301 79.6712 56.6249 79.8487C56.3197 80.0261 55.973 80.1196 55.62 80.1197ZM47.9 76.1197H52.1L50 72.6396L47.9 76.1197Z" fill="#CD2264"/>
<path d="M83.76 80.1209H72.5C71.9696 80.1209 71.4609 79.9101 71.0858 79.5351C70.7107 79.16 70.5 78.6513 70.5 78.1209V66.8809C70.5 66.3504 70.7107 65.8417 71.0858 65.4667C71.4609 65.0916 71.9696 64.8809 72.5 64.8809H83.76C84.2904 64.8809 84.7991 65.0916 85.1742 65.4667C85.5493 65.8417 85.76 66.3504 85.76 66.8809V78.1209C85.76 78.3835 85.7083 78.6436 85.6078 78.8862C85.5072 79.1289 85.3599 79.3494 85.1742 79.5351C84.9885 79.7208 84.768 79.8681 84.5254 79.9686C84.2827 80.0691 84.0226 80.1209 83.76 80.1209ZM74.5 76.1209H81.76V68.8809H74.5V76.1209Z" fill="#CD2264"/>
</svg>
