<svg width="100" height="100" viewBox="0 0 100 100" fill="none" xmlns="http://www.w3.org/2000/svg">
<path d="M27.5 97.9995C27.2367 98.0011 26.9758 97.9506 26.7321 97.8511C26.4885 97.7515 26.2668 97.6049 26.08 97.4195L11.08 82.4195L14 79.5195L27.58 93.0995L41.16 79.5195L44 82.3595L29 97.3595C28.8089 97.5656 28.5766 97.7291 28.3182 97.8394C28.0597 97.9496 27.7809 98.0042 27.5 97.9995Z" fill="#CD2264"/>
<path d="M72.5 97.9995C72.2368 98.0011 71.9759 97.9506 71.7322 97.8511C71.4885 97.7515 71.2669 97.6049 71.08 97.4195L56 82.3595L58.84 79.5195L72.42 93.0995L86 79.5195L88.84 82.3595L74 97.3595C73.809 97.5656 73.5767 97.7291 73.3182 97.8394C73.0597 97.9496 72.781 98.0042 72.5 97.9995Z" fill="#CD2264"/>
<path d="M29.5 96H25.5V55.22C25.5085 54.31 25.741 53.4161 26.177 52.6172C26.6131 51.8184 27.2392 51.1393 28 50.64L48 37.14V4H52V38.2C52.0005 38.5276 51.9205 38.8503 51.7671 39.1398C51.6136 39.4292 51.3914 39.6765 51.12 39.86L30.22 54C30.0032 54.132 29.8234 54.3168 29.6975 54.5371C29.5716 54.7575 29.5036 55.0062 29.5 55.26V96Z" fill="#CD2264"/>
<path d="M74.5 96.0006H70.5V55.2206C70.4964 54.9668 70.4284 54.7181 70.3025 54.4978C70.1766 54.2774 69.9968 54.0926 69.78 53.9606L48.88 39.9606L51.12 36.6406L72 50.6406C72.7571 51.1423 73.3793 51.8224 73.8118 52.621C74.2442 53.4197 74.4737 54.3124 74.48 55.2206L74.5 96.0006Z" fill="#CD2264"/>
</svg>
