<svg width="100" height="100" viewBox="0 0 100 100" fill="none" xmlns="http://www.w3.org/2000/svg">
<path d="M46.24 76.38H5C4.46957 76.38 3.96086 76.1693 3.58579 75.7942C3.21071 75.4191 3 74.9104 3 74.38V5C3 4.46957 3.21071 3.96086 3.58579 3.58579C3.96086 3.21071 4.46957 3 5 3H61.24C61.7704 3 62.2791 3.21071 62.6542 3.58579C63.0293 3.96086 63.24 4.46957 63.24 5V46.24H59.24V7H7V72.38H46.24V76.38Z" fill="#CD2264"/>
<path d="M55.62 18H31.24V22H55.62V18Z" fill="#CD2264"/>
<path d="M55.62 38.6191H31.24V42.6191H55.62V38.6191Z" fill="#CD2264"/>
<path d="M46.24 57.3809H31.24V61.3809H46.24V57.3809Z" fill="#CD2264"/>
<path d="M16.62 25.1997C16.0953 25.1975 15.5925 24.9892 15.22 24.6197L9.21997 18.6197L12 15.8397L16.38 20.1797L24 10.1797L27.18 12.5997L18.18 24.4797C18.0064 24.7064 17.7863 24.8933 17.5345 25.0278C17.2826 25.1624 17.0049 25.2414 16.72 25.2597L16.62 25.1997Z" fill="#CD2264"/>
<path d="M16.62 45.1997C16.0953 45.1975 15.5925 44.9892 15.22 44.6197L9.21997 38.6197L12 35.8397L16.38 40.1797L24 30.1797L27.18 32.5997L18.18 44.4797C18.0064 44.7064 17.7863 44.8933 17.5345 45.0278C17.2826 45.1624 17.0049 45.2414 16.72 45.2597L16.62 45.1997Z" fill="#CD2264"/>
<path d="M16.62 65.1997C16.0953 65.1975 15.5925 64.9892 15.22 64.6197L9.21997 58.6197L12 55.8397L16.38 60.1797L24 50.1797L27.18 52.5997L18.18 64.4797C18.0064 64.7064 17.7863 64.8933 17.5345 65.0278C17.2826 65.1624 17.0049 65.2414 16.72 65.2597L16.62 65.1997Z" fill="#CD2264"/>
<path d="M95 97.0009H51.88C51.3496 97.0009 50.8409 96.7901 50.4658 96.4151C50.0907 96.04 49.88 95.5313 49.88 95.0009V51.8809C49.88 51.3504 50.0907 50.8417 50.4658 50.4666C50.8409 50.0916 51.3496 49.8809 51.88 49.8809H95C95.5304 49.8809 96.0391 50.0916 96.4142 50.4666C96.7893 50.8417 97 51.3504 97 51.8809V95.0009C97 95.5313 96.7893 96.04 96.4142 96.4151C96.0391 96.7901 95.5304 97.0009 95 97.0009ZM53.88 93.0009H93V53.8809H53.88V93.0009Z" fill="#CD2264"/>
<path d="M58.6 79.7794L56.4 76.4594L67.64 68.9595C67.9601 68.7568 68.3312 68.6492 68.71 68.6492C69.0889 68.6492 69.4599 68.7568 69.78 68.9595L77.38 73.5194L85.76 58.4395L89.24 60.4395L79.88 77.3195C79.7487 77.5548 79.5711 77.7611 79.358 77.9261C79.145 78.091 78.9007 78.2112 78.64 78.2794C78.3816 78.3475 78.1123 78.3631 77.8478 78.3253C77.5833 78.2875 77.329 78.1971 77.1 78.0594L68.8 72.9995L58.6 79.7794Z" fill="#CD2264"/>
<path d="M61.38 81.8809H57.38V89.3809H61.38V81.8809Z" fill="#CD2264"/>
<path d="M70.74 78.1191H66.74V89.3791H70.74V78.1191Z" fill="#CD2264"/>
<path d="M80.12 81.8809H76.12V89.3809H80.12V81.8809Z" fill="#CD2264"/>
<path d="M89.5 72.5H85.5V89.38H89.5V72.5Z" fill="#CD2264"/>
<path d="M88.1 65.3191L86.98 59.9991L81.6 61.1191L80.8 57.1191L88.14 55.5991C88.3974 55.5465 88.6626 55.5451 88.9205 55.5951C89.1785 55.645 89.424 55.7453 89.6432 55.8902C89.8623 56.035 90.0508 56.2217 90.1978 56.4394C90.3448 56.6571 90.4475 56.9017 90.5 57.1591L92 64.5191L88.1 65.3191Z" fill="#CD2264"/>
</svg>
