<svg width="100" height="100" viewBox="0 0 100 100" fill="none" xmlns="http://www.w3.org/2000/svg">
<path d="M95 40.76H5C4.46957 40.76 3.96086 40.5493 3.58579 40.1742C3.21071 39.7991 3 39.2904 3 38.76V5C3 4.46957 3.21071 3.96086 3.58579 3.58579C3.96086 3.21071 4.46957 3 5 3H95C95.5304 3 96.0391 3.21071 96.4142 3.58579C96.7893 3.96086 97 4.46957 97 5V38.76C97 39.2904 96.7893 39.7991 96.4142 40.1742C96.0391 40.5493 95.5304 40.76 95 40.76ZM7 36.76H93V7H7V36.76Z" fill="#CD2264"/>
<path d="M95 97.0002H5C4.46957 97.0002 3.96086 96.7895 3.58579 96.4145C3.21071 96.0394 3 95.5307 3 95.0002V61.2402C3 60.7098 3.21071 60.2011 3.58579 59.826C3.96086 59.4509 4.46957 59.2402 5 59.2402H95C95.5304 59.2402 96.0391 59.4509 96.4142 59.826C96.7893 60.2011 97 60.7098 97 61.2402V95.0002C97 95.5307 96.7893 96.0394 96.4142 96.4145C96.0391 96.7895 95.5304 97.0002 95 97.0002ZM7 93.0002H93V63.2402H7V93.0002Z" fill="#CD2264"/>
</svg>
