<svg width="100" height="100" viewBox="0 0 100 100" fill="none" xmlns="http://www.w3.org/2000/svg">
<g clip-path="url(#clip0_2385_8441)">
<path d="M100 0H0V100H100V0Z" fill="url(#paint0_linear_2385_8441)"/>
<path d="M83.3333 46.667C83.3798 49.4117 82.3664 52.0686 80.5038 54.0851C78.6413 56.1017 76.073 57.3225 73.3333 57.4937H54V54.827H73.3333C73.52 54.827 80.7333 54.027 80.7333 46.6537C80.7333 40.467 75.56 38.9203 73.3466 38.5337C73.0012 38.4748 72.6929 38.2823 72.4883 37.9979C72.2837 37.7134 72.1993 37.3599 72.2533 37.0137C72.2533 34.347 71.1333 32.4403 69.1733 31.8003C68.3048 31.5018 67.3634 31.4896 66.4875 31.7656C65.6115 32.0416 64.8471 32.5912 64.3066 33.3337C64.1568 33.5381 63.9518 33.6956 63.7156 33.7877C63.4795 33.8798 63.222 33.9027 62.9733 33.8537C62.736 33.8174 62.5128 33.7178 62.3274 33.5652C62.142 33.4127 62.0012 33.2129 61.92 32.987C61.2532 30.9505 60.1419 29.0878 58.6666 27.5337C56.9706 25.7552 54.7664 24.5444 52.3557 24.067C49.945 23.5897 47.4457 23.8691 45.2 24.867C42.593 26.0859 40.5109 28.2011 39.3333 30.827H36.4C37.0694 28.9854 38.096 27.2941 39.4208 25.8503C40.7456 24.4065 42.3426 23.2386 44.12 22.4137C46.8531 21.2091 49.8902 20.8726 52.8208 21.4496C55.7514 22.0267 58.4342 23.4895 60.5066 25.6403C61.8274 26.9752 62.9097 28.5266 63.7066 30.227C64.6006 29.5977 65.6307 29.1888 66.7128 29.0335C67.795 28.8783 68.8985 28.9811 69.9333 29.3337C71.3475 29.8477 72.5717 30.78 73.4434 32.0065C74.3151 33.233 74.7929 34.6957 74.8133 36.2003C79.1066 37.227 83.3333 40.467 83.3333 46.667ZM46 45.507V36.1737H19.3333V76.1737H46V53.507H48.6666V77.507C48.6666 77.8606 48.5262 78.1998 48.2761 78.4498C48.0261 78.6998 47.6869 78.8403 47.3333 78.8403H18C17.6463 78.8403 17.3072 78.6998 17.0572 78.4498C16.8071 78.1998 16.6666 77.8606 16.6666 77.507V34.8403C16.6666 34.4867 16.8071 34.1476 17.0572 33.8975C17.3072 33.6475 17.6463 33.507 18 33.507H47.3333C47.6869 33.507 48.0261 33.6475 48.2761 33.8975C48.5262 34.1476 48.6666 34.4867 48.6666 34.8403V45.507H46ZM63.3333 48.1737H23.3333V50.8403H63.3333V48.1737ZM34 41.507H23.3333V44.1737H34V41.507ZM38 54.8403H23.3333V57.507H38V54.8403ZM32.5466 61.507H23.3866V64.1737H32.5466V61.507ZM42 61.507H35.3333V64.1737H42V61.507ZM71.3333 48.1737H66V50.8403H71.3333V48.1737Z" fill="white"/>
</g>
<defs>
<linearGradient id="paint0_linear_2385_8441" x1="-20.7107" y1="120.715" x2="120.711" y2="-20.7067" gradientUnits="userSpaceOnUse">
<stop stop-color="#B0084D"/>
<stop offset="1" stop-color="#FF4F8B"/>
</linearGradient>
<clipPath id="clip0_2385_8441">
<rect width="100" height="100" fill="white"/>
</clipPath>
</defs>
</svg>
