<svg width="100" height="100" viewBox="0 0 100 100" fill="none" xmlns="http://www.w3.org/2000/svg">
<path d="M51.88 77.0402H5C4.46957 77.0402 3.96086 76.8294 3.58579 76.4544C3.21071 76.0793 3 75.5706 3 75.0402V5.66016C3 5.12972 3.21071 4.62102 3.58579 4.24594C3.96086 3.87087 4.46957 3.66016 5 3.66016H61.24C61.7704 3.66016 62.2791 3.87087 62.6542 4.24594C63.0293 4.62102 63.24 5.12972 63.24 5.66016V60.0002H59.24V7.66016H7V73.0402H51.88V77.0402Z" fill="#CD2264"/>
<path d="M55.64 18.6602H31.26V22.6602H55.64V18.6602Z" fill="#CD2264"/>
<path d="M55.64 39.3008H31.26V43.3008H55.64V39.3008Z" fill="#CD2264"/>
<path d="M55.64 58.0391H31.26V62.0391H55.64V58.0391Z" fill="#CD2264"/>
<path d="M16.62 25.8598C16.0981 25.863 15.5957 25.662 15.22 25.2998L9.21997 19.2998L12 16.4998L16.4 20.8398L24.04 10.8398L27.22 13.1998L18.22 25.0798C18.0464 25.3065 17.8263 25.4934 17.5745 25.628C17.3226 25.7625 17.0449 25.8416 16.76 25.8598H16.62Z" fill="#CD2264"/>
<path d="M16.62 45.8598C16.0981 45.863 15.5957 45.662 15.22 45.2998L9.21997 39.2998L12 36.4998L16.4 40.8398L24.04 30.8398L27.22 33.2598L18.22 45.1398C18.0464 45.3665 17.8263 45.5534 17.5745 45.688C17.3226 45.8225 17.0449 45.9016 16.76 45.9198L16.62 45.8598Z" fill="#CD2264"/>
<path d="M16.62 65.8598C16.0981 65.863 15.5957 65.662 15.22 65.2999L9.21997 59.2998L12 56.4998L16.4 60.8398L24.04 50.8398L27.22 53.2598L18.22 65.1398C18.0464 65.3665 17.8263 65.5534 17.5745 65.688C17.3226 65.8225 17.0449 65.9016 16.76 65.9198L16.62 65.8598Z" fill="#CD2264"/>
<path d="M95 97.6593H46.24C45.891 97.6572 45.5486 97.5638 45.2469 97.3884C44.9451 97.213 44.6945 96.9616 44.52 96.6593C44.3445 96.3553 44.2521 96.0104 44.2521 95.6593C44.2521 95.3083 44.3445 94.9634 44.52 94.6593L68.9 53.3993C69.0771 53.1009 69.3288 52.8537 69.6304 52.6819C69.9319 52.5102 70.273 52.4199 70.62 52.4199C70.9671 52.4199 71.3081 52.5102 71.6097 52.6819C71.9112 52.8537 72.1629 53.1009 72.34 53.3993L96.72 94.6393C96.9001 94.943 96.9965 95.2889 96.9996 95.6419C97.0027 95.9949 96.9123 96.3424 96.7376 96.6491C96.5629 96.9559 96.3101 97.2109 96.0049 97.3883C95.6997 97.5658 95.353 97.6593 95 97.6593ZM49.76 93.6593H91.5L70.62 58.3393L49.76 93.6593Z" fill="#CD2264"/>
<path d="M70.6201 90.5802C70.2808 90.5919 69.9429 90.5327 69.6279 90.4064C69.3128 90.2801 69.0276 90.0894 68.7904 89.8466C68.5533 89.6038 68.3694 89.3142 68.2505 88.9963C68.1316 88.6783 68.0804 88.3391 68.1001 88.0002C68.0816 87.6647 68.1345 87.329 68.2551 87.0153C68.3758 86.7016 68.5615 86.417 68.8001 86.1802C69.0366 85.9401 69.3206 85.752 69.634 85.628C69.9474 85.504 70.2833 85.4469 70.6201 85.4602C71.2937 85.4602 71.9398 85.7278 72.4161 86.2042C72.8924 86.6805 73.1601 87.3266 73.1601 88.0002C73.1601 88.6739 72.8924 89.32 72.4161 89.7963C71.9398 90.2726 71.2937 90.5402 70.6201 90.5402V90.5802ZM69.0001 83.7002L68.38 70.7802C69.076 70.4324 69.8421 70.2477 70.6201 70.2402C71.4045 70.2475 72.1771 70.4321 72.8801 70.7802L72.2601 83.7002H69.0001Z" fill="#CD2264"/>
</svg>
