<svg width="100" height="100" viewBox="0 0 100 100" fill="none" xmlns="http://www.w3.org/2000/svg">
<path d="M95 83.4005H5.00002C4.46958 83.4005 3.96088 83.1897 3.5858 82.8147C3.21073 82.4396 3.00002 81.9309 3.00002 81.4005V57.0404C2.99809 56.5825 3.15341 56.1377 3.44002 55.7804L26 27.6604C26.3115 27.2718 26.7568 27.0134 27.2487 26.9357C27.7407 26.858 28.2439 26.9667 28.66 27.2404L49.7 41.2404L72.86 14.4804C73.0343 14.2756 73.2481 14.1081 73.4887 13.9878C73.7292 13.8675 73.9916 13.797 74.26 13.7804C74.5257 13.7656 74.7917 13.804 75.0424 13.8933C75.2931 13.9826 75.5235 14.121 75.72 14.3004L96.34 33.0604C96.5472 33.2474 96.713 33.4757 96.8266 33.7306C96.9403 33.9855 96.9994 34.2614 97 34.5404V81.4005C97 81.9309 96.7893 82.4396 96.4142 82.8147C96.0392 83.1897 95.5304 83.4005 95 83.4005ZM7.00002 79.4005H93V35.4004L74.54 18.6404L51.52 45.2204C51.202 45.5891 50.7604 45.829 50.278 45.8953C49.7957 45.9616 49.3057 45.8496 48.9 45.5805L28 31.5804L7.00002 57.7404V79.4005Z" fill="#CD2264"/>
</svg>
