<svg width="100" height="100" viewBox="0 0 100 100" fill="none" xmlns="http://www.w3.org/2000/svg">
<g clip-path="url(#clip0_2385_8428)">
<path d="M100 0H0V100H100V0Z" fill="url(#paint0_linear_2385_8428)"/>
<path opacity="0.99" d="M69.3333 47.7331L60.6667 42.7331V32.7198C60.6676 32.4848 60.6064 32.2538 60.4894 32.0501C60.3723 31.8464 60.2035 31.6772 60 31.5597L50.6667 26.2264C50.464 26.1094 50.234 26.0478 50 26.0478C49.7659 26.0478 49.536 26.1094 49.3333 26.2264L40 31.5597C39.7965 31.6772 39.6277 31.8464 39.5106 32.0501C39.3936 32.2538 39.3324 32.4848 39.3333 32.7198V42.7331L30.6667 47.7331C30.4632 47.8506 30.2944 48.0197 30.1773 48.2234C30.0602 48.4271 29.9991 48.6581 30 48.8931V59.6664C29.9991 59.9014 30.0602 60.1324 30.1773 60.3361C30.2944 60.5398 30.4632 60.7089 30.6667 60.8264L40 66.1597C40.2027 66.2768 40.4326 66.3384 40.6667 66.3384C40.9007 66.3384 41.1306 66.2768 41.3333 66.1597L50 61.1597L58.6667 66.2131C58.8694 66.3301 59.0993 66.3917 59.3333 66.3917C59.5674 66.3917 59.7973 66.3301 60 66.2131L69.3333 60.8797C69.5368 60.7623 69.7056 60.5931 69.8227 60.3894C69.9398 60.1857 70.0009 59.9547 70 59.7197V48.8931C70.0009 48.6581 69.9398 48.4271 69.8227 48.2234C69.7056 48.0197 69.5368 47.8506 69.3333 47.7331ZM39.3333 62.7464L32.6667 58.8931V51.1997L39.3333 55.0397V62.7464ZM40.6667 52.7331L34 48.8797L40.6667 45.0397L47.3333 48.8797L40.6667 52.7331ZM48.6667 58.8931L42 62.7464V55.0397L48.6667 51.1997V58.8931ZM48.6667 46.5731L42 42.7331V35.0398L48.6667 38.8797V46.5731ZM43.3333 32.7198L50 28.8664L56.6667 32.7198L50 36.5731L43.3333 32.7198ZM58 35.0398V42.7331L51.3333 46.5731V38.8797L58 35.0398ZM58 62.7464L51.3333 58.8931V51.1997L58 55.0397V62.7464ZM59.3333 52.7331L52.6667 48.8797L59.3333 45.0397L66 48.8797L59.3333 52.7331ZM67.3333 58.8931L60.6667 62.7464V55.0397L67.3333 51.1997V58.8931ZM80.6667 43.4131L78 43.8131C78.1904 45.111 78.2839 46.4213 78.28 47.7331C78.2871 53.7047 76.4054 59.5257 72.9042 64.3632C69.403 69.2008 64.4615 72.8071 58.7867 74.6664C58.0297 74.9281 57.2598 75.1507 56.48 75.3331C56.166 73.6975 55.2512 72.2387 53.9157 71.2438C52.5801 70.2489 50.9206 69.7898 49.2636 69.957C47.6066 70.1242 46.0722 70.9056 44.9623 72.1473C43.8525 73.389 43.2476 75.0011 43.2667 76.6664C43.2585 76.8041 43.2585 76.9421 43.2667 77.0797C43.3664 78.6825 44.0412 80.1953 45.1671 81.3403C46.2931 82.4852 47.7944 83.1853 49.3953 83.3118C50.9961 83.4383 52.5888 82.9827 53.8806 82.0289C55.1724 81.075 56.0765 79.6869 56.4267 78.1197C57.5114 77.9022 58.5804 77.6127 59.6267 77.2531C65.8437 75.2149 71.2561 71.2611 75.0883 65.9583C78.9205 60.6554 80.9759 54.2757 80.96 47.7331C80.9749 46.2885 80.8858 44.8448 80.6933 43.4131H80.6667ZM53.92 76.9197C53.9094 77.9806 53.4778 78.9938 52.7201 79.7365C51.9625 80.4791 50.9409 80.8904 49.88 80.8797C48.8191 80.8691 47.8059 80.4375 47.0633 79.6799C46.3206 78.9222 45.9094 77.9006 45.92 76.8397V76.6664C45.92 75.6055 46.3414 74.5881 47.0916 73.838C47.8417 73.0878 48.8591 72.6664 49.92 72.6664C50.9809 72.6664 51.9983 73.0878 52.7484 73.838C53.4986 74.5881 53.92 75.6055 53.92 76.6664C53.9245 76.7508 53.9245 76.8354 53.92 76.9197ZM76.6667 27.9998C75.855 27.9962 75.0498 28.1454 74.2933 28.4397C73.6557 27.6344 72.9747 26.8644 72.2533 26.1331C69.3648 23.1409 65.9044 20.7597 62.0777 19.1309C58.2509 17.5021 54.1359 16.6589 49.9769 16.6514C45.818 16.644 41.6999 17.4724 37.8674 19.0874C34.0348 20.7025 30.5659 23.0713 27.6667 26.0531L29.5867 27.9998C32.232 25.2688 35.3992 23.0973 38.9002 21.6144C42.4012 20.1314 46.1645 19.3673 49.9667 19.3673C53.7688 19.3673 57.5321 20.1314 61.0331 21.6144C64.5341 23.0973 67.7013 25.2688 70.3467 27.9998C70.9324 28.6044 71.4844 29.2409 72 29.9064C71.3632 30.5242 70.8578 31.2643 70.5142 32.0823C70.1705 32.9002 69.9956 33.7792 70 34.6664C70 36.4345 70.7024 38.1302 71.9526 39.3805C73.2029 40.6307 74.8986 41.3331 76.6667 41.3331C77.4682 41.3331 78.2631 41.1885 79.0133 40.9064C80.4747 40.3569 81.6968 39.3118 82.4666 37.9536C83.2364 36.5953 83.5051 35.0099 83.2258 33.4738C82.9465 31.9378 82.137 30.5484 80.9383 29.5481C79.7397 28.5477 78.2279 27.9998 76.6667 27.9998ZM78 38.4131C77.5744 38.5771 77.1227 38.663 76.6667 38.6664C75.6058 38.6664 74.5884 38.245 73.8382 37.4948C73.0881 36.7447 72.6667 35.7273 72.6667 34.6664C72.6778 33.9752 72.8679 33.2986 73.2184 32.7027C73.5689 32.1069 74.0679 31.612 74.6667 31.2664C75.266 30.8874 75.9577 30.6799 76.6667 30.6664C77.5984 30.6818 78.4955 31.022 79.2032 31.6284C79.9108 32.2347 80.3845 33.069 80.5426 33.9874C80.7007 34.9057 80.5331 35.8505 80.0689 36.6585C79.6047 37.4665 78.873 38.0871 78 38.4131ZM21.4667 47.7464C21.4619 46.408 21.5555 45.0711 21.7467 43.7464C21.8667 42.9064 22.0267 42.0664 22.2133 41.2531C22.5619 41.3067 22.914 41.3335 23.2667 41.3331C24.7272 41.3327 26.1473 40.8526 27.3085 39.9666C28.4697 39.0807 29.3078 37.8379 29.6941 36.4293C30.0803 35.0207 29.9932 33.5243 29.4463 32.1699C28.8993 30.8156 27.9228 29.6784 26.6667 28.9331C25.6571 28.3339 24.5072 28.0119 23.3333 27.9998C21.8913 28.0031 20.4893 28.4739 19.3376 29.3416C18.1858 30.2092 17.3465 31.4269 16.9454 32.812C16.5443 34.1971 16.603 35.6749 17.1129 37.0237C17.6228 38.3725 18.5563 39.5197 19.7733 40.2931C19.5196 41.3041 19.3193 42.3277 19.1733 43.3598C18.1473 50.5817 19.6942 57.9345 23.5431 64.1308C27.3921 70.3272 33.2979 74.9723 40.2267 77.2531L41.0533 74.7197C35.3648 72.8622 30.4113 69.2498 26.9042 64.4011C23.3971 59.5525 21.5168 53.7171 21.5333 47.7331L21.4667 47.7464ZM19.3333 34.6664C19.3333 33.6056 19.7548 32.5881 20.5049 31.838C21.255 31.0878 22.2725 30.6664 23.3333 30.6664C24.0432 30.6641 24.7399 30.8579 25.3467 31.2264C25.9487 31.5771 26.4488 32.079 26.7972 32.6824C27.1457 33.2857 27.3305 33.9697 27.3333 34.6664C27.3333 35.7273 26.9119 36.7447 26.1618 37.4948C25.4116 38.245 24.3942 38.6664 23.3333 38.6664C22.8207 38.6722 22.3123 38.5724 21.84 38.3731C21.1003 38.0754 20.4665 37.5635 20.0199 36.903C19.5732 36.2426 19.3341 35.4637 19.3333 34.6664Z" fill="white"/>
</g>
<defs>
<linearGradient id="paint0_linear_2385_8428" x1="-20.7107" y1="120.715" x2="120.711" y2="-20.7067" gradientUnits="userSpaceOnUse">
<stop stop-color="#B0084D"/>
<stop offset="1" stop-color="#FF4F8B"/>
</linearGradient>
<clipPath id="clip0_2385_8428">
<rect width="100" height="100" fill="white"/>
</clipPath>
</defs>
</svg>
