<svg width="100" height="100" viewBox="0 0 100 100" fill="none" xmlns="http://www.w3.org/2000/svg">
<path d="M87.5 97H12.5C11.9696 97 11.4609 96.7893 11.0858 96.4142C10.7107 96.0391 10.5 95.5304 10.5 95V5C10.5 4.46957 10.7107 3.96086 11.0858 3.58579C11.4609 3.21071 11.9696 3 12.5 3H87.5C88.0304 3 88.5391 3.21071 88.9142 3.58579C89.2893 3.96086 89.5 4.46957 89.5 5V95C89.5 95.5304 89.2893 96.0391 88.9142 96.4142C88.5391 96.7893 88.0304 97 87.5 97ZM14.5 93H85.5V7H14.5V93Z" fill="#CD2264"/>
<path d="M33.12 31.3802H20C19.4696 31.3802 18.9609 31.1695 18.5858 30.7944C18.2107 30.4194 18 29.9107 18 29.3802V16.2402C18 15.7098 18.2107 15.2011 18.5858 14.826C18.9609 14.4509 19.4696 14.2402 20 14.2402H33.12C33.6504 14.2402 34.1591 14.4509 34.5342 14.826C34.9093 15.2011 35.12 15.7098 35.12 16.2402V29.3802C35.12 29.9107 34.9093 30.4194 34.5342 30.7944C34.1591 31.1695 33.6504 31.3802 33.12 31.3802ZM22 27.3802H31.12V18.2402H22V27.3802Z" fill="#CD2264"/>
<path d="M26.56 59.5009C24.867 59.5009 23.212 58.9988 21.8043 58.0582C20.3966 57.1177 19.2995 55.7808 18.6516 54.2166C18.0037 52.6525 17.8342 50.9314 18.1645 49.2709C18.4948 47.6104 19.31 46.0852 20.5072 44.888C21.7043 43.6909 23.2296 42.8756 24.89 42.5453C26.5505 42.2151 28.2716 42.3846 29.8358 43.0325C31.3999 43.6803 32.7368 44.7775 33.6774 46.1852C34.618 47.5929 35.12 49.2479 35.12 50.9409C35.12 53.2111 34.2182 55.3884 32.6128 56.9937C31.0075 58.599 28.8303 59.5009 26.56 59.5009ZM26.56 46.3809C25.6581 46.3809 24.7765 46.6483 24.0266 47.1494C23.2767 47.6504 22.6922 48.3626 22.3471 49.1958C22.002 50.0291 21.9117 50.9459 22.0876 51.8305C22.2636 52.715 22.6979 53.5275 23.3356 54.1653C23.9733 54.803 24.7858 55.2373 25.6704 55.4132C26.5549 55.5892 27.4718 55.4989 28.305 55.1538C29.1383 54.8086 29.8504 54.2242 30.3515 53.4743C30.8526 52.7244 31.12 51.8427 31.12 50.9409C31.12 49.7315 30.6396 48.5716 29.7844 47.7165C28.9292 46.8613 27.7694 46.3809 26.56 46.3809Z" fill="#CD2264"/>
<path d="M26.56 91.3791C21.76 91.3791 18 86.3791 18 79.9991C18 73.6191 21.76 68.6191 26.56 68.6191C31.36 68.6191 35.12 73.6191 35.12 79.9991C35.12 86.3791 31.36 91.3791 26.56 91.3791ZM26.56 72.6191C24 72.6191 22 75.9991 22 79.9991C22 83.9991 24 87.3791 26.56 87.3791C29.12 87.3791 31.12 83.9991 31.12 79.9991C31.12 75.9991 29.04 72.6191 26.56 72.6191Z" fill="#CD2264"/>
<path d="M73.44 57.6202C67.44 57.6202 63 54.7602 63 50.9402C63 47.1202 67.48 44.2402 73.44 44.2402C79.4 44.2402 83.88 47.1202 83.88 50.9402C83.88 54.7602 79.38 57.6202 73.44 57.6202ZM73.44 48.2402C69.56 48.2402 67 49.8602 67 50.9402C67 52.0202 69.56 53.6202 73.44 53.6202C77.32 53.6202 79.88 52.0002 79.88 50.9402C79.88 49.8802 77.3 48.2402 73.44 48.2402Z" fill="#CD2264"/>
<path d="M80 31.3806H63.12C62.7711 31.38 62.4285 31.2882 62.1262 31.1143C61.8238 30.9403 61.5722 30.6903 61.3963 30.3891C61.2204 30.0878 61.1263 29.7458 61.1235 29.397C61.1206 29.0482 61.209 28.7047 61.38 28.4006L69.82 13.4006C69.9944 13.0928 70.2474 12.8368 70.553 12.6587C70.8587 12.4806 71.2062 12.3867 71.56 12.3867C71.9138 12.3867 72.2612 12.4806 72.5669 12.6587C72.8726 12.8368 73.1255 13.0928 73.3 13.4006L81.74 28.4006C81.9155 28.7047 82.0079 29.0495 82.0079 29.4006C82.0079 29.7517 81.9155 30.0966 81.74 30.4006C81.5612 30.7021 81.3064 30.9513 81.001 31.1233C80.6957 31.2953 80.3504 31.384 80 31.3806ZM66.54 27.3806H76.54L71.56 18.4606L66.54 27.3806Z" fill="#CD2264"/>
<path d="M68.2954 72.9665L65.467 75.7949L78.5909 88.9188L81.4193 86.0904L68.2954 72.9665Z" fill="#CD2264"/>
<path d="M78.5909 72.9679L65.467 86.0918L68.2954 88.9202L81.4193 75.7963L78.5909 72.9679Z" fill="#CD2264"/>
<path d="M53.28 28.9198L50.46 25.9998L54.68 21.7998L50.46 17.6598L53.28 14.8398L58.92 20.4598C59.2925 20.8346 59.5016 21.3415 59.5016 21.8698C59.5016 22.3982 59.2925 22.9051 58.92 23.2798L53.28 28.9198Z" fill="#CD2264"/>
<path d="M55.64 19.8809H38.76V23.8809H55.64V19.8809Z" fill="#CD2264"/>
<path d="M53.28 58.9198L50.46 55.9998L54.68 51.7998L50.46 47.5798L53.28 44.7598L58.92 50.3798C59.2925 50.7545 59.5016 51.2614 59.5016 51.7898C59.5016 52.3181 59.2925 52.825 58.92 53.1998L53.28 58.9198Z" fill="#CD2264"/>
<path d="M55.64 49.8809H38.76V53.8809H55.64V49.8809Z" fill="#CD2264"/>
<path d="M53.28 88.9198L50.46 85.9998L54.68 81.7998L50.46 77.5798L53.28 74.7598L58.92 80.3798C59.2925 80.7545 59.5016 81.2614 59.5016 81.7898C59.5016 82.3181 59.2925 82.825 58.92 83.1998L53.28 88.9198Z" fill="#CD2264"/>
<path d="M55.64 79.8809H38.76V83.8809H55.64V79.8809Z" fill="#CD2264"/>
</svg>
