<svg width="100" height="100" viewBox="0 0 100 100" fill="none" xmlns="http://www.w3.org/2000/svg">
<path d="M97 32.32H3V4H97V32.32ZM7 28.32H93V8H7V28.32Z" fill="#CD2264"/>
<path d="M48.24 64.1803H3V35.8203H48.24V64.1803ZM7 60.1803H44.24V39.8203H7V60.1803Z" fill="#CD2264"/>
<path d="M31.38 95.9997H3V67.6797H31.38V95.9997ZM7 91.9997H27.38V71.6797H7V91.9997Z" fill="#CD2264"/>
<path d="M65.12 95.9997H34.88V67.6797H65.12V95.9997ZM38.88 91.9997H61.12V71.6797H38.88V91.9997Z" fill="#CD2264"/>
<path d="M97 95.9997H68.62V67.6797H97V95.9997ZM72.62 91.9997H93V71.6797H72.62V91.9997Z" fill="#CD2264"/>
<path d="M97 64.1803H51.74V35.8203H97V64.1803ZM55.74 60.1803H93V39.8203H55.74V60.1803Z" fill="#CD2264"/>
</svg>
