<svg width="100" height="100" viewBox="0 0 100 100" fill="none" xmlns="http://www.w3.org/2000/svg">
<g clip-path="url(#clip0_2385_8429)">
<path d="M100 0H0V100H100V0Z" fill="url(#paint0_linear_2385_8429)"/>
<path d="M50.08 61.9996C50.3457 61.9842 50.6007 61.8896 50.8121 61.728C51.0236 61.5664 51.1819 61.3452 51.2666 61.0929L59.1866 37.3329L63.3733 53.0396C63.4514 53.3305 63.6257 53.5863 63.8679 53.7655C64.11 53.9446 64.4056 54.0366 64.7066 54.0262H83.3733V51.3596H65.6933L60.6266 32.3462C60.552 32.0687 60.3896 31.8226 60.1638 31.6448C59.9379 31.467 59.6606 31.367 59.3733 31.3596C59.0825 31.3444 58.7948 31.4248 58.554 31.5885C58.3133 31.7522 58.1327 31.9903 58.04 32.2662L49.7733 57.0796L43.2133 42.7729C43.1101 42.5495 42.9472 42.359 42.7424 42.2226C42.5377 42.0861 42.2992 42.0089 42.0533 41.9996C41.8094 41.989 41.5673 42.0455 41.3533 42.1631C41.1394 42.2807 40.9618 42.4547 40.84 42.6662L35.8933 51.3329H22V53.9996H36.6666C36.9016 54.0005 37.1326 53.9394 37.3363 53.8223C37.54 53.7052 37.7092 53.5364 37.8266 53.3329L41.8266 46.2396L48.7333 61.2262C48.8404 61.4577 49.0116 61.6536 49.2267 61.7906C49.4418 61.9277 49.6916 62.0002 49.9466 61.9996H50.08ZM19.3333 51.3329H16.6666V53.9996H19.3333V51.3329ZM70.5866 56.6662L69.9333 57.4929L51.0533 81.4929C50.9287 81.6535 50.769 81.7835 50.5864 81.8729C50.4038 81.9623 50.2032 82.0088 50 82.0088C49.7967 82.0088 49.5961 81.9623 49.4135 81.8729C49.231 81.7835 49.0713 81.6535 48.9466 81.4929L29.56 56.6662H32.9466L50 78.5063L67.2266 56.6662H70.5866ZM83.3333 34.8262C83.3374 37.5241 82.6732 40.181 81.4 42.5596C80.9956 43.3561 80.5274 44.1186 80 44.8396L78.9066 46.1729L76.92 48.7062H73.5866L77.92 43.2129C78.359 42.6195 78.7556 41.9957 79.1066 41.3462C80.1699 39.3521 80.7241 37.1262 80.72 34.8662C80.6498 31.0445 79.066 27.4069 76.3161 24.752C73.5662 22.0971 69.8751 20.642 66.0533 20.7062C58.7466 20.7062 51.3866 24.4796 51.3866 32.9329C51.3866 33.2865 51.2462 33.6257 50.9961 33.8757C50.7461 34.1258 50.4069 34.2662 50.0533 34.2662C49.6997 34.2662 49.3605 34.1258 49.1105 33.8757C48.8604 33.6257 48.72 33.2865 48.72 32.9329C48.72 24.4796 41.36 20.7062 34.0533 20.7062C30.2315 20.642 26.5404 22.0971 23.7905 24.752C21.0406 27.4069 19.4567 31.0445 19.3866 34.8662C19.365 37.1175 19.9009 39.3391 20.9466 41.3329L26.6666 48.6662H23.32L18.7733 42.8396L18.6666 42.6662C17.3533 40.2625 16.6699 37.5654 16.68 34.8262C16.7537 30.2985 18.6197 25.9846 21.8688 22.8304C25.118 19.6762 29.4853 17.939 34.0133 17.9996C41.6 17.9996 47.4933 21.3862 50.0133 26.7329C52.5333 21.3996 58.4266 17.9996 66.0133 17.9996C70.539 17.9425 74.9028 19.6813 78.1491 22.8352C81.3954 25.989 83.2596 30.3008 83.3333 34.8262Z" fill="white"/>
</g>
<defs>
<linearGradient id="paint0_linear_2385_8429" x1="-20.7107" y1="120.707" x2="120.711" y2="-20.7147" gradientUnits="userSpaceOnUse">
<stop stop-color="#B0084D"/>
<stop offset="1" stop-color="#FF4F8B"/>
</linearGradient>
<clipPath id="clip0_2385_8429">
<rect width="100" height="100" fill="white"/>
</clipPath>
</defs>
</svg>
