<svg width="100" height="100" viewBox="0 0 100 100" fill="none" xmlns="http://www.w3.org/2000/svg">
<path d="M11.08 58.9798L2.09998 49.9998L14.76 37.3398L17.58 40.1598L7.75998 49.9998L13.92 56.1598L11.08 58.9798Z" fill="#CD2264"/>
<path d="M50 97.9004L37.34 85.2404L40.16 82.4004L50 92.2404L56.16 86.0804L59 88.9204L50 97.9004Z" fill="#CD2264"/>
<path d="M85.24 62.6595L82.42 59.8395L92.24 49.9995L86.08 43.8395L88.92 41.0195L97.9 49.9995L85.24 62.6595Z" fill="#CD2264"/>
<path d="M59.84 17.5796L50 7.75961L43.84 13.9196L41 11.0796L50 2.09961L62.66 14.7596L59.84 17.5796Z" fill="#CD2264"/>
<path d="M50 16.1191H21.88V20.1191H50V16.1191Z" fill="#CD2264"/>
<path d="M42.5 23.6191H14.38V27.6191H42.5V23.6191Z" fill="#CD2264"/>
<path d="M35 31.1191H6.88V35.1191H35V31.1191Z" fill="#CD2264"/>
<path d="M20.12 50H16.12V78.12H20.12V50Z" fill="#CD2264"/>
<path d="M27.62 57.5H23.62V85.62H27.62V57.5Z" fill="#CD2264"/>
<path d="M35.12 65H31.12V93.12H35.12V65Z" fill="#CD2264"/>
<path d="M83.88 21.8809H79.88V50.0009H83.88V21.8809Z" fill="#CD2264"/>
<path d="M76.38 14.3809H72.38V42.5009H76.38V14.3809Z" fill="#CD2264"/>
<path d="M68.88 6.88086H64.88V35.0009H68.88V6.88086Z" fill="#CD2264"/>
<path d="M91.24 64.8809H63.12V68.8809H91.24V64.8809Z" fill="#CD2264"/>
<path d="M83.74 72.3809H55.62V76.3809H83.74V72.3809Z" fill="#CD2264"/>
<path d="M76.24 79.8809H48.12V83.8809H76.24V79.8809Z" fill="#CD2264"/>
</svg>
