<svg width="100" height="100" viewBox="0 0 100 100" fill="none" xmlns="http://www.w3.org/2000/svg">
<g clip-path="url(#clip0_2385_8448)">
<path d="M100 0H0V100H100V0Z" fill="url(#paint0_linear_2385_8448)"/>
<path d="M82 82H72.6667V79.3333H80.6667V31.3333H19.3334V79.3333H56.6667V82H18C17.6464 82 17.3073 81.8595 17.0572 81.6095C16.8072 81.3594 16.6667 81.0203 16.6667 80.6667V19.3333C16.6667 18.9797 16.8072 18.6406 17.0572 18.3905C17.3073 18.1405 17.6464 18 18 18H82C82.3536 18 82.6928 18.1405 82.9428 18.3905C83.1929 18.6406 83.3333 18.9797 83.3333 19.3333V80.6667C83.3333 81.0203 83.1929 81.3594 82.9428 81.6095C82.6928 81.8595 82.3536 82 82 82ZM19.3334 28.6667H80.6667V20.6667H19.3334V28.6667ZM53.5733 75.2267H46.4267C46.0731 75.2267 45.7339 75.0862 45.4839 74.8361C45.2338 74.5861 45.0933 74.247 45.0933 73.8933V72.7067C43.8872 72.3469 42.7211 71.8643 41.6133 71.2667L40.7733 72.1067C40.5235 72.355 40.1856 72.4944 39.8334 72.4944C39.4811 72.4944 39.1432 72.355 38.8934 72.1067L33.84 67.0667C33.7164 66.9421 33.6187 66.7943 33.5523 66.6319C33.486 66.4694 33.4523 66.2955 33.4534 66.12C33.4523 65.9445 33.486 65.7706 33.5523 65.6081C33.6187 65.4457 33.7164 65.2979 33.84 65.1733L34.6934 64.3333C34.0838 63.2296 33.5965 62.0627 33.24 60.8533H32C31.6464 60.8533 31.3073 60.7129 31.0572 60.4628C30.8072 60.2128 30.6667 59.8736 30.6667 59.52V52.3867C30.6667 52.033 30.8072 51.6939 31.0572 51.4439C31.3073 51.1938 31.6464 51.0533 32 51.0533H33.2C33.5659 49.8453 34.0575 48.6789 34.6667 47.5733L33.84 46.6667C33.5917 46.4169 33.4523 46.0789 33.4523 45.7267C33.4523 45.3744 33.5917 45.0365 33.84 44.7867L38.8934 39.7333C39.1417 39.487 39.4769 39.3481 39.8267 39.3467C40.0022 39.3457 40.1761 39.3793 40.3386 39.4456C40.501 39.512 40.6488 39.6098 40.7733 39.7333L41.6267 40.5867C42.7298 39.9891 43.8915 39.5065 45.0933 39.1467V37.9467C45.0933 37.593 45.2338 37.2539 45.4839 37.0039C45.7339 36.7538 46.0731 36.6133 46.4267 36.6133H53.5733C53.927 36.6133 54.2661 36.7538 54.5162 37.0039C54.7662 37.2539 54.9067 37.593 54.9067 37.9467V39.16C56.1127 39.5082 57.2756 39.9913 58.3733 40.6L59.2267 39.7333C59.3513 39.6098 59.499 39.512 59.6615 39.4456C59.8239 39.3793 59.9979 39.3457 60.1733 39.3467C60.5231 39.3481 60.8583 39.487 61.1067 39.7333L66.16 44.7867C66.4083 45.0365 66.5477 45.3744 66.5477 45.7267C66.5477 46.0789 66.4083 46.4169 66.16 46.6667L65.3067 47.52C65.9178 48.6213 66.4009 49.7889 66.7467 51H68C68.3536 51 68.6928 51.1405 68.9428 51.3905C69.1929 51.6406 69.3333 51.9797 69.3333 52.3333V59.4667C69.3333 59.8203 69.1929 60.1594 68.9428 60.4095C68.6928 60.6595 68.3536 60.8 68 60.8H66.8C66.4471 62.0297 65.9551 63.2152 65.3333 64.3333L66.1867 65.1733C66.3116 65.2973 66.4108 65.4448 66.4785 65.6072C66.5462 65.7697 66.5811 65.944 66.5811 66.12C66.5811 66.296 66.5462 66.4703 66.4785 66.6328C66.4108 66.7952 66.3116 66.9427 66.1867 67.0667L61.1333 72.1067C60.8835 72.355 60.5456 72.4944 60.1933 72.4944C59.8411 72.4944 59.5032 72.355 59.2533 72.1067L58.4133 71.2667C57.3083 71.8699 56.1416 72.3527 54.9333 72.7067V73.8933C54.9334 74.0707 54.898 74.2463 54.8294 74.4098C54.7607 74.5733 54.6601 74.7215 54.5334 74.8457C54.4068 74.9699 54.2566 75.0675 54.0918 75.1329C53.9269 75.1983 53.7507 75.2302 53.5733 75.2267ZM47.76 72.56H52.24V71.68C52.2318 71.3736 52.3294 71.0738 52.5164 70.8309C52.7034 70.5881 52.9684 70.417 53.2667 70.3467C54.905 69.9754 56.4691 69.3308 57.8933 68.44C58.1493 68.2791 58.4523 68.2099 58.7527 68.2438C59.0531 68.2777 59.3331 68.4127 59.5467 68.6267L60.1733 69.2533L63.3333 66.0933L62.6667 65.48C62.4527 65.2664 62.3177 64.9864 62.2838 64.686C62.2499 64.3856 62.3191 64.0826 62.48 63.8267C63.3816 62.4176 64.027 60.8603 64.3867 59.2267C64.4544 58.9259 64.6243 58.6579 64.8674 58.4683C65.1105 58.2786 65.4118 58.1791 65.72 58.1867H66.6667V53.72H65.7733C65.4651 53.7275 65.1638 53.628 64.9207 53.4384C64.6776 53.2488 64.5078 52.9808 64.44 52.68C64.0745 51.044 63.4295 49.4833 62.5333 48.0667C62.3656 47.8165 62.2874 47.517 62.3116 47.2167C62.3358 46.9165 62.461 46.6334 62.6667 46.4133L63.3067 45.7733L60.1733 42.6667L59.5333 43.32C59.3172 43.5351 59.0339 43.6697 58.7306 43.7012C58.4274 43.7327 58.1224 43.6594 57.8667 43.4933C56.4793 42.5875 54.9455 41.9289 53.3333 41.5467C53.035 41.4763 52.7701 41.3053 52.5831 41.0624C52.3961 40.8196 52.2985 40.5197 52.3067 40.2133V39.3333H47.76V40.24C47.7675 40.5482 47.668 40.8495 47.4784 41.0926C47.2888 41.3357 47.0208 41.5056 46.72 41.5733C45.0909 41.9472 43.5359 42.5917 42.12 43.48C41.8641 43.6409 41.5611 43.7101 41.2607 43.6762C40.9603 43.6423 40.6803 43.5073 40.4667 43.2933L39.8267 42.6667L36.6667 45.7733L37.3067 46.4133C37.5239 46.6278 37.6609 46.9103 37.6949 47.2136C37.7288 47.517 37.6577 47.8228 37.4934 48.08C36.6002 49.4935 35.9554 51.0492 35.5867 52.68C35.5189 52.9808 35.3491 53.2488 35.106 53.4384C34.8629 53.628 34.5616 53.7275 34.2534 53.72H33.3334V58.1867H34.2267C34.5349 58.1791 34.8362 58.2786 35.0793 58.4683C35.3224 58.6579 35.4923 58.9259 35.56 59.2267C35.9313 60.8608 36.5759 62.4206 37.4667 63.84C37.6345 64.0901 37.7126 64.3897 37.6884 64.6899C37.6642 64.9901 37.539 65.2733 37.3334 65.4933L36.6934 66.12L39.8267 69.3333L40.4667 68.6933C40.6819 68.4815 40.9627 68.3489 41.263 68.3175C41.5634 68.286 41.8655 68.3574 42.12 68.52C43.5219 69.3864 45.0586 70.0128 46.6667 70.3733C46.9675 70.4411 47.2355 70.6109 47.4251 70.854C47.6147 71.0971 47.7142 71.3984 47.7067 71.7067L47.76 72.56ZM50 63.12C48.579 63.12 47.19 62.6979 46.0092 61.9073C44.8285 61.1167 43.9091 59.9932 43.3678 58.6793C42.8264 57.3655 42.6875 55.9204 42.9687 54.5275C43.2498 53.1346 43.9383 51.8565 44.9469 50.8555C45.9554 49.8544 47.2386 49.1755 48.6335 48.9047C50.0285 48.634 51.4725 48.7837 52.7823 49.3348C54.0921 49.8859 55.2087 50.8136 55.9904 52.0003C56.7722 53.1869 57.1839 54.579 57.1733 56C57.1558 57.8921 56.3927 59.701 55.0497 61.034C53.7067 62.367 51.8922 63.1166 50 63.12ZM50 51.4533C49.1104 51.4534 48.2407 51.7167 47.5005 52.2102C46.7602 52.7036 46.1826 53.4051 45.8404 54.2263C45.4981 55.0474 45.4066 55.9515 45.5772 56.8246C45.7479 57.6977 46.1732 58.5008 46.7994 59.1326C47.4257 59.7644 48.225 60.1968 49.0965 60.3751C49.9681 60.5535 50.873 60.47 51.6971 60.135C52.5213 59.8 53.2278 59.2286 53.7278 58.4928C54.2278 57.7569 54.4988 56.8896 54.5067 56C54.512 55.4048 54.3993 54.8145 54.1752 54.2631C53.9511 53.7117 53.6199 53.2101 53.2009 52.7874C52.7819 52.3647 52.2833 52.0292 51.7339 51.8002C51.1845 51.5712 50.5952 51.4533 50 51.4533ZM35.3334 26H32.6667V23.3333H35.3334V26ZM30 26H27.3334V23.3333H30V26ZM24.6667 26H22V23.3333H24.6667V26Z" fill="white"/>
</g>
<defs>
<linearGradient id="paint0_linear_2385_8448" x1="-20.7067" y1="120.707" x2="120.707" y2="-20.7067" gradientUnits="userSpaceOnUse">
<stop stop-color="#B0084D"/>
<stop offset="1" stop-color="#FF4F8B"/>
</linearGradient>
<clipPath id="clip0_2385_8448">
<rect width="100" height="100" fill="white"/>
</clipPath>
</defs>
</svg>
