<svg width="100" height="100" viewBox="0 0 100 100" fill="none" xmlns="http://www.w3.org/2000/svg">
<path d="M50 97.3008C49.6479 97.2972 49.3029 97.2006 49 97.0208L9.78005 74.3808C9.47484 74.2046 9.22161 73.9509 9.046 73.6453C8.8704 73.3398 8.77865 72.9933 8.78005 72.6408V27.3608C8.77865 27.0084 8.8704 26.6619 9.046 26.3563C9.22161 26.0508 9.47484 25.797 9.78005 25.6208L49 2.98084C49.3041 2.8053 49.649 2.71289 50 2.71289C50.3511 2.71289 50.696 2.8053 51 2.98084L90.22 25.6208C90.5253 25.797 90.7785 26.0508 90.9541 26.3563C91.1297 26.6619 91.2214 27.0084 91.22 27.3608V72.6408C91.2214 72.9933 91.1297 73.3398 90.9541 73.6453C90.7785 73.9509 90.5253 74.2046 90.22 74.3808L51 97.0208C50.6972 97.2006 50.3522 97.2972 50 97.3008ZM12.78 71.5008L50 92.9808L87.22 71.5008V28.5008L50 7.02084L12.78 28.5008V71.5008Z" fill="#CD2264"/>
<path d="M50 52.9591C49.6479 52.9554 49.3029 52.8588 49 52.6791L9.78003 29.9991L11.78 26.5391L50 48.6391L88.22 26.6391L90.22 30.0991L51 52.6791C50.6972 52.8588 50.3522 52.9554 50 52.9591Z" fill="#CD2264"/>
<path d="M52 51.5801H48V94.7001H52V51.5801Z" fill="#CD2264"/>
</svg>
