<svg width="100" height="100" viewBox="0 0 100 100" fill="none" xmlns="http://www.w3.org/2000/svg">
<path d="M51.86 76.38H4.97998C4.44955 76.38 3.94084 76.1693 3.56577 75.7942C3.19069 75.4191 2.97998 74.9104 2.97998 74.38V5C2.97998 4.46957 3.19069 3.96086 3.56577 3.58579C3.94084 3.21071 4.44955 3 4.97998 3H61.24C61.7704 3 62.2791 3.21071 62.6542 3.58579C63.0293 3.96086 63.24 4.46957 63.24 5V50H59.24V7H6.97998V72.38H51.86V76.38Z" fill="#CD2264"/>
<path d="M55.62 18H31.24V22H55.62V18Z" fill="#CD2264"/>
<path d="M55.62 38.6191H31.24V42.6191H55.62V38.6191Z" fill="#CD2264"/>
<path d="M55.62 57.3809H31.24V61.3809H55.62V57.3809Z" fill="#CD2264"/>
<path d="M16.6 25.1997C16.0753 25.1975 15.5725 24.9892 15.2 24.6197L9.19995 18.6197L12 15.8397L16.4 20.1797L24.02 10.1797L27.2 12.5397L18.2 24.4197C18.0286 24.644 17.8116 24.8294 17.5634 24.9638C17.3153 25.0983 17.0414 25.1786 16.76 25.1997H16.6Z" fill="#CD2264"/>
<path d="M16.6 45.1997C16.0753 45.1975 15.5725 44.9892 15.2 44.6197L9.19995 38.6197L12 35.8397L16.4 40.1797L24.02 30.1797L27.2 32.5997L18.2 44.4197C18.0286 44.644 17.8116 44.8294 17.5634 44.9638C17.3153 45.0983 17.0414 45.1786 16.76 45.1997H16.6Z" fill="#CD2264"/>
<path d="M16.6 65.1997C16.0753 65.1975 15.5725 64.9892 15.2 64.6197L9.19995 58.6197L12 55.8397L16.4 60.1797L24.02 50.1797L27.2 52.5997L18.2 64.4197C18.0286 64.644 17.8116 64.8294 17.5634 64.9638C17.3153 65.0983 17.0414 65.1786 16.76 65.1997H16.6Z" fill="#CD2264"/>
<path d="M95 97H57.48C56.9495 97 56.4408 96.7893 56.0658 96.4142C55.6907 96.0391 55.48 95.5304 55.48 95V65C55.48 64.4696 55.6907 63.9609 56.0658 63.5858C56.4408 63.2107 56.9495 63 57.48 63H95.02C95.5504 63 96.0591 63.2107 96.4342 63.5858C96.8093 63.9609 97.02 64.4696 97.02 65V95C97.02 95.2643 96.9676 95.526 96.8659 95.77C96.7641 96.014 96.615 96.2354 96.4271 96.4213C96.2393 96.6073 96.0165 96.7542 95.7715 96.8535C95.5265 96.9529 95.2643 97.0026 95 97ZM59.48 93H93V67H59.5L59.48 93Z" fill="#CD2264"/>
<path d="M85.4601 65.2594V57.0194C85.465 55.8714 85.2351 54.7345 84.7845 53.6786C84.334 52.6227 83.6723 51.6701 82.8401 50.8794C81.0767 49.2021 78.7337 48.2706 76.3001 48.2794C73.8658 48.2588 71.5169 49.1754 69.7401 50.8394C68.9085 51.6044 68.2418 52.5311 67.781 53.5628C67.3201 54.5946 67.0748 55.7095 67.0601 56.8394V65.1394H63.0601V56.8394C63.0687 55.1472 63.4287 53.4752 64.1172 51.9294C64.8058 50.3836 65.8079 48.9976 67.0601 47.8594C69.5701 45.4595 72.928 44.1508 76.4001 44.2194C79.8352 44.2666 83.124 45.6178 85.6001 47.9994C86.8177 49.1644 87.7859 50.5646 88.446 52.1151C89.1061 53.6657 89.4443 55.3342 89.4401 57.0194V65.2594H85.4601Z" fill="#CD2264"/>
</svg>
