<svg width="100" height="100" viewBox="0 0 100 100" fill="none" xmlns="http://www.w3.org/2000/svg">
<g clip-path="url(#clip0_2385_8449)">
<path d="M100 0H0V100H100V0Z" fill="url(#paint0_linear_2385_8449)"/>
<path d="M48.96 64.0799C48.6455 64.0841 48.3409 63.9699 48.1067 63.7599C47.9645 63.6419 47.8484 63.4956 47.7658 63.3303C47.6832 63.1651 47.6358 62.9844 47.6267 62.7999L47.5333 60.4666C46.7216 60.3251 45.9232 60.1154 45.1467 59.8399L44 61.8132C43.9023 61.9723 43.7723 62.1091 43.6184 62.2147C43.4646 62.3204 43.2902 62.3926 43.1067 62.4266C42.9231 62.4604 42.7345 62.4553 42.5531 62.4117C42.3717 62.3681 42.2014 62.2868 42.0533 62.1732L36.9333 58.2932C36.7894 58.1807 36.6702 58.0397 36.5831 57.8792C36.4959 57.7186 36.4427 57.5419 36.4267 57.3599C36.4095 57.1771 36.4302 56.9928 36.4876 56.8184C36.5449 56.6441 36.6377 56.4834 36.76 56.3466L38.3333 54.6666C37.8519 53.9807 37.4325 53.2534 37.08 52.4932L34.8667 53.0266C34.6848 53.0699 34.4958 53.0744 34.3121 53.04C34.1283 53.0055 33.9538 52.9328 33.8 52.8266C33.6453 52.7219 33.5144 52.5859 33.4156 52.4275C33.3168 52.269 33.2525 52.0915 33.2267 51.9066L32.3867 45.5199C32.3605 45.3364 32.3728 45.1494 32.423 44.9709C32.4731 44.7924 32.56 44.6264 32.6779 44.4833C32.7958 44.3403 32.9423 44.2234 33.108 44.1402C33.2736 44.0569 33.4548 44.0092 33.64 43.9999L36 43.8532C36.108 42.9964 36.3 42.1524 36.5733 41.3332L34.6667 40.1599C34.5117 40.062 34.3785 39.9332 34.2756 39.7815C34.1726 39.6298 34.102 39.4585 34.0682 39.2783C34.0345 39.0982 34.0382 38.9129 34.0792 38.7343C34.1202 38.5556 34.1977 38.3873 34.3067 38.2399L38.16 33.0932C38.2715 32.9428 38.4134 32.8176 38.5765 32.7258C38.7396 32.6339 38.9203 32.5773 39.1067 32.5599C39.2935 32.5444 39.4815 32.5684 39.6584 32.6304C39.8353 32.6924 39.9971 32.7911 40.1333 32.9199L41.8 34.4666C42.474 33.9585 43.1925 33.5122 43.9467 33.1332L43.4267 30.8666C43.3853 30.6867 43.3817 30.5002 43.4161 30.3189C43.4505 30.1376 43.5222 29.9654 43.6267 29.8132C43.7298 29.6601 43.8637 29.53 44.0198 29.4314C44.1759 29.3327 44.3507 29.2675 44.5333 29.2399L50.84 28.3466C51.0252 28.322 51.2134 28.3366 51.3926 28.3894C51.5717 28.4422 51.7378 28.5321 51.88 28.6532C52.0221 28.7712 52.1382 28.9175 52.2209 29.0828C52.3035 29.2481 52.3509 29.4287 52.36 29.6132L52.4133 31.9999C53.2251 32.1414 54.0235 32.351 54.8 32.6266L56 30.6666C56.0977 30.5076 56.2277 30.3709 56.3816 30.2654C56.5355 30.1599 56.7098 30.0878 56.8933 30.0539C57.0768 30.0199 57.2654 30.0249 57.4468 30.0684C57.6282 30.112 57.7985 30.1931 57.9467 30.3066L63 34.1866C63.1463 34.2979 63.2681 34.4382 63.3576 34.5989C63.4471 34.7595 63.5024 34.9369 63.52 35.1199C63.5354 35.3036 63.5125 35.4885 63.4529 35.6629C63.3932 35.8373 63.298 35.9975 63.1733 36.1332L61.6267 37.8532C62.1014 38.534 62.5205 39.2518 62.88 39.9999L65.08 39.4799C65.2611 39.4373 65.449 39.4331 65.6318 39.4675C65.8146 39.5019 65.9882 39.5741 66.1414 39.6796C66.2946 39.7851 66.424 39.9215 66.5214 40.08C66.6187 40.2384 66.6818 40.4156 66.7067 40.5999L67.56 46.9732C67.5846 47.1584 67.57 47.3466 67.5172 47.5258C67.4643 47.705 67.3744 47.871 67.2533 48.0132C67.1353 48.1554 66.989 48.2715 66.8238 48.3541C66.6585 48.4367 66.4779 48.4841 66.2933 48.4932L64 48.6132C63.867 49.4542 63.6526 50.2803 63.36 51.0799L65.3067 52.3066C65.4617 52.4045 65.5948 52.5333 65.6978 52.685C65.8007 52.8366 65.8713 53.0079 65.9051 53.1881C65.9389 53.3683 65.9351 53.5535 65.8941 53.7322C65.8531 53.9109 65.7757 54.0791 65.6667 54.2266L61.8133 59.3732C61.701 59.5245 61.5578 59.6502 61.3933 59.7421C61.2288 59.834 61.0467 59.89 60.8589 59.9063C60.6712 59.9227 60.4822 59.8991 60.3042 59.8371C60.1263 59.7751 59.9635 59.6761 59.8267 59.5466L58.1733 57.9999C57.5033 58.5138 56.7843 58.9604 56.0267 59.3332L56.5467 61.5999C56.5893 61.78 56.5939 61.967 56.5604 62.1489C56.5268 62.3309 56.4557 62.5039 56.3516 62.6569C56.2475 62.81 56.1127 62.9396 55.9557 63.0377C55.7988 63.1357 55.6231 63.2001 55.44 63.2266L49.1467 64.1199L48.96 64.0799ZM44.6133 56.8399C44.802 56.8408 44.9883 56.8817 45.16 56.9599C46.3524 57.5035 47.6282 57.8416 48.9333 57.9599C49.2658 57.9899 49.5748 58.1436 49.7995 58.3904C50.0241 58.6373 50.148 58.9594 50.1467 59.2932L50.2267 61.2799L53.6267 60.7999L53.1867 58.8532C53.1141 58.539 53.1579 58.2092 53.3099 57.9249C53.4619 57.6405 53.7118 57.4208 54.0133 57.3066C55.2297 56.8119 56.3525 56.113 57.3333 55.2399C57.5775 55.0225 57.8931 54.9023 58.22 54.9023C58.5469 54.9023 58.8625 55.0225 59.1067 55.2399L60.52 56.5732L62.6667 53.7866L61.0133 52.7466C60.7399 52.5752 60.5378 52.3106 60.4447 52.0016C60.3515 51.6927 60.3735 51.3605 60.5067 51.0666C61.0598 49.8494 61.3981 48.5457 61.5067 47.2132C61.5353 46.892 61.6795 46.592 61.9124 46.3689C62.1453 46.1459 62.4512 46.0147 62.7733 45.9999L64.72 45.9199L64.2667 42.4399L62.4 42.8932C62.0803 42.9722 61.7427 42.9301 61.4522 42.775C61.1617 42.6199 60.9389 42.3628 60.8267 42.0532C60.3715 40.8207 59.7086 39.6753 58.8667 38.6666C58.6565 38.4241 58.5408 38.1141 58.5408 37.7932C58.5408 37.4724 58.6565 37.1623 58.8667 36.9199L60.2 35.4532L57.4933 33.3332L56.48 34.9999C56.3104 35.2789 56.0443 35.4859 55.7322 35.5817C55.4201 35.6776 55.0836 35.6556 54.7867 35.5199C53.5942 34.9763 52.3185 34.6382 51.0133 34.5199C50.6897 34.4943 50.3865 34.3515 50.1607 34.1183C49.9349 33.8851 49.8019 33.5775 49.7867 33.2532L49.7067 31.2799L46.3067 31.7599L46.7467 33.7066C46.8165 34.0171 46.7728 34.3425 46.6237 34.6237C46.4745 34.9049 46.2296 35.1235 45.9333 35.2399C44.7012 35.7198 43.5569 36.4001 42.5467 37.2532C42.3025 37.4706 41.9869 37.5908 41.66 37.5908C41.333 37.5908 41.0175 37.4706 40.7733 37.2532L39.36 35.9199L37.3333 38.6666L39 39.7066C39.2734 39.8779 39.4755 40.1425 39.5686 40.4515C39.6618 40.7604 39.6398 41.0926 39.5067 41.3866C38.9552 42.5996 38.617 43.8986 38.5067 45.2266C38.481 45.5502 38.3382 45.8533 38.105 46.0792C37.8718 46.305 37.5643 46.438 37.24 46.4532L35.28 46.5332L35.7467 50.0132L37.6267 49.5599C37.9444 49.4846 38.2788 49.5285 38.5664 49.6833C38.8539 49.8381 39.0746 50.0931 39.1867 50.3999C39.6431 51.6399 40.3058 52.7939 41.1467 53.8132C41.3568 54.0557 41.4725 54.3657 41.4725 54.6866C41.4725 55.0074 41.3568 55.3175 41.1467 55.5599L39.8133 57.0399L42.48 59.1466L43.5067 57.4666C43.6243 57.2782 43.7872 57.1222 43.9805 57.0128C44.1737 56.9033 44.3913 56.8439 44.6133 56.8399Z" fill="white"/>
<path d="M50.0933 54.8659C49.6064 54.8652 49.1204 54.8251 48.64 54.7459C46.4426 54.3758 44.4733 53.1711 43.1432 51.3833C41.8131 49.5955 41.2251 47.363 41.5021 45.152C41.7791 42.9409 42.8996 40.9224 44.6296 39.518C46.3596 38.1136 48.5653 37.4319 50.7861 37.6153C53.0068 37.7986 55.0708 38.8329 56.547 40.502C58.0233 42.1712 58.7975 44.3461 58.7081 46.5726C58.6187 48.7991 57.6725 50.905 56.0672 52.4504C54.4619 53.9958 52.3216 54.8612 50.0933 54.8659ZM50.0933 40.3059C48.9595 40.3064 47.8494 40.631 46.8939 41.2415C45.9384 41.852 45.1774 42.7229 44.7005 43.7517C44.2237 44.7804 44.0509 45.924 44.2025 47.0476C44.354 48.1713 44.8237 49.2282 45.5561 50.0938C46.2885 50.9594 47.2531 51.5975 48.3362 51.933C49.4193 52.2685 50.5757 52.2873 51.6692 51.9873C52.7626 51.6873 53.7475 51.081 54.5078 50.2397C55.268 49.3985 55.7719 48.3574 55.96 47.2393C56.215 45.6842 55.8453 44.0914 54.9312 42.8077C54.0172 41.5241 52.6329 40.6536 51.08 40.3859C50.7493 40.3326 50.4149 40.3059 50.08 40.3059H50.0933Z" fill="white"/>
<path d="M71.28 81.4793C70.9859 81.4928 70.6956 81.4085 70.4544 81.2397C70.2132 81.0708 70.0347 80.8269 69.9467 80.546L69.5334 79.2126C68.6166 79.1067 67.719 78.8733 66.8667 78.5193L65.8667 79.4793C65.6175 79.7236 65.2824 79.8605 64.9334 79.8605C64.5844 79.8605 64.2493 79.7236 64 79.4793L60.6667 76.0793C60.4224 75.8301 60.2856 75.495 60.2856 75.146C60.2856 74.797 60.4224 74.4619 60.6667 74.2126L61.6134 73.1993C61.2497 72.3485 61.0073 71.4509 60.8934 70.5326L59.56 70.1326C59.2434 70.0309 58.9762 69.8145 58.8109 69.5258C58.6457 69.2372 58.5942 68.8972 58.6667 68.5726L59.8934 63.8926C59.9815 63.558 60.1964 63.2708 60.4925 63.0916C60.7886 62.9125 61.1427 62.8555 61.48 62.9326L62.8134 63.2393C63.081 62.8759 63.3752 62.5328 63.6934 62.2126C63.9998 61.9 64.3248 61.6061 64.6667 61.3326L64.3334 59.9993C64.2518 59.6619 64.3051 59.3059 64.4819 59.0071C64.6586 58.7083 64.945 58.4903 65.28 58.3993L69.9467 57.066C70.2808 56.9744 70.6374 57.0165 70.941 57.1832C71.2446 57.3499 71.4714 57.6283 71.5734 57.9593L71.9867 59.2926C72.9096 59.3968 73.8124 59.6348 74.6667 59.9993L75.6667 59.0393C75.9153 58.799 76.2476 58.6647 76.5934 58.6647C76.9392 58.6647 77.2714 58.799 77.52 59.0393L80.96 62.426C81.2004 62.6746 81.3347 63.0069 81.3347 63.3526C81.3347 63.6984 81.2004 64.0307 80.96 64.2793L80 65.3326C80.368 66.1829 80.6148 67.0805 80.7334 67.9993L82.0667 68.3993C82.3997 68.4958 82.682 68.7183 82.8538 69.0195C83.0255 69.3207 83.0732 69.6769 82.9867 70.0126L81.76 74.666C81.6719 75.0006 81.457 75.2879 81.1609 75.467C80.8649 75.6461 80.5107 75.7032 80.1734 75.626L78.84 75.3193C78.5638 75.6797 78.2655 76.0226 77.9467 76.346C77.625 76.6657 77.2868 76.9684 76.9334 77.2526L77.2534 78.586C77.3354 78.9216 77.284 79.276 77.1099 79.5745C76.9358 79.873 76.6526 80.0922 76.32 80.186L71.6534 81.5193C71.5276 81.5271 71.4013 81.5136 71.28 81.4793ZM66.6667 75.5993C66.8901 75.5982 67.1101 75.6532 67.3067 75.7593C68.3132 76.2955 69.4331 76.5834 70.5734 76.5993C70.8556 76.6041 71.129 76.6984 71.3542 76.8685C71.5795 77.0386 71.7449 77.2758 71.8267 77.546L72.1334 78.5193L74.3067 77.9193L74.0667 76.946C73.9998 76.6714 74.0218 76.3827 74.1297 76.1215C74.2375 75.8602 74.4256 75.64 74.6667 75.4926C75.6312 74.8749 76.4463 74.0506 77.0534 73.0793C77.1973 72.8409 77.4123 72.6535 77.6682 72.5435C77.9241 72.4335 78.208 72.4064 78.48 72.466L79.4667 72.6926L80.04 70.506L79.0534 70.2126C78.7829 70.1339 78.5443 69.9715 78.3718 69.7487C78.1993 69.5259 78.1019 69.2543 78.0934 68.9726C78.0632 67.8277 77.7567 66.707 77.2 65.706C77.0651 65.4612 77.0105 65.1801 77.044 64.9025C77.0775 64.625 77.1974 64.365 77.3867 64.1593L78.08 63.4126L76.48 61.8393L75.7467 62.546C75.5425 62.7374 75.2833 62.8598 75.0057 62.8957C74.7281 62.9316 74.4462 62.8792 74.2 62.746C73.1867 62.2134 72.0644 61.9214 70.92 61.8926C70.6395 61.8887 70.3673 61.7964 70.1423 61.6288C69.9173 61.4613 69.7508 61.227 69.6667 60.9593L69.4 59.9993L67.2267 60.5993L67.4667 61.5726C67.5349 61.8458 67.5148 62.1335 67.4094 62.3946C67.3041 62.6557 67.1187 62.8767 66.88 63.026C66.3949 63.3274 65.9473 63.6855 65.5467 64.0926C65.1473 64.4967 64.794 64.9439 64.4934 65.426C64.3486 65.667 64.1314 65.856 63.8728 65.9662C63.6142 66.0763 63.3274 66.1019 63.0534 66.0393L62.08 65.8126L61.5067 67.9993L62.48 68.2926C62.7505 68.3714 62.9891 68.5338 63.1616 68.7566C63.3341 68.9794 63.4315 69.251 63.44 69.5326C63.4764 70.6767 63.7825 71.796 64.3334 72.7993C64.4683 73.0441 64.5229 73.3252 64.4894 73.6027C64.4559 73.8803 64.336 74.1403 64.1467 74.346L63.4667 75.0793L65.0667 76.6526L65.7867 75.9593C66.0258 75.7353 66.3391 75.6071 66.6667 75.5993Z" fill="white"/>
<path d="M70.7868 74.4526C69.7589 74.4576 68.7528 74.157 67.896 73.5891C67.0393 73.0212 66.3706 72.2116 65.9749 71.2629C65.5792 70.3143 65.4742 69.2695 65.6734 68.2611C65.8725 67.2527 66.3668 66.3263 67.0934 65.5993C67.6942 64.9908 68.4359 64.5398 69.2526 64.2864C70.0693 64.0329 70.9359 63.9848 71.7757 64.1463C72.6155 64.3078 73.4025 64.6739 74.0669 65.2122C74.7314 65.7504 75.2529 66.4443 75.5852 67.2323C75.9174 68.0202 76.0502 68.878 75.9718 69.7295C75.8934 70.5811 75.6062 71.4001 75.1357 72.1142C74.6651 72.8282 74.0257 73.4152 73.2741 73.8231C72.5225 74.231 71.6819 74.4472 70.8268 74.4526H70.7868ZM68.9868 67.4793C68.6381 67.835 68.402 68.2856 68.308 68.7748C68.2141 69.264 68.2664 69.77 68.4585 70.2296C68.6506 70.6892 68.9739 71.0819 69.388 71.3587C69.8021 71.6356 70.2886 71.7842 70.7868 71.786C71.455 71.7764 72.0924 71.5033 72.5601 71.026C72.8016 70.7948 72.9945 70.5176 73.1273 70.2108C73.2601 69.9039 73.3302 69.5736 73.3334 69.2393C73.3352 68.9066 73.2699 68.577 73.1417 68.2701C73.0134 67.9631 72.8247 67.6851 72.5868 67.4526C72.3514 67.2168 72.0719 67.0297 71.7642 66.902C71.4565 66.7744 71.1266 66.7086 70.7934 66.7086C70.4603 66.7086 70.1304 66.7744 69.8227 66.902C69.5149 67.0297 69.2354 67.2168 69.0001 67.4526L68.9868 67.4793Z" fill="white"/>
<path d="M75.4667 33.8663L73.0934 35.0797C70.607 30.2117 66.6475 26.2529 61.7792 23.7673C56.9109 21.2817 51.3823 20.3962 45.9812 21.237C40.5801 22.0778 35.5823 24.6021 31.6999 28.4499C27.8176 32.2978 25.249 37.273 24.36 42.6663L26.6667 40.333L28.56 42.213L23.8934 46.8797L23.6 47.173C23.4766 47.299 23.3293 47.3992 23.1668 47.4679C23.0043 47.5365 22.8298 47.5723 22.6534 47.573C22.477 47.5723 22.3025 47.5365 22.14 47.4679C21.9774 47.3992 21.8302 47.299 21.7067 47.173L16.7467 42.213L18.6667 40.333L21.6 43.253C22.506 36.3822 25.8885 30.0782 31.1125 25.5243C36.3366 20.9704 43.0432 18.4797 49.9734 18.5197C55.2291 18.4559 60.3986 19.8581 64.9017 22.5689C69.4048 25.2798 73.0633 29.1919 75.4667 33.8663Z" fill="white"/>
<path d="M21.3467 46.7861L21.44 46.8795H21.3467V46.7861Z" fill="white"/>
<path d="M24.0134 46.7861V46.8795H23.92L24.0134 46.7861Z" fill="white"/>
<path d="M83.2267 50.4267L81.3334 52.32L78.5334 49.5067C78.2963 52.0413 77.727 54.5338 76.8401 56.92L74.3467 56C75.0796 54.0079 75.5719 51.9355 75.8134 49.8267L73.3334 52.32L71.4401 50.4267L76.4001 45.4667C76.524 45.3417 76.6715 45.2425 76.834 45.1748C76.9964 45.1071 77.1707 45.0723 77.3467 45.0723C77.5227 45.0723 77.697 45.1071 77.8595 45.1748C78.022 45.2425 78.1694 45.3417 78.2934 45.4667L83.2267 50.4267Z" fill="white"/>
<path d="M50.04 75.0402C44.7584 75.0527 39.5771 73.5983 35.0736 70.8392C30.57 68.0801 26.921 64.1246 24.5333 59.4135L26.9067 58.2002C29.5942 63.5135 34.0292 67.7394 39.4659 70.1676C44.9026 72.5958 51.0095 73.0781 56.76 71.5335L57.4667 74.1069C55.0436 74.7469 52.546 75.0608 50.04 75.0402Z" fill="white"/>
</g>
<defs>
<linearGradient id="paint0_linear_2385_8449" x1="-20.7067" y1="120.72" x2="120.72" y2="-20.7067" gradientUnits="userSpaceOnUse">
<stop stop-color="#B0084D"/>
<stop offset="1" stop-color="#FF4F8B"/>
</linearGradient>
<clipPath id="clip0_2385_8449">
<rect width="100" height="100" fill="white"/>
</clipPath>
</defs>
</svg>
