<svg width="100" height="100" viewBox="0 0 100 100" fill="none" xmlns="http://www.w3.org/2000/svg">
<g clip-path="url(#clip0_2385_8445)">
<path d="M100 0H0V100H100V0Z" fill="url(#paint0_linear_2385_8445)"/>
<path d="M74 16.667H18C17.6463 16.667 17.3072 16.8075 17.0572 17.0575C16.8071 17.3076 16.6666 17.6467 16.6666 18.0003V68.667C16.6666 69.0206 16.8071 69.3597 17.0572 69.6098C17.3072 69.8598 17.6463 70.0003 18 70.0003H45.3333C45.1187 69.124 44.9716 68.2325 44.8933 67.3337H19.3333V19.3337H72.6666V46.0003C73.5851 46.3364 74.4765 46.742 75.3333 47.2137V18.0003C75.3333 17.6467 75.1928 17.3076 74.9428 17.0575C74.6927 16.8075 74.3536 16.667 74 16.667Z" fill="white"/>
<path d="M68.6666 28.6667H67.3333V23.3333C67.3333 22.9797 67.1928 22.6406 66.9428 22.3905C66.6927 22.1405 66.3536 22 66 22H60.6666C60.313 22 59.9739 22.1405 59.7238 22.3905C59.4738 22.6406 59.3333 22.9797 59.3333 23.3333V28.6667H58C57.6463 28.6667 57.3072 28.8071 57.0571 29.0572C56.8071 29.3072 56.6666 29.6464 56.6666 30V35.3333C56.6666 35.687 56.8071 36.0261 57.0571 36.2761C57.3072 36.5262 57.6463 36.6667 58 36.6667H59.3333V45.6C60.2047 45.3194 61.0961 45.1055 62 44.96V36.6667H64.6666V44.6667H65.4533C66.0812 44.6638 66.7088 44.695 67.3333 44.76V36.6667H68.6666C69.0202 36.6667 69.3594 36.5262 69.6094 36.2761C69.8595 36.0261 70 35.687 70 35.3333V30C70 29.6464 69.8595 29.3072 69.6094 29.0572C69.3594 28.8071 69.0202 28.6667 68.6666 28.6667ZM62 24.6667H64.6666V28.6667H62V24.6667ZM67.3333 34H59.3333V31.3333H67.3333V34Z" fill="white"/>
<path d="M51.3332 43.3333H49.9999V23.3333C49.9999 22.9797 49.8594 22.6406 49.6094 22.3905C49.3593 22.1405 49.0202 22 48.6666 22H43.3333C43.1524 21.9998 42.9734 22.0363 42.8071 22.1075C42.6409 22.1786 42.4908 22.2828 42.3661 22.4138C42.2413 22.5448 42.1446 22.6997 42.0816 22.8693C42.0187 23.0388 41.9909 23.2194 41.9999 23.4V43.4H40.6666C40.313 43.4 39.9738 43.5405 39.7238 43.7905C39.4737 44.0406 39.3333 44.3797 39.3333 44.7333V50.0667C39.3333 50.4203 39.4737 50.7594 39.7238 51.0095C39.9738 51.2595 40.313 51.4 40.6666 51.4H41.9999V63.4C41.9999 63.7536 42.1404 64.0928 42.3904 64.3428C42.6405 64.5929 42.9796 64.7333 43.3333 64.7333H44.8532C44.8769 63.8397 44.9615 62.9487 45.1066 62.0667H44.6666V51.4H47.3332V55.48C48.0725 54.1188 48.9674 52.848 49.9999 51.6933V51.3333H50.2666C51.0038 50.5222 51.8065 49.773 52.6666 49.0933V44.6667C52.6666 44.313 52.5261 43.9739 52.2761 43.7239C52.026 43.4738 51.6869 43.3333 51.3332 43.3333ZM44.6666 24.6667H47.3332V43.3333H44.6666V24.6667ZM49.9999 48.6667H41.9999V46H49.9999V48.6667Z" fill="white"/>
<path d="M34 32.6667H32.6667V23.3333C32.6667 22.9797 32.5262 22.6406 32.2761 22.3905C32.0261 22.1405 31.687 22 31.3333 22H26C25.6464 22 25.3072 22.1405 25.0572 22.3905C24.8071 22.6406 24.6667 22.9797 24.6667 23.3333V32.6667H23.3333C22.9797 32.6667 22.6406 32.8071 22.3905 33.0572C22.1405 33.3072 22 33.6464 22 34V39.3333C22 39.687 22.1405 40.0261 22.3905 40.2761C22.6406 40.5262 22.9797 40.6667 23.3333 40.6667H24.6667V63.3333C24.6667 63.687 24.8071 64.0261 25.0572 64.2761C25.3072 64.5262 25.6464 64.6667 26 64.6667H31.3333C31.687 64.6667 32.0261 64.5262 32.2761 64.2761C32.5262 64.0261 32.6667 63.687 32.6667 63.3333V40.6667H34C34.3536 40.6667 34.6928 40.5262 34.9428 40.2761C35.1929 40.0261 35.3333 39.687 35.3333 39.3333V34C35.3333 33.6464 35.1929 33.3072 34.9428 33.0572C34.6928 32.8071 34.3536 32.6667 34 32.6667ZM27.3333 24.6667H30V32.6667H27.3333V24.6667ZM30 62H27.3333V40.6667H30V62ZM32.6667 38H24.6667V35.3333H32.6667V38Z" fill="white"/>
<path d="M82.9199 61.054C82.7868 60.9286 82.6294 60.832 82.4574 60.7701C82.2853 60.7081 82.1024 60.6822 81.9199 60.694L80.2399 60.7873C79.9467 59.8286 79.5628 58.8999 79.0933 58.014L80.3466 56.8807C80.4837 56.7638 80.5939 56.6187 80.6699 56.4553C80.7458 56.292 80.7856 56.1142 80.7866 55.934C80.793 55.7519 80.762 55.5703 80.6955 55.4006C80.629 55.2309 80.5284 55.0766 80.3999 54.9473L75.7199 50.2673C75.4535 50.014 75.1009 49.8711 74.7333 49.8673C74.5507 49.8731 74.3714 49.9164 74.2062 49.9943C74.0411 50.0723 73.8937 50.1834 73.7733 50.3207L72.6533 51.5873C71.7693 51.1103 70.8403 50.7217 69.8799 50.4273L69.9733 48.7473C69.985 48.5649 69.9592 48.382 69.8972 48.2099C69.8353 48.0379 69.7386 47.8804 69.6133 47.7473C69.4878 47.6157 69.3367 47.5111 69.1693 47.4401C69.002 47.369 68.8218 47.3329 68.6399 47.334H61.9733C61.7912 47.3337 61.6111 47.3706 61.4439 47.4426C61.2766 47.5145 61.1259 47.62 61.001 47.7524C60.8761 47.8848 60.7796 48.0414 60.7175 48.2125C60.6554 48.3836 60.629 48.5656 60.6399 48.7473L60.7333 50.4273C59.7745 50.7206 58.8458 51.1045 57.9599 51.574L56.8266 50.3207C56.7062 50.1834 56.5588 50.0723 56.3937 49.9943C56.2285 49.9164 56.0491 49.8731 55.8666 49.8673C55.6857 49.8645 55.5061 49.8985 55.3388 49.9673C55.1715 50.036 55.0199 50.1381 54.8933 50.2673L50.2666 54.9473C50.1357 55.0755 50.0327 55.2293 49.9639 55.399C49.895 55.5688 49.8619 55.7509 49.8666 55.934C49.8742 56.1143 49.9183 56.2911 49.9962 56.4538C50.0741 56.6165 50.1843 56.7618 50.3199 56.8807L51.5733 58.014C51.1038 58.8999 50.7198 59.8286 50.4266 60.7873L48.7466 60.694C48.5642 60.6822 48.3812 60.7081 48.2092 60.7701C48.0372 60.832 47.8797 60.9286 47.7466 61.054C47.615 61.1795 47.5104 61.3306 47.4393 61.498C47.3682 61.6653 47.3322 61.8455 47.3333 62.0273V68.694C47.3322 68.8759 47.3682 69.056 47.4393 69.2234C47.5104 69.3908 47.615 69.5419 47.7466 69.6673C47.8797 69.7927 48.0372 69.8894 48.2092 69.9513C48.3812 70.0132 48.5642 70.0391 48.7466 70.0273L50.4133 69.934C50.7076 70.8987 51.0961 71.8321 51.5733 72.7207L50.3199 73.8407C50.1843 73.9596 50.0741 74.1048 49.9962 74.2675C49.9183 74.4303 49.8742 74.6071 49.8666 74.7873C49.8619 74.9705 49.895 75.1526 49.9639 75.3223C50.0327 75.4921 50.1357 75.6459 50.2666 75.774L54.9466 80.454C55.0732 80.5832 55.2248 80.6853 55.3921 80.7541C55.5595 80.8229 55.7391 80.8569 55.9199 80.854C56.1025 80.8482 56.2819 80.805 56.447 80.727C56.6121 80.649 56.7595 80.538 56.8799 80.4007L57.9999 79.1473C58.8885 79.6245 59.8219 80.013 60.7866 80.3073L60.6933 81.974C60.6824 82.1557 60.7088 82.3377 60.7709 82.5089C60.833 82.68 60.9294 82.8366 61.0544 82.969C61.1793 83.1014 61.33 83.2068 61.4972 83.2788C61.6644 83.3507 61.8446 83.3877 62.0266 83.3873H68.6933C68.8751 83.3885 69.0553 83.3524 69.2227 83.2813C69.3901 83.2102 69.5411 83.1056 69.6666 82.974C69.792 82.8409 69.8886 82.6835 69.9506 82.5114C70.0125 82.3394 70.0384 82.1565 70.0266 81.974L69.9333 80.3073C70.898 80.013 71.8314 79.6245 72.7199 79.1473L73.8266 80.4007C73.9471 80.538 74.0944 80.649 74.2595 80.727C74.4247 80.805 74.6041 80.8482 74.7866 80.854C75.1548 80.853 75.5083 80.7097 75.7733 80.454L80.4533 75.774C80.5817 75.6447 80.6823 75.4904 80.7488 75.3207C80.8154 75.151 80.8464 74.9695 80.8399 74.7873C80.8389 74.6072 80.7991 74.4294 80.7232 74.266C80.6473 74.1027 80.537 73.9576 80.3999 73.8407L79.1466 72.7207C79.6139 71.8291 79.9977 70.8963 80.2933 69.934L81.9733 70.0273C82.1557 70.0391 82.3387 70.0132 82.5107 69.9513C82.6827 69.8894 82.8402 69.7927 82.9733 69.6673C83.1049 69.5419 83.2095 69.3908 83.2806 69.2234C83.3516 69.056 83.3877 68.8759 83.3866 68.694V62.0273C83.381 61.8415 83.3365 61.659 83.2562 61.4913C83.1758 61.3237 83.0613 61.1748 82.9199 61.054ZM80.6666 67.2407L79.3333 67.1607C79.0251 67.1531 78.7238 67.2527 78.4807 67.4423C78.2376 67.6319 78.0677 67.8999 77.9999 68.2007C77.6755 69.619 77.1119 70.9716 76.3333 72.2007C76.1648 72.4675 76.0965 72.7855 76.1405 73.098C76.1844 73.4105 76.3378 73.6973 76.5733 73.9073L77.5866 74.8007L74.9199 77.4673L74.0266 76.454C73.8165 76.2185 73.5298 76.0651 73.2173 76.0212C72.9048 75.9773 72.5868 76.0456 72.3199 76.214C71.0904 76.9946 69.7381 77.5625 68.3199 77.894C68.0216 77.9644 67.7567 78.1354 67.5697 78.3783C67.3827 78.6211 67.2851 78.921 67.2933 79.2273L67.3599 80.5607H63.4266L63.5066 79.2273C63.5141 78.9191 63.4146 78.6178 63.225 78.3747C63.0354 78.1316 62.7674 77.9617 62.4666 77.894C61.0496 77.5589 59.6979 76.9912 58.4666 76.214C58.1997 76.0456 57.8818 75.9773 57.5693 76.0212C57.2568 76.0651 56.97 76.2185 56.7599 76.454L55.8666 77.4673L53.1999 74.8007L54.2133 73.9073C54.4488 73.6973 54.6021 73.4105 54.6461 73.098C54.69 72.7855 54.6217 72.4675 54.4533 72.2007C53.6726 70.9727 53.1088 69.6197 52.7866 68.2007C52.7189 67.8999 52.549 67.6319 52.3059 67.4423C52.0628 67.2527 51.7615 67.1531 51.4533 67.1607L50.1199 67.2407V63.4273L51.4533 63.5073C51.7615 63.5149 52.0628 63.4154 52.3059 63.2257C52.549 63.0361 52.7189 62.7681 52.7866 62.4673C53.1073 61.0478 53.6711 59.6945 54.4533 58.4673C54.6217 58.2005 54.69 57.8825 54.6461 57.57C54.6021 57.2575 54.4488 56.9707 54.2133 56.7607L53.1999 55.854L55.8666 53.1873L56.7733 54.2007C56.9833 54.4362 57.2701 54.5895 57.5826 54.6335C57.8951 54.6774 58.2131 54.6091 58.4799 54.4407C59.7135 53.6707 61.0647 53.1077 62.4799 52.774C62.7807 52.7063 63.0487 52.5364 63.2383 52.2933C63.428 52.0502 63.5275 51.7489 63.5199 51.4407L63.4399 50.1073H67.2399L67.1733 51.4407C67.1651 51.7471 67.2627 52.0469 67.4497 52.2898C67.6367 52.5326 67.9016 52.7036 68.1999 52.774C69.619 53.0962 70.972 53.66 72.1999 54.4407C72.4668 54.6091 72.7848 54.6774 73.0973 54.6335C73.4098 54.5895 73.6966 54.4362 73.9066 54.2007L74.8133 53.174L77.4799 55.8407L76.4666 56.7473C76.2311 56.9574 76.0777 57.2442 76.0338 57.5567C75.9899 57.8692 76.0582 58.1871 76.2266 58.454C77.0032 59.6841 77.5666 61.0364 77.8933 62.454C77.961 62.7548 78.1309 63.0228 78.374 63.2124C78.6171 63.402 78.9184 63.5015 79.2266 63.494L80.5599 63.414L80.6666 67.2407Z" fill="white"/>
<path d="M75.36 59.7204L73.6266 63.827C73.5246 64.068 73.3538 64.2737 73.1357 64.4183C72.9175 64.5629 72.6617 64.6401 72.4 64.6404H72.2533L67.8133 64.1737L68.0933 61.507L70.12 61.7204C69.4287 60.7879 68.4808 60.0769 67.392 59.6746C66.3032 59.2722 65.1208 59.1957 63.9892 59.4545C62.8577 59.7134 61.8261 60.2963 61.0205 61.132C60.215 61.9677 59.6704 63.0201 59.4533 64.1604L56.7866 63.627C57.1188 61.9957 57.9151 60.4952 59.0799 59.3058C60.2447 58.1164 61.7283 57.2888 63.3523 56.9226C64.9763 56.5564 66.6715 56.6671 68.234 57.2415C69.7965 57.8159 71.1598 58.8295 72.16 60.1604L72.8933 58.667L75.36 59.7204Z" fill="white"/>
<path d="M73.8533 67.0936C73.5298 68.686 72.7638 70.1548 71.6432 71.3315C70.5227 72.5082 69.093 73.3451 67.5184 73.7461C65.9438 74.147 64.288 74.0958 62.7411 73.5984C61.1943 73.1009 59.819 72.1773 58.7733 70.9336L58.48 72.0536L55.8933 71.3603L57.0533 67.0136C57.1382 66.6957 57.3377 66.4204 57.6134 66.2407C57.8891 66.0611 58.2215 65.9897 58.5466 66.0403L62.8133 66.6803L62.4133 69.347L60.7066 69.0936C61.4098 69.9902 62.3553 70.6664 63.431 71.0421C64.5067 71.4178 65.6676 71.4773 66.7761 71.2135C67.8845 70.9497 68.8942 70.3737 69.6853 69.5537C70.4765 68.7338 71.016 67.7042 71.24 66.587L73.8533 67.0936Z" fill="white"/>
</g>
<defs>
<linearGradient id="paint0_linear_2385_8445" x1="-20.72" y1="120.72" x2="120.707" y2="-20.7067" gradientUnits="userSpaceOnUse">
<stop stop-color="#B0084D"/>
<stop offset="1" stop-color="#FF4F8B"/>
</linearGradient>
<clipPath id="clip0_2385_8445">
<rect width="100" height="100" fill="white"/>
</clipPath>
</defs>
</svg>
