<svg width="100" height="100" viewBox="0 0 100 100" fill="none" xmlns="http://www.w3.org/2000/svg">
<path d="M78.74 82.9395H26.74C26.0007 82.9373 25.2711 82.7706 24.6043 82.4514C23.9374 82.1322 23.35 81.6685 22.8846 81.094C22.4193 80.5195 22.0877 79.8486 21.9139 79.13C21.7402 78.4114 21.7286 77.6631 21.88 76.9395L33.74 20.9395C33.9698 19.8134 34.5805 18.801 35.4693 18.0725C36.3581 17.3439 37.4708 16.9438 38.62 16.9395H90.62C91.3593 16.9416 92.0889 17.1083 92.7557 17.4275C93.4226 17.7467 94.01 18.2104 94.4753 18.7849C94.9407 19.3594 95.2723 20.0303 95.4461 20.7489C95.6198 21.4675 95.6314 22.2158 95.48 22.9395L83.62 78.9395C83.3902 80.0655 82.7795 81.0779 81.8907 81.8064C81.0019 82.535 79.8892 82.9351 78.74 82.9395ZM38.58 21.0595C38.3547 21.0593 38.1362 21.1368 37.9614 21.2789C37.7865 21.4209 37.666 21.6189 37.62 21.8395L25.76 77.8394C25.7271 77.9823 25.7281 78.1308 25.7628 78.2732C25.7975 78.4155 25.865 78.5478 25.96 78.6595C26.0458 78.774 26.1577 78.8664 26.2864 78.929C26.4151 78.9916 26.5569 79.0226 26.7 79.0194H78.7C78.9253 79.0196 79.1437 78.9421 79.3186 78.8C79.4935 78.658 79.614 78.46 79.66 78.2394L91.52 22.2395C91.5541 22.0981 91.5556 21.9508 91.5244 21.8087C91.4932 21.6667 91.4301 21.5336 91.34 21.4195C91.248 21.3068 91.132 21.2161 91.0006 21.1538C90.8691 21.0915 90.7254 21.0593 90.58 21.0595H38.58Z" fill="#CD2264"/>
<path d="M91.92 28.1992H33.8V32.1992H91.92V28.1992Z" fill="#CD2264"/>
<path d="M75.22 58.5605H37.34L42.1 39.5605H80L75.22 58.5605ZM42.48 54.5605H72.1L74.84 43.5605H45.22L42.48 54.5605Z" fill="#CD2264"/>
<path d="M28.68 28.3203H2.42004V32.3203H28.68V28.3203Z" fill="#CD2264"/>
<path d="M24.92 41.4395H2.42004V45.4395H24.92V41.4395Z" fill="#CD2264"/>
<path d="M21.18 54.5605H2.42004V58.5605H21.18V54.5605Z" fill="#CD2264"/>
</svg>
