<svg width="100" height="100" viewBox="0 0 100 100" fill="none" xmlns="http://www.w3.org/2000/svg">
<g clip-path="url(#clip0_2385_8430)">
<path d="M100 0H0V100H100V0Z" fill="url(#paint0_linear_2385_8430)"/>
<path d="M76.6667 83.3337H68.6667C68.313 83.3337 67.9739 83.1932 67.7239 82.9432C67.4738 82.6931 67.3333 82.354 67.3333 82.0004V68.667C67.3333 68.3134 67.4738 67.9743 67.7239 67.7242C67.9739 67.4742 68.313 67.3337 68.6667 67.3337H71.3333V64.667H51.3333V67.3337H54C54.3536 67.3337 54.6928 67.4742 54.9428 67.7242C55.1929 67.9743 55.3333 68.3134 55.3333 68.667V82.0004C55.3333 82.354 55.1929 82.6931 54.9428 82.9432C54.6928 83.1932 54.3536 83.3337 54 83.3337H46C45.6464 83.3337 45.3072 83.1932 45.0572 82.9432C44.8071 82.6931 44.6667 82.354 44.6667 82.0004V68.667C44.6667 68.3134 44.8071 67.9743 45.0572 67.7242C45.3072 67.4742 45.6464 67.3337 46 67.3337H48.6667V64.667H28.6667V67.3337H31.3333C31.687 67.3337 32.0261 67.4742 32.2761 67.7242C32.5262 67.9743 32.6667 68.3134 32.6667 68.667V82.0004C32.6667 82.354 32.5262 82.6931 32.2761 82.9432C32.0261 83.1932 31.687 83.3337 31.3333 83.3337H23.3333C22.9797 83.3337 22.6406 83.1932 22.3905 82.9432C22.1405 82.6931 22 82.354 22 82.0004V68.667C22 68.3134 22.1405 67.9743 22.3905 67.7242C22.6406 67.4742 22.9797 67.3337 23.3333 67.3337H26V63.3337C26 62.9801 26.1405 62.6409 26.3905 62.3909C26.6406 62.1408 26.9797 62.0004 27.3333 62.0004H48.6667V56.667H51.3333V62.0004H72.6667C73.0203 62.0004 73.3594 62.1408 73.6095 62.3909C73.8595 62.6409 74 62.9801 74 63.3337V67.3337H76.6667C77.0203 67.3337 77.3594 67.4742 77.6095 67.7242C77.8595 67.9743 78 68.3134 78 68.667V82.0004C78 82.354 77.8595 82.6931 77.6095 82.9432C77.3594 83.1932 77.0203 83.3337 76.6667 83.3337ZM70 80.667H75.3333V70.0004H70V80.667ZM47.3333 80.667H52.6667V70.0004H47.3333V80.667ZM24.6667 80.667H30V70.0004H24.6667V80.667ZM53.44 54.0004H46.56C46.3781 54.0015 46.198 53.9654 46.0306 53.8943C45.8632 53.8232 45.7121 53.7186 45.5867 53.587C45.463 53.4555 45.3673 53.3002 45.3054 53.1306C45.2435 52.961 45.2167 52.7806 45.2267 52.6004L45.3333 50.8004C44.3088 50.4896 43.3173 50.0788 42.3733 49.5737L41.1867 50.907C41.0683 51.0458 40.9211 51.1571 40.7553 51.2331C40.5895 51.3091 40.4091 51.3479 40.2267 51.347C40.0467 51.3516 39.8677 51.3197 39.7004 51.2533C39.5332 51.1868 39.3811 51.0872 39.2533 50.9604L34.3733 46.0937C34.2422 45.9691 34.1378 45.8192 34.0665 45.653C33.9951 45.4868 33.9583 45.3079 33.9583 45.127C33.9583 44.9462 33.9951 44.7672 34.0665 44.601C34.1378 44.4348 34.2422 44.2849 34.3733 44.1604L35.7067 42.9604C35.2181 42.0152 34.8251 41.0236 34.5333 40.0004L32.7467 40.107C32.565 40.1179 32.3829 40.0915 32.2118 40.0294C32.0407 39.9673 31.8841 39.8709 31.7517 39.7459C31.6193 39.621 31.5139 39.4703 31.4419 39.3031C31.37 39.1359 31.333 38.9557 31.3333 38.7737V31.8804C31.333 31.6983 31.37 31.5181 31.4419 31.3509C31.5139 31.1837 31.6193 31.033 31.7517 30.9081C31.8841 30.7832 32.0407 30.6867 32.2118 30.6246C32.3829 30.5625 32.565 30.5361 32.7467 30.547L34.5333 30.667C34.8393 29.6451 35.2504 28.6576 35.76 27.7204L34.4267 26.5204C34.2918 26.3987 34.1832 26.2508 34.1076 26.0858C34.0319 25.9207 33.9908 25.7419 33.9867 25.5604C33.9821 25.3804 34.014 25.2014 34.0804 25.0341C34.1469 24.8668 34.2465 24.7148 34.3733 24.587L39.2533 19.707C39.3811 19.5802 39.5332 19.4806 39.7004 19.4141C39.8677 19.3477 40.0467 19.3158 40.2267 19.3204C40.4082 19.3245 40.587 19.3656 40.7521 19.4413C40.9172 19.5169 41.065 19.6255 41.1867 19.7604L42.3867 21.0937C43.3261 20.5887 44.3131 20.1778 45.3333 19.867L45.24 18.0804C45.2282 17.8979 45.2541 17.715 45.3161 17.5429C45.378 17.3709 45.4746 17.2134 45.6 17.0804C45.7255 16.9487 45.8766 16.8441 46.0439 16.7731C46.2113 16.702 46.3915 16.6659 46.5733 16.667H53.4533C53.6352 16.6659 53.8153 16.702 53.9827 16.7731C54.1501 16.8441 54.3012 16.9487 54.4267 17.0804C54.552 17.2134 54.6487 17.3709 54.7106 17.5429C54.7725 17.715 54.7984 17.8979 54.7867 18.0804L54.6667 19.867C55.6848 20.1836 56.6713 20.5943 57.6133 21.0937L58.8133 19.7604C58.935 19.6255 59.0828 19.5169 59.2479 19.4413C59.413 19.3656 59.5918 19.3245 59.7733 19.3204C59.9533 19.3158 60.1323 19.3477 60.2996 19.4141C60.4668 19.4806 60.6189 19.5802 60.7467 19.707L65.6267 24.587C65.7535 24.7148 65.8531 24.8668 65.9196 25.0341C65.986 25.2014 66.0179 25.3804 66.0133 25.5604C66.0092 25.7419 65.9681 25.9207 65.8924 26.0858C65.8168 26.2508 65.7082 26.3987 65.5733 26.5204L64.24 27.7204C64.7496 28.6576 65.1607 29.6451 65.4667 30.667L67.2533 30.5737C67.4358 30.5619 67.6187 30.5878 67.7908 30.6497C67.9628 30.7117 68.1202 30.8083 68.2533 30.9337C68.3833 31.0576 68.487 31.2065 68.558 31.3715C68.629 31.5365 68.666 31.7141 68.6667 31.8937V38.787C68.6678 38.9689 68.6317 39.149 68.5606 39.3164C68.4895 39.4838 68.385 39.6349 68.2533 39.7604C67.9781 40.0035 67.6204 40.1323 67.2533 40.1204L65.4667 40.0004C65.1578 41.0256 64.7469 42.0172 64.24 42.9604L65.5733 44.1604C65.7045 44.2849 65.8089 44.4348 65.8802 44.601C65.9515 44.7672 65.9883 44.9462 65.9883 45.127C65.9883 45.3079 65.9515 45.4868 65.8802 45.653C65.8089 45.8192 65.7045 45.9691 65.5733 46.0937L60.6933 50.9604C60.5656 51.0872 60.4135 51.1868 60.2462 51.2533C60.0789 51.3197 59.8999 51.3516 59.72 51.347C59.5376 51.3479 59.3572 51.3091 59.1914 51.2331C59.0256 51.1571 58.8784 51.0458 58.76 50.907L57.5733 49.5737C56.6472 50.0773 55.6736 50.4882 54.6667 50.8004L54.76 52.587C54.7699 52.7673 54.7431 52.9477 54.6812 53.1173C54.6194 53.2869 54.5237 53.4422 54.4 53.5737C54.2761 53.7037 54.1272 53.8073 53.9622 53.8783C53.7972 53.9494 53.6196 53.9863 53.44 53.987V54.0004ZM47.9733 51.3337H51.9733L52 49.867C51.9925 49.5588 52.092 49.2575 52.2816 49.0144C52.4712 48.7713 52.7392 48.6014 53.04 48.5337C54.5348 48.1993 55.9604 47.6083 57.2533 46.787C57.5202 46.6186 57.8382 46.5503 58.1507 46.5942C58.4632 46.6382 58.7499 46.7915 58.96 47.027L59.9333 48.1204L62.8 45.2404L61.7067 44.267C61.4712 44.057 61.3178 43.7702 61.2739 43.4577C61.2299 43.1452 61.2982 42.8272 61.4667 42.5604C62.2902 41.2734 62.8814 39.8518 63.2133 38.3604C63.2811 38.0596 63.4509 37.7916 63.694 37.6019C63.9371 37.4123 64.2385 37.3128 64.5467 37.3204L66.0133 37.4004V33.3337H64.5333C64.2269 33.3419 63.9271 33.2443 63.6842 33.0573C63.4414 32.8703 63.2704 32.6053 63.2 32.307C62.8562 30.8194 62.2659 29.3997 61.4533 28.107C61.2849 27.8402 61.2166 27.5222 61.2605 27.2097C61.3045 26.8972 61.4578 26.6104 61.6933 26.4004L62.7867 25.4137L59.92 22.547L58.9333 23.6404C58.7233 23.8759 58.4365 24.0292 58.124 24.0732C57.8115 24.1171 57.4935 24.0488 57.2267 23.8804C55.9361 23.0665 54.5155 22.4802 53.0267 22.147C52.7259 22.0793 52.4579 21.9094 52.2683 21.6663C52.0786 21.4232 51.9791 21.1219 51.9867 20.8137L52 19.3337H48V20.8004C48.0075 21.1086 47.908 21.4099 47.7184 21.653C47.5288 21.8961 47.2608 22.0659 46.96 22.1337C45.4711 22.4669 44.0505 23.0532 42.76 23.867C42.4931 24.0355 42.1752 24.1038 41.8627 24.0598C41.5502 24.0159 41.2634 23.8625 41.0533 23.627L40.0667 22.5204L37.2 25.4004L38.2933 26.387C38.5288 26.5971 38.6822 26.8839 38.7261 27.1964C38.7701 27.5089 38.7018 27.8268 38.5333 28.0937C37.7208 29.3864 37.1304 30.806 36.7867 32.2937C36.7163 32.592 36.5453 32.8569 36.3024 33.0439C36.0596 33.2309 35.7597 33.3285 35.4533 33.3204L34 33.3337V37.3337H35.4667C35.7749 37.3262 36.0762 37.4257 36.3193 37.6153C36.5624 37.8049 36.7323 38.0729 36.8 38.3737C37.1319 39.8651 37.7231 41.2867 38.5467 42.5737C38.7151 42.8406 38.7834 43.1585 38.7395 43.471C38.6955 43.7835 38.5422 44.0703 38.3067 44.2803L37.2133 45.2537L40.08 48.1337L41.0533 47.0403C41.2634 46.8048 41.5502 46.6515 41.8627 46.6075C42.1752 46.5636 42.4931 46.6319 42.76 46.8004C44.0586 47.6107 45.4823 48.2009 46.9733 48.547C47.2741 48.6148 47.5421 48.7846 47.7317 49.0277C47.9214 49.2708 48.0209 49.5721 48.0133 49.8804L47.9733 51.3337ZM50 43.6004C48.365 43.6004 46.7667 43.1155 45.4073 42.2072C44.0478 41.2988 42.9883 40.0077 42.3626 38.4972C41.7369 36.9867 41.5732 35.3245 41.8922 33.7209C42.2111 32.1174 42.9985 30.6444 44.1546 29.4883C45.3107 28.3322 46.7837 27.5448 48.3873 27.2259C49.9908 26.9069 51.653 27.0706 53.1635 27.6963C54.6741 28.322 55.9651 29.3815 56.8735 30.741C57.7818 32.1004 58.2667 33.6987 58.2667 35.3337C58.2631 37.5251 57.3911 39.6257 55.8415 41.1752C54.292 42.7247 52.1914 43.5968 50 43.6004ZM50 29.7337C48.8924 29.7337 47.8097 30.0621 46.8888 30.6775C45.9679 31.2928 45.2501 32.1674 44.8263 33.1907C44.4024 34.2139 44.2915 35.3399 44.5076 36.4262C44.7237 37.5125 45.257 38.5103 46.0402 39.2935C46.8234 40.0767 47.8212 40.61 48.9075 40.8261C49.9938 41.0422 51.1198 40.9313 52.143 40.5074C53.1663 40.0836 54.0409 39.3658 54.6562 38.4449C55.2716 37.524 55.6 36.4413 55.6 35.3337C55.6 33.8485 55.01 32.4241 53.9598 31.3739C52.9096 30.3237 51.4852 29.7337 50 29.7337Z" fill="white"/>
</g>
<defs>
<linearGradient id="paint0_linear_2385_8430" x1="-20.7107" y1="120.715" x2="120.711" y2="-20.7067" gradientUnits="userSpaceOnUse">
<stop stop-color="#B0084D"/>
<stop offset="1" stop-color="#FF4F8B"/>
</linearGradient>
<clipPath id="clip0_2385_8430">
<rect width="100" height="100" fill="white"/>
</clipPath>
</defs>
</svg>
