<svg width="100" height="100" viewBox="0 0 100 100" fill="none" xmlns="http://www.w3.org/2000/svg">
<path d="M87.5 97H12.5C11.9696 97 11.4609 96.7893 11.0858 96.4142C10.7107 96.0391 10.5 95.5304 10.5 95V5C10.5 4.46957 10.7107 3.96086 11.0858 3.58579C11.4609 3.21071 11.9696 3 12.5 3H87.5C88.0304 3 88.5391 3.21071 88.9142 3.58579C89.2893 3.96086 89.5 4.46957 89.5 5V95C89.5 95.5304 89.2893 96.0391 88.9142 96.4142C88.5391 96.7893 88.0304 97 87.5 97ZM14.5 93H85.5V7H14.5V93Z" fill="#CD2264"/>
<path d="M78.12 21.7598H46.24V25.7598H78.12V21.7598Z" fill="#CD2264"/>
<path d="M78.12 51.7598H46.24V55.7598H78.12V51.7598Z" fill="#CD2264"/>
<path d="M78.12 79.8809H46.24V83.8809H78.12V79.8809Z" fill="#CD2264"/>
<path d="M27.5 27.6199C27.2367 27.6214 26.9758 27.571 26.7321 27.4715C26.4885 27.3719 26.2668 27.2253 26.08 27.0399L18.58 19.5399L21.42 16.7199L27.28 22.5799L37.16 9.41992L40.34 11.8199L29.1 26.8199C28.9283 27.0503 28.7091 27.241 28.4572 27.3791C28.2052 27.5171 27.9265 27.5993 27.64 27.6199H27.5Z" fill="#CD2264"/>
<path d="M27.5 57.6199C27.2367 57.6214 26.9758 57.571 26.7321 57.4715C26.4885 57.3719 26.2668 57.2253 26.08 57.0399L18.58 49.5399L21.42 46.7199L27.28 52.5799L37.16 39.4199L40.34 41.8199L29.1 56.8199C28.9283 57.0503 28.7091 57.241 28.4572 57.3791C28.2052 57.5171 27.9265 57.5993 27.64 57.6199H27.5Z" fill="#CD2264"/>
<path d="M27.5 87.6199C27.2367 87.6215 26.9758 87.571 26.7321 87.4715C26.4885 87.3719 26.2668 87.2253 26.08 87.0399L18.58 79.5399L21.42 76.7199L27.28 82.5799L37.16 69.4199L40.34 71.8199L29.1 86.8199C28.9283 87.0503 28.7091 87.241 28.4572 87.3791C28.2052 87.5171 27.9265 87.5993 27.64 87.6199H27.5Z" fill="#CD2264"/>
</svg>
