<svg width="100" height="100" viewBox="0 0 100 100" fill="none" xmlns="http://www.w3.org/2000/svg">
<path d="M52 87.62H6.95996C6.42953 87.62 5.92082 87.4093 5.54575 87.0342C5.17067 86.6591 4.95996 86.1504 4.95996 85.62V27.5C4.95996 26.9696 5.17067 26.4609 5.54575 26.0858C5.92082 25.7107 6.42953 25.5 6.95996 25.5H66.96C67.4904 25.5 67.9991 25.7107 68.3742 26.0858C68.7492 26.4609 68.96 26.9696 68.96 27.5V46.24H64.96V29.5H8.95996V83.62H52V87.62Z" fill="#CD2264"/>
<path d="M66.98 22H6.86005C6.49361 21.9983 6.13469 21.896 5.82246 21.7042C5.51022 21.5124 5.25668 21.2385 5.08951 20.9124C4.92234 20.5863 4.84797 20.2206 4.87452 19.8551C4.90107 19.4897 5.02751 19.1385 5.24005 18.84L16 3.84C16.1841 3.58152 16.427 3.37053 16.7087 3.22447C16.9903 3.07841 17.3027 3.00147 17.62 3H56.3C56.6173 3.00147 56.9297 3.07841 57.2114 3.22447C57.4931 3.37053 57.736 3.58152 57.92 3.84L68.62 18.84C68.8336 19.1399 68.9602 19.4929 68.9859 19.8601C69.0117 20.2274 68.9356 20.5946 68.766 20.9213C68.5964 21.2481 68.3399 21.5217 68.0248 21.712C67.7097 21.9023 67.3482 22.002 66.98 22ZM10.74 18H63.1L55.26 7H18.58L10.74 18Z" fill="#CD2264"/>
<path d="M50.12 74.4998H23.86C23.3296 74.4998 22.8208 74.2891 22.4458 73.914C22.0707 73.5389 21.86 73.0302 21.86 72.4998V38.7598C21.86 38.2293 22.0707 37.7206 22.4458 37.3456C22.8208 36.9705 23.3296 36.7598 23.86 36.7598H50.12C50.6504 36.7598 51.1591 36.9705 51.5342 37.3456C51.9093 37.7206 52.12 38.2293 52.12 38.7598V72.4998C52.12 73.0302 51.9093 73.5389 51.5342 73.914C51.1591 74.2891 50.6504 74.4998 50.12 74.4998ZM25.86 70.4998H48.12V40.7598H25.86V70.4998Z" fill="#CD2264"/>
<path d="M44.4 46.1191H29.4V50.1191H44.4V46.1191Z" fill="#CD2264"/>
<path d="M44.4 53.6191H29.4V57.6191H44.4V53.6191Z" fill="#CD2264"/>
<path d="M44.4 61.1191H29.4V65.1191H44.4V61.1191Z" fill="#CD2264"/>
<path d="M93.1199 97.0009H59.3999C58.8695 97.0009 58.3608 96.7902 57.9857 96.4151C57.6106 96.04 57.3999 95.5313 57.3999 95.0009V66.8809C57.3984 66.6177 57.4489 66.3568 57.5484 66.1131C57.6479 65.8694 57.7946 65.6478 57.9799 65.4609C58.1668 65.2755 58.3884 65.1289 58.6321 65.0294C58.8758 64.9298 59.1367 64.8794 59.3999 64.8809H93.1399C93.6704 64.8809 94.1791 65.0916 94.5542 65.4667C94.9292 65.8418 95.1399 66.3505 95.1399 66.8809V95.0009C95.14 95.2652 95.0876 95.5269 94.9858 95.7709C94.8841 96.0149 94.7349 96.2362 94.5471 96.4222C94.3593 96.6082 94.1364 96.7551 93.8914 96.8544C93.6465 96.9538 93.3843 97.0035 93.1199 97.0009ZM61.3999 93.0009H91.1199V68.8809H61.3999V93.0009Z" fill="#CD2264"/>
<path d="M87.62 67.1195H83.62V59.4195C83.6858 57.3943 82.957 55.4237 81.5891 53.9288C80.2213 52.4339 78.323 51.5333 76.3 51.4195C74.2626 51.5079 72.343 52.3988 70.9603 53.8976C69.5776 55.3965 68.8441 57.3816 68.92 59.4195V67.1994H64.92V59.4395C64.8446 56.341 65.9997 53.3388 68.1324 51.0899C70.2652 48.841 73.2019 47.5285 76.3 47.4395C79.3822 47.5542 82.2955 48.8774 84.41 51.1229C86.5245 53.3684 87.6704 56.3559 87.6 59.4395L87.62 67.1195Z" fill="#CD2264"/>
<path d="M76.2599 83.2202C75.5229 83.2202 74.793 83.0747 74.1123 82.7921C73.4316 82.5094 72.8133 82.0951 72.2931 81.573C71.7728 81.0508 71.3607 80.4311 71.0805 79.7494C70.8002 79.0677 70.6573 78.3373 70.6599 77.6002C70.6599 76.115 71.2499 74.6906 72.3001 73.6404C73.3503 72.5902 74.7747 72.0002 76.2599 72.0002C77.0248 71.9545 77.791 72.0658 78.5113 72.327C79.2317 72.5883 79.891 72.9941 80.4487 73.5195C81.0064 74.045 81.4508 74.6789 81.7546 75.3824C82.0584 76.0858 82.215 76.844 82.215 77.6102C82.215 78.3765 82.0584 79.1346 81.7546 79.8381C81.4508 80.5416 81.0064 81.1755 80.4487 81.7009C79.891 82.2264 79.2317 82.6322 78.5113 82.8934C77.791 83.1547 77.0248 83.2659 76.2599 83.2202ZM76.2599 76.0002C75.8639 76.0444 75.498 76.2331 75.2323 76.5301C74.9666 76.8272 74.8197 77.2117 74.8197 77.6102C74.8197 78.0088 74.9666 78.3933 75.2323 78.6903C75.498 78.9874 75.8639 79.176 76.2599 79.2202C76.4711 79.2236 76.6807 79.1847 76.8765 79.1057C77.0723 79.0266 77.2503 78.9092 77.3999 78.7602C77.554 78.6092 77.676 78.4286 77.7585 78.2293C77.841 78.0299 77.8823 77.816 77.8799 77.6002C77.8823 77.1746 77.7171 76.765 77.4199 76.4602C77.1078 76.1619 76.6917 75.9969 76.2599 76.0002Z" fill="#CD2264"/>
<path d="M78.26 81.2207H74.26V88.9607H78.26V81.2207Z" fill="#CD2264"/>
</svg>
