<svg width="100" height="100" viewBox="0 0 100 100" fill="none" xmlns="http://www.w3.org/2000/svg">
<path d="M97 96.9992H3V29.5592L50 2.69922L97 29.5592V96.9992ZM7 92.9992H93V31.8792L50 7.29922L7 31.8792V92.9992Z" fill="#CD2264"/>
<path d="M85.74 89.5H14.24V33H85.74V89.5ZM18.24 85.5H81.74V37H18.24V85.5Z" fill="#CD2264"/>
<path d="M33.24 52H21.74V40.5H33.24V52ZM25.74 48H29.24V44.5H25.74V48Z" fill="#CD2264"/>
<path d="M48.24 52H36.74V40.5H48.24V52ZM40.74 48H44.24V44.5H40.74V48Z" fill="#CD2264"/>
<path d="M33.24 67H21.74V55.5H33.24V67ZM25.74 63H29.24V59.5H25.74V63Z" fill="#CD2264"/>
<path d="M48.24 67H36.74V55.5H48.24V67ZM40.74 63H44.24V59.5H40.74V63Z" fill="#CD2264"/>
<path d="M63.24 67H51.74V55.5H63.24V67ZM55.74 63H59.24V59.5H55.74V63Z" fill="#CD2264"/>
<path d="M33.24 82H21.74V70.5H33.24V82ZM25.74 78H29.24V74.5H25.74V78Z" fill="#CD2264"/>
<path d="M48.24 82H36.74V70.5H48.24V82ZM40.74 78H44.24V74.5H40.74V78Z" fill="#CD2264"/>
<path d="M63.24 82H51.74V70.5H63.24V82ZM55.74 78H59.24V74.5H55.74V78Z" fill="#CD2264"/>
<path d="M78.24 82H66.74V70.5H78.24V82ZM70.74 78H74.24V74.5H70.74V78Z" fill="#CD2264"/>
</svg>
