<svg width="100" height="100" viewBox="0 0 100 100" fill="none" xmlns="http://www.w3.org/2000/svg">
<path d="M87.5 97H12.5C11.9696 97 11.4609 96.7893 11.0858 96.4142C10.7107 96.0391 10.5 95.5304 10.5 95V5C10.5 4.46957 10.7107 3.96086 11.0858 3.58579C11.4609 3.21071 11.9696 3 12.5 3H87.5C88.0304 3 88.5391 3.21071 88.9142 3.58579C89.2893 3.96086 89.5 4.46957 89.5 5V95C89.5 95.5304 89.2893 96.0391 88.9142 96.4142C88.5391 96.7893 88.0304 97 87.5 97ZM14.5 93H85.5V7H14.5V93Z" fill="#CD2264"/>
<path d="M38.76 31.3802H25.62C25.0896 31.3802 24.5809 31.1695 24.2058 30.7944C23.8307 30.4194 23.62 29.9107 23.62 29.3802V16.2402C23.62 15.7098 23.8307 15.2011 24.2058 14.826C24.5809 14.4509 25.0896 14.2402 25.62 14.2402H38.76C39.2904 14.2402 39.7991 14.4509 40.1742 14.826C40.5493 15.2011 40.76 15.7098 40.76 16.2402V29.3802C40.76 29.6429 40.7083 29.9029 40.6077 30.1456C40.5072 30.3883 40.3599 30.6087 40.1742 30.7944C39.9885 30.9802 39.768 31.1275 39.5254 31.228C39.2827 31.3285 39.0226 31.3802 38.76 31.3802ZM27.62 27.3802H36.76V18.2402H27.62V27.3802Z" fill="#CD2264"/>
<path d="M38.76 57.62H25.62C25.0896 57.62 24.5809 57.4093 24.2058 57.0342C23.8307 56.6591 23.62 56.1504 23.62 55.62V42.5C23.62 41.9696 23.8307 41.4609 24.2058 41.0858C24.5809 40.7107 25.0896 40.5 25.62 40.5H38.76C39.2904 40.5 39.7991 40.7107 40.1742 41.0858C40.5493 41.4609 40.76 41.9696 40.76 42.5V55.62C40.76 55.8826 40.7083 56.1427 40.6077 56.3854C40.5072 56.628 40.3599 56.8485 40.1742 57.0342C39.9885 57.2199 39.768 57.3673 39.5254 57.4678C39.2827 57.5683 39.0226 57.62 38.76 57.62ZM27.62 53.62H36.76V44.5H27.62V53.62Z" fill="#CD2264"/>
<path d="M38.76 83.8798H25.62C25.0896 83.8798 24.5809 83.669 24.2058 83.294C23.8307 82.9189 23.62 82.4102 23.62 81.8798V68.7598C23.62 68.2293 23.8307 67.7206 24.2058 67.3456C24.5809 66.9705 25.0896 66.7598 25.62 66.7598H38.76C39.2904 66.7598 39.7991 66.9705 40.1742 67.3456C40.5493 67.7206 40.76 68.2293 40.76 68.7598V81.8798C40.76 82.4102 40.5493 82.9189 40.1742 83.294C39.7991 83.669 39.2904 83.8798 38.76 83.8798ZM27.62 79.8798H36.76V70.7598H27.62V79.8798Z" fill="#CD2264"/>
<path d="M78.14 23.6191H46.26V27.6191H78.14V23.6191Z" fill="#CD2264"/>
<path d="M78.14 49.8809H46.26V53.8809H78.14V49.8809Z" fill="#CD2264"/>
<path d="M78.14 76.1191H46.26V80.1191H78.14V76.1191Z" fill="#CD2264"/>
</svg>
