<svg width="100" height="100" viewBox="0 0 100 100" fill="none" xmlns="http://www.w3.org/2000/svg">
<path d="M50.0001 92.2999C37.4001 92.2999 24.6201 88.9399 24.6201 82.5399V39.3599H28.6201V82.5399C28.6201 84.5399 36.1601 88.2799 49.9801 88.2799C63.8001 88.2799 71.3601 84.4799 71.3601 82.5399V39.3599H75.3601V82.5399C75.4201 88.9399 62.6401 92.2999 50.0001 92.2999Z" fill="#3B48CC"/>
<path d="M33.5399 61.3598C26.1799 59.0998 24.6399 55.9798 24.6399 53.7598H28.6399C28.6399 54.5198 30.2599 56.1598 34.6399 57.5198L33.5399 61.3598Z" fill="#3B48CC"/>
<path d="M68.5801 60.6598L67.1201 56.9198C70.5001 55.5798 71.4001 54.2998 71.4001 53.7598H75.4001C75.4201 55.6798 74.2401 58.4398 68.5801 60.6598Z" fill="#3B48CC"/>
<path d="M33.5399 75.7601C26.1799 73.5001 24.6399 70.3601 24.6399 68.1401H28.6399C28.6399 68.9001 30.2599 70.5401 34.6399 71.9201L33.5399 75.7601Z" fill="#3B48CC"/>
<path d="M68.5801 75.0401L67.1201 71.3001C70.5001 69.9801 71.4001 68.6801 71.4001 68.1401H75.4001C75.4201 70.0001 74.2401 72.8201 68.5801 75.0401Z" fill="#3B48CC"/>
<path d="M50.0001 49.1201C37.3801 49.1201 24.6001 45.7801 24.6001 39.3601C24.6001 32.9401 37.3801 29.5801 50.0001 29.5801C62.6201 29.5801 75.3801 32.9401 75.3801 39.3601C75.3801 45.7801 62.6401 49.1201 50.0001 49.1201ZM50.0001 33.6001C36.1601 33.6001 28.6201 37.4001 28.6201 39.3601C28.6201 41.3201 36.2001 45.1201 50.0001 45.1201C63.8001 45.1201 71.3601 41.3201 71.3601 39.3601C71.3601 37.4001 63.8601 33.6001 50.0001 33.6001Z" fill="#3B48CC"/>
<path d="M13.6799 58.9398H9.67993V53.2598C9.67993 52.7293 9.89064 52.2206 10.2657 51.8456C10.6408 51.4705 11.1495 51.2598 11.6799 51.2598H21.0399V55.2598H13.6799V58.9398Z" fill="#3B48CC"/>
<path d="M90.3201 60.9398H79.0801V56.9398H88.3201V55.2598H79.0801V51.2598H90.3201C90.8505 51.2598 91.3592 51.4705 91.7343 51.8456C92.1094 52.2206 92.3201 52.7293 92.3201 53.2598V58.9398C92.3201 59.4702 92.1094 59.9789 91.7343 60.354C91.3592 60.729 90.8505 60.9398 90.3201 60.9398Z" fill="#3B48CC"/>
<path d="M96 60.9402H79.08V56.9402H94V27.7002C92.3763 27.1465 90.9666 26.0986 89.9683 24.7034C88.97 23.3082 88.4333 21.6357 88.4333 19.9202C88.4333 18.2047 88.97 16.5321 89.9683 15.137C90.9666 13.7418 92.3763 12.6939 94 12.1402V11.7202H6V12.1202C7.68387 12.6249 9.15461 13.6703 10.1849 15.0946C11.2152 16.5189 11.7477 18.2429 11.7 20.0002C11.7125 21.7303 11.1637 23.4179 10.136 24.8097C9.10836 26.2016 7.65713 27.2228 6 27.7202V56.9402H20.96V60.9402H4C3.46957 60.9402 2.96086 60.7295 2.58579 60.3544C2.21071 59.9793 2 59.4706 2 58.9402V26.0002C2 25.4698 2.21071 24.9611 2.58579 24.586C2.96086 24.2109 3.46957 24.0002 4 24.0002C5.0044 23.9333 5.94349 23.4787 6.61895 22.7323C7.29441 21.9859 7.65336 21.0063 7.62 20.0002C7.65807 19.4888 7.59438 18.975 7.43264 18.4883C7.27089 18.0017 7.01429 17.552 6.67767 17.1652C6.34104 16.7783 5.93108 16.462 5.47147 16.2346C5.01186 16.0072 4.51174 15.8731 4 15.8402C3.46957 15.8402 2.96086 15.6295 2.58579 15.2544C2.21071 14.8793 2 14.3706 2 13.8402V9.7002C2 9.16976 2.21071 8.66105 2.58579 8.28598C2.96086 7.91091 3.46957 7.7002 4 7.7002H96C96.5304 7.7002 97.0391 7.91091 97.4142 8.28598C97.7893 8.66105 98 9.16976 98 9.7002V13.8402C98 14.3706 97.7893 14.8793 97.4142 15.2544C97.0391 15.6295 96.5304 15.8402 96 15.8402C95.0045 15.917 94.0774 16.3766 93.4136 17.1225C92.7498 17.8684 92.4008 18.8425 92.44 19.8402C92.399 20.3474 92.4588 20.8577 92.6158 21.3418C92.7728 21.8258 93.0239 22.274 93.3548 22.6606C93.6856 23.0473 94.0897 23.3647 94.5436 23.5945C94.9976 23.8244 95.4925 23.9623 96 24.0002C96.5304 24.0002 97.0391 24.2109 97.4142 24.586C97.7893 24.9611 98 25.4698 98 26.0002V58.9402C98 59.4706 97.7893 59.9793 97.4142 60.3544C97.0391 60.7295 96.5304 60.9402 96 60.9402Z" fill="#3B48CC"/>
<path d="M36.1399 28.6398H32.1399V17.2798C32.1399 16.7494 32.3506 16.2406 32.7257 15.8656C33.1008 15.4905 33.6095 15.2798 34.1399 15.2798H47.2399C47.7703 15.2798 48.279 15.4905 48.6541 15.8656C49.0292 16.2406 49.2399 16.7494 49.2399 17.2798V26.7398H45.2399V19.2798H36.1399V28.6398Z" fill="#3B48CC"/>
<path d="M67.9999 28.6398H63.9999V19.2798H54.8799V26.7398H50.8799V17.2798C50.8799 16.7494 51.0906 16.2406 51.4657 15.8656C51.8407 15.4905 52.3494 15.2798 52.8799 15.2798H65.9999C66.5303 15.2798 67.039 15.4905 67.4141 15.8656C67.7892 16.2406 67.9999 16.7494 67.9999 17.2798V28.6398Z" fill="#3B48CC"/>
<path d="M84.7001 47.6998H79.0801V43.6998H82.7001V19.2798H73.6001V30.5398H69.6001V17.2798C69.6001 16.7494 69.8108 16.2406 70.1859 15.8656C70.561 15.4905 71.0697 15.2798 71.6001 15.2798H84.7001C85.2305 15.2798 85.7392 15.4905 86.1143 15.8656C86.4894 16.2406 86.7001 16.7494 86.7001 17.2798V45.6798C86.7027 45.9441 86.653 46.2063 86.5536 46.4513C86.4543 46.6963 86.3074 46.9191 86.1214 47.1069C85.9354 47.2948 85.7141 47.4439 85.4701 47.5457C85.2262 47.6474 84.9644 47.6998 84.7001 47.6998Z" fill="#3B48CC"/>
<path d="M21.0199 47.6998H15.4199C14.8895 47.6998 14.3808 47.4891 14.0057 47.114C13.6306 46.7389 13.4199 46.2302 13.4199 45.6998V17.2798C13.4199 16.7494 13.6306 16.2406 14.0057 15.8656C14.3808 15.4905 14.8895 15.2798 15.4199 15.2798H28.5199C29.0504 15.2798 29.5591 15.4905 29.9341 15.8656C30.3092 16.2406 30.5199 16.7494 30.5199 17.2798V30.5398H26.5199V19.2798H17.4199V43.6798H21.0199V47.6998Z" fill="#3B48CC"/>
<path d="M59.36 81.1799V61.5399L52.62 74.5999H48.5L41.98 61.5999V81.1799H37.78V54.9399H42.88L50.68 70.5799L58.62 54.9399H63.56V81.1799H59.36Z" fill="#3B48CC"/>
</svg>
