<svg width="100" height="100" viewBox="0 0 100 100" fill="none" xmlns="http://www.w3.org/2000/svg">
<g clip-path="url(#clip0_0_1429)">
<path d="M100 0H0V100H100V0Z" fill="#3B48CC"/>
<path d="M47.3066 30.3998C40.8933 30.3998 33.9733 32.0265 33.9733 35.5998V57.7332C33.9733 61.3065 40.8666 62.9332 47.3066 62.9332C53.7466 62.9332 60.64 61.3065 60.64 57.7332V35.5998C60.6133 31.9998 53.7066 30.3998 47.3066 30.3998ZM36.64 35.5998C36.84 34.8398 40.64 33.0665 47.3066 33.0665C53.9733 33.0665 57.76 34.8398 57.9733 35.5998C57.8 36.3732 53.9733 38.1332 47.3066 38.1332C40.64 38.1332 36.8266 36.3598 36.64 35.6132V35.5998ZM57.9733 57.7198C57.8133 58.4798 53.9733 60.2665 47.3066 60.2665C40.64 60.2665 36.8266 58.4798 36.64 57.7332V54.1998C40.0168 55.5993 43.6531 56.263 47.3066 56.1465C50.9294 56.2677 54.537 55.6225 57.8933 54.2532L57.9733 57.7198ZM57.9733 51.0532C57.4666 51.8665 53.7066 53.4798 47.3866 53.4798C40.72 53.4798 36.9466 51.7198 36.72 50.9465V46.6665C40.0968 48.066 43.7331 48.7296 47.3866 48.6132C51.0043 48.7137 54.6026 48.0504 57.9466 46.6665L57.9733 51.0532ZM57.9733 43.4532C57.4666 44.2665 53.72 45.8798 47.3866 45.8798C40.72 45.8798 36.9466 44.1198 36.72 43.3465V38.8932C40.1015 40.2731 43.7364 40.9229 47.3866 40.7998C51.0366 40.9205 54.6711 40.2708 58.0533 38.8932L57.9733 43.4532ZM60.64 43.3465C60.6597 43.5193 60.6597 43.6937 60.64 43.8665V43.3465ZM60.64 50.9465C60.6597 51.1193 60.6597 51.2937 60.64 51.4665V50.9465ZM28.1466 57.5065C20.8533 54.8398 16.6666 50.8398 16.6666 46.3732C16.6666 41.9065 20.8533 37.8932 28.1466 35.2265L29.0666 37.7332C22.9733 39.9598 19.3333 43.1865 19.3333 46.3732C19.3333 49.5598 22.9733 52.7865 29.0666 54.9998L28.1466 57.5065ZM65.7866 57.7598L64.9333 55.2398C71.44 53.0132 75.3333 49.7065 75.3333 46.3732C75.3333 43.0398 71.44 39.7065 64.9333 37.4932L65.7866 34.9732C73.5466 37.6398 78 41.7732 78 46.3732C78 50.9732 73.5466 55.1198 65.7866 57.7598ZM78 17.9998V28.6665H75.3333V21.2265L66.9466 29.6132L65.0533 27.7198L73.44 19.3332H66V16.6665H76.6666C77.0202 16.6665 77.3594 16.807 77.6094 17.057C77.8595 17.3071 78 17.6462 78 17.9998ZM29.6133 27.7198L27.72 29.6132L19.3333 21.2265V28.6665H16.6666V17.9998C16.6666 17.6462 16.8071 17.3071 17.0572 17.057C17.3072 16.807 17.6463 16.6665 18 16.6665H28.6666V19.3332H21.2266L29.6133 27.7198ZM21.2266 73.9998H28.6666V76.6665H18C17.6463 76.6665 17.3072 76.526 17.0572 76.276C16.8071 76.0259 16.6666 75.6868 16.6666 75.3332V64.6665H19.3333V72.1065L27.72 63.7198L29.6133 65.6132L21.2266 73.9998ZM81.9999 83.3332H50C49.6463 83.3332 49.3072 83.1927 49.0571 82.9426C48.8071 82.6926 48.6666 82.3534 48.6666 81.9998V71.7198C48.6669 71.5305 48.7074 71.3434 48.7856 71.171C48.8637 70.9986 48.9777 70.8448 49.12 70.7198L55.7866 64.9065C56.0252 64.7104 56.3245 64.6032 56.6333 64.6032C56.9421 64.6032 57.2414 64.7104 57.48 64.9065L62 68.4132V63.3332C62 62.9795 62.1404 62.6404 62.3905 62.3904C62.6405 62.1403 62.9797 61.9998 63.3333 61.9998H81.9999C82.3536 61.9998 82.6927 62.1403 82.9428 62.3904C83.1928 62.6404 83.3333 62.9795 83.3333 63.3332V81.9998C83.3333 82.3534 83.1928 82.6926 82.9428 82.9426C82.6927 83.1927 82.3536 83.3332 81.9999 83.3332ZM51.3333 80.6665H80.6666V64.6665H64.6666V71.0798C64.6646 71.3275 64.5937 71.5696 64.4618 71.7792C64.33 71.9888 64.1423 72.1575 63.9199 72.2665C63.7057 72.3639 63.4695 72.4029 63.2353 72.3795C63.0011 72.3561 62.7773 72.2711 62.5866 72.1332L56.7866 67.6398L51.4533 72.3332L51.3333 80.6665ZM70 71.3332H67.3333V67.3332H70V71.3332ZM74 71.3332H71.3333V67.3332H74V71.3332ZM78 71.3332H75.3333V67.3332H78V71.3332Z" fill="white"/>
</g>
<defs>
<clipPath id="clip0_0_1429">
<rect width="100" height="100" fill="white"/>
</clipPath>
</defs>
</svg>
