<svg width="100" height="100" viewBox="0 0 100 100" fill="none" xmlns="http://www.w3.org/2000/svg">
<path d="M30.1599 34.4802C29.0876 34.9966 27.91 35.2568 26.7199 35.2402C22.3599 35.2402 20.1999 32.3602 20.1999 26.6202C20.0438 24.3353 20.6333 22.0614 21.8799 20.1402C22.469 19.4107 23.2262 18.835 24.0866 18.4623C24.9469 18.0896 25.8848 17.931 26.8199 18.0002C27.9081 17.9784 28.9895 18.1757 29.9999 18.5802V20.5802C29.0619 20.239 28.0771 20.0434 27.0799 20.0002C26.4419 19.9487 25.8012 20.0592 25.2173 20.3214C24.6334 20.5836 24.1252 20.9891 23.7399 21.5002C22.9119 22.9645 22.5426 24.6436 22.6799 26.3202V26.9002C22.5488 28.5651 22.9031 30.2324 23.6999 31.7002C24.0751 32.2123 24.5757 32.6193 25.1536 32.882C25.7316 33.1447 26.3674 33.2543 26.9999 33.2002C28.0753 33.1284 29.1371 32.9201 30.1599 32.5802V34.4802Z" fill="#3B48CC"/>
<path d="M40.9999 35.0001L39.8399 30.4401H34.7399L33.5999 35.0001H31.1799L35.9999 18.1001H38.5599L43.4399 35.0001H40.9999ZM35.1799 28.6401H39.3799L37.2799 20.3801L35.1799 28.6401Z" fill="#3B48CC"/>
<path d="M54.5 34.4801C53.435 34.9971 52.2637 35.2573 51.08 35.2401C46.72 35.2401 44.54 32.3668 44.54 26.6201C44.3839 24.3352 44.9734 22.0614 46.22 20.1401C46.8133 19.4104 47.5741 18.8348 48.4377 18.4622C49.3013 18.0896 50.242 17.9311 51.18 18.0001C52.2599 18.0112 53.327 18.2355 54.32 18.6601V20.6601C53.398 20.2987 52.4274 20.0763 51.44 20.0001C50.7993 19.9507 50.1565 20.0621 49.5698 20.324C48.983 20.5859 48.471 20.9902 48.08 21.5001C47.2611 22.9679 46.8925 24.6442 47.02 26.3201V26.9001C46.8844 28.5678 47.2463 30.2382 48.06 31.7001C48.432 32.2107 48.9292 32.6168 49.5036 32.8795C50.0781 33.1422 50.7105 33.2526 51.34 33.2001C52.4156 33.1301 53.4777 32.9218 54.5 32.5801V34.4801Z" fill="#3B48CC"/>
<path d="M65.6399 35.0001V27.3201H59.4999V35.0001H57.1399V18.1001H59.4999V25.4001H65.6399V18.1001H67.9999V35.0001H65.6399Z" fill="#3B48CC"/>
<path d="M71.6599 35.0001V18.1001H80.2199V20.0001H73.9999V25.3201H79.1199V27.2201H73.9999V33.1001H80.1799V35.0001H71.6599Z" fill="#3B48CC"/>
<path d="M84.0999 96.9999H15.9999C14.2975 97.0131 12.6092 96.6892 11.0326 96.0468C9.45591 95.4044 8.022 94.4563 6.81351 93.2571C5.60502 92.0579 4.64586 90.6314 3.99133 89.0597C3.3368 87.4881 2.99985 85.8024 2.9999 84.0999V15.9999C2.98659 14.289 3.31375 12.5926 3.96235 11.0093C4.61094 9.42606 5.56801 7.98766 6.77783 6.77783C7.98766 5.56801 9.42606 4.61094 11.0093 3.96235C12.5926 3.31375 14.289 2.98659 15.9999 2.9999H84.1999C85.894 3.01298 87.5689 3.35962 89.129 4.02002C90.6891 4.68042 92.1038 5.64165 93.2924 6.84882C94.481 8.05599 95.4202 9.48547 96.0563 11.0556C96.6925 12.6258 97.0131 14.3058 96.9999 15.9999V84.1999C96.9735 87.6038 95.6028 90.8594 93.1864 93.257C90.77 95.6546 87.5039 97 84.0999 96.9999ZM15.9999 6.9999C14.815 6.98923 13.6399 7.21473 12.5432 7.66324C11.4464 8.11175 10.45 8.77429 9.61215 9.61215C8.77429 10.45 8.11175 11.4464 7.66324 12.5432C7.21473 13.6399 6.98923 14.815 6.9999 15.9999V84.1999C7.03154 86.5587 7.99627 88.8089 9.68297 90.4581C11.3697 92.1074 13.641 93.0213 15.9999 92.9999H84.1999C86.5587 92.9946 88.8194 92.0552 90.4873 90.3873C92.1552 88.7194 93.0946 86.4587 93.0999 84.0999V15.9999C93.1106 14.815 92.8851 13.6399 92.4366 12.5432C91.9881 11.4464 91.3255 10.45 90.4877 9.61215C89.6498 8.77429 88.6534 8.11175 87.5566 7.66324C86.4599 7.21473 85.2848 6.98923 84.0999 6.9999H15.9999Z" fill="#3B48CC"/>
</svg>
