<svg width="100" height="100" viewBox="0 0 100 100" fill="none" xmlns="http://www.w3.org/2000/svg">
<path d="M50.6206 18.2034L31.874 33.4438L34.3973 36.5476L53.1439 21.3072L50.6206 18.2034Z" fill="#3B48CC"/>
<path d="M34.3863 63.4402L31.863 66.5439L50.6097 81.7843L53.1329 78.6806L34.3863 63.4402Z" fill="#3B48CC"/>
<path d="M48.7697 54.9753L47.5032 58.7695L77.4962 68.7818L78.7627 64.9876L48.7697 54.9753Z" fill="#3B48CC"/>
<path d="M77.5032 31.2296L47.512 41.2471L48.7792 45.041L78.7704 35.0236L77.5032 31.2296Z" fill="#3B48CC"/>
<path d="M59.1389 20.7418L55.8377 23.0005L80.2092 58.6209L83.5105 56.3622L59.1389 20.7418Z" fill="#3B48CC"/>
<path d="M84.98 27.1999C78.26 21.9199 67.68 14.1999 67.58 14.1199L70 10.8799C70.12 10.8799 80.76 18.7199 87.54 24.0599L84.98 27.1999Z" fill="#3B48CC"/>
<path d="M68.7599 23.88H51.8799C51.3495 23.88 50.8408 23.6693 50.4657 23.2942C50.0907 22.9191 49.8799 22.4104 49.8799 21.88V5C49.8799 4.46957 50.0907 3.96086 50.4657 3.58579C50.8408 3.21071 51.3495 3 51.8799 3H68.7599C69.2904 3 69.7991 3.21071 70.1742 3.58579C70.5492 3.96086 70.76 4.46957 70.76 5V21.88C70.76 22.4104 70.5492 22.9191 70.1742 23.2942C69.7991 23.6693 69.2904 23.88 68.7599 23.88ZM53.8799 19.88H66.7599V7H53.8799V19.88Z" fill="#3B48CC"/>
<path d="M80.2174 41.3768L55.8521 77.0015L59.1537 79.2596L83.519 43.6349L80.2174 41.3768Z" fill="#3B48CC"/>
<path d="M70 89.1198L67.66 85.8798C67.76 85.8798 78.34 78.0798 85.06 72.7998L87.46 75.9998C80.68 81.2798 70 89.0398 70 89.1198Z" fill="#3B48CC"/>
<path d="M68.7599 97.0001H51.8799C51.3495 97.0001 50.8408 96.7894 50.4657 96.4143C50.0907 96.0393 49.8799 95.5306 49.8799 95.0001V78.1201C49.8799 77.5897 50.0907 77.081 50.4657 76.7059C50.8408 76.3308 51.3495 76.1201 51.8799 76.1201H68.7599C69.2904 76.1201 69.7991 76.3308 70.1742 76.7059C70.5492 77.081 70.76 77.5897 70.76 78.1201V95.0001C70.76 95.5306 70.5492 96.0393 70.1742 96.4143C69.7991 96.7894 69.2904 97.0001 68.7599 97.0001ZM53.8799 93.0001H66.7599V80.1201H53.8799V93.0001Z" fill="#3B48CC"/>
<path d="M95.0001 76.38H78.1201C77.5896 76.38 77.0809 76.1693 76.7058 75.7942C76.3308 75.4191 76.1201 74.9104 76.1201 74.38V57.5C76.1201 56.9696 76.3308 56.4609 76.7058 56.0858C77.0809 55.7107 77.5896 55.5 78.1201 55.5H95.0001C95.5305 55.5 96.0392 55.7107 96.4143 56.0858C96.7893 56.4609 97.0001 56.9696 97.0001 57.5V74.38C97.0001 74.9104 96.7893 75.4191 96.4143 75.7942C96.0392 76.1693 95.5305 76.38 95.0001 76.38ZM80.1201 72.38H93.0001V59.5H80.1201V72.38Z" fill="#3B48CC"/>
<path d="M95.0001 44.5001H78.1201C77.5896 44.5001 77.0809 44.2894 76.7058 43.9143C76.3308 43.5393 76.1201 43.0305 76.1201 42.5001V25.6201C76.1201 25.0897 76.3308 24.581 76.7058 24.2059C77.0809 23.8308 77.5896 23.6201 78.1201 23.6201H95.0001C95.5305 23.6201 96.0392 23.8308 96.4143 24.2059C96.7893 24.581 97.0001 25.0897 97.0001 25.6201V42.5001C97.0001 43.0305 96.7893 43.5393 96.4143 43.9143C96.0392 44.2894 95.5305 44.5001 95.0001 44.5001ZM80.1201 40.5001H93.0001V27.6201H80.1201V40.5001Z" fill="#3B48CC"/>
<path d="M48.12 67H5C4.46957 67 3.96086 66.7893 3.58579 66.4142C3.21071 66.0391 3 65.5304 3 65V35C3 34.4696 3.21071 33.9609 3.58579 33.5858C3.96086 33.2107 4.46957 33 5 33H48.12C48.6504 33 49.1591 33.2107 49.5342 33.5858C49.9093 33.9609 50.12 34.4696 50.12 35V65C50.12 65.5304 49.9093 66.0391 49.5342 66.4142C49.1591 66.7893 48.6504 67 48.12 67ZM7 63H46.12V37H7V63Z" fill="#3B48CC"/>
<path d="M14.78 58.1199V41.2399H19.88C20.7906 41.1818 21.7017 41.3463 22.5345 41.7191C23.3674 42.092 24.0969 42.662 24.66 43.3799C25.8635 45.2436 26.4318 47.4466 26.28 49.6599C26.4393 51.8838 25.8783 54.0998 24.68 55.9799C24.1348 56.6925 23.4229 57.2603 22.6068 57.6334C21.7908 58.0066 20.8957 58.1736 20 58.1199H14.78ZM18.2 43.8399V55.5199H19.64C20.1236 55.5365 20.602 55.4156 21.0197 55.1713C21.4374 54.9271 21.7773 54.5695 22 54.1399C22.5899 52.843 22.8575 51.4226 22.78 49.9999V49.4999C22.8892 48.0236 22.6208 46.5438 22 45.1999C21.7716 44.7678 21.4242 44.41 20.9989 44.169C20.5736 43.928 20.0882 43.8138 19.6 43.8399H18.2Z" fill="#3B48CC"/>
<path d="M31.6 50.5998C30.594 50.1011 29.7124 49.3836 29.02 48.4998C28.4803 47.6903 28.2076 46.7321 28.24 45.7598C28.2171 44.8527 28.453 43.9578 28.92 43.1798C29.3692 42.4457 30.013 41.8503 30.78 41.4598C31.627 41.0492 32.5588 40.8436 33.5 40.8598C34.8221 40.8721 36.1257 41.1724 37.32 41.7398V44.3198C36.2104 43.88 35.0329 43.6363 33.84 43.5998C33.2629 43.5612 32.6923 43.7395 32.24 44.0998C32.0399 44.2763 31.8821 44.4956 31.7783 44.7414C31.6744 44.9872 31.6271 45.2532 31.64 45.5198C31.6254 45.9638 31.7591 46.4001 32.02 46.7598C32.4331 47.2098 32.9287 47.5764 33.48 47.8398L34.8 48.5398C35.5194 48.9181 36.1909 49.3814 36.7999 49.9198C37.276 50.3375 37.652 50.857 37.9 51.4398C38.1519 52.0758 38.2742 52.7558 38.2599 53.4398C38.2939 54.1255 38.1772 54.8103 37.918 55.4461C37.6589 56.0819 37.2636 56.6532 36.7599 57.1198C35.5992 58.0759 34.1216 58.5613 32.62 58.4798C31.8516 58.4754 31.0865 58.3814 30.34 58.1998C29.6444 58.059 28.9715 57.8235 28.34 57.4998V54.9598C28.9899 55.2017 29.6589 55.389 30.34 55.5198C30.9964 55.6695 31.6667 55.75 32.34 55.7598C32.9796 55.8054 33.6135 55.6131 34.12 55.2198C34.3292 55.0162 34.4914 54.7692 34.595 54.4963C34.6987 54.2233 34.7413 53.931 34.72 53.6398C34.7322 53.1774 34.5838 52.725 34.3 52.3598C33.895 51.9231 33.4138 51.5639 32.88 51.2998L31.6 50.5998Z" fill="#3B48CC"/>
</svg>
