<svg width="100" height="100" viewBox="0 0 100 100" fill="none" xmlns="http://www.w3.org/2000/svg">
<g clip-path="url(#clip0_0_1417)">
<path d="M100 0H0V100H100V0Z" fill="#3B48CC"/>
<path d="M38.08 36.7467C26.28 36.7467 17.3867 33.0134 17.3867 28.0667C17.3867 23.1201 26.28 19.3867 38.08 19.3867C49.88 19.3867 58.7867 23.1201 58.7867 28.0667C58.7867 33.0134 49.88 36.7467 38.08 36.7467ZM38.08 21.4134C27.08 21.4134 19.4133 24.9201 19.4133 28.0801C19.4133 31.2401 27.08 34.7467 38.08 34.7467C49.08 34.7467 56.7467 31.2401 56.7467 28.0801C56.7467 24.9201 49.0933 21.4134 38.08 21.4134Z" fill="white"/>
<path d="M58.7866 28.0669H56.7599V42.8536H58.7866V28.0669Z" fill="white"/>
<path d="M38.08 80.6136C26.28 80.6136 17.3333 76.8802 17.3333 72.0002V28.0669H19.36V72.0002C19.36 75.1469 27.0266 78.6669 38.0266 78.6669C49.0266 78.6669 56.6933 75.1602 56.6933 72.0002V62.6669H58.72V72.0002C58.7866 76.8802 49.88 80.6136 38.08 80.6136Z" fill="white"/>
<path d="M29.5067 51.3335C21.9733 49.9202 17.5067 46.9602 17.5067 43.3335H19.5333C19.5333 45.7335 23.7067 48.1068 29.8933 49.2668L29.5067 51.3335Z" fill="white"/>
<path d="M38.1333 67.16C26.36 67.16 17.48 63.4266 17.48 58.48H19.5066C19.5066 61.6266 27.16 65.1466 38.1733 65.1466C47 65.1466 51.6533 63.0666 51.7066 63.0533L52.5466 64.8933C52.3066 64.9733 47.44 67.16 38.1333 67.16Z" fill="white"/>
<path d="M42.36 57.3333H37.8533C37.2262 57.3298 36.6259 57.0782 36.1837 56.6335C35.7415 56.1888 35.4933 55.5871 35.4933 54.96V50.4133C35.488 50.0994 35.5451 49.7876 35.6611 49.4959C35.7772 49.2042 35.95 48.9384 36.1695 48.714C36.389 48.4895 36.6508 48.3108 36.9399 48.1883C37.2289 48.0657 37.5394 48.0017 37.8533 48H42.36C42.9894 48 43.5931 48.25 44.0382 48.6951C44.4833 49.1402 44.7333 49.7439 44.7333 50.3733V54.8667C44.7459 55.1861 44.6938 55.5048 44.5802 55.8036C44.4665 56.1024 44.2937 56.3752 44.0721 56.6055C43.8504 56.8359 43.5845 57.0191 43.2903 57.1442C42.9961 57.2692 42.6797 57.3336 42.36 57.3333ZM37.8533 50.12C37.7637 50.1234 37.6789 50.1615 37.6168 50.2261C37.5546 50.2908 37.5199 50.377 37.52 50.4667V54.96C37.52 55.0484 37.5551 55.1332 37.6176 55.1957C37.6801 55.2582 37.7649 55.2933 37.8533 55.2933H42.36C42.4484 55.2933 42.5332 55.2582 42.5957 55.1957C42.6582 55.1332 42.6933 55.0484 42.6933 54.96V50.4133C42.6934 50.3237 42.6587 50.2374 42.5965 50.1728C42.5344 50.1082 42.4496 50.0701 42.36 50.0667L37.8533 50.12Z" fill="white"/>
<path d="M59.56 57.3333H55.0533C54.4262 57.3298 53.826 57.0782 53.3837 56.6335C52.9415 56.1888 52.6933 55.5871 52.6933 54.96V50.4133C52.688 50.0994 52.7451 49.7876 52.8611 49.4959C52.9772 49.2042 53.15 48.9384 53.3695 48.714C53.589 48.4895 53.8508 48.3108 54.1399 48.1883C54.4289 48.0657 54.7394 48.0017 55.0533 48H59.56C60.1871 48.0035 60.7874 48.2551 61.2296 48.6998C61.6718 49.1445 61.92 49.7462 61.92 50.3733V54.8667C61.9325 55.185 61.8809 55.5026 61.768 55.8005C61.6552 56.0984 61.4836 56.3706 61.2634 56.6007C61.0431 56.8309 60.7788 57.0144 60.4862 57.1403C60.1935 57.2661 59.8786 57.3318 59.56 57.3333ZM55.0533 50.12C54.9637 50.1234 54.8789 50.1615 54.8168 50.2261C54.7546 50.2908 54.7199 50.377 54.72 50.4667V54.96C54.72 55.0484 54.7551 55.1332 54.8176 55.1957C54.8801 55.2582 54.9649 55.2933 55.0533 55.2933H59.56C59.6484 55.2933 59.7332 55.2582 59.7957 55.1957C59.8582 55.1332 59.8933 55.0484 59.8933 54.96V50.4133C59.8934 50.3237 59.8587 50.2374 59.7966 50.1728C59.7344 50.1082 59.6496 50.0701 59.56 50.0667L55.0533 50.12Z" fill="white"/>
<path d="M76.7466 57.3333H72.2533C71.6239 57.3333 71.0202 57.0833 70.5751 56.6382C70.13 56.1931 69.88 55.5894 69.88 54.96V50.4133C69.8747 50.0983 69.9321 49.7854 70.049 49.4928C70.1659 49.2002 70.3399 48.9339 70.5608 48.7092C70.7817 48.4846 71.0452 48.3062 71.3357 48.1844C71.6263 48.0626 71.9382 48 72.2533 48H76.7466C77.3761 48 77.9798 48.25 78.4248 48.6951C78.8699 49.1402 79.12 49.7439 79.12 50.3733V54.8667C79.1325 55.1861 79.0805 55.5048 78.9668 55.8036C78.8532 56.1024 78.6804 56.3752 78.4587 56.6055C78.2371 56.8359 77.9712 57.0191 77.677 57.1442C77.3828 57.2692 77.0663 57.3336 76.7466 57.3333ZM72.2533 50.12C72.1614 50.12 72.0732 50.1565 72.0082 50.2215C71.9432 50.2865 71.9066 50.3747 71.9066 50.4667V54.96C71.9101 55.0496 71.9481 55.1344 72.0128 55.1966C72.0774 55.2587 72.1636 55.2934 72.2533 55.2933H76.7466C76.8363 55.2934 76.9225 55.2587 76.9872 55.1966C77.0518 55.1344 77.0899 55.0496 77.0933 54.96V50.4133C77.0933 50.3214 77.0568 50.2332 76.9918 50.1682C76.9268 50.1032 76.8386 50.0667 76.7466 50.0667L72.2533 50.12Z" fill="white"/>
<path d="M80.5733 60.7467H68.48C68.2092 60.7449 67.9415 60.6897 67.6921 60.584C67.4428 60.4784 67.2168 60.3245 67.0272 60.1311C66.8376 59.9378 66.6881 59.7089 66.5873 59.4576C66.4865 59.2062 66.4365 58.9374 66.44 58.6667V55.4667H65.4133V58.6667C65.4133 58.9346 65.3606 59.1998 65.258 59.4473C65.1555 59.6948 65.0053 59.9197 64.8158 60.1092C64.6264 60.2986 64.4015 60.4489 64.154 60.5514C63.9065 60.6539 63.6412 60.7067 63.3733 60.7067H51.28C50.74 60.7032 50.2232 60.4871 49.8414 60.1053C49.4595 59.7235 49.2435 59.2066 49.24 58.6667V55.4933H48.16V58.6667C48.1565 59.2066 47.9405 59.7235 47.5586 60.1053C47.1768 60.4871 46.66 60.7032 46.12 60.7067H34.0267C33.489 60.6997 32.9756 60.4821 32.5966 60.1007C32.2177 59.7192 32.0034 59.2043 32 58.6667V46.6667C32.0035 46.1267 32.2195 45.6099 32.6014 45.228C32.9832 44.8462 33.5 44.6302 34.04 44.6267H46.1333C46.671 44.6336 47.1844 44.8512 47.5634 45.2327C47.9423 45.6141 48.1566 46.129 48.16 46.6667V50.6667H49.24V46.6667C49.2435 46.1267 49.4595 45.6099 49.8414 45.228C50.2232 44.8462 50.74 44.6302 51.28 44.6267H63.3733C63.9144 44.6267 64.4333 44.8416 64.8158 45.2242C65.1984 45.6067 65.4133 46.1256 65.4133 46.6667V50.6667H66.44V46.6667C66.4435 46.1267 66.6595 45.6099 67.0414 45.228C67.4232 44.8462 67.94 44.6302 68.48 44.6267H80.5733C80.8457 44.6196 81.1167 44.6671 81.3704 44.7664C81.6241 44.8657 81.8553 45.0148 82.0504 45.205C82.2455 45.3951 82.4006 45.6224 82.5064 45.8735C82.6123 46.1245 82.6668 46.3942 82.6667 46.6667V58.6667C82.6722 58.9425 82.6217 59.2165 82.5183 59.4722C82.4148 59.728 82.2606 59.96 82.065 60.1545C81.8693 60.3489 81.6362 60.5016 81.3798 60.6034C81.1234 60.7052 80.8491 60.7539 80.5733 60.7467ZM68.48 53.48V58.6667H80.5867V46.6667H68.48V52.6933H63.3867V46.6667H51.28V52.6933H46.1333V46.6667H34.0267V58.6667H46.1333V53.48H51.28V58.8133H63.3733V53.4933L68.48 53.48Z" fill="white"/>
</g>
<defs>
<clipPath id="clip0_0_1417">
<rect width="100" height="100" fill="white"/>
</clipPath>
</defs>
</svg>
