<svg width="100" height="100" viewBox="0 0 100 100" fill="none" xmlns="http://www.w3.org/2000/svg">
<g clip-path="url(#clip0_0_1488)">
<path d="M100 0H0V100H100V0Z" fill="#3B48CC"/>
<path d="M42.2401 35.6665C29.8134 35.6665 20.0801 31.6665 20.0801 26.4265C20.0801 21.1865 29.8134 17.1865 42.2401 17.1865C54.6667 17.1865 64.4001 21.1865 64.4001 26.4265C64.4001 31.6665 54.6667 35.6665 42.2401 35.6665ZM42.2401 19.1865C30.3601 19.1865 22.0801 22.9999 22.0801 26.4265C22.0801 29.8532 30.3601 33.6665 42.2401 33.6665C54.1201 33.6665 62.4001 29.8532 62.4001 26.4265C62.4001 22.9999 54.1201 19.1865 42.2401 19.1865Z" fill="white"/>
<path d="M64.4 26.4263H62.4V42.1996H64.4V26.4263Z" fill="white"/>
<path d="M42.2401 82.8129C29.8134 82.8129 20.0801 78.8129 20.0801 73.5729V26.4263H22.0801V73.5729C22.0801 76.9996 30.3601 80.8129 42.2401 80.8129C54.1201 80.8129 62.4001 76.9996 62.4001 73.5729V69.0663H64.4001V73.5729C64.4001 78.7596 54.6667 82.8129 42.2401 82.8129Z" fill="white"/>
<path d="M42.2934 52.1601C29.8934 52.1601 20.1868 48.1601 20.1868 42.9067H22.1868C22.1868 46.3334 30.4401 50.1601 42.2934 50.1601C44.2625 50.158 46.23 50.0467 48.1868 49.8267L48.4134 51.8134C46.3816 52.0445 44.3383 52.1602 42.2934 52.1601Z" fill="white"/>
<path d="M42.2934 68.3598C29.8934 68.3598 20.1868 64.2931 20.1868 59.1064H22.1868C22.1868 62.5331 30.4401 66.3598 42.2934 66.3598C44.2625 66.3555 46.2298 66.2442 48.1868 66.0264L48.4001 67.9998C46.3728 68.2334 44.3341 68.3536 42.2934 68.3598Z" fill="white"/>
<path d="M78.3734 68.1466H51.2C51.0682 68.1484 50.9374 68.1238 50.8152 68.0741C50.6931 68.0245 50.5822 67.9509 50.4889 67.8577C50.3957 67.7645 50.3221 67.6535 50.2725 67.5314C50.2229 67.4093 50.1982 67.2784 50.2 67.1466V41.0933H52.2V66.1466H78.3734V68.1466Z" fill="white"/>
<path d="M56.3095 58.1062L53.3962 61.0195L54.8105 62.4337L57.7237 59.5205L56.3095 58.1062Z" fill="white"/>
<path d="M60.64 56.6131L59.2267 55.1997L61.9467 52.4664H68.7334L77.6667 43.5464L79.08 44.9597L69.5734 54.4664H62.7734L60.64 56.6131Z" fill="white"/>
<path d="M62.84 49.5466L59.52 46.2266H53.6267V44.2266H60.3467L62.84 46.7199L65.3467 44.2266H68.6L72.2934 47.9199L70.88 49.3332L67.7734 46.2266H66.1734L62.84 49.5466Z" fill="white"/>
<path d="M74.7184 50.3465L73.3042 51.7607L77.6694 56.1259L79.0836 54.7117L74.7184 50.3465Z" fill="white"/>
<path d="M76.4401 64.5864L75.0267 63.1731L76.9601 61.2397L75.0267 59.3064L76.4401 57.8931L79.7867 61.2397L76.4401 64.5864Z" fill="white"/>
<path d="M63.3334 63.6265L53.4 53.6931L54.8134 52.2798L63.3334 60.7998L67.2134 56.9198L70.5334 60.2398H78.3734V62.2398H69.7067L67.2134 59.7465L63.3334 63.6265Z" fill="white"/>
<path d="M79.9201 56.9868H75.1868V54.9868H77.9201V52.2534H79.9201V56.9868Z" fill="white"/>
<path d="M79.9201 47.0932H77.9201V44.3599H75.1868V42.3599H79.9201V47.0932Z" fill="white"/>
</g>
<defs>
<clipPath id="clip0_0_1488">
<rect width="100" height="100" fill="white"/>
</clipPath>
</defs>
</svg>
