<svg width="100" height="100" viewBox="0 0 100 100" fill="none" xmlns="http://www.w3.org/2000/svg">
<path d="M50.0001 92.2999C37.4001 92.2999 24.6201 88.9399 24.6201 82.5399V39.3599H28.6201V82.5399C28.6201 84.5399 36.1601 88.2799 49.9801 88.2799C63.8001 88.2799 71.3601 84.4799 71.3601 82.5399V39.3599H75.3601V82.5399C75.4201 88.9399 62.6401 92.2999 50.0001 92.2999Z" fill="#3B48CC"/>
<path d="M37.5999 62.3798C29.2399 60.7198 24.6399 57.6598 24.6399 53.7598H28.6399C28.6399 54.6398 31.0199 56.9798 38.3999 58.4398L37.5999 62.3798Z" fill="#3B48CC"/>
<path d="M64.7 61.8598L63.72 57.9998C69.32 56.5798 71.4 54.6598 71.4 53.7798H75.4C75.4 57.2398 71.6 60.1198 64.7 61.8598Z" fill="#3B48CC"/>
<path d="M50.0001 49.1201C37.3801 49.1201 24.6001 45.7801 24.6001 39.3601C24.6001 32.9401 37.3801 29.5801 50.0001 29.5801C62.6201 29.5801 75.3801 32.9401 75.3801 39.3601C75.3801 45.7801 62.6401 49.1201 50.0001 49.1201ZM50.0001 33.6001C36.1601 33.6001 28.6201 37.4001 28.6201 39.3601C28.6201 41.3201 36.2001 45.1201 50.0001 45.1201C63.8001 45.1201 71.3601 41.3201 71.3601 39.3601C71.3601 37.4001 63.8601 33.6001 50.0001 33.6001Z" fill="#3B48CC"/>
<path d="M50.0001 92.3001C37.3801 92.3001 24.6001 88.9401 24.6001 82.5401V68.1401C24.6001 67.6097 24.8108 67.101 25.1859 66.7259C25.561 66.3508 26.0697 66.1401 26.6001 66.1401C27.1305 66.1401 27.6392 66.3508 28.0143 66.7259C28.3894 67.101 28.6001 67.6097 28.6001 68.1401C28.6001 69.0201 31.0001 71.3601 38.3601 72.8401L37.5601 76.8401C34.4267 76.3039 31.4009 75.2638 28.6001 73.7601V82.6001C28.6001 84.6001 36.1601 88.3401 50.0001 88.3401C63.8401 88.3401 71.3601 84.5401 71.3601 82.6001V73.6801C69.2608 74.8498 67.0045 75.7119 64.6601 76.2401L63.6801 72.3601C69.2801 70.9401 71.3601 69.0201 71.3601 68.1401C71.3601 67.6097 71.5708 67.101 71.9459 66.7259C72.321 66.3508 72.8297 66.1401 73.3601 66.1401C73.8905 66.1401 74.3992 66.3508 74.7743 66.7259C75.1494 67.101 75.3601 67.6097 75.3601 68.1401V82.5401C75.4001 88.9401 62.6401 92.3001 50.0001 92.3001Z" fill="#3B48CC"/>
<path d="M13.6799 58.4398H9.67993V52.8198C9.67993 52.2894 9.89064 51.7807 10.2657 51.4056C10.6408 51.0305 11.1495 50.8198 11.6799 50.8198H21.0399V54.8198H13.6799V58.4398Z" fill="#3B48CC"/>
<path d="M90.3201 60.4398H79.0801V56.4398H88.3201V54.8398H79.0801V50.8398H90.3201C90.8505 50.8398 91.3592 51.0506 91.7343 51.4256C92.1094 51.8007 92.3201 52.3094 92.3201 52.8398V58.4598C92.3148 58.9868 92.1018 59.4904 91.7273 59.8611C91.3528 60.2319 90.8471 60.4399 90.3201 60.4398Z" fill="#3B48CC"/>
<path d="M96 60.4402H79.08V56.4402H94V27.5402C92.3809 26.9989 90.9729 25.9622 89.9753 24.5768C88.9777 23.1914 88.4409 21.5274 88.4409 19.8202C88.4409 18.113 88.9777 16.449 89.9753 15.0636C90.9729 13.6782 92.3809 12.6415 94 12.1002V11.7202H6V12.0002C7.67377 12.5022 9.13713 13.5385 10.1664 14.9507C11.1957 16.3628 11.7344 18.0731 11.7 19.8202C11.7168 21.5537 11.1701 23.2458 10.1421 24.6417C9.11407 26.0376 7.66044 27.0619 6 27.5602V56.4202H20.96V60.4202H4C3.46957 60.4202 2.96086 60.2095 2.58579 59.8344C2.21071 59.4593 2 58.9506 2 58.4202V25.8402C2 25.3098 2.21071 24.8011 2.58579 24.426C2.96086 24.0509 3.46957 23.8402 4 23.8402C5.00998 23.7884 5.95822 23.3383 6.63681 22.5885C7.31541 21.8386 7.66898 20.8503 7.62 19.8402C7.67455 18.8247 7.32406 17.829 6.6454 17.0716C5.96675 16.3143 5.01537 15.857 4 15.8002C3.46957 15.8002 2.96086 15.5895 2.58579 15.2144C2.21071 14.8393 2 14.3306 2 13.8002V9.7002C2 9.16976 2.21071 8.66105 2.58579 8.28598C2.96086 7.91091 3.46957 7.7002 4 7.7002H96C96.5304 7.7002 97.0391 7.91091 97.4142 8.28598C97.7893 8.66105 98 9.16976 98 9.7002V13.8002C98 14.3306 97.7893 14.8393 97.4142 15.2144C97.0391 15.5895 96.5304 15.8002 96 15.8002C95.0009 15.8721 94.0689 16.3296 93.4008 17.076C92.7328 17.8224 92.3811 18.7993 92.42 19.8002C92.376 20.8024 92.7259 21.7821 93.3949 22.5297C94.064 23.2772 94.999 23.7332 96 23.8002C96.5304 23.8002 97.0391 24.0109 97.4142 24.386C97.7893 24.7611 98 25.2698 98 25.8002V58.4002C98.0053 58.6662 97.9575 58.9306 97.8594 59.1779C97.7613 59.4251 97.6148 59.6504 97.4285 59.8403C97.2423 60.0303 97.02 60.1812 96.7747 60.2842C96.5294 60.3872 96.266 60.4402 96 60.4402Z" fill="#3B48CC"/>
<path d="M36.1399 28.6398H32.1399V17.2798C32.1399 16.7494 32.3506 16.2406 32.7257 15.8656C33.1008 15.4905 33.6095 15.2798 34.1399 15.2798H47.2399C47.7703 15.2798 48.279 15.4905 48.6541 15.8656C49.0292 16.2406 49.2399 16.7494 49.2399 17.2798V26.7398H45.2399V19.2798H36.1399V28.6398Z" fill="#3B48CC"/>
<path d="M67.9999 28.6398H63.9999V19.2798H54.8799V26.7398H50.8799V17.2798C50.8799 16.7494 51.0906 16.2406 51.4657 15.8656C51.8407 15.4905 52.3494 15.2798 52.8799 15.2798H65.9999C66.5303 15.2798 67.039 15.4905 67.4141 15.8656C67.7892 16.2406 67.9999 16.7494 67.9999 17.2798V28.6398Z" fill="#3B48CC"/>
<path d="M84.7001 47.3198H79.0801V43.3198H82.7001V19.3198H73.6001V30.3998H69.6001V17.2798C69.6001 16.7494 69.8108 16.2406 70.1859 15.8656C70.561 15.4905 71.0697 15.2798 71.6001 15.2798H84.7001C85.2305 15.2798 85.7392 15.4905 86.1143 15.8656C86.4894 16.2406 86.7001 16.7494 86.7001 17.2798V45.2798C86.7054 45.5458 86.6576 45.8102 86.5595 46.0574C86.4614 46.3047 86.3149 46.53 86.1286 46.7199C85.9424 46.9099 85.7201 47.0608 85.4748 47.1638C85.2295 47.2668 84.9661 47.3198 84.7001 47.3198Z" fill="#3B48CC"/>
<path d="M21.0199 47.3198H15.4199C14.8895 47.3198 14.3808 47.1091 14.0057 46.734C13.6306 46.359 13.4199 45.8503 13.4199 45.3198V17.3198C13.4199 16.7894 13.6306 16.2807 14.0057 15.9056C14.3808 15.5305 14.8895 15.3198 15.4199 15.3198H28.5199C29.0504 15.3198 29.5591 15.5305 29.9341 15.9056C30.3092 16.2807 30.5199 16.7894 30.5199 17.3198V30.3998H26.5199V19.2798H17.4199V43.2798H21.0199V47.3198Z" fill="#3B48CC"/>
<path d="M41.5601 81.1801V54.9401H51.2601C53.5001 54.8283 55.6977 55.5799 57.4001 57.0401C58.1664 57.7638 58.7683 58.6437 59.1651 59.6202C59.5619 60.5967 59.7443 61.647 59.7001 62.7001C59.7387 64.2792 59.2843 65.8312 58.4001 67.1401C57.4632 68.4502 56.1527 69.447 54.6401 70.0001L61.3401 81.2001H56.7801L50.7801 70.8001H46.1401V81.2001L41.5601 81.1801ZM46.1401 67.1801H50.6801C51.2721 67.2634 51.8753 67.208 52.4423 67.0183C53.0092 66.8287 53.5244 66.5099 53.9471 66.0872C54.3698 65.6644 54.6886 65.1493 54.8783 64.5823C55.0679 64.0154 55.1233 63.4121 55.0401 62.8201C55.1319 62.2371 55.0867 61.6408 54.908 61.0783C54.7293 60.5158 54.422 60.0027 54.0106 59.5796C53.5991 59.1565 53.0948 58.8351 52.5375 58.6407C51.9802 58.4464 51.3854 58.3846 50.8001 58.4601H46.1401V67.1801Z" fill="#3B48CC"/>
</svg>
