<svg width="100" height="100" viewBox="0 0 100 100" fill="none" xmlns="http://www.w3.org/2000/svg">
<path d="M50.6206 18.2034L31.874 33.4438L34.3973 36.5476L53.1439 21.3072L50.6206 18.2034Z" fill="#3B48CC"/>
<path d="M34.3863 63.4402L31.863 66.5439L50.6097 81.7843L53.1329 78.6806L34.3863 63.4402Z" fill="#3B48CC"/>
<path d="M48.7697 54.9753L47.5032 58.7695L77.4962 68.7818L78.7627 64.9876L48.7697 54.9753Z" fill="#3B48CC"/>
<path d="M77.7377 30.9924L47.6987 41.1108L48.9787 44.9108L79.0177 34.7924L77.7377 30.9924Z" fill="#3B48CC"/>
<path d="M59.1389 20.7418L55.8376 23.0005L80.2092 58.6209L83.5104 56.3622L59.1389 20.7418Z" fill="#3B48CC"/>
<path d="M84.9801 27.1999C78.2601 21.9199 67.6801 14.1999 67.5801 14.1199L70.0001 10.8799C70.1201 10.8799 80.7601 18.7199 87.5401 24.0599L84.9801 27.1999Z" fill="#3B48CC"/>
<path d="M68.7599 23.88H51.8799C51.3495 23.88 50.8407 23.6693 50.4657 23.2942C50.0906 22.9191 49.8799 22.4104 49.8799 21.88V5C49.8799 4.46957 50.0906 3.96086 50.4657 3.58579C50.8407 3.21071 51.3495 3 51.8799 3H68.7599C69.2903 3 69.799 3.21071 70.1741 3.58579C70.5492 3.96086 70.7599 4.46957 70.7599 5V21.88C70.7599 22.4104 70.5492 22.9191 70.1741 23.2942C69.799 23.6693 69.2903 23.88 68.7599 23.88ZM53.8799 19.88H66.7599V7H53.8799V19.88Z" fill="#3B48CC"/>
<path d="M80.2174 41.3768L55.8521 77.0015L59.1537 79.2596L83.519 43.6349L80.2174 41.3768Z" fill="#3B48CC"/>
<path d="M69.9999 89.1198L67.6599 85.8798C67.7599 85.8798 78.3399 78.0798 85.0599 72.7998L87.4599 75.9998C80.6799 81.2798 69.9999 89.0398 69.9999 89.1198Z" fill="#3B48CC"/>
<path d="M68.7599 97.0001H51.8799C51.3495 97.0001 50.8407 96.7894 50.4657 96.4143C50.0906 96.0393 49.8799 95.5306 49.8799 95.0001V78.1201C49.8799 77.5897 50.0906 77.081 50.4657 76.7059C50.8407 76.3308 51.3495 76.1201 51.8799 76.1201H68.7599C69.2903 76.1201 69.799 76.3308 70.1741 76.7059C70.5492 77.081 70.7599 77.5897 70.7599 78.1201V95.0001C70.7599 95.5306 70.5492 96.0393 70.1741 96.4143C69.799 96.7894 69.2903 97.0001 68.7599 97.0001ZM53.8799 93.0001H66.7599V80.1201H53.8799V93.0001Z" fill="#3B48CC"/>
<path d="M95.0001 76.38H78.1201C77.5897 76.38 77.081 76.1693 76.7059 75.7942C76.3308 75.4191 76.1201 74.9104 76.1201 74.38V57.5C76.1201 56.9696 76.3308 56.4609 76.7059 56.0858C77.081 55.7107 77.5897 55.5 78.1201 55.5H95.0001C95.5306 55.5 96.0393 55.7107 96.4143 56.0858C96.7894 56.4609 97.0001 56.9696 97.0001 57.5V74.38C97.0001 74.9104 96.7894 75.4191 96.4143 75.7942C96.0393 76.1693 95.5306 76.38 95.0001 76.38ZM80.1201 72.38H93.0001V59.5H80.1201V72.38Z" fill="#3B48CC"/>
<path d="M95.0001 44.5001H78.1201C77.5897 44.5001 77.081 44.2894 76.7059 43.9143C76.3308 43.5393 76.1201 43.0305 76.1201 42.5001V25.6201C76.1201 25.0897 76.3308 24.581 76.7059 24.2059C77.081 23.8308 77.5897 23.6201 78.1201 23.6201H95.0001C95.5306 23.6201 96.0393 23.8308 96.4143 24.2059C96.7894 24.581 97.0001 25.0897 97.0001 25.6201V42.5001C97.0001 43.0305 96.7894 43.5393 96.4143 43.9143C96.0393 44.2894 95.5306 44.5001 95.0001 44.5001ZM80.1201 40.5001H93.0001V27.6201H80.1201V40.5001Z" fill="#3B48CC"/>
<path d="M48.12 67H5C4.46957 67 3.96086 66.7893 3.58579 66.4142C3.21071 66.0391 3 65.5304 3 65V35C3 34.4696 3.21071 33.9609 3.58579 33.5858C3.96086 33.2107 4.46957 33 5 33H48.12C48.6504 33 49.1591 33.2107 49.5342 33.5858C49.9093 33.9609 50.12 34.4696 50.12 35V65C50.12 65.5304 49.9093 66.0391 49.5342 66.4142C49.1591 66.7893 48.6504 67 48.12 67ZM7 63H46.12V37H7V63Z" fill="#3B48CC"/>
<path d="M14.78 58.1199V41.2399H19.88C20.7906 41.1818 21.7017 41.3463 22.5345 41.7191C23.3674 42.092 24.0969 42.662 24.66 43.3799C25.8635 45.2436 26.4318 47.4466 26.28 49.6599C26.4393 51.8838 25.8783 54.0998 24.68 55.9799C24.1348 56.6925 23.4229 57.2603 22.6068 57.6334C21.7908 58.0066 20.8957 58.1736 20 58.1199H14.78ZM18.2 43.8399V55.5199H19.64C20.1236 55.5365 20.602 55.4156 21.0197 55.1713C21.4374 54.9271 21.7773 54.5695 22 54.1399C22.5899 52.843 22.8575 51.4226 22.78 49.9999V49.4999C22.8892 48.0236 22.6208 46.5438 22 45.1999C21.7716 44.7678 21.4242 44.41 20.9989 44.169C20.5736 43.928 20.0882 43.8138 19.6 43.8399H18.2Z" fill="#3B48CC"/>
<path d="M39.16 57.6401C38.0237 58.1561 36.7878 58.4156 35.54 58.4001C31.0067 58.4001 28.7333 55.5201 28.72 49.7601C28.5693 47.449 29.1959 45.154 30.5 43.2401C31.109 42.4785 31.8918 41.874 32.7826 41.4773C33.6735 41.0805 34.6465 40.9032 35.62 40.9601C36.7657 40.9606 37.9002 41.1848 38.96 41.6201V44.3001C38.0032 43.9892 37.0058 43.8207 36 43.8001C35.4514 43.7605 34.9018 43.8631 34.4043 44.0978C33.9069 44.3325 33.4783 44.6915 33.16 45.1401C32.4683 46.4555 32.1566 47.9375 32.26 49.4201V50.0001C32.1617 51.4608 32.4661 52.9205 33.14 54.2201C33.4446 54.6683 33.8619 55.0281 34.3501 55.2634C34.8382 55.4987 35.3797 55.601 35.92 55.5601C37.0066 55.5002 38.0815 55.3054 39.12 54.9801L39.16 57.6401Z" fill="#3B48CC"/>
</svg>
