<svg width="100" height="100" viewBox="0 0 100 100" fill="none" xmlns="http://www.w3.org/2000/svg">
<g clip-path="url(#clip0_0_1293)">
<path d="M100 0H0V100H100V0Z" fill="#3B48CC"/>
<path d="M53.4133 68.3333H51.68C51.3264 68.3333 50.9873 68.1929 50.7372 67.9428C50.4872 67.6928 50.3467 67.3536 50.3467 67V37.3333C50.3467 36.9797 50.4872 36.6406 50.7372 36.3905C50.9873 36.1405 51.3264 36 51.68 36H67.4267C67.6137 36.0021 67.7983 36.0436 67.9682 36.1217C68.1382 36.1998 68.2899 36.3128 68.4133 36.4533L72.4133 41.2667L70.5333 42.9867L66.84 38.6667H52.96V65.7733H53.4133V68.3333Z" fill="white"/>
<path d="M77.7599 73.16H56.2132C55.8596 73.16 55.5205 73.0195 55.2704 72.7695C55.0204 72.5194 54.8799 72.1803 54.8799 71.8267V42.16C54.8799 41.8064 55.0204 41.4672 55.2704 41.2172C55.5205 40.9671 55.8596 40.8267 56.2132 40.8267H72.8399C73.1786 40.8314 73.5027 40.9649 73.7466 41.2L78.6665 46.1867C78.9016 46.4305 79.0351 46.7547 79.0399 47.0933V71.88C79.0267 72.2153 78.8876 72.5332 78.6504 72.7705C78.4131 73.0077 78.0952 73.1468 77.7599 73.16ZM57.4932 70.6667H76.4799V47.6267L72.3065 43.44H57.4932V70.6667Z" fill="white"/>
<path d="M77.76 49.7069H71.5067C71.1531 49.7069 70.8139 49.5665 70.5639 49.3164C70.3138 49.0664 70.1733 48.7272 70.1733 48.3736V42.1069H72.7333V47.0803H77.7067L77.76 49.7069Z" fill="white"/>
<path d="M65.8399 66.2H64.9999C64.6756 66.2075 64.3538 66.1419 64.0584 66.008C63.7629 65.8741 63.5014 65.6754 63.2932 65.4267C62.7663 64.6447 62.5698 63.6862 62.7466 62.76C62.6666 60.3867 61.3332 60 61.3332 60C61.0803 59.904 60.8625 59.7334 60.7088 59.5107C60.5551 59.288 60.4728 59.0239 60.4728 58.7533C60.4728 58.4828 60.5551 58.2186 60.7088 57.9959C60.8625 57.7733 61.0803 57.6026 61.3332 57.5067C61.4532 57.5067 62.6666 57.0133 62.6666 54.6667C62.6666 53.2667 63.3199 51.7067 64.8799 51.6533H65.7599V54.2266H65.3332C65.313 54.3726 65.313 54.5207 65.3332 54.6667C65.4243 56.1549 64.9479 57.6224 63.9999 58.7733C64.9458 59.9202 65.4222 61.3827 65.3332 62.8667C65.3464 62.9461 65.3464 63.0272 65.3332 63.1067C65.3132 63.2972 65.3132 63.4894 65.3332 63.68H65.9066L65.8399 66.2Z" fill="white"/>
<path d="M69.4267 66.1999V63.6399H69.92C69.9332 63.498 69.9332 63.3551 69.92 63.2132C69.8289 61.7249 70.3054 60.2575 71.2534 59.1065C70.3074 57.9597 69.831 56.4971 69.92 55.0132C69.9135 54.9333 69.9135 54.8531 69.92 54.7732C69.9397 54.5871 69.9397 54.3994 69.92 54.2132H69.3467V51.6399H70.1867C70.5105 51.6352 70.8314 51.7021 71.1265 51.8358C71.4215 51.9695 71.6833 52.1666 71.8934 52.4132C72.4176 53.1963 72.6138 54.1537 72.44 55.0799C72.44 57.3465 73.7734 57.7465 73.7734 57.8265C74.0518 57.917 74.2928 58.0965 74.4591 58.3375C74.6253 58.5785 74.7077 58.8675 74.6934 59.1599C74.6953 59.4392 74.6028 59.711 74.431 59.9312C74.2592 60.1514 74.0181 60.3071 73.7467 60.3732C73.64 60.3732 72.4134 60.8665 72.4134 63.2265C72.4134 64.6265 71.76 66.1865 70.2 66.2265L69.4267 66.1999Z" fill="white"/>
<path d="M42.9733 36.2668C32.3066 36.2668 20.96 32.9868 20.96 26.9334C20.96 20.8801 32.2933 17.6001 42.9733 17.6001C53.6533 17.6001 64.9866 20.8801 64.9866 26.9334C64.9866 32.9868 53.64 36.2668 42.9733 36.2668ZM42.9733 20.1068C31.5066 20.1068 23.52 23.6934 23.52 26.9068C23.52 30.1201 31.52 33.6934 42.9733 33.6934C54.4266 33.6934 62.4133 30.1201 62.4133 26.9068C62.4133 23.6934 54.4266 20.1068 42.9733 20.1068Z" fill="white"/>
<path d="M64.9733 26.9067H62.4133V34.9867H64.9733V26.9067Z" fill="white"/>
<path d="M42.9733 82.4534C32.3066 82.4534 20.96 79.1734 20.96 73.1201V26.9067H23.52V73.0934C23.52 76.3067 31.52 79.8934 42.9733 79.8934C54.4266 79.8934 62.4133 76.3067 62.4133 73.0934H64.9866C64.9866 79.1734 53.64 82.4534 42.9733 82.4534Z" fill="white"/>
<path d="M43.0132 52.4134C30.4932 52.4134 21.0532 48.4134 21.0532 43.0801H23.6266C23.6266 46.2934 31.6266 49.8801 43.0132 49.8801C44.9336 49.8785 46.8522 49.7672 48.7599 49.5467L49.0532 52.0934C47.0477 52.3164 45.031 52.4232 43.0132 52.4134Z" fill="white"/>
<path d="M43.0132 68.2801C30.4932 68.2801 21.0532 64.2801 21.0532 58.9468H23.6266C23.6266 62.1601 31.6266 65.7468 43.0132 65.7468C44.9333 65.7476 46.8518 65.6408 48.7599 65.4268L49.0399 68.0001C47.0374 68.2011 45.0257 68.2946 43.0132 68.2801Z" fill="white"/>
</g>
<defs>
<clipPath id="clip0_0_1293">
<rect width="100" height="100" fill="white"/>
</clipPath>
</defs>
</svg>
