<svg width="100" height="100" viewBox="0 0 100 100" fill="none" xmlns="http://www.w3.org/2000/svg">
<g clip-path="url(#clip0_0_1404)">
<path d="M100 0H0V100H100V0Z" fill="#3B48CC"/>
<path d="M50.0267 36C41.08 36 32 38.3333 32 42.8V73.2C32 77.6667 41.04 80 49.9867 80C58.9333 80 68 77.6667 68 73.2V42.8C68 38.3333 58.9467 36 50.0267 36ZM50.0267 77.3333C40.1067 77.3333 34.6667 74.6667 34.6667 73.2V66.7867C38 68.8133 44 69.8667 49.9867 69.8667C55.9733 69.8667 61.9867 68.8133 65.2933 66.8V73.2C65.3333 74.6667 59.92 77.3333 50.0267 77.3333ZM50.0267 67.2C40.1067 67.2 34.7067 64.5333 34.7067 63.0667V56.6667C38.04 58.68 44.04 59.7333 50.0267 59.7333C56.0133 59.7333 62.0267 58.68 65.3333 56.6667V63.0667C65.3333 64.4667 59.92 67.2 50.0267 67.2ZM50.0267 57.0667C40.1067 57.0667 34.7067 54.4 34.7067 52.9333V46.52C38.04 48.5467 44.04 49.6 50.0267 49.6C56.0133 49.6 62.0267 48.5467 65.3333 46.52V52.9333C65.3333 54.3333 59.92 57.0667 50.0267 57.0667ZM50.0267 46.9333C40.1067 46.9333 34.6667 44.2 34.6667 42.8C34.6667 41.4 40 38.6667 49.9867 38.6667C59.9733 38.6667 65.3333 41.4 65.3333 42.8C65.3333 44.2 59.92 46.9333 50.0267 46.9333Z" fill="white"/>
<path d="M82.6667 25.5867C83.0203 25.5867 83.3594 25.4462 83.6095 25.1961C83.8595 24.9461 84 24.607 84 24.2533V21.3333C84 20.9797 83.8595 20.6406 83.6095 20.3905C83.3594 20.1405 83.0203 20 82.6667 20H17.3333C16.9797 20 16.6406 20.1405 16.3905 20.3905C16.1405 20.6406 16 20.9797 16 21.3333V24.24C16 24.5936 16.1405 24.9328 16.3905 25.1828C16.6406 25.4329 16.9797 25.5733 17.3333 25.5733C18.0665 25.6432 18.7473 25.9838 19.2427 26.5287C19.7382 27.0735 20.0127 27.7835 20.0127 28.52C20.0127 29.2565 19.7382 29.9665 19.2427 30.5113C18.7473 31.0562 18.0665 31.3968 17.3333 31.4667C16.9797 31.4667 16.6406 31.6071 16.3905 31.8572C16.1405 32.1072 16 32.4464 16 32.8V56C16 56.3536 16.1405 56.6928 16.3905 56.9428C16.6406 57.1929 16.9797 57.3333 17.3333 57.3333H29.3333V54.6667H24V53.3333H29.3333V50.6667H22.6667C22.313 50.6667 21.9739 50.8071 21.7239 51.0572C21.4738 51.3072 21.3333 51.6464 21.3333 52V54.6667H18.6667V33.96C19.8311 33.6052 20.8508 32.8856 21.5753 31.9074C22.2999 30.9291 22.691 29.744 22.691 28.5267C22.691 27.3093 22.2999 26.1242 21.5753 25.146C20.8508 24.1677 19.8311 23.4482 18.6667 23.0933V22.6667H81.3333V23.1067C80.1859 23.4756 79.1852 24.1992 78.4753 25.1732C77.7654 26.1472 77.3829 27.3214 77.3829 28.5267C77.3829 29.7319 77.7654 30.9061 78.4753 31.8801C79.1852 32.8541 80.1859 33.5777 81.3333 33.9467V54.6667H80V52C80 51.6464 79.8595 51.3072 79.6095 51.0572C79.3594 50.8071 79.0203 50.6667 78.6667 50.6667H70.6667V53.3333H77.3333V54.6667H70.6667V57.3333H82.6667C83.0203 57.3333 83.3594 57.1929 83.6095 56.9428C83.8595 56.6928 84 56.3536 84 56V32.8C84 32.4464 83.8595 32.1072 83.6095 31.8572C83.3594 31.6071 83.0203 31.4667 82.6667 31.4667C81.946 31.3825 81.2814 31.0365 80.799 30.4945C80.3167 29.9525 80.0502 29.2522 80.0502 28.5267C80.0502 27.8011 80.3167 27.1008 80.799 26.5588C81.2814 26.0168 81.946 25.6709 82.6667 25.5867Z" fill="white"/>
<path d="M49.3334 33.3335V26.6668C49.3334 26.3132 49.1929 25.9741 48.9429 25.724C48.6928 25.474 48.3537 25.3335 48 25.3335H38.6667C38.3131 25.3335 37.9739 25.474 37.7239 25.724C37.4738 25.9741 37.3334 26.3132 37.3334 26.6668V34.6668H40V28.0002H46.6667V33.3335H49.3334Z" fill="white"/>
<path d="M62.6666 34.6668V26.6668C62.6666 26.3132 62.5262 25.9741 62.2761 25.724C62.0261 25.474 61.6869 25.3335 61.3333 25.3335H52C51.6463 25.3335 51.3072 25.474 51.0571 25.724C50.8071 25.9741 50.6666 26.3132 50.6666 26.6668V33.3335H53.3333V28.0002H60V34.6668H62.6666Z" fill="white"/>
<path d="M70.6667 45.3335V48.0002H74.6667C75.0203 48.0002 75.3594 47.8597 75.6095 47.6096C75.8595 47.3596 76 47.0205 76 46.6668V26.6668C76 26.3132 75.8595 25.9741 75.6095 25.724C75.3594 25.474 75.0203 25.3335 74.6667 25.3335H65.3333C64.9797 25.3335 64.6406 25.474 64.3905 25.724C64.1405 25.9741 64 26.3132 64 26.6668V36.0002H66.6667V28.0002H73.3333V45.3335H70.6667Z" fill="white"/>
<path d="M26.6667 28.0002H33.3333V36.0002H36V26.6668C36 26.3132 35.8595 25.9741 35.6095 25.724C35.3594 25.474 35.0203 25.3335 34.6667 25.3335H25.3333C24.9797 25.3335 24.6406 25.474 24.3905 25.724C24.1405 25.9741 24 26.3132 24 26.6668V46.6668C24 47.0205 24.1405 47.3596 24.3905 47.6096C24.6406 47.8597 24.9797 48.0002 25.3333 48.0002H29.3333V45.3335H26.6667V28.0002Z" fill="white"/>
</g>
<defs>
<clipPath id="clip0_0_1404">
<rect width="100" height="100" fill="white"/>
</clipPath>
</defs>
</svg>
