<svg width="100" height="100" viewBox="0 0 100 100" fill="none" xmlns="http://www.w3.org/2000/svg">
<g clip-path="url(#clip0_0_1433)">
<path d="M100 0H0V100H100V0Z" fill="url(#paint0_linear_0_1433)"/>
<path d="M64.6 37.6401C64.6 33.7735 57.0133 31.9868 49.9333 31.9868C42.8533 31.9868 35.2666 33.7735 35.2666 37.6401C35.2608 37.8335 35.2833 38.0266 35.3333 38.2135V62.2801C35.2666 66.2801 42.8666 67.9868 50 67.9868C57.1333 67.9868 64.6666 66.2268 64.6666 62.3601V37.6401H64.6ZM49.96 34.6668C57.7333 34.6668 61.96 36.7868 61.96 37.6535C61.96 38.5201 57.76 40.6401 49.96 40.6401C42.16 40.6401 37.96 38.5335 37.96 37.6535C37.96 36.7735 42.1866 34.6668 49.96 34.6668ZM61.96 62.3735C61.96 63.2268 57.7466 65.3335 49.96 65.3335C42.1733 65.3335 37.96 63.2268 37.96 62.3735V58.1601C40.7733 59.6935 45.4933 60.4268 49.96 60.4268C54.4266 60.4268 59.1066 59.7068 61.96 58.2002V62.3735ZM61.96 54.7868C61.96 55.6401 57.76 57.7735 49.96 57.7735C42.16 57.7735 37.96 55.6401 37.96 54.7868H38V49.6935C40.8133 51.2135 45.5333 51.9468 50 51.9468C54.4666 51.9468 59.1466 51.2268 62 49.7201L61.96 54.7868ZM61.96 46.2935C61.96 47.1602 57.76 49.2935 49.96 49.2935C42.16 49.2935 37.96 47.1602 37.96 46.2935H38V41.0935C40.84 42.6001 45.5066 43.2935 50 43.2935C54.4933 43.2935 59.2133 42.5735 62 41.0402L61.96 46.2935Z" fill="white"/>
<path d="M21.2133 80.68H30V83.3466H18C17.6463 83.3466 17.3072 83.2062 17.0572 82.9561C16.8071 82.7061 16.6666 82.3669 16.6666 82.0133V70.0133H19.3333V78.7733L29.3333 68.7866L31.2 70.6666L21.2133 80.68Z" fill="white"/>
<path d="M83.3332 70.0131V82.0131C83.3332 82.3667 83.1927 82.7059 82.9427 82.9559C82.6926 83.206 82.3535 83.3464 81.9999 83.3464H69.9999V80.6798H78.7866L68.9332 70.7998L70.8132 68.9331L80.6666 78.7731V70.0131H83.3332Z" fill="white"/>
<path d="M83.3332 18.0135V30.0135H80.6666V21.2135L70.8132 31.0668L68.9332 29.1868L78.7732 19.3468H69.9999V16.6802H81.9999C82.3535 16.6802 82.6926 16.8207 82.9427 17.0707C83.1927 17.3207 83.3332 17.6599 83.3332 18.0135Z" fill="white"/>
<path d="M31.2 29.3333L29.3333 31.2L19.3333 21.2133V29.9867H16.6666V17.9867C16.6666 17.633 16.8071 17.2939 17.0572 17.0438C17.3072 16.7938 17.6463 16.6533 18 16.6533H30V19.32H21.2133L31.2 29.3333Z" fill="white"/>
<path d="M29.5466 61.9467C21.3999 59.0134 16.7333 54.5334 16.7333 49.6667C16.7333 44.8 21.3999 40.3334 29.5466 37.3867L30.4533 39.8934C23.5333 42.3867 19.3999 46.04 19.3999 49.6667C19.3999 53.2934 23.5333 56.9467 30.4533 59.4401L29.5466 61.9467Z" fill="white"/>
<path d="M69.7066 62.2399L68.8533 59.7066C76.2533 57.2133 80.6666 53.4533 80.6666 49.6666C80.6666 45.8799 76.2533 42.1199 68.8533 39.6133L69.7066 37.0933C78.3599 39.9999 83.3333 44.6133 83.3333 49.6666C83.3333 54.7199 78.3599 59.3066 69.7066 62.2399Z" fill="white"/>
</g>
<defs>
<linearGradient id="paint0_linear_0_1433" x1="-20.7067" y1="120.707" x2="120.72" y2="-20.72" gradientUnits="userSpaceOnUse">
<stop stop-color="#2E27AD"/>
<stop offset="1" stop-color="#527FFF"/>
</linearGradient>
<clipPath id="clip0_0_1433">
<rect width="100" height="100" fill="white"/>
</clipPath>
</defs>
</svg>
