<svg width="100" height="100" viewBox="0 0 100 100" fill="none" xmlns="http://www.w3.org/2000/svg">
<path d="M97 48.24H51.76V3H97V48.24ZM55.76 44.24H93V7H55.76V44.24Z" fill="#3B48CC"/>
<path d="M97 96.9998H51.76V51.7598H97V96.9998ZM55.76 92.9998H93V55.7598H55.76V92.9998Z" fill="#3B48CC"/>
<path d="M48.24 48.24H3V3H48.24V48.24ZM7 44.24H44.24V7H7V44.24Z" fill="#3B48CC"/>
<path d="M48.24 96.9998H3V51.7598H48.24V96.9998ZM7 92.9998H44.24V55.7598H7V92.9998Z" fill="#3B48CC"/>
<path d="M74.38 40.76C71.3847 40.7639 68.4556 39.8793 65.9632 38.2181C63.4708 36.5569 61.5272 34.1938 60.3782 31.4277C59.2292 28.6615 58.9265 25.6168 59.5085 22.6786C60.0904 19.7404 61.5307 17.0408 63.6473 14.9215C65.7639 12.8021 68.4615 11.3582 71.3989 10.7724C74.3364 10.1866 77.3815 10.4852 80.1492 11.6305C82.9168 12.7759 85.2825 14.7164 86.947 17.2066C88.6115 19.6968 89.5 22.6247 89.5 25.62C89.4947 29.6303 87.9006 33.4751 85.0668 36.3127C82.233 39.1503 78.3903 40.7494 74.38 40.76ZM74.38 14.5C72.175 14.496 70.0184 15.1465 68.1834 16.3691C66.3484 17.5916 64.9174 19.3313 64.0718 21.3676C63.2262 23.404 63.0039 25.6455 63.4331 27.8084C63.8623 29.9712 64.9237 31.958 66.4828 33.5171C68.042 35.0763 70.0288 36.1377 72.1916 36.5669C74.3544 36.9961 76.5959 36.7738 78.6323 35.9281C80.6687 35.0825 82.4083 33.6516 83.6309 31.8165C84.8534 29.9815 85.5039 27.825 85.5 25.62C85.4894 22.674 84.3145 19.8517 82.2314 17.7686C80.1482 15.6855 77.3259 14.5105 74.38 14.5Z" fill="#3B48CC"/>
</svg>
