<svg width="100" height="100" viewBox="0 0 100 100" fill="none" xmlns="http://www.w3.org/2000/svg">
<path d="M97 96.0002H51.76V67.6802H97V96.0002ZM55.76 92.0002H93V71.6802H55.76V92.0002Z" fill="#3B48CC"/>
<path d="M97 64.1798H51.76V35.8198H97V64.1798ZM55.76 60.1798H93V39.8198H55.76V60.1798Z" fill="#3B48CC"/>
<path d="M97 32.32H51.76V4H97V32.32ZM55.76 28.32H93V8H55.76V28.32Z" fill="#3B48CC"/>
<path d="M48.24 96.0002H3V67.6802H48.24V96.0002ZM7 92.0002H44.24V71.6802H7V92.0002Z" fill="#3B48CC"/>
<path d="M48.24 64.1798H3V35.8198H48.24V64.1798ZM7 60.1798H44.24V39.8198H7V60.1798Z" fill="#3B48CC"/>
<path d="M48.24 32.32H3V4H48.24V32.32ZM7 28.32H44.24V8H7V28.32Z" fill="#3B48CC"/>
<path d="M74.3801 90.4398C72.6871 90.4398 71.0321 89.9378 69.6244 88.9972C68.2167 88.0566 67.1195 86.7197 66.4717 85.1556C65.8238 83.5915 65.6543 81.8703 65.9846 80.2099C66.3148 78.5494 67.1301 77.0241 68.3272 75.827C69.5244 74.6299 71.0496 73.8146 72.7101 73.4843C74.3706 73.154 76.0917 73.3235 77.6558 73.9714C79.22 74.6193 80.5569 75.7165 81.4975 77.1241C82.438 78.5318 82.9401 80.1868 82.9401 81.8798C82.9401 84.1501 82.0382 86.3273 80.4329 87.9326C78.8276 89.538 76.6503 90.4398 74.3801 90.4398ZM74.3801 77.3198C73.4782 77.3198 72.5966 77.5873 71.8467 78.0883C71.0968 78.5894 70.5123 79.3016 70.1672 80.1348C69.822 80.968 69.7317 81.8849 69.9077 82.7694C70.0836 83.654 70.5179 84.4665 71.1557 85.1042C71.7934 85.742 72.6059 86.1762 73.4905 86.3522C74.375 86.5281 75.2919 86.4378 76.1251 86.0927C76.9583 85.7476 77.6705 85.1631 78.1716 84.4132C78.6726 83.6633 78.9401 82.7817 78.9401 81.8798C78.9401 80.6704 78.4596 79.5106 77.6045 78.6554C76.7493 77.8003 75.5895 77.3198 74.3801 77.3198Z" fill="#3B48CC"/>
<path d="M74.3801 58.5599C72.6871 58.5599 71.0321 58.0579 69.6244 57.1173C68.2167 56.1767 67.1195 54.8399 66.4717 53.2757C65.8238 51.7116 65.6543 49.9905 65.9846 48.33C66.3148 46.6695 67.1301 45.1442 68.3272 43.9471C69.5244 42.75 71.0496 41.9347 72.7101 41.6044C74.3706 41.2741 76.0917 41.4437 77.6558 42.0915C79.22 42.7394 80.5569 43.8366 81.4975 45.2443C82.438 46.652 82.9401 48.3069 82.9401 49.9999C82.9401 52.2702 82.0382 54.4475 80.4329 56.0528C78.8276 57.6581 76.6503 58.5599 74.3801 58.5599ZM74.3801 45.4399C73.4782 45.4399 72.5966 45.7074 71.8467 46.2084C71.0968 46.7095 70.5123 47.4217 70.1672 48.2549C69.822 49.0881 69.7317 50.005 69.9077 50.8896C70.0836 51.7741 70.5179 52.5866 71.1557 53.2244C71.7934 53.8621 72.6059 54.2964 73.4905 54.4723C74.375 54.6483 75.2919 54.558 76.1251 54.2128C76.9583 53.8677 77.6705 53.2832 78.1716 52.5333C78.6726 51.7835 78.9401 50.9018 78.9401 49.9999C78.9401 48.7906 78.4596 47.6307 77.6045 46.7755C76.7493 45.9204 75.5895 45.4399 74.3801 45.4399Z" fill="#3B48CC"/>
<path d="M74.3801 26.6801C72.6871 26.6801 71.0321 26.178 69.6244 25.2374C68.2167 24.2969 67.1195 22.96 66.4717 21.3958C65.8238 19.8317 65.6543 18.1106 65.9846 16.4501C66.3148 14.7896 67.1301 13.2644 68.3272 12.0672C69.5244 10.8701 71.0496 10.0548 72.7101 9.72454C74.3706 9.39425 76.0917 9.56377 77.6558 10.2117C79.22 10.8595 80.5569 11.9567 81.4975 13.3644C82.438 14.7721 82.9401 16.4271 82.9401 18.1201C82.9401 20.3903 82.0382 22.5676 80.4329 24.1729C78.8276 25.7782 76.6503 26.6801 74.3801 26.6801ZM74.3801 13.5601C73.4782 13.5601 72.5966 13.8275 71.8467 14.3286C71.0968 14.8296 70.5123 15.5418 70.1672 16.375C69.822 17.2083 69.7317 18.1251 69.9077 19.0097C70.0836 19.8942 70.5179 20.7067 71.1557 21.3445C71.7934 21.9822 72.6059 22.4165 73.4905 22.5924C74.375 22.7684 75.2919 22.6781 76.1251 22.333C76.9583 21.9878 77.6705 21.4034 78.1716 20.6535C78.6726 19.9036 78.9401 19.0219 78.9401 18.1201C78.9401 17.5212 78.8221 16.9283 78.593 16.375C78.3638 15.8218 78.0279 15.3191 77.6045 14.8957C77.181 14.4722 76.6784 14.1363 76.1251 13.9072C75.5719 13.678 74.9789 13.5601 74.3801 13.5601Z" fill="#3B48CC"/>
</svg>
