<svg width="100" height="100" viewBox="0 0 100 100" fill="none" xmlns="http://www.w3.org/2000/svg">
<g clip-path="url(#clip0_0_1279)">
<path d="M100 0H0V100H100V0Z" fill="#3B48CC"/>
<path d="M33.8399 39.3735C23.5066 39.3735 12.5066 36.2402 12.5066 30.4402C12.5066 24.6402 23.4799 21.5068 33.8399 21.5068C44.1999 21.5068 55.1733 24.6402 55.1733 30.4402C55.1733 36.2402 44.1599 39.3735 33.8399 39.3735ZM33.8399 24.1735C23.1733 24.1735 15.1733 27.4802 15.1733 30.4402C15.1733 33.4002 23.1733 36.7068 33.8399 36.7068C44.5066 36.7068 52.5066 33.4002 52.5066 30.4402C52.5066 27.4802 44.4933 24.1735 33.8399 24.1735Z" fill="white"/>
<path d="M55.2133 30.8398H52.5466V53.5065H55.2133V30.8398Z" fill="white"/>
<path d="M33.8266 82.6665C23.5066 82.6665 12.4933 79.5732 12.4933 73.8265V30.8398H15.16V73.8532C15.16 76.7865 23.16 80.0532 33.8266 80.0532C44.4933 80.0532 52.4933 76.7865 52.4933 73.8532V69.5065H55.16V73.8532C55.2133 79.5998 44.16 82.6665 33.8266 82.6665Z" fill="white"/>
<path d="M33.8399 54.4402C23.5199 54.4402 12.5066 51.3068 12.5066 45.5068H15.1733C15.1733 48.4668 23.1733 51.7735 33.8399 51.7735C44.5066 51.7735 52.5066 48.4668 52.5066 45.5068H55.1733C55.1466 51.3068 44.1733 54.4402 33.8399 54.4402Z" fill="white"/>
<path d="M33.9333 69.1067C23.6133 69.1067 12.6 65.9733 12.6 60.1733H15.2666C15.2666 63.1333 23.2666 66.44 33.9333 66.44C38.2981 66.4987 42.6448 65.8688 46.8133 64.5733L47.6666 67.0933C43.2239 68.4855 38.5887 69.165 33.9333 69.1067Z" fill="white"/>
<path d="M65.1333 83.8267C64.7796 83.8267 64.4405 83.6862 64.1905 83.4361C63.9404 83.1861 63.7999 82.847 63.7999 82.4933C63.7999 73.3333 53.3333 62.84 44.1333 62.84C43.7796 62.84 43.4405 62.6995 43.1905 62.4495C42.9404 62.1994 42.7999 61.8603 42.7999 61.5067C42.7999 61.1531 42.9404 60.8139 43.1905 60.5639C43.4405 60.3138 43.7796 60.1733 44.1333 60.1733C53.3199 60.1733 63.7999 49.6933 63.7999 40.5067C63.7999 40.1531 63.9404 39.8139 64.1905 39.5639C64.4405 39.3138 64.7796 39.1733 65.1333 39.1733C65.4869 39.1733 65.826 39.3138 66.0761 39.5639C66.3261 39.8139 66.4666 40.1531 66.4666 40.5067C66.4666 49.6933 76.9333 60.1733 86.1333 60.1733C86.4869 60.1733 86.826 60.3138 87.0761 60.5639C87.3261 60.8139 87.4666 61.1531 87.4666 61.5067C87.4666 61.8603 87.3261 62.1994 87.0761 62.4495C86.826 62.6995 86.4869 62.84 86.1333 62.84C76.9333 62.84 66.4666 73.3067 66.4666 82.4933C66.4666 82.847 66.3261 83.1861 66.0761 83.4361C65.826 83.6862 65.4869 83.8267 65.1333 83.8267ZM50.6666 61.5067C57.1831 64.283 62.3689 69.4784 65.1333 76C67.9023 69.4678 73.1051 64.2697 79.6399 61.5067C73.1043 58.7381 67.9019 53.5357 65.1333 47C62.3694 53.5251 57.184 58.7248 50.6666 61.5067Z" fill="white"/>
<path d="M73.8799 29.5068H71.2133V37.5068H73.8799V29.5068Z" fill="white"/>
<path d="M76.5466 32.1733H68.5466V34.84H76.5466V32.1733Z" fill="white"/>
<path d="M59.2133 16.1733H56.5466V24.1733H59.2133V16.1733Z" fill="white"/>
<path d="M61.8799 18.8398H53.8799V21.5065H61.8799V18.8398Z" fill="white"/>
</g>
<defs>
<clipPath id="clip0_0_1279">
<rect width="100" height="100" fill="white"/>
</clipPath>
</defs>
</svg>
