<svg width="100" height="100" viewBox="0 0 100 100" fill="none" xmlns="http://www.w3.org/2000/svg">
<g clip-path="url(#clip0_0_1413)">
<path d="M100 0H0V100H100V0Z" fill="#3B48CC"/>
<path d="M59.2933 43.2265C60.4211 43.7647 61.3531 44.6408 61.96 45.7332V26.2932C61.96 20.0398 50.28 16.6665 39.2933 16.6665C28.3066 16.6665 16.6266 20.0398 16.6266 26.2932V73.7065C16.6266 79.9598 28.3066 83.3332 39.2933 83.3332C50.28 83.3332 61.96 79.9598 61.96 73.7065V67.3332H59.2933V73.7065C59.2933 76.9998 51.08 80.6665 39.2933 80.6665C27.5066 80.6665 19.2933 76.9998 19.2933 73.7065V63.8132C23.2933 67.0665 31.52 68.7865 39.2933 68.7865C41.5627 68.7878 43.8298 68.6408 46.08 68.3465C45.5146 67.5958 45.1064 66.7387 44.88 65.8265C43.0243 66.0229 41.1594 66.1209 39.2933 66.1198C27.5466 66.1198 19.2933 62.4532 19.2933 59.1598H19.3333V47.5198C23.3333 50.7732 31.56 52.4932 39.3333 52.4932C43.3322 52.5227 47.3204 52.0751 51.2133 51.1598C50.8687 50.3879 50.6915 49.5518 50.6933 48.7065V48.5598C46.9756 49.4684 43.1603 49.9162 39.3333 49.8932C27.5866 49.8932 19.3333 46.2265 19.3333 42.9332V31.0665C23.4266 34.2932 31.56 35.9865 39.3333 35.9865C47.1066 35.9865 55.24 34.2932 59.3333 31.0665V42.9332C59.3288 43.0319 59.3154 43.1301 59.2933 43.2265ZM39.2933 33.2532C27.5066 33.2532 19.2933 29.5865 19.2933 26.2932C19.2933 22.9998 27.5066 19.3332 39.2933 19.3332C51.08 19.3332 59.2933 22.9998 59.2933 26.2932C59.2933 29.5865 51.12 33.2532 39.3333 33.2532H39.2933ZM80 67.3332C79.1159 67.3332 78.2681 67.6844 77.643 68.3095C77.0178 68.9346 76.6666 69.7825 76.6666 70.6665C76.6662 70.9043 76.693 71.1415 76.7467 71.3732L72.3333 74.1332C71.6238 73.4548 70.7359 72.9924 69.7733 72.7998L69.5066 66.8665C70.722 66.5686 71.8332 65.9448 72.7204 65.0623C73.6076 64.1798 74.2374 63.0721 74.5418 61.8583C74.8463 60.6445 74.814 59.3707 74.4483 58.174C74.0827 56.9772 73.3975 55.9028 72.4666 55.0665L76.6266 47.9998C77.0571 48.1408 77.5071 48.2128 77.96 48.2132C78.883 48.2132 79.7852 47.9395 80.5526 47.4267C81.3201 46.9139 81.9182 46.1851 82.2714 45.3324C82.6246 44.4796 82.717 43.5413 82.537 42.6361C82.3569 41.7308 81.9125 40.8993 81.2598 40.2467C80.6072 39.594 79.7757 39.1496 78.8704 38.9695C77.9652 38.7894 77.0268 38.8819 76.1741 39.2351C75.3214 39.5883 74.5926 40.1864 74.0798 40.9538C73.567 41.7213 73.2933 42.6235 73.2933 43.5465C73.2882 44.6345 73.6711 45.6888 74.3733 46.5198L70.1333 53.6532C69.4019 53.4166 68.635 53.3084 67.8666 53.3332C66.5384 53.3263 65.2384 53.7163 64.1333 54.4532L59.76 49.9732C59.9283 49.5585 60.0099 49.1139 60 48.6665C60 48.0072 59.8045 47.3628 59.4382 46.8146C59.0719 46.2664 58.5513 45.8392 57.9423 45.5869C57.3332 45.3346 56.663 45.2686 56.0163 45.3972C55.3697 45.5258 54.7758 45.8433 54.3096 46.3095C53.8434 46.7757 53.526 47.3696 53.3974 48.0162C53.2687 48.6628 53.3348 49.333 53.587 49.9421C53.8393 50.5512 54.2666 51.0718 54.8147 51.4381C55.3629 51.8043 56.0074 51.9998 56.6666 51.9998C57.0673 51.9984 57.4645 51.9262 57.84 51.7865L62.2133 56.2532C61.3973 57.3966 60.9633 58.7685 60.9733 60.1732L55.8133 61.3332C55.1718 60.4256 54.2267 59.7776 53.1489 59.5064C52.0711 59.2352 50.9318 59.3587 49.9371 59.8546C48.9425 60.3504 48.1582 61.186 47.7261 62.2099C47.294 63.2339 47.2427 64.3787 47.5814 65.4372C47.9201 66.4958 48.6265 67.3981 49.5728 67.981C50.5191 68.5639 51.6428 68.7889 52.7405 68.6152C53.8383 68.4415 54.8376 67.8807 55.5578 67.0341C56.2779 66.1876 56.6712 65.1112 56.6666 63.9998C56.6732 63.9556 56.6732 63.9107 56.6666 63.8665L61.5333 62.8532C61.9932 63.9404 62.7255 64.8908 63.6598 65.6125C64.594 66.3342 65.6985 66.8028 66.8666 66.9732L67.1333 72.8932C66.1863 73.1774 65.337 73.7194 64.6801 74.4584C64.0233 75.1975 63.5849 76.1046 63.4138 77.0784C63.2427 78.0523 63.3457 79.0545 63.7112 79.9732C64.0768 80.8919 64.6906 81.6909 65.484 82.2809C66.2774 82.871 67.2192 83.2289 68.2042 83.3146C69.1892 83.4003 70.1787 83.2105 71.0621 82.7664C71.9455 82.3223 72.6881 81.6414 73.2069 80.7997C73.7257 79.958 74.0003 78.9886 74 77.9998C74.0048 77.4562 73.9192 76.9155 73.7467 76.3998L78.32 73.5465C78.8287 73.8467 79.4093 74.0034 80 73.9998C80.884 73.9998 81.7319 73.6487 82.357 73.0235C82.9821 72.3984 83.3333 71.5506 83.3333 70.6665C83.3333 69.7825 82.9821 68.9346 82.357 68.3095C81.7319 67.6844 80.884 67.3332 80 67.3332ZM78 41.5865C78.3955 41.5865 78.7822 41.7038 79.1111 41.9236C79.44 42.1433 79.6964 42.4557 79.8477 42.8211C79.9991 43.1866 80.0387 43.5887 79.9615 43.9767C79.8844 44.3646 79.6939 44.721 79.4142 45.0007C79.1345 45.2804 78.7781 45.4709 78.3902 45.5481C78.0022 45.6252 77.6001 45.5856 77.2346 45.4343C76.8692 45.2829 76.5568 45.0265 76.337 44.6976C76.1173 44.3687 76 43.9821 76 43.5865C76 43.0561 76.2107 42.5474 76.5858 42.1723C76.9608 41.7972 77.4695 41.5865 78 41.5865ZM56.6666 49.3332C56.4898 49.3332 56.3203 49.2629 56.1952 49.1379C56.0702 49.0129 56 48.8433 56 48.6665C56 48.4897 56.0702 48.3201 56.1952 48.1951C56.3203 48.0701 56.4898 47.9998 56.6666 47.9998C56.8435 47.9998 57.013 48.0701 57.1381 48.1951C57.2631 48.3201 57.3333 48.4897 57.3333 48.6665C57.3333 48.8433 57.2631 49.0129 57.1381 49.1379C57.013 49.2629 56.8435 49.3332 56.6666 49.3332ZM52 65.9998C51.6044 65.9998 51.2177 65.8825 50.8888 65.6628C50.5599 65.443 50.3036 65.1307 50.1522 64.7652C50.0008 64.3998 49.9612 63.9976 50.0384 63.6097C50.1156 63.2217 50.3061 62.8653 50.5858 62.5856C50.8655 62.3059 51.2218 62.1154 51.6098 62.0383C51.9978 61.9611 52.3999 62.0007 52.7653 62.1521C53.1308 62.3035 53.4432 62.5598 53.6629 62.8887C53.8827 63.2176 54 63.6043 54 63.9998C54 64.5303 53.7893 65.039 53.4142 65.4141C53.0391 65.7891 52.5304 65.9998 52 65.9998ZM63.64 60.1732C63.64 59.3372 63.8879 58.52 64.3523 57.825C64.8167 57.1299 65.4768 56.5881 66.2492 56.2682C67.0215 55.9483 67.8713 55.8646 68.6912 56.0277C69.5111 56.1908 70.2642 56.5934 70.8554 57.1845C71.4465 57.7756 71.849 58.5287 72.0121 59.3486C72.1752 60.1685 72.0915 61.0183 71.7716 61.7906C71.4517 62.563 70.9099 63.2231 70.2149 63.6875C69.5198 64.1519 68.7026 64.3998 67.8666 64.3998C66.7457 64.3998 65.6706 63.9545 64.8779 63.1619C64.0853 62.3692 63.64 61.2942 63.64 60.1732ZM68.6666 80.6665C68.1392 80.6665 67.6237 80.5101 67.1851 80.2171C66.7466 79.9241 66.4048 79.5076 66.203 79.0203C66.0011 78.5331 65.9483 77.9969 66.0512 77.4796C66.1541 76.9623 66.4081 76.4872 66.781 76.1142C67.154 75.7413 67.6291 75.4873 68.1464 75.3844C68.6637 75.2815 69.1999 75.3343 69.6871 75.5362C70.1744 75.738 70.5909 76.0798 70.8839 76.5183C71.1769 76.9568 71.3333 77.4724 71.3333 77.9998C71.3333 78.7071 71.0524 79.3854 70.5523 79.8855C70.0522 80.3856 69.3739 80.6665 68.6666 80.6665ZM80 71.3332C79.8232 71.3332 79.6536 71.2629 79.5286 71.1379C79.4036 71.0129 79.3333 70.8433 79.3333 70.6665C79.3333 70.4897 79.4036 70.3201 79.5286 70.1951C79.6536 70.0701 79.8232 69.9998 80 69.9998C80.1768 69.9998 80.3464 70.0701 80.4714 70.1951C80.5964 70.3201 80.6666 70.4897 80.6666 70.6665C80.6666 70.8433 80.5964 71.0129 80.4714 71.1379C80.3464 71.2629 80.1768 71.3332 80 71.3332Z" fill="white"/>
</g>
<defs>
<clipPath id="clip0_0_1413">
<rect width="100" height="100" fill="white"/>
</clipPath>
</defs>
</svg>
