<svg width="100" height="100" viewBox="0 0 100 100" fill="none" xmlns="http://www.w3.org/2000/svg">
<path d="M48.24 32.32H3V4H48.24V32.32ZM7 28.32H44.24V8H7V28.32Z" fill="#3B48CC"/>
<path d="M48.24 64.1798H3V35.8198H48.24V64.1798ZM7 60.1798H44.24V39.8198H7V60.1798Z" fill="#3B48CC"/>
<path d="M48.24 96.0002H3V67.6802H48.24V96.0002ZM7 92.0002H44.24V71.6802H7V92.0002Z" fill="#3B48CC"/>
<path d="M97 32.32H51.76V4H97V32.32ZM55.76 28.32H93V8H55.76V28.32Z" fill="#3B48CC"/>
<path d="M97 64.1798H51.76V35.8198H97V64.1798ZM55.76 60.1798H93V39.8198H55.76V60.1798Z" fill="#3B48CC"/>
<path d="M97 96.0002H51.76V67.6802H97V96.0002ZM55.76 92.0002H93V71.6802H55.76V92.0002Z" fill="#3B48CC"/>
<path d="M25.6201 26.6801C23.9271 26.6801 22.2721 26.178 20.8644 25.2374C19.4567 24.2969 18.3595 22.96 17.7117 21.3958C17.0638 19.8317 16.8943 18.1106 17.2245 16.4501C17.5548 14.7896 18.3701 13.2644 19.5672 12.0672C20.7644 10.8701 22.2896 10.0548 23.9501 9.72454C25.6106 9.39425 27.3317 9.56377 28.8958 10.2117C30.46 10.8595 31.7969 11.9567 32.7374 13.3644C33.678 14.7721 34.1801 16.4271 34.1801 18.1201C34.1801 20.3903 33.2782 22.5676 31.6729 24.1729C30.0676 25.7782 27.8903 26.6801 25.6201 26.6801ZM25.6201 13.5601C24.7182 13.5601 23.8365 13.8275 23.0867 14.3286C22.3368 14.8296 21.7523 15.5418 21.4072 16.375C21.062 17.2083 20.9717 18.1251 21.1477 19.0097C21.3236 19.8942 21.7579 20.7067 22.3957 21.3445C23.0334 21.9822 23.8459 22.4165 24.7305 22.5924C25.615 22.7684 26.5319 22.6781 27.3651 22.333C28.1983 21.9878 28.9105 21.4034 29.4116 20.6535C29.9126 19.9036 30.1801 19.0219 30.1801 18.1201C30.1801 17.5212 30.0621 16.9283 29.833 16.375C29.6038 15.8218 29.2679 15.3191 28.8445 14.8957C28.421 14.4722 27.9183 14.1363 27.3651 13.9072C26.8119 13.678 26.2189 13.5601 25.6201 13.5601Z" fill="#3B48CC"/>
<path d="M25.6201 58.5599C23.9271 58.5599 22.2721 58.0579 20.8644 57.1173C19.4567 56.1767 18.3595 54.8399 17.7117 53.2757C17.0638 51.7116 16.8943 49.9905 17.2245 48.33C17.5548 46.6695 18.3701 45.1442 19.5672 43.9471C20.7644 42.75 22.2896 41.9347 23.9501 41.6044C25.6106 41.2741 27.3317 41.4437 28.8958 42.0915C30.46 42.7394 31.7969 43.8366 32.7374 45.2443C33.678 46.652 34.1801 48.3069 34.1801 49.9999C34.1801 52.2702 33.2782 54.4475 31.6729 56.0528C30.0676 57.6581 27.8903 58.5599 25.6201 58.5599ZM25.6201 45.4399C24.7182 45.4399 23.8365 45.7074 23.0867 46.2084C22.3368 46.7095 21.7523 47.4217 21.4072 48.2549C21.062 49.0881 20.9717 50.005 21.1477 50.8896C21.3236 51.7741 21.7579 52.5866 22.3957 53.2244C23.0334 53.8621 23.8459 54.2964 24.7305 54.4723C25.615 54.6483 26.5319 54.558 27.3651 54.2128C28.1983 53.8677 28.9105 53.2832 29.4116 52.5333C29.9126 51.7835 30.1801 50.9018 30.1801 49.9999C30.1801 48.7906 29.6996 47.6307 28.8445 46.7755C27.9893 45.9204 26.8294 45.4399 25.6201 45.4399Z" fill="#3B48CC"/>
<path d="M25.6201 90.4398C23.9271 90.4398 22.2721 89.9378 20.8644 88.9972C19.4567 88.0566 18.3595 86.7197 17.7117 85.1556C17.0638 83.5915 16.8943 81.8703 17.2245 80.2099C17.5548 78.5494 18.3701 77.0241 19.5672 75.827C20.7644 74.6299 22.2896 73.8146 23.9501 73.4843C25.6106 73.154 27.3317 73.3235 28.8958 73.9714C30.46 74.6193 31.7969 75.7165 32.7374 77.1241C33.678 78.5318 34.1801 80.1868 34.1801 81.8798C34.1801 84.1501 33.2782 86.3273 31.6729 87.9326C30.0676 89.538 27.8903 90.4398 25.6201 90.4398ZM25.6201 77.3198C24.7182 77.3198 23.8365 77.5873 23.0867 78.0883C22.3368 78.5894 21.7523 79.3016 21.4072 80.1348C21.062 80.968 20.9717 81.8849 21.1477 82.7694C21.3236 83.654 21.7579 84.4665 22.3957 85.1042C23.0334 85.742 23.8459 86.1762 24.7305 86.3522C25.615 86.5281 26.5319 86.4378 27.3651 86.0927C28.1983 85.7476 28.9105 85.1631 29.4116 84.4132C29.9126 83.6633 30.1801 82.7817 30.1801 81.8798C30.1801 80.6704 29.6996 79.5106 28.8445 78.6554C27.9893 77.8003 26.8294 77.3198 25.6201 77.3198Z" fill="#3B48CC"/>
</svg>
