<svg width="100" height="100" viewBox="0 0 100 100" fill="none" xmlns="http://www.w3.org/2000/svg">
<path d="M48.24 48.24H3V3H48.24V48.24ZM7 44.24H44.24V7H7V44.24Z" fill="#3B48CC"/>
<path d="M97 48.24H51.76V3H97V48.24ZM55.76 44.24H93V7H55.76V44.24Z" fill="#3B48CC"/>
<path d="M48.24 96.9998H3V51.7598H48.24V96.9998ZM7 92.9998H44.24V55.7598H7V92.9998Z" fill="#3B48CC"/>
<path d="M97 96.9998H51.76V51.7598H97V96.9998ZM55.76 92.9998H93V55.7598H55.76V92.9998Z" fill="#3B48CC"/>
<path d="M25.62 40.76C22.6256 40.76 19.6984 39.872 17.2087 38.2084C14.7189 36.5448 12.7784 34.1803 11.6325 31.4138C10.4865 28.6473 10.1867 25.6032 10.7709 22.6663C11.3551 19.7294 12.797 17.0318 14.9144 14.9144C17.0318 12.797 19.7294 11.3551 22.6663 10.7709C25.6032 10.1867 28.6473 10.4865 31.4138 11.6325C34.1803 12.7784 36.5448 14.7189 38.2084 17.2087C39.872 19.6984 40.76 22.6256 40.76 25.62C40.7547 29.6337 39.1579 33.4816 36.3197 36.3197C33.4816 39.1579 29.6337 40.7547 25.62 40.76ZM25.62 14.5C23.4159 14.5 21.2613 15.1538 19.4289 16.3788C17.5965 17.6038 16.1686 19.3448 15.3261 21.3815C14.4835 23.4183 14.2641 25.6592 14.6955 27.8207C15.127 29.9822 16.19 31.9671 17.7499 33.5242C19.3099 35.0814 21.2967 36.1408 23.459 36.5684C25.6212 36.9959 27.8617 36.7725 29.897 35.9263C31.9322 35.08 33.6706 33.6491 34.8923 31.8145C36.114 29.9799 36.7639 27.8241 36.76 25.62C36.7547 22.6689 35.5787 19.8406 33.4901 17.7557C31.4015 15.6709 28.571 14.5 25.62 14.5Z" fill="#3B48CC"/>
</svg>
