<svg width="100" height="100" viewBox="0 0 100 100" fill="none" xmlns="http://www.w3.org/2000/svg">
<path d="M23.88 23.88H3V3H23.88V23.88ZM7 19.88H19.88V7H7V19.88Z" fill="#3B48CC"/>
<path d="M23.88 48.2399H3V27.3799H23.88V48.2399ZM7 44.2399H19.88V31.3799H7V44.2399Z" fill="#3B48CC"/>
<path d="M23.88 72.6198H3V51.7598H23.88V72.6198ZM7 68.6198H19.88V55.7598H7V68.6198Z" fill="#3B48CC"/>
<path d="M23.88 97.0001H3V76.1201H23.88V97.0001ZM7 93.0001H19.88V80.1201H7V93.0001Z" fill="#3B48CC"/>
<path d="M96.9999 23.88H27.3799V3H96.9999V23.88ZM31.3799 19.88H92.9999V7H31.3799V19.88Z" fill="#3B48CC"/>
<path d="M96.9999 48.2399H27.3799V27.3799H96.9999V48.2399ZM31.3799 44.2399H92.9999V31.3799H31.3799V44.2399Z" fill="#3B48CC"/>
<path d="M96.9999 72.6198H27.3799V51.7598H96.9999V72.6198ZM31.3799 68.6198H92.9999V55.7598H31.3799V68.6198Z" fill="#3B48CC"/>
<path d="M96.9999 97.0001H27.3799V76.1201H96.9999V97.0001ZM31.3799 93.0001H92.9999V80.1201H31.3799V93.0001Z" fill="#3B48CC"/>
</svg>
