<svg width="100" height="100" viewBox="0 0 100 100" fill="none" xmlns="http://www.w3.org/2000/svg">
<g clip-path="url(#clip0_0_1351)">
<path d="M100 0H0V100H100V0Z" fill="#3B48CC"/>
<path d="M67 53.9733L58.1867 62.7733C59.7722 62.331 61.3021 61.7091 62.7467 60.9199C63.1687 61.1817 63.5291 61.5318 63.8029 61.9461C64.0768 62.3604 64.2578 62.8291 64.3333 63.32C64.3333 65.76 59.16 68.4133 51.48 69.4933C49.1109 69.8137 46.7239 69.9829 44.3333 70H43C32.2267 69.7466 24.3333 66.3466 24.3333 63.3333C24.4089 62.8424 24.5898 62.3737 24.8637 61.9594C25.1376 61.5452 25.4979 61.1951 25.92 60.9333C30.1067 63.2666 36.8933 64.6533 44.3333 64.6533H44.48L45.2267 61.9866C44.9333 61.9866 44.64 61.9866 44.3333 61.9866C37 61.9866 30.2 60.5333 26.5867 58.24C25.1467 57.2933 24.3467 56.2666 24.3333 55.3733V49.2C28.4133 52.32 36.5467 53.9466 44.3333 53.9466C45.3867 53.9466 46.44 53.9466 47.4667 53.8533L48.2267 51.1866C46.8933 51.2799 45.6533 51.32 44.3333 51.32C32.8933 51.32 24.3333 47.8133 24.3333 44.6533C24.4089 44.1624 24.5898 43.6937 24.8637 43.2794C25.1376 42.8651 25.4979 42.5151 25.92 42.2533C29.6 44.3199 35.2533 45.6133 41.6667 45.9066L41.7333 43.24C35.4267 42.9333 29.7333 41.5733 26.5867 39.5599C25.16 38.6399 24.36 37.5999 24.3333 36.6933V30.5333C28.4133 33.6533 36.5467 35.2799 44.3333 35.2799H44.6267L46.04 32.6133H44.3333C32.8933 32.6133 24.3333 29.1066 24.3333 25.9466C24.3333 22.7866 32.8933 19.2799 44.3333 19.2799C48.1863 19.2636 52.0273 19.7113 55.7733 20.6133H63.0933C59.0933 18.1733 52.1867 16.6133 44.3333 16.6133C33.3467 16.6133 21.6667 19.8666 21.6667 25.9466V36.6799C21.7068 37.4403 21.9068 38.1836 22.2537 38.8614C22.6007 39.5392 23.0867 40.1361 23.68 40.6133C23.0791 41.0984 22.5887 41.7061 22.2415 42.3959C21.8943 43.0857 21.6983 43.8417 21.6667 44.6133V55.2799C21.6975 56.0517 21.8931 56.808 22.2403 57.4979C22.5876 58.1878 23.0785 58.7954 23.68 59.2799C23.0791 59.765 22.5887 60.3728 22.2415 61.0626C21.8943 61.7524 21.6983 62.5083 21.6667 63.2799V73.9466C21.6588 74.0398 21.6588 74.1334 21.6667 74.2266C22.0267 80.0799 33.4933 83.2266 44.3333 83.2266C55.1733 83.2266 66.64 80.08 67 74.2C67.0131 74.1071 67.0131 74.0128 67 73.9199V63.2533C66.9744 62.4805 66.7811 61.7224 66.4335 61.0317C66.0858 60.341 65.5922 59.7342 64.9867 59.2533C65.5882 58.7688 66.0791 58.1612 66.4263 57.4712C66.7736 56.7813 66.9692 56.0251 67 55.2533V53.9733ZM64.3333 73.9733C64.3333 77.1199 55.7733 80.64 44.3333 80.64C32.8933 80.64 24.3333 77.16 24.3333 73.9733V67.84C28.4133 70.9333 36.5467 72.5599 44.3333 72.5599C52.12 72.5599 60.2533 70.9333 64.3333 67.84V73.9733Z" fill="white"/>
<path d="M28.3333 38.3602C29.2538 38.3602 30 37.614 30 36.6935C30 35.773 29.2538 35.0269 28.3333 35.0269C27.4128 35.0269 26.6666 35.773 26.6666 36.6935C26.6666 37.614 27.4128 38.3602 28.3333 38.3602Z" fill="white"/>
<path d="M28.3333 57.0267C29.2538 57.0267 30 56.2805 30 55.36C30 54.4396 29.2538 53.6934 28.3333 53.6934C27.4128 53.6934 26.6666 54.4396 26.6666 55.36C26.6666 56.2805 27.4128 57.0267 28.3333 57.0267Z" fill="white"/>
<path d="M28.3333 75.6932C29.2538 75.6932 30 74.947 30 74.0265C30 73.1061 29.2538 72.3599 28.3333 72.3599C27.4128 72.3599 26.6666 73.1061 26.6666 74.0265C26.6666 74.947 27.4128 75.6932 28.3333 75.6932Z" fill="white"/>
<path d="M47.6667 68.6401C47.432 68.6377 47.202 68.5733 47.0001 68.4534C46.7404 68.3039 46.5387 68.0713 46.4274 67.7932C46.3162 67.515 46.3018 67.2074 46.3867 66.9201L53.8801 41.9734H46.3334C46.1005 41.9764 45.8709 41.9183 45.6674 41.805C45.464 41.6916 45.2938 41.5269 45.1737 41.3273C45.0537 41.1278 44.988 40.9002 44.9833 40.6673C44.9786 40.4345 45.0349 40.2044 45.1467 40.0001L53.1467 24.0001C53.2575 23.7802 53.4271 23.5953 53.6365 23.4659C53.846 23.3364 54.0872 23.2675 54.3334 23.2668H71.6667C71.8827 23.256 72.0981 23.298 72.2943 23.3891C72.4905 23.4801 72.6616 23.6175 72.7928 23.7894C72.924 23.9613 73.0115 24.1626 73.0476 24.3758C73.0837 24.5891 73.0674 24.8079 73.0001 25.0134L69.5867 35.2668H77.0667C77.3273 35.2678 77.5819 35.3451 77.799 35.4892C78.0161 35.6333 78.1862 35.8378 78.2883 36.0775C78.3904 36.3172 78.4201 36.5816 78.3736 36.838C78.3271 37.0944 78.2065 37.3315 78.0267 37.5201L48.6934 68.1868C48.5655 68.3324 48.4074 68.4484 48.2301 68.5267C48.0528 68.605 47.8605 68.6437 47.6667 68.6401ZM48.4934 39.3068H55.6667C55.8737 39.3068 56.0779 39.355 56.263 39.4475C56.4482 39.5401 56.6092 39.6745 56.7334 39.8401C56.8576 40.0057 56.9415 40.1979 56.9786 40.4016C57.0156 40.6053 57.0047 40.8147 56.9467 41.0134L50.5334 62.3468L73.8801 37.9468H67.6667C67.4492 37.9583 67.2321 37.9164 67.0345 37.8247C66.8369 37.7329 66.6648 37.5941 66.5332 37.4205C66.4016 37.2468 66.3146 37.0435 66.2798 36.8285C66.245 36.6134 66.2634 36.3931 66.3334 36.1868L69.7467 25.9468H55.0801L48.4934 39.3068Z" fill="white"/>
</g>
<defs>
<clipPath id="clip0_0_1351">
<rect width="100" height="100" fill="white"/>
</clipPath>
</defs>
</svg>
