<svg width="100" height="100" viewBox="0 0 100 100" fill="none" xmlns="http://www.w3.org/2000/svg">
<g clip-path="url(#clip0_0_1475)">
<path d="M100 0H0V100H100V0Z" fill="#3B48CC"/>
<path d="M50 83.3331C39.0134 83.3331 27.3334 80.1464 27.3334 74.2398V25.7598H30V74.2398C30 76.9064 37.6134 80.6664 50 80.6664C62.3867 80.6664 70 76.9331 70 74.2398V25.7598H72.6667V74.2398C72.6667 80.1464 60.9867 83.3331 50 83.3331Z" fill="white"/>
<path d="M50 83.3331C39.0134 83.3331 27.3334 80.1464 27.3334 74.2398V25.7598H30V74.2398C30 76.9064 37.6134 80.6664 50 80.6664C62.3867 80.6664 70 76.9331 70 74.2398V25.7598H72.6667V74.2398C72.6667 80.1464 60.9867 83.3331 50 83.3331Z" fill="white"/>
<path d="M50 34.8398C39.0134 34.8398 27.3334 31.6532 27.3334 25.7598C27.3334 19.8665 39.0134 16.6665 50 16.6665C60.9867 16.6665 72.6667 19.8532 72.6667 25.7598C72.6667 31.6665 60.9867 34.8398 50 34.8398ZM50 19.3332C37.6134 19.3332 30 23.0665 30 25.7598C30 28.4532 37.6134 32.1732 50 32.1732C62.3867 32.1732 70 28.4398 70 25.7598C70 23.0798 62.3867 19.3332 50 19.3332Z" fill="white"/>
<path d="M46.2206 52.6097L45.6294 55.21L53.7163 57.0487L54.3076 54.4485L46.2206 52.6097Z" fill="white"/>
<path d="M60.5639 44.6442L57.4799 52.4575L59.9603 53.4366L63.0444 45.6232L60.5639 44.6442Z" fill="white"/>
<path d="M40.1433 55.7397L37.422 62.1167L39.8747 63.1634L42.596 56.7864L40.1433 55.7397Z" fill="white"/>
<path d="M37.3334 70.3597C36.4104 70.3597 35.5082 70.086 34.7408 69.5732C33.9733 69.0605 33.3752 68.3316 33.022 67.4789C32.6688 66.6262 32.5764 65.6879 32.7564 64.7826C32.9365 63.8774 33.3809 63.0459 34.0336 62.3932C34.6862 61.7406 35.5178 61.2961 36.423 61.116C37.3282 60.936 38.2665 61.0284 39.1193 61.3816C39.972 61.7348 40.7008 62.3329 41.2136 63.1004C41.7264 63.8678 42.0001 64.7701 42.0001 65.693C42.0001 66.9307 41.5084 68.1177 40.6332 68.9929C39.7581 69.868 38.5711 70.3597 37.3334 70.3597ZM37.3334 63.693C36.9379 63.693 36.5512 63.8103 36.2223 64.0301C35.8934 64.2499 35.637 64.5622 35.4857 64.9277C35.3343 65.2931 35.2947 65.6953 35.3718 66.0832C35.449 66.4712 35.6395 66.8275 35.9192 67.1073C36.1989 67.387 36.5553 67.5774 36.9432 67.6546C37.3312 67.7318 37.7333 67.6922 38.0988 67.5408C38.4642 67.3894 38.7766 67.1331 38.9964 66.8042C39.2161 66.4753 39.3334 66.0886 39.3334 65.693C39.3334 65.1626 39.1227 64.6539 38.7476 64.2788C38.3726 63.9038 37.8638 63.693 37.3334 63.693Z" fill="white"/>
<path d="M42.6667 57.8534C41.7437 57.8534 40.8414 57.5797 40.074 57.0669C39.3066 56.5541 38.7084 55.8253 38.3552 54.9725C38.002 54.1198 37.9096 53.1815 38.0897 52.2763C38.2697 51.371 38.7142 50.5395 39.3668 49.8869C40.0195 49.2342 40.851 48.7898 41.7562 48.6097C42.6615 48.4296 43.5998 48.522 44.4525 48.8752C45.3052 49.2285 46.0341 49.8266 46.5469 50.594C47.0596 51.3615 47.3333 52.2637 47.3333 53.1867C47.3333 54.4244 46.8417 55.6113 45.9665 56.4865C45.0913 57.3617 43.9043 57.8534 42.6667 57.8534ZM42.6667 51.1867C42.2711 51.1867 41.8844 51.304 41.5555 51.5237C41.2266 51.7435 40.9703 52.0559 40.8189 52.4213C40.6675 52.7868 40.6279 53.1889 40.7051 53.5769C40.7823 53.9648 40.9728 54.3212 41.2525 54.6009C41.5322 54.8806 41.8885 55.0711 42.2765 55.1483C42.6645 55.2254 43.0666 55.1858 43.432 55.0344C43.7975 54.8831 44.1098 54.6267 44.3296 54.2978C44.5494 53.9689 44.6667 53.5823 44.6667 53.1867C44.6667 52.6563 44.456 52.1475 44.0809 51.7725C43.7058 51.3974 43.1971 51.1867 42.6667 51.1867Z" fill="white"/>
<path d="M57.3334 60.6663C56.4104 60.6663 55.5082 60.3927 54.7408 59.8799C53.9733 59.3671 53.3752 58.6383 53.022 57.7855C52.6688 56.9328 52.5764 55.9945 52.7564 55.0893C52.9365 54.184 53.3809 53.3525 54.0336 52.6998C54.6862 52.0472 55.5178 51.6027 56.423 51.4227C57.3282 51.2426 58.2666 51.335 59.1193 51.6882C59.972 52.0414 60.7008 52.6396 61.2136 53.407C61.7264 54.1744 62.0001 55.0767 62.0001 55.9997C62.0001 57.2374 61.5084 58.4243 60.6332 59.2995C59.7581 60.1747 58.5711 60.6663 57.3334 60.6663ZM57.3334 53.9997C56.9379 53.9997 56.5512 54.117 56.2223 54.3367C55.8934 54.5565 55.637 54.8689 55.4857 55.2343C55.3343 55.5998 55.2947 56.0019 55.3718 56.3899C55.449 56.7778 55.6395 57.1342 55.9192 57.4139C56.1989 57.6936 56.5553 57.8841 56.9432 57.9612C57.3312 58.0384 57.7333 57.9988 58.0988 57.8474C58.4642 57.6961 58.7766 57.4397 58.9964 57.1108C59.2161 56.7819 59.3334 56.3952 59.3334 55.9997C59.3334 55.4692 59.1227 54.9605 58.7476 54.5855C58.3726 54.2104 57.8638 53.9997 57.3334 53.9997Z" fill="white"/>
<path d="M62.6667 46.6663C61.7437 46.6663 60.8414 46.3927 60.074 45.8799C59.3066 45.3671 58.7084 44.6383 58.3552 43.7855C58.002 42.9328 57.9096 41.9945 58.0897 41.0893C58.2697 40.184 58.7142 39.3525 59.3668 38.6998C60.0195 38.0472 60.851 37.6027 61.7562 37.4227C62.6615 37.2426 63.5998 37.335 64.4525 37.6882C65.3052 38.0414 66.0341 38.6396 66.5469 39.407C67.0596 40.1744 67.3333 41.0767 67.3333 41.9997V42.0663C67.3124 43.2913 66.8119 44.4593 65.9394 45.3193C65.0668 46.1794 63.8918 46.663 62.6667 46.6663ZM62.6667 39.9997C62.274 39.9999 61.8901 40.1157 61.5628 40.3327C61.2355 40.5496 60.9793 40.8581 60.8261 41.2197C60.673 41.5813 60.6297 41.98 60.7016 42.366C60.7735 42.752 60.9575 43.1083 61.2306 43.3905C61.5037 43.6727 61.8538 43.8682 62.2372 43.9528C62.6207 44.0373 63.0206 44.0071 63.387 43.8659C63.7534 43.7247 64.0701 43.4787 64.2977 43.1587C64.5252 42.8387 64.6536 42.4588 64.6667 42.0663C64.6756 41.7981 64.6305 41.5309 64.534 41.2805C64.4375 41.0301 64.2916 40.8017 64.105 40.6088C63.9184 40.416 63.6949 40.2627 63.4478 40.158C63.2007 40.0534 62.935 39.9995 62.6667 39.9997Z" fill="white"/>
</g>
<defs>
<clipPath id="clip0_0_1475">
<rect width="100" height="100" fill="white"/>
</clipPath>
</defs>
</svg>
