<svg width="100" height="100" viewBox="0 0 100 100" fill="none" xmlns="http://www.w3.org/2000/svg">
<path d="M50.1001 25.74C35.1601 25.74 20.1001 21.74 20.1001 13.9C20.1001 6.06 35.1601 2 50.1001 2C65.0401 2 80.1001 6 80.1001 13.84C80.1001 21.68 65.0201 25.74 50.1001 25.74ZM50.1001 6.06C34.2001 6 24.0001 10.7 24.0001 14C24.0001 17.3 34.1401 21.84 50.0001 21.84C65.8601 21.84 76.0001 17.2 76.0001 14C76.0001 10.8 66.0001 6 50.1001 6V6.06Z" fill="#3B48CC"/>
<path d="M50.1001 65.12C35.1601 65.12 20.1001 61.12 20.1001 53.28V14H24.1001V53.28C24.1001 56.48 34.2401 61.12 50.1001 61.12C65.9601 61.12 76.1001 56.48 76.1001 53.28V14H80.1001V53.28C80.1401 61.06 65.0201 65.12 50.1001 65.12Z" fill="#3B48CC"/>
<path d="M50.24 39.7799C35.3 39.7799 20.24 35.7799 20.24 27.9399H24.24C24.24 31.1399 34.38 35.7799 50.24 35.7799C66.1 35.7799 76.24 31.1399 76.24 27.9399H80.24C80.28 35.7199 65.16 39.7799 50.24 39.7799Z" fill="#3B48CC"/>
<path d="M50.24 53.5002C35.3 53.5002 20.24 49.5002 20.24 41.6602H24.24C24.24 44.8402 34.38 49.5002 50.24 49.5002C66.1 49.5002 76.24 44.8402 76.24 41.6602H80.24C80.28 49.4202 65.16 53.5002 50.24 53.5002Z" fill="#3B48CC"/>
<path d="M49.76 76.0002C34.8 76.0002 23.38 71.8002 20 65.0602L23.58 63.2402C25.58 67.2402 33.74 72.0002 49.82 72.0002C65.38 72.0002 74.5 66.9602 76.02 63.3802L79.7 64.9402C76.9 71.4402 64.6 76.0002 49.76 76.0002Z" fill="#3B48CC"/>
<path d="M49.7599 90.3801C34.7999 90.3801 23.3799 86.1801 19.9399 79.4401L23.5199 77.6401C25.5199 81.6401 33.6799 86.3801 49.7599 86.3801C65.3199 86.3801 74.4399 81.3401 75.9599 77.7601L79.6399 79.3201C76.8999 85.8201 64.5999 90.3801 49.7599 90.3801Z" fill="#3B48CC"/>
<path d="M24.04 60.3198H20.04V94.0798H24.04V60.3198Z" fill="#3B48CC"/>
<path d="M80.28 75.3198H76.28V94.0798H80.28V75.3198Z" fill="#3B48CC"/>
<path d="M42.8 64.0601H38.8V80.9401H42.8V64.0601Z" fill="#3B48CC"/>
<path d="M61.52 67.8198H57.52V95.9398H61.52V67.8198Z" fill="#3B48CC"/>
<path d="M80.28 60.3198H76.28V71.5798H80.28V60.3198Z" fill="#3B48CC"/>
</svg>
