<svg width="100" height="100" viewBox="0 0 100 100" fill="none" xmlns="http://www.w3.org/2000/svg">
<g clip-path="url(#clip0_0_1534)">
<path d="M100 0H0V100H100V0Z" fill="url(#paint0_linear_0_1534)"/>
<path d="M69.2 23.3335C68.8 18.1335 59.1066 15.3335 49.96 15.3335C40.8133 15.3335 31.1066 18.1335 30.6666 23.3335V63.3335C30.6666 68.7335 40.6266 71.6535 50 71.6535C59.3733 71.6535 69.3333 68.7468 69.3333 63.3468V23.3468L69.2 23.3335ZM49.96 18.0002C60.2533 18.0002 66.5733 21.2935 66.5733 23.6668C66.5733 26.0402 60.2533 29.3335 49.96 29.3335C39.6666 29.3335 33.3333 26.0268 33.3333 23.6668C33.3333 21.3068 39.6533 18.0002 49.96 18.0002ZM49.96 69.0002C39.6533 69.0002 33.3333 65.7068 33.3333 63.3468V55.6535C36.8933 58.3202 43.6133 59.6535 50.04 59.6535C56.4666 59.6535 63.08 58.3202 66.6666 55.6535V63.2935C66.5733 65.7068 60.2533 69.0002 49.96 69.0002ZM50.04 57.0002C39.7466 57.0002 33.4266 53.6935 33.4266 51.3335H33.3333V42.3202C36.8933 44.9868 43.6133 46.3202 50.04 46.3202C56.4666 46.3202 63.08 44.9868 66.6666 42.3202V51.3335C66.6666 53.6935 60.3466 57.0002 50.04 57.0002ZM50.04 43.6668C39.7466 43.6668 33.4266 40.3602 33.4266 38.0002H33.3333V28.0002C36.92 30.5868 43.5733 32.0002 49.96 32.0002C56.3466 32.0002 63.1066 30.6668 66.6666 28.0002V38.0002C66.6666 40.3602 60.3466 43.6668 50.04 43.6668Z" fill="white"/>
<path d="M34.6667 74H32V82H34.6667V74Z" fill="white"/>
<path d="M67.9999 74H65.3333V82H67.9999V74Z" fill="white"/>
<path d="M45.3333 76.667H42.6666V84.667H45.3333V76.667Z" fill="white"/>
<path d="M57.3333 76.667H54.6666V84.667H57.3333V76.667Z" fill="white"/>
</g>
<defs>
<linearGradient id="paint0_linear_0_1534" x1="-20.7067" y1="120.707" x2="120.707" y2="-20.7067" gradientUnits="userSpaceOnUse">
<stop stop-color="#2E27AD"/>
<stop offset="1" stop-color="#527FFF"/>
</linearGradient>
<clipPath id="clip0_0_1534">
<rect width="100" height="100" fill="white"/>
</clipPath>
</defs>
</svg>
