<svg width="100" height="100" viewBox="0 0 100 100" fill="none" xmlns="http://www.w3.org/2000/svg">
<g clip-path="url(#clip0_2385_4217)">
<path d="M100 0H0V100H100V0Z" fill="url(#paint0_linear_2385_4217)"/>
<path d="M72.8534 60.5599L72.4801 57.8932C76.2134 57.3732 80.6667 55.2265 80.6667 48.1199C80.6667 41.4532 75.6001 38.9999 71.3334 38.1465C71.0452 38.0883 70.7844 37.9364 70.5915 37.7146C70.3986 37.4927 70.2844 37.2133 70.2667 36.9199C69.9734 31.7065 66.9467 29.8532 64.4401 29.8532C63.5976 29.8563 62.7674 30.0555 62.0153 30.4351C61.2632 30.8146 60.6097 31.364 60.1067 32.0399C59.9623 32.233 59.7683 32.3833 59.5452 32.4749C59.3222 32.5665 59.0785 32.5958 58.8401 32.5599C58.6042 32.5248 58.3821 32.4271 58.1968 32.2771C58.0116 32.127 57.87 31.93 57.7867 31.7065C56.9173 29.2006 55.4956 26.9222 53.6267 25.0399C51.5856 22.9079 48.9565 21.431 46.0739 20.7972C43.1912 20.1634 40.1851 20.4011 37.4379 21.4803C34.6907 22.5594 32.3265 24.4312 30.646 26.8576C28.9654 29.284 28.0444 32.1553 28.0001 35.1065C28.002 35.7081 28.0376 36.309 28.1067 36.9065C28.1457 37.229 28.0656 37.5546 27.8814 37.8222C27.6973 38.0898 27.4218 38.281 27.1067 38.3599C24.2134 39.0799 19.3334 41.3332 19.3334 47.9999C19.3334 48.2532 19.3334 48.4932 19.3334 48.7332C19.5467 52.7332 22.9734 56.3199 27.6534 57.5599L26.9601 60.1465C21.1867 58.5999 16.9467 53.9599 16.6667 48.8665C16.6667 48.5732 16.6667 48.3065 16.6667 47.9999C16.5449 45.3094 17.3398 42.6571 18.9215 40.4772C20.5031 38.2973 22.7778 36.7187 25.3734 35.9999C25.3734 35.6665 25.3734 35.3465 25.3734 35.0132C25.4685 31.5647 26.5765 28.2205 28.5593 25.3974C30.542 22.5743 33.3119 20.3973 36.5235 19.1376C39.7351 17.878 43.2465 17.5915 46.6198 18.3139C49.9931 19.0363 53.0792 20.7355 55.4934 23.1999C57.1534 24.8559 58.5076 26.7924 59.4934 28.9199C60.9043 27.8125 62.6465 27.2115 64.4401 27.2132C68.1867 27.2132 72.1201 29.8799 72.8401 35.7732C79.6134 37.4532 83.3334 41.8132 83.3334 48.1465C83.3334 55.1065 79.5067 59.6265 72.8534 60.5599Z" fill="white"/>
<path d="M50 42.0532C46.0444 42.0532 42.1776 43.2262 38.8886 45.4238C35.5996 47.6215 33.0362 50.745 31.5224 54.3995C30.0087 58.0541 29.6126 62.0754 30.3843 65.955C31.156 69.8346 33.0608 73.3983 35.8579 76.1953C38.6549 78.9924 42.2186 80.8972 46.0982 81.6689C49.9778 82.4406 53.9991 82.0446 57.6537 80.5308C61.3082 79.017 64.4318 76.4536 66.6294 73.1646C68.827 69.8756 70 66.0088 70 62.0532C70 56.7489 67.8929 51.6618 64.1421 47.9111C60.3914 44.1604 55.3043 42.0532 50 42.0532ZM50 79.3865C46.5718 79.3865 43.2206 78.37 40.3701 76.4654C37.5197 74.5607 35.298 71.8536 33.9861 68.6864C32.6742 65.5191 32.3309 62.034 32.9997 58.6716C33.6685 55.3093 35.3194 52.2208 37.7435 49.7967C40.1676 47.3726 43.2561 45.7218 46.6184 45.0529C49.9808 44.3841 53.4659 44.7274 56.6332 46.0393C59.8004 47.3512 62.5075 49.5729 64.4121 52.4233C66.3168 55.2738 67.3333 58.625 67.3333 62.0532C67.3333 64.3295 66.885 66.5834 66.0139 68.6864C65.1428 70.7894 63.8661 72.7002 62.2565 74.3097C60.647 75.9193 58.7362 77.196 56.6332 78.0671C54.5302 78.9382 52.2763 79.3865 50 79.3865Z" fill="white"/>
<path d="M60.6666 68.6531V71.3197H39.3333V68.6531H41.9999V60.7197H44.6666V68.6531H48.6666V56.7197H51.3333V68.6531H55.3333V52.7197H57.9999V68.6531H60.6666Z" fill="white"/>
</g>
<defs>
<linearGradient id="paint0_linear_2385_4217" x1="-20.7107" y1="120.707" x2="120.711" y2="-20.7147" gradientUnits="userSpaceOnUse">
<stop stop-color="#2E27AD"/>
<stop offset="1" stop-color="#527FFF"/>
</linearGradient>
<clipPath id="clip0_2385_4217">
<rect width="100" height="100" fill="white"/>
</clipPath>
</defs>
</svg>
