<svg width="100" height="100" viewBox="0 0 100 100" fill="none" xmlns="http://www.w3.org/2000/svg">
<g clip-path="url(#clip0_2385_4218)">
<path d="M100 0H0V100H100V0Z" fill="url(#paint0_linear_2385_4218)"/>
<path d="M49.9999 85.2002C49.7664 85.2018 49.5365 85.1421 49.3333 85.0269L19.9999 68.0936C19.7965 67.9761 19.6276 67.8069 19.5106 67.6032C19.3935 67.3995 19.3323 67.1685 19.3333 66.9336V33.0669C19.3323 32.8319 19.3935 32.6009 19.5106 32.3972C19.6276 32.1935 19.7965 32.0244 19.9999 31.9069L49.3333 14.9736C49.536 14.8565 49.7659 14.7949 49.9999 14.7949C50.234 14.7949 50.4639 14.8565 50.6666 14.9736L79.9999 31.9069C80.2034 32.0244 80.3722 32.1935 80.4893 32.3972C80.6064 32.6009 80.6675 32.8319 80.6666 33.0669V66.9336C80.6675 67.1685 80.6064 67.3995 80.4893 67.6032C80.3722 67.8069 80.2034 67.9761 79.9999 68.0936L50.6666 85.0269C50.4634 85.1421 50.2335 85.2018 49.9999 85.2002ZM21.9999 66.1602L48.6666 81.5602V70.8002H51.3333V81.5602L77.9999 66.1602V35.3869L69.1333 40.5069L67.7999 38.2002L76.6799 33.0669L50.0133 17.6669L23.3466 33.0536L32.2399 38.2002L30.9066 40.5069L21.9999 35.3602V66.1602ZM49.9999 68.2669C49.7664 68.2685 49.5365 68.2087 49.3333 68.0936L34.6666 59.6269C34.4631 59.5094 34.2943 59.3403 34.1772 59.1366C34.0602 58.9329 33.999 58.7018 33.9999 58.4669V41.5336C33.999 41.2986 34.0602 41.0676 34.1772 40.8639C34.2943 40.6602 34.4631 40.491 34.6666 40.3736L49.3333 31.9069C49.536 31.7899 49.7659 31.7283 49.9999 31.7283C50.234 31.7283 50.4639 31.7899 50.6666 31.9069L65.3333 40.3736C65.5367 40.491 65.7056 40.6602 65.8226 40.8639C65.9397 41.0676 66.0009 41.2986 65.9999 41.5336V58.4669C66.0009 58.7018 65.9397 58.9329 65.8226 59.1366C65.7056 59.3403 65.5367 59.5094 65.3333 59.6269L50.6666 68.0936C50.4634 68.2087 50.2335 68.2685 49.9999 68.2669ZM36.6666 57.6936L48.6666 64.6269V50.7736L36.6666 43.8402V57.6936ZM51.3333 50.7736V64.6269L63.3333 57.6936V43.8402L51.3333 50.7736ZM37.9999 41.5336L49.9999 48.4669L61.9999 41.5336L49.9999 34.6002L37.9999 41.5336Z" fill="white"/>
</g>
<defs>
<linearGradient id="paint0_linear_2385_4218" x1="-20.7067" y1="120.711" x2="120.715" y2="-20.7107" gradientUnits="userSpaceOnUse">
<stop stop-color="#2E27AD"/>
<stop offset="1" stop-color="#527FFF"/>
</linearGradient>
<clipPath id="clip0_2385_4218">
<rect width="100" height="100" fill="white"/>
</clipPath>
</defs>
</svg>
