<svg width="100" height="100" viewBox="0 0 100 100" fill="none" xmlns="http://www.w3.org/2000/svg">
<g clip-path="url(#clip0_2385_4219)">
<path d="M100 0H0V100H100V0Z" fill="url(#paint0_linear_2385_4219)"/>
<path d="M82.0001 82H72.6667V79.3333H80.6667V20.6667H19.3334V79.3333H56.6667V82H18.0001C17.6465 82 17.3073 81.8595 17.0573 81.6095C16.8072 81.3594 16.6667 81.0203 16.6667 80.6667V19.3333C16.6667 18.9797 16.8072 18.6406 17.0573 18.3905C17.3073 18.1405 17.6465 18 18.0001 18H82.0001C82.3537 18 82.6928 18.1405 82.9429 18.3905C83.1929 18.6406 83.3334 18.9797 83.3334 19.3333V80.6667C83.3334 81.0203 83.1929 81.3594 82.9429 81.6095C82.6928 81.8595 82.3537 82 82.0001 82Z" fill="white"/>
<path d="M82 28.6665H18V31.3332H82V28.6665Z" fill="white"/>
<path d="M24.6667 23.3335H22V26.0002H24.6667V23.3335Z" fill="white"/>
<path d="M30.0002 23.3335H27.3335V26.0002H30.0002V23.3335Z" fill="white"/>
<path d="M35.3334 23.3335H32.6667V26.0002H35.3334V23.3335Z" fill="white"/>
<path d="M32.0001 67.7466L30.1201 65.8533L41.9734 54.0133L30.1201 42.1599L32.0001 40.2666L44.8001 53.0666C44.9237 53.1912 45.0215 53.3389 45.0878 53.5014C45.1542 53.6638 45.1878 53.8378 45.1868 54.0133C45.1853 54.3631 45.0464 54.6983 44.8001 54.9466L32.0001 67.7466Z" fill="white"/>
<path d="M67.3335 60.6665H47.3335V63.3332H67.3335V60.6665Z" fill="white"/>
</g>
<defs>
<linearGradient id="paint0_linear_2385_4219" x1="-20.7067" y1="120.707" x2="120.707" y2="-20.7067" gradientUnits="userSpaceOnUse">
<stop stop-color="#2E27AD"/>
<stop offset="1" stop-color="#527FFF"/>
</linearGradient>
<clipPath id="clip0_2385_4219">
<rect width="100" height="100" fill="white"/>
</clipPath>
</defs>
</svg>
