<svg width="100" height="100" viewBox="0 0 100 100" fill="none" xmlns="http://www.w3.org/2000/svg">
<g clip-path="url(#clip0_2385_4223)">
<path d="M100 0H0V100H100V0Z" fill="url(#paint0_linear_2385_4223)"/>
<path d="M46 36.5734C44.3468 36.5717 42.7519 37.1844 41.5249 38.2925C40.298 39.4006 39.5266 40.9251 39.3604 42.57C39.1943 44.2149 39.6452 45.8629 40.6258 47.194C41.6063 48.5251 43.0465 49.4444 44.6667 49.7734V58.56C44.6483 59.2159 44.4305 59.8505 44.0422 60.3793C43.6539 60.9082 43.1136 61.3061 42.4934 61.52L30.4 66.2667C29.4813 66.6228 28.6491 67.171 27.9593 67.8746C27.2695 68.5782 26.7379 69.421 26.4 70.3467C25.8596 70.0597 25.2801 69.8531 24.68 69.7334V59.36C26.1871 59.054 27.542 58.2364 28.5152 57.0457C29.4884 55.855 30.0201 54.3645 30.0201 52.8267C30.0201 51.2889 29.4884 49.7984 28.5152 48.6077C27.542 47.417 26.1871 46.5994 24.68 46.2934V29.9467C26.2988 29.6163 27.7371 28.6966 28.7163 27.3659C29.6955 26.0352 30.1457 24.3884 29.9796 22.7447C29.8136 21.1009 29.0431 19.5774 27.8176 18.4694C26.5921 17.3615 24.9988 16.748 23.3467 16.748C21.6946 16.748 20.1014 17.3615 18.8758 18.4694C17.6503 19.5774 16.8799 21.1009 16.7138 22.7447C16.5478 24.3884 16.9979 26.0352 17.9771 27.3659C18.9563 28.6966 20.3947 29.6163 22.0134 29.9467V46.2934C20.5063 46.5994 19.1514 47.417 18.1782 48.6077C17.205 49.7984 16.6734 51.2889 16.6734 52.8267C16.6734 54.3645 17.205 55.855 18.1782 57.0457C19.1514 58.2364 20.5063 59.054 22.0134 59.36V69.7334C20.5979 70.0182 19.3132 70.7548 18.3524 71.8325C17.3916 72.9102 16.8066 74.2707 16.6854 75.7095C16.5642 77.1482 16.9134 78.5874 17.6804 79.8106C18.4474 81.0339 19.5908 81.975 20.9387 82.4926C22.2865 83.0102 23.766 83.0762 25.1546 82.6807C26.5432 82.2852 27.7659 81.4496 28.6388 80.2996C29.5117 79.1495 29.9877 77.7472 29.9951 76.3033C30.0026 74.8595 29.5411 73.4524 28.68 72.2934C28.7274 71.5073 29.0057 70.7527 29.4801 70.1242C29.9544 69.4956 30.6038 69.0211 31.3467 68.76L43.4667 64C44.5867 63.588 45.5555 62.8465 46.2458 61.873C46.936 60.8996 47.3152 59.7399 47.3334 58.5467V49.7734C48.9536 49.4444 50.3937 48.5251 51.3743 47.194C52.3548 45.8629 52.8058 44.2149 52.6397 42.57C52.4735 40.9251 51.7021 39.4006 50.4752 38.2925C49.2482 37.1844 47.6533 36.5717 46 36.5734ZM19.3334 23.4267C19.3334 22.6356 19.568 21.8622 20.0075 21.2044C20.447 20.5466 21.0717 20.0339 21.8026 19.7312C22.5335 19.4284 23.3378 19.3492 24.1137 19.5035C24.8897 19.6579 25.6024 20.0388 26.1618 20.5983C26.7212 21.1577 27.1022 21.8704 27.2565 22.6463C27.4109 23.4222 27.3316 24.2265 27.0289 24.9574C26.7261 25.6883 26.2135 26.313 25.5557 26.7526C24.8979 27.1921 24.1245 27.4267 23.3334 27.4267C22.2725 27.4267 21.2551 27.0053 20.5049 26.2551C19.7548 25.505 19.3334 24.4876 19.3334 23.4267ZM19.3334 52.76C19.3334 51.9689 19.568 51.1955 20.0075 50.5377C20.447 49.8799 21.0717 49.3673 21.8026 49.0645C22.5335 48.7618 23.3378 48.6825 24.1137 48.8369C24.8897 48.9912 25.6024 49.3722 26.1618 49.9316C26.7212 50.491 27.1022 51.2037 27.2565 51.9797C27.4109 52.7556 27.3316 53.5599 27.0289 54.2908C26.7261 55.0217 26.2135 55.6464 25.5557 56.0859C24.8979 56.5254 24.1245 56.76 23.3334 56.76C22.284 56.7602 21.2765 56.3479 20.5283 55.6121C19.78 54.8763 19.3509 53.876 19.3334 52.8267V52.76ZM23.3334 80.2C22.5423 80.2 21.7689 79.9654 21.1111 79.5259C20.4533 79.0864 19.9406 78.4617 19.6379 77.7308C19.3351 76.9999 19.2559 76.1956 19.4102 75.4197C19.5646 74.6437 19.9455 73.931 20.5049 73.3716C21.0644 72.8122 21.7771 72.4312 22.553 72.2769C23.3289 72.1225 24.1332 72.2018 24.8641 72.5045C25.595 72.8073 26.2197 73.3199 26.6593 73.9777C27.0988 74.6355 27.3334 75.4089 27.3334 76.2C27.3422 76.7309 27.2453 77.2582 27.0482 77.7512C26.8512 78.2443 26.558 78.6931 26.1856 79.0716C25.8133 79.4502 25.3694 79.7508 24.8797 79.956C24.39 80.1611 23.8643 80.2668 23.3334 80.2667V80.2ZM46 47.1734C45.2089 47.1734 44.4356 46.9388 43.7778 46.4992C43.12 46.0597 42.6073 45.435 42.3045 44.7041C42.0018 43.9732 41.9226 43.1689 42.0769 42.393C42.2312 41.6171 42.6122 40.9043 43.1716 40.3449C43.731 39.7855 44.4438 39.4046 45.2197 39.2502C45.9956 39.0959 46.7999 39.1751 47.5308 39.4778C48.2617 39.7806 48.8864 40.2933 49.3259 40.9511C49.7654 41.6089 50 42.3822 50 43.1734C50.0089 43.7042 49.912 44.2315 49.7149 44.7246C49.5179 45.2176 49.2246 45.6665 48.8523 46.045C48.48 46.4235 48.036 46.7241 47.5463 46.9293C47.0566 47.1345 46.531 47.2401 46 47.24V47.1734Z" fill="white"/>
<path d="M82.0001 83.2401H46.0001C45.6465 83.2401 45.3073 83.0996 45.0573 82.8495C44.8072 82.5995 44.6667 82.2604 44.6667 81.9067V67.2401H47.3334V80.5734H80.6667V32.5734H47.3334V29.9067H82.0001C82.3537 29.9067 82.6928 30.0472 82.9429 30.2973C83.1929 30.5473 83.3334 30.8864 83.3334 31.2401V81.9067C83.3334 82.2604 83.1929 82.5995 82.9429 82.8495C82.6928 83.0996 82.3537 83.2401 82.0001 83.2401Z" fill="white"/>
<path d="M57.76 62.5334L52.4 57.3334C52.2623 57.1992 52.1552 57.0367 52.0862 56.8572C52.0171 56.6777 51.9878 56.4854 52 56.2934C52.0138 56.1024 52.0686 55.9166 52.1606 55.7486C52.2526 55.5807 52.3798 55.4345 52.5334 55.3201L58.52 50.8401L60.12 52.9734L55.3867 56.5201L59.6134 60.6401L57.76 62.5334Z" fill="white"/>
<path d="M70.8134 63.3867L69.2134 61.2534L73.9467 57.7067L69.72 53.5867L71.5734 51.6667L76.9067 56.8801C77.0453 57.0146 77.153 57.1777 77.2223 57.358C77.2917 57.5383 77.321 57.7315 77.3084 57.9242C77.2957 58.117 77.2413 58.3047 77.1489 58.4743C77.0565 58.644 76.9284 58.7915 76.7734 58.9067L70.8134 63.3867Z" fill="white"/>
<path d="M67.1995 48.6969L59.5725 66.0552L62.0139 67.1279L69.6409 49.7696L67.1995 48.6969Z" fill="white"/>
<path d="M41.6135 34.2934L40.6668 35.2401L39.7202 36.1867L34.0002 30.4667V35.2401H31.3335V27.2401C31.3335 26.8864 31.474 26.5473 31.724 26.2973C31.9741 26.0472 32.3132 25.9067 32.6668 25.9067H40.6668V28.5734H35.8935L41.6135 34.2934Z" fill="white"/>
</g>
<defs>
<linearGradient id="paint0_linear_2385_4223" x1="-20.7147" y1="120.711" x2="120.707" y2="-20.7107" gradientUnits="userSpaceOnUse">
<stop stop-color="#2E27AD"/>
<stop offset="1" stop-color="#527FFF"/>
</linearGradient>
<clipPath id="clip0_2385_4223">
<rect width="100" height="100" fill="white"/>
</clipPath>
</defs>
</svg>
