<svg width="100" height="100" viewBox="0 0 100 100" fill="none" xmlns="http://www.w3.org/2000/svg">
<g clip-path="url(#clip0_2385_4220)">
<path d="M100 0H0V100H100V0Z" fill="url(#paint0_linear_2385_4220)"/>
<path d="M42.4 55.4533L36.5334 49.7333C36.4016 49.5991 36.2998 49.4386 36.2345 49.2622C36.1692 49.0859 36.142 48.8977 36.1546 48.7101C36.1672 48.5225 36.2193 48.3396 36.3076 48.1736C36.3958 48.0076 36.5182 47.8621 36.6667 47.7467L43.2133 42.8267L44.7867 44.92L39.4533 48.92L44.2267 53.5867L42.4 55.4533Z" fill="white"/>
<path d="M56.5065 56.3737L54.9465 54.2804L60.2799 50.2804L55.5065 45.6137L57.3332 43.7471L63.1999 49.4671C63.3316 49.6013 63.4334 49.7618 63.4987 49.9382C63.564 50.1145 63.5912 50.3027 63.5786 50.4903C63.566 50.6779 63.5139 50.8608 63.4256 51.0268C63.3374 51.1928 63.215 51.3383 63.0665 51.4537L56.5065 56.3737Z" fill="white"/>
<path d="M52.7947 40.4454L44.4275 59.4883L46.8201 60.5395L55.1872 41.4967L52.7947 40.4454Z" fill="white"/>
<path d="M64.6666 23.3469V26.4802L61.3333 25.3335C61.429 24.846 61.4781 24.3504 61.48 23.8535C61.481 22.1294 60.8611 20.4626 59.7336 19.1582C58.6061 17.8538 57.0466 16.9992 55.3405 16.7507C53.6344 16.5022 51.8958 16.8765 50.4431 17.8051C48.9904 18.7337 47.9208 20.1545 47.43 21.8073C46.9393 23.4601 47.0602 25.2343 47.7707 26.8053C48.4812 28.3762 49.7338 29.6386 51.299 30.3615C52.8643 31.0844 54.6376 31.2193 56.2942 30.7416C57.9508 30.2639 59.3799 29.2055 60.32 27.7602L65.6533 29.5335C65.7932 29.5881 65.9435 29.6109 66.0933 29.6002C66.3697 29.6023 66.64 29.5184 66.8666 29.3602C67.0372 29.2388 67.1767 29.079 67.274 28.8937C67.3713 28.7084 67.4236 28.5028 67.4266 28.2935V23.3469H64.6666ZM54.24 28.4402C53.3317 28.4428 52.4431 28.1757 51.6867 27.6728C50.9304 27.1698 50.3405 26.4536 49.9917 25.615C49.6429 24.7763 49.5509 23.853 49.7275 22.962C49.904 22.071 50.3411 21.2526 50.9834 20.6103C51.6257 19.968 52.4441 19.5309 53.3351 19.3544C54.2261 19.1778 55.1494 19.2698 55.988 19.6186C56.8267 19.9674 57.5429 20.5573 58.0459 21.3137C58.5488 22.07 58.8159 22.9586 58.8133 23.8669C58.8098 25.0787 58.3268 26.2399 57.4699 27.0968C56.613 27.9537 55.4518 28.4367 54.24 28.4402Z" fill="white"/>
<path d="M40 25.1735C39.9798 24.9664 39.9114 24.7668 39.8003 24.5909C39.6892 24.4149 39.5384 24.2674 39.36 24.1602L35.04 21.6802L33.7067 23.9335L36.44 25.5202L33.9467 27.6802C33.6553 27.4355 33.343 27.2169 33.0134 27.0268C32.1992 26.547 31.2968 26.2359 30.3599 26.1122C29.423 25.9885 28.4708 26.0547 27.56 26.3068C25.8733 26.754 24.4069 27.7997 23.4344 29.2486C22.462 30.6976 22.05 32.4509 22.2752 34.1813C22.5005 35.9117 23.3477 37.5011 24.6587 38.6527C25.9697 39.8044 27.655 40.4398 29.4 40.4402C30.0343 40.4392 30.6659 40.3586 31.28 40.2002C33.1214 39.7035 34.6905 38.4965 35.6429 36.8442C36.5953 35.1918 36.8532 33.2291 36.36 31.3868C36.2011 30.7786 35.9588 30.1953 35.64 29.6535L39.5334 26.2802C39.6923 26.1451 39.8173 25.9746 39.8984 25.7824C39.9794 25.5902 40.0142 25.3816 40 25.1735ZM33.3334 35.5335C32.7626 36.5729 31.804 37.3445 30.6667 37.6802C29.4929 37.9803 28.2482 37.8079 27.2 37.2002C26.677 36.9074 26.2185 36.512 25.8519 36.0378C25.4853 35.5635 25.2182 35.0201 25.0667 34.4402C24.9095 33.8588 24.8688 33.2522 24.9467 32.6551C25.0246 32.0579 25.2196 31.482 25.5207 30.9605C25.8217 30.4389 26.2228 29.982 26.7009 29.6158C27.179 29.2497 27.7247 28.9815 28.3067 28.8268C28.6939 28.7248 29.093 28.6755 29.4934 28.6802C30.5007 28.6741 31.4814 29.0037 32.2806 29.617C33.0798 30.2302 33.6519 31.0922 33.9067 32.0668C34.2167 33.2386 34.0488 34.4854 33.44 35.5335H33.3334Z" fill="white"/>
<path d="M31.4667 55.7866C30.5077 54.1376 28.9357 52.9346 27.0933 52.44C26.4839 52.2807 25.8566 52.2001 25.2267 52.2L24.2533 47.1333C24.2101 46.9304 24.1201 46.7403 23.9904 46.5783C23.8608 46.4163 23.6952 46.2867 23.5067 46.2C23.3154 46.1164 23.1072 46.0789 22.8987 46.0904C22.6903 46.102 22.4875 46.1624 22.3067 46.2666L18 48.76L19.3333 51.0266L22 49.44L22.6667 52.6933C22.313 52.8173 21.9733 52.9781 21.6533 53.1733C20.834 53.6409 20.1149 54.2655 19.5372 55.0114C18.9596 55.7573 18.5347 56.6098 18.287 57.5201C18.0393 58.4304 17.9736 59.3807 18.0937 60.3164C18.2137 61.2521 18.5172 62.155 18.9867 62.9733C19.4556 63.7949 20.0822 64.5158 20.8304 65.0946C21.5786 65.6735 22.4337 66.099 23.3467 66.3466C23.9614 66.5007 24.593 66.5768 25.2267 66.5733C26.4824 66.5803 27.7168 66.2486 28.8 65.6133C29.6216 65.1444 30.3426 64.518 30.9215 63.7698C31.5005 63.0217 31.926 62.1667 32.1738 61.2537C32.4215 60.3407 32.4866 59.3878 32.3653 58.4497C32.2439 57.5115 31.9385 56.6065 31.4667 55.7866ZM29.6533 60.5733C29.5007 61.1604 29.2322 61.711 28.8635 62.1927C28.4948 62.6744 28.0335 63.0774 27.5067 63.3781C26.9799 63.6788 26.3982 63.871 25.796 63.9435C25.1937 64.0159 24.5831 63.9671 24 63.8C22.868 63.4694 21.9106 62.7083 21.3333 61.68C20.7238 60.6273 20.556 59.3761 20.8667 58.2C21.1356 57.2332 21.7114 56.3801 22.5075 55.7693C23.3035 55.1584 24.2766 54.8229 25.28 54.8133C25.6843 54.8166 26.0869 54.8658 26.48 54.96C27.0608 55.1177 27.6047 55.3885 28.0806 55.7569C28.5565 56.1253 28.955 56.584 29.2533 57.1066C29.5478 57.6286 29.7349 58.2042 29.8036 58.7996C29.8723 59.3949 29.8212 59.998 29.6533 60.5733Z" fill="white"/>
<path d="M45.7466 68.9468C44.547 68.9491 43.3671 69.2517 42.3144 69.827C41.2618 70.4022 40.3698 71.2318 39.7199 72.2401L34.3866 70.4401C34.1861 70.37 33.9716 70.3488 33.7612 70.3784C33.5508 70.4079 33.3506 70.4873 33.1771 70.6099C33.0036 70.7325 32.8619 70.8949 32.7638 71.0833C32.6657 71.2718 32.6141 71.481 32.6133 71.6934V76.6801H35.2799V73.5201L38.6666 74.6668C38.5593 75.1528 38.5056 75.6491 38.5066 76.1468C38.5066 77.5682 38.9281 78.9576 39.7178 80.1395C40.5075 81.3213 41.6299 82.2424 42.9431 82.7864C44.2563 83.3303 45.7013 83.4726 47.0953 83.1953C48.4894 82.9181 49.7699 82.2336 50.775 81.2285C51.7801 80.2234 52.4646 78.9429 52.7419 77.5488C53.0192 76.1547 52.8768 74.7098 52.3329 73.3966C51.789 72.0834 50.8678 70.961 49.686 70.1713C48.5041 69.3816 47.1147 68.9601 45.6933 68.9601L45.7466 68.9468ZM45.7466 80.7068C44.8421 80.7068 43.9579 80.4386 43.2058 79.936C42.4537 79.4335 41.8675 78.7193 41.5214 77.8836C41.1753 77.0479 41.0847 76.1284 41.2612 75.2412C41.4376 74.3541 41.8732 73.5392 42.5128 72.8996C43.1524 72.26 43.9673 71.8244 44.8544 71.648C45.7415 71.4715 46.6611 71.5621 47.4968 71.9082C48.3324 72.2544 49.0467 72.8406 49.5492 73.5926C50.0517 74.3447 50.3199 75.2289 50.3199 76.1334C50.3164 77.3453 49.8335 78.5065 48.9766 79.3634C48.1197 80.2203 46.9585 80.7033 45.7466 80.7068Z" fill="white"/>
<path d="M74.1067 60.5334C72.8768 59.8168 71.4615 59.4823 70.041 59.5725C68.6204 59.6627 67.2588 60.1734 66.1294 61.0398C65 61.9061 64.1539 63.0889 63.6987 64.4376C63.2435 65.7863 63.1999 67.2399 63.5733 68.6134C63.7346 69.2209 63.9767 69.8038 64.2933 70.3468L60.3867 73.7201C60.2326 73.8578 60.1126 74.0295 60.0362 74.2216C59.9599 74.4136 59.9292 74.6208 59.9467 74.8268C59.9648 75.0362 60.0323 75.2384 60.1435 75.4169C60.2547 75.5953 60.4066 75.7449 60.5867 75.8534L64.92 78.3468L66.2533 76.0668L63.52 74.5068L66.0267 72.3201C66.3114 72.5634 66.6196 72.7778 66.9467 72.9601C67.7593 73.4436 68.6613 73.7579 69.5984 73.8839C70.5356 74.0099 71.4885 73.9451 72.4 73.6934C73.3125 73.453 74.1681 73.0333 74.9166 72.4587C75.6652 71.8841 76.2919 71.1661 76.76 70.3468C77.2303 69.5282 77.5348 68.6251 77.656 67.6889C77.7772 66.7526 77.7128 65.8017 77.4664 64.8904C77.22 63.9791 76.7964 63.1253 76.22 62.3777C75.6435 61.6301 74.9254 61.0034 74.1067 60.5334ZM74.4667 69.0268C74.0755 69.7391 73.4947 70.3293 72.7887 70.7317C72.0826 71.1342 71.2789 71.3332 70.4667 71.3068C69.6774 71.2898 68.9058 71.0693 68.2267 70.6668C67.7052 70.367 67.2481 69.9673 66.8813 69.4906C66.5146 69.0138 66.2455 68.4695 66.0895 67.8886C65.9334 67.3077 65.8935 66.7018 65.9719 66.1055C66.0504 65.5091 66.2457 64.9342 66.5467 64.4134C66.8418 63.8836 67.2395 63.4178 67.7164 63.0431C68.1933 62.6684 68.7399 62.3923 69.3245 62.2309C69.9091 62.0695 70.52 62.0259 71.1216 62.1028C71.7232 62.1797 72.3035 62.3755 72.8287 62.6788C73.3539 62.9821 73.8136 63.3868 74.1809 63.8694C74.5482 64.352 74.8159 64.9028 74.9683 65.4899C75.1208 66.0769 75.1549 66.6884 75.0688 67.2887C74.9826 67.889 74.778 68.4663 74.4667 68.9868V69.0268Z" fill="white"/>
<path d="M80.6934 48.9736L77.96 50.5602L77.3334 47.3069C77.6871 47.183 78.0267 47.0221 78.3467 46.8269C79.5795 46.12 80.575 45.0636 81.2075 43.791C81.84 42.5185 82.081 41.087 81.9001 39.6776C81.7192 38.2681 81.1245 36.9439 80.1911 35.8723C79.2578 34.8007 78.0278 34.0299 76.6564 33.6573C75.2851 33.2846 73.8341 33.3269 72.4868 33.7787C71.1395 34.2306 69.9564 35.0717 69.087 36.1957C68.2177 37.3198 67.7011 38.6764 67.6025 40.094C67.504 41.5117 67.8279 42.9267 68.5334 44.1602C69.0015 44.9796 69.6282 45.6975 70.3767 46.2721C71.1253 46.8467 71.9808 47.2665 72.8934 47.5069C73.503 47.6653 74.1302 47.746 74.76 47.7469L75.7334 52.8269C75.7785 53.0274 75.8694 53.2148 75.9989 53.3744C76.1284 53.534 76.2931 53.6615 76.48 53.7469C76.6517 53.8251 76.8381 53.866 77.0267 53.8669C77.2566 53.8729 77.4834 53.8128 77.68 53.6936L82 51.2002L80.6934 48.9736ZM73.5734 44.9736C72.8429 44.7818 72.1714 44.4122 71.6186 43.8976C71.0658 43.3831 70.6491 42.7396 70.4056 42.0248C70.1621 41.3099 70.0994 40.5459 70.2231 39.8009C70.3468 39.056 70.6531 38.3532 71.1146 37.7554C71.5761 37.1577 72.1784 36.6835 72.8678 36.3752C73.5572 36.0669 74.3122 35.9342 75.0654 35.9888C75.8186 36.0434 76.5466 36.2837 77.1843 36.6882C77.822 37.0927 78.3496 37.6488 78.72 38.3069C79.3237 39.3574 79.4858 40.6045 79.1708 41.7744C78.8559 42.9444 78.0895 43.9415 77.04 44.5469C76.5246 44.8569 75.9516 45.0592 75.3558 45.1417C74.76 45.2242 74.1537 45.1852 73.5734 45.0269V44.9736Z" fill="white"/>
</g>
<defs>
<linearGradient id="paint0_linear_2385_4220" x1="-20.72" y1="120.72" x2="120.707" y2="-20.7067" gradientUnits="userSpaceOnUse">
<stop stop-color="#2E27AD"/>
<stop offset="1" stop-color="#527FFF"/>
</linearGradient>
<clipPath id="clip0_2385_4220">
<rect width="100" height="100" fill="white"/>
</clipPath>
</defs>
</svg>
