<svg width="100" height="100" viewBox="0 0 100 100" fill="none" xmlns="http://www.w3.org/2000/svg">
<g clip-path="url(#clip0_2385_4225)">
<path d="M100 0H0V100H100V0Z" fill="url(#paint0_linear_2385_4225)"/>
<path d="M70 71.3199H29.8C26.5293 71.4029 23.3505 70.2328 20.9141 68.0492C18.4776 65.8656 16.9677 62.8335 16.6933 59.5732C16.6933 59.2799 16.6933 58.9866 16.6933 58.6932C16.5813 56.0238 17.3734 53.3947 18.9414 51.2314C20.5094 49.0682 22.7615 47.4974 25.3333 46.7732C25.3333 46.4399 25.3333 46.1199 25.3333 45.7866C25.4096 42.3278 26.5058 38.9687 28.4844 36.1308C30.463 33.2929 33.2358 31.1027 36.4548 29.8351C39.6737 28.5674 43.1954 28.2789 46.5777 29.0056C49.9601 29.7323 53.0525 31.4419 55.4666 33.9199C57.1437 35.5564 58.5003 37.4918 59.4666 39.6266C60.4733 38.836 61.6569 38.3016 62.9156 38.0693C64.1744 37.8371 65.4708 37.9139 66.6933 38.2932C70.04 39.3066 72.28 42.2932 72.8133 46.4932C79.5866 48.1732 83.3066 52.5199 83.3066 58.8266C83.3333 67.9999 76.44 71.3199 70 71.3199ZM27.0133 49.0666C24.1066 49.8132 19.3333 51.9999 19.3333 58.6666C19.3333 58.9199 19.3333 59.1599 19.3333 59.3999C19.5699 61.9787 20.7822 64.3698 22.7226 66.0846C24.663 67.7995 27.185 68.7088 29.7733 68.6266H70C73.2133 68.6266 80.6666 67.6666 80.6666 58.7599C80.6666 53.4266 77.5333 50.0799 71.3333 48.8266C71.0451 48.7683 70.7843 48.6164 70.5914 48.3946C70.3985 48.1727 70.2843 47.8934 70.2666 47.5999C70.04 44.0399 68.4666 41.5466 65.9333 40.7732C64.8721 40.4555 63.7384 40.4761 62.6895 40.8321C61.6406 41.1881 60.7285 41.8619 60.08 42.7599C59.9352 42.9484 59.7426 43.0948 59.5223 43.1839C59.3019 43.2729 59.0617 43.3015 58.8266 43.2666C58.5893 43.2303 58.3661 43.1307 58.1807 42.9781C57.9953 42.8256 57.8546 42.6258 57.7733 42.3999C56.897 39.9168 55.4755 37.6616 53.6133 35.7999C51.5736 33.6833 48.9532 32.2177 46.0821 31.5875C43.211 30.9574 40.2176 31.1909 37.479 32.2587C34.7404 33.3265 32.379 35.1808 30.6922 37.5881C29.0054 39.9953 28.0687 42.8479 28 45.7866C27.9952 46.3883 28.0309 46.9896 28.1066 47.5866C28.1494 47.9265 28.0598 48.2698 27.8562 48.5454C27.6526 48.821 27.3508 49.0076 27.0133 49.0666Z" fill="white"/>
<path d="M43.3334 61.1599C44.7129 61.8392 46.2229 62.2122 47.76 62.2533C48.5564 62.3094 49.355 62.1823 50.0946 61.8819C50.8342 61.5814 51.4951 61.1155 52.0267 60.5199C53.1274 58.9607 53.7104 57.0951 53.6934 55.1866C52.9699 55.6691 52.1792 56.042 51.3467 56.2933C50.4832 56.5608 49.584 56.6956 48.68 56.6933C47.8517 56.7358 47.0235 56.606 46.2478 56.3123C45.4722 56.0185 44.7658 55.5671 44.1734 54.9866C43.6017 54.3575 43.161 53.6209 42.8772 52.8196C42.5933 52.0184 42.4719 51.1686 42.52 50.3199C42.5008 49.1006 42.7849 47.8956 43.3467 46.8133C43.9028 45.7949 44.7346 44.9539 45.7467 44.3866C46.8362 43.7577 48.0755 43.4352 49.3334 43.4533C50.3712 43.3916 51.4081 43.5868 52.3524 44.0218C53.2967 44.4567 54.1191 45.1178 54.7467 45.9466C56.1296 48.1071 56.7838 50.6538 56.6134 53.2133C56.8042 56.2023 56.0333 59.174 54.4134 61.6933C53.6951 62.6631 52.7486 63.4407 51.6577 63.9571C50.5669 64.4734 49.3655 64.7126 48.16 64.6533C46.4589 64.7177 44.7761 64.2819 43.32 63.4L43.3334 61.1599ZM49.6934 54.3066C50.4715 54.3054 51.2464 54.2068 52 54.0133C52.7199 53.8226 53.4139 53.545 54.0667 53.1866V52.7733C54.0134 48.1599 52.5378 45.8533 49.64 45.8533C49.1209 45.8308 48.6032 45.9231 48.1239 46.1236C47.6445 46.3241 47.2152 46.6279 46.8667 47.0133C46.1411 47.8756 45.7695 48.9811 45.8267 50.1066C45.7446 51.2367 46.1029 52.3548 46.8267 53.2266C47.2025 53.5971 47.6517 53.8846 48.1455 54.0706C48.6393 54.2566 49.1666 54.337 49.6934 54.3066Z" fill="white"/>
</g>
<defs>
<linearGradient id="paint0_linear_2385_4225" x1="-20.7107" y1="120.707" x2="120.711" y2="-20.7147" gradientUnits="userSpaceOnUse">
<stop stop-color="#2E27AD"/>
<stop offset="1" stop-color="#527FFF"/>
</linearGradient>
<clipPath id="clip0_2385_4225">
<rect width="100" height="100" fill="white"/>
</clipPath>
</defs>
</svg>
