<svg width="100" height="100" viewBox="0 0 100 100" fill="none" xmlns="http://www.w3.org/2000/svg">
<g clip-path="url(#clip0_2385_4224)">
<path d="M100 0H0V100H100V0Z" fill="url(#paint0_linear_2385_4224)"/>
<path d="M57.2267 64.3335L59.08 62.4268L55.2667 58.6668L59.5334 55.4802L57.9334 53.3335L52.4134 57.4668C52.2583 57.5821 52.1302 57.7296 52.0378 57.8993C51.9455 58.0689 51.891 58.2566 51.8784 58.4493C51.8657 58.6421 51.895 58.8353 51.9644 59.0156C52.0337 59.1959 52.1414 59.3589 52.28 59.4935L57.2267 64.3335Z" fill="white"/>
<path d="M72.0667 59.8L67.8 63L69.4001 65.1333L74.9201 61C75.0753 60.8842 75.2034 60.7359 75.2955 60.5655C75.3876 60.3951 75.4415 60.2067 75.4534 60.0133C75.4657 59.8214 75.4363 59.6291 75.3672 59.4495C75.2982 59.27 75.1911 59.1076 75.0534 58.9733L70.1067 54.1733L68.2534 56.08L72.0667 59.8Z" fill="white"/>
<path d="M65.9211 51.4625L58.8811 67.4622L61.3219 68.5361L68.3619 52.5365L65.9211 51.4625Z" fill="white"/>
<path d="M84.5201 27.6401L80.7868 24.5467L74.8668 19.6401L73.3068 18.3067C73.0669 18.108 72.765 17.9995 72.4534 18.0001H23.0134C23.0134 17.6465 22.873 17.3073 22.6229 17.0573C22.3729 16.8072 22.0337 16.6667 21.6801 16.6667H16.3468C15.9931 16.6667 15.654 16.8072 15.404 17.0573C15.1539 17.3073 15.0134 17.6465 15.0134 18.0001V31.3334C15.0134 31.687 15.1539 32.0262 15.404 32.2762C15.654 32.5263 15.9931 32.6667 16.3468 32.6667H21.6801V82.0001C21.6801 82.3537 21.8206 82.6928 22.0706 82.9429C22.3207 83.1929 22.6598 83.3334 23.0134 83.3334H37.6801C38.0337 83.3334 38.3729 83.1929 38.6229 82.9429C38.873 82.6928 39.0134 82.3537 39.0134 82.0001V30.0001H63.0134V39.7734L48.0668 46.0001H47.0001C46.6465 46.0001 46.3073 46.1406 46.0573 46.3906C45.8072 46.6406 45.6668 46.9798 45.6668 47.3334V71.3334C45.6668 71.687 45.8072 72.0262 46.0573 72.2762C46.3073 72.5263 46.6465 72.6667 47.0001 72.6667H81.6668C82.0204 72.6667 82.3595 72.5263 82.6096 72.2762C82.8596 72.0262 83.0001 71.687 83.0001 71.3334V47.3334C83.0001 46.9798 82.8596 46.6406 82.6096 46.3906C82.3595 46.1406 82.0204 46.0001 81.6668 46.0001H80.6001L65.6668 39.7734V30.0001H83.6668C83.9408 30 84.2081 29.9154 84.4324 29.758C84.6566 29.6005 84.8269 29.3778 84.9201 29.1201C85.0138 28.8622 85.0257 28.5817 84.9541 28.3168C84.8825 28.052 84.7309 27.8156 84.5201 27.6401ZM72.0001 20.7201L65.1201 26.9334L56.8801 20.6934H72.0001V20.7201ZM37.6934 27.3867H27.0268L33.6134 22.3867L40.1334 27.3334L37.6934 27.3867ZM25.0134 54.6667L36.3334 44.6267V64.7067L25.0134 54.6667ZM35.6801 67.6667L24.3601 77.7067V57.6267L35.6801 67.6667ZM24.3601 51.6667V31.6267L35.6801 41.6667L24.3601 51.6667ZM35.8001 20.6401H52.4268L44.1068 26.9601L35.8001 20.6401ZM54.6668 22.3334L61.2534 27.3334H48.0668L54.6668 22.3334ZM31.3334 20.6667L23.0001 27.0001V20.6667H31.3334ZM20.3334 30.0001H17.6668V19.3334H20.3334V30.0001ZM25.0134 80.6667L36.3334 70.6667V80.6667H25.0134ZM36.3334 38.6667L26.5201 30.0001H36.3334V38.6667ZM80.3334 69.9601H48.3334V48.6267H80.3334V69.9601ZM55.0001 45.9601L64.3334 42.0667L73.6668 45.9601H55.0001ZM68.6534 27.2934L73.9868 22.3867L80.0001 27.3334L68.6534 27.2934Z" fill="white"/>
</g>
<defs>
<linearGradient id="paint0_linear_2385_4224" x1="-20.7147" y1="120.711" x2="120.707" y2="-20.7107" gradientUnits="userSpaceOnUse">
<stop stop-color="#2E27AD"/>
<stop offset="1" stop-color="#527FFF"/>
</linearGradient>
<clipPath id="clip0_2385_4224">
<rect width="100" height="100" fill="white"/>
</clipPath>
</defs>
</svg>
