<svg width="100" height="100" viewBox="0 0 100 100" fill="none" xmlns="http://www.w3.org/2000/svg">
<g clip-path="url(#clip0_2385_4222)">
<path d="M100 0H0V100H100V0Z" fill="url(#paint0_linear_2385_4222)"/>
<path d="M60.6665 50.9068C60.3327 50.9082 60.0106 50.7843 59.7637 50.5596C59.5169 50.335 59.3632 50.0259 59.3332 49.6935V49.3335C59.1465 47.6001 58.4665 46.9468 57.0932 45.6401L56.6665 45.2268C54.8752 43.5055 52.4842 42.5491 49.9999 42.5601C45.8532 42.5601 41.2265 44.3335 40.6665 49.3201V49.7068C40.6665 50.0604 40.5261 50.3996 40.276 50.6496C40.026 50.8997 39.6868 51.0401 39.3332 51.0401C38.9796 51.0401 38.6404 50.8997 38.3904 50.6496C38.1403 50.3996 37.9999 50.0604 37.9999 49.7068C37.8665 47.7335 37.0799 46.9735 35.5065 45.4535L35.3332 45.2668C33.5419 43.5455 31.1508 42.5891 28.6665 42.6001C23.5865 42.6001 19.9465 45.1735 19.3332 49.1468C19.3014 49.5004 19.1304 49.8269 18.8578 50.0545C18.5853 50.282 18.2335 50.392 17.8799 50.3601C17.5262 50.3283 17.1997 50.1573 16.9722 49.8848C16.7447 49.6122 16.6347 49.2604 16.6665 48.9068C16.866 40.2339 20.4782 31.9896 26.7189 25.9635C32.9596 19.9375 41.3252 16.616 49.9999 16.7201C68.6665 16.7201 82.9999 30.5602 83.3332 48.9335V49.0668C83.3332 49.4204 83.1927 49.7596 82.9427 50.0096C82.6926 50.2597 82.3535 50.4001 81.9999 50.4001C81.6462 50.4001 81.3071 50.2597 81.0571 50.0096C80.807 49.7596 80.6665 49.4204 80.6665 49.0668V48.9735C80.6665 47.8668 79.5732 46.7735 77.9999 45.2401C76.2132 43.5115 73.8191 42.5539 71.3332 42.5735C67.2399 42.5735 62.3465 44.4401 61.9999 49.6801C61.9762 50.0173 61.8253 50.333 61.5778 50.5632C61.3303 50.7934 61.0046 50.921 60.6665 50.9201V50.9068ZM28.6665 39.8935C31.8382 39.8873 34.8864 41.1219 37.1599 43.3335L37.3732 43.5335C38.0126 44.1217 38.6097 44.7544 39.1599 45.4268C41.0265 42.0001 44.9599 40.0001 50.0132 40.0001C53.1795 39.9818 56.2275 41.202 58.5065 43.4001L58.9199 43.8001C59.4979 44.3248 60.0371 44.8908 60.5332 45.4935C62.4132 42.0668 66.3599 39.9601 71.3332 39.9601C74.5095 39.9505 77.5631 41.1854 79.8399 43.4001L80.1199 43.6668C77.4532 29.4268 65.3332 19.3335 49.9999 19.3335C43.1316 19.2403 36.437 21.4923 31.0214 25.7176C25.6058 29.9429 21.7933 35.8888 20.2132 42.5735C22.6427 40.7418 25.6255 39.7962 28.6665 39.8935Z" fill="white"/>
<path d="M18.7921 47.8337L17.3374 50.0686L29.2608 57.8295L30.7155 55.5946L18.7921 47.8337Z" fill="white"/>
<path d="M81.2543 47.9339L70.6187 55.3396L72.1425 57.528L82.7781 50.1223L81.2543 47.9339Z" fill="white"/>
<path d="M60.5864 55.6801L57.9998 54.9734L59.3331 49.3734V48.0401C59.3331 31.0934 54.4531 19.2934 49.9998 19.2934C45.5464 19.2934 40.6664 31.1067 40.6664 48.0534V49.3334L41.9998 54.9467L39.4264 55.6534L38.0931 49.8934V48.0001C37.9998 27.6667 44.1864 16.6667 49.9998 16.6667C55.8131 16.6667 61.9998 27.6801 61.9998 48.0934V49.0134C61.9864 49.2132 61.9864 49.4136 61.9998 49.6134C62.0131 49.6749 62.0131 49.7386 61.9998 49.8001C62.013 49.8661 62.013 49.9341 61.9998 50.0001L60.5864 55.6801Z" fill="white"/>
<path d="M44.2265 75L39.3331 70.1867C39.1954 70.0524 39.0883 69.89 39.0193 69.7105C38.9502 69.5309 38.9209 69.3386 38.9331 69.1467C38.9469 68.9556 39.0017 68.7698 39.0937 68.6019C39.1857 68.4339 39.3129 68.2878 39.4665 68.1733L44.9865 64L46.5865 66.1333L42.3198 69.3333L46.1331 73.0533L44.2265 75Z" fill="white"/>
<path d="M56.4132 75.7867L54.8132 73.6533L59.0932 70.4533L55.3332 66.7333L57.1999 64.8267L62.1332 69.64C62.2718 69.7746 62.3795 69.9376 62.4489 70.1179C62.5182 70.2982 62.5476 70.4914 62.5349 70.6841C62.5222 70.8769 62.4678 71.0646 62.3754 71.2342C62.2831 71.4039 62.1549 71.5514 61.9999 71.6667L56.4132 75.7867Z" fill="white"/>
<path d="M52.9203 62.132L45.8691 78.1267L48.3092 79.2024L55.3604 63.2077L52.9203 62.132Z" fill="white"/>
<path d="M67.3332 83.3333H33.9998C33.6462 83.3333 33.3071 83.1929 33.057 82.9428C32.807 82.6928 32.6665 82.3536 32.6665 82V59.3333C32.6665 58.9797 32.807 58.6406 33.057 58.3905C33.3071 58.1405 33.6462 58 33.9998 58H67.3332C67.6868 58 68.0259 58.1405 68.276 58.3905C68.526 58.6406 68.6665 58.9797 68.6665 59.3333V82C68.6665 82.3536 68.526 82.6928 68.276 82.9428C68.0259 83.1929 67.6868 83.3333 67.3332 83.3333ZM35.3332 80.6667H65.9998V60.6667H35.3332V80.6667Z" fill="white"/>
</g>
<defs>
<linearGradient id="paint0_linear_2385_4222" x1="-20.7147" y1="120.711" x2="120.707" y2="-20.7107" gradientUnits="userSpaceOnUse">
<stop stop-color="#2E27AD"/>
<stop offset="1" stop-color="#527FFF"/>
</linearGradient>
<clipPath id="clip0_2385_4222">
<rect width="100" height="100" fill="white"/>
</clipPath>
</defs>
</svg>
