<svg width="100" height="100" viewBox="0 0 100 100" fill="none" xmlns="http://www.w3.org/2000/svg">
<g clip-path="url(#clip0_2385_4221)">
<path d="M100 0H0V100H100V0Z" fill="url(#paint0_linear_2385_4221)"/>
<path d="M76 16.6666H23.9999C23.0354 16.6613 22.0795 16.8474 21.1873 17.214C20.2952 17.5807 19.4847 18.1206 18.8027 18.8027C18.1206 19.4847 17.5807 20.2952 17.214 21.1873C16.8474 22.0795 16.6613 23.0354 16.6666 23.9999V38.6666C16.6613 39.6311 16.8474 40.5871 17.214 41.4792C17.5807 42.3713 18.1206 43.1819 18.8027 43.8639C19.4847 44.5459 20.2952 45.0859 21.1873 45.4525C22.0795 45.8192 23.0354 46.0053 23.9999 45.9999H25.9999V82C25.9999 82.3536 26.1404 82.6927 26.3905 82.9428C26.6405 83.1928 26.9797 83.3333 27.3333 83.3333H72.6666C73.0202 83.3333 73.3594 83.1928 73.6094 82.9428C73.8595 82.6927 74 82.3536 74 82V45.9999H76C76.9645 46.0053 77.9204 45.8192 78.8126 45.4525C79.7047 45.0859 80.5152 44.5459 81.1972 43.8639C81.8792 43.1819 82.4192 42.3713 82.7859 41.4792C83.1525 40.5871 83.3386 39.6311 83.3333 38.6666V23.9999C83.3386 23.0354 83.1525 22.0795 82.7859 21.1873C82.4192 20.2952 81.8792 19.4847 81.1972 18.8027C80.5152 18.1206 79.7047 17.5807 78.8126 17.214C77.9204 16.8474 76.9645 16.6613 76 16.6666ZM71.2799 80.6666H28.6133V45.9999H71.2799V80.6666ZM76 43.3333H23.9999C22.8863 43.3299 21.8117 42.9226 20.9756 42.187C20.1394 41.4514 19.5985 40.4374 19.4533 39.3333H42.1199V36.6666H19.4533V23.9999C19.439 22.7787 19.9097 21.6016 20.762 20.7268C21.6143 19.852 22.7787 19.3508 23.9999 19.3333H76C76.6148 19.3261 77.2248 19.442 77.7942 19.6739C78.3636 19.9059 78.8809 20.2494 79.3157 20.6842C79.7505 21.119 80.094 21.6363 80.326 22.2057C80.5579 22.7751 80.6738 23.3851 80.6666 23.9999V36.6666H55.3333V39.3333H80.6666C80.5189 40.4581 79.9608 41.4887 79.0994 42.2271C78.238 42.9654 77.1342 43.3594 76 43.3333Z" fill="white"/>
<path d="M33.4398 63.1332L41.0665 69.7065L42.8131 67.6932L36.3331 62.1065L42.8531 56.3599L41.0798 54.3599L33.4265 61.1332C33.2843 61.2581 33.1703 61.4119 33.0921 61.5844C33.0139 61.7568 32.9734 61.9439 32.9731 62.1332C32.975 62.3235 33.0177 62.5113 33.0982 62.6837C33.1787 62.8562 33.2952 63.0095 33.4398 63.1332Z" fill="white"/>
<path d="M59.0001 69.7598L66.6801 63.0931C66.824 62.9667 66.939 62.8107 67.0172 62.6358C67.0955 62.461 67.1351 62.2713 67.1334 62.0798C67.1332 61.8904 67.0926 61.7033 67.0145 61.5309C66.9363 61.3585 66.8223 61.2047 66.6801 61.0798L59.0001 54.4131L57.2534 56.4264L63.7734 62.0798L57.2534 67.7998L59.0001 69.7598Z" fill="white"/>
<path d="M53.9838 51.0313L44.8188 73.3999L47.2864 74.4109L56.4513 52.0423L53.9838 51.0313Z" fill="white"/>
<path d="M51.3333 36.6665H46V39.3332H51.3333V36.6665Z" fill="white"/>
</g>
<defs>
<linearGradient id="paint0_linear_2385_4221" x1="-20.7067" y1="120.707" x2="120.707" y2="-20.7067" gradientUnits="userSpaceOnUse">
<stop stop-color="#2E27AD"/>
<stop offset="1" stop-color="#527FFF"/>
</linearGradient>
<clipPath id="clip0_2385_4221">
<rect width="100" height="100" fill="white"/>
</clipPath>
</defs>
</svg>
