<svg width="100" height="100" viewBox="0 0 100 100" fill="none" xmlns="http://www.w3.org/2000/svg">
<g clip-path="url(#clip0_2385_4216)">
<path d="M100 0H0V100H100V0Z" fill="url(#paint0_linear_2385_4216)"/>
<path d="M58.7219 49.9543L64.9019 43.7743C66.5488 43.8976 68.1991 43.5856 69.6874 42.8699C71.1758 42.1541 72.4498 41.0596 73.3817 39.6962C74.3136 38.3328 74.8707 36.7483 74.9971 35.1016C75.1235 33.455 74.8148 31.804 74.1019 30.3143C73.9786 30.0849 73.7706 29.9126 73.5222 29.8342C73.2738 29.7558 73.0046 29.7773 72.7719 29.8943C72.6686 29.9459 72.5742 30.0134 72.4919 30.0943L66.8819 35.7043C66.7145 35.8737 66.5152 36.0081 66.2954 36.0998C66.0757 36.1916 65.84 36.2388 65.6019 36.2388C65.3638 36.2388 65.1281 36.1916 64.9083 36.0998C64.6886 36.0081 64.4893 35.8737 64.3219 35.7043C63.9848 35.3636 63.7957 34.9037 63.7957 34.4243C63.7957 33.945 63.9848 33.4851 64.3219 33.1443L69.9319 27.5343C70.0459 27.421 70.1308 27.2818 70.1796 27.1286C70.2283 26.9754 70.2394 26.8127 70.2119 26.6543C70.1838 26.4967 70.1183 26.3482 70.0208 26.2211C69.9234 26.0941 69.7969 25.9923 69.6519 25.9243C68.1628 25.2106 66.5122 24.9013 64.8657 25.0275C63.2193 25.1537 61.635 25.7109 60.2721 26.6432C58.9092 27.5754 57.8156 28.8499 57.1011 30.3386C56.3867 31.8273 56.0765 33.4778 56.2019 35.1243L48.2819 43.0043L41.4319 36.1343C41.2262 35.9301 41.072 35.6799 40.9819 35.4043L39.3819 30.4043C39.2182 29.8944 38.9495 29.4245 38.5929 29.0248C38.2364 28.6252 37.8 28.3048 37.3119 28.0843L31.8319 25.6343C31.1193 25.3158 30.3269 25.2208 29.5593 25.3619C28.7916 25.5029 28.0847 25.8734 27.5319 26.4243L26.4319 27.5143C25.885 28.0698 25.5181 28.7771 25.3789 29.5441C25.2398 30.3111 25.3349 31.1022 25.6519 31.8143L28.1419 37.2943C28.3624 37.7824 28.6828 38.2188 29.0824 38.5754C29.482 38.9319 29.952 39.2007 30.4619 39.3643L35.8819 41.1043L43.0219 48.2143L35.1019 56.1343C33.8642 56.0446 32.621 56.2002 31.4436 56.5924C30.2663 56.9845 29.178 57.6055 28.2413 58.4195C27.3047 59.2335 26.5381 60.2245 25.9856 61.3357C25.4331 62.4468 25.1056 63.6562 25.0219 64.8943C24.9113 66.5253 25.2212 68.1574 25.9219 69.6343C25.9899 69.7793 26.0916 69.9058 26.2187 70.0033C26.3457 70.1007 26.4943 70.1663 26.6519 70.1943C26.8103 70.2218 26.973 70.2107 27.1262 70.162C27.2793 70.1133 27.4185 70.0283 27.5319 69.9143L33.1419 64.3043C33.4814 63.9649 33.9418 63.7742 34.4219 63.7742C34.902 63.7742 35.3624 63.9649 35.7019 64.3043C36.0414 64.6438 36.2321 65.1043 36.2321 65.5843C36.2321 66.0644 36.0414 66.5249 35.7019 66.8643L30.0919 72.4743C29.9056 72.6617 29.8011 72.9152 29.8011 73.1793C29.8011 73.4435 29.9056 73.697 30.0919 73.8843C30.1706 73.9651 30.2617 74.0326 30.3619 74.0843C31.8514 74.8005 33.5031 75.1117 35.1511 74.9867C36.799 74.8617 38.385 74.3049 39.7494 73.3724C41.1138 72.4398 42.2085 71.1643 42.9234 69.6743C43.6384 68.1842 43.9482 66.5322 43.8219 64.8843L50.0219 58.6543L64.7919 73.4243C65.6505 74.2811 66.8139 74.7622 68.0269 74.7622C69.2398 74.7622 70.4033 74.2811 71.2619 73.4243L73.4919 71.1943C74.348 70.3374 74.8289 69.1757 74.8289 67.9643C74.8289 66.753 74.348 65.5913 73.4919 64.7343L58.7219 49.9543ZM57.9519 36.1543C58.0617 36.0462 58.145 35.914 58.1953 35.7683C58.2456 35.6226 58.2616 35.4672 58.2419 35.3143C58.0849 34.1153 58.2242 32.8961 58.6475 31.7634C59.0708 30.6306 59.7653 29.6189 60.6701 28.8167C61.575 28.0145 62.6626 27.4462 63.8379 27.1616C65.0132 26.8771 66.2403 26.8849 67.4119 27.1843L62.9019 31.6843C62.1871 32.3991 61.7856 33.3685 61.7856 34.3793C61.7856 35.3902 62.1871 36.3596 62.9019 37.0743C63.6167 37.7891 64.5861 38.1907 65.5969 38.1907C66.6077 38.1907 67.5771 37.7891 68.2919 37.0743L72.7919 32.5643C73.1055 33.8101 73.0917 35.1157 72.7517 36.3545C72.4118 37.5933 71.7574 38.7231 70.8519 39.6343C70.051 40.4396 69.0743 41.0483 67.9986 41.4127C66.9229 41.777 65.7773 41.8871 64.6519 41.7343C64.5006 41.7163 64.3472 41.733 64.2033 41.7832C64.0595 41.8335 63.929 41.916 63.8219 42.0243L57.3119 48.5443L56.4019 47.6343C55.8886 47.1112 55.2114 46.7801 54.4833 46.6964C53.7552 46.6127 53.0205 46.7814 52.4019 47.1743L49.6519 44.4043L57.9519 36.1543ZM37.1219 39.4643L36.9519 39.2943L31.0719 37.4143C30.8269 37.3351 30.6015 37.2051 30.4102 37.0328C30.2189 36.8605 30.0662 36.6497 29.9619 36.4143L27.4719 30.9543C27.3196 30.6128 27.2744 30.2331 27.3422 29.8654C27.4101 29.4976 27.5878 29.1591 27.8519 28.8943L28.9419 27.7843C29.2078 27.5152 29.5506 27.3351 29.9231 27.2689C30.2956 27.2026 30.6795 27.2534 31.0219 27.4143L36.5119 29.8943C36.7473 29.9986 36.958 30.1514 37.1303 30.3426C37.3026 30.5339 37.4327 30.7594 37.5119 31.0043L39.1119 36.0043C39.2915 36.5814 39.6031 37.1087 40.0219 37.5443L50.9519 48.5443L48.5819 50.8943L37.1219 39.4643ZM42.1219 63.7543C42.0121 63.8625 41.9288 63.9946 41.8785 64.1404C41.8282 64.2861 41.8122 64.4414 41.8319 64.5943C41.9889 65.7934 41.8496 67.0126 41.4263 68.1453C41.003 69.2781 40.3085 70.2898 39.4037 71.092C38.4988 71.8942 37.4112 72.4625 36.2359 72.747C35.0606 73.0316 33.8335 73.0238 32.6619 72.7243L37.1619 68.2243C37.5893 67.905 37.9448 67.4994 38.2055 67.0339C38.4662 66.5683 38.6262 66.0532 38.6751 65.522C38.7241 64.9907 38.6609 64.455 38.4897 63.9497C38.3185 63.4444 38.043 62.9806 37.6812 62.5885C37.3194 62.1964 36.8792 61.8847 36.3892 61.6735C35.8993 61.4623 35.3704 61.3564 34.8369 61.3626C34.3034 61.3688 33.7771 61.487 33.2922 61.7095C32.8073 61.932 32.3745 62.2539 32.0219 62.6543C31.9538 62.7091 31.8903 62.7693 31.8319 62.8343L27.2919 67.3443C26.9878 66.0934 27.0122 64.7852 27.3626 63.5465C27.713 62.3077 28.3776 61.1806 29.2919 60.2743C30.0909 59.4693 31.0657 58.8606 32.1399 58.4962C33.214 58.1318 34.358 58.0216 35.4819 58.1743C35.6178 58.1805 35.7535 58.1588 35.8808 58.1106C36.008 58.0625 36.1241 57.9889 36.2219 57.8943L44.4719 49.6343L47.2419 52.3843C46.8489 53.003 46.6802 53.7377 46.764 54.4658C46.8477 55.1938 47.1788 55.8711 47.7019 56.3843L48.6119 57.2943L42.1219 63.7543ZM72.1219 69.7543L69.8919 71.9843C69.4054 72.4637 68.7499 72.7325 68.0669 72.7325C67.3839 72.7325 66.7284 72.4637 66.2419 71.9843L49.1119 54.9843C48.8895 54.7533 48.7652 54.4451 48.7652 54.1243C48.7652 53.8036 48.8895 53.4954 49.1119 53.2643L53.2619 49.1143C53.4917 48.8896 53.8004 48.7637 54.1219 48.7637C54.4434 48.7637 54.7521 48.8896 54.9819 49.1143L72.0819 66.2143C72.5631 66.6978 72.8332 67.3522 72.8332 68.0343C72.8332 68.7165 72.5631 69.3709 72.0819 69.8543L72.1219 69.7543Z" fill="white"/>
</g>
<defs>
<linearGradient id="paint0_linear_2385_4216" x1="0" y1="100" x2="100" y2="0" gradientUnits="userSpaceOnUse">
<stop stop-color="#2E27AD"/>
<stop offset="1" stop-color="#527FFF"/>
</linearGradient>
<clipPath id="clip0_2385_4216">
<rect width="100" height="100" fill="white"/>
</clipPath>
</defs>
</svg>
