<svg width="100" height="100" viewBox="0 0 100 100" fill="none" xmlns="http://www.w3.org/2000/svg">
<g clip-path="url(#clip0_2385_6728)">
<path d="M100 0H0V100H100V0Z" fill="url(#paint0_linear_2385_6728)"/>
<path d="M71.5733 43.3332H83.3334V45.9998H71.5733C40.7867 45.9998 16.6667 33.8665 16.6667 18.3465C16.6623 17.7847 16.698 17.2233 16.7733 16.6665H19.44C19.3492 17.2219 19.3046 17.7838 19.3067 18.3465C19.3067 32.1198 42.76 43.3332 71.5733 43.3332ZM16.6667 37.1332V41.0132C22.4933 46.0398 33.28 48.6532 43.8533 49.9865C33.28 51.3198 22.52 53.9865 16.68 59.0665V62.6665C20.32 57.9732 29.7867 54.5198 43.3467 52.7332H43.6C51.3724 51.7892 59.1973 51.3438 67.0267 51.3998H83.3334V48.7332H67.0133C40.92 48.6265 22.16 44.3332 16.6667 37.1332ZM77.8267 37.9998C53.08 37.9998 34.4267 29.8265 34.4267 19.1065C34.4267 18.6265 34.4267 17.3065 34.4267 16.6665H31.6533C31.6533 17.5732 31.6533 19.0798 31.6533 19.1065C31.6533 31.5998 51.08 40.6665 77.84 40.6665H83.3334V37.9998H77.8267ZM16.6667 81.6932C16.6619 82.2417 16.6976 82.7899 16.7733 83.3332H19.44C19.3598 82.7902 19.3197 82.242 19.32 81.6932C19.32 72.8798 28.92 65.1198 43.32 60.6665V57.8665C27.24 62.6665 16.6667 71.4265 16.6667 81.6932ZM31.6933 80.7598C31.6933 80.7598 31.6933 82.4532 31.6933 83.3332H34.36C34.36 82.7865 34.36 81.2798 34.36 80.7598C34.36 76.2665 37.6667 72.2265 43.3333 69.0665V66.0798C36 69.8265 31.6933 74.9198 31.6933 80.7598ZM83.3334 59.3465V78.0132C83.3334 79.4277 82.7714 80.7842 81.7713 81.7844C80.7711 82.7846 79.4145 83.3465 78 83.3465H51.3334C49.9189 83.3465 48.5623 82.7846 47.5621 81.7844C46.5619 80.7842 46 79.4277 46 78.0132V59.3465C46 57.932 46.5619 56.5755 47.5621 55.5753C48.5623 54.5751 49.9189 54.0132 51.3334 54.0132H78C79.4145 54.0132 80.7711 54.5751 81.7713 55.5753C82.7714 56.5755 83.3334 57.932 83.3334 59.3465ZM80.6667 59.3465C80.6667 58.6393 80.3857 57.961 79.8856 57.4609C79.3855 56.9608 78.7073 56.6798 78 56.6798H51.3334C50.6261 56.6798 49.9478 56.9608 49.4477 57.4609C48.9476 57.961 48.6667 58.6393 48.6667 59.3465V78.0132C48.6667 78.7204 48.9476 79.3987 49.4477 79.8988C49.9478 80.3989 50.6261 80.6798 51.3334 80.6798H78C78.7073 80.6798 79.3855 80.3989 79.8856 79.8988C80.3857 79.3987 80.6667 78.7204 80.6667 78.0132V59.3465ZM74 68.6798C73.9995 68.9363 73.925 69.1872 73.7855 69.4024C73.6459 69.6176 73.4473 69.788 73.2133 69.8932L58.5467 76.5598C58.3702 76.6376 58.1796 76.6785 57.9867 76.6798C57.7312 76.6792 57.4813 76.6051 57.2667 76.4665C57.0789 76.346 56.9244 76.1804 56.8172 75.9847C56.7101 75.789 56.6537 75.5696 56.6534 75.3465V62.0132C56.6537 61.7901 56.7101 61.5706 56.8172 61.375C56.9244 61.1793 57.0789 61.0136 57.2667 60.8932C57.4611 60.7616 57.6867 60.6838 57.9208 60.6674C58.1549 60.651 58.3892 60.6967 58.6 60.7998L73.2667 67.4665C73.4916 67.5736 73.6819 67.7415 73.8163 67.9512C73.9506 68.161 74.0235 68.4041 74.0267 68.6532L74 68.6798ZM69.4667 68.6798L59.3333 64.0665V73.2532L69.4667 68.6798Z" fill="white"/>
</g>
<defs>
<linearGradient id="paint0_linear_2385_6728" x1="-20.7067" y1="120.707" x2="120.707" y2="-20.7067" gradientUnits="userSpaceOnUse">
<stop stop-color="#C8511B"/>
<stop offset="1" stop-color="#FF9900"/>
</linearGradient>
<clipPath id="clip0_2385_6728">
<rect width="100" height="100" fill="white"/>
</clipPath>
</defs>
</svg>
