<svg width="100" height="100" viewBox="0 0 100 100" fill="none" xmlns="http://www.w3.org/2000/svg">
<g clip-path="url(#clip0_2385_6729)">
<path d="M100 0H0V100H100V0Z" fill="url(#paint0_linear_2385_6729)"/>
<path d="M71.6667 60.6668C68.9154 60.6691 66.2586 61.6711 64.191 63.4861C62.1233 65.3012 60.7855 67.8057 60.4267 70.5335L45 64.8535V58.7335L61 51.9735C61.6918 53.8202 62.8535 55.4544 64.3702 56.7147C65.887 57.975 67.7064 58.8177 69.6485 59.1595C71.5907 59.5014 73.5885 59.3305 75.4444 58.6639C77.3003 57.9972 78.9502 56.8579 80.2309 55.3583C81.5117 53.8588 82.379 52.0511 82.7472 50.1137C83.1154 48.1764 82.9717 46.1765 82.3303 44.3116C81.6889 42.4468 80.572 40.7817 79.09 39.4807C77.608 38.1797 75.8122 37.2879 73.88 36.8935C72.2222 34.3474 69.6326 32.5524 66.6667 31.8935C65.9733 26.8668 62.52 24.5735 59.4533 24.5735C58.0109 24.5735 56.6073 25.0413 55.4533 25.9068C54.642 24.1737 53.5419 22.5911 52.2 21.2268C50.1108 19.0324 47.3932 17.5389 44.4207 16.9515C41.4483 16.3642 38.3669 16.7119 35.6 17.9468C33.0193 19.1663 30.8298 21.0814 29.2776 23.4768C27.7254 25.8722 26.872 28.653 26.8133 31.5068C26.8133 31.7468 26.8133 31.9735 26.8133 32.2001C24.6444 32.8892 22.7628 34.2733 21.459 36.1386C20.1553 38.0038 19.5019 40.2465 19.6 42.5201C19.5904 44.4235 20.0337 46.3019 20.8933 48.0001L23.2667 46.8001C22.6333 45.4822 22.3139 44.0355 22.3333 42.5735C22.2413 40.7193 22.8158 38.8935 23.9529 37.4261C25.0901 35.9588 26.7149 34.9469 28.5333 34.5735C28.8273 34.5204 29.0949 34.3701 29.2933 34.1468C29.4168 34.0057 29.5091 33.8401 29.5643 33.6609C29.6194 33.4817 29.6361 33.2929 29.6133 33.1068C29.5579 32.6065 29.5312 32.1035 29.5333 31.6001C29.5964 29.2709 30.2973 27.0037 31.5598 25.0453C32.8223 23.0869 34.5979 21.5125 36.6933 20.4935C38.9658 19.4616 41.5034 19.1639 43.953 19.6418C46.4026 20.1198 48.6422 21.3496 50.36 23.1601C51.9008 24.7337 53.0674 26.634 53.7733 28.7201C53.8536 28.9471 53.9939 29.148 54.1792 29.3017C54.3645 29.4553 54.588 29.556 54.8258 29.5929C55.0637 29.6298 55.3072 29.6016 55.5303 29.5113C55.7535 29.4211 55.948 29.2721 56.0933 29.0801C56.4817 28.538 56.9914 28.0942 57.5817 27.784C58.172 27.4738 58.8266 27.3058 59.4933 27.2935C61.5867 27.2935 63.8133 29.0268 64.1333 32.8935C64.0942 33.2312 64.1856 33.5712 64.3888 33.8439C64.592 34.1165 64.8918 34.3012 65.2267 34.3601C67.1496 34.6643 68.9476 35.5054 70.4133 36.7868C67.6514 37.097 65.0994 38.4101 63.2414 40.477C61.3834 42.5439 60.3486 45.2209 60.3333 48.0001C60.3344 48.4457 60.3611 48.8909 60.4133 49.3335L45 55.8401V51.3335C45 50.9798 44.8595 50.6407 44.6095 50.3906C44.3594 50.1406 44.0203 50.0001 43.6667 50.0001H18.3333C17.9797 50.0001 17.6406 50.1406 17.3905 50.3906C17.1405 50.6407 17 50.9798 17 51.3335V74.0001C17 74.3537 17.1405 74.6929 17.3905 74.9429C17.6406 75.193 17.9797 75.3335 18.3333 75.3335H43.6667C44.0203 75.3335 44.3594 75.193 44.6095 74.9429C44.8595 74.6929 45 74.3537 45 74.0001V67.7068L60.4133 73.3335C60.6803 75.4992 61.5669 77.5418 62.9665 79.216C64.3661 80.8901 66.2193 82.1246 68.3034 82.7712C70.3876 83.4178 72.6141 83.4489 74.7155 82.8609C76.8169 82.2729 78.7039 81.0907 80.1498 79.4563C81.5957 77.822 82.539 75.805 82.8665 73.6475C83.194 71.4901 82.8917 69.284 81.9958 67.2942C81.1 65.3044 79.6488 63.6156 77.8166 62.4305C75.9843 61.2454 73.8488 60.6144 71.6667 60.6135V60.6668ZM71.6667 39.3335C73.3808 39.3335 75.0564 39.8417 76.4816 40.7941C77.9068 41.7464 79.0177 43.0999 79.6736 44.6835C80.3296 46.2672 80.5012 48.0097 80.1668 49.6909C79.8324 51.3721 79.007 52.9163 77.7949 54.1284C76.5829 55.3404 75.0386 56.1659 73.3575 56.5003C71.6763 56.8347 69.9337 56.663 68.3501 56.0071C66.7665 55.3511 65.4129 54.2403 64.4606 52.8151C63.5083 51.3898 63 49.7142 63 48.0001C63.0035 45.7027 63.9178 43.5003 65.5423 41.8758C67.1669 40.2512 69.3692 39.337 71.6667 39.3335ZM42.3333 72.6668H19.6667V52.6668H42.3333V72.6668ZM71.6667 80.6668C69.9526 80.6668 68.277 80.1585 66.8517 79.2062C65.4265 78.2539 64.3157 76.9003 63.6597 75.3167C63.0038 73.7331 62.8321 71.9905 63.1665 70.3093C63.5009 68.6282 64.3264 67.0839 65.5384 65.8719C66.7505 64.6598 68.2947 63.8344 69.9759 63.5C71.6571 63.1656 73.3996 63.3372 74.9833 63.9932C76.5669 64.6491 77.9204 65.76 78.8727 67.1852C79.8251 68.6104 80.3333 70.286 80.3333 72.0001C80.3298 74.2976 79.4156 76.4999 77.791 78.1245C76.1665 79.749 73.9641 80.6633 71.6667 80.6668ZM25 70.0935C24.7562 70.0958 24.5164 70.0312 24.3067 69.9068C24.1101 69.7871 23.9479 69.6186 23.8357 69.4177C23.7236 69.2168 23.6653 68.9902 23.6667 68.7601V56.5601C23.6676 56.3323 23.7269 56.1085 23.839 55.9101C23.951 55.7117 24.112 55.5453 24.3067 55.4268C24.5094 55.3098 24.7393 55.2482 24.9733 55.2482C25.2074 55.2482 25.4373 55.3098 25.64 55.4268L37.4533 61.5335C37.6732 61.6443 37.8581 61.8138 37.9876 62.0232C38.117 62.2327 38.1859 62.4739 38.1867 62.7201C38.1859 62.9663 38.117 63.2076 37.9876 63.417C37.8581 63.6265 37.6732 63.796 37.4533 63.9068L25.64 70.0001C25.4376 70.0833 25.2178 70.1153 25 70.0935ZM26.3333 58.7468V66.5735L33.92 62.6668L26.3333 58.7468ZM69 54.0001C68.6464 54.0001 68.3072 53.8596 68.0572 53.6096C67.8071 53.3596 67.6667 53.0204 67.6667 52.6668V43.3335C67.6667 43.1021 67.727 42.8747 67.8415 42.6736C67.9561 42.4726 68.121 42.3048 68.32 42.1868C68.5227 42.0698 68.7526 42.0082 68.9867 42.0082C69.2207 42.0082 69.4506 42.0698 69.6533 42.1868L78.32 46.8535C78.5329 46.9668 78.7111 47.1358 78.8355 47.3424C78.96 47.5491 79.026 47.7856 79.0267 48.0268C79.026 48.268 78.96 48.5045 78.8355 48.7111C78.7111 48.9178 78.5329 49.0868 78.32 49.2001L69.6533 53.8668C69.4504 53.9659 69.2256 54.0117 69 54.0001ZM70.3333 45.5601V50.4268L74.8533 48.0001L70.3333 45.5601ZM69 78.0001C68.6464 78.0001 68.3072 77.8596 68.0572 77.6096C67.8071 77.3595 67.6667 77.0204 67.6667 76.6668V67.3335C67.6667 67.1021 67.727 66.8747 67.8415 66.6736C67.9561 66.4726 68.121 66.3048 68.32 66.1868C68.5227 66.0698 68.7526 66.0082 68.9867 66.0082C69.2207 66.0082 69.4506 66.0698 69.6533 66.1868L78.32 70.8535C78.5329 70.9668 78.7111 71.1358 78.8355 71.3424C78.96 71.5491 79.026 71.7856 79.0267 72.0268C79.026 72.268 78.96 72.5045 78.8355 72.7111C78.7111 72.9178 78.5329 73.0868 78.32 73.2001L69.6533 77.8668C69.4504 77.9658 69.2256 78.0117 69 78.0001ZM70.3333 69.5601V74.4268L74.8533 72.0001L70.3333 69.5601Z" fill="white"/>
</g>
<defs>
<linearGradient id="paint0_linear_2385_6729" x1="-20.7147" y1="120.711" x2="120.707" y2="-20.7107" gradientUnits="userSpaceOnUse">
<stop stop-color="#C8511B"/>
<stop offset="1" stop-color="#FF9900"/>
</linearGradient>
<clipPath id="clip0_2385_6729">
<rect width="100" height="100" fill="white"/>
</clipPath>
</defs>
</svg>
