<svg width="100" height="100" viewBox="0 0 100 100" fill="none" xmlns="http://www.w3.org/2000/svg">
<g clip-path="url(#clip0_2385_6727)">
<path d="M100 0H0V100H100V0Z" fill="url(#paint0_linear_2385_6727)"/>
<path d="M30.8267 31.8131L36 34.7998C36.2021 34.9165 36.4313 34.9781 36.6647 34.9785C36.898 34.9788 37.1274 34.9179 37.3299 34.8018C37.5323 34.6858 37.7008 34.5186 37.8184 34.317C37.936 34.1154 37.9986 33.8865 38 33.6531V27.6798L50 20.7465L62 27.6798V33.6665C62.0014 33.8992 62.0637 34.1274 62.1806 34.3286C62.2976 34.5298 62.4652 34.6968 62.6667 34.8131C62.8694 34.9302 63.0993 34.9918 63.3333 34.9918C63.5674 34.9918 63.7973 34.9302 64 34.8131L69.1867 31.8265L76 35.7598L77.3333 33.4531L69.8533 29.1331C69.6507 29.0161 69.4207 28.9545 69.1867 28.9545C68.9526 28.9545 68.7227 29.0161 68.52 29.1331L64.6667 31.3598V26.9065C64.6676 26.6715 64.6064 26.4405 64.4894 26.2368C64.3723 26.0331 64.2035 25.864 64 25.7465L50.6667 18.0531C50.464 17.9361 50.2341 17.8745 50 17.8745C49.766 17.8745 49.536 17.9361 49.3333 18.0531L36 25.7465C35.7965 25.864 35.6277 26.0331 35.5106 26.2368C35.3936 26.4405 35.3324 26.6715 35.3333 26.9065V31.3465L31.4933 29.1198C31.2907 29.0028 31.0607 28.9412 30.8267 28.9412C30.5926 28.9412 30.3627 29.0028 30.16 29.1198L22.6667 33.4531L24 35.7598L30.8267 31.8131ZM45.1067 67.8131L43.7733 70.1331L49.3333 73.3331C49.5353 73.453 49.7652 73.5174 50 73.5198C50.2348 73.5174 50.4648 73.453 50.6667 73.3331L56.2267 70.1331L54.8933 67.8131L51.3333 69.8398V52.3065L54.8933 54.3598L56.2267 52.0531L50.6667 48.8398C50.464 48.7228 50.2341 48.6612 50 48.6612C49.766 48.6612 49.536 48.7228 49.3333 48.8398L43.7733 51.9998L45.1067 54.3065L48.6667 52.2531V69.8265L45.1067 67.8131ZM22.6667 51.1598L30.16 55.4798C30.3627 55.5968 30.5926 55.6584 30.8267 55.6584C31.0607 55.6584 31.2907 55.5968 31.4933 55.4798L38.9733 51.1598C39.1768 51.0423 39.3456 50.8732 39.4627 50.6695C39.5798 50.4658 39.6409 50.2348 39.64 49.9998V42.1198L42.5067 40.4665L49.3333 44.3998C49.536 44.5168 49.766 44.5784 50 44.5784C50.2341 44.5784 50.464 44.5168 50.6667 44.3998L57.48 40.4665L60.36 42.1198V49.9998C60.3591 50.2348 60.4202 50.4658 60.5373 50.6695C60.6544 50.8732 60.8232 51.0423 61.0267 51.1598L68.5067 55.4798C68.7099 55.595 68.9398 55.6548 69.1733 55.6531C69.4069 55.6548 69.6368 55.595 69.84 55.4798L77.3333 51.1598C77.5368 51.0423 77.7056 50.8732 77.8227 50.6695C77.9398 50.4658 78.0009 50.2348 78 49.9998V41.3331C78.0009 41.0982 77.9398 40.8672 77.8227 40.6635C77.7056 40.4598 77.5368 40.2906 77.3333 40.1731L69.84 35.8531C69.6373 35.7361 69.4074 35.6745 69.1733 35.6745C68.9393 35.6745 68.7094 35.7361 68.5067 35.8531L61.6933 39.7865L58.8267 38.1331V30.2798C58.8276 30.0449 58.7664 29.8138 58.6494 29.6101C58.5323 29.4064 58.3635 29.2373 58.16 29.1198L50.6667 24.7998C50.464 24.6828 50.2341 24.6212 50 24.6212C49.766 24.6212 49.536 24.6828 49.3333 24.7998L41.8533 29.1198C41.6499 29.2373 41.4811 29.4064 41.364 29.6101C41.2469 29.8138 41.1857 30.0449 41.1867 30.2798V38.1465L38.3067 39.8131L31.4933 35.8798C31.2907 35.7628 31.0607 35.7012 30.8267 35.7012C30.5926 35.7012 30.3627 35.7628 30.16 35.8798L22.6667 40.1998C22.4632 40.3173 22.2944 40.4864 22.1773 40.6901C22.0602 40.8938 21.9991 41.1249 22 41.3598V49.9998C21.9991 50.2348 22.0602 50.4658 22.1773 50.6695C22.2944 50.8732 22.4632 51.0423 22.6667 51.1598ZM63.0267 42.1198L69.1733 38.5731L75.3333 42.1198V49.2265L69.1733 52.7865L63.0267 49.2265V42.1198ZM43.8533 31.0531L50 27.4931L56.16 31.0531V38.1598L50 41.7065L43.8533 38.1598V31.0531ZM24.6667 42.1198L30.8267 38.5731L36.9733 42.1198V49.2265L30.8267 52.7865L24.6667 49.2265V42.1198ZM77.3333 64.2398L62.36 55.5998L61.0267 57.9065L74 65.3998L50 79.2531L26 65.3998L38.9733 57.9065L37.64 55.5865L22.6667 64.2398C22.4646 64.357 22.2969 64.5253 22.1803 64.7277C22.0637 64.9301 22.0024 65.1596 22.0024 65.3931C22.0024 65.6267 22.0637 65.8562 22.1803 66.0586C22.2969 66.261 22.4646 66.4293 22.6667 66.5465L49.3333 81.9465C49.5365 82.0617 49.7664 82.1214 50 82.1198C50.2336 82.1214 50.4635 82.0617 50.6667 81.9465L77.3333 66.5465C77.5354 66.4293 77.7031 66.261 77.8197 66.0586C77.9363 65.8562 77.9977 65.6267 77.9977 65.3931C77.9977 65.1596 77.9363 64.9301 77.8197 64.7277C77.7031 64.5253 77.5354 64.357 77.3333 64.2398Z" fill="white"/>
</g>
<defs>
<linearGradient id="paint0_linear_2385_6727" x1="0.00283369" y1="100.001" x2="99.9972" y2="0.00685081" gradientUnits="userSpaceOnUse">
<stop stop-color="#C8511B"/>
<stop offset="1" stop-color="#FF9900"/>
</linearGradient>
<clipPath id="clip0_2385_6727">
<rect width="100" height="100" fill="white"/>
</clipPath>
</defs>
</svg>
