<svg width="100" height="100" viewBox="0 0 100 100" fill="none" xmlns="http://www.w3.org/2000/svg">
<g clip-path="url(#clip0_2385_6723)">
<path d="M100 0H0V100H100V0Z" fill="url(#paint0_linear_2385_6723)"/>
<path d="M51.3333 81.4H48.6667V69.4L29.4 58.3067C29.1965 58.1892 29.0277 58.0201 28.9106 57.8164C28.7936 57.6127 28.7324 57.3816 28.7333 57.1467C28.7347 56.914 28.797 56.6857 28.914 56.4846C29.0309 56.2834 29.1985 56.1164 29.4 56L38.5333 50.6667L29.4 45.4C29.1948 45.2837 29.0241 45.1151 28.9054 44.9113C28.7866 44.7075 28.7241 44.4759 28.7241 44.24C28.7241 44.0042 28.7866 43.7725 28.9054 43.5687C29.0241 43.365 29.1948 43.1963 29.4 43.08L43.8 34.7734L42 33.7334C41.7985 33.617 41.6309 33.45 41.514 33.2488C41.397 33.0476 41.3347 32.8194 41.3333 32.5867V24.1734C41.3324 23.9384 41.3936 23.7074 41.5106 23.5037C41.6277 23.3 41.7965 23.1308 42 23.0134L49.3333 18.7734C49.536 18.6563 49.766 18.5947 50 18.5947C50.2341 18.5947 50.464 18.6563 50.6667 18.7734L58 23.0134C58.2035 23.1308 58.3723 23.3 58.4894 23.5037C58.6064 23.7074 58.6676 23.9384 58.6667 24.1734V32.64C58.6653 32.8727 58.603 33.101 58.486 33.3021C58.3691 33.5033 58.2015 33.6704 58 33.7867L56.2 34.8267L70.6667 43.1334C70.8719 43.2496 71.0426 43.4183 71.1613 43.6221C71.28 43.8259 71.3426 44.0575 71.3426 44.2934C71.3426 44.5292 71.28 44.7609 71.1613 44.9646C71.0426 45.1684 70.8719 45.3371 70.6667 45.4534L61.4667 50.6667L70.6667 56C70.8682 56.1164 71.0358 56.2834 71.1527 56.4846C71.2697 56.6857 71.3319 56.914 71.3333 57.1467C71.3343 57.3816 71.2731 57.6127 71.156 57.8164C71.039 58.0201 70.8702 58.1892 70.6667 58.3067L51.3333 69.4267V81.4ZM32.7333 57.1467L50.0667 67.12L67.4 57.1467L58.8 52.2667L51.3333 56.5734V57.1467H48.6667V56.5734L41.2 52.2667L32.7333 57.1467ZM32.7333 44.2934L50.0667 54.2667L67.4 44.2934L53.6667 36.3734L51.4667 37.64V44.0667H48.8V37.64L46.6 36.3067L32.7333 44.2934ZM44 31.8667L50 35.3334L56 31.8667V24.9334L50 21.4667L44 24.9334V31.8667ZM58.32 78.2534L56.9867 75.9467L75.3333 65.3334V54.8534H78V66.12C78.0009 66.355 77.9398 66.586 77.8227 66.7897C77.7056 66.9934 77.5368 67.1626 77.3333 67.28L58.32 78.2534ZM41.68 78.2534L22.6667 67.28C22.4632 67.1626 22.2944 66.9934 22.1773 66.7897C22.0602 66.586 21.9991 66.355 22 66.12V54.8534H24.6667V65.3334L43.0133 76L41.68 78.2534ZM78 46.5867H75.3333V36.0934L63.6533 29.3334L64.9867 27.0267L77.3333 34.1734C77.5368 34.2908 77.7056 34.46 77.8227 34.6637C77.9398 34.8674 78.0009 35.0984 78 35.3334V46.5867ZM24.6667 46.5867H22V35.3334C21.9991 35.0984 22.0602 34.8674 22.1773 34.6637C22.2944 34.46 22.4632 34.2908 22.6667 34.1734L35.0133 27.04L36.3467 29.36L24.6667 36.0934V46.5867Z" fill="white"/>
</g>
<defs>
<linearGradient id="paint0_linear_2385_6723" x1="-20.7107" y1="120.715" x2="120.711" y2="-20.7067" gradientUnits="userSpaceOnUse">
<stop stop-color="#C8511B"/>
<stop offset="1" stop-color="#FF9900"/>
</linearGradient>
<clipPath id="clip0_2385_6723">
<rect width="100" height="100" fill="white"/>
</clipPath>
</defs>
</svg>
