<svg width="100" height="100" viewBox="0 0 100 100" fill="none" xmlns="http://www.w3.org/2000/svg">
<g clip-path="url(#clip0_2385_6721)">
<path d="M100 0H0V100H100V0Z" fill="url(#paint0_linear_2385_6721)"/>
<path d="M50 82.1198C49.7664 82.1214 49.5365 82.0617 49.3333 81.9465L38.6667 75.8131L40 73.5065L48.6133 78.4798V68.6798H51.28V78.4931L60 73.5065L61.3333 75.8131L50.6667 81.9465C50.4635 82.0617 50.2336 82.1214 50 82.1198ZM69.3333 70.9598C69.0998 70.9614 68.8699 70.9017 68.6667 70.7865L61.3333 66.5465C61.1318 66.4301 60.9643 66.2631 60.8473 66.0619C60.7304 65.8608 60.6681 65.6325 60.6667 65.3998V56.9331C60.6657 56.6982 60.7269 56.4672 60.844 56.2635C60.9611 56.0598 61.1299 55.8906 61.3333 55.7731L68.6667 51.5465C68.8694 51.4295 69.0993 51.3678 69.3333 51.3678C69.5674 51.3678 69.7973 51.4295 70 51.5465L77.3333 55.7731C77.5368 55.8906 77.7056 56.0598 77.8227 56.2635C77.9398 56.4672 78.0009 56.6982 78 56.9331V65.3998C77.9986 65.6325 77.9363 65.8608 77.8194 66.0619C77.7024 66.2631 77.5349 66.4301 77.3333 66.5465L70 70.7865C69.7968 70.9017 69.5669 70.9614 69.3333 70.9598ZM63.3333 64.6265L69.3333 68.0931L75.3333 64.6265V57.6931L69.3333 54.2398L63.3333 57.6931V64.6265ZM30.6667 70.9598C30.4331 70.9614 30.2032 70.9017 30 70.7865L22.6667 66.5465C22.4652 66.4301 22.2976 66.2631 22.1806 66.0619C22.0637 65.8608 22.0014 65.6325 22 65.3998V56.9331C21.9991 56.6982 22.0602 56.4672 22.1773 56.2635C22.2944 56.0598 22.4632 55.8906 22.6667 55.7731L29.9867 51.5465C30.1894 51.4295 30.4193 51.3678 30.6533 51.3678C30.8874 51.3678 31.1173 51.4295 31.32 51.5465L38.6667 55.7731C38.8701 55.8906 39.039 56.0598 39.156 56.2635C39.2731 56.4672 39.3343 56.6982 39.3333 56.9331V65.3998C39.3319 65.6325 39.2697 65.8608 39.1527 66.0619C39.0358 66.2631 38.8682 66.4301 38.6667 66.5465L31.3333 70.7865C31.1301 70.9017 30.9002 70.9614 30.6667 70.9598ZM24.68 64.6265L30.6667 68.0931L36.6667 64.6265V57.6931L30.6667 54.2398L24.68 57.6931V64.6265ZM43.3467 62.2798C43.1131 62.2814 42.8832 62.2217 42.68 62.1065C42.4765 61.989 42.3077 61.8199 42.1906 61.6161C42.0736 61.4124 42.0124 61.1814 42.0133 60.9465V38.9598C42.0147 38.7271 42.077 38.4989 42.194 38.2977C42.3109 38.0965 42.4785 37.9295 42.68 37.8131C42.8827 37.6961 43.1126 37.6345 43.3467 37.6345C43.5807 37.6345 43.8106 37.6961 44.0133 37.8131L63.04 48.7998C63.2435 48.9173 63.4123 49.0864 63.5294 49.2901C63.6464 49.4938 63.7076 49.7249 63.7067 49.9598C63.7053 50.1925 63.643 50.4208 63.526 50.6219C63.4091 50.8231 63.2415 50.9901 63.04 51.1065L44 62.1065C43.7968 62.2217 43.5669 62.2814 43.3333 62.2798H43.3467ZM44.6667 41.3331V58.6665L59.7067 49.9865L44.6667 41.3331ZM78 47.3998H75.3333V36.9198L66.8267 41.8131L65.4933 39.5065L74 34.6665L65.3333 29.6265L66.6667 27.3198L77.3333 33.4531C77.5349 33.5695 77.7024 33.7365 77.8194 33.9377C77.9363 34.1389 77.9986 34.3671 78 34.5998V47.3998ZM24.6667 47.3998H22V34.6665C22.0014 34.4338 22.0637 34.2055 22.1806 34.0044C22.2976 33.8032 22.4652 33.6362 22.6667 33.5198L33.3333 27.3865L34.6667 29.6931L26.0133 34.6665L34.5067 39.5731L33.1733 41.8798L24.6667 36.9065V47.3998ZM50 37.5331C49.764 37.5267 49.5339 37.4577 49.3333 37.3331L42 33.0665C41.7965 32.949 41.6277 32.7799 41.5106 32.5762C41.3936 32.3724 41.3324 32.1414 41.3333 31.9065V23.4398C41.3347 23.2071 41.397 22.9789 41.514 22.7777C41.6309 22.5765 41.7985 22.4095 42 22.2931L49.3333 18.0531C49.536 17.9361 49.766 17.8745 50 17.8745C50.2341 17.8745 50.464 17.9361 50.6667 18.0531L58 22.2931C58.2015 22.4095 58.3691 22.5765 58.486 22.7777C58.603 22.9789 58.6653 23.2071 58.6667 23.4398V31.9065C58.6676 32.1414 58.6064 32.3724 58.4894 32.5762C58.3723 32.7799 58.2035 32.949 58 33.0665L50.6667 37.3331C50.4609 37.4391 50.2312 37.4896 50 37.4798V37.5331ZM44 31.1465L50 34.6665L56 31.1465V24.2131L50 20.7465L44 24.2131V31.1465Z" fill="white"/>
</g>
<defs>
<linearGradient id="paint0_linear_2385_6721" x1="-20.7067" y1="120.707" x2="120.72" y2="-20.72" gradientUnits="userSpaceOnUse">
<stop stop-color="#C8511B"/>
<stop offset="1" stop-color="#FF9900"/>
</linearGradient>
<clipPath id="clip0_2385_6721">
<rect width="100" height="100" fill="white"/>
</clipPath>
</defs>
</svg>
