<svg width="100" height="100" viewBox="0 0 100 100" fill="none" xmlns="http://www.w3.org/2000/svg">
<g clip-path="url(#clip0_2385_6724)">
<path d="M100 0H0V100H100V0Z" fill="url(#paint0_linear_2385_6724)"/>
<path d="M50 82.1333C49.7652 82.1308 49.5353 82.0664 49.3333 81.9466L37.12 74.8933L38.4533 72.5866L48.6667 78.4799V50.7733L36 43.4533L24.7067 36.9199V48.5999H22.04V34.6666C22.0391 34.4317 22.1002 34.2006 22.2173 33.9969C22.3344 33.7932 22.5032 33.6241 22.7067 33.5066L36.04 25.8399L49.3733 18.1733C49.576 18.0562 49.806 17.9946 50.04 17.9946C50.2741 17.9946 50.504 18.0562 50.7067 18.1733L77.3333 33.4399C77.5368 33.5574 77.7056 33.7266 77.8227 33.9303C77.9398 34.134 78.0009 34.365 78 34.5999V65.3999C77.9986 65.6326 77.9363 65.8609 77.8194 66.062C77.7024 66.2632 77.5349 66.4303 77.3333 66.5466L50.6667 81.9466C50.4648 82.0664 50.2348 82.1308 50 82.1333ZM51.3333 67.7066V78.4799L60.6667 73.1466L51.3333 67.7066ZM64.6667 58.4666V70.7866L75.3333 64.6266V52.3066L64.6667 58.4666ZM51.3333 64.6266L62 70.7866V58.4666L56.8267 55.4799L58.16 53.1733L62 55.3866V43.0666L51.3333 36.9066V41.9199H48.6667V35.3733L38 29.2133V41.5333L50.6667 48.8399C50.8701 48.9574 51.039 49.1266 51.156 49.3303C51.2731 49.534 51.3343 49.765 51.3333 49.9999V64.6266ZM64.6667 43.0666V55.3866L75.3333 49.2266V36.9066L64.6667 43.0666ZM52.6667 34.6666L63.3333 40.8266L74 34.6666L63.3333 28.5066L52.6667 34.6666ZM26 34.6666L35.3333 39.9999V29.2133L26 34.6666ZM39.3333 26.9733L50 33.1333L60.6667 26.9733L50 20.8133L39.3333 26.9733ZM30.6667 70.9733C30.4338 70.9697 30.2051 70.9103 30 70.7999L22.6667 66.5466C22.4632 66.4291 22.2944 66.26 22.1773 66.0563C22.0602 65.8526 21.9991 65.6215 22 65.3866V56.9199C22.0014 56.6872 22.0637 56.459 22.1806 56.2578C22.2976 56.0567 22.4652 55.8896 22.6667 55.7733L30 51.5333C30.2027 51.4162 30.4326 51.3546 30.6667 51.3546C30.9007 51.3546 31.1307 51.4162 31.3333 51.5333L38.6667 55.7733C38.8682 55.8896 39.0358 56.0567 39.1527 56.2578C39.2697 56.459 39.3319 56.6872 39.3333 56.9199V65.3333C39.3343 65.5682 39.2731 65.7992 39.156 66.0029C39.039 66.2066 38.8701 66.3758 38.6667 66.4933L31.3333 70.7333C31.1321 70.8604 30.9037 70.9381 30.6667 70.9599V70.9733ZM24.6667 64.6399L30.6667 68.1066L36.6667 64.6399V57.7066L30.6667 54.2266L24.6667 57.6933V64.6399Z" fill="white"/>
</g>
<defs>
<linearGradient id="paint0_linear_2385_6724" x1="-20.7147" y1="120.711" x2="120.707" y2="-20.7107" gradientUnits="userSpaceOnUse">
<stop stop-color="#C8511B"/>
<stop offset="1" stop-color="#FF9900"/>
</linearGradient>
<clipPath id="clip0_2385_6724">
<rect width="100" height="100" fill="white"/>
</clipPath>
</defs>
</svg>
