<svg width="100" height="100" viewBox="0 0 100 100" fill="none" xmlns="http://www.w3.org/2000/svg">
<g clip-path="url(#clip0_2385_6726)">
<path d="M100 0H0V100H100V0Z" fill="url(#paint0_linear_2385_6726)"/>
<path d="M57.3333 24.9731L50 20.7465L42.6667 24.9731L41.3333 22.6665L49.3333 18.0531C49.536 17.9361 49.7659 17.8745 50 17.8745C50.234 17.8745 50.464 17.9361 50.6667 18.0531L58.6667 22.6665L57.3333 24.9731ZM32 68.8531L24.6667 64.6265V56.6265H22V65.3598C22.0014 65.5925 22.0637 65.8208 22.1806 66.0219C22.2976 66.2231 22.4651 66.3901 22.6667 66.5065L30.6667 71.1198L32 68.8531ZM77.3333 66.5465C77.5348 66.4301 77.7024 66.2631 77.8194 66.0619C77.9363 65.8608 77.9986 65.6325 78 65.3998V56.6665H75.3333V64.6665L68 68.8531L69.3333 71.1598L77.3333 66.5465ZM78 34.5465V43.3331H75.3333V36.9198L68.6667 40.7598V59.9998C68.6653 60.2325 68.603 60.4608 68.486 60.6619C68.3691 60.8631 68.2015 61.0301 68 61.1465L51.3333 70.7865V78.4798L57.3333 75.0265L58.6667 77.3331L50.6667 81.9465C50.464 82.0635 50.234 82.1251 50 82.1251C49.7659 82.1251 49.536 82.0635 49.3333 81.9465L41.3333 77.3331L42.6667 75.0265L48.6533 78.4798V70.7865L32 61.1598C31.7985 61.0435 31.6309 60.8764 31.514 60.6753C31.397 60.4741 31.3347 60.2458 31.3333 60.0131V40.7731L24.6667 36.9198V43.3331H22V34.6665C22.0014 34.4338 22.0637 34.2055 22.1806 34.0044C22.2976 33.8032 22.4651 33.6362 22.6667 33.5198L30.6667 28.9065L32 31.2131L26 34.6665L32.6667 38.5198L49.3333 28.8265C49.536 28.7095 49.7659 28.6478 50 28.6478C50.234 28.6478 50.464 28.7095 50.6667 28.8265L67.3333 38.4531L74 34.5998L68 31.1465L69.3333 28.8398L77.3333 33.4531C77.5449 33.575 77.7189 33.7526 77.8365 33.9665C77.954 34.1805 78.0106 34.4226 78 34.6665V34.5465ZM66 40.7065L50 31.4665L34 40.7065V59.2398L50 68.4798L66 59.2398V40.7065ZM61.6267 44.7065L58 46.9198V53.8531C57.9986 54.0858 57.9363 54.3141 57.8194 54.5153C57.7024 54.7164 57.5348 54.8835 57.3333 54.9998L51.3333 58.4665V63.3331H48.6667V58.4665L42.6667 54.9998C42.4651 54.8835 42.2976 54.7164 42.1806 54.5153C42.0637 54.3141 42.0014 54.0858 42 53.8531V46.9198L38.4 44.8398L39.7333 42.5331L43.3333 44.6131L49.3333 41.1465C49.536 41.0295 49.7659 40.9678 50 40.9678C50.234 40.9678 50.464 41.0295 50.6667 41.1465L56.6667 44.6131L60.2933 42.5198L61.6267 44.7065ZM55.3333 46.9198L50 43.8398L44.6667 46.9198V53.0798L50 56.1598L55.3333 53.0798V46.9198Z" fill="white"/>
</g>
<defs>
<linearGradient id="paint0_linear_2385_6726" x1="-20.7067" y1="120.707" x2="120.707" y2="-20.7067" gradientUnits="userSpaceOnUse">
<stop stop-color="#C8511B"/>
<stop offset="1" stop-color="#FF9900"/>
</linearGradient>
<clipPath id="clip0_2385_6726">
<rect width="100" height="100" fill="white"/>
</clipPath>
</defs>
</svg>
