<svg width="100" height="100" viewBox="0 0 100 100" fill="none" xmlns="http://www.w3.org/2000/svg">
<g clip-path="url(#clip0_2385_6725)">
<path d="M100 0H0V100H100V0Z" fill="url(#paint0_linear_2385_6725)"/>
<path d="M50.0001 83.6666C49.7653 83.6642 49.5353 83.5998 49.3334 83.4799L21.3334 67.3199C21.13 67.2025 20.9611 67.0333 20.8441 66.8296C20.727 66.6259 20.6658 66.3949 20.6668 66.1599V33.8399C20.6658 33.605 20.727 33.374 20.8441 33.1703C20.9611 32.9666 21.13 32.7974 21.3334 32.6799L49.3334 16.5199C49.5361 16.4029 49.766 16.3413 50.0001 16.3413C50.2341 16.3413 50.4641 16.4029 50.6668 16.5199L78.6668 32.6799C78.8702 32.7974 79.0391 32.9666 79.1561 33.1703C79.2732 33.374 79.3344 33.605 79.3334 33.8399V66.1599C79.3344 66.3949 79.2732 66.6259 79.1561 66.8296C79.0391 67.0333 78.8702 67.2025 78.6668 67.3199L50.6668 83.4799C50.4648 83.5998 50.2349 83.6642 50.0001 83.6666ZM48.6668 67.6666H51.3334V79.9999L75.3334 66.1333L69.7734 62.9333L62.6534 66.9333C62.4507 67.0503 62.2208 67.1119 61.9868 67.1119C61.7527 67.1119 61.5228 67.0503 61.3201 66.9333L53.3201 62.4933C53.1191 62.3741 52.9529 62.2042 52.8383 62.0006C52.7236 61.7971 52.6645 61.5669 52.6668 61.3333V52.4266C52.6648 52.1881 52.7268 51.9534 52.8464 51.747C52.966 51.5407 53.1388 51.3701 53.3468 51.2533L61.3468 46.8133C61.5494 46.6962 61.7794 46.6346 62.0134 46.6346C62.2475 46.6346 62.4774 46.6962 62.6801 46.8133L70.6801 51.2533C70.888 51.3701 71.0608 51.5407 71.1804 51.747C71.3 51.9534 71.3621 52.1881 71.3601 52.4266V60.7866L76.6934 63.8533V36.1466L65.8801 42.3866L64.5468 40.0799L75.3601 33.8399L51.3334 19.9999V26.2666L58.6668 30.3333C58.8747 30.4501 59.0475 30.6207 59.1671 30.827C59.2867 31.0334 59.3487 31.2681 59.3468 31.5066V40.3866C59.3487 40.6251 59.2867 40.8598 59.1671 41.0662C59.0475 41.2726 58.8747 41.4431 58.6668 41.5599L50.6668 45.9999C50.4641 46.117 50.2341 46.1786 50.0001 46.1786C49.766 46.1786 49.5361 46.117 49.3334 45.9999L41.3334 41.5599C41.1255 41.4431 40.9527 41.2726 40.8331 41.0662C40.7135 40.8598 40.6515 40.6251 40.6534 40.3866V31.5066C40.6515 31.2681 40.7135 31.0334 40.8331 30.827C40.9527 30.6207 41.1255 30.4501 41.3334 30.3333L48.6668 26.2666V19.9999L24.6668 33.8666L35.4801 40.1066L34.1468 42.4133L23.3334 36.1466V63.8533L28.6668 60.7733V52.5999C28.6658 52.365 28.727 52.134 28.8441 51.9303C28.9611 51.7266 29.13 51.5574 29.3334 51.4399L37.3334 46.8266C37.5361 46.7096 37.766 46.648 38.0001 46.648C38.2341 46.648 38.4641 46.7096 38.6668 46.8266L46.6668 51.4399C46.8702 51.5574 47.0391 51.7266 47.1561 51.9303C47.2732 52.134 47.3344 52.365 47.3334 52.5999V61.8399C47.332 62.0726 47.2697 62.3009 47.1528 62.5021C47.0358 62.7032 46.8683 62.8703 46.6668 62.9866L38.6668 67.6133C38.4641 67.7303 38.2341 67.7919 38.0001 67.7919C37.766 67.7919 37.5361 67.7303 37.3334 67.6133L29.7468 63.2266L24.6668 66.1599L48.6668 79.9999V67.6666ZM31.3334 60.9999L38.0001 64.8533L44.6668 60.9999V53.3333L38.0001 49.4933L31.3334 53.3333V60.9999ZM55.3334 60.4666L62.0001 64.1733L68.6668 60.4666V53.2133L62.0001 49.5066L55.3334 53.2133V60.4666ZM43.3334 39.5466L50.0001 43.2399L56.6668 39.5466V32.2133L50.0001 28.5066L43.3334 32.2133V39.5466Z" fill="white"/>
</g>
<defs>
<linearGradient id="paint0_linear_2385_6725" x1="-20.7067" y1="120.707" x2="120.707" y2="-20.7067" gradientUnits="userSpaceOnUse">
<stop stop-color="#C8511B"/>
<stop offset="1" stop-color="#FF9900"/>
</linearGradient>
<clipPath id="clip0_2385_6725">
<rect width="100" height="100" fill="white"/>
</clipPath>
</defs>
</svg>
