<svg width="100" height="100" viewBox="0 0 100 100" fill="none" xmlns="http://www.w3.org/2000/svg">
<g clip-path="url(#clip0_2385_6722)">
<path d="M100 0H0V100H100V0Z" fill="#D86613"/>
<path d="M77.0976 35.561H70.439L64.5244 42.878H62.4634V30.6829C62.2104 29.6132 61.5947 28.6641 60.7209 27.9971C59.8471 27.3301 58.7693 26.9864 57.6707 27.0244H25.3171C24.8075 26.9653 24.2912 27.014 23.8017 27.1673C23.3122 27.3207 22.8604 27.5753 22.4756 27.9146C22.0287 28.3007 21.6669 28.7754 21.4129 29.3086C21.1589 29.8418 21.0183 30.4219 21 31.0122V69.4268C21.0342 70.1498 21.2527 70.852 21.6347 71.4668C22.0168 72.0815 22.5498 72.5883 23.1829 72.939C23.7708 73.2152 24.4115 73.3608 25.061 73.3658H57.6707C58.7683 73.3992 59.8438 73.0537 60.7166 72.3874C61.5894 71.7212 62.2062 70.7748 62.4634 69.7073V57.5122H64.5244L70.439 64.8293H77.0976C77.7829 64.7502 78.4137 64.4169 78.8653 63.8953C79.3169 63.3738 79.5564 62.7018 79.5366 62.0122V38.5244C79.5858 37.8123 79.3604 37.1084 78.9068 36.5573C78.4532 36.0062 77.8058 35.6497 77.0976 35.561ZM60.0244 55.0732V69.1463C59.6341 70.1341 58.8049 71.0244 57.8781 70.9268H25.1098C24.9197 70.9509 24.7266 70.934 24.5436 70.8772C24.3606 70.8204 24.1919 70.725 24.0488 70.5975C23.8683 70.4476 23.7208 70.2617 23.6159 70.0518C23.5109 69.8419 23.4507 69.6124 23.439 69.378V31.0732C23.4507 30.8387 23.5109 30.6093 23.6159 30.3994C23.7208 30.1895 23.8683 30.0036 24.0488 29.8536C24.2883 29.6197 24.6047 29.481 24.939 29.4634H57.8659C58.8293 29.3414 59.622 30.2317 60.0122 31.2195V45.3171H65.6707L69.7805 40.2439V60.1463L65.6951 55.0732H60.0244ZM77.0976 62.1097C77.0976 62.2195 76.9756 62.3293 76.8049 62.3902H72.2195V38H76.8049C76.8929 38.0225 76.9703 38.075 77.0237 38.1485C77.0771 38.222 77.1032 38.3118 77.0976 38.4024V62.1097Z" fill="white"/>
<path d="M35.8412 61.7683C35.4161 61.7557 34.9992 61.6473 34.6217 61.4513C34.1796 61.2188 33.8116 60.867 33.5593 60.4359C33.3071 60.0048 33.1809 59.5115 33.1949 59.0122V40.9756C33.1936 40.4869 33.3258 40.0071 33.5772 39.588C33.8287 39.1689 34.1899 38.8264 34.6217 38.5976C35.0472 38.3708 35.5265 38.2646 36.008 38.2904C36.4894 38.3162 36.9546 38.473 37.3534 38.7439L52.1095 47.7561C52.4829 48.0056 52.7893 48.3428 53.0019 48.7383C53.2146 49.1338 53.3269 49.5754 53.329 50.0244C53.3252 50.4681 53.2118 50.9039 52.9991 51.2932C52.7863 51.6825 52.4808 52.0133 52.1095 52.2561L37.2681 61.3293C36.85 61.6212 36.351 61.7747 35.8412 61.7683ZM35.8412 40.4391H35.7437C35.7021 40.4615 35.6676 40.4951 35.6439 40.536C35.6202 40.5769 35.6083 40.6235 35.6095 40.6708V58.7317C35.6052 58.7795 35.6157 58.8274 35.6398 58.8689C35.6638 58.9104 35.7001 58.9435 35.7437 58.9634C35.7753 58.9872 35.8139 59 35.8534 59C35.893 59 35.9315 58.9872 35.9632 58.9634L50.8169 49.8903C50.8683 49.8359 50.897 49.7639 50.897 49.6891C50.897 49.6142 50.8683 49.5422 50.8169 49.4878L36.0608 40.4756C36.0298 40.4466 35.9934 40.4241 35.9536 40.4095C35.9138 40.3948 35.8714 40.3883 35.8291 40.3903L35.8412 40.4391Z" fill="white"/>
</g>
<defs>
<clipPath id="clip0_2385_6722">
<rect width="100" height="100" fill="white"/>
</clipPath>
</defs>
</svg>
