<svg width="100" height="100" viewBox="0 0 100 100" fill="none" xmlns="http://www.w3.org/2000/svg">
<g clip-path="url(#clip0_2385_3560)">
<path d="M100 0H0V100H100V0Z" fill="url(#paint0_linear_2385_3560)"/>
<path d="M76.3866 19.1333V16.84H73.7199V19.2C72.4251 19.5264 71.2762 20.2753 70.4551 21.3283C69.634 22.3813 69.1876 23.678 69.1866 25.0133C69.1737 25.1196 69.1737 25.227 69.1866 25.3333L62.7466 28.72C61.8937 27.5164 60.6256 26.671 59.1866 26.3466V16.84H56.5199V26.3466C55.1937 26.6439 54.0085 27.3846 53.1601 28.4464C52.3116 29.5082 51.8506 30.8275 51.8532 32.1866C51.8448 33.7232 52.4383 35.2021 53.5066 36.3066L42.8399 50.6666C42.5147 50.5359 42.1805 50.429 41.8399 50.3466V16.84H39.1732V50.36C38.1673 50.6116 37.2467 51.1271 36.5066 51.8533L28.7866 46.52C29.0867 45.7874 29.2393 45.0027 29.2355 44.211C29.2316 43.4193 29.0715 42.6362 28.7643 41.9065C28.4571 41.1769 28.0088 40.5151 27.4452 39.9591C26.8815 39.4031 26.2137 38.9639 25.4799 38.6666C25.1657 38.5506 24.8452 38.4527 24.5199 38.3733V16.84H21.8532V38.4133C20.5276 38.7122 19.3432 39.4533 18.4945 40.5146C17.6459 41.5759 17.1836 42.8944 17.1836 44.2533C17.1836 45.6122 17.6459 46.9307 18.4945 47.992C19.3432 49.0533 20.5276 49.7943 21.8532 50.0933V80.84H70.4266L67.7599 78.1733H59.1866V77.5333C58.2826 77.4276 57.39 77.2402 56.5199 76.9733V78.1733H41.8532V62.0533C43.3385 61.721 44.6461 60.8461 45.5199 59.6C46.2038 58.5978 46.5708 57.4132 46.5732 56.2V55.8533C46.4967 54.4916 45.9555 53.1974 45.0399 52.1866L55.7066 37.8C55.9641 37.9077 56.2323 37.9881 56.5066 38.04V46.8666C57.3767 46.5997 58.2692 46.4123 59.1732 46.3066V38.04C60.6618 37.6974 61.9642 36.8012 62.8161 35.5334C63.668 34.2655 64.0054 32.7209 63.7599 31.2133L69.9466 28C70.3587 28.7263 70.9199 29.3572 71.5932 29.8513C72.2665 30.3454 73.0367 30.6914 73.8532 30.8666V52.7066C75.1607 54.5128 76.0696 56.5761 76.5199 58.76V30.8533C77.8524 30.5448 79.0395 29.7903 79.8845 28.7148C80.7295 27.6393 81.1816 26.3073 81.1661 24.9397C81.1505 23.572 80.6682 22.2507 79.7989 21.1947C78.9297 20.1387 77.7257 19.4114 76.3866 19.1333ZM19.8532 44.2533C19.8532 43.594 20.0487 42.9496 20.415 42.4014C20.7813 41.8532 21.3019 41.426 21.9109 41.1737C22.52 40.9214 23.1903 40.8554 23.8369 40.984C24.4835 41.1126 25.0774 41.4301 25.5436 41.8963C26.0098 42.3625 26.3272 42.9564 26.4558 43.603C26.5845 44.2496 26.5185 44.9198 26.2662 45.5289C26.0139 46.138 25.5866 46.6586 25.0385 47.0249C24.4903 47.3911 23.8458 47.5866 23.1866 47.5866C22.3025 47.5866 21.4547 47.2354 20.8295 46.6103C20.2044 45.9852 19.8532 45.1374 19.8532 44.2533ZM39.1866 78.1733H24.5199V50.0933C25.5116 49.8942 26.4323 49.4339 27.1866 48.76L34.9866 54.0933C34.7427 54.7677 34.634 55.4836 34.6666 56.2C34.6682 57.543 35.1214 58.8465 35.9533 59.9008C36.7852 60.9552 37.9474 61.6992 39.2532 62.0133L39.1866 78.1733ZM40.5866 59.5066C39.9273 59.5066 39.2828 59.3111 38.7347 58.9449C38.1865 58.5786 37.7593 58.058 37.507 57.4489C37.2547 56.8398 37.1887 56.1696 37.3173 55.523C37.4459 54.8764 37.7634 54.2825 38.2295 53.8163C38.6957 53.3501 39.2897 53.0326 39.9363 52.904C40.5829 52.7754 41.2531 52.8414 41.8622 53.0937C42.4713 53.346 42.9919 53.7732 43.3581 54.3214C43.7244 54.8696 43.9199 55.514 43.9199 56.1733C43.9199 57.0574 43.5687 57.9052 42.9436 58.5303C42.3185 59.1554 41.4706 59.5066 40.5866 59.5066ZM57.9199 35.5066C57.2606 35.5066 56.6162 35.3111 56.068 34.9449C55.5198 34.5786 55.0926 34.058 54.8403 33.4489C54.588 32.8398 54.522 32.1696 54.6506 31.523C54.7792 30.8764 55.0967 30.2825 55.5629 29.8163C56.029 29.3501 56.623 29.0326 57.2696 28.904C57.9162 28.7754 58.5864 28.8414 59.1955 29.0937C59.8046 29.346 60.3252 29.7732 60.6915 30.3214C61.0577 30.8696 61.2532 31.514 61.2532 32.1733C61.2533 32.6167 61.1649 33.0557 60.9933 33.4645C60.8216 33.8733 60.5701 34.2438 60.2535 34.5542C59.9368 34.8646 59.5615 35.1088 59.1493 35.2723C58.7372 35.4358 58.2965 35.5155 57.8532 35.5066H57.9199ZM75.2532 28.3466C74.594 28.3466 73.9495 28.1511 73.4013 27.7849C72.8532 27.4186 72.4259 26.898 72.1736 26.2889C71.9213 25.6798 71.8553 25.0096 71.9839 24.363C72.1126 23.7164 72.43 23.1225 72.8962 22.6563C73.3624 22.1901 73.9563 21.8726 74.6029 21.744C75.2495 21.6154 75.9198 21.6814 76.5288 21.9337C77.1379 22.186 77.6585 22.6132 78.0248 23.1614C78.3911 23.7096 78.5866 24.354 78.5866 25.0133C78.5866 25.4567 78.4983 25.8957 78.3266 26.3045C78.1549 26.7133 77.9034 27.0838 77.5868 27.3942C77.2702 27.7046 76.8948 27.9488 76.4827 28.1123C76.0705 28.2758 75.6299 28.3555 75.1866 28.3466H75.2532Z" fill="white"/>
<path d="M81.8533 75.9199L73.1333 67.1733C74.2671 64.5739 74.5318 61.6782 73.8881 58.9164C73.2443 56.1546 71.7266 53.6742 69.5604 51.844C67.3943 50.0138 64.6953 48.9315 61.8648 48.758C59.0343 48.5844 56.2234 49.3289 53.8498 50.8807C51.4763 52.4326 49.6669 54.7089 48.6906 57.3714C47.7143 60.0338 47.6232 62.9402 48.4309 65.6586C49.2386 68.377 50.9019 70.7621 53.1736 72.4595C55.4453 74.1569 58.2042 75.0759 61.04 75.0799C63.0995 75.0891 65.1307 74.5996 66.96 73.6533L75.5733 82.1733C76.4283 82.8599 77.5066 83.2069 78.6015 83.1479C79.6965 83.0889 80.7312 82.6279 81.5074 81.8533C82.2836 81.0788 82.7468 80.0451 82.8082 78.9502C82.8695 77.8554 82.5248 76.7764 81.84 75.9199H81.8533ZM61.0533 72.4133C58.9753 72.4133 56.9439 71.7971 55.2161 70.6426C53.4883 69.4881 52.1417 67.8472 51.3464 65.9273C50.5512 64.0075 50.3431 61.8949 50.7485 59.8569C51.1539 57.8188 52.1546 55.9467 53.624 54.4773C55.0934 53.0079 56.9655 52.0072 59.0036 51.6018C61.0417 51.1964 63.1542 51.4045 65.074 52.1997C66.9939 52.9949 68.6348 54.3416 69.7893 56.0694C70.9438 57.7972 71.56 59.8286 71.56 61.9066C71.553 64.6828 70.4488 67.3438 68.4882 69.3094C66.5276 71.275 63.8695 72.3859 61.0933 72.3999L61.0533 72.4133ZM80 80.3333C79.6629 80.6671 79.2077 80.8544 78.7333 80.8544C78.2589 80.8544 77.8037 80.6671 77.4667 80.3333L69.3333 72.1866C70.2802 71.4176 71.1149 70.52 71.8133 69.5199L80 77.7466C80.3347 78.0859 80.5223 78.5433 80.5223 79.0199C80.5223 79.4965 80.3347 79.954 80 80.2933V80.3333Z" fill="white"/>
<path d="M56.5199 66.9066C55.086 65.8457 54.1322 64.2587 53.8684 62.4946C53.7378 61.6211 53.7805 60.7304 53.9941 59.8734C54.2077 59.0165 54.588 58.2099 55.1132 57.4999C55.6385 56.7899 56.2985 56.1903 57.0555 55.7354C57.8125 55.2804 58.6518 54.979 59.5252 54.8484C61.2893 54.5846 63.086 55.0324 64.5199 56.0933L62.9199 58.2399C62.2727 57.7228 61.481 57.4194 60.654 57.3716C59.827 57.3238 59.0055 57.5339 58.303 57.9729C57.6006 58.412 57.0517 59.0583 56.7323 59.8226C56.4129 60.5869 56.3387 61.4316 56.5199 62.2399C56.5951 62.7687 56.7753 63.2771 57.0501 63.7351C57.3249 64.1931 57.6887 64.5914 58.1199 64.9066L56.5199 66.9066Z" fill="white"/>
</g>
<defs>
<linearGradient id="paint0_linear_2385_3560" x1="-20.7147" y1="120.711" x2="120.707" y2="-20.7107" gradientUnits="userSpaceOnUse">
<stop stop-color="#1B660F"/>
<stop offset="1" stop-color="#6CAE3E"/>
</linearGradient>
<clipPath id="clip0_2385_3560">
<rect width="100" height="100" fill="white"/>
</clipPath>
</defs>
</svg>
