<svg width="100" height="100" viewBox="0 0 100 100" fill="none" xmlns="http://www.w3.org/2000/svg">
<g clip-path="url(#clip0_2385_3562)">
<path d="M100 0H0V100H100V0Z" fill="url(#paint0_linear_2385_3562)"/>
<path d="M81.56 49L72.6667 41.08V44.6533L78.52 49.8666L50 69.7066L21.48 49.8666L27.3334 44.6533V41.08L18.44 49C18.3002 49.1261 18.1888 49.2805 18.1129 49.4528C18.0371 49.6252 17.9986 49.8117 18 50V81.8666C18.0036 82.2568 18.161 82.6299 18.4382 82.9045C18.7154 83.1792 19.0898 83.3333 19.48 83.3333H80.52C80.9103 83.3333 81.2847 83.1792 81.5619 82.9045C81.8391 82.6299 81.9965 82.2568 82 81.8666V50C82.0015 49.8117 81.963 49.6252 81.8872 49.4528C81.8113 49.2805 81.6998 49.1261 81.56 49ZM20.6667 52.5466L35.4267 62.8133L20.6667 78.6666V52.5466ZM22.4 80.6666L37.6267 64.3466L49.1467 72.3466C49.3976 72.5198 49.6952 72.6128 50 72.6133C50.3058 72.6191 50.6053 72.5255 50.8534 72.3466L62.3734 64.3466L77.6 80.6666H22.4ZM79.3334 78.6666L64.5734 62.8133L79.3334 52.5466V78.6666Z" fill="white"/>
<path d="M70 18V52.56L67.3333 54.4133V19.3333H32.6667V54.4133L30 52.56V18C30 17.6463 30.1405 17.3072 30.3905 17.0572C30.6406 16.8071 30.9797 16.6666 31.3333 16.6666H68.6667C69.0203 16.6666 69.3594 16.8071 69.6095 17.0572C69.8595 17.3072 70 17.6463 70 18Z" fill="white"/>
<path d="M62.3867 37.4933C62.1634 37.5015 61.9407 37.4644 61.7322 37.3842C61.5237 37.304 61.3335 37.1823 61.1733 37.0266C61.0188 36.8655 60.898 36.6752 60.8179 36.4669C60.7378 36.2586 60.6999 36.0364 60.7067 35.8133C60.6976 35.5899 60.7344 35.367 60.8146 35.1584C60.8949 34.9497 61.017 34.7597 61.1733 34.5999C61.5063 34.3001 61.9386 34.1342 62.3867 34.1342C62.8348 34.1342 63.267 34.3001 63.6 34.5999C63.7564 34.7597 63.8784 34.9497 63.9587 35.1584C64.0389 35.367 64.0757 35.5899 64.0667 35.8133C64.0734 36.0364 64.0356 36.2586 63.9554 36.4669C63.8753 36.6752 63.7545 36.8655 63.6 37.0266C63.4398 37.1823 63.2497 37.304 63.0411 37.3842C62.8326 37.4644 62.6099 37.5015 62.3867 37.4933ZM61.3333 32.9333L60.92 24.3466C61.3823 24.1102 61.8941 23.9869 62.4133 23.9869C62.9326 23.9869 63.4444 24.1102 63.9067 24.3466L63.4667 32.9333H61.3333Z" fill="white"/>
<path d="M59.3867 38V43.3333H56.72V41.7333L48.2267 52.2C48.0071 52.4708 47.69 52.6449 47.3436 52.6847C46.9971 52.7246 46.6488 52.6272 46.3734 52.4133L42.2267 49.2133L37.7067 54.8533L35.6267 53.2L40.96 46.5333C41.1778 46.2604 41.4939 46.0838 41.8404 46.0414C42.1869 45.999 42.5363 46.0942 42.8134 46.3066L46.9734 49.5066L55.2 39.3333H52.7467V36.6666H58.08C58.429 36.6736 58.7613 36.8172 59.0057 37.0665C59.25 37.3158 59.3868 37.6509 59.3867 38Z" fill="white"/>
</g>
<defs>
<linearGradient id="paint0_linear_2385_3562" x1="-20.7107" y1="120.715" x2="120.711" y2="-20.7067" gradientUnits="userSpaceOnUse">
<stop stop-color="#1B660F"/>
<stop offset="1" stop-color="#6CAE3E"/>
</linearGradient>
<clipPath id="clip0_2385_3562">
<rect width="100" height="100" fill="white"/>
</clipPath>
</defs>
</svg>
