<svg width="100" height="100" viewBox="0 0 100 100" fill="none" xmlns="http://www.w3.org/2000/svg">
<g clip-path="url(#clip0_2385_3561)">
<path d="M100 0H0V100H100V0Z" fill="url(#paint0_linear_2385_3561)"/>
<path d="M83.2934 35.68C83.2372 35.4434 83.1173 35.2267 82.9467 35.0534L72.2801 24.3867C72.1067 24.2162 71.89 24.0963 71.6534 24.04C71.5472 24.0262 71.4396 24.0262 71.3334 24.04H50.0001C49.6465 24.04 49.3073 24.1805 49.0573 24.4306C48.8072 24.6806 48.6667 25.0197 48.6667 25.3734V54.6667H51.3334V26.6667H70.0001V36C70.0001 36.3537 70.1406 36.6928 70.3906 36.9428C70.6407 37.1929 70.9798 37.3334 71.3334 37.3334H80.6667V73.3334H51.3334V62.6667H48.6667V74.6667C48.6667 75.0203 48.8072 75.3595 49.0573 75.6095C49.3073 75.8596 49.6465 76 50.0001 76H82.0001C82.3537 76 82.6928 75.8596 82.9429 75.6095C83.1929 75.3595 83.3334 75.0203 83.3334 74.6667V36C83.3341 35.8921 83.3206 35.7845 83.2934 35.68ZM72.6268 34.6667V28.5467L78.7867 34.6667H72.6268Z" fill="white"/>
<path d="M78 41.3334H74V44H78V41.3334Z" fill="white"/>
<path d="M78 57.3334H70V60H78V57.3334Z" fill="white"/>
<path d="M38 57.3333V24C38 23.6464 37.8596 23.3073 37.6095 23.0572C37.3595 22.8072 37.0203 22.6667 36.6667 22.6667H28.5067C28.1789 21.2284 27.3328 19.9613 26.1299 19.1074C24.927 18.2536 23.4517 17.8727 21.9859 18.0376C20.52 18.2026 19.1662 18.9017 18.1832 20.0016C17.2002 21.1014 16.6567 22.5249 16.6567 24C16.6567 25.4751 17.2002 26.8986 18.1832 27.9984C19.1662 29.0983 20.52 29.7975 21.9859 29.9624C23.4517 30.1273 24.927 29.7465 26.1299 28.8926C27.3328 28.0387 28.1789 26.7716 28.5067 25.3333H35.3334V40H28.5067C28.1789 38.5618 27.3328 37.2947 26.1299 36.4408C24.927 35.5869 23.4517 35.206 21.9859 35.371C20.52 35.5359 19.1662 36.2351 18.1832 37.3349C17.2002 38.4348 16.6567 39.8582 16.6567 41.3333C16.6567 42.8085 17.2002 44.2319 18.1832 45.3318C19.1662 46.4316 20.52 47.1308 21.9859 47.2957C23.4517 47.4607 24.927 47.0798 26.1299 46.2259C27.3328 45.372 28.1789 44.1049 28.5067 42.6667H35.3334V57.3333H28.5067C28.1789 55.8951 27.3328 54.628 26.1299 53.7741C24.927 52.9202 23.4517 52.5394 21.9859 52.7043C20.52 52.8692 19.1662 53.5684 18.1832 54.6683C17.2002 55.7681 16.6567 57.1915 16.6567 58.6667C16.6567 60.1418 17.2002 61.5653 18.1832 62.6651C19.1662 63.765 20.52 64.4641 21.9859 64.6291C23.4517 64.794 24.927 64.4131 26.1299 63.5592C27.3328 62.7054 28.1789 61.4383 28.5067 60H35.3334V74.6667H28.5067C28.1789 73.2284 27.3328 71.9613 26.1299 71.1074C24.927 70.2536 23.4517 69.8727 21.9859 70.0376C20.52 70.2026 19.1662 70.9017 18.1832 72.0016C17.2002 73.1014 16.6567 74.5249 16.6567 76C16.6567 77.4752 17.2002 78.8986 18.1832 79.9984C19.1662 81.0983 20.52 81.7975 21.9859 81.9624C23.4517 82.1273 24.927 81.7465 26.1299 80.8926C27.3328 80.0387 28.1789 78.7716 28.5067 77.3334H36.6667C37.0203 77.3334 37.3595 77.1929 37.6095 76.9428C37.8596 76.6928 38 76.3536 38 76V60H67.3334V57.3333H38ZM22.6667 27.3333C22.0074 27.3333 21.363 27.1379 20.8148 26.7716C20.2667 26.4053 19.8394 25.8847 19.5871 25.2756C19.3348 24.6665 19.2688 23.9963 19.3974 23.3497C19.526 22.7031 19.8435 22.1092 20.3097 21.643C20.7759 21.1768 21.3698 20.8593 22.0164 20.7307C22.663 20.6021 23.3332 20.6681 23.9423 20.9204C24.5514 21.1727 25.072 21.5999 25.4383 22.1481C25.8046 22.6963 26 23.3407 26 24C26 24.4378 25.9138 24.8712 25.7463 25.2756C25.5788 25.68 25.3333 26.0475 25.0237 26.357C24.7142 26.6666 24.3467 26.9121 23.9423 27.0796C23.5379 27.2471 23.1045 27.3333 22.6667 27.3333ZM22.6667 44.6667C22.0074 44.6667 21.363 44.4712 20.8148 44.1049C20.2667 43.7386 19.8394 43.218 19.5871 42.609C19.3348 41.9999 19.2688 41.3296 19.3974 40.683C19.526 40.0364 19.8435 39.4425 20.3097 38.9763C20.7759 38.5102 21.3698 38.1927 22.0164 38.0641C22.663 37.9354 23.3332 38.0015 23.9423 38.2537C24.5514 38.506 25.072 38.9333 25.4383 39.4814C25.8046 40.0296 26 40.6741 26 41.3333C26 42.2174 25.6489 43.0653 25.0237 43.6904C24.3986 44.3155 23.5508 44.6667 22.6667 44.6667ZM22.6667 62C22.0074 62 21.363 61.8045 20.8148 61.4382C20.2667 61.072 19.8394 60.5514 19.5871 59.9423C19.3348 59.3332 19.2688 58.663 19.3974 58.0164C19.526 57.3698 19.8435 56.7758 20.3097 56.3097C20.7759 55.8435 21.3698 55.526 22.0164 55.3974C22.663 55.2688 23.3332 55.3348 23.9423 55.5871C24.5514 55.8394 25.072 56.2666 25.4383 56.8148C25.8046 57.3629 26 58.0074 26 58.6667C26 59.5507 25.6489 60.3986 25.0237 61.0237C24.3986 61.6488 23.5508 62 22.6667 62ZM22.6667 79.3334C22.0074 79.3334 21.363 79.1379 20.8148 78.7716C20.2667 78.4053 19.8394 77.8847 19.5871 77.2756C19.3348 76.6665 19.2688 75.9963 19.3974 75.3497C19.526 74.7031 19.8435 74.1092 20.3097 73.643C20.7759 73.1768 21.3698 72.8594 22.0164 72.7307C22.663 72.6021 23.3332 72.6681 23.9423 72.9204C24.5514 73.1727 25.072 73.5999 25.4383 74.1481C25.8046 74.6963 26 75.3407 26 76C26 76.8841 25.6489 77.7319 25.0237 78.357C24.3986 78.9822 23.5508 79.3334 22.6667 79.3334Z" fill="white"/>
<path d="M70 41.3334H54V44H70V41.3334Z" fill="white"/>
<path d="M78 48H74V50.6667H78V48Z" fill="white"/>
<path d="M63.3333 48H54V50.6667H63.3333V48Z" fill="white"/>
</g>
<defs>
<linearGradient id="paint0_linear_2385_3561" x1="-20.7067" y1="120.72" x2="120.72" y2="-20.7067" gradientUnits="userSpaceOnUse">
<stop stop-color="#1B660F"/>
<stop offset="1" stop-color="#6CAE3E"/>
</linearGradient>
<clipPath id="clip0_2385_3561">
<rect width="100" height="100" fill="white"/>
</clipPath>
</defs>
</svg>
