<svg width="100" height="100" viewBox="0 0 100 100" fill="none" xmlns="http://www.w3.org/2000/svg">
<path d="M100 0H0V100H100V0Z" fill="url(#paint0_linear_2385_3699)"/>
<path d="M69 37.0003H59V30.5403C59 27.6503 56.85 26.0003 53.11 26.0003H39.67C38.4498 25.9869 37.2739 26.4568 36.3989 27.3074C35.524 28.158 35.0211 29.3202 35 30.5403V33.0003C35 33.2655 35.1054 33.5198 35.2929 33.7074C35.4804 33.8949 35.7348 34.0003 36 34.0003H42V37.0003H32C31.7348 37.0003 31.4804 37.1056 31.2929 37.2932C31.1054 37.4807 31 37.7351 31 38.0003V73.0003C31 73.2655 31.1054 73.5198 31.2929 73.7074C31.4804 73.8949 31.7348 74.0003 32 74.0003H69C69.2652 74.0003 69.5196 73.8949 69.7071 73.7074C69.8946 73.5198 70 73.2655 70 73.0003V38.0003C70 37.7351 69.8946 37.4807 69.7071 37.2932C69.5196 37.1056 69.2652 37.0003 69 37.0003ZM53.11 28.0003C55.69 28.0003 57 28.8503 57 30.5403V39.0003H44V30.6203C44.1408 29.7104 43.9491 28.7803 43.46 28.0003H53.11ZM37 32.0003V30.5403C37.0183 29.8498 37.3097 29.1947 37.8101 28.7186C38.3106 28.2424 38.9794 27.9842 39.67 28.0003C40.033 27.9942 40.3932 28.066 40.7261 28.2109C41.059 28.3559 41.357 28.5705 41.6 28.8403C41.7781 29.0484 41.9066 29.2943 41.9759 29.5593C42.0452 29.8243 42.0535 30.1016 42 30.3703V32.0003H37ZM68 72.0003H33V39.0003H42V40.0003C42 40.2655 42.1054 40.5198 42.2929 40.7074C42.4804 40.8949 42.7348 41.0003 43 41.0003H58C58.2652 41.0003 58.5196 40.8949 58.7071 40.7074C58.8946 40.5198 59 40.2655 59 40.0003V39.0003H68V72.0003Z" fill="white"/>
<path d="M63 53.0002H38C37.7348 53.0002 37.4804 52.8949 37.2929 52.7074C37.1054 52.5198 37 52.2655 37 52.0002V44.0002C37 43.735 37.1054 43.4807 37.2929 43.2931C37.4804 43.1056 37.7348 43.0002 38 43.0002H63C63.2652 43.0002 63.5196 43.1056 63.7071 43.2931C63.8946 43.4807 64 43.735 64 44.0002V52.0002C64 52.2655 63.8946 52.5198 63.7071 52.7074C63.5196 52.8949 63.2652 53.0002 63 53.0002ZM39 51.0002H62V45.0002H39V51.0002Z" fill="white"/>
<path d="M63 69.0002H57C56.7348 69.0002 56.4804 68.8949 56.2929 68.7074C56.1054 68.5198 56 68.2655 56 68.0002V56.0002C56 55.735 56.1054 55.4807 56.2929 55.2931C56.4804 55.1056 56.7348 55.0002 57 55.0002H63C63.2652 55.0002 63.5196 55.1056 63.7071 55.2931C63.8946 55.4807 64 55.735 64 56.0002V68.0002C64 68.2655 63.8946 68.5198 63.7071 68.7074C63.5196 68.8949 63.2652 69.0002 63 69.0002ZM58 67.0002H62V57.0002H58V67.0002Z" fill="white"/>
<path d="M42 55.0002H37V57.0002H42V55.0002Z" fill="white"/>
<path d="M52 55.0002H47V57.0002H52V55.0002Z" fill="white"/>
<path d="M42 61.0002H37V63.0002H42V61.0002Z" fill="white"/>
<path d="M52 61.0002H47V63.0002H52V61.0002Z" fill="white"/>
<path d="M42 67.0002H37V69.0002H42V67.0002Z" fill="white"/>
<path d="M52 67.0002H47V69.0002H52V67.0002Z" fill="white"/>
<defs>
<linearGradient id="paint0_linear_2385_3699" x1="0" y1="100" x2="100" y2="0" gradientUnits="userSpaceOnUse">
<stop stop-color="#1B660F"/>
<stop offset="1" stop-color="#6CAE3E"/>
</linearGradient>
</defs>
</svg>
