<svg width="100" height="100" viewBox="0 0 100 100" fill="none" xmlns="http://www.w3.org/2000/svg">
<g clip-path="url(#clip0_2385_3559)">
<path d="M100 0H0V100H100V0Z" fill="url(#paint0_linear_2385_3559)"/>
<path d="M79.0134 48.6666L71.4401 30.3866L75.1067 26.6666L73.2134 24.7733L69.5201 28.4666L51.3334 21V16.6666H48.6667V20.9866L30.4001 28.5466L26.6667 24.8266L24.7867 26.6666L28.5334 30.4133L20.9867 48.6666H16.6667V51.3333H20.9867L28.5201 69.52L24.7867 73.2533L26.6667 75.1466L30.3734 71.44L48.6667 79V83.3333H51.3334V79.0133L69.5334 71.4666L73.2134 75.1466L75.1067 73.2533L71.4534 69.6L79.0134 51.3333H83.3334V48.6666H79.0134ZM69.4134 67.5599L59.4001 57.5466L57.5067 59.44L67.4934 69.4266L50.0001 76.6799L32.4267 69.4L42.4401 59.3866L40.5467 57.4933L30.5601 67.48L23.3201 50L30.5734 32.5066L40.5601 42.4933L42.4534 40.6L32.4401 30.5866L50.0001 23.32L67.4801 30.56L57.4934 40.5466L59.3867 42.44L69.4001 32.4266L76.6801 50L69.4134 67.5599Z" fill="white"/>
<path d="M50.0001 40.6666C48.1541 40.6666 46.3496 41.214 44.8148 42.2396C43.2799 43.2651 42.0836 44.7228 41.3772 46.4282C40.6708 48.1337 40.486 50.0103 40.8461 51.8208C41.2062 53.6313 42.0951 55.2943 43.4004 56.5996C44.7057 57.9049 46.3688 58.7938 48.1792 59.154C49.9897 59.5141 51.8664 59.3292 53.5718 58.6228C55.2772 57.9164 56.7349 56.7201 57.7605 55.1853C58.786 53.6504 59.3334 51.8459 59.3334 50C59.3334 47.5246 58.3501 45.1506 56.5997 43.4003C54.8494 41.65 52.4754 40.6666 50.0001 40.6666ZM50.0001 56.6666C48.6815 56.6666 47.3926 56.2756 46.2963 55.5431C45.2 54.8105 44.3455 53.7694 43.8409 52.5512C43.3363 51.333 43.2043 49.9926 43.4615 48.6994C43.7188 47.4061 44.3537 46.2183 45.286 45.2859C46.2184 44.3536 47.4063 43.7186 48.6995 43.4614C49.9927 43.2042 51.3331 43.3362 52.5513 43.8408C53.7695 44.3453 54.8107 45.1998 55.5432 46.2962C56.2758 47.3925 56.6667 48.6814 56.6667 50C56.6667 51.7681 55.9644 53.4638 54.7141 54.714C53.4639 55.9642 51.7682 56.6666 50.0001 56.6666Z" fill="white"/>
</g>
<defs>
<linearGradient id="paint0_linear_2385_3559" x1="-20.7107" y1="120.707" x2="120.711" y2="-20.7147" gradientUnits="userSpaceOnUse">
<stop stop-color="#1B660F"/>
<stop offset="1" stop-color="#6CAE3E"/>
</linearGradient>
<clipPath id="clip0_2385_3559">
<rect width="100" height="100" fill="white"/>
</clipPath>
</defs>
</svg>
