<svg width="100" height="100" viewBox="0 0 100 100" fill="none" xmlns="http://www.w3.org/2000/svg">
<path d="M47.76 60.1799V45.4399L43.06 54.9799H38.94L34.24 45.4399V60.1799H30.24V38.8799H35.28L41.08 50.9999L46.92 38.8799H51.88V60.1799H47.76Z" fill="#FF9900"/>
<path d="M56 55.9999C57.9301 56.6898 59.9524 57.0875 62 57.1799C63.0383 57.2484 64.0669 56.9434 64.9 56.3199C65.2704 55.9954 65.5619 55.5909 65.7525 55.1369C65.9431 54.6829 66.0278 54.1915 66 53.6999C66.0357 53.2451 65.9658 52.7883 65.7958 52.3651C65.6258 51.9418 65.3603 51.5636 65.02 51.2599C64.1246 50.6792 63.0646 50.4054 62 50.4799C60.3225 50.49 58.6468 50.5902 56.98 50.7799V47.9999L57.52 38.8599H69.52V42.3999H61.24L60.9 47.4199C61.7652 47.2169 62.6513 47.1163 63.54 47.1199C65.3962 47.0348 67.2143 47.6647 68.62 48.8799C69.2536 49.4867 69.7507 50.2214 70.0783 51.0353C70.4059 51.8491 70.5565 52.7233 70.52 53.5999C70.5457 54.8754 70.2056 56.1315 69.54 57.2199C68.8473 58.3161 67.8547 59.1907 66.68 59.7399C65.3128 60.3637 63.8225 60.6713 62.32 60.6399C60.1455 60.6541 57.9923 60.2112 56 59.3399V55.9999Z" fill="#FF9900"/>
<path d="M88.6199 88.6199H11.3799V11.3799H88.6199V88.6199ZM15.3799 84.6199H84.6199V15.3799H15.3799V84.6199Z" fill="#FF9900"/>
<path d="M26.4199 2H22.4199V13.38H26.4199V2Z" fill="#FF9900"/>
<path d="M38.96 2H34.96V13.38H38.96V2Z" fill="#FF9900"/>
<path d="M51.52 2H47.52V13.38H51.52V2Z" fill="#FF9900"/>
<path d="M64.0801 2H60.0801V13.38H64.0801V2Z" fill="#FF9900"/>
<path d="M76.6399 2H72.6399V13.38H76.6399V2Z" fill="#FF9900"/>
<path d="M26.4199 86.6201H22.4199V98.0001H26.4199V86.6201Z" fill="#FF9900"/>
<path d="M38.96 86.6201H34.96V98.0001H38.96V86.6201Z" fill="#FF9900"/>
<path d="M51.52 86.6201H47.52V98.0001H51.52V86.6201Z" fill="#FF9900"/>
<path d="M64.0801 86.6201H60.0801V98.0001H64.0801V86.6201Z" fill="#FF9900"/>
<path d="M76.6399 86.6201H72.6399V98.0001H76.6399V86.6201Z" fill="#FF9900"/>
<path d="M98.0001 22.8999H86.6201V26.8999H98.0001V22.8999Z" fill="#FF9900"/>
<path d="M98.0001 35.4399H86.6201V39.4399H98.0001V35.4399Z" fill="#FF9900"/>
<path d="M98.0001 48H86.6201V52H98.0001V48Z" fill="#FF9900"/>
<path d="M98.0001 60.5601H86.6201V64.5601H98.0001V60.5601Z" fill="#FF9900"/>
<path d="M98.0001 73.1001H86.6201V77.1001H98.0001V73.1001Z" fill="#FF9900"/>
<path d="M13.38 22.8999H2V26.8999H13.38V22.8999Z" fill="#FF9900"/>
<path d="M13.38 35.4399H2V39.4399H13.38V35.4399Z" fill="#FF9900"/>
<path d="M13.38 48H2V52H13.38V48Z" fill="#FF9900"/>
<path d="M13.38 60.5601H2V64.5601H13.38V60.5601Z" fill="#FF9900"/>
<path d="M13.38 73.1001H2V77.1001H13.38V73.1001Z" fill="#FF9900"/>
</svg>
