<svg width="100" height="100" viewBox="0 0 100 100" fill="none" xmlns="http://www.w3.org/2000/svg">
<path d="M38.7 60.1799V42.5799H32.22V38.8799H49.78V42.5799H43.3V60.1799H38.7Z" fill="#FF9900"/>
<path d="M52.4001 40.8202C53.4116 40.0167 54.5462 39.3819 55.7601 38.9402C56.9323 38.5438 58.1628 38.3478 59.4001 38.3602C61.087 38.2965 62.7339 38.8836 64.0001 40.0002C64.5862 40.5475 65.047 41.2153 65.3508 41.9575C65.6546 42.6997 65.7942 43.4989 65.7601 44.3002C65.7397 45.4617 65.4377 46.601 64.8801 47.6202C64.0961 49.02 63.1495 50.3223 62.0601 51.5002C60.7601 52.9402 59.0401 54.6402 56.8601 56.6202H66.6401V60.1802H51.8401V56.8602C54.5068 54.1935 56.4668 52.1268 57.7201 50.6602C58.7352 49.5653 59.6396 48.3729 60.4201 47.1002C60.8805 46.3444 61.1419 45.4843 61.1801 44.6002C61.1973 44.2647 61.1438 43.9294 61.0233 43.6159C60.9027 43.3023 60.7176 43.0176 60.4801 42.7802C59.9543 42.3255 59.2745 42.0893 58.5801 42.1202C57.5653 42.1397 56.5624 42.343 55.6201 42.7202C54.4812 43.1779 53.4003 43.7687 52.4001 44.4802V40.8202Z" fill="#FF9900"/>
<path d="M88.6199 88.6199H11.3799V11.3799H88.6199V88.6199ZM15.3799 84.6199H84.6199V15.3799H15.3799V84.6199Z" fill="#FF9900"/>
<path d="M26.4199 2H22.4199V13.38H26.4199V2Z" fill="#FF9900"/>
<path d="M38.96 2H34.96V13.38H38.96V2Z" fill="#FF9900"/>
<path d="M51.52 2H47.52V13.38H51.52V2Z" fill="#FF9900"/>
<path d="M64.0801 2H60.0801V13.38H64.0801V2Z" fill="#FF9900"/>
<path d="M76.6399 2H72.6399V13.38H76.6399V2Z" fill="#FF9900"/>
<path d="M26.4199 86.6201H22.4199V98.0001H26.4199V86.6201Z" fill="#FF9900"/>
<path d="M38.96 86.6201H34.96V98.0001H38.96V86.6201Z" fill="#FF9900"/>
<path d="M51.52 86.6201H47.52V98.0001H51.52V86.6201Z" fill="#FF9900"/>
<path d="M64.0801 86.6201H60.0801V98.0001H64.0801V86.6201Z" fill="#FF9900"/>
<path d="M76.6399 86.6201H72.6399V98.0001H76.6399V86.6201Z" fill="#FF9900"/>
<path d="M98.0001 22.8999H86.6201V26.8999H98.0001V22.8999Z" fill="#FF9900"/>
<path d="M98.0001 35.4399H86.6201V39.4399H98.0001V35.4399Z" fill="#FF9900"/>
<path d="M98.0001 48H86.6201V52H98.0001V48Z" fill="#FF9900"/>
<path d="M98.0001 60.5601H86.6201V64.5601H98.0001V60.5601Z" fill="#FF9900"/>
<path d="M98.0001 73.1001H86.6201V77.1001H98.0001V73.1001Z" fill="#FF9900"/>
<path d="M13.38 22.8999H2V26.8999H13.38V22.8999Z" fill="#FF9900"/>
<path d="M13.38 35.4399H2V39.4399H13.38V35.4399Z" fill="#FF9900"/>
<path d="M13.38 48H2V52H13.38V48Z" fill="#FF9900"/>
<path d="M13.38 60.5601H2V64.5601H13.38V60.5601Z" fill="#FF9900"/>
<path d="M13.38 73.1001H2V77.1001H13.38V73.1001Z" fill="#FF9900"/>
</svg>
