<svg width="100" height="100" viewBox="0 0 100 100" fill="none" xmlns="http://www.w3.org/2000/svg">
<path d="M83.1 96H14.9C11.4787 96 8.19754 94.6409 5.77832 92.2217C3.3591 89.8025 2 86.5213 2 83.1V14.9C2 11.4787 3.3591 8.19754 5.77832 5.77832C8.19754 3.3591 11.4787 2 14.9 2H83.1C86.5213 2 89.8025 3.3591 92.2217 5.77832C94.6409 8.19754 96 11.4787 96 14.9V83.1C96 86.5213 94.6409 89.8025 92.2217 92.2217C89.8025 94.6409 86.5213 96 83.1 96ZM14.9 6C12.5412 6.00528 10.2805 6.94465 8.61259 8.61259C6.94465 10.2805 6.00528 12.5412 6 14.9V83.1C6.00528 85.4588 6.94465 87.7195 8.61259 89.3874C10.2805 91.0553 12.5412 91.9947 14.9 92H83.1C85.4588 91.9947 87.7195 91.0553 89.3874 89.3874C91.0553 87.7195 91.9947 85.4588 92 83.1V14.9C91.9947 12.5412 91.0553 10.2805 89.3874 8.61259C87.7195 6.94465 85.4588 6.00528 83.1 6H14.9Z" fill="#FF9900"/>
<path d="M45.2801 66.7602C42.3449 67.857 39.2334 68.4061 36.1001 68.3802C30.3534 68.3802 26.0001 66.7935 23.0401 63.6202C20.0801 60.4468 18.6001 55.7802 18.6001 49.6202C18.6001 43.5535 20.1334 38.8869 23.2001 35.6202C24.9265 33.9262 26.9912 32.6159 29.259 31.775C31.5268 30.934 33.9466 30.5814 36.3601 30.7402C39.2212 30.7234 42.0635 31.2039 44.7601 32.1602V36.5202C42.2149 35.8695 39.6059 35.5006 36.9801 35.4202C32.5801 35.4202 29.3601 36.4935 27.3201 38.6402C25.2801 40.7869 24.2668 44.2402 24.2801 49.0002V50.2602C24.2801 54.8868 25.2668 58.2868 27.2401 60.4602C29.2134 62.6335 32.3534 63.7135 36.6601 63.7002C39.5745 63.6064 42.4677 63.17 45.2801 62.4002V66.7602Z" fill="#FF9900"/>
<path d="M61.4999 46.9599H62.0199H62.5599C65.5674 46.8024 68.5195 47.8127 70.7999 49.7799C71.8161 50.7421 72.6136 51.9116 73.1381 53.2091C73.6626 54.5066 73.9019 55.9017 73.8399 57.2999C73.8987 58.8625 73.5954 60.4176 72.9535 61.8436C72.3117 63.2696 71.3487 64.5278 70.1399 65.5199C67.2835 67.7119 63.7346 68.805 60.1399 68.5999C56.7763 68.5829 53.4528 67.8678 50.3799 66.4999V62.2999C53.5154 63.431 56.8085 64.0654 60.1399 64.1799C62.3386 64.3286 64.5194 63.6984 66.2999 62.3999C67.0234 61.7705 67.5926 60.9833 67.9637 60.099C68.3347 59.2148 68.4976 58.2571 68.4399 57.2999C68.4399 53.0865 65.7732 50.9732 60.4399 50.9599C58.7697 50.9557 57.1006 51.0425 55.4399 51.2199V47.6999L66.4799 35.6999H50.9399V31.3599H72.3199V35.5199L61.4999 46.9599Z" fill="#FF9900"/>
</svg>
