<svg width="100" height="100" viewBox="0 0 100 100" fill="none" xmlns="http://www.w3.org/2000/svg">
<path d="M25.28 60.1801V38.8801H33.48C35.393 38.7792 37.273 39.4082 38.74 40.6401C39.4067 41.2346 39.9322 41.9705 40.2782 42.794C40.6242 43.6175 40.782 44.5079 40.74 45.4001C40.7524 46.5858 40.3959 47.7459 39.72 48.7201C39.0033 49.7418 38.0116 50.5393 36.86 51.0201L42 60.1801H37.32L32.72 52.0001H29.7V60.2601L25.28 60.1801ZM29.7 48.7201H32.9C33.3414 48.7803 33.7907 48.7372 34.2126 48.5943C34.6345 48.4514 35.0176 48.2126 35.3316 47.8967C35.6456 47.5807 35.882 47.1963 36.0223 46.7735C36.1626 46.3507 36.2029 45.9011 36.14 45.4601C36.2032 45.027 36.1647 44.5851 36.0275 44.1695C35.8904 43.7538 35.6584 43.3758 35.3498 43.0653C35.0413 42.7549 34.6647 42.5205 34.25 42.3807C33.8352 42.241 33.3935 42.1997 32.96 42.2601H29.7V48.7201Z" fill="#FF9900"/>
<path d="M44.1399 55.9999C46.1023 56.6978 48.1588 57.0957 50.2399 57.1799C51.2717 57.2454 52.293 56.9404 53.1199 56.3199C53.4584 55.9976 53.7217 55.6048 53.8911 55.1692C54.0604 54.7337 54.1317 54.2661 54.0999 53.7999C54.1403 53.3447 54.0726 52.8864 53.9023 52.4624C53.732 52.0384 53.4639 51.6606 53.1199 51.3599C52.2099 50.721 51.1096 50.4107 49.9999 50.4799C48.3157 50.4894 46.6333 50.5896 44.9599 50.7799V47.9999L45.5199 38.8599H57.5199V42.3999H49.3599L49.0399 47.4199C49.9051 47.2169 50.7912 47.1163 51.6799 47.1199C53.5299 47.0359 55.3414 47.666 56.7399 48.8799C57.3777 49.4835 57.8776 50.2177 58.2055 51.0323C58.5334 51.8469 58.6816 52.7227 58.6399 53.5999C58.6732 54.8872 58.3268 56.1559 57.6439 57.2478C56.9611 58.3396 55.972 59.2063 54.7999 59.7399C53.4326 60.3637 51.9424 60.6713 50.4399 60.6399C48.2726 60.6472 46.1273 60.2045 44.1399 59.3399V55.9999Z" fill="#FF9900"/>
<path d="M71.5399 60.1799L71.1799 58.7999C70.5287 59.3743 69.7849 59.8342 68.9799 60.1599C68.221 60.4841 67.4052 60.6541 66.5799 60.6599C65.2451 60.7307 63.9366 60.2706 62.9399 59.3799C62.4855 58.9449 62.1278 58.4192 61.89 57.8368C61.6522 57.2545 61.5398 56.6286 61.5599 55.9999C61.5501 55.0799 61.8072 54.1768 62.2999 53.3999C62.8286 52.627 63.5629 52.0173 64.4199 51.6399C65.4447 51.1842 66.559 50.9655 67.6799 50.9999C68.7783 51.0077 69.8722 51.142 70.9399 51.3999V49.7999C70.9875 49.4445 70.9605 49.0831 70.8607 48.7388C70.7608 48.3944 70.5903 48.0747 70.3599 47.7999C69.7185 47.3896 68.9578 47.2064 68.1999 47.2799C66.3103 47.317 64.4367 47.6338 62.6399 48.2199V45.2999C63.5475 44.8659 64.5095 44.5565 65.4999 44.3799C66.6503 44.1327 67.8233 44.0054 68.9999 43.9999C70.6437 43.857 72.284 44.3115 73.6199 45.2799C74.1427 45.798 74.5446 46.4252 74.797 47.1167C75.0494 47.8081 75.146 48.5468 75.0799 49.2799V60.1599L71.5399 60.1799ZM67.8399 57.6599C68.3835 57.6489 68.9199 57.5335 69.4199 57.3199C69.9675 57.0866 70.4793 56.7768 70.9399 56.3999V53.7199C70.1329 53.591 69.3172 53.5241 68.4999 53.5199C66.7199 53.5199 65.8399 54.2199 65.8399 55.6599C65.8224 55.9289 65.8594 56.1987 65.9488 56.453C66.0381 56.7073 66.178 56.941 66.3599 57.1399C66.5588 57.3218 66.7925 57.4617 67.0468 57.551C67.3011 57.6404 67.5709 57.6774 67.8399 57.6599Z" fill="#FF9900"/>
<path d="M88.6199 88.6199H11.3799V11.3799H88.6199V88.6199ZM15.3799 84.6199H84.6199V15.3799H15.3799V84.6199Z" fill="#FF9900"/>
<path d="M26.4199 2H22.4199V13.38H26.4199V2Z" fill="#FF9900"/>
<path d="M38.96 2H34.96V13.38H38.96V2Z" fill="#FF9900"/>
<path d="M51.52 2H47.52V13.38H51.52V2Z" fill="#FF9900"/>
<path d="M64.0801 2H60.0801V13.38H64.0801V2Z" fill="#FF9900"/>
<path d="M76.6399 2H72.6399V13.38H76.6399V2Z" fill="#FF9900"/>
<path d="M26.4199 86.6201H22.4199V98.0001H26.4199V86.6201Z" fill="#FF9900"/>
<path d="M38.96 86.6201H34.96V98.0001H38.96V86.6201Z" fill="#FF9900"/>
<path d="M51.52 86.6201H47.52V98.0001H51.52V86.6201Z" fill="#FF9900"/>
<path d="M64.0801 86.6201H60.0801V98.0001H64.0801V86.6201Z" fill="#FF9900"/>
<path d="M76.6399 86.6201H72.6399V98.0001H76.6399V86.6201Z" fill="#FF9900"/>
<path d="M98.0001 22.8999H86.6201V26.8999H98.0001V22.8999Z" fill="#FF9900"/>
<path d="M98.0001 35.4399H86.6201V39.4399H98.0001V35.4399Z" fill="#FF9900"/>
<path d="M98.0001 48H86.6201V52H98.0001V48Z" fill="#FF9900"/>
<path d="M98.0001 60.5601H86.6201V64.5601H98.0001V60.5601Z" fill="#FF9900"/>
<path d="M98.0001 73.1001H86.6201V77.1001H98.0001V73.1001Z" fill="#FF9900"/>
<path d="M13.38 22.8999H2V26.8999H13.38V22.8999Z" fill="#FF9900"/>
<path d="M13.38 35.4399H2V39.4399H13.38V35.4399Z" fill="#FF9900"/>
<path d="M13.38 48H2V52H13.38V48Z" fill="#FF9900"/>
<path d="M13.38 60.5601H2V64.5601H13.38V60.5601Z" fill="#FF9900"/>
<path d="M13.38 73.1001H2V77.1001H13.38V73.1001Z" fill="#FF9900"/>
</svg>
