<svg width="100" height="100" viewBox="0 0 100 100" fill="none" xmlns="http://www.w3.org/2000/svg">
<path d="M43.28 56.9002C44.0423 56.8885 44.8035 56.8351 45.56 56.7402V51.5402H41.56V48.2202H49.8V58.8802C48.7162 59.4416 47.5578 59.8457 46.36 60.0802C45.0467 60.3725 43.7054 60.52 42.36 60.5202C40.9588 60.6104 39.5542 60.408 38.2354 59.926C36.9167 59.4439 35.7127 58.6927 34.7 57.7202C33.7478 56.6293 33.0209 55.3608 32.5609 53.9879C32.101 52.6149 31.9171 51.1645 32.02 49.7202C31.8078 46.682 32.8073 43.6834 34.8 41.3802C35.8661 40.3805 37.1265 39.6108 38.5027 39.1188C39.879 38.6267 41.3417 38.423 42.8 38.5202C44.9482 38.466 47.0811 38.8966 49.04 39.7802V43.2802C47.1831 42.6489 45.2407 42.3049 43.28 42.2602C42.3742 42.1804 41.4617 42.2903 40.6007 42.583C39.7398 42.8757 38.9494 43.3448 38.28 43.9602C37.09 45.4813 36.5185 47.3957 36.68 49.3202V50.0002C36.5122 51.9036 37.0774 53.7993 38.26 55.3002C38.9433 55.8953 39.7411 56.3442 40.6045 56.6194C41.4678 56.8946 42.3783 56.9901 43.28 56.9002Z" fill="#FF9900"/>
<path d="M61.6 47.7599C63.308 47.7693 64.9554 48.3942 66.24 49.5199C66.8008 50.0616 67.2404 50.716 67.53 51.4399C67.8195 52.1638 67.9525 52.9409 67.92 53.7199C67.9509 54.9925 67.6029 56.2456 66.92 57.3199C66.2118 58.4063 65.1949 59.256 64 59.7599C62.5943 60.3717 61.0727 60.6719 59.54 60.6399C57.5405 60.6237 55.5659 60.1948 53.74 59.3799V55.9999C55.5532 56.6871 57.4632 57.0853 59.4 57.1799C60.4664 57.2491 61.5246 56.9528 62.4 56.3399C62.746 56.0301 63.0174 55.6462 63.194 55.2167C63.3707 54.7872 63.4479 54.3234 63.42 53.8599C63.4508 53.4515 63.3791 53.0418 63.2114 52.6681C63.0438 52.2944 62.7855 51.9685 62.46 51.7199C61.5729 51.1971 60.5465 50.9597 59.52 51.0399H58.16L56.66 51.1799V48.3199L62.16 42.3199H54V38.8799H67V42.2599L61.6 47.7599Z" fill="#FF9900"/>
<path d="M88.6199 88.6199H11.3799V11.3799H88.6199V88.6199ZM15.3799 84.6199H84.6199V15.3799H15.3799V84.6199Z" fill="#FF9900"/>
<path d="M26.4199 2H22.4199V13.38H26.4199V2Z" fill="#FF9900"/>
<path d="M38.96 2H34.96V13.38H38.96V2Z" fill="#FF9900"/>
<path d="M51.52 2H47.52V13.38H51.52V2Z" fill="#FF9900"/>
<path d="M64.0801 2H60.0801V13.38H64.0801V2Z" fill="#FF9900"/>
<path d="M76.6399 2H72.6399V13.38H76.6399V2Z" fill="#FF9900"/>
<path d="M26.4199 86.6201H22.4199V98.0001H26.4199V86.6201Z" fill="#FF9900"/>
<path d="M38.96 86.6201H34.96V98.0001H38.96V86.6201Z" fill="#FF9900"/>
<path d="M51.52 86.6201H47.52V98.0001H51.52V86.6201Z" fill="#FF9900"/>
<path d="M64.0801 86.6201H60.0801V98.0001H64.0801V86.6201Z" fill="#FF9900"/>
<path d="M76.6399 86.6201H72.6399V98.0001H76.6399V86.6201Z" fill="#FF9900"/>
<path d="M98.0001 22.8999H86.6201V26.8999H98.0001V22.8999Z" fill="#FF9900"/>
<path d="M98.0001 35.4399H86.6201V39.4399H98.0001V35.4399Z" fill="#FF9900"/>
<path d="M98.0001 48H86.6201V52H98.0001V48Z" fill="#FF9900"/>
<path d="M98.0001 60.5601H86.6201V64.5601H98.0001V60.5601Z" fill="#FF9900"/>
<path d="M98.0001 73.1001H86.6201V77.1001H98.0001V73.1001Z" fill="#FF9900"/>
<path d="M13.38 22.8999H2V26.8999H13.38V22.8999Z" fill="#FF9900"/>
<path d="M13.38 35.4399H2V39.4399H13.38V35.4399Z" fill="#FF9900"/>
<path d="M13.38 48H2V52H13.38V48Z" fill="#FF9900"/>
<path d="M13.38 60.5601H2V64.5601H13.38V60.5601Z" fill="#FF9900"/>
<path d="M13.38 73.1001H2V77.1001H13.38V73.1001Z" fill="#FF9900"/>
</svg>
