<svg width="100" height="100" viewBox="0 0 100 100" fill="none" xmlns="http://www.w3.org/2000/svg">
<path d="M38.7 60.1799V42.5799H32.22V38.8799H49.78V42.5799H43.3V60.1799H38.7Z" fill="#FF9900"/>
<path d="M59.86 47.7599C61.5687 47.7657 63.2173 48.391 64.5 49.5199C65.0608 50.0616 65.5004 50.716 65.79 51.4399C66.0795 52.1638 66.2125 52.9409 66.18 53.7199C66.211 54.9925 65.8629 56.2456 65.18 57.3199C64.4772 58.4032 63.4676 59.2527 62.28 59.7599C60.8814 60.3719 59.3663 60.6722 57.84 60.6399C55.8274 60.6263 53.8392 60.1974 52 59.3799V55.9999C53.8133 56.6871 55.7232 57.0853 57.66 57.1799C58.7264 57.2491 59.7846 56.9528 60.66 56.3399C61.006 56.0301 61.2774 55.6462 61.4541 55.2167C61.6307 54.7872 61.7079 54.3234 61.68 53.8599C61.7095 53.4536 61.6393 53.0462 61.4755 52.6733C61.3117 52.3003 61.0592 51.973 60.74 51.7199C59.8453 51.1979 58.8128 50.9607 57.78 51.0399H56.42L54.92 51.1799V48.3199L60.42 42.3199H52.3V38.8799H65.26V42.2599L59.86 47.7599Z" fill="#FF9900"/>
<path d="M88.6199 88.6199H11.3799V11.3799H88.6199V88.6199ZM15.3799 84.6199H84.6199V15.3799H15.3799V84.6199Z" fill="#FF9900"/>
<path d="M26.4199 2H22.4199V13.38H26.4199V2Z" fill="#FF9900"/>
<path d="M38.96 2H34.96V13.38H38.96V2Z" fill="#FF9900"/>
<path d="M51.52 2H47.52V13.38H51.52V2Z" fill="#FF9900"/>
<path d="M64.0801 2H60.0801V13.38H64.0801V2Z" fill="#FF9900"/>
<path d="M76.6399 2H72.6399V13.38H76.6399V2Z" fill="#FF9900"/>
<path d="M26.4199 86.6201H22.4199V98.0001H26.4199V86.6201Z" fill="#FF9900"/>
<path d="M38.96 86.6201H34.96V98.0001H38.96V86.6201Z" fill="#FF9900"/>
<path d="M51.52 86.6201H47.52V98.0001H51.52V86.6201Z" fill="#FF9900"/>
<path d="M64.0801 86.6201H60.0801V98.0001H64.0801V86.6201Z" fill="#FF9900"/>
<path d="M76.6399 86.6201H72.6399V98.0001H76.6399V86.6201Z" fill="#FF9900"/>
<path d="M98.0001 22.8999H86.6201V26.8999H98.0001V22.8999Z" fill="#FF9900"/>
<path d="M98.0001 35.4399H86.6201V39.4399H98.0001V35.4399Z" fill="#FF9900"/>
<path d="M98.0001 48H86.6201V52H98.0001V48Z" fill="#FF9900"/>
<path d="M98.0001 60.5601H86.6201V64.5601H98.0001V60.5601Z" fill="#FF9900"/>
<path d="M98.0001 73.1001H86.6201V77.1001H98.0001V73.1001Z" fill="#FF9900"/>
<path d="M13.38 22.8999H2V26.8999H13.38V22.8999Z" fill="#FF9900"/>
<path d="M13.38 35.4399H2V39.4399H13.38V35.4399Z" fill="#FF9900"/>
<path d="M13.38 48H2V52H13.38V48Z" fill="#FF9900"/>
<path d="M13.38 60.5601H2V64.5601H13.38V60.5601Z" fill="#FF9900"/>
<path d="M13.38 73.1001H2V77.1001H13.38V73.1001Z" fill="#FF9900"/>
</svg>
