<svg width="100" height="100" viewBox="0 0 100 100" fill="none" xmlns="http://www.w3.org/2000/svg">
<g clip-path="url(#clip0_0_1775)">
<path d="M24.24 1.62012H20.24V11.8801H24.24V1.62012Z" fill="#FF9900"/>
<path d="M35.54 1.62012H31.54V11.8801H35.54V1.62012Z" fill="#FF9900"/>
<path d="M46.8601 1.62012H42.8601V11.8801H46.8601V1.62012Z" fill="#FF9900"/>
<path d="M58.1799 1.62012H54.1799V11.8801H58.1799V1.62012Z" fill="#FF9900"/>
<path d="M69.5 1.62012H65.5V11.8801H69.5V1.62012Z" fill="#FF9900"/>
<path d="M24.24 77.8799H20.24V88.1399H24.24V77.8799Z" fill="#FF9900"/>
<path d="M35.54 77.8799H31.54V88.1399H35.54V77.8799Z" fill="#FF9900"/>
<path d="M46.8601 77.8799H42.8601V88.1399H46.8601V77.8799Z" fill="#FF9900"/>
<path d="M88.54 20.2598H78.28V24.2598H88.54V20.2598Z" fill="#FF9900"/>
<path d="M88.54 31.5801H78.28V35.5801H88.54V31.5801Z" fill="#FF9900"/>
<path d="M58.18 88.1399H54.18V79.8799H10.3V9.8999H80.28V42.8799H88.54V46.8799H76.28V13.8999H14.3V75.8799H58.18V88.1399Z" fill="#FF9900"/>
<path d="M12.3 20.2598H2.04004V24.2598H12.3V20.2598Z" fill="#FF9900"/>
<path d="M12.3 31.5801H2.04004V35.5801H12.3V31.5801Z" fill="#FF9900"/>
<path d="M12.3 42.8799H2.04004V46.8799H12.3V42.8799Z" fill="#FF9900"/>
<path d="M12.3 54.2002H2.04004V58.2002H12.3V54.2002Z" fill="#FF9900"/>
<path d="M12.3 65.52H2.04004V69.52H12.3V65.52Z" fill="#FF9900"/>
<path d="M81.74 100.38C72.96 100.38 63.52 97.94 63.52 92.6199V59.6999C63.52 54.3599 72.96 51.9399 81.74 51.9399C90.52 51.9399 100 54.3599 100 59.6999V92.6199C100 98 90.52 100.38 81.74 100.38ZM81.74 55.9399C72.42 55.9399 67.52 58.7199 67.52 59.6999V92.6199C67.52 93.58 72.42 96.3799 81.74 96.3799C91.06 96.3799 96 93.58 96 92.6199V59.6999C96 58.7199 91.08 55.9999 81.74 55.9999V55.9399Z" fill="#FF9900"/>
<path d="M81.74 66.4602C72.96 66.4602 63.52 64.0202 63.52 58.7002H67.52C67.52 59.6602 72.42 62.4602 81.74 62.4602C91.06 62.4602 96 59.6602 96 58.7002H100C100 64.0002 90.52 66.4602 81.74 66.4602Z" fill="#FF9900"/>
</g>
<defs>
<clipPath id="clip0_0_1775">
<rect width="100" height="100" fill="white"/>
</clipPath>
</defs>
</svg>
