<svg width="100" height="100" viewBox="0 0 100 100" fill="none" xmlns="http://www.w3.org/2000/svg">
<path d="M40.1001 59.6202C38.3218 60.2803 36.4368 60.6058 34.5401 60.5802C33.1059 60.6856 31.6654 60.4931 30.3093 60.0146C28.9531 59.5362 27.7107 58.7822 26.6601 57.8002C24.7405 55.5326 23.7856 52.6033 24.0001 49.6402C23.8071 46.6313 24.8139 43.6685 26.8001 41.4002C27.8351 40.3936 29.0688 39.614 30.4222 39.1112C31.7756 38.6084 33.219 38.3935 34.6601 38.4801C36.4029 38.4777 38.1338 38.7684 39.7801 39.3401V42.9801C38.2802 42.6095 36.7446 42.4016 35.2001 42.3602C34.3334 42.2919 33.4619 42.4062 32.642 42.6956C31.8222 42.985 31.0721 43.443 30.4401 44.0402C29.2671 45.5003 28.6949 47.3528 28.8401 49.2202V50.0002C28.6974 51.8391 29.2466 53.6651 30.3801 55.1202C31.0039 55.7101 31.7445 56.1626 32.5541 56.4485C33.3637 56.7345 34.2242 56.8474 35.0801 56.7802C36.776 56.695 38.4584 56.4335 40.1001 56.0002V59.6202Z" fill="#FF9900"/>
<path d="M42.8 55.9999C44.7301 56.6898 46.7524 57.0875 48.8 57.1799C49.8322 57.249 50.8547 56.9436 51.68 56.3199C52.0221 55.9995 52.2892 55.6074 52.462 55.1718C52.6349 54.7361 52.7094 54.2676 52.68 53.7999C52.718 53.3431 52.6472 52.8838 52.4734 52.4596C52.2996 52.0355 52.0277 51.6586 51.68 51.3599C50.7821 50.768 49.712 50.4934 48.64 50.5799C46.9559 50.5894 45.2734 50.6896 43.6 50.8799V47.9999L44.16 38.8599H56.16V42.3999H48L47.66 47.4199C48.5253 47.2169 49.4113 47.1163 50.3 47.1199C52.1562 47.0348 53.9743 47.6647 55.38 48.8799C56.0136 49.4867 56.5107 50.2214 56.8383 51.0353C57.1659 51.8491 57.3165 52.7233 57.28 53.5999C57.2959 54.8741 56.9566 56.1276 56.3 57.2199C55.6073 58.3161 54.6147 59.1907 53.44 59.7399C52.0728 60.3637 50.5825 60.6713 49.08 60.6399C46.9123 60.6513 44.7662 60.2084 42.78 59.3399L42.8 55.9999Z" fill="#FF9900"/>
<path d="M71.2799 60.1801V49.8801C71.3293 49.2184 71.1296 48.5621 70.7199 48.0401C70.4943 47.8339 70.2289 47.6761 69.9399 47.5763C69.651 47.4766 69.3447 47.437 69.0399 47.4601C67.8429 47.474 66.6756 47.8353 65.6799 48.5001V60.1801H61.2V44.4801H64.8799L65.3199 46.1601C67.0132 44.776 69.133 44.02 71.3199 44.0201C71.9324 43.9537 72.5519 44.0255 73.1329 44.2302C73.7139 44.4349 74.2416 44.7672 74.6772 45.2028C75.1128 45.6384 75.4452 46.1661 75.6499 46.7471C75.8545 47.3281 75.9263 47.9477 75.8599 48.5601V60.1801H71.2799Z" fill="#FF9900"/>
<path d="M88.6199 88.6199H11.3799V11.3799H88.6199V88.6199ZM15.3799 84.6199H84.6199V15.3799H15.3799V84.6199Z" fill="#FF9900"/>
<path d="M26.4199 2H22.4199V13.38H26.4199V2Z" fill="#FF9900"/>
<path d="M38.96 2H34.96V13.38H38.96V2Z" fill="#FF9900"/>
<path d="M51.52 2H47.52V13.38H51.52V2Z" fill="#FF9900"/>
<path d="M64.0801 2H60.0801V13.38H64.0801V2Z" fill="#FF9900"/>
<path d="M76.6399 2H72.6399V13.38H76.6399V2Z" fill="#FF9900"/>
<path d="M26.4199 86.6201H22.4199V98.0001H26.4199V86.6201Z" fill="#FF9900"/>
<path d="M38.96 86.6201H34.96V98.0001H38.96V86.6201Z" fill="#FF9900"/>
<path d="M51.52 86.6201H47.52V98.0001H51.52V86.6201Z" fill="#FF9900"/>
<path d="M64.0801 86.6201H60.0801V98.0001H64.0801V86.6201Z" fill="#FF9900"/>
<path d="M76.6399 86.6201H72.6399V98.0001H76.6399V86.6201Z" fill="#FF9900"/>
<path d="M98.0001 22.8999H86.6201V26.8999H98.0001V22.8999Z" fill="#FF9900"/>
<path d="M98.0001 35.4399H86.6201V39.4399H98.0001V35.4399Z" fill="#FF9900"/>
<path d="M98.0001 48H86.6201V52H98.0001V48Z" fill="#FF9900"/>
<path d="M98.0001 60.5601H86.6201V64.5601H98.0001V60.5601Z" fill="#FF9900"/>
<path d="M98.0001 73.1001H86.6201V77.1001H98.0001V73.1001Z" fill="#FF9900"/>
<path d="M13.38 22.8999H2V26.8999H13.38V22.8999Z" fill="#FF9900"/>
<path d="M13.38 35.4399H2V39.4399H13.38V35.4399Z" fill="#FF9900"/>
<path d="M13.38 48H2V52H13.38V48Z" fill="#FF9900"/>
<path d="M13.38 60.5601H2V64.5601H13.38V60.5601Z" fill="#FF9900"/>
<path d="M13.38 73.1001H2V77.1001H13.38V73.1001Z" fill="#FF9900"/>
</svg>
