<svg width="100" height="100" viewBox="0 0 100 100" fill="none" xmlns="http://www.w3.org/2000/svg">
<path d="M33.6799 60.18V38.88H41.8799C43.7864 38.7822 45.659 39.4112 47.1199 40.64C47.7866 41.2345 48.3121 41.9704 48.6581 42.7939C49.0041 43.6174 49.1619 44.5078 49.1199 45.4C49.1031 46.5966 48.7114 47.7578 47.9999 48.72C47.2911 49.741 46.3059 50.5388 45.1599 51.02L50.4399 60.18H45.7199L41.0999 52H38.0999V60.26L33.6799 60.18ZM38.0999 48.72H41.2999C41.7406 48.781 42.1894 48.7384 42.6107 48.5955C43.032 48.4526 43.4141 48.2133 43.7268 47.8968C44.0394 47.5803 44.2739 47.1953 44.4115 46.7722C44.5492 46.3492 44.5864 45.8999 44.5199 45.46C44.5824 45.0288 44.5441 44.589 44.408 44.175C44.2719 43.7611 44.0418 43.3843 43.7356 43.0743C43.4294 42.7643 43.0556 42.5294 42.6434 42.3881C42.2312 42.2468 41.7919 42.203 41.3599 42.26H38.0999V48.72Z" fill="#FF9900"/>
<path d="M52.54 55.9999C54.4701 56.6898 56.4924 57.0875 58.54 57.1799C59.5718 57.2454 60.5931 56.9404 61.42 56.3199C61.7585 55.9977 62.0218 55.6048 62.1912 55.1692C62.3605 54.7337 62.4318 54.2661 62.4 53.7999C62.4404 53.3447 62.3727 52.8865 62.2024 52.4624C62.0321 52.0384 61.764 51.6606 61.42 51.3599C60.5208 50.7708 59.4517 50.4965 58.38 50.5799C56.6958 50.5894 55.0134 50.6896 53.34 50.8799V47.9999L54 38.8799H66V42.3999H57.76L57.42 47.4199C58.2657 47.2216 59.1313 47.1209 60 47.1199C61.8499 47.0359 63.6614 47.666 65.06 48.8799C65.7148 49.4752 66.2327 50.2055 66.578 51.0204C66.9233 51.8353 67.0877 52.7153 67.06 53.5999C67.0519 54.8819 66.6846 56.136 66 57.2199C65.3073 58.3161 64.3147 59.1907 63.14 59.7399C61.7727 60.3637 60.2825 60.6713 58.78 60.6399C56.6122 60.6513 54.4661 60.2084 52.48 59.3399L52.54 55.9999Z" fill="#FF9900"/>
<path d="M88.6199 88.6199H11.3799V11.3799H88.6199V88.6199ZM15.3799 84.6199H84.6199V15.3799H15.3799V84.6199Z" fill="#FF9900"/>
<path d="M26.4199 2H22.4199V13.38H26.4199V2Z" fill="#FF9900"/>
<path d="M38.96 2H34.96V13.38H38.96V2Z" fill="#FF9900"/>
<path d="M51.52 2H47.52V13.38H51.52V2Z" fill="#FF9900"/>
<path d="M64.0801 2H60.0801V13.38H64.0801V2Z" fill="#FF9900"/>
<path d="M76.6399 2H72.6399V13.38H76.6399V2Z" fill="#FF9900"/>
<path d="M26.4199 86.6201H22.4199V98.0001H26.4199V86.6201Z" fill="#FF9900"/>
<path d="M38.96 86.6201H34.96V98.0001H38.96V86.6201Z" fill="#FF9900"/>
<path d="M51.52 86.6201H47.52V98.0001H51.52V86.6201Z" fill="#FF9900"/>
<path d="M64.0801 86.6201H60.0801V98.0001H64.0801V86.6201Z" fill="#FF9900"/>
<path d="M76.6399 86.6201H72.6399V98.0001H76.6399V86.6201Z" fill="#FF9900"/>
<path d="M98.0001 22.8999H86.6201V26.8999H98.0001V22.8999Z" fill="#FF9900"/>
<path d="M98.0001 35.4399H86.6201V39.4399H98.0001V35.4399Z" fill="#FF9900"/>
<path d="M98.0001 48H86.6201V52H98.0001V48Z" fill="#FF9900"/>
<path d="M98.0001 60.5601H86.6201V64.5601H98.0001V60.5601Z" fill="#FF9900"/>
<path d="M98.0001 73.1001H86.6201V77.1001H98.0001V73.1001Z" fill="#FF9900"/>
<path d="M13.38 22.8999H2V26.8999H13.38V22.8999Z" fill="#FF9900"/>
<path d="M13.38 35.4399H2V39.4399H13.38V35.4399Z" fill="#FF9900"/>
<path d="M13.38 48H2V52H13.38V48Z" fill="#FF9900"/>
<path d="M13.38 60.5601H2V64.5601H13.38V60.5601Z" fill="#FF9900"/>
<path d="M13.38 73.1001H2V77.1001H13.38V73.1001Z" fill="#FF9900"/>
</svg>
