<svg width="100" height="100" viewBox="0 0 100 100" fill="none" xmlns="http://www.w3.org/2000/svg">
<path d="M88.6199 88.6199H11.3799V11.3799H88.6199V88.6199ZM15.3799 84.6199H84.6199V15.3799H15.3799V84.6199Z" fill="#FF9900"/>
<path d="M26.4199 2H22.4199V13.38H26.4199V2Z" fill="#FF9900"/>
<path d="M38.96 2H34.96V13.38H38.96V2Z" fill="#FF9900"/>
<path d="M51.52 2H47.52V13.38H51.52V2Z" fill="#FF9900"/>
<path d="M64.0801 2H60.0801V13.38H64.0801V2Z" fill="#FF9900"/>
<path d="M76.6399 2H72.6399V13.38H76.6399V2Z" fill="#FF9900"/>
<path d="M26.4199 86.6201H22.4199V98.0001H26.4199V86.6201Z" fill="#FF9900"/>
<path d="M38.96 86.6201H34.96V98.0001H38.96V86.6201Z" fill="#FF9900"/>
<path d="M51.52 86.6201H47.52V98.0001H51.52V86.6201Z" fill="#FF9900"/>
<path d="M64.0801 86.6201H60.0801V98.0001H64.0801V86.6201Z" fill="#FF9900"/>
<path d="M76.6399 86.6201H72.6399V98.0001H76.6399V86.6201Z" fill="#FF9900"/>
<path d="M98.0001 22.8999H86.6201V26.8999H98.0001V22.8999Z" fill="#FF9900"/>
<path d="M98.0001 35.4399H86.6201V39.4399H98.0001V35.4399Z" fill="#FF9900"/>
<path d="M98.0001 48H86.6201V52H98.0001V48Z" fill="#FF9900"/>
<path d="M98.0001 60.5601H86.6201V64.5601H98.0001V60.5601Z" fill="#FF9900"/>
<path d="M98.0001 73.1001H86.6201V77.1001H98.0001V73.1001Z" fill="#FF9900"/>
<path d="M13.38 22.8999H2V26.8999H13.38V22.8999Z" fill="#FF9900"/>
<path d="M13.38 35.4399H2V39.4399H13.38V35.4399Z" fill="#FF9900"/>
<path d="M13.38 48H2V52H13.38V48Z" fill="#FF9900"/>
<path d="M13.38 60.5601H2V64.5601H13.38V60.5601Z" fill="#FF9900"/>
<path d="M13.38 73.1001H2V77.1001H13.38V73.1001Z" fill="#FF9900"/>
</svg>
