<svg width="100" height="100" viewBox="0 0 100 100" fill="none" xmlns="http://www.w3.org/2000/svg">
<path d="M30.3001 60.1799V42.5799H23.8201V38.8799H41.4001V42.5799H34.9201V60.1799H30.3001Z" fill="#FF9900"/>
<path d="M51.4799 47.7599C53.1879 47.7693 54.8353 48.3942 56.1199 49.5199C56.6807 50.0616 57.1203 50.716 57.4099 51.4399C57.6994 52.1638 57.8324 52.9409 57.7999 53.7199C57.8269 54.9958 57.4693 56.2504 56.7738 57.3204C56.0783 58.3905 55.0769 59.2265 53.8999 59.7199C52.4942 60.3317 50.9726 60.6319 49.4399 60.5999C47.4404 60.5837 45.4658 60.1548 43.6399 59.3399V55.9999C45.4531 56.6871 47.3631 57.0853 49.2999 57.1799C50.3604 57.2526 51.4135 56.9558 52.2799 56.3399C52.633 56.0349 52.9107 55.6523 53.0912 55.222C53.2716 54.7917 53.3499 54.3255 53.3199 53.8599C53.3507 53.4515 53.279 53.0418 53.1114 52.6681C52.9437 52.2944 52.6854 51.9685 52.3599 51.7199C51.4719 51.1995 50.4462 50.9623 49.4199 51.0399H48.0399L46.5599 51.1799V48.3199L52.0599 42.3199H43.9999V38.8799H56.9599V42.2599L51.4799 47.7599Z" fill="#FF9900"/>
<path d="M70.9201 60.1802L70.5601 58.8002C69.9054 59.3699 69.1623 59.8292 68.3601 60.1602C67.5936 60.4825 66.7716 60.6523 65.9401 60.6602C64.6056 60.7289 63.2978 60.269 62.3001 59.3802C61.8523 58.9413 61.5002 58.4144 61.2662 57.8326C61.0321 57.2509 60.9211 56.627 60.9401 56.0002C60.9208 55.079 61.1786 54.1732 61.6801 53.4002C62.2039 52.6229 62.9396 52.012 63.8001 51.6402C64.8185 51.1868 65.9258 50.9681 67.0401 51.0002C68.1387 51.0052 69.2329 51.1394 70.3001 51.4002V49.8002C70.3477 49.4448 70.3207 49.0835 70.2208 48.7391C70.121 48.3947 69.9504 48.075 69.7201 47.8002C69.0873 47.387 68.3319 47.2034 67.5801 47.2802C65.6841 47.3189 63.8041 47.6356 62.0001 48.2202V45.3002C62.9077 44.8663 63.8697 44.5568 64.8601 44.3802C66.0107 44.134 67.1835 44.0067 68.3601 44.0002C70.0101 43.8579 71.6564 44.3121 73.0001 45.2802C73.5195 45.8008 73.9192 46.4284 74.1713 47.1192C74.4235 47.81 74.522 48.5474 74.4601 49.2802V60.1602L70.9201 60.1802ZM67.2001 57.6602C67.7439 57.6513 68.2807 57.5357 68.7801 57.3202C69.3296 57.0907 69.8419 56.7806 70.3001 56.4002V53.7202C69.4998 53.5913 68.6907 53.5245 67.8801 53.5202C66.1001 53.5202 65.2001 54.2202 65.2001 55.6602C65.1718 55.9298 65.2041 56.2023 65.2946 56.4578C65.3851 56.7133 65.5315 56.9454 65.7232 57.1371C65.9149 57.3288 66.147 57.4752 66.4025 57.5657C66.658 57.6562 66.9305 57.6885 67.2001 57.6602Z" fill="#FF9900"/>
<path d="M88.6199 88.6199H11.3799V11.3799H88.6199V88.6199ZM15.3799 84.6199H84.6199V15.3799H15.3799V84.6199Z" fill="#FF9900"/>
<path d="M26.4199 2H22.4199V13.38H26.4199V2Z" fill="#FF9900"/>
<path d="M38.96 2H34.96V13.38H38.96V2Z" fill="#FF9900"/>
<path d="M51.52 2H47.52V13.38H51.52V2Z" fill="#FF9900"/>
<path d="M64.0801 2H60.0801V13.38H64.0801V2Z" fill="#FF9900"/>
<path d="M76.6399 2H72.6399V13.38H76.6399V2Z" fill="#FF9900"/>
<path d="M26.4199 86.6201H22.4199V98.0001H26.4199V86.6201Z" fill="#FF9900"/>
<path d="M38.96 86.6201H34.96V98.0001H38.96V86.6201Z" fill="#FF9900"/>
<path d="M51.52 86.6201H47.52V98.0001H51.52V86.6201Z" fill="#FF9900"/>
<path d="M64.0801 86.6201H60.0801V98.0001H64.0801V86.6201Z" fill="#FF9900"/>
<path d="M76.6399 86.6201H72.6399V98.0001H76.6399V86.6201Z" fill="#FF9900"/>
<path d="M98.0001 22.8999H86.6201V26.8999H98.0001V22.8999Z" fill="#FF9900"/>
<path d="M98.0001 35.4399H86.6201V39.4399H98.0001V35.4399Z" fill="#FF9900"/>
<path d="M98.0001 48H86.6201V52H98.0001V48Z" fill="#FF9900"/>
<path d="M98.0001 60.5601H86.6201V64.5601H98.0001V60.5601Z" fill="#FF9900"/>
<path d="M98.0001 73.1001H86.6201V77.1001H98.0001V73.1001Z" fill="#FF9900"/>
<path d="M13.38 22.8999H2V26.8999H13.38V22.8999Z" fill="#FF9900"/>
<path d="M13.38 35.4399H2V39.4399H13.38V35.4399Z" fill="#FF9900"/>
<path d="M13.38 48H2V52H13.38V48Z" fill="#FF9900"/>
<path d="M13.38 60.5601H2V64.5601H13.38V60.5601Z" fill="#FF9900"/>
<path d="M13.38 73.1001H2V77.1001H13.38V73.1001Z" fill="#FF9900"/>
</svg>
