<svg width="100" height="100" viewBox="0 0 100 100" fill="none" xmlns="http://www.w3.org/2000/svg">
<path d="M32.54 60.1798V38.8798H40.18C41.5292 38.7935 42.8813 38.9949 44.1467 39.4708C45.4122 39.9466 46.562 40.6859 47.52 41.6398C49.3224 43.8535 50.2097 46.6729 50 49.5198C50.1792 52.3764 49.2639 55.194 47.44 57.3998C46.5028 58.3547 45.3713 59.0971 44.1222 59.5768C42.8731 60.0564 41.5355 60.2621 40.2 60.1798H32.54ZM37.14 42.4598V56.6198H39.78C43.5 56.6198 45.34 54.3598 45.34 49.8198V49.2198C45.34 44.6998 43.48 42.4598 39.76 42.4598H37.14Z" fill="#FF9900"/>
<path d="M54.1601 40.8201C55.1716 40.0167 56.3062 39.3819 57.5201 38.9401C58.6927 38.5457 59.9229 38.3496 61.1601 38.3601C62.8808 38.2724 64.5675 38.861 65.8601 40.0001C66.4431 40.55 66.9017 41.2181 67.2053 41.9597C67.5088 42.7014 67.6503 43.4994 67.6201 44.3001C67.592 45.4631 67.2832 46.6021 66.7201 47.6201C65.9811 49.0232 65.0671 50.327 64.0001 51.5001C62.3554 53.2945 60.6198 55.0035 58.8001 56.6201H68.5801V60.1801H53.6001V56.8601C56.2668 54.1935 58.2334 52.1268 59.5001 50.6601C60.5152 49.5653 61.4196 48.3729 62.2001 47.1001C62.6551 46.3432 62.9097 45.4828 62.9401 44.6001C62.9625 44.2641 62.9115 43.9273 62.7906 43.613C62.6697 43.2987 62.4819 43.0145 62.2401 42.7801C61.7165 42.3218 61.0351 42.0851 60.3401 42.1201C59.3257 42.1431 58.3234 42.3463 57.3801 42.7201C56.2412 43.1779 55.1604 43.7687 54.1601 44.4801V40.8201Z" fill="#FF9900"/>
<path d="M88.6199 88.6199H11.3799V11.3799H88.6199V88.6199ZM15.3799 84.6199H84.6199V15.3799H15.3799V84.6199Z" fill="#FF9900"/>
<path d="M26.4199 2H22.4199V13.38H26.4199V2Z" fill="#FF9900"/>
<path d="M38.96 2H34.96V13.38H38.96V2Z" fill="#FF9900"/>
<path d="M51.52 2H47.52V13.38H51.52V2Z" fill="#FF9900"/>
<path d="M64.0801 2H60.0801V13.38H64.0801V2Z" fill="#FF9900"/>
<path d="M76.6399 2H72.6399V13.38H76.6399V2Z" fill="#FF9900"/>
<path d="M26.4199 86.6201H22.4199V98.0001H26.4199V86.6201Z" fill="#FF9900"/>
<path d="M38.96 86.6201H34.96V98.0001H38.96V86.6201Z" fill="#FF9900"/>
<path d="M51.52 86.6201H47.52V98.0001H51.52V86.6201Z" fill="#FF9900"/>
<path d="M64.0801 86.6201H60.0801V98.0001H64.0801V86.6201Z" fill="#FF9900"/>
<path d="M76.6399 86.6201H72.6399V98.0001H76.6399V86.6201Z" fill="#FF9900"/>
<path d="M98.0001 22.8999H86.6201V26.8999H98.0001V22.8999Z" fill="#FF9900"/>
<path d="M98.0001 35.4399H86.6201V39.4399H98.0001V35.4399Z" fill="#FF9900"/>
<path d="M98.0001 48H86.6201V52H98.0001V48Z" fill="#FF9900"/>
<path d="M98.0001 60.5601H86.6201V64.5601H98.0001V60.5601Z" fill="#FF9900"/>
<path d="M98.0001 73.1001H86.6201V77.1001H98.0001V73.1001Z" fill="#FF9900"/>
<path d="M13.38 22.8999H2V26.8999H13.38V22.8999Z" fill="#FF9900"/>
<path d="M13.38 35.4399H2V39.4399H13.38V35.4399Z" fill="#FF9900"/>
<path d="M13.38 48H2V52H13.38V48Z" fill="#FF9900"/>
<path d="M13.38 60.5601H2V64.5601H13.38V60.5601Z" fill="#FF9900"/>
<path d="M13.38 73.1001H2V77.1001H13.38V73.1001Z" fill="#FF9900"/>
</svg>
