<svg width="100" height="100" viewBox="0 0 100 100" fill="none" xmlns="http://www.w3.org/2000/svg">
<path d="M88.6199 88.6199H11.3799V11.3799H88.6199V88.6199ZM15.3799 84.6199H84.6199V15.3799H15.3799V84.6199Z" fill="#FF9900"/>
<path d="M26.4199 2H22.4199V13.38H26.4199V2Z" fill="#FF9900"/>
<path d="M38.96 2H34.96V13.38H38.96V2Z" fill="#FF9900"/>
<path d="M51.52 2H47.52V13.38H51.52V2Z" fill="#FF9900"/>
<path d="M64.0801 2H60.0801V13.38H64.0801V2Z" fill="#FF9900"/>
<path d="M76.6399 2H72.6399V13.38H76.6399V2Z" fill="#FF9900"/>
<path d="M26.4199 86.6201H22.4199V98.0001H26.4199V86.6201Z" fill="#FF9900"/>
<path d="M38.96 86.6201H34.96V98.0001H38.96V86.6201Z" fill="#FF9900"/>
<path d="M51.52 86.6201H47.52V98.0001H51.52V86.6201Z" fill="#FF9900"/>
<path d="M64.0801 86.6201H60.0801V98.0001H64.0801V86.6201Z" fill="#FF9900"/>
<path d="M76.6399 86.6201H72.6399V98.0001H76.6399V86.6201Z" fill="#FF9900"/>
<path d="M98.0001 22.8999H86.6201V26.8999H98.0001V22.8999Z" fill="#FF9900"/>
<path d="M98.0001 35.4399H86.6201V39.4399H98.0001V35.4399Z" fill="#FF9900"/>
<path d="M98.0001 48H86.6201V52H98.0001V48Z" fill="#FF9900"/>
<path d="M98.0001 60.5601H86.6201V64.5601H98.0001V60.5601Z" fill="#FF9900"/>
<path d="M98.0001 73.1001H86.6201V77.1001H98.0001V73.1001Z" fill="#FF9900"/>
<path d="M13.38 22.8999H2V26.8999H13.38V22.8999Z" fill="#FF9900"/>
<path d="M13.38 35.4399H2V39.4399H13.38V35.4399Z" fill="#FF9900"/>
<path d="M13.38 48H2V52H13.38V48Z" fill="#FF9900"/>
<path d="M13.38 60.5601H2V64.5601H13.38V60.5601Z" fill="#FF9900"/>
<path d="M13.38 73.1001H2V77.1001H13.38V73.1001Z" fill="#FF9900"/>
<path d="M43.58 64.5399H31.7C30.3277 64.5346 28.9841 64.1468 27.82 63.4199C26.0541 62.3263 24.6024 60.7929 23.6067 58.97C22.6111 57.147 22.1057 55.0968 22.14 53.0199C22.0487 50.742 22.6806 48.4936 23.9452 46.5967C25.2098 44.6999 27.0422 43.2518 29.18 42.4599V42.2599C29.2451 39.3367 30.1211 36.489 31.7102 34.0346C33.2994 31.5801 35.5393 29.6155 38.18 28.3599C41.0123 27.1058 44.1624 26.7555 47.201 27.3568C50.2395 27.9581 53.0188 29.4817 55.16 31.7199C56.3439 32.8954 57.342 34.2441 58.12 35.7199C59.2248 35.0758 60.4812 34.7376 61.76 34.7399C63.7067 34.8154 65.559 35.5986 66.9693 36.9426C68.3796 38.2867 69.251 40.0991 69.42 42.0399C71.9118 42.6007 74.1307 44.0111 75.6962 46.0291C77.2618 48.0471 78.0763 50.547 78 53.0999C78.0898 55.1043 77.6142 57.0935 76.6275 58.8405C75.6408 60.5875 74.1829 62.0219 72.42 62.9799L70.42 59.4799C71.5709 58.8779 72.5221 57.9544 73.1577 56.8217C73.7933 55.689 74.0859 54.3959 74 53.0999C74.0163 51.2407 73.3283 49.4442 72.0743 48.0715C70.8203 46.6987 69.0931 45.8514 67.24 45.6999C66.9748 45.6558 66.7213 45.5587 66.4945 45.4144C66.2677 45.2701 66.0723 45.0815 65.92 44.8599C65.6556 44.4733 65.5353 44.0062 65.58 43.5399C65.28 40.0399 63.34 38.7999 61.76 38.7999C61.2183 38.8131 60.6871 38.9518 60.2082 39.2051C59.7292 39.4585 59.3157 39.8196 59 40.2599C58.7835 40.5483 58.4931 40.7727 58.1596 40.9096C57.826 41.0464 57.4616 41.0905 57.105 41.0372C56.7484 40.9839 56.4129 40.8352 56.1338 40.6069C55.8548 40.3785 55.6427 40.079 55.52 39.7399C54.8521 37.8012 53.7666 36.0329 52.34 34.5599C50.7652 32.8784 48.7061 31.7286 46.4484 31.2699C44.1907 30.8111 41.8462 31.0663 39.74 31.9999C37.8313 32.9542 36.2148 34.405 35.0604 36.1998C33.9061 37.9947 33.2565 40.0673 33.18 42.1999C33.1496 42.6594 33.1496 43.1204 33.18 43.5799C33.2144 43.8637 33.1876 44.1516 33.1014 44.4242C33.0151 44.6967 32.8714 44.9476 32.68 45.1599C32.3952 45.4763 32.0168 45.6935 31.6 45.7799C29.963 46.1016 28.4987 47.0071 27.4796 48.328C26.4604 49.6488 25.956 51.2949 26.06 52.9599C26.0341 54.3772 26.3853 55.776 27.0776 57.013C27.7699 58.2499 28.7785 59.2808 30 59.9999C30.5316 60.3206 31.1392 60.4932 31.76 60.4999H43.62L43.58 64.5399Z" fill="#FF9900"/>
<path d="M57.7401 70.1399C55.2947 70.1399 52.9042 69.4145 50.8712 68.0555C48.8382 66.6965 47.254 64.7649 46.3191 62.5053C45.3842 60.2456 45.1406 57.7594 45.6191 55.3612C46.0976 52.9631 47.2768 50.7608 49.0074 49.033C50.738 47.3052 52.9422 46.1296 55.3411 45.655C57.74 45.1803 60.2258 45.428 62.484 46.3665C64.7421 47.3051 66.6711 48.8924 68.0268 50.9276C69.3825 52.9629 70.1041 55.3545 70.1001 57.7999C70.0948 61.0745 68.7903 64.2132 66.4729 66.5268C64.1555 68.8405 61.0147 70.1399 57.7401 70.1399ZM57.7401 49.4399C56.0867 49.4399 54.4703 49.9302 53.0956 50.8488C51.7208 51.7674 50.6492 53.0731 50.0165 54.6007C49.3837 56.1283 49.2182 57.8092 49.5408 59.4309C49.8633 61.0526 50.6595 62.5422 51.8287 63.7113C52.9979 64.8805 54.4875 65.6767 56.1092 65.9993C57.7308 66.3219 59.4118 66.1563 60.9394 65.5236C62.4669 64.8908 63.7726 63.8193 64.6912 62.4445C65.6098 61.0697 66.1001 59.4534 66.1001 57.7999C66.1001 55.5827 65.2193 53.4563 63.6515 51.8885C62.0837 50.3207 59.9573 49.4399 57.7401 49.4399Z" fill="#FF9900"/>
<path d="M53.2599 62.8398C52.5508 62.3146 51.952 61.6547 51.4979 60.8981C51.0438 60.1414 50.7431 59.3027 50.6131 58.4298C50.4831 57.5569 50.5263 56.667 50.7402 55.8108C50.9542 54.9546 51.3346 54.149 51.8599 53.4398C52.9208 52.0077 54.5071 51.0556 56.27 50.793C57.1428 50.663 58.0328 50.7062 58.8889 50.9202C59.7451 51.1341 60.5508 51.5146 61.2599 52.0398L58.8799 55.2398C58.2991 54.8102 57.5714 54.6289 56.8569 54.7358C56.1423 54.8427 55.4996 55.229 55.0699 55.8098C54.6403 56.3907 54.4589 57.1184 54.5658 57.8329C54.6727 58.5474 55.0591 59.1902 55.6399 59.6198L53.2599 62.8398Z" fill="#FF9900"/>
<path d="M73.18 77.5202C72.5593 77.5253 71.9438 77.4058 71.3701 77.1687C70.7964 76.9317 70.2761 76.5819 69.84 76.1402L61.74 68.1402L64.56 65.3202L72.56 73.3202C72.6192 73.4028 72.6973 73.47 72.7877 73.5165C72.8782 73.5629 72.9784 73.5871 73.08 73.5871C73.1816 73.5871 73.2818 73.5629 73.3722 73.5165C73.4627 73.47 73.5407 73.4028 73.6 73.3202C73.7368 73.1817 73.8135 72.9949 73.8135 72.8002C73.8135 72.6055 73.7368 72.4187 73.6 72.2802L65.5 64.0002L68.32 61.1802L76.54 69.4202C77.417 70.3107 77.9085 71.5104 77.9085 72.7602C77.9085 74.01 77.417 75.2097 76.54 76.1002C76.1049 76.5516 75.5829 76.9102 75.0054 77.1542C74.4279 77.3983 73.8069 77.5228 73.18 77.5202Z" fill="#FF9900"/>
</svg>
