<svg width="100" height="100" viewBox="0 0 100 100" fill="none" xmlns="http://www.w3.org/2000/svg">
<path d="M37.0599 60.1799L32.5999 52.3199L28.1999 60.1799H23.1399L29.9999 49.1199L23.6199 38.8799H28.7999L32.7999 45.7999L36.6999 38.8799H41.7599L35.2799 49.0599L42.2799 60.1799H37.0599Z" fill="#FF9900"/>
<path d="M50.68 60.1799V43.3799L45.22 45.0999V41.5999L51.22 38.8799H55.22V60.1799H50.68Z" fill="#FF9900"/>
<path d="M65.8601 53.4202C65.854 53.9691 65.9609 54.5134 66.1742 55.0192C66.3876 55.525 66.7027 55.9815 67.1001 56.3602C68.1184 57.0429 69.3382 57.3602 70.5601 57.2602C72.1866 57.2193 73.8005 56.9638 75.3601 56.5002V59.4802C74.5443 59.8684 73.6848 60.1571 72.8001 60.3402C71.7793 60.5429 70.7408 60.6434 69.7001 60.6402C68.6073 60.7259 67.5088 60.5815 66.4753 60.2164C65.4418 59.8512 64.4964 59.2734 63.7001 58.5202C62.2481 56.7947 61.5301 54.5689 61.7001 52.3202C61.5616 50.0998 62.2771 47.9104 63.7001 46.2002C64.4304 45.4488 65.3138 44.8634 66.2905 44.4838C67.2671 44.1042 68.314 43.9392 69.3601 44.0002C70.2167 43.9441 71.0758 44.0643 71.8842 44.3532C72.6925 44.6422 73.4331 45.0938 74.0601 45.6802C74.6359 46.329 75.0773 47.0855 75.3588 47.906C75.6403 48.7265 75.7563 49.5946 75.7001 50.4602C75.6928 50.9683 75.6594 51.4756 75.6001 51.9802C75.5635 52.4585 75.4899 52.9333 75.3801 53.4002L65.8601 53.4202ZM69.2201 47.1202C68.7827 47.0971 68.3452 47.1652 67.9355 47.3201C67.5258 47.475 67.1527 47.7135 66.8401 48.0202C66.197 48.7494 65.8415 49.6879 65.8401 50.6602H71.8401V50.1402C71.8601 48.1202 70.9801 47.1202 69.2201 47.1202Z" fill="#FF9900"/>
<path d="M88.6199 88.6199H11.3799V11.3799H88.6199V88.6199ZM15.3799 84.6199H84.6199V15.3799H15.3799V84.6199Z" fill="#FF9900"/>
<path d="M26.4199 2H22.4199V13.38H26.4199V2Z" fill="#FF9900"/>
<path d="M38.96 2H34.96V13.38H38.96V2Z" fill="#FF9900"/>
<path d="M51.52 2H47.52V13.38H51.52V2Z" fill="#FF9900"/>
<path d="M64.0801 2H60.0801V13.38H64.0801V2Z" fill="#FF9900"/>
<path d="M76.6399 2H72.6399V13.38H76.6399V2Z" fill="#FF9900"/>
<path d="M26.4199 86.6201H22.4199V98.0001H26.4199V86.6201Z" fill="#FF9900"/>
<path d="M38.96 86.6201H34.96V98.0001H38.96V86.6201Z" fill="#FF9900"/>
<path d="M51.52 86.6201H47.52V98.0001H51.52V86.6201Z" fill="#FF9900"/>
<path d="M64.0801 86.6201H60.0801V98.0001H64.0801V86.6201Z" fill="#FF9900"/>
<path d="M76.6399 86.6201H72.6399V98.0001H76.6399V86.6201Z" fill="#FF9900"/>
<path d="M98.0001 22.8999H86.6201V26.8999H98.0001V22.8999Z" fill="#FF9900"/>
<path d="M98.0001 35.4399H86.6201V39.4399H98.0001V35.4399Z" fill="#FF9900"/>
<path d="M98.0001 48H86.6201V52H98.0001V48Z" fill="#FF9900"/>
<path d="M98.0001 60.5601H86.6201V64.5601H98.0001V60.5601Z" fill="#FF9900"/>
<path d="M98.0001 73.1001H86.6201V77.1001H98.0001V73.1001Z" fill="#FF9900"/>
<path d="M13.38 22.8999H2V26.8999H13.38V22.8999Z" fill="#FF9900"/>
<path d="M13.38 35.4399H2V39.4399H13.38V35.4399Z" fill="#FF9900"/>
<path d="M13.38 48H2V52H13.38V48Z" fill="#FF9900"/>
<path d="M13.38 60.5601H2V64.5601H13.38V60.5601Z" fill="#FF9900"/>
<path d="M13.38 73.1001H2V77.1001H13.38V73.1001Z" fill="#FF9900"/>
</svg>
