<svg width="100" height="100" viewBox="0 0 100 100" fill="none" xmlns="http://www.w3.org/2000/svg">
<path d="M92.7 97H52.3C51.1596 97 50.0658 96.547 49.2594 95.7406C48.453 94.9342 48 93.8404 48 92.7V52.42C48 51.2477 48.4657 50.1235 49.2946 49.2946C50.1235 48.4657 51.2477 48 52.42 48H92.58C93.7523 48 94.8765 48.4657 95.7054 49.2946C96.5343 50.1235 97 51.2477 97 52.42V92.7C97 93.8404 96.547 94.9342 95.7406 95.7406C94.9342 96.547 93.8404 97 92.7 97ZM52.42 52C52.3102 52.0049 52.2062 52.0507 52.1284 52.1284C52.0507 52.2062 52.0049 52.3102 52 52.42V92.7C52 92.7796 52.0316 92.8559 52.0879 92.9121C52.1441 92.9684 52.2204 93 52.3 93H92.7C92.7796 93 92.8559 92.9684 92.9121 92.9121C92.9684 92.8559 93 92.7796 93 92.7V52.42C92.9951 52.3102 92.9493 52.2062 92.8716 52.1284C92.7938 52.0507 92.6898 52.0049 92.58 52H52.42Z" fill="#FF9900"/>
<path d="M44.24 74.5H28C27.417 74.4922 26.8411 74.3696 26.3054 74.1392C25.7697 73.9088 25.2847 73.5751 24.8779 73.1572C24.4712 72.7394 24.1508 72.2455 23.9349 71.7037C23.7191 71.162 23.6121 70.5831 23.62 70V30C23.6121 29.4169 23.7191 28.838 23.9349 28.2963C24.1508 27.7545 24.4712 27.2606 24.8779 26.8428C25.2847 26.4249 25.7697 26.0912 26.3054 25.8608C26.8411 25.6304 27.417 25.5078 28 25.5H68.2C68.7873 25.4999 69.3686 25.6168 69.9102 25.8439C70.4517 26.0711 70.9426 26.4038 71.3541 26.8227C71.7656 27.2417 72.0895 27.7384 72.3068 28.284C72.5242 28.8295 72.6307 29.4129 72.62 30V44.46H68.62V30C68.62 29.8886 68.5758 29.7818 68.497 29.703C68.4183 29.6242 68.3114 29.58 68.2 29.58H28C27.8867 29.5799 27.7777 29.6235 27.6958 29.7017C27.6138 29.78 27.5652 29.8868 27.56 30V70C27.5652 70.1132 27.6138 70.22 27.6958 70.2983C27.7777 70.3765 27.8867 70.4201 28 70.42H44.18L44.24 74.5Z" fill="#FF9900"/>
<path d="M20 52H7.42C6.83956 52 6.2648 51.8857 5.72854 51.6635C5.19228 51.4414 4.70502 51.1158 4.29459 50.7054C3.88415 50.295 3.55858 49.8077 3.33645 49.2715C3.11433 48.7352 3 48.1604 3 47.58V7.42C3 6.24774 3.46568 5.1235 4.29459 4.29459C5.1235 3.46568 6.24774 3 7.42 3H47.58C48.1604 3 48.7352 3.11433 49.2715 3.33645C49.8077 3.55858 50.295 3.88415 50.7054 4.29459C51.1158 4.70502 51.4414 5.19228 51.6635 5.72854C51.8857 6.2648 52 6.83956 52 7.42V21.88H48V7.42C47.9951 7.31018 47.9493 7.20617 47.8716 7.12844C47.7938 7.05071 47.6898 7.00489 47.58 7H7.42C7.31018 7.00489 7.20617 7.05071 7.12844 7.12844C7.05071 7.20617 7.00489 7.31018 7 7.42V47.58C7.00489 47.6898 7.05071 47.7938 7.12844 47.8716C7.20617 47.9493 7.31018 47.9951 7.42 48H20V52Z" fill="#FF9900"/>
</svg>
