<svg width="100" height="100" viewBox="0 0 100 100" fill="none" xmlns="http://www.w3.org/2000/svg">
<path d="M38.7 60.1799V38.8799H43.2999V60.1799H38.7Z" fill="#FF9900"/>
<path d="M55.58 47.7599C57.2894 47.7621 58.9392 48.3879 60.22 49.5199C60.7875 50.0575 61.233 50.7106 61.5262 51.4352C61.8195 52.1598 61.9538 52.9389 61.92 53.7199C61.947 54.9958 61.5895 56.2504 60.8939 57.3204C60.1984 58.3905 59.197 59.2265 58.02 59.7199C56.6137 60.3299 55.0926 60.63 53.56 60.5999C51.5605 60.5837 49.586 60.1548 47.76 59.3399V55.9999C49.5733 56.6871 51.4832 57.0853 53.42 57.1799C54.4806 57.2526 55.5336 56.9558 56.4 56.3399C56.7496 56.0321 57.0248 55.6489 57.205 55.2194C57.3851 54.7898 57.4655 54.325 57.44 53.8599C57.4708 53.4515 57.3991 53.0418 57.2315 52.6681C57.0638 52.2944 56.8055 51.9685 56.48 51.7199C55.592 51.1995 54.5664 50.9623 53.54 51.0399H52.16L50.68 51.1799V48.3199L56.18 42.3199H48V38.8799H61V42.2599L55.58 47.7599Z" fill="#FF9900"/>
<path d="M88.6199 88.6199H11.3799V11.3799H88.6199V88.6199ZM15.3799 84.6199H84.6199V15.3799H15.3799V84.6199Z" fill="#FF9900"/>
<path d="M26.4199 2H22.4199V13.38H26.4199V2Z" fill="#FF9900"/>
<path d="M38.96 2H34.96V13.38H38.96V2Z" fill="#FF9900"/>
<path d="M51.52 2H47.52V13.38H51.52V2Z" fill="#FF9900"/>
<path d="M64.0801 2H60.0801V13.38H64.0801V2Z" fill="#FF9900"/>
<path d="M76.6399 2H72.6399V13.38H76.6399V2Z" fill="#FF9900"/>
<path d="M26.4199 86.6201H22.4199V98.0001H26.4199V86.6201Z" fill="#FF9900"/>
<path d="M38.96 86.6201H34.96V98.0001H38.96V86.6201Z" fill="#FF9900"/>
<path d="M51.52 86.6201H47.52V98.0001H51.52V86.6201Z" fill="#FF9900"/>
<path d="M64.0801 86.6201H60.0801V98.0001H64.0801V86.6201Z" fill="#FF9900"/>
<path d="M76.6399 86.6201H72.6399V98.0001H76.6399V86.6201Z" fill="#FF9900"/>
<path d="M98.0001 22.8999H86.6201V26.8999H98.0001V22.8999Z" fill="#FF9900"/>
<path d="M98.0001 35.4399H86.6201V39.4399H98.0001V35.4399Z" fill="#FF9900"/>
<path d="M98.0001 48H86.6201V52H98.0001V48Z" fill="#FF9900"/>
<path d="M98.0001 60.5601H86.6201V64.5601H98.0001V60.5601Z" fill="#FF9900"/>
<path d="M98.0001 73.1001H86.6201V77.1001H98.0001V73.1001Z" fill="#FF9900"/>
<path d="M13.38 22.8999H2V26.8999H13.38V22.8999Z" fill="#FF9900"/>
<path d="M13.38 35.4399H2V39.4399H13.38V35.4399Z" fill="#FF9900"/>
<path d="M13.38 48H2V52H13.38V48Z" fill="#FF9900"/>
<path d="M13.38 60.5601H2V64.5601H13.38V60.5601Z" fill="#FF9900"/>
<path d="M13.38 73.1001H2V77.1001H13.38V73.1001Z" fill="#FF9900"/>
</svg>
