<svg width="100" height="100" viewBox="0 0 100 100" fill="none" xmlns="http://www.w3.org/2000/svg">
<path d="M59.5 62.8598H40.5C39.6247 62.8598 38.7854 62.5121 38.1665 61.8932C37.5476 61.2744 37.2 60.435 37.2 59.5598V40.5598C37.2 39.6846 37.5476 38.8452 38.1665 38.2263C38.7854 37.6074 39.6247 37.2598 40.5 37.2598H59.5C60.3752 37.2598 61.2145 37.6074 61.8334 38.2263C62.4523 38.8452 62.7999 39.6846 62.7999 40.5598V59.5598C62.7999 60.435 62.4523 61.2744 61.8334 61.8932C61.2145 62.5121 60.3752 62.8598 59.5 62.8598ZM41.2 58.8598H58.7999V41.2598H41.2V58.8598Z" fill="#FF9900"/>
<path d="M49.1601 73.6602H29.1601C28.4085 73.6549 27.6891 73.354 27.1577 72.8225C26.6262 72.2911 26.3253 71.5717 26.3201 70.8202V50.8201C26.3253 50.4428 26.4051 50.0703 26.5549 49.724C26.7047 49.3777 26.9216 49.0644 27.193 48.8023C27.4644 48.5401 27.7851 48.3343 28.1364 48.1966C28.4877 48.059 28.8628 47.9922 29.2401 48.0001H35.6001V52.0001H30.4001V69.6002H48.0001V64.4002H52.0001V70.7602C52.0054 71.1374 51.9359 71.512 51.7958 71.8623C51.6557 72.2126 51.4477 72.5317 51.1837 72.8013C50.9197 73.0709 50.605 73.2855 50.2577 73.4329C49.9104 73.5803 49.5374 73.6576 49.1601 73.6602Z" fill="#FF9900"/>
<path d="M70.76 52H64.4V48H69.6V30.4H52V35.6H48V29.3C48.0052 28.5484 48.3061 27.829 48.8376 27.2976C49.3691 26.7661 50.0884 26.4652 50.84 26.46H70.84C71.5916 26.4652 72.3109 26.7661 72.8424 27.2976C73.3739 27.829 73.6748 28.5484 73.68 29.3V49.3C73.6387 50.0409 73.311 50.7368 72.7661 51.2406C72.2213 51.7444 71.5019 52.0167 70.76 52Z" fill="#FF9900"/>
<path d="M13.6209 10.8527L10.7925 13.6812L34.1977 37.0864L37.0261 34.258L13.6209 10.8527Z" fill="#FF9900"/>
<path d="M65.8228 63.0524L62.9944 65.8809L86.3996 89.2861L89.228 86.4577L65.8228 63.0524Z" fill="#FF9900"/>
<path d="M23.3863 73.8286L10.7856 86.4292L13.6141 89.2576L26.2147 76.657L23.3863 73.8286Z" fill="#FF9900"/>
<path d="M86.3863 10.833L73.7856 23.4336L76.6141 26.262L89.2147 13.6614L86.3863 10.833Z" fill="#FF9900"/>
<path d="M15.8 48.0601H5V52.0601H15.8V48.0601Z" fill="#FF9900"/>
<path d="M95 48.0601H84.2V52.0601H95V48.0601Z" fill="#FF9900"/>
<path d="M52 84.2598H48V94.9398H52V84.2598Z" fill="#FF9900"/>
<path d="M52 5.06006H48V15.8601H52V5.06006Z" fill="#FF9900"/>
<path d="M83.74 74.4202L80.5 72.0002C85.1067 65.5895 87.5848 57.8944 87.5848 50.0002C87.5848 42.1059 85.1067 34.4109 80.5 28.0002L83.74 25.6602C88.8501 32.7548 91.5997 41.2768 91.5997 50.0202C91.5997 58.7635 88.8501 67.2855 83.74 74.3801V74.4202Z" fill="#FF9900"/>
<path d="M71.9999 19.5601C65.5892 14.9534 57.8941 12.4753 49.9999 12.4753C42.1057 12.4753 34.4106 14.9534 27.9999 19.5601L25.6399 16.3201C32.7345 11.21 41.2565 8.46045 49.9999 8.46045C58.7433 8.46045 67.2653 11.21 74.3599 16.3201L71.9999 19.5601Z" fill="#FF9900"/>
<path d="M49.9999 91.6601C41.253 91.6818 32.7245 88.93 25.6399 83.8001L27.9999 80.5601C34.4106 85.1668 42.1057 87.6449 49.9999 87.6449C57.8941 87.6449 65.5892 85.1668 71.9999 80.5601L74.3399 83.8001C67.2608 88.926 58.7399 91.6776 49.9999 91.6601Z" fill="#FF9900"/>
<path d="M16.2601 74.4202C11.15 67.3256 8.40039 58.8036 8.40039 50.0602C8.40039 41.3168 11.15 32.7948 16.2601 25.7002L19.5001 28.0002C14.8934 34.4109 12.4153 42.106 12.4153 50.0002C12.4153 57.8944 14.8934 65.5895 19.5001 72.0002L16.2601 74.4202Z" fill="#FF9900"/>
</svg>
