<svg width="100" height="100" viewBox="0 0 100 100" fill="none" xmlns="http://www.w3.org/2000/svg">
<path d="M33.68 60.18V38.88H41.88C43.7865 38.7822 45.6591 39.4112 47.12 40.64C47.7867 41.2345 48.3122 41.9704 48.6582 42.7939C49.0042 43.6174 49.162 44.5078 49.12 45.4C49.1031 46.5966 48.7114 47.7578 48 48.72C47.2911 49.741 46.306 50.5388 45.16 51.02L50.44 60.18H45.72L41.1 52H38.1V60.26L33.68 60.18ZM38.1 48.72H41.3C41.7407 48.781 42.1895 48.7384 42.6108 48.5955C43.0321 48.4526 43.4142 48.2133 43.7268 47.8968C44.0394 47.5803 44.2739 47.1953 44.4116 46.7722C44.5493 46.3492 44.5864 45.8999 44.52 45.46C44.5825 45.0288 44.5441 44.589 44.4081 44.175C44.272 43.7611 44.0418 43.3843 43.7357 43.0743C43.4295 42.7643 43.0557 42.5294 42.6435 42.3881C42.2313 42.2468 41.792 42.203 41.36 42.26H38.1V48.72Z" fill="#FF9900"/>
<path d="M61.3799 60.1799V55.9999H51.3799V52.6799L61.0199 38.8799H65.1999V52.5199H67.9999V55.9999H65.2799V60.2199L61.3799 60.1799ZM61.3799 52.5199V44.3599L55.6599 52.5199H61.3799Z" fill="#FF9900"/>
<path d="M88.6199 88.6199H11.3799V11.3799H88.6199V88.6199ZM15.3799 84.6199H84.6199V15.3799H15.3799V84.6199Z" fill="#FF9900"/>
<path d="M26.42 2H22.42V13.38H26.42V2Z" fill="#FF9900"/>
<path d="M38.96 2H34.96V13.38H38.96V2Z" fill="#FF9900"/>
<path d="M51.52 2H47.52V13.38H51.52V2Z" fill="#FF9900"/>
<path d="M64.08 2H60.08V13.38H64.08V2Z" fill="#FF9900"/>
<path d="M76.64 2H72.64V13.38H76.64V2Z" fill="#FF9900"/>
<path d="M26.42 86.6201H22.42V98.0001H26.42V86.6201Z" fill="#FF9900"/>
<path d="M38.96 86.6201H34.96V98.0001H38.96V86.6201Z" fill="#FF9900"/>
<path d="M51.52 86.6201H47.52V98.0001H51.52V86.6201Z" fill="#FF9900"/>
<path d="M64.08 86.6201H60.08V98.0001H64.08V86.6201Z" fill="#FF9900"/>
<path d="M76.64 86.6201H72.64V98.0001H76.64V86.6201Z" fill="#FF9900"/>
<path d="M98.0001 22.8999H86.6201V26.8999H98.0001V22.8999Z" fill="#FF9900"/>
<path d="M98.0001 35.4399H86.6201V39.4399H98.0001V35.4399Z" fill="#FF9900"/>
<path d="M98.0001 48H86.6201V52H98.0001V48Z" fill="#FF9900"/>
<path d="M98.0001 60.5601H86.6201V64.5601H98.0001V60.5601Z" fill="#FF9900"/>
<path d="M98.0001 73.1001H86.6201V77.1001H98.0001V73.1001Z" fill="#FF9900"/>
<path d="M13.38 22.8999H2V26.8999H13.38V22.8999Z" fill="#FF9900"/>
<path d="M13.38 35.4399H2V39.4399H13.38V35.4399Z" fill="#FF9900"/>
<path d="M13.38 48H2V52H13.38V48Z" fill="#FF9900"/>
<path d="M13.38 60.5601H2V64.5601H13.38V60.5601Z" fill="#FF9900"/>
<path d="M13.38 73.1001H2V77.1001H13.38V73.1001Z" fill="#FF9900"/>
</svg>
