<svg width="100" height="100" viewBox="0 0 100 100" fill="none" xmlns="http://www.w3.org/2000/svg">
<path d="M38.44 52.3998V60.1798H34V38.8798H42C43.9234 38.7788 45.8103 39.4317 47.26 40.6998C47.9266 41.3328 48.45 42.1011 48.795 42.9532C49.14 43.8053 49.2985 44.7214 49.26 45.6398C49.3014 46.5616 49.1443 47.4815 48.7992 48.3372C48.4542 49.193 47.9292 49.9646 47.26 50.5998C45.8073 51.8607 43.9206 52.5063 42 52.3998H38.44ZM38.44 48.9598H41.56C42.003 49.0006 42.4496 48.9469 42.8703 48.8021C43.2909 48.6572 43.676 48.4247 44 48.1198C44.5888 47.4331 44.8834 46.5421 44.82 45.6398C44.8802 44.744 44.5857 43.8604 44 43.1798C43.6863 42.8828 43.315 42.6532 42.9091 42.5053C42.5032 42.3573 42.0713 42.2942 41.64 42.3198H38.44V48.9598Z" fill="#FF9900"/>
<path d="M60.2199 47.7599C61.9279 47.7693 63.5753 48.3942 64.8599 49.5199C65.4206 50.0616 65.8603 50.716 66.1499 51.4399C66.4394 52.1638 66.5724 52.9409 66.5399 53.7199C66.5614 54.9913 66.2141 56.2417 65.5399 57.3199C64.8371 58.4032 63.8275 59.2527 62.6399 59.7599C61.2342 60.3717 59.7126 60.6719 58.1799 60.6399C56.1804 60.6237 54.2058 60.1948 52.3799 59.3799V55.9999C54.1931 56.6871 56.1031 57.0853 58.0399 57.1799C59.1004 57.2526 60.1534 56.9558 61.0199 56.3399C61.3765 56.0187 61.6514 55.6171 61.8218 55.1684C61.9923 54.7197 62.0533 54.2369 61.9999 53.7599C62.0307 53.3515 61.959 52.9418 61.7913 52.5681C61.6237 52.1944 61.3654 51.8685 61.0399 51.6199C60.1519 51.0995 59.1262 50.8622 58.0999 50.9399H56.7199L55.2399 51.0799V48.3199L60.7399 42.3199H52.6599V38.8799H65.6199V42.2599L60.2199 47.7599Z" fill="#FF9900"/>
<path d="M88.6199 88.6199H11.3799V11.3799H88.6199V88.6199ZM15.3799 84.6199H84.6199V15.3799H15.3799V84.6199Z" fill="#FF9900"/>
<path d="M26.4199 2H22.4199V13.38H26.4199V2Z" fill="#FF9900"/>
<path d="M38.96 2H34.96V13.38H38.96V2Z" fill="#FF9900"/>
<path d="M51.52 2H47.52V13.38H51.52V2Z" fill="#FF9900"/>
<path d="M64.0801 2H60.0801V13.38H64.0801V2Z" fill="#FF9900"/>
<path d="M76.6399 2H72.6399V13.38H76.6399V2Z" fill="#FF9900"/>
<path d="M26.4199 86.6201H22.4199V98.0001H26.4199V86.6201Z" fill="#FF9900"/>
<path d="M38.96 86.6201H34.96V98.0001H38.96V86.6201Z" fill="#FF9900"/>
<path d="M51.52 86.6201H47.52V98.0001H51.52V86.6201Z" fill="#FF9900"/>
<path d="M64.0801 86.6201H60.0801V98.0001H64.0801V86.6201Z" fill="#FF9900"/>
<path d="M76.6399 86.6201H72.6399V98.0001H76.6399V86.6201Z" fill="#FF9900"/>
<path d="M98.0001 22.8999H86.6201V26.8999H98.0001V22.8999Z" fill="#FF9900"/>
<path d="M98.0001 35.4399H86.6201V39.4399H98.0001V35.4399Z" fill="#FF9900"/>
<path d="M98.0001 48H86.6201V52H98.0001V48Z" fill="#FF9900"/>
<path d="M98.0001 60.5601H86.6201V64.5601H98.0001V60.5601Z" fill="#FF9900"/>
<path d="M98.0001 73.1001H86.6201V77.1001H98.0001V73.1001Z" fill="#FF9900"/>
<path d="M13.38 22.8999H2V26.8999H13.38V22.8999Z" fill="#FF9900"/>
<path d="M13.38 35.4399H2V39.4399H13.38V35.4399Z" fill="#FF9900"/>
<path d="M13.38 48H2V52H13.38V48Z" fill="#FF9900"/>
<path d="M13.38 60.5601H2V64.5601H13.38V60.5601Z" fill="#FF9900"/>
<path d="M13.38 73.1001H2V77.1001H13.38V73.1001Z" fill="#FF9900"/>
</svg>
