<svg width="100" height="100" viewBox="0 0 100 100" fill="none" xmlns="http://www.w3.org/2000/svg">
<path d="M25 60.18V56.98L33 47.8H25.32V44.48H38V47.68L29.82 56.86H38.14V60.18H25Z" fill="#FF9900"/>
<path d="M47.5 60.1799V43.3799L42 45.0999V41.5999L48 38.8799H52V60.1799H47.5Z" fill="#FF9900"/>
<path d="M70 60.1799L69.64 58.7999C68.4063 59.9262 66.7904 60.5411 65.12 60.5199C63.9071 60.5465 62.7147 60.2048 61.7 59.5399C60.6815 58.8508 59.8885 57.8769 59.42 56.7399C58.8495 55.3655 58.5703 53.8877 58.6 52.3999C58.4887 50.2179 59.1314 48.0641 60.42 46.2999C60.9684 45.5751 61.6795 44.9893 62.4959 44.5897C63.3123 44.1902 64.2112 43.9882 65.12 43.9999C66.6424 43.9685 68.1303 44.4551 69.34 45.3799V37.3799H73.82V60.1799H70ZM66.6 57.1399C67.6026 57.1268 68.5807 56.8285 69.42 56.2799V48.1599C68.4919 47.6417 67.4428 47.3795 66.38 47.3999C65.9016 47.3683 65.4234 47.4646 64.9946 47.6791C64.5658 47.8935 64.2018 48.2182 63.94 48.6199C63.3438 49.7433 63.0737 51.011 63.16 52.2799C63.0567 53.5763 63.3497 54.8736 64 55.9999C64.2943 56.382 64.6781 56.6859 65.1176 56.8847C65.557 57.0835 66.0387 57.1712 66.52 57.1399H66.6Z" fill="#FF9900"/>
<path d="M88.6199 88.6199H11.3799V11.3799H88.6199V88.6199ZM15.3799 84.6199H84.6199V15.3799H15.3799V84.6199Z" fill="#FF9900"/>
<path d="M26.4199 2H22.4199V13.38H26.4199V2Z" fill="#FF9900"/>
<path d="M38.96 2H34.96V13.38H38.96V2Z" fill="#FF9900"/>
<path d="M51.52 2H47.52V13.38H51.52V2Z" fill="#FF9900"/>
<path d="M64.0801 2H60.0801V13.38H64.0801V2Z" fill="#FF9900"/>
<path d="M76.6399 2H72.6399V13.38H76.6399V2Z" fill="#FF9900"/>
<path d="M26.4199 86.6201H22.4199V98.0001H26.4199V86.6201Z" fill="#FF9900"/>
<path d="M38.96 86.6201H34.96V98.0001H38.96V86.6201Z" fill="#FF9900"/>
<path d="M51.52 86.6201H47.52V98.0001H51.52V86.6201Z" fill="#FF9900"/>
<path d="M64.0801 86.6201H60.0801V98.0001H64.0801V86.6201Z" fill="#FF9900"/>
<path d="M76.6399 86.6201H72.6399V98.0001H76.6399V86.6201Z" fill="#FF9900"/>
<path d="M98.0001 22.8999H86.6201V26.8999H98.0001V22.8999Z" fill="#FF9900"/>
<path d="M98.0001 35.4399H86.6201V39.4399H98.0001V35.4399Z" fill="#FF9900"/>
<path d="M98.0001 48H86.6201V52H98.0001V48Z" fill="#FF9900"/>
<path d="M98.0001 60.5601H86.6201V64.5601H98.0001V60.5601Z" fill="#FF9900"/>
<path d="M98.0001 73.1001H86.6201V77.1001H98.0001V73.1001Z" fill="#FF9900"/>
<path d="M13.38 22.8999H2V26.8999H13.38V22.8999Z" fill="#FF9900"/>
<path d="M13.38 35.4399H2V39.4399H13.38V35.4399Z" fill="#FF9900"/>
<path d="M13.38 48H2V52H13.38V48Z" fill="#FF9900"/>
<path d="M13.38 60.5601H2V64.5601H13.38V60.5601Z" fill="#FF9900"/>
<path d="M13.38 73.1001H2V77.1001H13.38V73.1001Z" fill="#FF9900"/>
</svg>
