<svg width="100" height="100" viewBox="0 0 100 100" fill="none" xmlns="http://www.w3.org/2000/svg">
<path d="M38.44 52.3998V60.1798H34V38.8798H42C43.9234 38.7788 45.8103 39.4317 47.26 40.6998C47.9266 41.3328 48.45 42.1011 48.795 42.9532C49.14 43.8053 49.2985 44.7214 49.26 45.6398C49.3014 46.5616 49.1443 47.4815 48.7992 48.3372C48.4542 49.193 47.9292 49.9646 47.26 50.5998C45.8073 51.8607 43.9206 52.5063 42 52.3998H38.44ZM38.44 48.9598H41.56C42.003 49.0006 42.4496 48.9469 42.8703 48.8021C43.2909 48.6572 43.676 48.4247 44 48.1198C44.5888 47.4331 44.8834 46.5421 44.82 45.6398C44.8802 44.744 44.5857 43.8604 44 43.1798C43.6863 42.8828 43.315 42.6532 42.9091 42.5053C42.5032 42.3573 42.0713 42.2942 41.64 42.3198H38.44V48.9598Z" fill="#FF9900"/>
<path d="M52.74 40.8201C53.7601 40.0185 54.9009 39.3839 56.1199 38.9401C57.2917 38.5422 58.5225 38.3461 59.7599 38.3601C61.4741 38.2755 63.1535 38.864 64.4399 40.0001C65.0261 40.5475 65.4868 41.2152 65.7906 41.9574C66.0944 42.6996 66.2341 43.4988 66.1999 44.3001C66.1703 45.4603 65.8689 46.5974 65.3199 47.6201C64.5349 49.0243 63.5812 50.3273 62.4799 51.5001C61.1999 52.9401 59.4599 54.6401 57.2999 56.6201H67.0599V60.1801H52.2V56.8601C54.8666 54.1934 56.8266 52.1267 58.0799 50.6601C59.095 49.5652 59.9994 48.3728 60.7799 47.1001C61.2403 46.3443 61.5018 45.4842 61.5399 44.6001C61.5584 44.2627 61.5037 43.9253 61.3794 43.6112C61.2551 43.297 61.0642 43.0135 60.8199 42.7801C60.2985 42.318 59.6156 42.0807 58.9199 42.1201C57.9118 42.1415 56.9159 42.3448 55.9799 42.7201C54.8346 43.1774 53.7471 43.7682 52.74 44.4801V40.8201Z" fill="#FF9900"/>
<path d="M88.6199 88.6199H11.3799V11.3799H88.6199V88.6199ZM15.3799 84.6199H84.6199V15.3799H15.3799V84.6199Z" fill="#FF9900"/>
<path d="M26.4199 2H22.4199V13.38H26.4199V2Z" fill="#FF9900"/>
<path d="M38.96 2H34.96V13.38H38.96V2Z" fill="#FF9900"/>
<path d="M51.52 2H47.52V13.38H51.52V2Z" fill="#FF9900"/>
<path d="M64.0801 2H60.0801V13.38H64.0801V2Z" fill="#FF9900"/>
<path d="M76.6399 2H72.6399V13.38H76.6399V2Z" fill="#FF9900"/>
<path d="M26.4199 86.6201H22.4199V98.0001H26.4199V86.6201Z" fill="#FF9900"/>
<path d="M38.96 86.6201H34.96V98.0001H38.96V86.6201Z" fill="#FF9900"/>
<path d="M51.52 86.6201H47.52V98.0001H51.52V86.6201Z" fill="#FF9900"/>
<path d="M64.0801 86.6201H60.0801V98.0001H64.0801V86.6201Z" fill="#FF9900"/>
<path d="M76.6399 86.6201H72.6399V98.0001H76.6399V86.6201Z" fill="#FF9900"/>
<path d="M98.0001 22.8999H86.6201V26.8999H98.0001V22.8999Z" fill="#FF9900"/>
<path d="M98.0001 35.4399H86.6201V39.4399H98.0001V35.4399Z" fill="#FF9900"/>
<path d="M98.0001 48H86.6201V52H98.0001V48Z" fill="#FF9900"/>
<path d="M98.0001 60.5601H86.6201V64.5601H98.0001V60.5601Z" fill="#FF9900"/>
<path d="M98.0001 73.1001H86.6201V77.1001H98.0001V73.1001Z" fill="#FF9900"/>
<path d="M13.38 22.8999H2V26.8999H13.38V22.8999Z" fill="#FF9900"/>
<path d="M13.38 35.4399H2V39.4399H13.38V35.4399Z" fill="#FF9900"/>
<path d="M13.38 48H2V52H13.38V48Z" fill="#FF9900"/>
<path d="M13.38 60.5601H2V64.5601H13.38V60.5601Z" fill="#FF9900"/>
<path d="M13.38 73.1001H2V77.1001H13.38V73.1001Z" fill="#FF9900"/>
</svg>
