<svg width="100" height="100" viewBox="0 0 100 100" fill="none" xmlns="http://www.w3.org/2000/svg">
<path d="M39.36 60.1799V45.4399L34.66 54.9799H30.66L25.96 45.4399V60.1799H21.96V38.8799H27L32.8 50.9999L38.64 38.8799H43.58V60.1799H39.36Z" fill="#FF9900"/>
<path d="M47.6399 55.9999C49.57 56.6898 51.5923 57.0875 53.6399 57.1799C54.6717 57.2454 55.693 56.9404 56.5199 56.3199C56.8584 55.9976 57.1217 55.6048 57.2911 55.1692C57.4604 54.7337 57.5317 54.2661 57.4999 53.7999C57.5403 53.3447 57.4726 52.8864 57.3023 52.4624C57.132 52.0384 56.8639 51.6606 56.5199 51.3599C55.6207 50.7708 54.5516 50.4965 53.4799 50.5799C51.7957 50.5894 50.1133 50.6896 48.4399 50.8799V47.9999L48.9999 38.8599H60.9999V42.3999H52.8599L52.5199 47.4199C53.3851 47.2169 54.2712 47.1163 55.1599 47.1199C57.0099 47.0359 58.8214 47.666 60.2199 48.8799C60.8747 49.4752 61.3926 50.2055 61.7379 51.0204C62.0832 51.8352 62.2476 52.7153 62.2199 53.5999C62.2358 54.8741 61.8965 56.1276 61.2399 57.2199C60.5472 58.3161 59.5546 59.1907 58.3799 59.7399C57.0127 60.3637 55.5224 60.6713 54.0199 60.6399C51.8521 60.6513 49.7061 60.2084 47.7199 59.3399L47.6399 55.9999Z" fill="#FF9900"/>
<path d="M75.0399 60.1801L74.6599 58.8001C74.0159 59.3741 73.2787 59.8341 72.4799 60.1601C71.7134 60.4824 70.8914 60.6522 70.0599 60.6601C68.7254 60.7287 67.4177 60.2688 66.4199 59.3801C65.9681 58.9441 65.6134 58.4177 65.379 57.8353C65.1447 57.2528 65.0359 56.6274 65.0599 56.0001C65.043 55.082 65.2931 54.1787 65.7799 53.4001C66.327 52.5902 67.0985 51.9577 67.9999 51.5801C69.0261 51.1289 70.1393 50.9104 71.2599 50.9401C72.3584 50.9467 73.4524 51.0809 74.5199 51.3401V49.8001C74.5675 49.4447 74.5405 49.0833 74.4406 48.7389C74.3408 48.3946 74.1702 48.0748 73.9399 47.8001C73.2997 47.3868 72.538 47.2035 71.7799 47.2801C69.8905 47.3189 68.0171 47.6357 66.2199 48.2201V45.3001C67.1275 44.8661 68.0895 44.5567 69.0799 44.3801C70.1978 44.1406 71.3367 44.0133 72.4799 44.0001C74.1241 43.8536 75.7655 44.3084 77.0999 45.2801C77.6227 45.7982 78.0246 46.4254 78.277 47.1169C78.5294 47.8083 78.626 48.547 78.5599 49.2801V60.1601L75.0399 60.1801ZM71.3199 57.6601C71.8637 57.6511 72.4005 57.5356 72.8999 57.3201C73.4494 57.0905 73.9617 56.7805 74.4199 56.4001V53.7201C73.6196 53.5912 72.8105 53.5243 71.9999 53.5201C70.2199 53.5201 69.3199 54.2201 69.3199 55.6601C69.2916 55.9297 69.3239 56.2022 69.4144 56.4577C69.5049 56.7132 69.6513 56.9453 69.843 57.1369C70.0347 57.3286 70.2668 57.475 70.5223 57.5656C70.7778 57.6561 71.0503 57.6884 71.3199 57.6601Z" fill="#FF9900"/>
<path d="M88.6199 88.6199H11.3799V11.3799H88.6199V88.6199ZM15.3799 84.6199H84.6199V15.3799H15.3799V84.6199Z" fill="#FF9900"/>
<path d="M26.4199 2H22.4199V13.38H26.4199V2Z" fill="#FF9900"/>
<path d="M38.96 2H34.96V13.38H38.96V2Z" fill="#FF9900"/>
<path d="M51.52 2H47.52V13.38H51.52V2Z" fill="#FF9900"/>
<path d="M64.0801 2H60.0801V13.38H64.0801V2Z" fill="#FF9900"/>
<path d="M76.6399 2H72.6399V13.38H76.6399V2Z" fill="#FF9900"/>
<path d="M26.4199 86.6201H22.4199V98.0001H26.4199V86.6201Z" fill="#FF9900"/>
<path d="M38.96 86.6201H34.96V98.0001H38.96V86.6201Z" fill="#FF9900"/>
<path d="M51.52 86.6201H47.52V98.0001H51.52V86.6201Z" fill="#FF9900"/>
<path d="M64.0801 86.6201H60.0801V98.0001H64.0801V86.6201Z" fill="#FF9900"/>
<path d="M76.6399 86.6201H72.6399V98.0001H76.6399V86.6201Z" fill="#FF9900"/>
<path d="M98.0001 22.8999H86.6201V26.8999H98.0001V22.8999Z" fill="#FF9900"/>
<path d="M98.0001 35.4399H86.6201V39.4399H98.0001V35.4399Z" fill="#FF9900"/>
<path d="M98.0001 48H86.6201V52H98.0001V48Z" fill="#FF9900"/>
<path d="M98.0001 60.5601H86.6201V64.5601H98.0001V60.5601Z" fill="#FF9900"/>
<path d="M98.0001 73.1001H86.6201V77.1001H98.0001V73.1001Z" fill="#FF9900"/>
<path d="M13.38 22.8999H2V26.8999H13.38V22.8999Z" fill="#FF9900"/>
<path d="M13.38 35.4399H2V39.4399H13.38V35.4399Z" fill="#FF9900"/>
<path d="M13.38 48H2V52H13.38V48Z" fill="#FF9900"/>
<path d="M13.38 60.5601H2V64.5601H13.38V60.5601Z" fill="#FF9900"/>
<path d="M13.38 73.1001H2V77.1001H13.38V73.1001Z" fill="#FF9900"/>
</svg>
