<svg width="100" height="100" viewBox="0 0 100 100" fill="none" xmlns="http://www.w3.org/2000/svg">
<path d="M49.5 59.6202C47.7217 60.2803 45.8366 60.6058 43.94 60.5802C42.496 60.6941 41.0441 60.5057 39.6769 60.0271C38.3098 59.5484 37.0575 58.79 36 57.8002C34.0804 55.5326 33.1255 52.6033 33.34 49.6402C33.1469 46.6313 34.1537 43.6685 36.14 41.4002C37.175 40.3936 38.4086 39.614 39.762 39.1112C41.1154 38.6084 42.5588 38.3935 44 38.4801C45.7428 38.4777 47.4736 38.7684 49.12 39.3401V42.9801C47.62 42.6095 46.0845 42.4016 44.54 42.3602C43.6732 42.2919 42.8018 42.4062 41.9819 42.6956C41.162 42.985 40.4119 43.443 39.78 44.0402C38.6069 45.5003 38.0348 47.3528 38.18 49.2202V50.0002C38.0373 51.8391 38.5865 53.6651 39.72 55.1202C40.3438 55.7101 41.0844 56.1626 41.8939 56.4485C42.7035 56.7345 43.564 56.8474 44.42 56.7802C46.136 56.6991 47.8387 56.4377 49.5 56.0002V59.6202Z" fill="#FF9900"/>
<path d="M52.2 55.9999C54.13 56.6898 56.1523 57.0875 58.2 57.1799C59.2321 57.249 60.2547 56.9436 61.08 56.3199C61.422 55.9995 61.6891 55.6074 61.862 55.1718C62.0348 54.7361 62.1093 54.2676 62.08 53.7999C62.118 53.3431 62.0472 52.8838 61.8733 52.4596C61.6995 52.0355 61.4276 51.6586 61.08 51.3599C60.182 50.768 59.1119 50.4934 58.04 50.5799C56.3558 50.5894 54.6734 50.6896 53 50.8799V47.9999L53.56 38.8599H65.5599V42.3999H57.4199L57.08 47.4199C57.9452 47.2169 58.8312 47.1163 59.72 47.1199C61.5761 47.0348 63.3942 47.6647 64.8 48.8799C65.4516 49.4777 65.9674 50.2084 66.3124 51.0227C66.6575 51.837 66.8237 52.7158 66.8 53.5999C66.8159 54.8741 66.4765 56.1276 65.8199 57.2199C65.1272 58.3161 64.1347 59.1907 62.9599 59.7399C61.5927 60.3637 60.1024 60.6713 58.5999 60.6399C56.4322 60.6513 54.2861 60.2084 52.2999 59.3399L52.2 55.9999Z" fill="#FF9900"/>
<path d="M88.6199 88.6199H11.3799V11.3799H88.6199V88.6199ZM15.3799 84.6199H84.6199V15.3799H15.3799V84.6199Z" fill="#FF9900"/>
<path d="M26.4199 2H22.4199V13.38H26.4199V2Z" fill="#FF9900"/>
<path d="M38.96 2H34.96V13.38H38.96V2Z" fill="#FF9900"/>
<path d="M51.52 2H47.52V13.38H51.52V2Z" fill="#FF9900"/>
<path d="M64.0801 2H60.0801V13.38H64.0801V2Z" fill="#FF9900"/>
<path d="M76.6399 2H72.6399V13.38H76.6399V2Z" fill="#FF9900"/>
<path d="M26.4199 86.6201H22.4199V98.0001H26.4199V86.6201Z" fill="#FF9900"/>
<path d="M38.96 86.6201H34.96V98.0001H38.96V86.6201Z" fill="#FF9900"/>
<path d="M51.52 86.6201H47.52V98.0001H51.52V86.6201Z" fill="#FF9900"/>
<path d="M64.0801 86.6201H60.0801V98.0001H64.0801V86.6201Z" fill="#FF9900"/>
<path d="M76.6399 86.6201H72.6399V98.0001H76.6399V86.6201Z" fill="#FF9900"/>
<path d="M98.0001 22.8999H86.6201V26.8999H98.0001V22.8999Z" fill="#FF9900"/>
<path d="M98.0001 35.4399H86.6201V39.4399H98.0001V35.4399Z" fill="#FF9900"/>
<path d="M98.0001 48H86.6201V52H98.0001V48Z" fill="#FF9900"/>
<path d="M98.0001 60.5601H86.6201V64.5601H98.0001V60.5601Z" fill="#FF9900"/>
<path d="M98.0001 73.1001H86.6201V77.1001H98.0001V73.1001Z" fill="#FF9900"/>
<path d="M13.38 22.8999H2V26.8999H13.38V22.8999Z" fill="#FF9900"/>
<path d="M13.38 35.4399H2V39.4399H13.38V35.4399Z" fill="#FF9900"/>
<path d="M13.38 48H2V52H13.38V48Z" fill="#FF9900"/>
<path d="M13.38 60.5601H2V64.5601H13.38V60.5601Z" fill="#FF9900"/>
<path d="M13.38 73.1001H2V77.1001H13.38V73.1001Z" fill="#FF9900"/>
</svg>
