<?xml version="1.0" standalone="no"?>
<!DOCTYPE svg PUBLIC "-//W3C//DTD SVG 20010904//EN"
 "http://www.w3.org/TR/2001/REC-SVG-20010904/DTD/svg10.dtd">
<svg version="1.0" xmlns="http://www.w3.org/2000/svg"
 width="800.000000pt" height="800.000000pt" viewBox="0 0 800.000000 800.000000"
 preserveAspectRatio="xMidYMid meet">

<g transform="translate(0.000000,800.000000) scale(0.100000,-0.100000)"
fill="#000000" stroke="none">
<path d="M330 6665 l0 -665 170 0 170 0 0 500 0 500 500 0 500 0 0 165 0 165
-670 0 -670 0 0 -665z"/>
<path d="M6670 7165 l0 -165 500 0 500 0 0 -500 0 -500 165 0 165 0 0 665 0
665 -665 0 -665 0 0 -165z"/>
<path d="M1330 3830 l0 -2500 2835 0 2835 0 0 2500 0 2500 -2835 0 -2835 0 0
-2500z m5340 1335 l0 -835 -2500 0 -2500 0 0 835 0 835 2500 0 2500 0 0 -835z
m-2670 -2330 l0 -1165 -1165 0 -1165 0 0 1165 0 1165 1165 0 1165 0 0 -1165z
m2670 0 l0 -1165 -1170 0 -1170 0 0 1165 0 1165 1170 0 1170 0 0 -1165z"/>
<path d="M330 1000 l0 -670 670 0 670 0 0 170 0 170 -500 0 -500 0 0 500 0
500 -170 0 -170 0 0 -670z"/>
<path d="M7670 1170 l0 -500 -500 0 -500 0 0 -170 0 -170 665 0 665 0 0 670 0
670 -165 0 -165 0 0 -500z"/>
</g>
</svg>
