<svg width="100" height="100" viewBox="0 0 100 100" fill="none" xmlns="http://www.w3.org/2000/svg">
<g clip-path="url(#clip0_2385_7243)">
<path d="M100 0H0V100H100V0Z" fill="url(#paint0_linear_2385_7243)"/>
<path d="M62.6133 81.9599H53.6799V56.0132H56.3466V79.2932H59.9466V61.1199H62.6133V81.9599Z" fill="white"/>
<path d="M61.7868 62.4533H55.9202V59.7866H61.2535C64.3335 58.3467 71.2535 55.04 72.6802 51.32H61.5868V48.6533H75.5468V49.9867C75.5468 56.04 66.4402 60.2933 62.0535 62.3333L61.7868 62.4533Z" fill="white"/>
<path d="M61.4667 62.1197L59.6934 60.133C59.6934 60.133 64.1734 55.9997 63.4667 50.1864L66.1334 49.853C66.3331 52.1174 66.0169 54.3976 65.2086 56.5222C64.4004 58.6469 63.121 60.5606 61.4667 62.1197Z" fill="white"/>
<path d="M50.9333 81.8664H40.0266V54.8931H42.6933V79.1997H48.2666V54.8931H50.9333V81.8664Z" fill="white"/>
<path d="M32.2668 28.6132L29.8801 27.4265C31.2819 24.6122 33.4408 22.2444 36.1141 20.5894C38.7874 18.9344 41.8693 18.0576 45.0135 18.0576C48.1576 18.0576 51.2395 18.9344 53.9128 20.5894C56.5861 22.2444 58.745 24.6122 60.1468 27.4265L57.7601 28.6265C56.5795 26.2559 54.7611 24.2615 52.5094 22.8674C50.2577 21.4733 47.6618 20.7348 45.0135 20.7348C42.3651 20.7348 39.7692 21.4733 37.5175 22.8674C35.2658 24.2615 33.4474 26.2559 32.2668 28.6265V28.6132Z" fill="white"/>
<path d="M35.5468 30.2532L33.1602 29.0665C34.2562 26.8579 35.9471 24.9992 38.0425 23.6998C40.1379 22.4004 42.5546 21.7119 45.0202 21.7119C47.4858 21.7119 49.9024 22.4004 51.9978 23.6998C54.0932 24.9992 55.7842 26.8579 56.8802 29.0665L54.4935 30.2532C53.6151 28.4924 52.2634 27.0113 50.59 25.976C48.9167 24.9407 46.9879 24.3923 45.0202 24.3923C43.0524 24.3923 41.1237 24.9407 39.4503 25.976C37.7769 27.0113 36.4252 28.4924 35.5468 30.2532Z" fill="white"/>
<path d="M51.2133 31.8801C50.6429 30.7245 49.7606 29.7515 48.6661 29.0712C47.5716 28.3908 46.3086 28.0303 45.0199 28.0303C43.7312 28.0303 42.4683 28.3908 41.3738 29.0712C40.2793 29.7515 39.397 30.7245 38.8266 31.8801L36.4399 30.6667C37.2315 29.0674 38.4543 27.7211 39.9704 26.7799C41.4865 25.8386 43.2354 25.3398 45.0199 25.3398C46.8044 25.3398 48.5534 25.8386 50.0695 26.7799C51.5856 27.7211 52.8084 29.0674 53.5999 30.6667L51.2133 31.8801Z" fill="white"/>
<path d="M48.9867 56.2267H41.0667L40.8 56.1067C29.8 50.9601 24.4534 45.7734 24.4534 40.2401V38.9067H64.68V40.2401C64.68 47.4001 56.2934 52.8134 49.2534 56.1067L48.9867 56.2267ZM41.6534 53.5601H48.3867C53.2 51.2801 60.76 46.8934 61.8667 41.5601H27.28C28 44.5201 31.32 48.6934 41.6534 53.5601Z" fill="white"/>
<path d="M46.3466 40.2935H43.6799V54.1868H46.3466V40.2935Z" fill="white"/>
<path d="M49.5734 55.8796L47.8 53.893L48.68 54.893L47.8 53.893C47.8 53.893 53.8667 48.333 52.8934 40.453L55.5601 40.1196C56.6801 49.413 49.8667 55.6263 49.5734 55.8796Z" fill="white"/>
<path d="M41.3333 55.8796C41.04 55.6263 34.2266 49.413 35.36 40.1196L38.0266 40.453C37.0533 48.373 43.0666 53.7863 43.12 53.893L41.3333 55.8796Z" fill="white"/>
<path d="M42.0666 41.1998L39.7466 39.8798L42.9466 34.3198H47.3199L50.2933 39.9198L47.9333 41.1732L45.7199 36.9865H44.4799L42.0666 41.1998Z" fill="white"/>
<path d="M46.0266 35.9998H43.9999L41.3333 33.3332V31.3332L43.9999 28.6665H46.0133L48.6799 31.3332V33.3332L46.0266 35.9998ZM44.1599 32.3732L45.0266 33.2398L45.8799 32.3732L45.0266 31.5065L44.1599 32.3732Z" fill="white"/>
</g>
<defs>
<linearGradient id="paint0_linear_2385_7243" x1="-20.7147" y1="120.711" x2="120.707" y2="-20.7107" gradientUnits="userSpaceOnUse">
<stop stop-color="#2E27AD"/>
<stop offset="1" stop-color="#527FFF"/>
</linearGradient>
<clipPath id="clip0_2385_7243">
<rect width="100" height="100" fill="white"/>
</clipPath>
</defs>
</svg>
