<svg width="100" height="100" viewBox="0 0 100 100" fill="none" xmlns="http://www.w3.org/2000/svg">
<g clip-path="url(#clip0_2385_7244)">
<path d="M100 0H0V100H100V0Z" fill="url(#paint0_linear_2385_7244)"/>
<path d="M66.5211 29.0001C64.776 28.9944 63.0645 29.4789 61.5812 30.3982C60.0979 31.3175 58.9025 32.6348 58.1311 34.2001L59.9511 35.1201C60.5609 33.8938 61.5008 32.8621 62.665 32.1408C63.8292 31.4196 65.1716 31.0375 66.5411 31.0375C67.9106 31.0375 69.253 31.4196 70.4172 32.1408C71.5814 32.8621 72.5213 33.8938 73.1311 35.1201L74.9211 34.2201C74.1527 32.6488 72.9572 31.3257 71.4715 30.4025C69.9859 29.4792 68.2702 28.9932 66.5211 29.0001Z" fill="white"/>
<path d="M66.5209 34.1801C67.317 34.1778 68.0977 34.3987 68.7747 34.8176C69.4517 35.2365 69.9977 35.8367 70.3509 36.5501L72.1409 35.6601C71.6199 34.6154 70.8181 33.7366 69.8253 33.1223C68.8326 32.508 67.6883 32.1826 66.5209 32.1826C65.3535 32.1826 64.2092 32.508 63.2164 33.1223C62.2237 33.7366 61.4218 34.6154 60.9009 35.6601L62.6909 36.5501C63.0431 35.8359 63.5889 35.2351 64.2661 34.816C64.9433 34.397 65.7246 34.1767 66.5209 34.1801Z" fill="white"/>
<path d="M69.591 40.3701C69.8664 39.7203 69.9249 38.9991 69.7578 38.3135C69.5907 37.6279 69.2069 37.0145 68.6635 36.5643C68.1201 36.1141 67.446 35.8512 66.7412 35.8146C66.0365 35.7779 65.3388 35.9696 64.7516 36.361C64.1645 36.7524 63.7192 37.3228 63.482 37.9874C63.2447 38.652 63.2281 39.3754 63.4347 40.0502C63.6412 40.7249 64.0599 41.3151 64.6285 41.733C65.1971 42.151 65.8853 42.3744 66.591 42.3701C67.1367 42.3633 67.6724 42.2225 68.151 41.9601C68.8429 42.1453 69.4828 42.4875 70.021 42.9601C70.2298 43.138 70.3839 43.3715 70.4653 43.6335C70.5467 43.8954 70.5522 44.1751 70.481 44.4401C70.231 45.7001 68.831 47.4401 66.261 49.3301C65.4194 45.1262 63.1246 41.3529 59.7792 38.6717C56.4337 35.9905 52.2511 34.5728 47.9649 34.667C43.6787 34.7613 39.5624 36.3615 36.3381 39.1871C33.1137 42.0127 30.987 45.8833 30.331 50.1201C27.941 51.8501 25.211 54.3501 25.011 56.8901C24.9691 57.4151 25.0473 57.9428 25.2396 58.4331C25.4319 58.9234 25.7333 59.3635 26.121 59.7201C27.371 60.9201 29.571 61.5501 32.341 61.7201C34.29 65.2736 37.366 68.0778 41.0842 69.6907C44.8024 71.3037 48.9516 71.6337 52.878 70.6289C56.8045 69.6241 60.285 67.3415 62.7714 64.1408C65.2577 60.94 66.6085 57.0031 66.611 52.9501C66.611 52.4601 66.611 51.9501 66.541 51.4901C69.881 49.1801 72.011 46.8401 72.421 44.7801C72.5632 44.1877 72.5456 43.5682 72.3699 42.9849C72.1942 42.4015 71.8667 41.8753 71.421 41.4601C70.8824 40.9884 70.2623 40.619 69.591 40.3701ZM65.661 40.0101C65.482 39.8311 65.36 39.603 65.3106 39.3547C65.2612 39.1064 65.2865 38.849 65.3834 38.6151C65.4803 38.3812 65.6443 38.1813 65.8548 38.0406C66.0653 37.9 66.3128 37.8249 66.566 37.8249C66.8192 37.8249 67.0666 37.9 67.2771 38.0406C67.4877 38.1813 67.6517 38.3812 67.7486 38.6151C67.8455 38.849 67.8708 39.1064 67.8214 39.3547C67.772 39.603 67.65 39.8311 67.471 40.0101C67.2309 40.2501 66.9054 40.3849 66.566 40.3849C66.2266 40.3849 65.901 40.2501 65.661 40.0101ZM48.351 36.7201C52.2382 36.7283 55.9942 38.1272 58.9397 40.6638C61.8853 43.2003 63.826 46.7071 64.411 50.5501C61.2499 52.5138 57.8998 54.1553 54.411 55.4501C46.311 58.5501 38.761 59.9001 33.621 59.8201C32.4617 57.345 31.9466 54.6171 32.1236 51.8896C32.3006 49.1622 33.1639 46.5238 34.6334 44.2193C36.1029 41.9148 38.1309 40.019 40.5291 38.7079C42.9273 37.3969 45.6178 36.7131 48.351 36.7201ZM27.511 58.3101C27.3349 58.1581 27.1977 57.9664 27.1107 57.7507C27.0237 57.535 26.9896 57.3016 27.011 57.0701C27.091 55.9401 28.201 54.4601 30.091 52.8701C30.091 52.8701 30.091 52.9401 30.091 52.9801C30.0958 55.2714 30.5335 57.5412 31.381 59.6701C29.9841 59.6134 28.6362 59.1397 27.511 58.3101ZM64.611 52.9801C64.614 56.4922 63.4791 59.9108 61.3762 62.7238C59.2733 65.5368 56.3156 67.5928 52.9462 68.5838C49.5768 69.5748 45.977 69.4475 42.686 68.2209C39.395 66.9944 36.5899 64.7346 34.691 61.7801C41.6924 61.3952 48.5867 59.8893 55.111 57.3201C58.4008 56.0867 61.5763 54.5676 64.601 52.7801C64.601 52.8501 64.611 52.9101 64.611 52.9801Z" fill="white"/>
</g>
<defs>
<linearGradient id="paint0_linear_2385_7244" x1="0" y1="100" x2="100" y2="0" gradientUnits="userSpaceOnUse">
<stop stop-color="#2E27AD"/>
<stop offset="1" stop-color="#527FFF"/>
</linearGradient>
<clipPath id="clip0_2385_7244">
<rect width="100" height="100" fill="white"/>
</clipPath>
</defs>
</svg>
