<svg width="100" height="100" viewBox="0 0 100 100" fill="none" xmlns="http://www.w3.org/2000/svg">
<g clip-path="url(#clip0_2385_4406)">
<path d="M100 0H0V100H100V0Z" fill="url(#paint0_linear_2385_4406)"/>
<path d="M37.6534 56.9865C36.5334 57.0799 35.44 57.2265 34.4134 57.3865C33.4496 53.6647 32.9216 49.8436 32.84 45.9999H55.4C55.3521 47.9763 55.1918 49.9483 54.92 51.9065H57.5867C57.8267 50.0132 57.9734 48.0399 58.0267 45.9999H69.8934C69.7985 47.8028 69.5124 49.5906 69.04 51.3332C69.9783 50.8369 70.9847 50.4819 72.0267 50.2799C72.403 48.4461 72.5906 46.5786 72.5867 44.7065C72.5867 37.2805 69.6367 30.1586 64.3857 24.9076C59.1347 19.6565 52.0128 16.7065 44.5867 16.7065H44.04H43.4667H43.3067C36.7114 17.0208 30.4394 19.6556 25.5984 24.1457C20.7573 28.6357 17.6588 34.6921 16.8501 41.2451C16.0413 47.7982 17.5743 54.4262 21.1784 59.9585C24.7825 65.4909 30.2257 69.5716 36.5467 71.4799V68.6799C32.8909 67.442 29.5663 65.3853 26.8267 62.6665C28.5488 61.556 30.4831 60.8159 32.5067 60.4932C33.4074 63.3779 34.8014 66.0847 36.6267 68.4932V63.4265C36.0781 62.3161 35.6015 61.1715 35.2 59.9999L36.8134 59.7865C36.9722 58.8211 37.2545 57.88 37.6534 56.9865ZM32.84 43.3332C32.9184 39.4708 33.451 35.6311 34.4267 31.8932C37.866 32.4397 41.3443 32.7028 44.8267 32.6799C47.8499 32.6915 50.8704 32.4955 53.8667 32.0932C54.8028 35.7741 55.3172 39.5494 55.4 43.3465L32.84 43.3332ZM43.8934 19.3332H44.24C47.8 19.4132 51.04 23.4265 53.0934 29.4932C50.3507 29.8286 47.5898 29.9934 44.8267 29.9865C41.6102 30.017 38.3962 29.7986 35.2134 29.3332C37.2534 23.4132 40.4134 19.5065 43.8934 19.3465V19.3332ZM58.0667 43.3332C58.0001 39.3935 57.4811 35.4745 56.52 31.6532C59.2922 31.2616 61.9377 30.2399 64.2534 28.6665C67.6621 32.8247 69.6523 37.9637 69.9334 43.3332H58.0667ZM62.4667 26.6665C60.4518 27.9547 58.1737 28.7748 55.8 29.0665C54.8185 25.7767 53.166 22.7259 50.9467 20.1065C55.3009 21.2319 59.2771 23.4961 62.4667 26.6665ZM32.5467 28.7999C30.5533 28.4705 28.6584 27.7007 27 26.5465C29.7925 23.8057 33.184 21.7516 36.9067 20.5465C34.9579 23.0109 33.4799 25.8132 32.5467 28.8132V28.7999ZM25.2 28.5065C27.1457 29.9537 29.4002 30.9304 31.7867 31.3599C30.7767 35.2821 30.2351 39.3102 30.1734 43.3599H19.4C19.6785 37.9163 21.7135 32.7096 25.2 28.5199V28.5065ZM25.04 60.6132C21.653 56.4457 19.6779 51.3097 19.4 45.9465H30.1734C30.2348 49.9603 30.7719 53.9526 31.7734 57.8399C29.3532 58.2687 27.0554 59.2196 25.04 60.6265V60.6132Z" fill="white"/>
<path d="M83.2933 77.1064V63.5064C83.2873 63.3827 83.2602 63.261 83.2133 63.1464C83.2668 62.771 83.2936 62.3922 83.2933 62.013C83.291 60.1776 82.7476 58.3836 81.7311 56.8554C80.7145 55.3272 79.2699 54.1327 77.578 53.4212C75.8861 52.7097 74.0219 52.5129 72.2187 52.8553C70.4155 53.1977 68.7533 54.0642 67.44 55.3464H55.1467C53.8334 54.0642 52.1711 53.1977 50.3679 52.8553C48.5647 52.5129 46.7006 52.7097 45.0087 53.4212C43.3168 54.1327 41.8722 55.3272 40.8556 56.8554C39.8391 58.3836 39.2956 60.1776 39.2933 62.013C39.2931 62.3922 39.3198 62.771 39.3733 63.1464C39.3279 63.2614 39.3009 63.3829 39.2933 63.5064V77.0664C39.2536 78.7935 39.8625 80.4728 41 81.773C41.5223 82.296 42.1475 82.7048 42.8361 82.9733C43.5247 83.2419 44.2616 83.3644 45 83.333C49.4267 83.333 51.6667 77.7864 53.5067 72.893C53.92 71.8397 54.3067 70.853 54.6933 69.9997H67.9467C68.3333 70.853 68.72 71.8397 69.12 72.893C71.04 77.7864 73.2 83.333 77.64 83.333C78.3784 83.3644 79.1153 83.2419 79.8039 82.9733C80.4925 82.7048 81.1178 82.296 81.64 81.773C82.7511 80.4765 83.3404 78.8132 83.2933 77.1064ZM80.6267 62.013C80.6267 63.3316 80.2357 64.6205 79.5031 65.7168C78.7706 66.8132 77.7294 67.6677 76.5112 68.1722C75.2931 68.6768 73.9526 68.8088 72.6594 68.5516C71.3662 68.2944 70.1783 67.6594 69.246 66.7271C68.3136 65.7947 67.6787 64.6068 67.4214 63.3136C67.1642 62.0204 67.2962 60.68 67.8008 59.4618C68.3054 58.2436 69.1599 57.2025 70.2562 56.4699C71.3525 55.7374 72.6415 55.3464 73.96 55.3464C75.7281 55.3464 77.4238 56.0488 78.6741 57.299C79.9243 58.5492 80.6267 60.2449 80.6267 62.013ZM57.04 58.013H65.5467C64.838 59.4967 64.5338 61.1412 64.665 62.7801C64.7961 64.4191 65.3578 65.9943 66.2933 67.3464H56.2933C57.2289 65.9943 57.7906 64.4191 57.9217 62.7801C58.0528 61.1412 57.7487 59.4967 57.04 58.013ZM48.6267 55.3464C49.9452 55.3464 51.2341 55.7374 52.3305 56.4699C53.4268 57.2025 54.2813 58.2436 54.7859 59.4618C55.2905 60.68 55.4225 62.0204 55.1652 63.3136C54.908 64.6068 54.2731 65.7947 53.3407 66.7271C52.4084 67.6594 51.2205 68.2944 49.9273 68.5516C48.6341 68.8088 47.2936 68.6768 46.0754 68.1722C44.8573 67.6677 43.8161 66.8132 43.0835 65.7168C42.351 64.6205 41.96 63.3316 41.96 62.013C41.9583 61.1364 42.1294 60.2681 42.4636 59.4577C42.7979 58.6473 43.2887 57.9108 43.9079 57.2904C44.5271 56.6699 45.2627 56.1776 46.0724 55.8418C46.8821 55.5059 47.7501 55.333 48.6267 55.333V55.3464ZM44.9733 80.6797C44.6029 80.7112 44.2299 80.6672 43.8769 80.5503C43.524 80.4335 43.1984 80.2461 42.92 79.9997C42.2833 79.1965 41.9442 78.1978 41.96 77.173V68.5464C42.8241 69.4415 43.8599 70.1532 45.0054 70.6389C46.1508 71.1246 47.3825 71.3743 48.6267 71.373C49.5633 71.3755 50.4945 71.2316 51.3867 70.9464L51 71.9197C49.48 75.813 47.5867 80.6664 44.9733 80.6664V80.6797ZM79.64 79.9464C79.3659 80.2023 79.0424 80.3994 78.6892 80.5255C78.3361 80.6516 77.9609 80.7041 77.5867 80.6797C74.92 80.6797 73.08 75.8264 71.56 71.933C71.4267 71.5997 71.2933 71.2797 71.1733 70.9597C72.0655 71.2449 72.9967 71.3888 73.9333 71.3864C75.1768 71.3831 76.4071 71.1313 77.552 70.6459C78.6968 70.1605 79.7331 69.4512 80.6 68.5597V77.1597C80.6288 78.1861 80.2987 79.1904 79.6667 79.9997L79.64 79.9464Z" fill="white"/>
<path d="M47.2934 65.9999H49.96V63.3332H52.6267V60.6799H49.96V58.0132H47.2934V60.6799H44.6267V63.3332H47.2934V65.9999Z" fill="white"/>
<path d="M73.96 64.1865C74.3898 64.1865 74.81 64.0591 75.1674 63.8202C75.5248 63.5814 75.8034 63.242 75.9679 62.8449C76.1323 62.4478 76.1754 62.0108 76.0915 61.5892C76.0077 61.1676 75.8007 60.7803 75.4967 60.4764C75.1928 60.1725 74.8055 59.9655 74.3839 59.8816C73.9624 59.7977 73.5254 59.8408 73.1283 60.0053C72.7311 60.1698 72.3917 60.4483 72.1529 60.8057C71.9141 61.1631 71.7866 61.5833 71.7866 62.0132C71.7866 62.5896 72.0156 63.1424 72.4232 63.55C72.8308 63.9575 73.3836 64.1865 73.96 64.1865Z" fill="white"/>
</g>
<defs>
<linearGradient id="paint0_linear_2385_4406" x1="-20.7107" y1="120.715" x2="120.711" y2="-20.7067" gradientUnits="userSpaceOnUse">
<stop stop-color="#4D27A8"/>
<stop offset="1" stop-color="#A166FF"/>
</linearGradient>
<clipPath id="clip0_2385_4406">
<rect width="100" height="100" fill="white"/>
</clipPath>
</defs>
</svg>
