<svg width="100" height="100" viewBox="0 0 100 100" fill="none" xmlns="http://www.w3.org/2000/svg">
<g clip-path="url(#clip0_2385_4407)">
<path d="M100 0H0V100H100V0Z" fill="url(#paint0_linear_2385_4407)"/>
<path d="M33.6701 52.8299H35.6701V49.9999H38.5001V47.9999H35.6701V45.1699H33.6701V47.9999H30.8301V49.9999H33.6701V52.8299Z" fill="white"/>
<path d="M75.2801 66.25V50.25C75.2904 50.1637 75.2904 50.0764 75.2801 49.99C75.2801 49.65 75.2801 49.31 75.2801 48.99C75.2811 47.0692 74.7251 45.1893 73.6793 43.5781C72.6335 41.967 71.1429 40.6937 69.3881 39.9126C67.6333 39.1315 65.6896 38.8761 63.7925 39.1774C61.8955 39.4787 60.1265 40.3237 58.7001 41.61H51.0001V29.83C50.9435 28.5857 50.4093 27.4112 49.5088 26.5507C48.6082 25.6902 47.4106 25.21 46.1651 25.21C44.9195 25.21 43.7219 25.6902 42.8213 26.5507C41.9208 27.4112 41.3867 28.5857 41.3301 29.83V32.39C41.3301 33.1406 41.0319 33.8604 40.5012 34.3911C39.9704 34.9219 39.2506 35.22 38.5001 35.22C37.7495 35.22 37.0297 34.9219 36.4989 34.3911C35.9682 33.8604 35.6701 33.1406 35.6701 32.39V31.11H33.6701V32.39C33.6701 33.671 34.1789 34.8995 35.0847 35.8053C35.9905 36.7111 37.2191 37.22 38.5001 37.22C39.7811 37.22 41.0096 36.7111 41.9154 35.8053C42.8212 34.8995 43.3301 33.671 43.3301 32.39V29.83C43.373 29.1072 43.6904 28.4282 44.2173 27.9316C44.7443 27.435 45.441 27.1585 46.1651 27.1585C46.8891 27.1585 47.5858 27.435 48.1128 27.9316C48.6397 28.4282 48.9571 29.1072 49.0001 29.83V41.61H41.3001C39.8729 40.3231 38.1031 39.4779 36.2051 39.177C34.3072 38.876 32.3627 39.1323 30.6074 39.9146C28.8522 40.6969 27.3617 41.9717 26.3167 43.5844C25.2717 45.1971 24.717 47.0784 24.7201 49C24.7201 49.34 24.7201 49.68 24.7701 50C24.7429 50.0843 24.7261 50.1716 24.7201 50.26V66.22C24.6973 68.0942 25.3545 69.9132 26.5701 71.34C27.1264 71.8968 27.7923 72.3318 28.5257 72.6176C29.259 72.9033 30.0437 73.0336 30.8301 73C35.6501 73 38.1201 66.67 40.3001 61.09C40.7901 59.86 41.3001 58.69 41.7001 57.67H58.3001C58.7501 58.67 59.2101 59.86 59.7001 61.09C61.8801 66.67 64.3501 73 69.1701 73C69.9564 73.0336 70.7411 72.9033 71.4745 72.6176C72.2078 72.3318 72.8737 71.8968 73.4301 71.34C74.6396 69.9215 75.2965 68.1141 75.2801 66.25ZM65.2801 41.06C66.8525 41.0501 68.3925 41.5074 69.7048 42.3738C71.0171 43.2402 72.0426 44.4768 72.6512 45.9267C73.2598 47.3767 73.4242 48.9747 73.1235 50.5182C72.8228 52.0616 72.0706 53.4811 70.9622 54.5965C69.8538 55.712 68.4391 56.4732 66.8976 56.7836C65.356 57.094 63.757 56.9397 62.3032 56.3403C60.8494 55.7408 59.6064 54.7232 58.7317 53.4164C57.857 52.1096 57.3901 50.5725 57.3901 49C57.4058 46.899 58.2473 44.8886 59.733 43.4029C61.2186 41.9173 63.2291 41.0757 65.3301 41.06H65.2801ZM58.0001 55.67H42.0001C43.4801 54.0551 44.3815 51.9941 44.5625 49.811C44.7435 47.628 44.1939 45.4467 43.0001 43.61H57.0001C55.8062 45.4467 55.2566 47.628 55.4376 49.811C55.6186 51.9941 56.52 54.0551 58.0001 55.67ZM34.6701 41.06C36.2378 41.0719 37.767 41.5476 39.0648 42.4272C40.3626 43.3068 41.371 44.551 41.9627 46.0029C42.5545 47.4547 42.7032 49.0492 42.3901 50.5855C42.077 52.1217 41.3161 53.5309 40.2033 54.6353C39.0905 55.7397 37.6757 56.49 36.1371 56.7916C34.5986 57.0931 33.0052 56.9324 31.5579 56.3297C30.1105 55.727 28.874 54.7093 28.0041 53.4049C27.1343 52.1005 26.6701 50.5678 26.6701 49C26.6714 47.9526 26.8796 46.9158 27.2828 45.9492C27.6861 44.9825 28.2764 44.1051 29.0198 43.3672C29.7631 42.6294 30.645 42.0458 31.6147 41.6498C32.5843 41.2539 33.6227 41.0534 34.6701 41.06ZM30.8301 71C30.3148 71.0384 29.7972 70.9694 29.31 70.7972C28.8229 70.6251 28.3768 70.3536 28.0001 70C27.1502 68.9519 26.6938 67.6394 26.7101 66.29V55C28.1516 56.9279 30.2449 58.2658 32.6 58.7644C34.955 59.263 37.4109 58.8882 39.5101 57.71C39.1601 58.56 38.8001 59.46 38.4301 60.4C36.5901 65.1 34.2801 71 30.8301 71ZM72.0001 70C71.6237 70.3541 71.1776 70.6259 70.6904 70.7981C70.2031 70.9703 69.6854 71.039 69.1701 71C65.7201 71 63.4101 65.1 61.5601 60.36C61.1901 59.42 60.8301 58.52 60.4801 57.67C62.5747 58.8524 65.0276 59.2335 67.3822 58.7424C69.7369 58.2512 71.8328 56.9212 73.2801 55V66.28C73.2973 67.6309 72.8448 68.9458 72.0001 70Z" fill="white"/>
<path d="M65.33 51.5599C65.8368 51.5619 66.3327 51.4134 66.755 51.1334C67.1773 50.8533 67.507 50.4541 67.7023 49.9865C67.8976 49.5189 67.9497 49.0039 67.8521 48.5066C67.7544 48.0094 67.5114 47.5523 67.1538 47.1933C66.7961 46.8343 66.34 46.5895 65.8432 46.4899C65.3463 46.3903 64.831 46.4404 64.3627 46.6339C63.8943 46.8273 63.4939 47.1554 63.2122 47.5766C62.9304 47.9978 62.78 48.4932 62.78 48.9999C62.78 49.6771 63.0484 50.3268 63.5263 50.8066C64.0042 51.2864 64.6528 51.5573 65.33 51.5599Z" fill="white"/>
</g>
<defs>
<linearGradient id="paint0_linear_2385_4407" x1="0" y1="100" x2="100" y2="0" gradientUnits="userSpaceOnUse">
<stop stop-color="#4D27A8"/>
<stop offset="1" stop-color="#A166FF"/>
</linearGradient>
<clipPath id="clip0_2385_4407">
<rect width="100" height="100" fill="white"/>
</clipPath>
</defs>
</svg>
